<?xml version="1.0" standalone="no"?>
<!DOCTYPE svg PUBLIC "-//W3C//DTD SVG 1.1//EN" "http://www.w3.org/Graphics/SVG/1.1/DTD/svg11.dtd" >
<svg xmlns="http://www.w3.org/2000/svg" xmlns:xlink="http://www.w3.org/1999/xlink" version="1.1">
<metadata>
Created by FontForge 20170731 at Sun Jun 12 15:31:49 2022
 By Aleksey,,,
Copyright (c) 2018 by Elena Genova. All rights reserved. |DCNT
</metadata>
<defs>
<font id="AbovetheBeyondSerif-Regular" horiz-adv-x="0" >
  <font-face 
    font-family="Above the Beyond Serif"
    font-weight="400"
    font-stretch="semi-expanded"
    units-per-em="2048"
    panose-1="0 0 5 0 0 0 0 0 0 0"
    ascent="1516"
    descent="-532"
    x-height="1004"
    cap-height="1382"
    bbox="-1471.8 -535.571 2220 1804.32"
    underline-thickness="102"
    underline-position="-307"
    unicode-range="U+0020-2260"
  />
<missing-glyph horiz-adv-x="1003" 
d="M186 1495h637v-2007h-637v2007zM668 1294v66h-330v-66h129v-73h-131v-68h332v68h-131v73h131zM537 961v141h-201v-209h332v68h-131zM401 1034h66v-73h-66v73zM668 772v68h-332v-68h131v-74h-131v-65h201v139h131zM668 518v201h-66v-133h-266v-68h332zM668 246v227h-201
v-113h70v48h65v-95h-201v160h-65v-227h332zM668 -100v227h-332v-227h332zM401 59h201v-94h-201v94zM668 -213v66h-332v-66h139l-139 -94v-66h332v66h-205l141 94h64z" />
    <glyph glyph-name="f_i" unicode="fi" horiz-adv-x="1200" 
d="M139 -12q-41 0 -41 12q0 10 41 16q44 7 62 54.5t18 152.5v621q0 77 -20 94.5t-97 17.5q-14 0 -19.5 6t0 12.5t19.5 6.5q63 0 88.5 19.5t26.5 72.5q6 203 123 323t313 120q139 0 223.5 -51.5t84.5 -114.5q0 -29 -19.5 -47.5t-48.5 -18.5q-27 0 -45.5 15t-36.5 55
q-28 65 -75 97t-134 32q-158 0 -207 -107t-49 -336v-49l246 13q14 2 18.5 -3.5t3.5 -23.5q-3 -43 -30 -43l-238 12v-723q0 -114 31 -158.5t125 -50.5q41 -3 41 -14q0 -12 -41 -12q-54 0 -125 6l-94 4q-20 0 -86 -4q-49 -6 -58 -6zM741 -10q-41 0 -41 12q0 11 41 14
q67 6 91 51.5t24 157.5v582q0 57 -14.5 73t-67.5 9q-28 -6 -31 2q-6 13 19 22q103 39 182 95q29 16 31 16q8 0 8 -41v-758q0 -112 24 -157.5t91 -51.5q41 -3 41 -14q0 -12 -41 -12q-30 0 -88 6q-78 4 -90 4q-15 0 -93 -4q-59 -6 -86 -6z" />
    <glyph glyph-name="f_l" unicode="fl" horiz-adv-x="1208" 
d="M1096 16q41 -3 41 -14q0 -12 -41 -12q-20 0 -88.5 5t-89.5 5q-15 0 -93 -4q-59 -6 -86 -6q-41 0 -41 12q0 11 41 14q67 6 91 51.5t24 157.5v1053q-22 98 -92 152.5t-152 56.5q-131 3 -200 -80q-26 -33 -41 -98q-23 -107 -23 -269v-49l246 13q14 2 18.5 -3.5t3.5 -23.5
q-3 -43 -30 -43l-238 12v-723q0 -114 31 -158.5t125 -50.5q41 -3 41 -14q0 -12 -41 -12q-54 0 -125 6l-94 4q-20 0 -86 -4q-49 -6 -58 -6q-41 0 -41 12q0 10 41 16q44 7 62 54.5t18 152.5v621q0 77 -20 94.5t-97 17.5q-14 0 -19.5 6t0 12.5t19.5 6.5q63 0 88.5 19.5
t26.5 72.5q9 278 201 393q86 50 211 50q171 0 280 -80q30 34 49 67q5 9 10.5 12t9 0t3.5 -12v-1278q0 -112 24 -157.5t91 -51.5z" />
    <glyph glyph-name=".notdef" horiz-adv-x="1003" 
d="M186 1495h637v-2007h-637v2007zM668 1294v66h-330v-66h129v-73h-131v-68h332v68h-131v73h131zM537 961v141h-201v-209h332v68h-131zM401 1034h66v-73h-66v73zM668 772v68h-332v-68h131v-74h-131v-65h201v139h131zM668 518v201h-66v-133h-266v-68h332zM668 246v227h-201
v-113h70v48h65v-95h-201v160h-65v-227h332zM668 -100v227h-332v-227h332zM401 59h201v-94h-201v94zM668 -213v66h-332v-66h139l-139 -94v-66h332v66h-205l141 94h64z" />
    <glyph glyph-name=".null" 
 />
    <glyph glyph-name="nonmarkingreturn" horiz-adv-x="682" 
 />
    <glyph glyph-name="space" unicode=" " horiz-adv-x="512" 
 />
    <glyph glyph-name="exclam" unicode="!" horiz-adv-x="858" 
d="M416 299q-3 259 -21 477q-10 125 -23 239t-20.5 172.5t-7.5 72.5q0 133 82 133t82 -133q0 -20 -16 -148q-22 -175 -33 -336q-16 -235 -19 -477q0 -27 -6 -38t-12 0t-6 38zM340 68q0 57 43 85t86 8t43 -79t-43 -88t-86 -8.5t-43 82.5z" />
    <glyph glyph-name="quotedbl" unicode="&#x22;" horiz-adv-x="528" 
d="M123 1026l-10 227q-3 62 49 111q32 31 48 25.5t9 -46.5l-63 -319q-8 -37 -20.5 -36.5t-12.5 38.5zM340 1026l-10 227q-3 62 49 111q32 31 48 25.5t9 -46.5l-63 -319q-7 -37 -20 -36.5t-13 38.5z" />
    <glyph glyph-name="numbersign" unicode="#" horiz-adv-x="1228" 
d="M877 918h223q19 0 27 -8t0 -16.5t-27 -8.5h-228l-57 -377h223q19 0 27 -8t0 -16.5t-27 -8.5h-227l-68 -446q-1 -13 -7.5 -22t-14.5 -7q-17 3 -14 33l65 442h-371l-67 -446q-1 -13 -8 -22t-15 -7q-17 3 -14 33l65 442h-212q-19 0 -27 8.5t0 16.5t27 8h219l55 377h-213
q-19 0 -27 8.5t0 16.5t27 8h219l64 423q1 13 7.5 22t14.5 7q17 -3 14 -33l-63 -419h373l63 423q1 13 8 22t15 7q17 -3 14 -33zM406 508h372l56 377h-371z" />
    <glyph glyph-name="dollar" unicode="$" horiz-adv-x="1267" 
d="M815 1204l-92 -518q173 -57 246 -135.5t73 -218.5q0 -79 -26 -142t-67.5 -102t-97.5 -64.5t-112.5 -35t-115.5 -8.5h-25l-14 -82q-3 -27 -17 -27q-9 0 -6 31l14 80q-88 6 -176 28l-20 -112q-2 -12 -6.5 -20t-10.5 -7q-15 0 -6 31l21 114q-43 14 -117 50q-34 18 -43 57
q-16 88 -16 221q0 37 12 37q13 0 16 -27q15 -162 86 -233q25 -28 70 -51l98 555q-268 99 -268 309q0 145 104 252q107 107 281 110l16 93q5 16 9 22.5t10 5.5q13 -3 6 -33l-16 -88q95 -3 176 -28l20 121q5 16 9 22.5t10 5.5q13 -3 6 -33l-23 -124l125 -50q33 -14 33 -51
q0 -7 -1 -41.5t-1 -46.5q0 -80 2 -98q3 -37 -10 -37q-11 0 -17 33q-15 116 -86 190q-32 32 -53 45zM301 1014q0 -98 48.5 -158t156.5 -102l90 512q-146 -1 -220.5 -71.5t-74.5 -180.5zM700 694l93 525q-77 44 -172 47l-93 -521q55 -20 105 -32zM506 616l-98 -559
q75 -34 174 -43l96 555l-49 13q-38 9 -123 34zM604 12h60q309 9 309 258q0 111 -63 179t-210 112z" />
    <glyph glyph-name="percent" unicode="%" horiz-adv-x="1460" 
d="M1006 1376q16 -6 6 -35l-508 -1310q-7 -18 -18 -22.5t-15.5 5.5t0.5 29l469 1212q-81 -75 -205 -75q-99 0 -190 45q76 -98 76 -248q0 -237 -136 -320q-39 -26 -94 -26q-111 0 -170 102q-57 102 -57 221q0 242 141 324q39 22 92 22q77 0 146 -38q103 -50 192 -50
q150 0 240 146q15 24 31 18zM475 700q43 85 43 248q0 143 -39 234q-38 96 -94 96q-28 0 -55 -27q-64 -70 -64 -256q0 -156 37 -250t100 -94q45 0 72 49zM1073 649q56 -1 101.5 -33.5t72 -81.5t39 -103.5t10.5 -104.5q0 -232 -135 -320q-39 -26 -94 -26q-111 0 -170 102
q-57 102 -57 221q0 241 141 324q39 22 92 22zM1151 49q43 85 43 248q0 142 -39 233q-38 97 -94 97q-28 0 -55 -27q-64 -70 -64 -256q0 -156 37 -250t100 -94q45 0 72 49z" />
    <glyph glyph-name="ampersand" unicode="&#x26;" horiz-adv-x="1441" 
d="M1391 129q8 -6 -7 -33q-76 -119 -206 -119q-116 0 -277 146q-150 -141 -334 -141q-201 0 -329 96q-125 98 -125 260q0 121 75 209t228 172q-121 198 -121 346q0 127 88 221q89 95 250 98q120 2 196 -64t76 -181q0 -113 -83 -198t-273 -181q89 -133 145 -203
q137 -182 277 -319q116 165 119 366q2 70 -29.5 106t-112.5 42q-41 3 -41 14q0 12 41 12q27 0 86 -5t72 -5q22 0 74.5 5t64.5 5q41 0 41 -12q0 -11 -41 -14q-62 -6 -86 -40.5t-29 -107.5q-9 -209 -141 -385q176 -170 260 -170q68 0 115 62q18 24 27 18zM612 1352
q-95 -4 -155 -67t-60 -152q0 -139 138 -353q282 147 282 379q0 93 -50.5 146t-154.5 47zM590 10q156 0 295 127q-112 106 -307 355q-102 131 -146 202q-99 -66 -141.5 -147.5t-42.5 -208.5q0 -153 100 -240q101 -88 242 -88z" />
    <glyph glyph-name="quotesingle" unicode="'" horiz-adv-x="315" 
d="M123 1026l-10 227q-3 62 49 111q32 31 48 25.5t9 -46.5l-63 -319q-8 -37 -20.5 -36.5t-12.5 38.5z" />
    <glyph glyph-name="parenleft" unicode="(" horiz-adv-x="641" 
d="M532 -401q-8 -8 -38 16q-200 166 -306 403t-106 510q0 252 107.5 483.5t304.5 397.5q30 24 38 16q8 -11 -20 -39q-315 -352 -315 -858q0 -538 315 -890q28 -28 20 -39z" />
    <glyph glyph-name="parenright" unicode=")" horiz-adv-x="641" 
d="M109 -401q-8 11 20 39q315 352 315 890q0 506 -315 858q-28 28 -20 39q8 8 38 -16q197 -166 304.5 -397.5t107.5 -483.5q0 -273 -106 -510t-306 -403q-30 -24 -38 -16z" />
    <glyph glyph-name="asterisk" unicode="*" horiz-adv-x="1267" 
d="M602 780l19 258l-215 -145q-30 -23 -46 10q-19 28 15 43l235 113l-235 112q-34 15 -15 43q8 15 20 18t26 -7l215 -146l-19 258q-3 35 31 35t31 -35l-19 -258l215 146q28 22 45 -11q19 -29 -14 -43l-236 -112l236 -113q33 -14 14 -43q-16 -32 -45 -10l-215 145l19 -258
q3 -35 -31 -35t-31 35z" />
    <glyph glyph-name="plus" unicode="+" horiz-adv-x="1024" 
d="M539 696h387q20 0 27 -3t3 -13q-6 -18 -32 -18h-385v-400q0 -27 -19 -33q-10 -4 -13 3t-3 28v402h-389q-20 0 -28 4.5t-3 13.5q6 16 33 16h387v373q0 27 16 33q9 5 14 -3t5 -28v-375z" />
    <glyph glyph-name="comma" unicode="," horiz-adv-x="446" 
d="M115 -346q-7 10 20 37q131 137 131 225q0 42 -53 51q-40 7 -68 32.5t-28 66.5q0 38 26.5 63t67.5 25q53 0 98 -46t45 -112q0 -160 -198 -328q-32 -25 -41 -14z" />
    <glyph glyph-name="hyphen" unicode="-" horiz-adv-x="782" 
d="M657 537h-542q-20 0 -28 4.5t-3 13.5q6 16 33 16h542q21 0 28 -3t3 -13q-6 -18 -33 -18z" />
    <glyph glyph-name="hyphen" unicode="&#x2010;" horiz-adv-x="782" 
d="M657 537h-542q-20 0 -28 4.5t-3 13.5q6 16 33 16h542q21 0 28 -3t3 -13q-6 -18 -33 -18z" />
    <glyph glyph-name="period" unicode="." horiz-adv-x="446" 
d="M133 68q0 57 43 85t86 8t43 -79t-43 -88t-86 -8.5t-43 82.5z" />
    <glyph glyph-name="slash" unicode="/" horiz-adv-x="819" 
d="M-78 -360q-11 6 -2 34l719 1772q12 28 27 22q11 -6 2 -34l-719 -1772q-12 -28 -27 -22z" />
    <glyph glyph-name="zero" unicode="0" horiz-adv-x="882" 
d="M440 -20q-75 0 -138.5 41.5t-105 108t-70.5 151t-41.5 169t-12.5 164.5q0 490 247 648q58 34 132 34t136 -42.5t102.5 -109.5t68.5 -153t40.5 -170.5t12.5 -163.5q0 -234 -61.5 -391.5t-159.5 -232.5q-71 -53 -150 -53zM459 8q91 0 137 101q76 162 76 491q0 265 -66 469
q-65 203 -174 203q-58 0 -108 -62q-113 -155 -113 -516q0 -260 51 -463q30 -105 80.5 -164t116.5 -59z" />
    <glyph glyph-name="one" unicode="1" horiz-adv-x="811" 
d="M627 16q41 -3 41 -14q0 -12 -41 -12q-29 0 -88 6q-78 4 -90 4q-15 0 -93 -4q-58 -6 -86 -6q-41 0 -41 12q0 11 41 14q67 6 91 51.5t24 157.5v711q0 99 -33 113q-32 14 -147 -27q-38 -12 -41 -6q-3 13 29 33q185 119 278 225q15 17 23 21.5t13 -4.5t5 -36v-1030
q0 -112 24 -157.5t91 -51.5z" />
    <glyph glyph-name="two" unicode="2" horiz-adv-x="843" 
d="M805 315q12 -3 6 -43q-28 -173 -33 -229q-3 -47 -43 -47q-22 0 -190 4h-459q-41 0 -41 10q0 9 18 33q156 187 189 229q66 83 158 217q172 253 172 447q0 117 -57.5 188.5t-170.5 71.5q-79 0 -150.5 -37t-115.5 -104q-18 -27 -29 -23q-7 2 -4.5 11.5t13.5 27.5
q132 225 354 225q142 0 215 -88q76 -88 76 -190q0 -166 -146 -400q-121 -187 -340 -430q-23 -25 -14.5 -43t43.5 -18l311 2q112 3 152 33q39 29 61 117q4 20 10.5 29t14.5 7z" />
    <glyph glyph-name="three" unicode="3" horiz-adv-x="946" 
d="M252 -131q-65 0 -107.5 25t-42.5 67q0 26 22 48t46 22q37 0 86 -49q52 -52 100 -52q75 0 158 56q79 54 128 155t50 236q3 128 -86 217t-252 49q-45 -11 -43 3q2 9 23 20l26 12q104 57 168 150.5t64 189.5q0 78 -53 130t-146 52q-155 0 -241 -123q-21 -29 -31 -26
q-11 3 10 43q120 202 322 202q125 0 194.5 -67.5t69.5 -165.5q0 -173 -225 -332q36 4 47 4q124 0 204 -82t80 -221q0 -135 -86 -256q-86 -126 -190 -199q-47 -36 -141 -73q-90 -35 -154 -35z" />
    <glyph glyph-name="four" unicode="4" horiz-adv-x="899" 
d="M795 16q41 -3 41 -14q0 -12 -41 -12q-29 0 -88 6q-78 4 -91 4q-14 0 -92 -4q-58 -6 -86 -6q-41 0 -41 12q0 11 41 14q67 6 91 51.5t24 157.5v170h-477q-31 0 -37 8.5t12 40.5l645 945q21 34 33 26q8 -5 -14 -41l-545 -815q-17 -26 -7.5 -43.5t40.5 -17.5h350v352
q0 15 55 45q72 41 72 20v-417h172q13 0 -21 -58q-33 -45 -40 -45h-111v-170q0 -112 24 -157.5t91 -51.5z" />
    <glyph glyph-name="five" unicode="5" horiz-adv-x="876" 
d="M137 -137q-38 -6 -41 6q-1 7 7.5 11t31.5 9q190 37 336 134q84 56 133 140.5t49 186.5q0 165 -126.5 275t-362.5 151q-45 6 -33 49l119 375q9 31 43 37q312 46 354 68q30 17 49 59q11 21 18.5 29.5t14.5 7.5q11 -4 -4 -43l-37 -101q-27 -76 -72 -79l-360 -48l-63 -198
q-15 -53 38 -62q210 -37 359 -135q88 -55 138 -140t50 -187q0 -113 -68 -214.5t-178 -170.5q-202 -122 -395 -160z" />
    <glyph glyph-name="six" unicode="6" horiz-adv-x="876" 
d="M438 -20q-166 0 -266 113t-100 327q0 175 78.5 345t207.5 298q248 242 494 346q16 8 33 8q8 0 8 -6q0 -9 -31 -25q-277 -137 -463 -399q-188 -262 -188 -602q0 -175 78 -279q78 -100 192 -100q97 0 153 68t56 180q0 34 -6 72q-20 140 -76.5 212t-142.5 72q-7 0 -39 -4
q-45 -11 -57 -16q-21 -12 -35 -12q-8 0 -8 6q0 11 30 26q55 24 109 29q8 2 39 2q140 0 227.5 -86t87.5 -225q0 -166 -101 -258t-280 -92z" />
    <glyph glyph-name="seven" unicode="7" horiz-adv-x="833" 
d="M348 -39q2 -33 -30.5 -42.5t-64 7t-26.5 43.5q21 191 129 451q106 255 242 483l164 266h-449q-65 0 -75 -2q-16 0 -50 -6q-17 -3 -28.5 -8t-21.5 -17t-16 -22t-19 -34.5t-25 -43.5q-11 -21 -17.5 -28.5t-13.5 -6.5q-12 6 0 46q53 151 62 278q2 11 5.5 16.5t10.5 4.5
q9 0 12 -15q3 -37 68 -43q65 -3 352 0q222 3 260 8q31 3 39 -2q5 -5 -12 -39l-252 -413q-223 -364 -244 -881z" />
    <glyph glyph-name="eight" unicode="8" horiz-adv-x="858" 
d="M604 766l-104 -84q72 -62 100 -90q31 -29 82 -86q86 -99 86 -209q0 -129 -98 -223q-94 -94 -250 -94q-148 0 -234 83t-86 195q0 73 41 141q27 43 60.5 78.5t60 56.5t88.5 66l27 18q-137 107 -198.5 189.5t-61.5 179.5q0 139 90.5 224t228.5 85q145 0 234.5 -77.5
t89.5 -192.5q0 -98 -78 -184q-41 -44 -78 -76zM221 1067q0 -66 41 -137q39 -68 84 -113q59 -55 129 -115q162 140 162 320q0 132 -70 190q-69 60 -147 60q-89 0 -144 -55t-55 -150zM666 221q9 113 -80 209q-41 47 -82 82q-22 19 -105 88q-170 -150 -170 -354q0 -92 66 -164
q64 -70 166 -70q97 0 148 58t57 151z" />
    <glyph glyph-name="nine" unicode="9" horiz-adv-x="876" 
d="M449 1296q166 0 266 -113t100 -327q0 -175 -79 -346t-210 -299q-241 -238 -491 -344q-16 -8 -33 -8q-8 0 -8 6q0 9 31 24q273 135 462 398q189 266 189 604q0 173 -80 276q-77 103 -190 103q-97 0 -153 -68t-56 -180q0 -34 6 -72q20 -140 76.5 -212t142.5 -72q7 0 39 4
q45 11 57 16q21 12 35 12q8 0 8 -6q0 -10 -31 -26q-56 -24 -108 -29q-8 -2 -39 -2q-140 0 -227.5 86t-87.5 225q0 166 101 258t280 92z" />
    <glyph glyph-name="colon" unicode=":" horiz-adv-x="446" 
d="M133 909q0 57 43 85t86 8.5t43 -78.5t-43 -88.5t-86 -9t-43 82.5zM133 68q0 57 43 85t86 8t43 -79t-43 -88t-86 -8.5t-43 82.5z" />
    <glyph glyph-name="semicolon" unicode=";" horiz-adv-x="446" 
d="M133 909q0 57 43 85t86 8.5t43 -78.5t-43 -88.5t-86 -9t-43 82.5zM115 -346q-7 10 20 37q131 137 131 225q0 42 -53 51q-40 7 -68 32.5t-28 66.5q0 38 26.5 63t67.5 25q53 0 98 -46t45 -112q0 -160 -198 -328q-32 -25 -41 -14z" />
    <glyph glyph-name="equal" unicode="=" horiz-adv-x="1024" 
d="M924 842h-809q-20 0 -28 4.5t-3 13.5q7 17 33 17h809q20 0 27 -3.5t3 -13.5q-6 -18 -32 -18zM924 543h-809q-20 0 -28 4.5t-3 13.5q7 17 33 17h809q20 0 27 -3.5t3 -13.5q-6 -18 -32 -18z" />
    <glyph glyph-name="question" unicode="?" horiz-adv-x="870" 
d="M342 408l2 370q0 42 43 39q18 -2 100 -2q78 0 133.5 25t80 65t24.5 89.5t-27 99.5q-35 65 -99 114.5t-128 61.5q-30 7 -100 10q-61 3 -82 12q-32 10 -50 37t-12 53q19 79 131 52q75 -18 185 -105q107 -84 190 -233q55 -101 55 -191q0 -107 -106 -179.5t-303 -72.5
l-8 -245q0 -26 -7.5 -36.5t-14.5 0t-7 36.5zM258 68q0 57 43 85t86 8t43 -79t-43 -88t-86 -8.5t-43 82.5z" />
    <glyph glyph-name="at" unicode="@" horiz-adv-x="1705" 
d="M743 -248q-215 0 -370 88q-140 76 -215.5 208t-75.5 308q0 254 137 473q141 226 361 349q225 129 471 129q258 0 415 -142q158 -143 158 -377q0 -186 -106 -358q-67 -111 -187 -190q-119 -78 -229 -78q-164 0 -164 133q0 86 70 248q-52 -73 -168 -195
q-81 -87 -159.5 -140.5t-123.5 -51.5q-72 3 -72 75t58 185t125 205q242 333 399 333q67 0 107 -49q38 22 77 68q4 4 9 4q14 0 8 -19q-33 -98 -67.5 -191.5t-60.5 -157.5t-47.5 -113.5t-34.5 -77.5t-14 -31q-24 -73 -24 -121q0 -80 94 -80q152 0 291 183t139 383
q0 234 -149 368q-150 135 -406 135q-220 0 -397 -104q-189 -110 -303 -313q-113 -198 -113 -422q0 -160 47 -269q150 -331 613 -331q120 0 215 30q90 29 243 105h2q10 0 13 -12q3 -7 -2 -7q-253 -180 -564 -180zM629 248q67 0 145 69q100 87 203 232q100 141 131 274
q-2 20 -23.5 37t-54.5 17q-126 0 -276 -181q-183 -216 -183 -374q0 -33 16 -53.5t42 -20.5z" />
    <glyph glyph-name="A" unicode="A" horiz-adv-x="1447" 
d="M1378 20q39 -6 39 -14q0 -12 -41 -12q-10 0 -88 4q-39 2 -86 2q-8 0 -94 -4q-62 -6 -92 -6q-41 0 -41 12q0 11 41 14q151 9 74 191l-160 389h-500l-145 -381q-40 -98 -23.5 -145.5t96.5 -53.5q41 -3 41 -14q0 -12 -41 -12q-20 0 -83 5t-82 5q-16 0 -75 -5t-77 -5
q-41 0 -41 12q0 11 39 14q61 4 108 55t91 162l401 984l12 38q3 43 13 56q24 34 38 67q12 35 21 35q11 0 22 -33l463 -1130q52 -127 86.5 -175t83.5 -55zM670 1229l-228 -598h473z" />
    <glyph glyph-name="B" unicode="B" horiz-adv-x="1253" 
d="M684 745q467 -15 467 -344q0 -251 -172 -338q-82 -42 -175.5 -58.5t-225.5 -16.5q-70 0 -158 6t-119 6q-14 0 -92 -4q-59 -6 -86 -6q-41 0 -41 12q0 11 41 14q67 6 91 51.5t24 157.5v922q0 112 -24 157.5t-91 51.5q-41 3 -41 14q0 12 41 12q27 0 86 -6q78 -4 92 -4
q29 0 131 10q112 11 133 11q239 0 351 -80.5t112 -251.5q0 -126 -100 -213q-102 -88 -244 -103zM365 1352v-602h120q210 0 306 71.5t96 239.5q0 147 -94 227t-261 80q-66 0 -167 -16zM823 55q189 86 189 351q0 174 -105.5 246.5t-339.5 72.5h-202v-506q0 -107 61 -152.5
t199 -50.5q112 -3 198 39z" />
    <glyph glyph-name="C" unicode="C" horiz-adv-x="1406" 
d="M801 -20q-316 0 -508 198q-191 200 -191 494q0 320 203 520q207 201 543 201q237 0 373 -68q33 -14 36 -53q15 -110 33 -195q9 -40 2 -43q-10 -4 -16 3.5t-12 29.5q-53 158 -167 228.5t-298 70.5q-266 0 -406 -192q-139 -192 -139 -484q0 -283 158 -485
q159 -199 415 -199q172 0 298 78.5t169 214.5q6 18 13 27.5t12 7.5q10 0 4 -41q-23 -139 -25 -164q-3 -37 -43 -55q-115 -53 -206 -72q-104 -22 -248 -22z" />
    <glyph glyph-name="D" unicode="D" horiz-adv-x="1511" 
d="M676 1393q348 0 538 -193q191 -191 191 -518q0 -309 -193 -508q-191 -197 -536 -194q-97 3 -215 12q-104 8 -160 8q-14 0 -92 -4q-59 -6 -86 -6q-41 0 -41 12q0 11 41 14q67 6 91 51.5t24 157.5v922q0 112 -24 157.5t-91 51.5q-41 3 -41 14q0 12 41 12q27 0 86 -6
q78 -4 92 -4q26 0 156 10q147 11 219 11zM696 4q291 -3 424 176q137 180 137 471q0 316 -161 512q-165 201 -480 201q-137 0 -251 -18v-1158q0 -104 74.5 -141.5t256.5 -42.5z" />
    <glyph glyph-name="E" unicode="E" horiz-adv-x="1150" 
d="M123 -10q-41 0 -41 12q0 11 41 14q67 6 91 51.5t24 157.5v922q0 112 -24 157.5t-91 51.5q-41 3 -41 14q0 12 41 12q15 0 91 -5t108 -5q29 0 366 6q60 1 116 2t83.5 1.5t32.5 0.5q23 0 30.5 -9.5t12.5 -37.5q9 -83 30 -174q9 -40 -4 -43q-6 -2 -12.5 6.5t-13.5 28.5
q-41 97 -100 137t-175 51q-132 10 -282 2q-27 -2 -34 -14t-7 -61v-535h256q110 0 162.5 33.5t58.5 107.5q3 41 14 41q12 0 12 -41q0 -13 -4 -83t-4 -74q0 -2 4 -80t4 -88q0 -41 -12 -41q-11 0 -14 41q-12 151 -221 151h-256v-413q0 -145 61 -203.5t199 -58.5q53 0 114 6
q225 18 277 248q4 20 10 29t14 7q13 -3 7 -43q-27 -165 -33 -235q-3 -27 -13 -37t-30 -10q-5 0 -32.5 0.5t-83.5 1.5t-116 2q-307 6 -426 6q-20 0 -102 -4q-61 -6 -88 -6z" />
    <glyph glyph-name="F" unicode="F" horiz-adv-x="1099" 
d="M123 -10q-41 0 -41 12q0 11 41 14q67 6 91 51.5t24 157.5v922q0 112 -24 157.5t-91 51.5q-41 3 -41 14q0 12 41 12q29 0 88 -6q78 -4 92 -4q16 0 365 6q57 1 117 2t91.5 1.5t43.5 0.5q26 0 33.5 -8.5t9.5 -38.5q3 -60 30 -174q9 -40 -4 -43q-6 -2 -12.5 6.5t-13.5 28.5
q-41 97 -100 137t-175 51q-132 10 -282 2q-27 -2 -34 -14t-7 -61v-559h225q110 0 162.5 33.5t58.5 107.5q3 41 14 41q13 0 13 -41q0 -22 -5.5 -83t-5.5 -77q0 -2 4 -80q7 -65 7 -86q0 -41 -13 -41q-11 0 -14 41q-12 152 -221 152h-225v-451q0 -112 23.5 -157.5t90.5 -51.5
q41 -3 41 -14q0 -12 -41 -12q-29 0 -88 6q-78 4 -90 4q-14 0 -92 -4q-59 -6 -86 -6z" />
    <glyph glyph-name="G" unicode="G" horiz-adv-x="1443" 
d="M811 -20q-332 0 -520 206q-189 207 -189 496q0 311 205 510q207 201 541 201q234 0 373 -68q33 -14 36 -53q15 -110 33 -195q9 -40 2 -43q-10 -4 -16 3.5t-12 29.5q-99 299 -453 299q-268 0 -412 -190q-145 -192 -145 -476q0 -254 135 -462q71 -107 193 -169.5t274 -62.5
q193 0 238 66q28 45 28 334q0 104 -33 154.5t-110 60.5q-39 6 -39 14q0 10 41 10l98 -6q90 -4 101 -4q17 0 70.5 4t66.5 4q41 0 41 -8q0 -2 -37 -14q-41 -13 -56.5 -60.5t-15.5 -154.5q0 -247 25 -289q6 -12 15 -19.5t14.5 -11t5.5 -6.5q0 -16 -54 -31q-241 -69 -444 -69z
" />
    <glyph glyph-name="H" unicode="H" horiz-adv-x="1531" 
d="M1401 14q41 -3 41 -14q0 -12 -41 -12q-29 0 -88 6q-78 4 -90 4q-15 0 -93 -4q-58 -6 -86 -6q-40 0 -40 12q0 11 40 14q67 6 91 51.5t24 157.5v455h-794v-455q0 -112 23.5 -157.5t90.5 -51.5q41 -3 41 -14q0 -12 -41 -12q-29 0 -88 6q-78 4 -90 4q-14 0 -92 -4
q-59 -6 -86 -6q-41 0 -41 12q0 11 41 14q67 6 91 51.5t24 157.5v924q0 112 -24 157.5t-91 51.5q-41 3 -41 14q0 12 41 12q27 0 86 -6q78 -4 92 -4q12 0 90 4q59 6 88 6q41 0 41 -12q0 -11 -41 -14q-67 -6 -90.5 -51.5t-23.5 -157.5v-434h794v434q0 112 -24 157.5t-91 51.5
q-40 3 -40 14q0 12 40 12q28 0 86 -6q78 -4 93 -4q12 0 90 4q59 6 88 6q41 0 41 -12q0 -11 -41 -14q-67 -6 -91 -51.5t-24 -157.5v-924q0 -112 24 -157.5t91 -51.5z" />
    <glyph glyph-name="I" unicode="I" horiz-adv-x="610" 
d="M479 14q41 -3 41 -14q0 -12 -41 -12q-29 0 -88 6q-78 4 -90 4q-14 0 -92 -4q-59 -6 -86 -6q-41 0 -41 12q0 11 41 14q67 6 91 51.5t24 157.5v924q0 112 -24 157.5t-91 51.5q-41 3 -41 14q0 12 41 12q27 0 86 -6q78 -4 92 -4q12 0 90 4q59 6 88 6q41 0 41 -12
q0 -11 -41 -14q-67 -6 -90.5 -51.5t-23.5 -157.5v-924q0 -112 23.5 -157.5t90.5 -51.5z" />
    <glyph glyph-name="J" unicode="J" horiz-adv-x="706" 
d="M557 1382q41 0 41 -12q0 -11 -41 -14q-67 -6 -91 -51.5t-24 -157.5v-1008q0 -191 -36.5 -291t-118.5 -157q-143 -101 -254 -101q-63 0 -101 24.5t-38 68.5q0 26 21.5 47.5t45.5 21.5q37 0 86 -49q47 -47 96 -47q43 0 80 27q92 62 92 438v1026q0 112 -23.5 157.5
t-90.5 51.5q-41 3 -41 14q0 12 41 12q27 0 86 -6q78 -4 92 -4q12 0 90 4q59 6 88 6z" />
    <glyph glyph-name="K" unicode="K" horiz-adv-x="1366" 
d="M1307 16q39 -3 39 -14q0 -15 -41 -12q-140 10 -238 10q-45 0 -158 -10q-41 -3 -41 12q0 7 39 16q35 12 50 23t11.5 27.5t-17 33.5t-44.5 48l-538 538l-4 -2v-463q0 -112 23.5 -157.5t90.5 -51.5q41 -3 41 -14q0 -12 -41 -12q-29 0 -88 6q-78 4 -90 4q-14 0 -92 -4
q-59 -6 -86 -6q-41 0 -41 12q0 11 41 14q67 6 91 51.5t24 157.5v924q0 112 -24 157.5t-91 51.5q-41 3 -41 14q0 12 41 12q27 0 86 -6q78 -4 92 -4q12 0 90 4q59 6 88 6q41 0 41 -12q0 -11 -41 -14q-67 -6 -90.5 -51.5t-23.5 -157.5v-426l522 481q142 133 14 154
q-41 6 -41 14q0 15 41 12l121 -10q40 -3 98 2q57 8 88 8q41 0 41 -12q0 -11 -41 -14q-44 -3 -98 -29q-47 -24 -78 -49q-30 -24 -98 -86l-473 -422l602 -600q145 -145 244 -154z" />
    <glyph glyph-name="L" unicode="L" horiz-adv-x="1110" 
d="M123 -10q-41 0 -41 12q0 11 41 14q67 6 91 51.5t24 157.5v922q0 112 -24 157.5t-91 51.5q-41 3 -41 14q0 12 41 12q27 0 86 -6q78 -4 92 -4q12 0 90 4q59 6 88 6q41 0 41 -12q0 -11 -41 -14q-67 -6 -90.5 -51.5t-23.5 -157.5v-860q0 -151 56 -206.5t204 -55.5q38 0 155 6
q225 9 277 248q4 20 10 29t14 7q12 -3 6 -43q-25 -153 -32 -235q-5 -30 -12 -38.5t-31 -8.5q-5 0 -32.5 0.5t-83.5 1.5t-116 2q-331 6 -448 6h-31q-14 0 -92 -4q-59 -6 -86 -6z" />
    <glyph glyph-name="M" unicode="M" horiz-adv-x="1742" 
d="M1612 16q41 -3 41 -14q0 -12 -41 -12q-32 0 -90 6q-78 4 -88 4q-15 0 -93 -4q-58 -6 -86 -6q-41 0 -41 12q0 11 41 14q67 6 91 51.5t24 157.5v895q0 42 -3 54.5t-10.5 2.5t-23.5 -47l-473 -1116q-15 -34 -26 -34q-18 0 -29 32l-500 1137q-10 24 -15.5 30.5t-8 -2.5
t-2.5 -34l-15 -918q-2 -111 22.5 -157t92.5 -52q41 -3 41 -14q0 -12 -41 -12q-12 0 -64.5 5t-74.5 5q-14 0 -75 -5t-87 -5q-41 0 -41 12q0 11 41 14q83 7 109.5 49.5t31.5 159.5l35 953q5 89 -21.5 130.5t-91.5 47.5q-41 3 -41 14q0 12 41 12q31 0 86 -6q74 -4 82 -4
q37 0 49 -31l529 -1194l487 1192q11 33 47 33h13q12 0 90 4q59 6 88 6q41 0 41 -12q0 -11 -41 -14q-67 -6 -91 -51.5t-24 -157.5v-922q0 -112 24 -157.5t91 -51.5z" />
    <glyph glyph-name="N" unicode="N" horiz-adv-x="1585" 
d="M1298 2l-1003 1221l-4 6q-19 19 -19 8q-2 -6 -2 -53v-37l-2 -922q0 -112 24 -157.5t91 -51.5q41 -3 41 -14q0 -12 -41 -12q-10 0 -64.5 5t-78.5 5q-13 0 -72 -5t-86 -5q-41 0 -41 12q0 11 41 14q85 7 112 50.5t29 158.5l19 922q2 116 -21.5 159.5t-91.5 49.5
q-41 3 -41 14q0 12 41 12q27 0 86 -6q78 -4 88 -4h10q29 0 49 -26l926 -1110q12 -15 17 -18t6.5 2t1.5 24l-13 903q-2 112 -26.5 157.5t-91.5 51.5q-41 3 -41 14q0 12 41 12q10 0 64.5 -5t78.5 -5q13 0 72 5t86 5q41 0 41 -12q0 -11 -41 -14q-84 -7 -109.5 -49.5
t-27.5 -159.5l-5 -1106q0 -62 -15 -62q-9 -1 -28 23z" />
    <glyph glyph-name="O" unicode="O" horiz-adv-x="1636" 
d="M821 -20q-330 0 -524 200q-195 204 -195 502q0 309 205 508q206 203 514 203q338 0 525 -193q188 -194 188 -518q0 -298 -199 -500q-196 -202 -514 -202zM856 8q258 0 393 178q137 177 137 447q0 310 -161 518q-160 213 -426 213q-260 0 -404 -184q-143 -180 -143 -457
q0 -304 162 -508q165 -207 442 -207z" />
    <glyph glyph-name="P" unicode="P" horiz-adv-x="1126" 
d="M621 1393q206 0 321 -109q113 -107 113 -270q0 -209 -125 -303q-125 -93 -307 -93q-33 0 -82 9q-24 5 -33 8.5t-8 9.5q3 13 41 4q27 -6 75 -6q143 0 222.5 93t79.5 274q0 176 -90.5 259t-307.5 83q-56 0 -155 -15v-1112q0 -112 23.5 -157.5t90.5 -51.5q41 -3 41 -14
q0 -12 -41 -12q-29 0 -88 6q-78 4 -90 4q-14 0 -92 -4q-59 -6 -86 -6q-41 0 -41 12q0 11 41 14q67 6 91 51.5t24 157.5v922q0 112 -24 157.5t-91 51.5q-41 3 -41 14q0 12 41 12q27 0 86 -6q78 -4 92 -4q36 0 156 10q132 11 164 11z" />
    <glyph glyph-name="Q" unicode="Q" horiz-adv-x="1566" 
d="M1661 -221l6 -27q-109 -37 -240 -43q-287 -15 -657 273q-305 15 -487 215q-181 199 -181 485q0 309 205 508q206 203 514 203q338 0 525 -193q188 -194 188 -518q0 -256 -154 -451q-150 -190 -407 -237q281 -227 606 -227q47 0 82 12zM252 723q0 -304 162 -508
q165 -207 442 -207q258 0 393 178q137 177 137 447q0 310 -161 518q-160 213 -426 213q-260 0 -404 -184q-143 -180 -143 -457z" />
    <glyph glyph-name="R" unicode="R" horiz-adv-x="1273" 
d="M1266 12q41 0 41 -8q0 -10 -37 -16q-49 -8 -123 -8q-91 0 -148 69q-53 62 -102 166l-129 274q-48 101 -103.5 146t-140.5 57q-19 2 -127 10v-477q0 -112 24 -157.5t91 -51.5q41 -3 41 -14q0 -12 -41 -12q-29 0 -88 6q-78 4 -90 4q-14 0 -92 -4q-58 -6 -86 -6
q-41 0 -41 12q0 11 41 14q67 6 90.5 51.5t23.5 157.5v922q0 112 -23.5 157.5t-90.5 51.5q-41 3 -41 14q0 12 41 12q28 0 86 -6q78 -4 92 -4q37 0 160 10q139 11 170 11q164 0 278 -105q115 -106 115 -235q0 -161 -98.5 -251t-270.5 -108q153 -43 223 -190l103 -223
q63 -140 121.5 -204.5t130.5 -64.5zM397 1337v-610q185 -18 273 -4q250 38 250 326q0 139 -91 221t-266 82q-67 0 -166 -15z" />
    <glyph glyph-name="S" unicode="S" horiz-adv-x="962" 
d="M428 -20q-153 -6 -278 67q-37 23 -46 62q-22 93 -22 186q0 41 12 41q14 0 17 -29q18 -141 96 -213q101 -90 235 -90q147 0 224 80q79 82 79 188q0 119 -88 207q-56 56 -79 72l-105 74q-77 52 -115 80q-47 40 -90 83q-98 104 -98 252q0 149 115 252q116 101 288 101
q92 0 213 -41q40 -12 37 -39q-9 -88 -2 -152q6 -38 -6 -41q-6 -2 -13 8.5t-11 28.5q-24 90 -56 127q-72 84 -190 84q-115 0 -190.5 -76.5t-75.5 -193.5q0 -86 55 -170q21 -30 67 -70q15 -13 74 -59l86 -58q63 -42 111 -77q30 -20 90 -80q98 -93 98 -234q0 -184 -123 -276
q-127 -91 -309 -94z" />
    <glyph glyph-name="T" unicode="T" horiz-adv-x="1257" 
d="M1192 1413q2 11 10 14.5t14.5 -3t4.5 -19.5q-14 -82 -23 -254q0 -19 -4.5 -30t-9.5 -11q-17 3 -17 43q0 117 -34 154q-32 38 -146 41h-301v-1123q0 -112 24 -157.5t91 -51.5q41 -3 41 -14q0 -12 -41 -12q-31 0 -90 6q-78 4 -88 4q-15 0 -93 -4q-58 -6 -86 -6
q-41 0 -41 12q0 11 41 14q67 6 91 51.5t24 157.5v1123h-280q-112 -3 -156 -41q-43 -37 -78 -152q-6 -20 -12.5 -29.5t-14.5 -7.5q-13 3 -4 43q30 126 33 244q0 22 16 22q10 0 13 -14q4 -24 36.5 -32t94 -8t72.5 -1h708q11 1 72.5 1t95 8t37.5 32z" />
    <glyph glyph-name="U" unicode="U" horiz-adv-x="1509" 
d="M1395 1382q41 0 41 -12q0 -11 -41 -14q-84 -7 -110 -50t-28 -159q-6 -558 -24 -705q-27 -211 -123 -321q-126 -141 -330 -141q-509 0 -524 497q-6 225 -6 670q0 112 -24 157.5t-91 51.5q-41 3 -41 14q0 12 41 12q27 0 86 -6q78 -4 92 -4q12 0 90 4q58 6 89 6q40 0 40 -12
q0 -11 -40 -14q-67 -6 -91 -51.5t-24 -157.5q0 -427 6 -639q6 -223 106 -339t318 -116q114 0 185 30.5t126 109.5q71 100 86 301q14 191 8 653q-2 112 -26.5 157.5t-91.5 51.5q-41 3 -41 14q0 12 41 12q10 0 64.5 -5t78.5 -5q13 0 72 5t86 5z" />
    <glyph glyph-name="V" unicode="V" horiz-adv-x="1452" 
d="M739 -20h-20l-455 1142q-52 126 -88 170q-36 45 -113 60q-38 6 -38 14q0 12 41 12q8 0 21 -0.5t37.5 -1.5t43.5 -2q51 -2 102 -2q10 0 92 4q65 6 95 6q41 0 41 -12q0 -11 -41 -14q-145 -9 -74 -191l399 -1026l365 1018q39 100 23 146.5t-97 52.5q-41 3 -41 14q0 12 41 12
q19 0 83 -5t83 -5q16 0 75 5t77 5q41 0 41 -12q0 -11 -39 -14q-62 -5 -109 -56t-90 -161l-397 -1020z" />
    <glyph glyph-name="W" unicode="W" horiz-adv-x="2105" 
d="M2044 1382q41 0 41 -12q0 -11 -39 -14q-63 -4 -110.5 -56t-88.5 -161l-446 -1159h-27l-330 948l-360 -948h-27l-409 1175q-36 101 -72 143q-33 38 -113 54q-38 6 -38 14q0 12 41 12q8 0 21 -0.5t37.5 -1.5t43.5 -2q51 -2 102 -2q10 0 92 4q65 6 95 6q41 0 41 -12
q0 -11 -41 -14q-141 -9 -76 -197l346 -997l297 825l-59 168q-36 101 -72 143q-33 38 -113 54q-39 6 -39 14q0 12 41 12q5 0 103 -4q49 -2 102 -2q10 0 92 4q64 6 95 6q40 0 40 -12q0 -11 -40 -14q-141 -9 -76 -197l346 -997l356 995q39 100 23 146.5t-97 52.5q-40 3 -40 14
q0 12 40 12q19 0 82.5 -5t83.5 -5q16 0 75 5t77 5z" />
    <glyph glyph-name="X" unicode="X" horiz-adv-x="1417" 
d="M1309 20q39 -6 39 -14q0 -12 -41 -12q-3 0 -113 4q-55 2 -113 2q-8 0 -94 -4q-61 -6 -92 -6q-41 0 -41 12q0 11 41 14q147 10 61 164l-317 488l-307 -502q-44 -69 -26 -106.5t102 -43.5q41 -3 41 -14q0 -12 -41 -12q-20 0 -83 5t-83 5q-16 0 -75 -5t-77 -5q-41 0 -41 12
q0 11 39 14q103 9 197 156l338 520l-328 502q-90 140 -199 158q-39 6 -39 14q0 12 41 12q1 0 111 -4q57 -2 115 -2q10 0 92 4q65 6 94 6q41 0 41 -12q0 -11 -41 -14q-147 -10 -61 -164l264 -406l256 420q44 69 26 106.5t-102 43.5q-41 3 -41 14q0 12 41 12q20 0 83.5 -5
t82.5 -5q16 0 74.5 5t76.5 5q41 0 41 -12q0 -11 -39 -14q-101 -9 -196 -156l-287 -438l381 -584q90 -140 199 -158z" />
    <glyph glyph-name="Y" unicode="Y" horiz-adv-x="1392" 
d="M1309 1382q41 0 41 -12q0 -11 -39 -14q-55 -4 -101.5 -42.5t-95.5 -113.5l-362 -559v-418q0 -112 23.5 -157.5t90.5 -51.5q41 -3 41 -14q0 -12 -41 -12q-32 0 -90 6q-78 4 -88 4q-14 0 -92 -4q-58 -6 -86 -6q-41 0 -41 12q0 11 41 14q67 6 91 51.5t24 157.5v400l-346 557
q-103 157 -197 172q-39 6 -39 14q0 12 41 12q8 0 21 -0.5t37.5 -1.5t43.5 -2q51 -2 103 -2q16 0 102 4q64 6 94 6q41 0 41 -12q0 -11 -41 -14q-69 -5 -85.5 -49t30.5 -129l309 -504l-8 -12l336 544q44 69 26 106.5t-102 43.5q-41 3 -41 14q0 12 41 12q19 0 83 -5t83 -5
q16 0 75 5t77 5z" />
    <glyph glyph-name="Z" unicode="Z" horiz-adv-x="1232" 
d="M1141 315q12 -3 6 -43q-27 -165 -33 -235q-3 -47 -43 -47q-5 0 -32.5 0.5t-83 1.5t-115.5 2q-258 6 -566 6q-60 0 -145 -10q-12 -1 -16 6t2 18l872 1334l-512 -15q-122 -5 -186 -41t-107 -133q-11 -22 -17 -29t-13 -6q-12 6 0 45q53 157 59 238q2 11 5.5 16t10.5 4
q10 0 13 -14q3 -30 67 -39l58 -4h63q29 2 47 2h529q54 0 129 10q12 1 16 -6t-2 -18l-873 -1333l392 2q92 0 174 4q224 9 276 248q4 20 10.5 29t14.5 7z" />
    <glyph glyph-name="bracketleft" unicode="[" horiz-adv-x="534" 
d="M412 -401h-232q-20 0 -20 20v1724q0 41 41 41h192q26 0 36 -5.5t0 -12.5t-34 -10l-65 -6q-77 -6 -80 -84q-14 -336 -14 -772q0 -437 14 -773q3 -74 80 -83l84 -11q24 -3 34 -10t0 -12.5t-36 -5.5z" />
    <glyph glyph-name="backslash" unicode="\" horiz-adv-x="632" 
d="M729 -360q-15 -6 -27 22l-718 1772q-9 28 2 34q14 6 26 -22l719 -1772q9 -28 -2 -34z" />
    <glyph glyph-name="bracketright" unicode="]" horiz-adv-x="538" 
d="M354 -401h-231q-26 0 -36 5.5t0 12.5t34 10l84 11q77 9 80 83q14 336 14 773q0 436 -14 772q-3 78 -80 84l-66 6q-24 3 -34 10t0 12.5t36 5.5h193q41 0 41 -41v-1724q0 -20 -21 -20z" />
    <glyph glyph-name="asciicircum" unicode="^" horiz-adv-x="1024" 
d="M117 813l379 561q14 22 28 0l379 -561q4 -11 -4 -16q-9 -6 -16 4l-365 538q-8 11 -16 0l-365 -538q-4 -7 -10.5 -6.5t-9.5 6t0 12.5z" />
    <glyph glyph-name="underscore" unicode="_" horiz-adv-x="1024" 
d="M965 -207h-932q-20 0 -28 5t-3 14q6 16 33 16h932q20 0 27 -3t3 -13q-6 -19 -32 -19z" />
    <glyph glyph-name="grave" unicode="`" horiz-adv-x="1005" 
d="M641 1174q-3 -5 -37 16l-196 149q-22 12 -15.5 30.5t41.5 25.5q31 7 48 -1.5t46 -47.5l99 -134q20 -29 14 -38z" />
    <glyph glyph-name="a" unicode="a" horiz-adv-x="1005" 
d="M297 -20q-94 0 -149 45.5t-56 128.5q-8 62 34.5 115.5t115.5 90.5q44 26 120 52q118 39 148 47q58 19 180 51v217q0 148 -70 213t-176 33q-67 -20 -104 -65t-37 -103q0 -62 -28.5 -97.5t-77.5 -35.5q-76 0 -76 73q0 93 182 195q73 41 162 66q65 18 108 18
q111 0 175.5 -77.5t64.5 -235.5v-537q2 -45 24.5 -54.5t116.5 1.5q29 6 29 -4q-3 -12 -25 -21q-122 -42 -210 -108q-8 -8 -21 -8q-14 0 -20 22q-21 73 -21 172q0 28 2 59q-73 -117 -176.5 -185t-214.5 -68zM360 63q118 0 222 84q103 81 106 172l2 166q-280 -75 -373 -135
t-96 -151q0 -136 139 -136z" />
    <glyph glyph-name="b" unicode="b" horiz-adv-x="1236" 
d="M690 1024q199 0 314 -139q114 -138 114 -355q0 -246 -147 -399q-145 -151 -365 -151q-204 0 -330 129l-49 -82q-15 -27 -26 -27t-11 41v1237q0 56 -18 65q-17 11 -111 -4q-27 -6 -30 2q-7 14 18 23q143 54 230 115q29 16 30 16q8 0 8 -41v-635q73 91 171 148t202 57z
M623 10q78 0 141 29.5t102.5 76.5t66 110.5t37.5 127t11 129.5q0 232 -95.5 356t-250.5 124q-94 0 -184 -55t-134 -140v-461q19 -131 102 -214t204 -83z" />
    <glyph glyph-name="c" unicode="c" horiz-adv-x="1046" 
d="M571 -20q-211 0 -352 147q-141 150 -141 377q0 233 141 377q140 143 371 143q97 0 172 -20t112 -52q68 -59 68 -106q0 -34 -21.5 -53t-54.5 -19q-66 0 -112 82q-39 74 -87 106.5t-128 32.5q-142 0 -234 -121t-92 -323q0 -224 117 -356q120 -129 301 -129q178 0 291 110
q25 25 30 23q12 -9 -6 -35q-59 -81 -159.5 -132.5t-215.5 -51.5z" />
    <glyph glyph-name="d" unicode="d" horiz-adv-x="1216" 
d="M1145 129q28 6 31 -4q-3 -11 -27 -21q-96 -35 -211 -116q-8 -8 -20 -8q-15 0 -21 22q-20 70 -20 178q-72 -89 -170.5 -144.5t-200.5 -55.5q-198 0 -313 139t-115 354q0 246 145 397q148 154 367 154q167 0 289 -90v344q0 56 -19 65q-17 11 -110 -4q-28 -6 -31 2
q-7 14 18 23q143 54 230 115q29 16 30 16q9 0 9 -41l-2 -1272q2 -45 24.5 -54.5t116.5 1.5zM561 41q92 0 182 54t134 136v474q-19 129 -101 208.5t-203 79.5q-78 0 -141 -29.5t-102.5 -76.5t-66 -110.5t-37.5 -127t-11 -129.5q0 -232 95.5 -355.5t250.5 -123.5z" />
    <glyph glyph-name="e" unicode="e" horiz-adv-x="1030" 
d="M942 199q12 -9 -6 -35q-132 -184 -375 -184q-201 0 -338 149t-137 375q0 231 141 375q145 145 363 145q159 0 253.5 -87t94.5 -224q0 -41 -41 -41h-666q-10 -72 -10 -121q0 -224 111 -356q114 -129 289 -129q180 0 290 110q27 27 31 23zM547 997q-122 0 -203 -81
t-108 -220l505 29q43 1 53.5 14.5t4.5 51.5q-18 95 -82 150.5t-170 55.5z" />
    <glyph glyph-name="f" unicode="f" horiz-adv-x="665" 
d="M612 1516q115 0 176.5 -31t61.5 -82q0 -29 -19.5 -47.5t-48.5 -18.5q-47 0 -84 49q-47 66 -73 80q-39 17 -74 17q-98 0 -150 -88q-55 -94 -55 -355v-49l246 13q14 2 18.5 -3.5t3.5 -23.5q-3 -43 -30 -43l-238 12v-723q0 -114 31 -158.5t125 -50.5q41 -3 41 -14
q0 -12 -41 -12q-54 0 -125 6l-94 4q-20 0 -86 -4q-49 -6 -58 -6q-41 0 -41 12q0 10 41 16q44 7 62 54.5t18 152.5v621q0 77 -20 94.5t-97 17.5q-14 0 -19.5 6t0 12.5t19.5 6.5q63 0 88.5 19.5t26.5 72.5q9 278 201 393q86 50 194 50z" />
    <glyph glyph-name="g" unicode="g" horiz-adv-x="1038" 
d="M1016 997q6 -26 -10.5 -49t-42.5 -28q-4 -2 -21 -2q-29 0 -70 20q-44 21 -65 18q-41 -6 -62 -24l-14 16q114 117 201 117q34 0 56.5 -19t27.5 -49zM375 143l229 -39q212 -39 291 -86q86 -47 86 -163q0 -154 -170 -271q-168 -116 -395 -116q-203 0 -295 77q-90 78 -90 174
q0 173 260 310q-91 20 -138 60.5t-47 115.5q6 65 45 106.5t109 77.5q-135 95 -135 291q0 154 92.5 239t263.5 103q8 2 39 2q140 0 228 -95.5t88 -248.5q0 -156 -96 -246.5t-259 -101.5q-114 -9 -202 45q-82 -64 -82 -117q0 -87 178 -117zM471 993q-98 0 -155.5 -74.5
t-57.5 -201.5q0 -39 6 -86q20 -124 83 -196.5t153 -72.5q4 0 10.5 1t16 2t16.5 2q72 14 118 91t46 185q0 29 -7 76q-20 127 -82 200.5t-147 73.5zM821 -373q41 32 66.5 79t25.5 89q0 78 -59.5 120t-200.5 62l-280 39q-15 1 -54 9q-91 -65 -130 -120t-39 -128
q0 -118 100 -182t260 -64q183 0 311 96z" />
    <glyph glyph-name="h" unicode="h" horiz-adv-x="1198" 
d="M1092 16q41 -3 41 -14q0 -12 -41 -12q-16 0 -72 6q-70 4 -84 4q-26 0 -87 -5t-69 -5q-41 0 -41 12q0 11 41 14q53 4 73.5 48t20.5 141v428q0 338 -235 338q-101 0 -190 -68q-86 -68 -107 -168v-510q0 -112 24 -157.5t91 -51.5q41 -3 41 -14q0 -12 -41 -12q-31 0 -90 6
q-78 4 -88 4q-15 0 -93 -4q-58 -6 -86 -6q-41 0 -41 12q0 11 41 14q67 6 91 51.5t24 157.5v1053q0 56 -18 65q-17 11 -111 -4q-28 -6 -31 2q-7 13 19 23q140 53 229 115q29 16 31 16q8 0 8 -41v-627q62 90 157.5 143.5t205.5 53.5q149 0 220.5 -86.5t71.5 -239.5v-493
q0 -96 21 -140.5t74 -48.5z" />
    <glyph glyph-name="i" unicode="i" horiz-adv-x="575" 
d="M287 1180q-40 0 -61.5 26t-14.5 72t36.5 72t69.5 26q38 0 59.5 -27.5t14.5 -70.5q-7 -46 -36.5 -72t-67.5 -26zM473 16q41 -3 41 -14q0 -12 -41 -12q-32 0 -90 6q-78 4 -88 4q-14 0 -92 -4q-59 -6 -86 -6q-41 0 -41 12q0 11 41 14q67 6 90.5 51.5t23.5 157.5v582
q0 57 -19 67.5t-110 -6.5q-27 -6 -30 2q-7 14 18 23q156 64 229 115q29 16 31 16q8 0 8 -41v-758q0 -112 24 -157.5t91 -51.5z" />
    <glyph glyph-name="j" unicode="j" horiz-adv-x="454" 
d="M211 1135q-40 0 -66 26t-26 72t25 72t65 26q38 0 64 -27.5t26 -70.5q0 -46 -25 -72t-63 -26zM33 -506q-30 -10 -33 4q-3 12 25 21q75 24 110 123q35 96 35 348v817q0 86 -72 111q-17 5 -23 10.5t0 10.5t23 9q103 21 158 60q29 16 31 16q8 0 8 -41v-946q0 -249 -62 -375
t-200 -168z" />
    <glyph glyph-name="k" unicode="k" horiz-adv-x="1179" 
d="M1149 14q19 0 27 -6t0 -12t-27 -6q-43 0 -129 6q-114 4 -129 4q-12 0 -98 -4q-65 -6 -97 -6q-31 0 -30.5 12.5t32.5 13.5q42 4 61.5 20t14.5 37.5t-31 43.5l-399 395l-2 -2v-285q0 -112 24 -157.5t91 -51.5q41 -3 41 -14q0 -12 -41 -12q-31 0 -90 6q-78 4 -88 4
q-15 0 -93 -4q-58 -6 -86 -6q-41 0 -41 12q0 11 41 14q67 6 91 51.5t24 157.5v1053q0 56 -18 65q-17 11 -111 -4q-28 -6 -31 2q-7 13 19 23q140 53 229 115q29 16 31 16q8 0 8 -41v-909l383 327q53 54 33 82.5t-101 28.5q-19 0 -27 6.5t0 12.5t27 6q17 0 76 -2t76 -2
q13 0 115 4t116 4q19 0 27 -6.5t0 -13t-27 -7.5q-115 -9 -241 -108l-369 -297l477 -455q114 -111 242 -111z" />
    <glyph glyph-name="l" unicode="l" horiz-adv-x="569" 
d="M457 16q41 -3 41 -14q0 -12 -41 -12q-31 0 -90 6q-78 4 -88 4q-15 0 -93 -4q-58 -6 -86 -6q-41 0 -41 12q0 11 41 14q67 6 91 51.5t24 157.5v1053q0 56 -18 65q-17 11 -111 -4q-28 -6 -31 2q-7 13 19 23q140 53 229 115q29 16 31 16q8 0 8 -41v-1229q0 -112 24 -157.5
t91 -51.5z" />
    <glyph glyph-name="m" unicode="m" horiz-adv-x="1841" 
d="M1735 16q41 -3 41 -14q0 -12 -41 -12q-17 0 -72 6q-70 4 -84 4q-27 0 -87 -5t-69 -5q-41 0 -41 12q0 11 41 14q53 4 74 48.5t21 140.5v446q0 157 -58.5 238.5t-165.5 81.5q-97 0 -188 -66q-89 -67 -109 -166q2 -10 2 -41v-493q0 -96 21 -140.5t74 -48.5q41 -3 41 -14
q0 -12 -41 -12q-16 0 -72 6q-70 4 -84 4q-26 0 -87 -5t-69 -5q-41 0 -41 12q0 11 41 14q53 4 74 48.5t21 140.5v428q0 338 -224 338q-99 0 -186 -66q-86 -67 -109 -162v-518q0 -112 24 -157.5t91 -51.5q41 -3 41 -14q0 -12 -41 -12q-32 0 -90 6q-78 4 -88 4q-14 0 -92 -4
q-59 -6 -86 -6q-41 0 -41 12q0 11 41 14q67 6 90.5 51.5t23.5 157.5v582q0 56 -18 65q-17 11 -111 -4q-27 -6 -30 2q-7 10 22 23q97 40 182 100q45 31 46 31q36 0 36 -193q135 193 361 193q219 0 268 -211q62 96 160 153.5t213 57.5q142 0 211 -88t69 -238v-493
q0 -96 21 -140.5t74 -48.5z" />
    <glyph glyph-name="n" unicode="n" horiz-adv-x="1214" 
d="M1108 16q41 -3 41 -14q0 -12 -41 -12q-16 0 -72 6q-70 4 -84 4q-26 0 -86 -5t-69 -5q-41 0 -41 12q0 11 41 14q53 4 73.5 48t20.5 141v428q0 338 -236 338q-101 0 -190 -68q-86 -68 -107 -168v-510q0 -112 24 -157.5t91 -51.5q41 -3 41 -14q0 -12 -41 -12q-32 0 -90 6
q-78 4 -88 4q-14 0 -92 -4q-59 -6 -86 -6q-41 0 -41 12q0 11 41 14q67 6 90.5 51.5t23.5 157.5v582q0 56 -18 65q-17 11 -111 -4q-27 -6 -30 2q-7 10 22 23q97 40 182 100q45 31 46 31q36 0 36 -195v-2q62 90 157.5 143.5t205.5 53.5q150 0 221.5 -86.5t71.5 -239.5v-493
q0 -97 20.5 -141t73.5 -48z" />
    <glyph glyph-name="o" unicode="o" horiz-adv-x="1187" 
d="M586 -20q-219 0 -363 141q-145 142 -145 368q0 232 151 383q155 152 377 152q223 0 363 -143q141 -141 141 -369q0 -233 -147 -383q-143 -149 -377 -149zM623 8q169 0 260.5 114t91.5 318q0 231 -103 396q-102 163 -292 163q-164 0 -265 -125q-100 -121 -100 -327
q0 -221 109 -381q112 -158 299 -158z" />
    <glyph glyph-name="p" unicode="p" horiz-adv-x="1208" 
d="M702 1024q199 0 314 -139q114 -138 114 -355q0 -246 -147 -399q-145 -151 -365 -151q-176 0 -292 94v-340q0 -112 23.5 -157.5t90.5 -51.5q41 -3 41 -14q0 -13 -41 -13q-32 0 -90 6q-78 4 -88 4q-14 0 -92 -4q-58 -6 -86 -6q-41 0 -41 13q0 11 41 14q67 6 91 51.5
t24 157.5v1052q0 56 -19 66q-17 11 -110 -4q-28 -6 -31 2q-6 13 18 22q143 54 230 115q3 2 6.5 3.5t5.5 3t4.5 3t4.5 2.5t3.5 2t2.5 1.5t2 1.5h1q9 0 9 -41v-148q74 92 172.5 150.5t203.5 58.5zM635 10q78 0 141 29.5t102.5 76.5t66 110.5t37.5 127t11 129.5
q0 232 -95.5 356t-250.5 124q-97 0 -187.5 -57.5t-133.5 -145.5v-406q3 -140 88 -245q86 -99 221 -99z" />
    <glyph glyph-name="q" unicode="q" horiz-adv-x="1236" 
d="M1206 -338q6 -13 -18 -22q-143 -54 -230 -115q-3 -2 -6.5 -3.5t-5.5 -3t-4.5 -3t-4.5 -2.5t-3.5 -2t-2.5 -1.5t-2 -1.5h-1q-8 0 -8 41v635q-73 -91 -171 -147.5t-202 -56.5q-199 0 -314 139q-114 138 -114 354q0 246 145 397q148 154 367 154q204 0 330 -129l49 82
q15 27 26 27t11 -41v-1237q0 -57 18 -66q17 -11 111 4q27 6 30 -2zM602 41q94 0 184 55t134 140v460q-19 131 -102 214t-204 83q-78 0 -141 -29.5t-102.5 -76.5t-66 -110.5t-37.5 -127t-11 -129.5q0 -232 95.5 -355.5t250.5 -123.5z" />
    <glyph glyph-name="r" unicode="r" horiz-adv-x="800" 
d="M637 1024q58 0 90.5 -25.5t32.5 -64.5q0 -34 -27.5 -59t-60.5 -25q-29 0 -84 22q-57 23 -90 23q-88 0 -152 -104q-10 -17 -20 -48v-518q0 -114 30.5 -158.5t124.5 -50.5q41 -3 41 -14q0 -12 -41 -12q-55 0 -125 6l-94 4q-20 0 -86 -4q-49 -6 -57 -6q-41 0 -41 12
q0 10 41 16q44 7 62 54.5t18 152.5v582q0 55 -19 65q-17 11 -110 -4q-28 -6 -31 2q-7 10 22 23q92 36 183 100l45 31q37 0 37 -195v-22q66 84 151 149q89 68 160 68z" />
    <glyph glyph-name="s" unicode="s" horiz-adv-x="843" 
d="M412 -20q-157 0 -262 63q-38 23 -46 61q-12 50 -12 207q0 41 12 41q14 0 17 -28q15 -140 102 -224q96 -90 238 -90q81 0 137.5 50t56.5 133q0 60 -20 94q-4 6 -10 18t-9.5 17.5t-11.5 14.5t-20 17q-9 7 -18.5 14.5t-14 11t-14.5 9.5t-27 14l-41 19q-20 10 -47 20l-43 21
q-88 38 -150 76q-57 39 -83.5 89t-32.5 134q-3 118 90 190t227 72q146 0 234 -49q28 -16 28 -43q-3 -90 0 -154q0 -30 -6 -30q-7 0 -16 28q-65 219 -289 219q-84 0 -135 -47t-51 -121q0 -87 55 -138.5t188 -110.5q158 -70 205 -105q98 -76 98 -201q0 -137 -90 -214.5
t-239 -77.5z" />
    <glyph glyph-name="t" unicode="t" horiz-adv-x="780" 
d="M756 162q11 -11 -11 -33q-125 -146 -282 -149q-135 -1 -193.5 79t-58.5 254v531q0 76 -18 94q-15 18 -89 18q-15 0 -21 6t0 12.5t21 6.5q90 0 142.5 44t52.5 132q0 35 18 35q17 0 17 -35v-166l336 13q16 0 20 -4t4 -23q-3 -43 -30 -43l-330 12v-612q0 -150 44 -211.5
t144 -59.5q111 3 201 87q21 21 33 12z" />
    <glyph glyph-name="u" unicode="u" horiz-adv-x="1261" 
d="M1159 129q29 6 29 -4q-3 -12 -25 -21q-96 -35 -211 -116q-8 -8 -20 -8q-15 0 -21 22q-20 70 -20 180v13q-62 -97 -158.5 -156t-208.5 -59q-150 0 -221.5 86t-71.5 239v502q0 56 -18 65q-17 11 -111 -4q-27 -6 -30 2q-7 14 18 23q140 53 229 115q29 16 35 16q9 0 6 -41
q-5 -56 -8 -180v-244q2 -92 2 -207q-3 -319 236 -319q88 0 172.5 58t128.5 149v567q0 55 -19 65q-17 11 -110 -4q-28 -6 -31 2q-7 13 19 23q140 53 229 115q29 16 35 16q9 0 6 -41q-8 -96 -8 -365q0 -258 6 -436q2 -45 24.5 -54.5t116.5 1.5z" />
    <glyph glyph-name="v" unicode="v" horiz-adv-x="1093" 
d="M518 4l-338 848q-26 64 -54.5 91.5t-82.5 33.5q-19 1 -27 7.5t0 13t27 6.5h363q30 0 30 -13q0 -8 -30 -14q-78 -17 -97.5 -41.5t4.5 -73.5l279 -710l268 704q19 63 2 87.5t-82 35.5q-30 6 -30 12q0 13 30 13h281q19 0 27 -6t0 -12.5t-27 -6.5q-61 -4 -92 -27.5t-56 -81.5
l-354 -866q-21 -48 -41 0z" />
    <glyph glyph-name="w" unicode="w" horiz-adv-x="1748" 
d="M1436 1004h280q19 0 27 -6t0 -12.5t-27 -6.5q-61 -4 -91.5 -27.5t-55.5 -81.5l-355 -866q-20 -47 -40 0l-304 762l-311 -762q-21 -48 -41 0l-338 848q-26 64 -54.5 91.5t-82.5 33.5q-19 1 -27 7.5t0 13t27 6.5h363q30 0 30 -13q0 -8 -30 -14q-78 -17 -97.5 -41.5
t4.5 -73.5l279 -710l256 671l-12 29q-26 64 -55 91.5t-83 33.5q-19 1 -27 7.5t0 13t27 6.5h363q31 0 31 -13q0 -8 -31 -14q-78 -17 -97 -41.5t5 -73.5l278 -710l269 704q18 63 1.5 87t-81.5 36q-31 6 -31 12q0 13 31 13z" />
    <glyph glyph-name="x" unicode="x" horiz-adv-x="1040" 
d="M1010 16q30 -3 30 -14q0 -12 -30 -12q-38 0 -109 6q-94 4 -106 4q-17 0 -81 -5t-81 -5q-30 0 -30.5 12t26.5 18q60 12 72 43t-23 93l-197 317l-211 -328q-71 -112 76 -127q29 -4 29 -16t-31 -12q-16 0 -69 5t-68 5q-10 0 -88 -4q-119 -13 -119 6q0 11 31 14
q104 9 170 105l262 379l-238 383q-63 106 -186 106q-19 0 -27 6.5t0 12.5t27 6q45 0 121 -6q102 -4 106 -4q26 0 84.5 3t69.5 3q31 0 31 -13q0 -14 -31 -14q-52 0 -56 -26.5t39 -104.5l158 -256l189 287q24 38 9 65.5t-59 32.5q-19 1 -27 7.5t0 13t27 6.5q13 0 57 -2t58 -2
q29 0 84 6q58 6 86 6q31 0 31 -12q0 -10 -31 -13q-116 -9 -184 -108l-223 -314l276 -448q60 -96 156 -105z" />
    <glyph glyph-name="y" unicode="y" horiz-adv-x="1107" 
d="M782 1004h281q19 0 27 -6t0 -12.5t-27 -6.5q-61 -4 -92 -27.5t-56 -81.5l-354 -866q-133 -298 -229 -407q-95 -109 -217 -109q-62 0 -100 28.5t-38 71.5q0 38 23.5 62t60.5 24q38 0 78 -63q40 -64 82 -64q100 0 309 455l-348 850q-28 65 -56 92t-81 33q-19 1 -27 7.5
t0 13t27 6.5h363q30 0 30 -13q0 -8 -30 -14q-78 -17 -97.5 -41.5t4.5 -73.5l279 -710l268 704q18 63 1.5 87t-81.5 36q-30 6 -30 12q0 13 30 13z" />
    <glyph glyph-name="z" unicode="z" horiz-adv-x="1040" 
d="M948 254q13 -3 4 -43q-24 -101 -30 -174q-3 -47 -43 -47q-23 0 -191 4l-475 4q-72 0 -121 -8q-10 -1 -12 4t4 16l727 969l-410 -14q-96 -3 -151 -39q-51 -33 -94 -138q-7 -18 -15 -26t-14 -6q-12 3 0 43q43 128 43 237q0 23 16 23q10 0 13 -15q4 -24 36.5 -32t93 -7.5
t72.5 -0.5h426q14 0 59.5 2t57.5 2q23 0 8 -21l-716 -962l452 18q182 6 234 174q6 20 12.5 29t13.5 8z" />
    <glyph glyph-name="braceleft" unicode="{" horiz-adv-x="634" 
d="M465 -369q-153 44 -221 118t-68 192q0 61 35 198t35 205q0 73 -37 109t-119 47q-39 6 -39 22q0 15 39 21q82 11 119 47.5t37 109.5q0 68 -35 205t-35 199q2 118 69 191.5t218 117.5q40 12 43 -2q2 -5 -9.5 -12t-29.5 -13q-124 -37 -158 -106q-16 -33 -20 -60t-4 -77
q0 -61 22 -209q25 -147 25 -184q0 -163 -182 -228q184 -64 184 -227q0 -37 -25 -184q-22 -148 -22 -209q0 -51 4 -78t20 -60q34 -69 158 -106q18 -6 29.5 -13t9.5 -12q-3 -14 -43 -2z" />
    <glyph glyph-name="bar" unicode="|" horiz-adv-x="1024" 
d="M504 -401q-8 -2 -13.5 10.5t-5.5 32.5v1734q0 38 19 41q8 2 13 -10.5t5 -32.5v-1734q0 -38 -18 -41z" />
    <glyph glyph-name="braceright" unicode="}" horiz-adv-x="634" 
d="M170 -369q-40 -12 -43 2q-2 5 9.5 12t29.5 13q124 37 158 106q16 33 20 60t4 78q0 68 -24 209q-23 154 -23 184q0 163 184 227q-182 65 -182 228q0 30 23 184q24 141 24 209q0 50 -4 77t-20 60q-34 69 -158 106q-18 6 -29.5 13t-9.5 12q3 14 43 2q151 -44 218 -117.5
t69 -191.5q0 -62 -35 -199t-35 -205q0 -73 37 -109.5t119 -47.5q39 -6 39 -21q0 -16 -39 -22q-82 -11 -119 -47t-37 -109q0 -68 35 -205t35 -198q0 -118 -68 -192t-221 -118z" />
    <glyph glyph-name="asciitilde" unicode="~" horiz-adv-x="1366" 
d="M940 557q-80 0 -258 90q-153 78 -213 78q-59 0 -100.5 -29t-85.5 -92q-7 -9 -15 -13.5t-13.5 -3t-9 6t-2 13.5t8.5 18q95 133 217 133q71 0 229 -82q170 -86 242 -86q94 0 182 131q19 25 33 16q18 -9 -2 -35q-103 -145 -213 -145z" />
    <glyph glyph-name="exclamdown" unicode="&#xa1;" horiz-adv-x="858" 
d="M512 936q0 -57 -43 -85t-86 -8t-43 79t43 88t86 8.5t43 -82.5zM436 705q3 -243 19 -478q11 -124 24.5 -238.5t21 -172t7.5 -72.5q0 -133 -82 -133t-82 133q0 19 16 147q22 175 33 336q16 235 19 478q0 27 6 38t12 0t6 -38z" />
    <glyph glyph-name="cent" unicode="&#xa2;" horiz-adv-x="1204" 
d="M975 412q9 -9 -6 -31q-49 -70 -136.5 -115t-187.5 -45q-57 0 -106 12l-35 -194q-5 -18 -8 -24t-9 -5q-15 3 -8 33l35 199q-132 43 -212.5 160.5t-80.5 271.5q0 199 121 323q122 125 320 125h8l28 164q5 16 9.5 23t9.5 6q13 -3 6 -33l-29 -160q76 -4 133 -22.5t85 -43.5
t40.5 -47t12.5 -40q0 -62 -66 -62q-56 0 -96 70q-53 90 -115 110l-133 -761q73 -29 141 -29q158 0 252 94q18 21 27 21zM338 715q0 -133 51.5 -232t140.5 -147l134 758q-32 4 -46 4q-124 0 -202 -105.5t-78 -277.5z" />
    <glyph glyph-name="sterling" unicode="&#xa3;" horiz-adv-x="1304" 
d="M1055 328q65 0 65 -82q0 -122 -131 -223q-64 -46 -139 -46q-110 0 -297 134q-115 79 -197 88q-30 -85 -79 -137t-93 -52q-51 0 -51 49q0 41 43.5 92.5t116.5 81.5q41 103 78 328h-115q-34 0 -31 14q4 11 33 11l117 2q21 151 28 219q20 175 68 276t133 160q74 53 162 53
q106 0 154.5 -39t48.5 -94q0 -61 -66 -61q-57 0 -94 69q-50 84 -117 84q-33 0 -59 -20q-42 -25 -64 -127l-14 -86l-12 -100q-2 -34 -8 -91q-10 -90 -41 -243l327 4q22 0 26.5 -2.5t4.5 -14.5q-6 -18 -33 -18l-332 2q-49 -211 -108 -315q35 6 63 6q76 0 152.5 -32.5
t128.5 -78.5q132 -110 199 -110q31 0 61 18q71 53 25 154q-17 34 -17 61q0 66 64 66z" />
    <glyph glyph-name="yen" unicode="&#xa5;" horiz-adv-x="1261" 
d="M1122 1307q39 0 39 -13q0 -9 -37 -12q-121 -12 -186 -147l-242 -510h189q20 0 27 -3.5t3 -13.5q-6 -18 -32 -18h-205v-129h207q20 0 27 -3.5t3 -13.5q-6 -18 -32 -18h-205v-215q0 -108 22 -150.5t86 -46.5q39 -3 39 -14q0 -12 -39 -12q-28 0 -86 6q-74 4 -82 4
q-22 0 -86 -5t-83 -5q-39 0 -39 12q0 11 39 14q64 4 86 46.5t22 150.5v215h-197q-20 0 -27.5 4.5t-2.5 13.5q7 17 32 17h195v110l-8 19h-189q-20 0 -27.5 4.5t-2.5 13.5q7 17 32 17h168l-237 491q-71 144 -187 162q-36 6 -36 14q0 11 39 11q9 0 41.5 -2t54.5 -3q47 -2 96 -2
q14 0 96 4q75 7 90 7q39 0 39 -13q0 -9 -39 -12q-128 -9 -53 -168l230 -489h4l225 516q36 72 21.5 103.5t-91.5 37.5q-39 3 -39 12q0 13 39 13q17 0 78 -5.5t78 -5.5q15 0 70.5 5.5t72.5 5.5z" />
    <glyph glyph-name="section" unicode="&#xa7;" horiz-adv-x="673" 
d="M221 -4q-53 0 -87 20t-34 54q0 20 18.5 37.5t37.5 17.5q28 0 67 -39q37 -37 82 -37q42 0 80 35q51 39 51 113q0 27 -37 84q-13 21 -65 73l-96 101q-177 183 -177 346q0 119 111 272q9 93 86 158q80 65 172 65q53 0 87 -19.5t34 -53.5q0 -20 -18 -38t-37 -18q-29 0 -68 39
q-40 40 -82.5 41.5t-73.5 -30.5q-41 -35 -41 -105q0 -38 25 -86q25 -40 53 -76l101 -104l86 -98q26 -29 71 -111q45 -74 45 -139q0 -89 -37 -170q-9 -20 -33 -63t-26 -48q-47 -98 -113 -151q-85 -70 -182 -70zM506 254q45 74 45 147q0 97 -43 164q-44 74 -160 201
q-89 100 -131 160q-31 55 -45 114q-51 -96 -51 -178q0 -70 33 -135q35 -69 61 -102l96 -105q184 -196 195 -266z" />
    <glyph glyph-name="dieresis" unicode="&#xa8;" horiz-adv-x="974" 
d="M246 1262q0 37 22.5 62t55.5 30q35 2 56 -20t21 -60q0 -54 -38.5 -80t-77.5 -7t-39 75zM573 1262q0 37 22.5 62t55.5 30q35 2 56.5 -20t21.5 -60q0 -54 -39 -80t-78 -7t-39 75z" />
    <glyph glyph-name="copyright" unicode="&#xa9;" horiz-adv-x="1662" 
d="M831 -51q-307 0 -526 213q-216 216 -213 520q0 304 217 518q217 217 522 217q308 0 523 -215q217 -214 217 -520t-217 -520q-216 -213 -523 -213zM834 -27q288 0 495 207t207 500q0 294 -207 504q-206 209 -498 209t-499 -207q-204 -204 -207 -502q0 -294 207 -504
q210 -207 502 -207zM831 244q-229 0 -337 182q-66 111 -66 258q0 178 100 299q118 145 334 145q131 0 250 -55q32 -17 23 -78v-28q0 -46 2 -58q3 -30 -9 -30q-6 -1 -11 6.5t-7 19.5q-16 86 -55 125q-75 72 -219 72q-62 0 -121 -21q-185 -71 -185 -364q0 -199 127 -320
q86 -80 211 -80q174 0 283 136q16 25 27 18q8 -6 -7 -33q-108 -194 -340 -194z" />
    <glyph glyph-name="ordfeminine" unicode="&#xaa;" horiz-adv-x="1153" 
d="M418 606q-69 0 -111 35t-43 96q-3 98 96 150q99 51 353 119v163q0 110 -52.5 159.5t-132.5 25.5q-106 -34 -106 -127q0 -47 -21.5 -74t-58.5 -27q-57 0 -57 56q0 71 137 147q51 27 123 49q46 15 80 15q83 0 131.5 -58.5t48.5 -177.5v-403q2 -34 18 -41.5t88 0.5
q14 2 20 -1t1.5 -8.5t-17.5 -9.5q-83 -25 -159 -82q-9 -6 -15 -6q-10 0 -16 19q-14 49 -14 129v45q-52 -88 -130.5 -140.5t-162.5 -52.5zM465 670q93 0 168 63q78 66 78 129l2 125q-220 -62 -281 -102q-69 -46 -72 -113q0 -102 105 -102zM848 496h-543q-20 0 -28 4.5
t-3 13.5q6 16 33 16h543q21 0 28 -3t3 -13q-6 -18 -33 -18z" />
    <glyph glyph-name="guillemotleft" unicode="&#xab;" horiz-adv-x="745" 
d="M383 182q-22 -13 -43 21q-109 168 -262 321q-8 8 -2 17q162 167 264 321q21 35 33 27q10 -10 -4 -41q-78 -173 -189 -316q134 -178 203 -350zM629 182q-22 -13 -43 21q-109 168 -262 321q-8 8 -2 17q162 167 264 321q21 34 32 27q10 -10 -4 -41q-79 -176 -188 -316
q134 -178 203 -350z" />
    <glyph glyph-name="registered" unicode="&#xae;" horiz-adv-x="1024" 
d="M512 1423q149 3 254 -102q106 -100 106 -252q0 -146 -106 -252q-106 -103 -256 -106q-147 0 -254 104q-104 107 -104 254t106 250q107 104 254 104zM512 729q139 3 236 100q98 98 98 238q0 142 -98 240q-98 101 -238 98q-138 0 -236 -98q-96 -101 -96 -238
q0 -139 98 -240q100 -100 236 -100zM700 901q17 0 17 -4q0 -6 -17 -6q-6 -2 -34 -2t-44.5 17t-31.5 52l-35 76q-17 37 -36 47.5t-62 12.5v-136q0 -56 28 -59q17 0 17 -6q0 -8 -43 -2h-25q-22 0 -28 -2h-23q-16 0 -16 4q0 6 16 6q29 3 29 59v267q0 56 -29 59q-17 2 -16 6
q2 6 26 6l13 -2q3 0 14 -1t14 -1q5 0 22 1t21 1q46 4 51 4q50 0 84.5 -30.5t34.5 -69.5q0 -92 -100 -104q42 -14 57 -56l27 -61q34 -73 69 -76zM530 1104q70 9 70 92q0 86 -100 86q-19 0 -43 -4v-172q36 -5 73 -2z" />
    <glyph glyph-name="overscore" unicode="&#xaf;" horiz-adv-x="782" 
d="M606 1184h-454q-25 0 -36 6t-7 16q10 23 43 23h456q23 0 35 -6.5t8 -16.5q-9 -22 -45 -22z" />
    <glyph glyph-name="overscore" unicode="&#x2c9;" horiz-adv-x="782" 
d="M606 1184h-454q-25 0 -36 6t-7 16q10 23 43 23h456q23 0 35 -6.5t8 -16.5q-9 -22 -45 -22z" />
    <glyph glyph-name="degree" unicode="&#xb0;" horiz-adv-x="1024" 
d="M510 729q-113 0 -191 78q-75 78 -75 194q0 110 80 193q79 82 190 82q110 0 188 -78t78 -192q0 -113 -82 -195q-79 -82 -188 -82zM514 752q98 2 164.5 72.5t66.5 174.5q0 102 -71 179q-72 78 -166 75q-98 -1 -162.5 -71t-66.5 -176q-3 -105 67 -181t168 -73z" />
    <glyph glyph-name="uni00B2" unicode="&#xb2;" horiz-adv-x="538" 
d="M500 811q12 -3 6 -31l-6 -39l-13 -96q-3 -31 -30 -31q-90 0 -117 2h-266q-29 0 -29 11q0 7 12 22q119 145 148 182q50 62 104 166q53 103 53 177q0 72 -34 111.5t-97 39.5q-95 0 -153 -82q-13 -19 -21 -16q-16 6 2 30q77 136 213 136q85 0 135 -49t50 -121
q0 -102 -86 -238q-51 -79 -211 -256q-26 -29 14 -29h180q65 0 89.5 17t35.5 69q5 14 9.5 20t11.5 5z" />
    <glyph glyph-name="uni00B3" unicode="&#xb3;" horiz-adv-x="659" 
d="M348 1059h17q78 0 125 -50t47 -132q0 -147 -166 -273q-33 -25 -86 -45t-90 -20q-93 0 -93 59q0 17 13 31t30 14q23 0 54 -31q28 -28 57 -28q47 0 90 32q95 62 98 220q2 87 -47 133.5t-141 27.5q-28 -6 -31 2q0 3 -1 5t1.5 4.5l4 4t5.5 3.5t6.5 3t7.5 3.5l7 3.5
q62 32 98.5 86t36.5 111q0 47 -30.5 75.5t-81.5 28.5q-88 0 -142 -72q-15 -21 -22 -16q-11 7 4 31q71 123 194 123q75 0 119.5 -39.5t44.5 -96.5q0 -107 -129 -198z" />
    <glyph glyph-name="acute" unicode="&#xb4;" horiz-adv-x="1005" 
d="M426 1114q-9 9 14 39l146 174q46 49 110 49q44 0 48.5 -22t-31.5 -45l-250 -179q-35 -21 -37 -16z" />
    <glyph glyph-name="paragraph" unicode="&#xb6;" horiz-adv-x="966" 
d="M786 1214h25q23 0 24.5 -10.5t-20.5 -12.5q-5 -1 -10 -1l-146 -4h3v-1047q0 -191 -37 -290.5t-119 -157.5q-143 -101 -254 -101q-63 0 -101 24.5t-38 68.5q0 26 21.5 47.5t45.5 21.5q37 0 86 -49q47 -47 96 -47q42 0 80 27q93 66 93 438v131q-180 0 -320 98
q-80 56 -134 158t-54 231q0 211 143 336q106 90 291 125q83 14 325 14z" />
    <glyph glyph-name="middot" unicode="&#xb7;" horiz-adv-x="411" 
d="M207 629q-46 5 -75.5 38.5t-29.5 86.5t29.5 81t75.5 23q44 -5 73 -38t29 -83q0 -53 -29 -83t-73 -25z" />
    <glyph glyph-name="middot" unicode="&#x2219;" horiz-adv-x="411" 
d="M207 629q-46 5 -75.5 38.5t-29.5 86.5t29.5 81t75.5 23q44 -5 73 -38t29 -83q0 -53 -29 -83t-73 -25z" />
    <glyph glyph-name="cedilla" unicode="&#xb8;" horiz-adv-x="1007" 
d="M401 -367q-65 0 -100 27q-17 13 -15 31t16.5 24t35.5 -4q56 -41 113 -41q33 0 59.5 22t26.5 62q0 37 -23 57.5t-57 20.5h-58q-8 8 19 39l112 119q5 8 25 8q31 -3 16 -18l-112 -113q66 20 115 -3t49 -73q0 -64 -70 -110q-73 -48 -152 -48z" />
    <glyph glyph-name="uni00B9" unicode="&#xb9;" horiz-adv-x="622" 
d="M451 635q28 -3 28 -12q0 -13 -28 -13q-4 0 -54 4q-5 0 -25.5 1t-25.5 1q-17 0 -63 -4q-7 0 -27 -1t-25 -1q-28 0 -28 13q0 9 28 12q37 5 50.5 29.5t13.5 89.5v420q0 56 -15.5 63t-84.5 -16q-27 -9 -31 -2q-3 12 20 26q101 64 170 133q15 15 23 15q10 0 10 -29v-610
q0 -65 13.5 -89.5t50.5 -29.5z" />
    <glyph glyph-name="ordmasculine" unicode="&#xba;" horiz-adv-x="1150" 
d="M584 606q-166 0 -273 107q-108 108 -108 278q0 173 114 287q115 115 281 115q165 0 272 -107t107 -278q0 -175 -111 -289q-107 -113 -282 -113zM610 629q128 0 197.5 86t69.5 239q0 172 -78 297q-76 123 -219 123q-123 0 -199 -93.5t-76 -246.5q0 -167 82 -286t223 -119z
M856 496h-543q-20 0 -27.5 4.5t-2.5 13.5q6 16 32 16h543q21 0 28 -3t3 -13q-6 -18 -33 -18z" />
    <glyph glyph-name="guillemotright" unicode="&#xbb;" horiz-adv-x="745" 
d="M100 182q69 172 203 350q-109 140 -188 316q-14 31 -4 41q11 7 32 -27q100 -151 265 -321q6 -9 -2 -17q-155 -155 -263 -321q-21 -34 -43 -21zM346 182q69 172 203 350q-111 143 -189 316q-14 31 -4 41q12 8 33 -27q102 -154 264 -321q6 -9 -2 -17q-153 -153 -262 -321
q-21 -34 -43 -21z" />
    <glyph glyph-name="questiondown" unicode="&#xbf;" horiz-adv-x="741" 
d="M586 938q0 -57 -43 -85t-86 -8t-43 79t43 88t86 8.5t43 -82.5zM502 598l-2 -371q0 -42 -43 -39q-18 2 -101 2q-78 0 -133.5 -24.5t-80 -64.5t-24.5 -89.5t27 -99.5q35 -65 99.5 -114.5t128.5 -61.5q29 -6 98 -10q61 -3 84 -13q32 -10 49.5 -36.5t11.5 -53.5
q-18 -78 -131 -51q-75 18 -184 104q-106 84 -190 234q-56 103 -56 190q0 107 106.5 179.5t303.5 72.5l8 246q0 26 7.5 36.5t14.5 0t7 -36.5z" />
    <glyph glyph-name="Agrave" unicode="&#xc0;" horiz-adv-x="1447" 
d="M887 1534l-283 176q-88 52 29 90q62 18 108 -39l168 -205q23 -30 15 -38q-2 -5 -37 16zM1378 20q39 -6 39 -14q0 -12 -41 -12q-10 0 -88 4q-39 2 -86 2q-8 0 -94 -4q-62 -6 -92 -6q-41 0 -41 12q0 11 41 14q151 9 74 191l-160 389h-500l-145 -381q-40 -98 -23.5 -145.5
t96.5 -53.5q41 -3 41 -14q0 -12 -41 -12q-20 0 -83 5t-82 5q-16 0 -75 -5t-77 -5q-41 0 -41 12q0 11 39 14q61 4 108 55t91 162l401 984l12 38q3 43 13 56q24 34 38 67q12 35 21 35q11 0 22 -33l463 -1130q52 -127 86.5 -175t83.5 -55zM670 1229l-228 -598h473z" />
    <glyph glyph-name="Aacute" unicode="&#xc1;" horiz-adv-x="1447" 
d="M954 1735l-301 -201q-35 -21 -37 -16q-8 8 15 38l168 195q46 49 139 49q44 0 48 -21t-32 -44zM1378 20q39 -6 39 -14q0 -12 -41 -12q-10 0 -88 4q-39 2 -86 2q-8 0 -94 -4q-62 -6 -92 -6q-41 0 -41 12q0 11 41 14q151 9 74 191l-160 389h-500l-145 -381
q-40 -98 -23.5 -145.5t96.5 -53.5q41 -3 41 -14q0 -12 -41 -12q-20 0 -83 5t-82 5q-16 0 -75 -5t-77 -5q-41 0 -41 12q0 11 39 14q61 4 108 55t91 162l401 984l12 38q3 43 13 56q24 34 38 67q12 35 21 35q11 0 22 -33l463 -1130q52 -127 86.5 -175t83.5 -55zM670 1229
l-228 -598h473z" />
    <glyph glyph-name="Acircumflex" unicode="&#xc2;" horiz-adv-x="1447" 
d="M555 1505q-44 -33 -53 -16q-10 13 28 45q87 80 152 182q19 29 46.5 29t47.5 -29q75 -117 152 -182q38 -32 28 -45q-11 -18 -53 16q-148 115 -174 115q-41 0 -174 -115zM1378 20q39 -6 39 -14q0 -12 -41 -12q-10 0 -88 4q-39 2 -86 2q-8 0 -94 -4q-62 -6 -92 -6
q-41 0 -41 12q0 11 41 14q151 9 74 191l-160 389h-500l-145 -381q-40 -98 -23.5 -145.5t96.5 -53.5q41 -3 41 -14q0 -12 -41 -12q-20 0 -83 5t-82 5q-16 0 -75 -5t-77 -5q-41 0 -41 12q0 11 39 14q61 4 108 55t91 162l401 984l12 38q3 43 13 56q24 34 38 67q12 35 21 35
q11 0 22 -33l463 -1130q52 -127 86.5 -175t83.5 -55zM670 1229l-228 -598h473z" />
    <glyph glyph-name="Atilde" unicode="&#xc3;" horiz-adv-x="1447" 
d="M500 1589q-35 -43 -43 -35q-13 13 18 54q75 106 125 106q15 1 90.5 -8.5t145.5 -19.5l69 -9q51 -6 92 60q4 7 7.5 12.5t6.5 9.5t6 7.5t5.5 5.5t4.5 3t4 0.5t3 -1.5q10 -10 -12 -52q-70 -125 -135 -125q-36 0 -166 19q-120 18 -152 18h-5q-13 0 -19 -1.5t-17 -11.5
t-28 -32zM1378 20q39 -6 39 -14q0 -12 -41 -12q-10 0 -88 4q-39 2 -86 2q-8 0 -94 -4q-62 -6 -92 -6q-41 0 -41 12q0 11 41 14q151 9 74 191l-160 389h-500l-145 -381q-40 -98 -23.5 -145.5t96.5 -53.5q41 -3 41 -14q0 -12 -41 -12q-20 0 -83 5t-82 5q-16 0 -75 -5t-77 -5
q-41 0 -41 12q0 11 39 14q61 4 108 55t91 162l401 984l12 38q3 43 13 56q24 34 38 67q12 35 21 35q11 0 22 -33l463 -1130q52 -127 86.5 -175t83.5 -55zM670 1229l-228 -598h473z" />
    <glyph glyph-name="Adieresis" unicode="&#xc4;" horiz-adv-x="1447" 
d="M481 1647q0 37 22.5 62t55.5 30q35 2 56.5 -20t21.5 -60q0 -54 -39 -80t-78 -7t-39 75zM809 1647q0 37 22.5 62t55.5 30q35 2 56.5 -20t21.5 -60q0 -54 -39 -80t-78 -7t-39 75zM1378 20q39 -6 39 -14q0 -12 -41 -12q-10 0 -88 4q-39 2 -86 2q-8 0 -94 -4q-62 -6 -92 -6
q-41 0 -41 12q0 11 41 14q151 9 74 191l-160 389h-500l-145 -381q-40 -98 -23.5 -145.5t96.5 -53.5q41 -3 41 -14q0 -12 -41 -12q-20 0 -83 5t-82 5q-16 0 -75 -5t-77 -5q-41 0 -41 12q0 11 39 14q61 4 108 55t91 162l401 984l12 38q3 43 13 56q24 34 38 67q12 35 21 35
q11 0 22 -33l463 -1130q52 -127 86.5 -175t83.5 -55zM670 1229l-228 -598h473z" />
    <glyph glyph-name="Aring" unicode="&#xc5;" horiz-adv-x="1447" 
d="M1378 20q39 -6 39 -14q0 -12 -41 -12q-10 0 -88 4q-39 2 -86 2q-8 0 -94 -4q-62 -6 -92 -6q-41 0 -41 12q0 11 41 14q151 9 74 191l-160 389h-500l-145 -381q-40 -98 -23.5 -145.5t96.5 -53.5q41 -3 41 -14q0 -12 -41 -12q-20 0 -83 5t-82 5q-16 0 -75 -5t-77 -5
q-41 0 -41 12q0 11 39 14q61 4 108 55t91 162l401 984l12 38q3 43 13 56q24 34 38 67q0 6 5 11q-80 5 -130.5 52t-50.5 120q0 69 62 125q63 57 141 57q82 0 134.5 -48.5t51.5 -121.5q3 -65 -51 -119t-123 -63l4 -11l463 -1130q52 -127 86.5 -175t83.5 -55zM590 1571
q0 -61 42.5 -108.5t96.5 -47.5q55 0 89 40t36 106q3 57 -43 106q-43 49 -92 49q-60 0 -95 -39.5t-34 -105.5zM670 1229l-228 -598h473z" />
    <glyph glyph-name="AE" unicode="&#xc6;" horiz-adv-x="1818" 
d="M1708 315q12 -3 6 -43q-27 -165 -33 -235q-3 -28 -12 -37q-10 -10 -31 -10q-5 0 -32.5 0.5t-83 1.5t-115.5 2q-307 6 -426 6q-20 0 -102 -4q-61 -6 -88 -6q-41 0 -41 12q0 11 41 14q67 6 90.5 51.5t23.5 157.5v447h-340l-241 -457q-99 -187 73 -199q41 -3 41 -14
q0 -12 -41 -12q-19 0 -83 5t-83 5l-94 -4q-71 -6 -96 -6q-41 0 -41 12q0 11 39 14q120 9 237 217l601 1078q-23 39 -86 45q-41 3 -41 14q0 12 41 12q15 0 90 -5t108 -5q29 0 367 6q60 1 115.5 2t83 1.5t32.5 0.5q23 0 30.5 -9.5t12.5 -37.5q8 -74 31 -174q9 -40 -4 -43
q-6 -2 -13 6.5t-14 28.5q-41 97 -100 137.5t-174 50.5q-132 10 -283 2q-27 -2 -34 -14t-7 -61v-563h256q110 0 162.5 33.5t58.5 107.5q3 41 15 41t12 -41q0 -14 -4 -84t-4 -74q0 -2 4 -80t4 -88q0 -41 -12 -41t-15 41q-12 152 -221 152h-256v-385q0 -145 61 -203.5
t199 -58.5q54 0 115 6q224 18 276 248q4 20 10.5 29t14.5 7zM891 1282l-309 -582h323v447q0 92 -14 135z" />
    <glyph glyph-name="Ccedilla" unicode="&#xc7;" horiz-adv-x="1406" 
d="M1319 334q10 0 4 -41q-23 -139 -25 -164q-3 -37 -43 -55q-198 -91 -440 -94l-84 -89q58 -25 83 -64.5t16.5 -78.5t-34 -74t-67.5 -56t-84 -19q-67 0 -100 26q-27 21 -10 45t47 6q56 -41 112 -41q29 0 50.5 20t21.5 58q0 56 -66 97q-8 4 -22 9.5t-24 8.5t-11 4q-8 8 19 39
l104 109q-302 12 -483 208t-181 484q0 320 203 520q207 201 543 201q237 0 373 -68q33 -14 36 -53q15 -110 33 -195q9 -40 2 -43q-10 -4 -16 3.5t-12 29.5q-53 158 -167 228.5t-298 70.5q-266 0 -406 -192q-139 -192 -139 -484q0 -283 158 -485q159 -199 415 -199
q172 0 298 78.5t169 214.5q6 18 13 27.5t12 7.5z" />
    <glyph glyph-name="Egrave" unicode="&#xc8;" horiz-adv-x="1150" 
d="M887 1501q-2 -4 -37 17l-283 176q-88 52 29 90q63 19 109 -39l167 -205q24 -30 15 -39zM123 -10q-41 0 -41 12q0 11 41 14q67 6 91 51.5t24 157.5v922q0 112 -24 157.5t-91 51.5q-41 3 -41 14q0 12 41 12q15 0 91 -5t108 -5q29 0 366 6q60 1 116 2t83.5 1.5t32.5 0.5
q23 0 30.5 -9.5t12.5 -37.5q9 -83 30 -174q9 -40 -4 -43q-6 -2 -12.5 6.5t-13.5 28.5q-41 97 -100 137t-175 51q-132 10 -282 2q-27 -2 -34 -14t-7 -61v-535h256q110 0 162.5 33.5t58.5 107.5q3 41 14 41q12 0 12 -41q0 -13 -4 -83t-4 -74q0 -2 4 -80t4 -88q0 -41 -12 -41
q-11 0 -14 41q-12 151 -221 151h-256v-413q0 -145 61 -203.5t199 -58.5q53 0 114 6q225 18 277 248q4 20 10 29t14 7q13 -3 7 -43q-27 -165 -33 -235q-3 -27 -13 -37t-30 -10q-5 0 -32.5 0.5t-83.5 1.5t-116 2q-307 6 -426 6q-20 0 -102 -4q-61 -6 -88 -6z" />
    <glyph glyph-name="Eacute" unicode="&#xc9;" horiz-adv-x="1150" 
d="M580 1501q-9 9 14 39l168 195q46 49 139 49q44 0 48.5 -21.5t-31.5 -44.5l-302 -200q-34 -21 -36 -17zM123 -10q-41 0 -41 12q0 11 41 14q67 6 91 51.5t24 157.5v922q0 112 -24 157.5t-91 51.5q-41 3 -41 14q0 12 41 12q15 0 91 -5t108 -5q29 0 366 6q60 1 116 2
t83.5 1.5t32.5 0.5q23 0 30.5 -9.5t12.5 -37.5q9 -83 30 -174q9 -40 -4 -43q-6 -2 -12.5 6.5t-13.5 28.5q-41 97 -100 137t-175 51q-132 10 -282 2q-27 -2 -34 -14t-7 -61v-535h256q110 0 162.5 33.5t58.5 107.5q3 41 14 41q12 0 12 -41q0 -13 -4 -83t-4 -74q0 -2 4 -80
t4 -88q0 -41 -12 -41q-11 0 -14 41q-12 151 -221 151h-256v-413q0 -145 61 -203.5t199 -58.5q53 0 114 6q225 18 277 248q4 20 10 29t14 7q13 -3 7 -43q-27 -165 -33 -235q-3 -27 -13 -37t-30 -10q-5 0 -32.5 0.5t-83.5 1.5t-116 2q-307 6 -426 6q-20 0 -102 -4
q-61 -6 -88 -6z" />
    <glyph glyph-name="Ecircumflex" unicode="&#xca;" horiz-adv-x="1150" 
d="M645 1700q19 29 46.5 29t47.5 -29q75 -117 152 -182q38 -33 29 -45q-11 -18 -54 16q-148 115 -174 115q-41 0 -174 -115q-44 -33 -53 -16q-9 12 29 45q84 78 151 182zM123 -10q-41 0 -41 12q0 11 41 14q67 6 91 51.5t24 157.5v922q0 112 -24 157.5t-91 51.5q-41 3 -41 14
q0 12 41 12q15 0 91 -5t108 -5q29 0 366 6q60 1 116 2t83.5 1.5t32.5 0.5q23 0 30.5 -9.5t12.5 -37.5q9 -83 30 -174q9 -40 -4 -43q-6 -2 -12.5 6.5t-13.5 28.5q-41 97 -100 137t-175 51q-132 10 -282 2q-27 -2 -34 -14t-7 -61v-535h256q110 0 162.5 33.5t58.5 107.5
q3 41 14 41q12 0 12 -41q0 -13 -4 -83t-4 -74q0 -2 4 -80t4 -88q0 -41 -12 -41q-11 0 -14 41q-12 151 -221 151h-256v-413q0 -145 61 -203.5t199 -58.5q53 0 114 6q225 18 277 248q4 20 10 29t14 7q13 -3 7 -43q-27 -165 -33 -235q-3 -27 -13 -37t-30 -10q-5 0 -32.5 0.5
t-83.5 1.5t-116 2q-307 6 -426 6q-20 0 -102 -4q-61 -6 -88 -6z" />
    <glyph glyph-name="Edieresis" unicode="&#xcb;" horiz-adv-x="1150" 
d="M444 1630q0 37 22.5 62t55.5 30q35 2 56.5 -20t21.5 -60q0 -54 -39 -80t-78 -7t-39 75zM772 1630q0 37 22.5 62t55.5 30q35 2 56.5 -20t21.5 -60q0 -54 -39 -80t-78 -7t-39 75zM123 -10q-41 0 -41 12q0 11 41 14q67 6 91 51.5t24 157.5v922q0 112 -24 157.5t-91 51.5
q-41 3 -41 14q0 12 41 12q15 0 91 -5t108 -5q29 0 366 6q60 1 116 2t83.5 1.5t32.5 0.5q23 0 30.5 -9.5t12.5 -37.5q9 -83 30 -174q9 -40 -4 -43q-6 -2 -12.5 6.5t-13.5 28.5q-41 97 -100 137t-175 51q-132 10 -282 2q-27 -2 -34 -14t-7 -61v-535h256q110 0 162.5 33.5
t58.5 107.5q3 41 14 41q12 0 12 -41q0 -13 -4 -83t-4 -74q0 -2 4 -80t4 -88q0 -41 -12 -41q-11 0 -14 41q-12 151 -221 151h-256v-413q0 -145 61 -203.5t199 -58.5q53 0 114 6q225 18 277 248q4 20 10 29t14 7q13 -3 7 -43q-27 -165 -33 -235q-3 -27 -13 -37t-30 -10
q-5 0 -32.5 0.5t-83.5 1.5t-116 2q-307 6 -426 6q-20 0 -102 -4q-61 -6 -88 -6z" />
    <glyph glyph-name="Igrave" unicode="&#xcc;" horiz-adv-x="610" 
d="M465 1518l-283 176q-88 52 29 90q62 18 108 -39l168 -205q24 -30 15 -39q-2 -4 -37 17zM479 14q41 -3 41 -14q0 -12 -41 -12q-29 0 -88 6q-78 4 -90 4q-14 0 -92 -4q-59 -6 -86 -6q-41 0 -41 12q0 11 41 14q67 6 91 51.5t24 157.5v924q0 112 -24 157.5t-91 51.5
q-41 3 -41 14q0 12 41 12q27 0 86 -6q78 -4 92 -4q12 0 90 4q59 6 88 6q41 0 41 -12q0 -11 -41 -14q-67 -6 -90.5 -51.5t-23.5 -157.5v-924q0 -112 23.5 -157.5t90.5 -51.5z" />
    <glyph glyph-name="Iacute" unicode="&#xcd;" horiz-adv-x="610" 
d="M516 1784q44 0 48 -21.5t-32 -44.5l-301 -200q-34 -21 -36 -17q-9 9 14 39l168 195q46 49 139 49zM479 1356q-67 -6 -90.5 -51.5t-23.5 -157.5v-924q0 -112 23.5 -157.5t90.5 -51.5q41 -3 41 -14q0 -12 -41 -12q-29 0 -88 6q-78 4 -90 4q-14 0 -92 -4q-59 -6 -86 -6
q-41 0 -41 12q0 11 41 14q67 6 91 51.5t24 157.5v924q0 112 -24 157.5t-91 51.5q-41 3 -41 14q0 12 41 12q27 0 86 -6q78 -4 92 -4q12 0 90 4q59 6 88 6q41 0 41 -12q0 -11 -41 -14z" />
    <glyph glyph-name="Icircumflex" unicode="&#xce;" horiz-adv-x="610" 
d="M506 1518q38 -33 29 -45q-11 -18 -54 16q-148 115 -174 115q-41 0 -174 -115q-44 -33 -53 -16q-9 12 29 45q84 78 151 182q19 29 46.5 29t47.5 -29q75 -117 152 -182zM479 1356q-67 -6 -90.5 -51.5t-23.5 -157.5v-924q0 -112 23.5 -157.5t90.5 -51.5q41 -3 41 -14
q0 -12 -41 -12q-29 0 -88 6q-78 4 -90 4q-14 0 -92 -4q-59 -6 -86 -6q-41 0 -41 12q0 11 41 14q67 6 91 51.5t24 157.5v924q0 112 -24 157.5t-91 51.5q-41 3 -41 14q0 12 41 12q27 0 86 -6q78 -4 92 -4q12 0 90 4q59 6 88 6q41 0 41 -12q0 -11 -41 -14z" />
    <glyph glyph-name="Idieresis" unicode="&#xcf;" horiz-adv-x="610" 
d="M59 1630q0 37 22.5 62t55.5 30q35 2 56.5 -20t21.5 -60q0 -54 -39 -80t-78 -7t-39 75zM387 1630q0 37 22.5 62t55.5 30q35 2 56.5 -20t21.5 -60q0 -54 -39 -80t-78 -7t-39 75zM479 1356q-67 -6 -90.5 -51.5t-23.5 -157.5v-924q0 -112 23.5 -157.5t90.5 -51.5
q41 -3 41 -14q0 -12 -41 -12q-29 0 -88 6q-78 4 -90 4q-14 0 -92 -4q-59 -6 -86 -6q-41 0 -41 12q0 11 41 14q67 6 91 51.5t24 157.5v924q0 112 -24 157.5t-91 51.5q-41 3 -41 14q0 12 41 12q27 0 86 -6q78 -4 92 -4q12 0 90 4q59 6 88 6q41 0 41 -12q0 -11 -41 -14z" />
    <glyph glyph-name="Eth" unicode="&#xd0;" horiz-adv-x="1511" 
d="M676 1393q348 0 538 -193q191 -191 191 -518q0 -309 -193 -508q-191 -197 -536 -194q-97 3 -215 12q-104 8 -160 8q-14 0 -92 -4q-59 -6 -86 -6q-41 0 -41 12q0 11 41 14q67 6 91 51.5t24 157.5v449h-142q-18 0 -26.5 4t-6.5 12q3 12 31 12h144v445q0 112 -24 157.5
t-91 51.5q-41 3 -41 14q0 12 41 12q27 0 86 -6q78 -4 92 -4q26 0 156 10q147 11 219 11zM696 4q291 -3 424 176q137 180 137 471q0 316 -161 512q-165 201 -480 201q-137 0 -251 -18v-644h133q19 0 27.5 -3t6.5 -9q-6 -16 -30 -16h-137v-486q0 -104 74.5 -141.5t256.5 -42.5
z" />
    <glyph glyph-name="Ntilde" unicode="&#xd1;" horiz-adv-x="1585" 
d="M451 1538q-12 12 18 53q76 107 125 107q15 1 90.5 -8.5t145.5 -19.5l69 -9q51 -6 92 59q5 9 10 16t9 12t7.5 7.5t6 3t4.5 -1.5q10 -10 -12 -51q-70 -125 -135 -125q-43 0 -166 18q-127 19 -152 19h-5q-13 0 -19 -1.5t-17 -11.5t-28 -32q-34 -43 -43 -35zM1298 2
l-1003 1221l-4 6q-19 19 -19 8q-2 -6 -2 -53v-37l-2 -922q0 -112 24 -157.5t91 -51.5q41 -3 41 -14q0 -12 -41 -12q-10 0 -64.5 5t-78.5 5q-13 0 -72 -5t-86 -5q-41 0 -41 12q0 11 41 14q85 7 112 50.5t29 158.5l19 922q2 116 -21.5 159.5t-91.5 49.5q-41 3 -41 14
q0 12 41 12q27 0 86 -6q78 -4 88 -4h10q29 0 49 -26l926 -1110q12 -15 17 -18t6.5 2t1.5 24l-13 903q-2 112 -26.5 157.5t-91.5 51.5q-41 3 -41 14q0 12 41 12q10 0 64.5 -5t78.5 -5q13 0 72 5t86 5q41 0 41 -12q0 -11 -41 -14q-84 -7 -109.5 -49.5t-27.5 -159.5l-5 -1106
q0 -62 -15 -62q-9 -1 -28 23z" />
    <glyph glyph-name="Ograve" unicode="&#xd2;" horiz-adv-x="1636" 
d="M1010 1501q-2 -4 -37 17l-283 176q-88 52 29 90q62 18 108 -39l168 -205q24 -30 15 -39zM821 -20q-330 0 -524 200q-195 204 -195 502q0 309 205 508q206 203 514 203q338 0 525 -193q188 -194 188 -518q0 -298 -199 -500q-196 -202 -514 -202zM856 8q258 0 393 178
q137 177 137 447q0 310 -161 518q-160 213 -426 213q-260 0 -404 -184q-143 -180 -143 -457q0 -304 162 -508q165 -207 442 -207z" />
    <glyph glyph-name="Oacute" unicode="&#xd3;" horiz-adv-x="1636" 
d="M702 1501q-9 9 15 39l168 195q46 49 139 49q44 0 48 -21.5t-32 -44.5l-301 -200q-35 -21 -37 -17zM821 -20q-330 0 -524 200q-195 204 -195 502q0 309 205 508q206 203 514 203q338 0 525 -193q188 -194 188 -518q0 -298 -199 -500q-196 -202 -514 -202zM856 8
q258 0 393 178q137 177 137 447q0 310 -161 518q-160 213 -426 213q-260 0 -404 -184q-143 -180 -143 -457q0 -304 162 -508q165 -207 442 -207z" />
    <glyph glyph-name="Ocircumflex" unicode="&#xd4;" horiz-adv-x="1636" 
d="M768 1700q19 29 46.5 29t47.5 -29q75 -117 152 -182q38 -32 28 -45q-11 -18 -53 16q-148 115 -174 115q-41 0 -174 -115q-44 -33 -53 -16q-10 13 28 45q87 80 152 182zM821 -20q-330 0 -524 200q-195 204 -195 502q0 309 205 508q206 203 514 203q338 0 525 -193
q188 -194 188 -518q0 -298 -199 -500q-196 -202 -514 -202zM856 8q258 0 393 178q137 177 137 447q0 310 -161 518q-160 213 -426 213q-260 0 -404 -184q-143 -180 -143 -457q0 -304 162 -508q165 -207 442 -207z" />
    <glyph glyph-name="Otilde" unicode="&#xd5;" horiz-adv-x="1636" 
d="M543 1538q-12 12 18 53q76 107 125 107q15 1 90.5 -8.5t145.5 -19.5l69 -9q51 -6 92 59q5 9 10 16t9 12t7.5 7.5t6 3t4.5 -1.5q10 -10 -12 -51q-70 -125 -135 -125q-43 0 -166 18q-127 19 -152 19h-5q-13 0 -19 -1.5t-17 -11.5t-28 -32q-34 -43 -43 -35zM821 -20
q-330 0 -524 200q-195 204 -195 502q0 309 205 508q206 203 514 203q338 0 525 -193q188 -194 188 -518q0 -298 -199 -500q-196 -202 -514 -202zM856 8q258 0 393 178q137 177 137 447q0 310 -161 518q-160 213 -426 213q-260 0 -404 -184q-143 -180 -143 -457
q0 -304 162 -508q165 -207 442 -207z" />
    <glyph glyph-name="Odieresis" unicode="&#xd6;" horiz-adv-x="1636" 
d="M567 1630q0 37 22.5 62t55.5 30q35 2 56.5 -20t21.5 -60q0 -54 -39 -80t-78 -7t-39 75zM895 1630q0 37 22.5 62t55.5 30q35 2 56.5 -20t21.5 -60q0 -54 -39 -80t-78 -7t-39 75zM821 -20q-330 0 -524 200q-195 204 -195 502q0 309 205 508q206 203 514 203q338 0 525 -193
q188 -194 188 -518q0 -298 -199 -500q-196 -202 -514 -202zM856 8q258 0 393 178q137 177 137 447q0 310 -161 518q-160 213 -426 213q-260 0 -404 -184q-143 -180 -143 -457q0 -304 162 -508q165 -207 442 -207z" />
    <glyph glyph-name="multiply" unicode="&#xd7;" horiz-adv-x="1024" 
d="M879 969l-332 -330l330 -330q15 -15 17 -21t-7 -12q-18 -6 -35 11l-330 327l-329 -327q-17 -17 -35 -11q-9 6 -7 12t17 21l330 330l-332 330q-27 27 -8 35q16 6 35 -13l329 -329l330 329q19 19 35 13q19 -8 -8 -35z" />
    <glyph glyph-name="Oslash" unicode="&#xd8;" horiz-adv-x="1636" 
d="M1327 1348l-61 -80q268 -188 268 -586q0 -298 -199 -500q-196 -202 -514 -202q-261 0 -446 135l-80 -103q-9 -12 -27 -12q-12 0 2 25l82 106q-121 96 -185.5 239.5t-64.5 311.5q0 309 205 508q206 203 514 203q248 0 422 -109l60 76q9 12 26 12q12 0 -2 -24zM252 723
q0 -310 164 -510l766 989q-155 162 -383 162q-260 0 -404 -184q-143 -180 -143 -457zM1386 633q0 342 -186 549l-766 -989q164 -185 422 -185t393 178q137 177 137 447z" />
    <glyph glyph-name="Ugrave" unicode="&#xd9;" horiz-adv-x="1509" 
d="M940 1518l-283 176q-88 52 29 90q63 19 109 -39l168 -205q23 -30 14 -39q-2 -4 -37 17zM1395 1382q41 0 41 -12q0 -11 -41 -14q-84 -7 -110 -50t-28 -159q-6 -558 -24 -705q-27 -211 -123 -321q-126 -141 -330 -141q-509 0 -524 497q-6 225 -6 670q0 112 -24 157.5
t-91 51.5q-41 3 -41 14q0 12 41 12q27 0 86 -6q78 -4 92 -4q12 0 90 4q58 6 89 6q40 0 40 -12q0 -11 -40 -14q-67 -6 -91 -51.5t-24 -157.5q0 -427 6 -639q6 -223 106 -339t318 -116q114 0 185 30.5t126 109.5q71 100 86 301q14 191 8 653q-2 112 -26.5 157.5t-91.5 51.5
q-41 3 -41 14q0 12 41 12q10 0 64.5 -5t78.5 -5q13 0 72 5t86 5z" />
    <glyph glyph-name="Uacute" unicode="&#xda;" horiz-adv-x="1509" 
d="M1008 1718l-301 -200q-35 -21 -37 -17q-9 9 14 39l168 195q46 49 139 49q44 0 48.5 -21.5t-31.5 -44.5zM1395 1382q41 0 41 -12q0 -11 -41 -14q-84 -7 -110 -50t-28 -159q-6 -558 -24 -705q-27 -211 -123 -321q-126 -141 -330 -141q-509 0 -524 497q-6 225 -6 670
q0 112 -24 157.5t-91 51.5q-41 3 -41 14q0 12 41 12q27 0 86 -6q78 -4 92 -4q12 0 90 4q58 6 89 6q40 0 40 -12q0 -11 -40 -14q-67 -6 -91 -51.5t-24 -157.5q0 -427 6 -639q6 -223 106 -339t318 -116q114 0 185 30.5t126 109.5q71 100 86 301q14 191 8 653
q-2 112 -26.5 157.5t-91.5 51.5q-41 3 -41 14q0 12 41 12q10 0 64.5 -5t78.5 -5q13 0 72 5t86 5z" />
    <glyph glyph-name="Ucircumflex" unicode="&#xdb;" horiz-adv-x="1509" 
d="M608 1489q-44 -33 -53 -16q-9 12 29 45q84 78 151 182q19 29 46.5 29t47.5 -29q75 -117 152 -182q38 -33 29 -45q-11 -18 -54 16q-148 115 -174 115q-41 0 -174 -115zM1395 1382q41 0 41 -12q0 -11 -41 -14q-84 -7 -110 -50t-28 -159q-6 -558 -24 -705
q-27 -211 -123 -321q-126 -141 -330 -141q-509 0 -524 497q-6 225 -6 670q0 112 -24 157.5t-91 51.5q-41 3 -41 14q0 12 41 12q27 0 86 -6q78 -4 92 -4q12 0 90 4q58 6 89 6q40 0 40 -12q0 -11 -40 -14q-67 -6 -91 -51.5t-24 -157.5q0 -427 6 -639q6 -223 106 -339t318 -116
q114 0 185 30.5t126 109.5q71 100 86 301q14 191 8 653q-2 112 -26.5 157.5t-91.5 51.5q-41 3 -41 14q0 12 41 12q10 0 64.5 -5t78.5 -5q13 0 72 5t86 5z" />
    <glyph glyph-name="Udieresis" unicode="&#xdc;" horiz-adv-x="1509" 
d="M535 1630q0 37 22 62t55 30q35 2 56.5 -20t21.5 -60q0 -54 -39 -80t-77.5 -7t-38.5 75zM862 1630q0 37 22.5 62t55.5 30q35 2 56.5 -20t21.5 -60q0 -54 -39 -80t-78 -7t-39 75zM1395 1382q41 0 41 -12q0 -11 -41 -14q-84 -7 -110 -50t-28 -159q-6 -558 -24 -705
q-27 -211 -123 -321q-126 -141 -330 -141q-509 0 -524 497q-6 225 -6 670q0 112 -24 157.5t-91 51.5q-41 3 -41 14q0 12 41 12q27 0 86 -6q78 -4 92 -4q12 0 90 4q58 6 89 6q40 0 40 -12q0 -11 -40 -14q-67 -6 -91 -51.5t-24 -157.5q0 -427 6 -639q6 -223 106 -339t318 -116
q114 0 185 30.5t126 109.5q71 100 86 301q14 191 8 653q-2 112 -26.5 157.5t-91.5 51.5q-41 3 -41 14q0 12 41 12q10 0 64.5 -5t78.5 -5q13 0 72 5t86 5z" />
    <glyph glyph-name="Yacute" unicode="&#xdd;" horiz-adv-x="1392" 
d="M963 1718l-301 -200q-35 -21 -37 -17q-9 9 14 39l168 195q46 49 139 49q44 0 48.5 -21.5t-31.5 -44.5zM1309 1382q41 0 41 -12q0 -11 -39 -14q-55 -4 -101.5 -42.5t-95.5 -113.5l-362 -559v-418q0 -112 23.5 -157.5t90.5 -51.5q41 -3 41 -14q0 -12 -41 -12q-32 0 -90 6
q-78 4 -88 4q-14 0 -92 -4q-58 -6 -86 -6q-41 0 -41 12q0 11 41 14q67 6 91 51.5t24 157.5v400l-346 557q-103 157 -197 172q-39 6 -39 14q0 12 41 12q8 0 21 -0.5t37.5 -1.5t43.5 -2q51 -2 103 -2q16 0 102 4q64 6 94 6q41 0 41 -12q0 -11 -41 -14q-69 -5 -85.5 -49
t30.5 -129l309 -504l-8 -12l336 544q44 69 26 106.5t-102 43.5q-41 3 -41 14q0 12 41 12q19 0 83 -5t83 -5q16 0 75 5t77 5z" />
    <glyph glyph-name="Thorn" unicode="&#xde;" horiz-adv-x="1083" 
d="M573 1077q205 0 320 -106q119 -107 119 -264q0 -182 -123 -291t-342 -109q-47 0 -182 23v-107q0 -112 23.5 -157.5t90.5 -51.5q41 -3 41 -14q0 -12 -41 -12q-29 0 -88 6q-78 4 -90 4q-14 0 -92 -4q-59 -6 -86 -6q-41 0 -41 12q0 11 41 14q67 6 91 51.5t24 157.5v924
q0 112 -24 157.5t-91 51.5q-41 3 -41 14q0 12 41 12q27 0 86 -6q78 -4 92 -4q12 0 90 4q59 6 88 6q41 0 41 -12q0 -11 -41 -14q-67 -6 -90.5 -51.5t-23.5 -157.5v-90q97 20 208 20zM487 348q188 0 287.5 92.5t99.5 261.5q0 334 -368 334q-63 0 -141 -10v-668q78 -10 122 -10
z" />
    <glyph glyph-name="germandbls" unicode="&#xdf;" horiz-adv-x="1128" 
d="M743 588l23 -10q148 -62 225.5 -134t77.5 -172q0 -137 -90.5 -214.5t-239.5 -77.5q-78 0 -144.5 20.5t-104 50t-57 58.5t-15.5 49q0 34 21 52.5t55 18.5q66 0 112 -82q76 -134 185 -137q81 0 136.5 49.5t55.5 133.5q0 87 -69 149t-207 121q-258 105 -258 246
q7 52 17 78.5t42 58.5q29 29 35 33q14 14 47 36q30 20 43 33q80 60 117.5 116.5t37.5 133.5q0 22 -4 45t-18.5 52t-37 50.5t-63 36.5t-94.5 15q-87 0 -137 -41q-35 -35 -51 -77t-21 -108l-6 -71v-76q2 -35 2 -59v-947q0 -20 -20 -20q-3 0 -25 1t-30 1h-4q-4 0 -78 -4
q-53 -6 -84 -6q-41 0 -41 12q0 11 41 14q67 6 90.5 51.5t23.5 157.5v619h-120q-21 0 -21 14q0 11 19 14l122 19v72q0 262 154 383q113 88 256 88q136 0 195 -68t59 -137q0 -92 -68 -160q-35 -38 -65 -61l-37 -27l-39 -27q-23 -18 -35 -24q-67 -46 -95 -80.5t-28 -81.5
q0 -34 31 -70q28 -28 64 -49t120 -61z" />
    <glyph glyph-name="agrave" unicode="&#xe0;" horiz-adv-x="1005" 
d="M651 1174q-3 -5 -37 16l-196 149q-22 12 -15.5 30.5t41.5 25.5q31 7 48.5 -2t46.5 -47l98 -134q20 -29 14 -38zM297 -20q-94 0 -149 45.5t-56 128.5q-8 62 34.5 115.5t115.5 90.5q44 26 120 52q118 39 148 47q58 19 180 51v217q0 148 -70 213t-176 33q-67 -20 -104 -65
t-37 -103q0 -62 -28.5 -97.5t-77.5 -35.5q-76 0 -76 73q0 93 182 195q73 41 162 66q65 18 108 18q111 0 175.5 -77.5t64.5 -235.5v-537q2 -45 24.5 -54.5t116.5 1.5q29 6 29 -4q-3 -12 -25 -21q-122 -42 -210 -108q-8 -8 -21 -8q-14 0 -20 22q-21 73 -21 172q0 28 2 59
q-73 -117 -176.5 -185t-214.5 -68zM360 63q118 0 222 84q103 81 106 172l2 166q-280 -75 -373 -135t-96 -151q0 -136 139 -136z" />
    <glyph glyph-name="aacute" unicode="&#xe1;" horiz-adv-x="1005" 
d="M375 1114q-9 9 14 39l146 174q46 49 110 49q44 0 48.5 -22t-31.5 -45l-250 -179q-34 -21 -37 -16zM297 -20q-94 0 -149 45.5t-56 128.5q-8 62 34.5 115.5t115.5 90.5q44 26 120 52q118 39 148 47q58 19 180 51v217q0 148 -70 213t-176 33q-67 -20 -104 -65t-37 -103
q0 -62 -28.5 -97.5t-77.5 -35.5q-76 0 -76 73q0 93 182 195q73 41 162 66q65 18 108 18q111 0 175.5 -77.5t64.5 -235.5v-537q2 -45 24.5 -54.5t116.5 1.5q29 6 29 -4q-3 -12 -25 -21q-122 -42 -210 -108q-8 -8 -21 -8q-14 0 -20 22q-21 73 -21 172q0 28 2 59
q-73 -117 -176.5 -185t-214.5 -68zM360 63q118 0 222 84q103 81 106 172l2 166q-280 -75 -373 -135t-96 -151q0 -136 139 -136z" />
    <glyph glyph-name="acircumflex" unicode="&#xe2;" horiz-adv-x="1005" 
d="M446 1382q17 30 47.5 30t47.5 -30q62 -121 135 -194q34 -34 24 -47q-11 -14 -51 20q-5 5 -20 19t-24.5 23.5t-25 23.5t-26.5 23t-23 18.5t-21 13.5t-15 4q-31 0 -156 -125q-40 -37 -51 -20q-10 13 24 47q79 86 135 194zM297 -20q-94 0 -149 45.5t-56 128.5
q-8 62 34.5 115.5t115.5 90.5q44 26 120 52q118 39 148 47q58 19 180 51v217q0 148 -70 213t-176 33q-67 -20 -104 -65t-37 -103q0 -62 -28.5 -97.5t-77.5 -35.5q-76 0 -76 73q0 93 182 195q73 41 162 66q65 18 108 18q111 0 175.5 -77.5t64.5 -235.5v-537q2 -45 24.5 -54.5
t116.5 1.5q29 6 29 -4q-3 -12 -25 -21q-122 -42 -210 -108q-8 -8 -21 -8q-14 0 -20 22q-21 73 -21 172q0 28 2 59q-73 -117 -176.5 -185t-214.5 -68zM360 63q118 0 222 84q103 81 106 172l2 166q-280 -75 -373 -135t-96 -151q0 -136 139 -136z" />
    <glyph glyph-name="atilde" unicode="&#xe3;" horiz-adv-x="1005" 
d="M246 1169q-13 13 18 54q75 106 125 106q15 0 79.5 -9.5t123.5 -18.5t61 -9q51 -6 92 60q12 21 22.5 31t14.5 6q10 -10 -12 -52q-70 -125 -135 -125q-24 0 -103 11l-36 6q-98 20 -138 20h-5q-13 0 -19 -1.5t-17 -11.5t-28 -32q-35 -44 -43 -35zM297 -20q-94 0 -149 45.5
t-56 128.5q-8 62 34.5 115.5t115.5 90.5q44 26 120 52q118 39 148 47q58 19 180 51v217q0 148 -70 213t-176 33q-67 -20 -104 -65t-37 -103q0 -62 -28.5 -97.5t-77.5 -35.5q-76 0 -76 73q0 93 182 195q73 41 162 66q65 18 108 18q111 0 175.5 -77.5t64.5 -235.5v-537
q2 -45 24.5 -54.5t116.5 1.5q29 6 29 -4q-3 -12 -25 -21q-122 -42 -210 -108q-8 -8 -21 -8q-14 0 -20 22q-21 73 -21 172q0 28 2 59q-73 -117 -176.5 -185t-214.5 -68zM360 63q118 0 222 84q103 81 106 172l2 166q-280 -75 -373 -135t-96 -151q0 -136 139 -136z" />
    <glyph glyph-name="adieresis" unicode="&#xe4;" horiz-adv-x="1005" 
d="M250 1262q0 37 22.5 62t55.5 30q35 2 56.5 -20t21.5 -60q0 -54 -39 -80t-78 -7t-39 75zM578 1262q0 37 22 62t55 30q35 2 56.5 -20t21.5 -60q0 -54 -38.5 -80t-77.5 -7t-39 75zM297 -20q-94 0 -149 45.5t-56 128.5q-8 62 34.5 115.5t115.5 90.5q44 26 120 52
q118 39 148 47q58 19 180 51v217q0 148 -70 213t-176 33q-67 -20 -104 -65t-37 -103q0 -62 -28.5 -97.5t-77.5 -35.5q-76 0 -76 73q0 93 182 195q73 41 162 66q65 18 108 18q111 0 175.5 -77.5t64.5 -235.5v-537q2 -45 24.5 -54.5t116.5 1.5q29 6 29 -4q-3 -12 -25 -21
q-122 -42 -210 -108q-8 -8 -21 -8q-14 0 -20 22q-21 73 -21 172q0 28 2 59q-73 -117 -176.5 -185t-214.5 -68zM360 63q118 0 222 84q103 81 106 172l2 166q-280 -75 -373 -135t-96 -151q0 -136 139 -136z" />
    <glyph glyph-name="aring" unicode="&#xe5;" horiz-adv-x="1005" 
d="M485 1081q-84 0 -137 48.5t-53 123.5q0 70 61 125q64 58 142 58q82 0 134.5 -48.5t51.5 -121.5q3 -70 -59 -129q-62 -56 -140 -56zM498 1108q55 0 89 39.5t36 105.5q3 58 -43 107q-43 49 -93 49q-60 0 -95 -39.5t-34 -105.5q0 -61 43 -108.5t97 -47.5zM297 -20
q-94 0 -149 45.5t-56 128.5q-8 62 34.5 115.5t115.5 90.5q44 26 120 52q118 39 148 47q58 19 180 51v217q0 148 -70 213t-176 33q-67 -20 -104 -65t-37 -103q0 -62 -28.5 -97.5t-77.5 -35.5q-76 0 -76 73q0 93 182 195q73 41 162 66q65 18 108 18q111 0 175.5 -77.5
t64.5 -235.5v-537q2 -45 24.5 -54.5t116.5 1.5q29 6 29 -4q-3 -12 -25 -21q-122 -42 -210 -108q-8 -8 -21 -8q-14 0 -20 22q-21 73 -21 172q0 28 2 59q-73 -117 -176.5 -185t-214.5 -68zM360 63q118 0 222 84q103 81 106 172l2 166q-280 -75 -373 -135t-96 -151
q0 -136 139 -136z" />
    <glyph glyph-name="ae" unicode="&#xe6;" horiz-adv-x="1622" 
d="M1536 285q10 -7 -4 -33q-68 -131 -180.5 -201.5t-245.5 -70.5q-132 0 -227.5 85t-137.5 234q-48 -158 -153 -238q-106 -81 -221 -81q-125 0 -199.5 56t-75.5 157q1 98 63 160.5t177 101.5q90 32 135 41q56 14 139 30q78 15 109 25v176q0 151 -69 214t-193 36
q-87 -19 -115 -57q-11 -9 -16 -26.5t-4.5 -30t3.5 -34t3 -24.5q0 -62 -29 -97.5t-78 -35.5q-76 0 -76 73q0 52 49 107t127 98t162 60q289 61 344 -168q147 182 398 182q121 0 200.5 -75.5t91.5 -217.5q3 -34 -38 -43l-625 -123v-14q0 -226 87.5 -345.5t248.5 -119.5
q92 0 181 46t142 130q15 26 27 23zM1155 993q-146 0 -222.5 -106.5t-82.5 -300.5l457 102q57 12 72 34.5t3 76.5q-20 89 -81 141.5t-146 52.5zM416 63q118 0 207 80q87 78 90 199l2 182l-82 -18q-76 -18 -92 -23l-86 -26q-51 -17 -78 -33.5t-68 -50.5q-63 -51 -63 -142
q-2 -77 42 -122.5t128 -45.5z" />
    <glyph glyph-name="ccedilla" unicode="&#xe7;" horiz-adv-x="1046" 
d="M952 199q12 -9 -6 -35q-58 -78 -152.5 -129t-203.5 -55l-82 -84q58 -25 83 -64.5t16.5 -78.5t-34 -74t-67.5 -56.5t-84 -19.5q-67 0 -100 26q-27 21 -10.5 45.5t46.5 6.5q56 -41 113 -41q29 0 50.5 19.5t21.5 57.5q0 56 -66 97q-8 4 -22 9.5t-24 8.5t-11 4q-9 9 18 39
l101 105q-198 15 -330 159q-131 146 -131 365q0 233 141 377q140 143 371 143q97 0 172 -20t112 -52q68 -59 68 -106q0 -34 -21.5 -53t-54.5 -19q-66 0 -112 82q-39 74 -87 106.5t-128 32.5q-142 0 -234 -121t-92 -323q0 -224 117 -356q120 -129 301 -129q178 0 291 110
q25 25 30 23z" />
    <glyph glyph-name="egrave" unicode="&#xe8;" horiz-adv-x="1030" 
d="M711 1190l-197 149q-22 12 -15 30.5t42 25.5q31 7 48 -1.5t46 -47.5l98 -134q21 -30 15 -38q-2 -5 -37 16zM942 199q12 -9 -6 -35q-132 -184 -375 -184q-201 0 -338 149t-137 375q0 231 141 375q145 145 363 145q159 0 253.5 -87t94.5 -224q0 -41 -41 -41h-666
q-10 -72 -10 -121q0 -224 111 -356q114 -129 289 -129q180 0 290 110q27 27 31 23zM547 997q-122 0 -203 -81t-108 -220l505 29q43 1 53.5 14.5t4.5 51.5q-18 95 -82 150.5t-170 55.5z" />
    <glyph glyph-name="eacute" unicode="&#xe9;" horiz-adv-x="1030" 
d="M758 1309l-250 -179q-34 -21 -37 -16q-9 9 14 39l146 174q46 49 110 49q44 0 48.5 -22t-31.5 -45zM942 199q12 -9 -6 -35q-132 -184 -375 -184q-201 0 -338 149t-137 375q0 231 141 375q145 145 363 145q159 0 253.5 -87t94.5 -224q0 -41 -41 -41h-666q-10 -72 -10 -121
q0 -224 111 -356q114 -129 289 -129q180 0 290 110q27 27 31 23zM547 997q-122 0 -203 -81t-108 -220l505 29q43 1 53.5 14.5t4.5 51.5q-18 95 -82 150.5t-170 55.5z" />
    <glyph glyph-name="ecircumflex" unicode="&#xea;" horiz-adv-x="1030" 
d="M434 1161q-40 -37 -51 -20q-9 13 25 47q79 86 135 194q17 30 47 30t47 -30q62 -121 135 -194q34 -34 25 -47q-12 -14 -52 20q-5 5 -20 19t-24.5 23.5t-25 23.5t-26.5 23t-23 18.5t-21 13.5t-15 4q-31 0 -156 -125zM942 199q12 -9 -6 -35q-132 -184 -375 -184
q-201 0 -338 149t-137 375q0 231 141 375q145 145 363 145q159 0 253.5 -87t94.5 -224q0 -41 -41 -41h-666q-10 -72 -10 -121q0 -224 111 -356q114 -129 289 -129q180 0 290 110q27 27 31 23zM547 997q-122 0 -203 -81t-108 -220l505 29q43 1 53.5 14.5t4.5 51.5
q-18 95 -82 150.5t-170 55.5z" />
    <glyph glyph-name="edieresis" unicode="&#xeb;" horiz-adv-x="1030" 
d="M346 1262q0 37 22.5 62t55.5 30q35 2 56.5 -20t21.5 -60q0 -54 -39 -80t-78 -7t-39 75zM674 1262q0 37 22.5 62t55.5 30q35 2 56 -20t21 -60q0 -54 -38.5 -80t-77.5 -7t-39 75zM942 199q12 -9 -6 -35q-132 -184 -375 -184q-201 0 -338 149t-137 375q0 231 141 375
q145 145 363 145q159 0 253.5 -87t94.5 -224q0 -41 -41 -41h-666q-10 -72 -10 -121q0 -224 111 -356q114 -129 289 -129q180 0 290 110q27 27 31 23zM547 997q-122 0 -203 -81t-108 -220l505 29q43 1 53.5 14.5t4.5 51.5q-18 95 -82 150.5t-170 55.5z" />
    <glyph glyph-name="igrave" unicode="&#xec;" horiz-adv-x="575" 
d="M401 1190l-196 149q-22 12 -15.5 30.5t41.5 25.5q31 7 48.5 -2t46.5 -47l98 -134q20 -29 14 -38q-2 -5 -37 16zM473 16q41 -3 41 -14q0 -12 -41 -12q-32 0 -90 6q-78 4 -88 4q-14 0 -92 -4q-59 -6 -86 -6q-41 0 -41 12q0 11 41 14q67 6 90.5 51.5t23.5 157.5v582
q0 57 -19 67.5t-110 -6.5q-27 -6 -30 2q-7 14 18 23q156 64 229 115q29 16 31 16q8 0 8 -41v-758q0 -112 24 -157.5t91 -51.5z" />
    <glyph glyph-name="iacute" unicode="&#xed;" horiz-adv-x="575" 
d="M449 1309l-250 -179q-35 -21 -37 -16q-9 9 14 39l146 174q46 49 110 49q44 0 48.5 -22t-31.5 -45zM473 16q41 -3 41 -14q0 -12 -41 -12q-32 0 -90 6q-78 4 -88 4q-14 0 -92 -4q-59 -6 -86 -6q-41 0 -41 12q0 11 41 14q67 6 90.5 51.5t23.5 157.5v582q0 57 -19 67.5
t-110 -6.5q-27 -6 -30 2q-7 14 18 23q156 64 229 115q29 16 31 16q8 0 8 -41v-758q0 -112 24 -157.5t91 -51.5z" />
    <glyph glyph-name="icircumflex" unicode="&#xee;" horiz-adv-x="575" 
d="M125 1161q-41 -37 -51 -20q-10 13 24 47q79 86 135 194q17 30 47.5 30t47.5 -30q62 -121 135 -194q34 -34 24 -47q-11 -14 -51 20q-5 5 -20 19t-24.5 23.5t-25 23.5t-26.5 23t-23 18.5t-21 13.5t-15 4q-31 0 -156 -125zM473 16q41 -3 41 -14q0 -12 -41 -12q-32 0 -90 6
q-78 4 -88 4q-14 0 -92 -4q-59 -6 -86 -6q-41 0 -41 12q0 11 41 14q67 6 90.5 51.5t23.5 157.5v582q0 57 -19 67.5t-110 -6.5q-27 -6 -30 2q-7 14 18 23q156 64 229 115q29 16 31 16q8 0 8 -41v-758q0 -112 24 -157.5t91 -51.5z" />
    <glyph glyph-name="idieresis" unicode="&#xef;" horiz-adv-x="575" 
d="M37 1262q0 37 22.5 62t55.5 30q35 2 56.5 -20t21.5 -60q0 -54 -39 -80t-78 -7t-39 75zM365 1262q0 37 22 62t55 30q35 2 56.5 -20t21.5 -60q0 -54 -38.5 -80t-77.5 -7t-39 75zM473 16q41 -3 41 -14q0 -12 -41 -12q-32 0 -90 6q-78 4 -88 4q-14 0 -92 -4q-59 -6 -86 -6
q-41 0 -41 12q0 11 41 14q67 6 90.5 51.5t23.5 157.5v582q0 57 -19 67.5t-110 -6.5q-27 -6 -30 2q-7 14 18 23q156 64 229 115q29 16 31 16q8 0 8 -41v-758q0 -112 24 -157.5t91 -51.5z" />
    <glyph glyph-name="eth" unicode="&#xf0;" horiz-adv-x="1165" 
d="M897 1372l-135 -78q301 -225 301 -690q0 -455 -299 -590q-75 -34 -186 -34q-238 0 -369 143t-131 391q0 224 143 367t369 143q184 0 311 -121q-53 236 -186 363l-115 -66q-25 -15 -33 -4q-7 11 21 27l106 61q-85 73 -215 115q-13 4 -19.5 9.5t-4.5 10.5q3 10 32 4
q144 -42 252 -112l146 84q27 15 33 4q7 -11 -21 -27zM723 29q209 86 209 528q0 60 -2 76q-27 161 -139 262q-109 100 -246 100q-34 0 -86 -10q-119 -29 -186.5 -133.5t-67.5 -263.5q0 -68 12 -144q35 -199 146 -316.5t266 -117.5q45 0 94 19z" />
    <glyph glyph-name="ntilde" unicode="&#xf1;" horiz-adv-x="1214" 
d="M432 1204q-34 -44 -43 -35q-12 12 19 54q75 106 124 106q15 0 80 -9.5t124 -18.5t61 -9q51 -6 92 60q12 21 22.5 31t14.5 6q9 -9 -13 -52q-70 -125 -135 -125q-23 0 -102 11l-37 6q-98 20 -137 20h-5q-13 0 -19.5 -1.5t-17.5 -11.5t-28 -32zM1108 16q41 -3 41 -14
q0 -12 -41 -12q-16 0 -72 6q-70 4 -84 4q-26 0 -86 -5t-69 -5q-41 0 -41 12q0 11 41 14q53 4 73.5 48t20.5 141v428q0 338 -236 338q-101 0 -190 -68q-86 -68 -107 -168v-510q0 -112 24 -157.5t91 -51.5q41 -3 41 -14q0 -12 -41 -12q-32 0 -90 6q-78 4 -88 4q-14 0 -92 -4
q-59 -6 -86 -6q-41 0 -41 12q0 11 41 14q67 6 90.5 51.5t23.5 157.5v582q0 56 -18 65q-17 11 -111 -4q-27 -6 -30 2q-7 10 22 23q97 40 182 100q45 31 46 31q36 0 36 -195v-2q62 90 157.5 143.5t205.5 53.5q150 0 221.5 -86.5t71.5 -239.5v-493q0 -97 20.5 -141t73.5 -48z
" />
    <glyph glyph-name="ograve" unicode="&#xf2;" horiz-adv-x="1187" 
d="M748 1174q-2 -5 -37 16l-197 149q-22 12 -15 30.5t42 25.5q31 7 48 -1.5t46 -47.5l98 -134q21 -30 15 -38zM586 -20q-219 0 -363 141q-145 142 -145 368q0 232 151 383q155 152 377 152q223 0 363 -143q141 -141 141 -369q0 -233 -147 -383q-143 -149 -377 -149zM623 8
q169 0 260.5 114t91.5 318q0 231 -103 396q-102 163 -292 163q-164 0 -265 -125q-100 -121 -100 -327q0 -221 109 -381q112 -158 299 -158z" />
    <glyph glyph-name="oacute" unicode="&#xf3;" horiz-adv-x="1187" 
d="M471 1114q-9 9 14 39l146 174q46 49 110 49q44 0 48.5 -22t-31.5 -45l-250 -179q-34 -21 -37 -16zM586 -20q-219 0 -363 141q-145 142 -145 368q0 232 151 383q155 152 377 152q223 0 363 -143q141 -141 141 -369q0 -233 -147 -383q-143 -149 -377 -149zM623 8
q169 0 260.5 114t91.5 318q0 231 -103 396q-102 163 -292 163q-164 0 -265 -125q-100 -121 -100 -327q0 -221 109 -381q112 -158 299 -158z" />
    <glyph glyph-name="ocircumflex" unicode="&#xf4;" horiz-adv-x="1187" 
d="M543 1382q17 30 47 30t47 -30q62 -121 135 -194q34 -34 25 -47q-12 -14 -52 20q-5 5 -20 19t-24.5 23.5t-25 23.5t-26.5 23t-23 18.5t-21 13.5t-15 4q-31 0 -156 -125q-40 -37 -51 -20q-9 13 25 47q79 86 135 194zM586 -20q-219 0 -363 141q-145 142 -145 368
q0 232 151 383q155 152 377 152q223 0 363 -143q141 -141 141 -369q0 -233 -147 -383q-143 -149 -377 -149zM623 8q169 0 260.5 114t91.5 318q0 231 -103 396q-102 163 -292 163q-164 0 -265 -125q-100 -121 -100 -327q0 -221 109 -381q112 -158 299 -158z" />
    <glyph glyph-name="otilde" unicode="&#xf5;" horiz-adv-x="1187" 
d="M342 1169q-13 13 18 54q75 106 125 106q15 0 80 -9.5t124 -18.5t61 -9q51 -6 92 60q12 21 22.5 31t14.5 6q9 -9 -13 -52q-70 -125 -135 -125q-19 0 -102 11l-37 6q-98 20 -137 20h-5q-13 0 -19.5 -1.5t-17.5 -11.5t-28 -32q-35 -44 -43 -35zM586 -20q-219 0 -363 141
q-145 142 -145 368q0 232 151 383q155 152 377 152q223 0 363 -143q141 -141 141 -369q0 -233 -147 -383q-143 -149 -377 -149zM623 8q169 0 260.5 114t91.5 318q0 231 -103 396q-102 163 -292 163q-164 0 -265 -125q-100 -121 -100 -327q0 -221 109 -381q112 -158 299 -158
z" />
    <glyph glyph-name="odieresis" unicode="&#xf6;" horiz-adv-x="1187" 
d="M346 1262q0 37 22.5 62t55.5 30q35 2 56.5 -20t21.5 -60q0 -54 -39 -80t-78 -7t-39 75zM674 1262q0 37 22.5 62t55.5 30q35 2 56 -20t21 -60q0 -54 -38.5 -80t-77.5 -7t-39 75zM586 -20q-219 0 -363 141q-145 142 -145 368q0 232 151 383q155 152 377 152q223 0 363 -143
q141 -141 141 -369q0 -233 -147 -383q-143 -149 -377 -149zM623 8q169 0 260.5 114t91.5 318q0 231 -103 396q-102 163 -292 163q-164 0 -265 -125q-100 -121 -100 -327q0 -221 109 -381q112 -158 299 -158z" />
    <glyph glyph-name="divide" unicode="&#xf7;" horiz-adv-x="1024" 
d="M440 1073q0 75 70 84q31 2 51.5 -17.5t20.5 -54.5q0 -48 -35.5 -72.5t-71 -7.5t-35.5 68zM924 662h-809q-20 0 -28 4.5t-3 13.5q6 16 33 16h809q20 0 27 -3t3 -13q-6 -18 -32 -18zM440 291q0 75 70 84q31 2 51.5 -17.5t20.5 -54.5q0 -48 -35.5 -72.5t-71 -7.5t-35.5 68z
" />
    <glyph glyph-name="oslash" unicode="&#xf8;" horiz-adv-x="1187" 
d="M1020 1040l-94 -120q184 -144 184 -408q0 -233 -147 -383q-143 -149 -377 -149q-175 0 -312 96l-88 -115q-9 -12 -26 -12q-12 0 2 24l92 119q-176 144 -176 397q0 232 151 383q155 152 377 152q174 0 299 -88l90 117q9 12 27 12q12 0 -2 -25zM215 547q0 -221 102 -371
l535 690q-109 133 -272 133q-164 0 -265 -125q-100 -121 -100 -327zM623 8q169 0 260.5 114t91.5 318q0 249 -107 404l-534 -690q116 -146 289 -146z" />
    <glyph glyph-name="ugrave" unicode="&#xf9;" horiz-adv-x="1261" 
d="M698 1190l-196 149q-22 12 -15.5 30.5t41.5 25.5q31 7 48.5 -2t46.5 -47l98 -134q20 -29 14 -38q-3 -5 -37 16zM1159 129q29 6 29 -4q-3 -12 -25 -21q-96 -35 -211 -116q-8 -8 -20 -8q-15 0 -21 22q-20 70 -20 180v13q-62 -97 -158.5 -156t-208.5 -59q-150 0 -221.5 86
t-71.5 239v502q0 56 -18 65q-17 11 -111 -4q-27 -6 -30 2q-7 14 18 23q140 53 229 115q29 16 35 16q9 0 6 -41q-5 -56 -8 -180v-244q2 -92 2 -207q-3 -319 236 -319q88 0 172.5 58t128.5 149v567q0 55 -19 65q-17 11 -110 -4q-28 -6 -31 2q-7 13 19 23q140 53 229 115
q29 16 35 16q9 0 6 -41q-8 -96 -8 -365q0 -258 6 -436q2 -45 24.5 -54.5t116.5 1.5z" />
    <glyph glyph-name="uacute" unicode="&#xfa;" horiz-adv-x="1261" 
d="M745 1309l-249 -179q-34 -21 -37 -16q-9 9 14 39l145 174q46 49 111 49q44 0 48 -22t-32 -45zM1159 129q29 6 29 -4q-3 -12 -25 -21q-96 -35 -211 -116q-8 -8 -20 -8q-15 0 -21 22q-20 70 -20 180v13q-62 -97 -158.5 -156t-208.5 -59q-150 0 -221.5 86t-71.5 239v502
q0 56 -18 65q-17 11 -111 -4q-27 -6 -30 2q-7 14 18 23q140 53 229 115q29 16 35 16q9 0 6 -41q-5 -56 -8 -180v-244q2 -92 2 -207q-3 -319 236 -319q88 0 172.5 58t128.5 149v567q0 55 -19 65q-17 11 -110 -4q-28 -6 -31 2q-7 13 19 23q140 53 229 115q29 16 35 16
q9 0 6 -41q-8 -96 -8 -365q0 -258 6 -436q2 -45 24.5 -54.5t116.5 1.5z" />
    <glyph glyph-name="ucircumflex" unicode="&#xfb;" horiz-adv-x="1261" 
d="M422 1161q-40 -37 -51 -20q-10 13 24 47q79 86 135 194q17 30 47.5 30t47.5 -30q62 -121 135 -194q34 -34 24 -47q-11 -14 -51 20q-5 5 -20 19t-24.5 23.5t-25 23.5t-26.5 23t-23 18.5t-21 13.5t-15 4q-31 0 -156 -125zM1159 129q29 6 29 -4q-3 -12 -25 -21
q-96 -35 -211 -116q-8 -8 -20 -8q-15 0 -21 22q-20 70 -20 180v13q-62 -97 -158.5 -156t-208.5 -59q-150 0 -221.5 86t-71.5 239v502q0 56 -18 65q-17 11 -111 -4q-27 -6 -30 2q-7 14 18 23q140 53 229 115q29 16 35 16q9 0 6 -41q-5 -56 -8 -180v-244q2 -92 2 -207
q-3 -319 236 -319q88 0 172.5 58t128.5 149v567q0 55 -19 65q-17 11 -110 -4q-28 -6 -31 2q-7 13 19 23q140 53 229 115q29 16 35 16q9 0 6 -41q-8 -96 -8 -365q0 -258 6 -436q2 -45 24.5 -54.5t116.5 1.5z" />
    <glyph glyph-name="udieresis" unicode="&#xfc;" horiz-adv-x="1261" 
d="M334 1262q0 37 22.5 62t55.5 30q35 2 56 -20t21 -60q0 -54 -38.5 -80t-77.5 -7t-39 75zM662 1262q0 37 22 62t55 30q35 2 56.5 -20t21.5 -60q0 -54 -38.5 -80t-77.5 -7t-39 75zM1159 129q29 6 29 -4q-3 -12 -25 -21q-96 -35 -211 -116q-8 -8 -20 -8q-15 0 -21 22
q-20 70 -20 180v13q-62 -97 -158.5 -156t-208.5 -59q-150 0 -221.5 86t-71.5 239v502q0 56 -18 65q-17 11 -111 -4q-27 -6 -30 2q-7 14 18 23q140 53 229 115q29 16 35 16q9 0 6 -41q-5 -56 -8 -180v-244q2 -92 2 -207q-3 -319 236 -319q88 0 172.5 58t128.5 149v567
q0 55 -19 65q-17 11 -110 -4q-28 -6 -31 2q-7 13 19 23q140 53 229 115q29 16 35 16q9 0 6 -41q-8 -96 -8 -365q0 -258 6 -436q2 -45 24.5 -54.5t116.5 1.5z" />
    <glyph glyph-name="yacute" unicode="&#xfd;" horiz-adv-x="1107" 
d="M756 1309l-250 -179q-34 -21 -37 -16q-9 9 14 39l146 174q46 49 110 49q44 0 48.5 -22t-31.5 -45zM782 1004h281q19 0 27 -6t0 -12.5t-27 -6.5q-61 -4 -92 -27.5t-56 -81.5l-354 -866q-133 -298 -229 -407q-95 -109 -217 -109q-62 0 -100 28.5t-38 71.5q0 38 23.5 62
t60.5 24q38 0 78 -63q40 -64 82 -64q100 0 309 455l-348 850q-28 65 -56 92t-81 33q-19 1 -27 7.5t0 13t27 6.5h363q30 0 30 -13q0 -8 -30 -14q-78 -17 -97.5 -41.5t4.5 -73.5l279 -710l268 704q18 63 1.5 87t-81.5 36q-30 6 -30 12q0 13 30 13z" />
    <glyph glyph-name="thorn" unicode="&#xfe;" horiz-adv-x="1171" 
d="M676 1024q198 0 313 -139t115 -355q0 -245 -148 -399q-145 -151 -364 -151q-161 0 -273 77v-221q0 -112 24 -157.5t91 -51.5q41 -3 41 -14q0 -12 -41 -12q-20 0 -89 5t-89 5q-14 0 -92 -4q-59 -6 -86 -6q-41 0 -41 12q0 11 41 14q67 6 91 51.5t24 157.5v1381
q0 89 -70 110q-17 5 -23 10.5t0 11t23 9.5q105 21 158 59q3 2 6.5 3.5t5.5 3t4.5 3t4.5 2.5t3.5 2t2.5 1.5t2 1.5h1q8 0 8 -41v-553q163 184 357 184zM608 10q78 0 141 29.5t103 76.5t66.5 110.5t37.5 127t11 129.5q0 232 -95.5 356t-250.5 124q-85 0 -168.5 -47
t-133.5 -121v-562q33 -102 109 -162.5t180 -60.5z" />
    <glyph glyph-name="ydieresis" unicode="&#xff;" horiz-adv-x="1107" 
d="M344 1262q0 37 22.5 62t55.5 30q35 2 56.5 -20t21.5 -60q0 -54 -39 -80t-78 -7t-39 75zM672 1262q0 37 22.5 62t55.5 30q35 2 56 -20t21 -60q0 -54 -38.5 -80t-77.5 -7t-39 75zM782 1004h281q19 0 27 -6t0 -12.5t-27 -6.5q-61 -4 -92 -27.5t-56 -81.5l-354 -866
q-133 -298 -229 -407q-95 -109 -217 -109q-62 0 -100 28.5t-38 71.5q0 38 23.5 62t60.5 24q38 0 78 -63q40 -64 82 -64q100 0 309 455l-348 850q-28 65 -56 92t-81 33q-19 1 -27 7.5t0 13t27 6.5h363q30 0 30 -13q0 -8 -30 -14q-78 -17 -97.5 -41.5t4.5 -73.5l279 -710
l268 704q18 63 1.5 87t-81.5 36q-30 6 -30 12q0 13 30 13z" />
    <glyph glyph-name="Amacron" unicode="&#x100;" horiz-adv-x="1447" 
d="M938 1569h-455q-25 0 -36 6t-7 16q10 23 43 23h457q23 0 35 -6.5t8 -16.5q-9 -22 -45 -22zM1378 20q39 -6 39 -14q0 -12 -41 -12q-10 0 -88 4q-39 2 -86 2q-8 0 -94 -4q-62 -6 -92 -6q-41 0 -41 12q0 11 41 14q151 9 74 191l-160 389h-500l-145 -381
q-40 -98 -23.5 -145.5t96.5 -53.5q41 -3 41 -14q0 -12 -41 -12q-20 0 -83 5t-82 5q-16 0 -75 -5t-77 -5q-41 0 -41 12q0 11 39 14q61 4 108 55t91 162l401 984l12 38q3 43 13 56q24 34 38 67q12 35 21 35q11 0 22 -33l463 -1130q52 -127 86.5 -175t83.5 -55zM670 1229
l-228 -598h473z" />
    <glyph glyph-name="amacron" unicode="&#x101;" horiz-adv-x="1005" 
d="M707 1184h-455q-24 0 -35.5 6t-7.5 16q10 23 43 23h457q23 0 35 -6.5t8 -16.5q-9 -22 -45 -22zM297 -20q-94 0 -149 45.5t-56 128.5q-8 62 34.5 115.5t115.5 90.5q44 26 120 52q118 39 148 47q58 19 180 51v217q0 148 -70 213t-176 33q-67 -20 -104 -65t-37 -103
q0 -62 -28.5 -97.5t-77.5 -35.5q-76 0 -76 73q0 93 182 195q73 41 162 66q65 18 108 18q111 0 175.5 -77.5t64.5 -235.5v-537q2 -45 24.5 -54.5t116.5 1.5q29 6 29 -4q-3 -12 -25 -21q-122 -42 -210 -108q-8 -8 -21 -8q-14 0 -20 22q-21 73 -21 172q0 28 2 59
q-73 -117 -176.5 -185t-214.5 -68zM360 63q118 0 222 84q103 81 106 172l2 166q-280 -75 -373 -135t-96 -151q0 -136 139 -136z" />
    <glyph glyph-name="Abreve" unicode="&#x102;" horiz-adv-x="1447" 
d="M516 1714q-6 43 8 43q7 0 19 -37q34 -100 182 -100t182 100q12 37 19 37q14 0 8 -43q-13 -79 -67.5 -128.5t-141.5 -49.5t-141.5 49.5t-67.5 128.5zM1378 20q39 -6 39 -14q0 -12 -41 -12q-10 0 -88 4q-39 2 -86 2q-8 0 -94 -4q-62 -6 -92 -6q-41 0 -41 12q0 11 41 14
q151 9 74 191l-160 389h-500l-145 -381q-40 -98 -23.5 -145.5t96.5 -53.5q41 -3 41 -14q0 -12 -41 -12q-20 0 -83 5t-82 5q-16 0 -75 -5t-77 -5q-41 0 -41 12q0 11 39 14q61 4 108 55t91 162l401 984l12 38q3 43 13 56q24 34 38 67q12 35 21 35q11 0 22 -33l463 -1130
q52 -127 86.5 -175t83.5 -55zM670 1229l-228 -598h473z" />
    <glyph glyph-name="abreve" unicode="&#x103;" horiz-adv-x="1005" 
d="M305 1329q-6 43 8 43q7 0 19 -37q34 -106 162 -106q127 0 161 106q12 37 19 37q14 0 8 -43q-13 -77 -63 -127.5t-125 -50.5t-125.5 50.5t-63.5 127.5zM297 -20q-94 0 -149 45.5t-56 128.5q-8 62 34.5 115.5t115.5 90.5q44 26 120 52q118 39 148 47q58 19 180 51v217
q0 148 -70 213t-176 33q-67 -20 -104 -65t-37 -103q0 -62 -28.5 -97.5t-77.5 -35.5q-76 0 -76 73q0 93 182 195q73 41 162 66q65 18 108 18q111 0 175.5 -77.5t64.5 -235.5v-537q2 -45 24.5 -54.5t116.5 1.5q29 6 29 -4q-3 -12 -25 -21q-122 -42 -210 -108q-8 -8 -21 -8
q-14 0 -20 22q-21 73 -21 172q0 28 2 59q-73 -117 -176.5 -185t-214.5 -68zM360 63q118 0 222 84q103 81 106 172l2 166q-280 -75 -373 -135t-96 -151q0 -136 139 -136z" />
    <glyph glyph-name="Aogonek" unicode="&#x104;" horiz-adv-x="1447" 
d="M1378 20q39 -6 39 -14q0 -12 -41 -12q-8 0 -94 4q-162 -137 -162 -227q0 -37 25 -58.5t59 -21.5q46 0 88 28q19 16 19 0q0 -9 -19 -34q-56 -68 -141 -68q-46 0 -77.5 30.5t-31.5 84.5q0 116 205 266q-10 2 -45 2q-8 0 -94 -4q-62 -6 -92 -6q-41 0 -41 12q0 11 41 14
q151 9 74 191l-160 389h-500l-145 -381q-40 -98 -23.5 -145.5t96.5 -53.5q41 -3 41 -14q0 -12 -41 -12q-20 0 -83 5t-82 5q-16 0 -75 -5t-77 -5q-41 0 -41 12q0 11 39 14q61 4 108 55t91 162l401 984l12 38q3 43 13 56q24 34 38 67q12 35 21 35q11 0 22 -33l463 -1130
q52 -127 86.5 -175t83.5 -55zM670 1229l-228 -598h473z" />
    <glyph glyph-name="aogonek" unicode="&#x105;" horiz-adv-x="1005" 
d="M297 -20q-94 0 -149 45.5t-56 128.5q-8 62 34.5 115.5t115.5 90.5q44 26 120 52q118 39 148 47q58 19 180 51v217q0 148 -70 213t-176 33q-67 -20 -104 -65t-37 -103q0 -62 -28.5 -97.5t-77.5 -35.5q-76 0 -76 73q0 93 182 195q73 41 162 66q65 18 108 18
q111 0 175.5 -77.5t64.5 -235.5v-537q2 -45 24.5 -54.5t116.5 1.5q29 6 29 -4q-3 -12 -25 -21q-122 -42 -210 -108q-8 -8 -21 -8q-14 0 -20 22q-21 73 -21 172q0 28 2 59q-73 -117 -176.5 -185t-214.5 -68zM360 63q118 0 222 84q103 81 106 172l2 166q-280 -75 -373 -135
t-96 -151q0 -136 139 -136zM727 -414q-46 0 -77.5 30.5t-31.5 84.5q0 119 234 289h35l-92 -80q-39 -37 -69 -84t-30 -86q0 -37 25 -58.5t59 -21.5q44 0 88 29q19 16 19 0q0 -10 -19 -35q-59 -68 -141 -68z" />
    <glyph glyph-name="Cacute" unicode="&#x106;" horiz-adv-x="1406" 
d="M686 1501q-9 9 14 39l168 195q46 49 140 49q44 0 48 -21.5t-32 -44.5l-301 -200q-35 -21 -37 -17zM801 -20q-316 0 -508 198q-191 200 -191 494q0 320 203 520q207 201 543 201q237 0 373 -68q33 -14 36 -53q15 -110 33 -195q9 -40 2 -43q-10 -4 -16 3.5t-12 29.5
q-53 158 -167 228.5t-298 70.5q-266 0 -406 -192q-139 -192 -139 -484q0 -283 158 -485q159 -199 415 -199q172 0 298 78.5t169 214.5q6 18 13 27.5t12 7.5q10 0 4 -41q-23 -139 -25 -164q-3 -37 -43 -55q-115 -53 -206 -72q-104 -22 -248 -22z" />
    <glyph glyph-name="cacute" unicode="&#x107;" horiz-adv-x="1046" 
d="M453 1114q-9 9 14 39l145 174q46 49 111 49q44 0 48 -22t-32 -45l-250 -179q-34 -21 -36 -16zM571 -20q-211 0 -352 147q-141 150 -141 377q0 233 141 377q140 143 371 143q97 0 172 -20t112 -52q68 -59 68 -106q0 -34 -21.5 -53t-54.5 -19q-66 0 -112 82
q-39 74 -87 106.5t-128 32.5q-142 0 -234 -121t-92 -323q0 -224 117 -356q120 -129 301 -129q178 0 291 110q25 25 30 23q12 -9 -6 -35q-59 -81 -159.5 -132.5t-215.5 -51.5z" />
    <glyph glyph-name="Cdotaccent" unicode="&#x10a;" horiz-adv-x="1406" 
d="M801 1548q-40 0 -61.5 26.5t-14.5 72.5t36.5 72t69.5 26q38 0 59.5 -27.5t14.5 -70.5q-7 -46 -36.5 -72.5t-67.5 -26.5zM801 -20q-316 0 -508 198q-191 200 -191 494q0 320 203 520q207 201 543 201q237 0 373 -68q33 -14 36 -53q15 -110 33 -195q9 -40 2 -43
q-10 -4 -16 3.5t-12 29.5q-53 158 -167 228.5t-298 70.5q-266 0 -406 -192q-139 -192 -139 -484q0 -283 158 -485q159 -199 415 -199q172 0 298 78.5t169 214.5q6 18 13 27.5t12 7.5q10 0 4 -41q-23 -139 -25 -164q-3 -37 -43 -55q-115 -53 -206 -72q-104 -22 -248 -22z" />
    <glyph glyph-name="cdotaccent" unicode="&#x10b;" horiz-adv-x="1046" 
d="M578 1180q-40 0 -61.5 26t-14.5 72t36.5 72t69.5 26q38 0 59.5 -27.5t14.5 -70.5q-7 -46 -36.5 -72t-67.5 -26zM571 -20q-211 0 -352 147q-141 150 -141 377q0 233 141 377q140 143 371 143q97 0 172 -20t112 -52q68 -59 68 -106q0 -34 -21.5 -53t-54.5 -19
q-66 0 -112 82q-39 74 -87 106.5t-128 32.5q-142 0 -234 -121t-92 -323q0 -224 117 -356q120 -129 301 -129q178 0 291 110q25 25 30 23q12 -9 -6 -35q-59 -81 -159.5 -132.5t-215.5 -51.5z" />
    <glyph glyph-name="Ccaron" unicode="&#x10c;" horiz-adv-x="1406" 
d="M721 1495q-65 102 -152 182q-38 32 -28 45q9 17 53 -16q133 -115 174 -115q26 0 174 115q42 34 53 16q10 -13 -28 -45q-77 -65 -152 -182q-20 -29 -47.5 -29t-46.5 29zM801 -20q-316 0 -508 198q-191 200 -191 494q0 320 203 520q207 201 543 201q237 0 373 -68
q33 -14 36 -53q15 -110 33 -195q9 -40 2 -43q-10 -4 -16 3.5t-12 29.5q-53 158 -167 228.5t-298 70.5q-266 0 -406 -192q-139 -192 -139 -484q0 -283 158 -485q159 -199 415 -199q172 0 298 78.5t169 214.5q6 18 13 27.5t12 7.5q10 0 4 -41q-23 -139 -25 -164
q-3 -37 -43 -55q-115 -53 -206 -72q-104 -22 -248 -22z" />
    <glyph glyph-name="ccaron" unicode="&#x10d;" horiz-adv-x="1046" 
d="M524 1126q-57 111 -135 195q-34 34 -24 47q11 18 51 -20q125 -125 155 -125q6 0 14.5 4t21.5 13.5t23.5 18t27 23.5t25 23t25 24t19.5 19q40 34 51 20q10 -13 -24 -47q-74 -74 -136 -195q-17 -30 -47 -30t-47 30zM571 -20q-211 0 -352 147q-141 150 -141 377
q0 233 141 377q140 143 371 143q97 0 172 -20t112 -52q68 -59 68 -106q0 -34 -21.5 -53t-54.5 -19q-66 0 -112 82q-39 74 -87 106.5t-128 32.5q-142 0 -234 -121t-92 -323q0 -224 117 -356q120 -129 301 -129q178 0 291 110q25 25 30 23q12 -9 -6 -35q-59 -81 -159.5 -132.5
t-215.5 -51.5z" />
    <glyph glyph-name="Dcaron" unicode="&#x10e;" horiz-adv-x="1511" 
d="M365 1677q-38 33 -29 45q9 17 53 -16q133 -115 174 -115q26 0 174 115q43 34 54 16q9 -12 -29 -45q-77 -65 -152 -182q-20 -29 -47.5 -29t-46.5 29q-67 104 -151 182zM676 1393q348 0 538 -193q191 -191 191 -518q0 -309 -193 -508q-191 -197 -536 -194q-97 3 -215 12
q-104 8 -160 8q-14 0 -92 -4q-59 -6 -86 -6q-41 0 -41 12q0 11 41 14q67 6 91 51.5t24 157.5v922q0 112 -24 157.5t-91 51.5q-41 3 -41 14q0 12 41 12q27 0 86 -6q78 -4 92 -4q26 0 156 10q147 11 219 11zM696 4q291 -3 424 176q137 180 137 471q0 316 -161 512
q-165 201 -480 201q-137 0 -251 -18v-1158q0 -104 74.5 -141.5t256.5 -42.5z" />
    <glyph glyph-name="dcaron" unicode="&#x10f;" horiz-adv-x="1216" 
d="M1145 129q28 6 31 -4q-3 -11 -27 -21q-96 -35 -211 -116q-8 -8 -20 -8q-15 0 -21 22q-20 70 -20 178q-72 -89 -170.5 -144.5t-200.5 -55.5q-198 0 -313 139t-115 354q0 246 145 397q148 154 367 154q167 0 289 -90v344q0 56 -19 65q-17 11 -110 -4q-28 -6 -31 2
q-7 14 18 23q140 52 209 100q-32 0 -51 31q-57 111 -135 195q-34 34 -25 47q10 17 51 -21q125 -125 156 -125q6 0 14.5 4t21.5 13.5t23.5 18t27 23.5t25 23t25 24t19.5 19q40 34 51 21q9 -13 -25 -47q-72 -72 -135 -195l-2 -2v-2q2 1 4.5 2t3.5 1.5t2 0.5q9 0 9 -41
l-2 -1272q2 -45 24.5 -54.5t116.5 1.5zM561 41q92 0 182 54t134 136v474q-19 129 -101 208.5t-203 79.5q-78 0 -141 -29.5t-102.5 -76.5t-66 -110.5t-37.5 -127t-11 -129.5q0 -232 95.5 -355.5t250.5 -123.5z" />
    <glyph glyph-name="Dcroat" unicode="&#x110;" horiz-adv-x="1511" 
d="M676 1393q348 0 538 -193q191 -191 191 -518q0 -309 -193 -508q-191 -197 -536 -194q-97 3 -215 12q-104 8 -160 8q-14 0 -92 -4q-59 -6 -86 -6q-41 0 -41 12q0 11 41 14q67 6 91 51.5t24 157.5v449h-142q-18 0 -26.5 4t-6.5 12q3 12 31 12h144v445q0 112 -24 157.5
t-91 51.5q-41 3 -41 14q0 12 41 12q27 0 86 -6q78 -4 92 -4q26 0 156 10q147 11 219 11zM696 4q291 -3 424 176q137 180 137 471q0 316 -161 512q-165 201 -480 201q-137 0 -251 -18v-644h133q19 0 27.5 -3t6.5 -9q-6 -16 -30 -16h-137v-486q0 -104 74.5 -141.5t256.5 -42.5
z" />
    <glyph glyph-name="dslash" unicode="&#x111;" horiz-adv-x="1216" 
d="M1145 129q28 6 31 -4q-3 -11 -27 -21q-96 -35 -211 -116q-8 -8 -20 -8q-15 0 -21 22q-20 70 -20 178q-72 -89 -170.5 -144.5t-200.5 -55.5q-198 0 -313 139t-115 354q0 246 145 397q148 154 367 154q167 0 289 -90v227h-201q-11 0 -16.5 4t-4.5 11q3 14 23 14h199v88
q0 56 -19 65q-17 11 -110 -4q-28 -6 -31 2q-7 14 18 23q143 54 230 115q29 16 30 16q9 0 9 -41v-264h131q11 0 16 -3.5t4 -10.5q-3 -15 -22 -15h-129l-2 -979q2 -45 24.5 -54.5t116.5 1.5zM561 41q92 0 182 54t134 136v474q-19 129 -101 208.5t-203 79.5q-78 0 -141 -29.5
t-102.5 -76.5t-66 -110.5t-37.5 -127t-11 -129.5q0 -232 95.5 -355.5t250.5 -123.5z" />
    <glyph glyph-name="Emacron" unicode="&#x112;" horiz-adv-x="1150" 
d="M901 1552h-455q-25 0 -36.5 6t-6.5 17q9 22 43 22h457q24 0 35.5 -6t7.5 -16q-10 -23 -45 -23zM123 -10q-41 0 -41 12q0 11 41 14q67 6 91 51.5t24 157.5v922q0 112 -24 157.5t-91 51.5q-41 3 -41 14q0 12 41 12q15 0 91 -5t108 -5q29 0 366 6q60 1 116 2t83.5 1.5
t32.5 0.5q23 0 30.5 -9.5t12.5 -37.5q9 -83 30 -174q9 -40 -4 -43q-6 -2 -12.5 6.5t-13.5 28.5q-41 97 -100 137t-175 51q-132 10 -282 2q-27 -2 -34 -14t-7 -61v-535h256q110 0 162.5 33.5t58.5 107.5q3 41 14 41q12 0 12 -41q0 -13 -4 -83t-4 -74q0 -2 4 -80t4 -88
q0 -41 -12 -41q-11 0 -14 41q-12 151 -221 151h-256v-413q0 -145 61 -203.5t199 -58.5q53 0 114 6q225 18 277 248q4 20 10 29t14 7q13 -3 7 -43q-27 -165 -33 -235q-3 -27 -13 -37t-30 -10q-5 0 -32.5 0.5t-83.5 1.5t-116 2q-307 6 -426 6q-20 0 -102 -4q-61 -6 -88 -6z
" />
    <glyph glyph-name="emacron" unicode="&#x113;" horiz-adv-x="1030" 
d="M803 1184h-455q-25 0 -36 6t-7 16q10 23 43 23h457q23 0 35 -6.5t8 -16.5q-9 -22 -45 -22zM942 199q12 -9 -6 -35q-132 -184 -375 -184q-201 0 -338 149t-137 375q0 231 141 375q145 145 363 145q159 0 253.5 -87t94.5 -224q0 -41 -41 -41h-666q-10 -72 -10 -121
q0 -224 111 -356q114 -129 289 -129q180 0 290 110q27 27 31 23zM547 997q-122 0 -203 -81t-108 -220l505 29q43 1 53.5 14.5t4.5 51.5q-18 95 -82 150.5t-170 55.5z" />
    <glyph glyph-name="Edotaccent" unicode="&#x116;" horiz-adv-x="1150" 
d="M694 1548q-40 0 -61.5 26.5t-14.5 72.5t37 72t70 26q38 0 59.5 -27.5t14.5 -70.5q-7 -46 -37 -72.5t-68 -26.5zM123 -10q-41 0 -41 12q0 11 41 14q67 6 91 51.5t24 157.5v922q0 112 -24 157.5t-91 51.5q-41 3 -41 14q0 12 41 12q15 0 91 -5t108 -5q29 0 366 6q60 1 116 2
t83.5 1.5t32.5 0.5q23 0 30.5 -9.5t12.5 -37.5q9 -83 30 -174q9 -40 -4 -43q-6 -2 -12.5 6.5t-13.5 28.5q-41 97 -100 137t-175 51q-132 10 -282 2q-27 -2 -34 -14t-7 -61v-535h256q110 0 162.5 33.5t58.5 107.5q3 41 14 41q12 0 12 -41q0 -13 -4 -83t-4 -74q0 -2 4 -80
t4 -88q0 -41 -12 -41q-11 0 -14 41q-12 151 -221 151h-256v-413q0 -145 61 -203.5t199 -58.5q53 0 114 6q225 18 277 248q4 20 10 29t14 7q13 -3 7 -43q-27 -165 -33 -235q-3 -27 -13 -37t-30 -10q-5 0 -32.5 0.5t-83.5 1.5t-116 2q-307 6 -426 6q-20 0 -102 -4
q-61 -6 -88 -6z" />
    <glyph glyph-name="edotaccent" unicode="&#x117;" horiz-adv-x="1030" 
d="M596 1180q-40 0 -61.5 26t-14.5 72t37 72t70 26q38 0 59 -27.5t14 -70.5q-7 -46 -36.5 -72t-67.5 -26zM942 199q12 -9 -6 -35q-132 -184 -375 -184q-201 0 -338 149t-137 375q0 231 141 375q145 145 363 145q159 0 253.5 -87t94.5 -224q0 -41 -41 -41h-666
q-10 -72 -10 -121q0 -224 111 -356q114 -129 289 -129q180 0 290 110q27 27 31 23zM547 997q-122 0 -203 -81t-108 -220l505 29q43 1 53.5 14.5t4.5 51.5q-18 95 -82 150.5t-170 55.5z" />
    <glyph glyph-name="Eogonek" unicode="&#x118;" horiz-adv-x="1150" 
d="M1040 315q13 -3 7 -43q-27 -165 -33 -235q-5 -30 -12.5 -38.5t-30.5 -8.5h-17l-88 -76q-36 -36 -63 -81t-27 -83q0 -37 25 -58.5t59 -21.5q44 0 88 29q19 16 19 0q0 -10 -19 -35q-55 -67 -141 -67q-46 0 -77.5 30t-31.5 84q0 118 220 279q-8 1 -20.5 1.5t-32.5 1t-36 1.5
h-90q-307 6 -426 6q-20 0 -102 -4q-61 -6 -88 -6q-41 0 -41 12q0 11 41 14q67 6 91 51.5t24 157.5v922q0 112 -24 157.5t-91 51.5q-41 3 -41 14q0 12 41 12q15 0 91 -5t108 -5q29 0 366 6q60 1 116 2t83.5 1.5t32.5 0.5q23 0 30.5 -9.5t12.5 -37.5q9 -83 30 -174
q9 -40 -4 -43q-6 -2 -12.5 6.5t-13.5 28.5q-41 97 -100 137t-175 51q-132 10 -282 2q-27 -2 -34 -14t-7 -61v-535h256q110 0 162.5 33.5t58.5 107.5q3 41 14 41q12 0 12 -41q0 -13 -4 -83t-4 -74q0 -2 4 -80t4 -88q0 -41 -12 -41q-11 0 -14 41q-12 151 -221 151h-256v-413
q0 -145 61 -203.5t199 -58.5q53 0 114 6q225 18 277 248q4 20 10 29t14 7z" />
    <glyph glyph-name="eogonek" unicode="&#x119;" horiz-adv-x="1030" 
d="M942 199q12 -9 -6 -35q-54 -74 -131 -121h2l-92 -80q-39 -37 -69 -84t-30 -86q0 -37 25 -58.5t59 -21.5q44 0 88 29q19 16 19 0q0 -10 -19 -35q-55 -67 -141 -67q-46 0 -77 30t-31 84q0 103 182 250q-71 -24 -160 -24q-201 0 -338 149t-137 375q0 231 141 375
q145 145 363 145q159 0 253.5 -87t94.5 -224q0 -41 -41 -41h-666q-10 -72 -10 -121q0 -224 111 -356q114 -129 289 -129q180 0 290 110q27 27 31 23zM547 997q-122 0 -203 -81t-108 -220l505 29q43 1 53.5 14.5t4.5 51.5q-18 95 -82 150.5t-170 55.5z" />
    <glyph glyph-name="Ecaron" unicode="&#x11a;" horiz-adv-x="1150" 
d="M614 1495q-67 104 -151 182q-38 33 -29 45q9 17 53 -16q133 -115 175 -115q26 0 174 115q42 34 53 16q9 -12 -29 -45q-75 -63 -151 -182q-20 -29 -48 -29t-47 29zM123 -10q-41 0 -41 12q0 11 41 14q67 6 91 51.5t24 157.5v922q0 112 -24 157.5t-91 51.5q-41 3 -41 14
q0 12 41 12q15 0 91 -5t108 -5q29 0 366 6q60 1 116 2t83.5 1.5t32.5 0.5q23 0 30.5 -9.5t12.5 -37.5q9 -83 30 -174q9 -40 -4 -43q-6 -2 -12.5 6.5t-13.5 28.5q-41 97 -100 137t-175 51q-132 10 -282 2q-27 -2 -34 -14t-7 -61v-535h256q110 0 162.5 33.5t58.5 107.5
q3 41 14 41q12 0 12 -41q0 -13 -4 -83t-4 -74q0 -2 4 -80t4 -88q0 -41 -12 -41q-11 0 -14 41q-12 151 -221 151h-256v-413q0 -145 61 -203.5t199 -58.5q53 0 114 6q225 18 277 248q4 20 10 29t14 7q13 -3 7 -43q-27 -165 -33 -235q-3 -27 -13 -37t-30 -10q-5 0 -32.5 0.5
t-83.5 1.5t-116 2q-307 6 -426 6q-20 0 -102 -4q-61 -6 -88 -6z" />
    <glyph glyph-name="ecaron" unicode="&#x11b;" horiz-adv-x="1030" 
d="M543 1126q-57 111 -135 195q-34 34 -25 47q11 18 51 -20q125 -125 156 -125q6 0 15 4t21 13.5t23 18.5t26.5 23t25 23.5t24.5 23.5t20 19q40 34 52 20q9 -13 -25 -47q-72 -72 -135 -195q-17 -30 -47 -30t-47 30zM942 199q12 -9 -6 -35q-132 -184 -375 -184
q-201 0 -338 149t-137 375q0 231 141 375q145 145 363 145q159 0 253.5 -87t94.5 -224q0 -41 -41 -41h-666q-10 -72 -10 -121q0 -224 111 -356q114 -129 289 -129q180 0 290 110q27 27 31 23zM547 997q-122 0 -203 -81t-108 -220l505 29q43 1 53.5 14.5t4.5 51.5
q-18 95 -82 150.5t-170 55.5z" />
    <glyph glyph-name="Gbreve" unicode="&#x11e;" horiz-adv-x="1443" 
d="M621 1698q-6 43 8 43q6 0 18 -37q34 -100 182 -100q149 0 183 100q12 37 18 37q14 0 8 -43q-13 -79 -67.5 -128.5t-141.5 -49.5t-141 49.5t-67 128.5zM811 -20q-332 0 -520 206q-189 207 -189 496q0 311 205 510q207 201 541 201q234 0 373 -68q33 -14 36 -53
q15 -110 33 -195q9 -40 2 -43q-10 -4 -16 3.5t-12 29.5q-99 299 -453 299q-268 0 -412 -190q-145 -192 -145 -476q0 -254 135 -462q71 -107 193 -169.5t274 -62.5q193 0 238 66q28 45 28 334q0 104 -33 154.5t-110 60.5q-39 6 -39 14q0 10 41 10l98 -6q90 -4 101 -4
q17 0 70.5 4t66.5 4q41 0 41 -8q0 -2 -37 -14q-41 -13 -56.5 -60.5t-15.5 -154.5q0 -247 25 -289q6 -12 15 -19.5t14.5 -11t5.5 -6.5q0 -16 -54 -31q-241 -69 -444 -69z" />
    <glyph glyph-name="gbreve" unicode="&#x11f;" horiz-adv-x="1038" 
d="M295 1329q-6 43 8 43q7 0 19 -37q34 -106 161 -106q128 0 162 106q12 37 19 37q14 0 8 -43q-13 -77 -63.5 -127.5t-125.5 -50.5t-125 50.5t-63 127.5zM1016 997q6 -26 -10.5 -49t-42.5 -28q-4 -2 -21 -2q-29 0 -70 20q-44 21 -65 18q-41 -6 -62 -24l-14 16
q114 117 201 117q34 0 56.5 -19t27.5 -49zM375 143l229 -39q212 -39 291 -86q86 -47 86 -163q0 -154 -170 -271q-168 -116 -395 -116q-203 0 -295 77q-90 78 -90 174q0 173 260 310q-91 20 -138 60.5t-47 115.5q6 65 45 106.5t109 77.5q-135 95 -135 291q0 154 92.5 239
t263.5 103q8 2 39 2q140 0 228 -95.5t88 -248.5q0 -156 -96 -246.5t-259 -101.5q-114 -9 -202 45q-82 -64 -82 -117q0 -87 178 -117zM471 993q-98 0 -155.5 -74.5t-57.5 -201.5q0 -39 6 -86q20 -124 83 -196.5t153 -72.5q4 0 10.5 1t16 2t16.5 2q72 14 118 91t46 185
q0 29 -7 76q-20 127 -82 200.5t-147 73.5zM821 -373q41 32 66.5 79t25.5 89q0 78 -59.5 120t-200.5 62l-280 39q-15 1 -54 9q-91 -65 -130 -120t-39 -128q0 -118 100 -182t260 -64q183 0 311 96z" />
    <glyph glyph-name="Gdotaccent" unicode="&#x120;" horiz-adv-x="1443" 
d="M836 1548q-40 0 -61.5 26.5t-14.5 72.5t36.5 72t69.5 26q38 0 59.5 -27.5t14.5 -70.5q-7 -46 -36.5 -72.5t-67.5 -26.5zM811 -20q-332 0 -520 206q-189 207 -189 496q0 311 205 510q207 201 541 201q234 0 373 -68q33 -14 36 -53q15 -110 33 -195q9 -40 2 -43
q-10 -4 -16 3.5t-12 29.5q-99 299 -453 299q-268 0 -412 -190q-145 -192 -145 -476q0 -254 135 -462q71 -107 193 -169.5t274 -62.5q193 0 238 66q28 45 28 334q0 104 -33 154.5t-110 60.5q-39 6 -39 14q0 10 41 10l98 -6q90 -4 101 -4q17 0 70.5 4t66.5 4q41 0 41 -8
q0 -2 -37 -14q-41 -13 -56.5 -60.5t-15.5 -154.5q0 -247 25 -289q6 -12 15 -19.5t14.5 -11t5.5 -6.5q0 -16 -54 -31q-241 -69 -444 -69z" />
    <glyph glyph-name="gdotaccent" unicode="&#x121;" horiz-adv-x="1038" 
d="M489 1180q-40 0 -61 26t-14 72t36.5 72t69.5 26q38 0 59.5 -27.5t14.5 -70.5q-7 -46 -37 -72t-68 -26zM1016 997q6 -26 -10.5 -49t-42.5 -28q-4 -2 -21 -2q-29 0 -70 20q-44 21 -65 18q-41 -6 -62 -24l-14 16q114 117 201 117q34 0 56.5 -19t27.5 -49zM375 143l229 -39
q212 -39 291 -86q86 -47 86 -163q0 -154 -170 -271q-168 -116 -395 -116q-203 0 -295 77q-90 78 -90 174q0 173 260 310q-91 20 -138 60.5t-47 115.5q6 65 45 106.5t109 77.5q-135 95 -135 291q0 154 92.5 239t263.5 103q8 2 39 2q140 0 228 -95.5t88 -248.5
q0 -156 -96 -246.5t-259 -101.5q-114 -9 -202 45q-82 -64 -82 -117q0 -87 178 -117zM471 993q-98 0 -155.5 -74.5t-57.5 -201.5q0 -39 6 -86q20 -124 83 -196.5t153 -72.5q4 0 10.5 1t16 2t16.5 2q72 14 118 91t46 185q0 29 -7 76q-20 127 -82 200.5t-147 73.5zM821 -373
q41 32 66.5 79t25.5 89q0 78 -59.5 120t-200.5 62l-280 39q-15 1 -54 9q-91 -65 -130 -120t-39 -128q0 -118 100 -182t260 -64q183 0 311 96z" />
    <glyph glyph-name="uni0122" unicode="&#x122;" horiz-adv-x="1443" 
d="M811 -20q-332 0 -520 206q-189 207 -189 496q0 311 205 510q207 201 541 201q234 0 373 -68q33 -14 36 -53q15 -110 33 -195q9 -40 2 -43q-10 -4 -16 3.5t-12 29.5q-99 299 -453 299q-268 0 -412 -190q-145 -192 -145 -476q0 -254 135 -462q71 -107 193 -169.5t274 -62.5
q193 0 238 66q28 45 28 334q0 104 -33 154.5t-110 60.5q-39 6 -39 14q0 10 41 10l98 -6q90 -4 101 -4q17 0 70.5 4t66.5 4q41 0 41 -8q0 -2 -37 -14q-41 -13 -56.5 -60.5t-15.5 -154.5q0 -247 25 -289q6 -12 15 -19.5t14.5 -11t5.5 -6.5q0 -16 -54 -31q-241 -69 -444 -69z
M805 -532q-9 13 10 32q80 80 80 138q0 36 -47 45q-36 7 -61 29.5t-25 58.5q0 35 23.5 56t60.5 21q47 0 84 -37.5t37 -97.5t-38.5 -125.5t-92.5 -111.5q-21 -18 -31 -8z" />
    <glyph glyph-name="uni0123" unicode="&#x123;" horiz-adv-x="1038" 
d="M485 1174q-86 0 -86 102q3 151 84 270q9 12 19 6q11 -3 2 -18q-65 -95 -68 -184q0 -14 4 -20.5t11 -2.5q17 10 38 10q77 0 74 -84q0 -37 -22 -58t-56 -21zM1016 997q6 -26 -10.5 -49t-42.5 -28q-4 -2 -21 -2q-29 0 -70 20q-44 21 -65 18q-41 -6 -62 -24l-14 16
q114 117 201 117q34 0 56.5 -19t27.5 -49zM375 143l229 -39q212 -39 291 -86q86 -47 86 -163q0 -154 -170 -271q-168 -116 -395 -116q-203 0 -295 77q-90 78 -90 174q0 173 260 310q-91 20 -138 60.5t-47 115.5q6 65 45 106.5t109 77.5q-135 95 -135 291q0 154 92.5 239
t263.5 103q8 2 39 2q140 0 228 -95.5t88 -248.5q0 -156 -96 -246.5t-259 -101.5q-114 -9 -202 45q-82 -64 -82 -117q0 -87 178 -117zM471 993q-98 0 -155.5 -74.5t-57.5 -201.5q0 -39 6 -86q20 -124 83 -196.5t153 -72.5q4 0 10.5 1t16 2t16.5 2q72 14 118 91t46 185
q0 29 -7 76q-20 127 -82 200.5t-147 73.5zM821 -373q41 32 66.5 79t25.5 89q0 78 -59.5 120t-200.5 62l-280 39q-15 1 -54 9q-91 -65 -130 -120t-39 -128q0 -118 100 -182t260 -64q183 0 311 96z" />
    <glyph glyph-name="Hbar" unicode="&#x126;" horiz-adv-x="1531" 
d="M1401 14q41 -3 41 -14q0 -12 -41 -12q-29 0 -88 6q-78 4 -90 4q-15 0 -93 -4q-58 -6 -86 -6q-40 0 -40 12q0 11 40 14q67 6 91 51.5t24 157.5v455h-794v-455q0 -112 23.5 -157.5t90.5 -51.5q41 -3 41 -14q0 -12 -41 -12q-29 0 -88 6q-78 4 -90 4q-14 0 -92 -4
q-59 -6 -86 -6q-41 0 -41 12q0 11 41 14q67 6 91 51.5t24 157.5v647h-64q-9 0 -15 2.5t-8 6.5t1 8q10 16 28 16h58v244q0 112 -24 157.5t-91 51.5q-41 3 -41 14q0 12 41 12q27 0 86 -6q78 -4 92 -4q12 0 90 4q59 6 88 6q41 0 41 -12q0 -11 -41 -14q-67 -6 -90.5 -51.5
t-23.5 -157.5v-244h794v244q0 112 -24 157.5t-91 51.5q-40 3 -40 14q0 12 40 12q28 0 86 -6q78 -4 93 -4q12 0 90 4q59 6 88 6q41 0 41 -12q0 -11 -41 -14q-67 -6 -91 -51.5t-24 -157.5v-244h127q9 0 16 -2.5t9.5 -6t-0.5 -7.5q-10 -17 -29 -17h-123v-647q0 -112 24 -157.5
t91 -51.5zM365 870v-157h794v157h-794z" />
    <glyph glyph-name="hbar" unicode="&#x127;" horiz-adv-x="1198" 
d="M1092 16q41 -3 41 -14q0 -12 -41 -12q-16 0 -72 6q-70 4 -84 4q-26 0 -87 -5t-69 -5q-41 0 -41 12q0 11 41 14q53 4 73.5 48t20.5 141v428q0 338 -235 338q-101 0 -190 -68q-86 -68 -107 -168v-510q0 -112 24 -157.5t91 -51.5q41 -3 41 -14q0 -12 -41 -12q-31 0 -90 6
q-78 4 -88 4q-15 0 -93 -4q-58 -6 -86 -6q-41 0 -41 12q0 11 41 14q67 6 91 51.5t24 157.5v885h-195q-11 0 -16 3.5t-4 10.5q3 15 23 15h192v139q0 56 -18 65q-17 11 -111 -4q-28 -6 -31 2q-7 13 19 23q140 53 229 115q29 16 31 16q8 0 8 -41v-315h137q11 0 16.5 -4t4.5 -11
q-3 -14 -23 -14h-135v-283q62 90 157.5 143.5t205.5 53.5q149 0 220.5 -86.5t71.5 -239.5v-493q0 -96 21 -140.5t74 -48.5z" />
    <glyph glyph-name="Imacron" unicode="&#x12a;" horiz-adv-x="610" 
d="M61 1597h457q24 0 35.5 -6t7.5 -16q-10 -23 -45 -23h-455q-25 0 -36.5 6t-6.5 17q9 22 43 22zM479 1356q-67 -6 -90.5 -51.5t-23.5 -157.5v-924q0 -112 23.5 -157.5t90.5 -51.5q41 -3 41 -14q0 -12 -41 -12q-29 0 -88 6q-78 4 -90 4q-14 0 -92 -4q-59 -6 -86 -6
q-41 0 -41 12q0 11 41 14q67 6 91 51.5t24 157.5v924q0 112 -24 157.5t-91 51.5q-41 3 -41 14q0 12 41 12q27 0 86 -6q78 -4 92 -4q12 0 90 4q59 6 88 6q41 0 41 -12q0 -11 -41 -14z" />
    <glyph glyph-name="imacron" unicode="&#x12b;" horiz-adv-x="575" 
d="M39 1229h457q23 0 35 -6.5t8 -16.5q-9 -22 -45 -22h-455q-24 0 -35.5 6t-7.5 16q10 23 43 23zM473 16q41 -3 41 -14q0 -12 -41 -12q-32 0 -90 6q-78 4 -88 4q-14 0 -92 -4q-59 -6 -86 -6q-41 0 -41 12q0 11 41 14q67 6 90.5 51.5t23.5 157.5v582q0 57 -19 67.5t-110 -6.5
q-27 -6 -30 2q-7 14 18 23q156 64 229 115q29 16 31 16q8 0 8 -41v-758q0 -112 24 -157.5t91 -51.5z" />
    <glyph glyph-name="Iogonek" unicode="&#x12e;" horiz-adv-x="610" 
d="M479 14q41 -3 41 -14q0 -12 -41 -12q-29 0 -88 6q-78 4 -90 4q-14 0 -92 -4q-59 -6 -86 -6q-41 0 -41 12q0 11 41 14q67 6 91 51.5t24 157.5v924q0 112 -24 157.5t-91 51.5q-41 3 -41 14q0 12 41 12q27 0 86 -6q78 -4 92 -4q12 0 90 4q59 6 88 6q41 0 41 -12
q0 -11 -41 -14q-67 -6 -90.5 -51.5t-23.5 -157.5v-924q0 -112 23.5 -157.5t90.5 -51.5zM313 -4h35l-92 -80q-38 -36 -68 -83.5t-30 -86.5q0 -37 25 -58.5t59 -21.5q44 0 88 29q18 15 18 0q0 -11 -18 -35q-56 -68 -142 -68q-45 0 -76.5 30.5t-31.5 84.5q0 120 233 289z" />
    <glyph glyph-name="iogonek" unicode="&#x12f;" horiz-adv-x="575" 
d="M287 1180q-40 0 -61.5 26t-14.5 72t36.5 72t69.5 26q38 0 59.5 -27.5t14.5 -70.5q-7 -46 -36.5 -72t-67.5 -26zM473 16q41 -3 41 -14q0 -12 -41 -12q-47 0 -94 6l-90 -78q-36 -36 -65 -83t-29 -85q0 -37 25 -58.5t59 -21.5q45 0 88 29q18 15 18 0q0 -11 -18 -35
q-58 -67 -142 -67q-46 0 -77 30t-31 84q0 117 231 287q-12 2 -53 2q-14 0 -92 -4q-59 -6 -86 -6q-41 0 -41 12q0 11 41 14q67 6 90.5 51.5t23.5 157.5v582q0 57 -19 67.5t-110 -6.5q-27 -6 -30 2q-7 14 18 23q156 64 229 115q29 16 31 16q8 0 8 -41v-758q0 -112 24 -157.5
t91 -51.5z" />
    <glyph glyph-name="Idot" unicode="&#x130;" horiz-adv-x="610" 
d="M309 1548q-40 0 -61.5 26.5t-14.5 72.5t37 72t70 26q38 0 59.5 -27.5t14.5 -70.5q-7 -46 -37 -72.5t-68 -26.5zM479 14q41 -3 41 -14q0 -12 -41 -12q-29 0 -88 6q-78 4 -90 4q-14 0 -92 -4q-59 -6 -86 -6q-41 0 -41 12q0 11 41 14q67 6 91 51.5t24 157.5v924
q0 112 -24 157.5t-91 51.5q-41 3 -41 14q0 12 41 12q27 0 86 -6q78 -4 92 -4q12 0 90 4q59 6 88 6q41 0 41 -12q0 -11 -41 -14q-67 -6 -90.5 -51.5t-23.5 -157.5v-924q0 -112 23.5 -157.5t90.5 -51.5z" />
    <glyph glyph-name="dotlessi" unicode="&#x131;" horiz-adv-x="575" 
d="M473 16q41 -3 41 -14q0 -12 -41 -12q-32 0 -90 6q-78 4 -88 4q-14 0 -92 -4q-59 -6 -86 -6q-41 0 -41 12q0 11 41 14q67 6 90.5 51.5t23.5 157.5v582q0 57 -19 67.5t-110 -6.5q-27 -6 -30 2q-7 14 18 23q156 64 229 115q29 16 31 16q8 0 8 -41v-758q0 -112 24 -157.5
t91 -51.5z" />
    <glyph glyph-name="uni0136" unicode="&#x136;" horiz-adv-x="1366" 
d="M1307 16q39 -3 39 -14q0 -15 -41 -12q-140 10 -238 10q-45 0 -158 -10q-41 -3 -41 12q0 7 39 16q35 12 50 23t11.5 27.5t-17 33.5t-44.5 48l-538 538l-4 -2v-463q0 -112 23.5 -157.5t90.5 -51.5q41 -3 41 -14q0 -12 -41 -12q-29 0 -88 6q-78 4 -90 4q-14 0 -92 -4
q-59 -6 -86 -6q-41 0 -41 12q0 11 41 14q67 6 91 51.5t24 157.5v924q0 112 -24 157.5t-91 51.5q-41 3 -41 14q0 12 41 12q27 0 86 -6q78 -4 92 -4q12 0 90 4q59 6 88 6q41 0 41 -12q0 -11 -41 -14q-67 -6 -90.5 -51.5t-23.5 -157.5v-426l522 481q142 133 14 154
q-41 6 -41 14q0 15 41 12l121 -10q40 -3 98 2q57 8 88 8q41 0 41 -12q0 -11 -41 -14q-44 -3 -98 -29q-47 -24 -78 -49q-30 -24 -98 -86l-473 -422l602 -600q145 -145 244 -154zM743 -152q47 0 84 -37.5t37 -97.5t-38.5 -125.5t-92.5 -111.5q-21 -18 -31 -8q-9 12 11 32
q80 80 80 138q0 36 -48 45q-36 7 -61 29.5t-25 58.5q0 35 23.5 56t60.5 21z" />
    <glyph glyph-name="uni0137" unicode="&#x137;" horiz-adv-x="1179" 
d="M1149 14q19 0 27 -6t0 -12t-27 -6q-43 0 -129 6q-114 4 -129 4q-12 0 -98 -4q-65 -6 -97 -6q-31 0 -30.5 12.5t32.5 13.5q42 4 61.5 20t14.5 37.5t-31 43.5l-399 395l-2 -2v-285q0 -112 24 -157.5t91 -51.5q41 -3 41 -14q0 -12 -41 -12q-31 0 -90 6q-78 4 -88 4
q-15 0 -93 -4q-58 -6 -86 -6q-41 0 -41 12q0 11 41 14q67 6 91 51.5t24 157.5v1053q0 56 -18 65q-17 11 -111 -4q-28 -6 -31 2q-7 13 19 23q140 53 229 115q29 16 31 16q8 0 8 -41v-909l383 327q53 54 33 82.5t-101 28.5q-19 0 -27 6.5t0 12.5t27 6q17 0 76 -2t76 -2
q13 0 115 4t116 4q19 0 27 -6.5t0 -13t-27 -7.5q-115 -9 -241 -108l-369 -297l477 -455q114 -111 242 -111zM553 -141q47 0 84 -37.5t37 -97.5t-38.5 -126t-92.5 -112q-21 -18 -31 -8q-13 10 10 33q80 80 80 137q0 36 -47 45q-36 7 -61 29.5t-25 58.5q0 35 23.5 56.5
t60.5 21.5z" />
    <glyph glyph-name="Lacute" unicode="&#x139;" horiz-adv-x="1110" 
d="M195 1501q-9 9 14 39l168 195q46 49 139 49q44 0 48 -21.5t-32 -44.5l-301 -200q-34 -21 -36 -17zM123 -10q-41 0 -41 12q0 11 41 14q67 6 91 51.5t24 157.5v922q0 112 -24 157.5t-91 51.5q-41 3 -41 14q0 12 41 12q27 0 86 -6q78 -4 92 -4q12 0 90 4q59 6 88 6
q41 0 41 -12q0 -11 -41 -14q-67 -6 -90.5 -51.5t-23.5 -157.5v-860q0 -151 56 -206.5t204 -55.5q38 0 155 6q225 9 277 248q4 20 10 29t14 7q12 -3 6 -43q-25 -153 -32 -235q-5 -30 -12 -38.5t-31 -8.5q-5 0 -32.5 0.5t-83.5 1.5t-116 2q-331 6 -448 6h-31q-14 0 -92 -4
q-59 -6 -86 -6z" />
    <glyph glyph-name="lacute" unicode="&#x13a;" horiz-adv-x="569" 
d="M438 1718l-250 -178q-34 -21 -36 -16q-9 9 14 39l145 174q46 49 111 49q43 0 47.5 -22.5t-31.5 -45.5zM457 16q41 -3 41 -14q0 -12 -41 -12q-31 0 -90 6q-78 4 -88 4q-15 0 -93 -4q-58 -6 -86 -6q-41 0 -41 12q0 11 41 14q67 6 91 51.5t24 157.5v1053q0 56 -18 65
q-17 11 -111 -4q-28 -6 -31 2q-7 13 19 23q140 53 229 115q29 16 31 16q8 0 8 -41v-1229q0 -112 24 -157.5t91 -51.5z" />
    <glyph glyph-name="uni013B" unicode="&#x13b;" horiz-adv-x="1110" 
d="M123 -10q-41 0 -41 12q0 11 41 14q67 6 91 51.5t24 157.5v922q0 112 -24 157.5t-91 51.5q-41 3 -41 14q0 12 41 12q27 0 86 -6q78 -4 92 -4q12 0 90 4q59 6 88 6q41 0 41 -12q0 -11 -41 -14q-67 -6 -90.5 -51.5t-23.5 -157.5v-860q0 -151 56 -206.5t204 -55.5q38 0 155 6
q225 9 277 248q4 20 10 29t14 7q12 -3 6 -43q-25 -153 -32 -235q-5 -30 -12 -38.5t-31 -8.5q-5 0 -32.5 0.5t-83.5 1.5t-116 2q-331 6 -448 6h-31q-14 0 -92 -4q-59 -6 -86 -6zM625 -508q-10 13 10 33q80 80 80 137q0 36 -47 45q-36 7 -61 29.5t-25 58.5q0 35 23.5 56.5
t60.5 21.5q47 0 83.5 -37.5t36.5 -97.5t-38.5 -126t-92.5 -112q-20 -18 -30 -8z" />
    <glyph glyph-name="uni013C" unicode="&#x13c;" horiz-adv-x="569" 
d="M457 16q41 -3 41 -14q0 -12 -41 -12q-31 0 -90 6q-78 4 -88 4q-15 0 -93 -4q-58 -6 -86 -6q-41 0 -41 12q0 11 41 14q67 6 91 51.5t24 157.5v1053q0 56 -18 65q-17 11 -111 -4q-28 -6 -31 2q-7 13 19 23q140 53 229 115q29 16 31 16q8 0 8 -41v-1229q0 -112 24 -157.5
t91 -51.5zM260 -152q47 0 84 -37.5t37 -97.5t-38.5 -125.5t-92.5 -111.5q-21 -18 -31 -8q-9 13 10 32q80 80 80 138q0 36 -47 45q-36 7 -61 29.5t-25 58.5q0 35 23.5 56t60.5 21z" />
    <glyph glyph-name="Lcaron" unicode="&#x13d;" horiz-adv-x="1110" 
d="M692 993q-12 0 -12 39q0 107 -12 242q-2 31 6 46t45 50q32 31 46.5 26t10.5 -46q-14 -139 -63 -320q-9 -37 -21 -37zM123 -10q-41 0 -41 12q0 11 41 14q67 6 91 51.5t24 157.5v922q0 112 -24 157.5t-91 51.5q-41 3 -41 14q0 12 41 12q27 0 86 -6q78 -4 92 -4q12 0 90 4
q59 6 88 6q41 0 41 -12q0 -11 -41 -14q-67 -6 -90.5 -51.5t-23.5 -157.5v-860q0 -151 56 -206.5t204 -55.5q38 0 155 6q225 9 277 248q4 20 10 29t14 7q12 -3 6 -43q-25 -153 -32 -235q-5 -30 -12 -38.5t-31 -8.5q-5 0 -32.5 0.5t-83.5 1.5t-116 2q-331 6 -448 6h-31
q-14 0 -92 -4q-59 -6 -86 -6z" />
    <glyph glyph-name="lcaron" unicode="&#x13e;" horiz-adv-x="569" 
d="M457 16q41 -3 41 -14q0 -12 -41 -12q-31 0 -90 6q-78 4 -88 4q-15 0 -93 -4q-58 -6 -86 -6q-41 0 -41 12q0 11 41 14q67 6 91 51.5t24 157.5v1053q0 56 -18 65q-17 11 -111 -4q-28 -6 -31 2q-7 13 19 23q140 53 229 115q29 16 31 16q8 0 8 -41v-1229q0 -112 24 -157.5
t91 -51.5zM506 1411q32 31 46.5 26t10.5 -46q-14 -139 -63 -320q-9 -37 -21 -37t-12 39q0 107 -12 242q-2 31 6 46t45 50z" />
    <glyph glyph-name="Lslash" unicode="&#x141;" horiz-adv-x="1110" 
d="M1081 315q12 -3 6 -43q-25 -153 -32 -235q-5 -30 -12 -38.5t-31 -8.5q-5 0 -32.5 0.5t-83.5 1.5t-116 2q-331 6 -448 6h-31q-14 0 -92 -4q-59 -6 -86 -6q-41 0 -41 12q0 11 41 14q67 6 91 51.5t24 157.5v402l-117 -43q-35 -15 -35 2q0 11 25 20l127 45v496
q0 112 -24 157.5t-91 51.5q-41 3 -41 14q0 12 41 12q27 0 86 -6q78 -4 92 -4q12 0 90 4q59 6 88 6q41 0 41 -12q0 -11 -41 -14q-67 -6 -90.5 -51.5t-23.5 -157.5v-449l258 93q34 15 34 0q0 -14 -24 -23l-268 -96v-385q0 -151 56 -206.5t204 -55.5q38 0 155 6q225 9 277 248
q4 20 10 29t14 7z" />
    <glyph glyph-name="lslash" unicode="&#x142;" horiz-adv-x="569" 
d="M510 813l-168 -59v-529q0 -112 24 -157.5t91 -51.5q41 -3 41 -14q0 -12 -41 -12q-31 0 -90 6q-78 4 -88 4q-15 0 -93 -4q-58 -6 -86 -6q-41 0 -41 12q0 11 41 14q67 6 91 51.5t24 157.5v482l-156 -56q-8 -3 -13 2t-4 12.5t9 10.5l164 59v543q0 56 -18 65q-17 11 -111 -4
q-28 -6 -31 2q-7 13 19 23q140 53 229 115q29 16 31 16q8 0 8 -41v-674l160 58q8 3 13 -2t4 -12.5t-9 -10.5z" />
    <glyph glyph-name="Nacute" unicode="&#x143;" horiz-adv-x="1585" 
d="M610 1501q-9 9 15 39l168 195q46 49 139 49q44 0 48 -21.5t-32 -44.5l-301 -200q-35 -21 -37 -17zM1298 2l-1003 1221l-4 6q-19 19 -19 8q-2 -6 -2 -53v-37l-2 -922q0 -112 24 -157.5t91 -51.5q41 -3 41 -14q0 -12 -41 -12q-10 0 -64.5 5t-78.5 5q-13 0 -72 -5t-86 -5
q-41 0 -41 12q0 11 41 14q85 7 112 50.5t29 158.5l19 922q2 116 -21.5 159.5t-91.5 49.5q-41 3 -41 14q0 12 41 12q27 0 86 -6q78 -4 88 -4h10q29 0 49 -26l926 -1110q12 -15 17 -18t6.5 2t1.5 24l-13 903q-2 112 -26.5 157.5t-91.5 51.5q-41 3 -41 14q0 12 41 12
q10 0 64.5 -5t78.5 -5q13 0 72 5t86 5q41 0 41 -12q0 -11 -41 -14q-84 -7 -109.5 -49.5t-27.5 -159.5l-5 -1106q0 -62 -15 -62q-9 -1 -28 23z" />
    <glyph glyph-name="nacute" unicode="&#x144;" horiz-adv-x="1214" 
d="M805 1309l-250 -179q-35 -21 -37 -16q-9 9 14 39l146 174q46 49 110 49q44 0 48.5 -22t-31.5 -45zM1108 16q41 -3 41 -14q0 -12 -41 -12q-16 0 -72 6q-70 4 -84 4q-26 0 -86 -5t-69 -5q-41 0 -41 12q0 11 41 14q53 4 73.5 48t20.5 141v428q0 338 -236 338
q-101 0 -190 -68q-86 -68 -107 -168v-510q0 -112 24 -157.5t91 -51.5q41 -3 41 -14q0 -12 -41 -12q-32 0 -90 6q-78 4 -88 4q-14 0 -92 -4q-59 -6 -86 -6q-41 0 -41 12q0 11 41 14q67 6 90.5 51.5t23.5 157.5v582q0 56 -18 65q-17 11 -111 -4q-27 -6 -30 2q-7 10 22 23
q97 40 182 100q45 31 46 31q36 0 36 -195v-2q62 90 157.5 143.5t205.5 53.5q150 0 221.5 -86.5t71.5 -239.5v-493q0 -97 20.5 -141t73.5 -48z" />
    <glyph glyph-name="uni0145" unicode="&#x145;" horiz-adv-x="1585" 
d="M1298 2l-1003 1221l-4 6q-19 19 -19 8q-2 -6 -2 -53v-37l-2 -922q0 -112 24 -157.5t91 -51.5q41 -3 41 -14q0 -12 -41 -12q-10 0 -64.5 5t-78.5 5q-13 0 -72 -5t-86 -5q-41 0 -41 12q0 11 41 14q85 7 112 50.5t29 158.5l19 922q2 116 -21.5 159.5t-91.5 49.5
q-41 3 -41 14q0 12 41 12q27 0 86 -6q78 -4 88 -4h10q29 0 49 -26l926 -1110q12 -15 17 -18t6.5 2t1.5 24l-13 903q-2 112 -26.5 157.5t-91.5 51.5q-41 3 -41 14q0 12 41 12q10 0 64.5 -5t78.5 -5q13 0 72 5t86 5q41 0 41 -12q0 -11 -41 -14q-84 -7 -109.5 -49.5
t-27.5 -159.5l-5 -1106q0 -62 -15 -62q-9 -1 -28 23zM698 -532q-9 12 11 32q79 79 79 138q0 36 -47 45q-36 7 -61 29.5t-25 58.5q0 35 23.5 56t60.5 21q47 0 84 -37.5t37 -97.5t-38.5 -125.5t-92.5 -111.5q-21 -18 -31 -8z" />
    <glyph glyph-name="uni0146" unicode="&#x146;" horiz-adv-x="1214" 
d="M1108 16q41 -3 41 -14q0 -12 -41 -12q-16 0 -72 6q-70 4 -84 4q-26 0 -86 -5t-69 -5q-41 0 -41 12q0 11 41 14q53 4 73.5 48t20.5 141v428q0 338 -236 338q-101 0 -190 -68q-86 -68 -107 -168v-510q0 -112 24 -157.5t91 -51.5q41 -3 41 -14q0 -12 -41 -12q-32 0 -90 6
q-78 4 -88 4q-14 0 -92 -4q-59 -6 -86 -6q-41 0 -41 12q0 11 41 14q67 6 90.5 51.5t23.5 157.5v582q0 56 -18 65q-17 11 -111 -4q-27 -6 -30 2q-7 10 22 23q97 40 182 100q45 31 46 31q36 0 36 -195v-2q62 90 157.5 143.5t205.5 53.5q150 0 221.5 -86.5t71.5 -239.5v-493
q0 -97 20.5 -141t73.5 -48zM614 -152q47 0 84 -37.5t37 -97.5t-38.5 -125.5t-92.5 -111.5q-21 -18 -31 -8q-11 10 11 32q80 80 80 138q0 36 -48 45q-36 7 -61 29.5t-25 58.5q0 35 23.5 56t60.5 21z" />
    <glyph glyph-name="Ncaron" unicode="&#x147;" horiz-adv-x="1585" 
d="M645 1495q-67 104 -151 182q-38 33 -29 45q9 17 53 -16q133 -115 174 -115q26 0 174 115q43 34 54 16q9 -12 -29 -45q-77 -65 -152 -182q-20 -29 -47.5 -29t-46.5 29zM1298 2l-1003 1221l-4 6q-19 19 -19 8q-2 -6 -2 -53v-37l-2 -922q0 -112 24 -157.5t91 -51.5
q41 -3 41 -14q0 -12 -41 -12q-10 0 -64.5 5t-78.5 5q-13 0 -72 -5t-86 -5q-41 0 -41 12q0 11 41 14q85 7 112 50.5t29 158.5l19 922q2 116 -21.5 159.5t-91.5 49.5q-41 3 -41 14q0 12 41 12q27 0 86 -6q78 -4 88 -4h10q29 0 49 -26l926 -1110q12 -15 17 -18t6.5 2t1.5 24
l-13 903q-2 112 -26.5 157.5t-91.5 51.5q-41 3 -41 14q0 12 41 12q10 0 64.5 -5t78.5 -5q13 0 72 5t86 5q41 0 41 -12q0 -11 -41 -14q-84 -7 -109.5 -49.5t-27.5 -159.5l-5 -1106q0 -62 -15 -62q-9 -1 -28 23z" />
    <glyph glyph-name="ncaron" unicode="&#x148;" horiz-adv-x="1214" 
d="M590 1126q-57 111 -135 195q-34 34 -25 47q11 18 51 -20q125 -125 156 -125q6 0 14.5 4t21.5 13.5t23.5 18t27 23.5t25 23t25 24t19.5 19q40 34 51 20q9 -13 -25 -47q-72 -72 -135 -195q-17 -30 -47 -30t-47 30zM1108 16q41 -3 41 -14q0 -12 -41 -12q-16 0 -72 6
q-70 4 -84 4q-26 0 -86 -5t-69 -5q-41 0 -41 12q0 11 41 14q53 4 73.5 48t20.5 141v428q0 338 -236 338q-101 0 -190 -68q-86 -68 -107 -168v-510q0 -112 24 -157.5t91 -51.5q41 -3 41 -14q0 -12 -41 -12q-32 0 -90 6q-78 4 -88 4q-14 0 -92 -4q-59 -6 -86 -6q-41 0 -41 12
q0 11 41 14q67 6 90.5 51.5t23.5 157.5v582q0 56 -18 65q-17 11 -111 -4q-27 -6 -30 2q-7 10 22 23q97 40 182 100q45 31 46 31q36 0 36 -195v-2q62 90 157.5 143.5t205.5 53.5q150 0 221.5 -86.5t71.5 -239.5v-493q0 -97 20.5 -141t73.5 -48z" />
    <glyph glyph-name="Omacron" unicode="&#x14c;" horiz-adv-x="1636" 
d="M1024 1552h-455q-25 0 -36.5 6t-6.5 17q9 22 43 22h457q24 0 35.5 -6t7.5 -16q-10 -23 -45 -23zM821 -20q-330 0 -524 200q-195 204 -195 502q0 309 205 508q206 203 514 203q338 0 525 -193q188 -194 188 -518q0 -298 -199 -500q-196 -202 -514 -202zM856 8
q258 0 393 178q137 177 137 447q0 310 -161 518q-160 213 -426 213q-260 0 -404 -184q-143 -180 -143 -457q0 -304 162 -508q165 -207 442 -207z" />
    <glyph glyph-name="omacron" unicode="&#x14d;" horiz-adv-x="1187" 
d="M803 1184h-455q-25 0 -36 6t-7 16q10 23 43 23h457q23 0 35 -6.5t8 -16.5q-9 -22 -45 -22zM586 -20q-219 0 -363 141q-145 142 -145 368q0 232 151 383q155 152 377 152q223 0 363 -143q141 -141 141 -369q0 -233 -147 -383q-143 -149 -377 -149zM623 8q169 0 260.5 114
t91.5 318q0 231 -103 396q-102 163 -292 163q-164 0 -265 -125q-100 -121 -100 -327q0 -221 109 -381q112 -158 299 -158z" />
    <glyph glyph-name="Ohungarumlaut" unicode="&#x150;" horiz-adv-x="1636" 
d="M598 1520q-3 3 12 32l90 166q23 45 86 45q47 0 2 -51l-159 -180q-21 -22 -31 -12zM844 1520q-6 6 12 32l111 166q18 27 35.5 36t56.5 9q53 0 2 -51l-187 -180q-21 -21 -30 -12zM821 -20q-330 0 -524 200q-195 204 -195 502q0 309 205 508q206 203 514 203q338 0 525 -193
q188 -194 188 -518q0 -298 -199 -500q-196 -202 -514 -202zM856 8q258 0 393 178q137 177 137 447q0 310 -161 518q-160 213 -426 213q-260 0 -404 -184q-143 -180 -143 -457q0 -304 162 -508q165 -207 442 -207z" />
    <glyph glyph-name="ohungarumlaut" unicode="&#x151;" horiz-adv-x="1187" 
d="M397 1151q-2 2 13 33l90 166q23 45 86 45q48 0 2 -52l-160 -180q-22 -21 -31 -12zM582 1151q-6 6 12 33l111 166q18 27 35.5 36t56.5 9q15 0 21.5 -4.5t4.5 -12t-8 -16.5t-16 -19l-187 -180q-21 -21 -30 -12zM586 -20q-219 0 -363 141q-145 142 -145 368q0 232 151 383
q155 152 377 152q223 0 363 -143q141 -141 141 -369q0 -233 -147 -383q-143 -149 -377 -149zM623 8q169 0 260.5 114t91.5 318q0 231 -103 396q-102 163 -292 163q-164 0 -265 -125q-100 -121 -100 -327q0 -221 109 -381q112 -158 299 -158z" />
    <glyph glyph-name="OE" unicode="&#x152;" horiz-adv-x="2322" 
d="M2212 315q12 -3 6 -43q-27 -165 -33 -235q-3 -28 -12 -37q-10 -10 -31 -10q-5 0 -32.5 0.5t-83 1.5t-115.5 2q-307 6 -426 6q-21 0 -103 -4q-62 -6 -88 -6q-41 0 -41 12q0 11 41 14q67 6 91 51.5t24 157.5v45q-95 -137 -247 -213.5t-341 -76.5q-330 0 -524 200
q-195 204 -195 502q0 309 205 508q206 203 514 203q399 0 588 -269v23q0 112 -24 157.5t-91 51.5q-41 3 -41 14q0 12 41 12q14 0 90 -5t109 -5q30 0 367 6q60 1 115.5 2t83 1.5t32.5 0.5q23 0 30.5 -9.5t12.5 -37.5q8 -74 31 -174q9 -40 -4 -43q-6 -2 -13 6.5t-14 28.5
q-41 97 -100 137.5t-174 50.5q-132 10 -283 2q-27 -2 -34 -14t-7 -61v-535h256q110 0 162.5 33.5t58.5 107.5q3 41 15 41t12 -41q0 -13 -4 -83t-4 -74q0 -2 4 -80t4 -88q0 -41 -12 -41t-15 41q-12 151 -221 151h-256v-413q0 -145 61 -203.5t199 -58.5q54 0 115 6
q224 18 276 248q4 20 10.5 29t14.5 7zM856 8q258 0 393 178q137 177 137 447q0 310 -161 518q-160 213 -426 213q-260 0 -404 -184q-143 -180 -143 -457q0 -304 162 -508q165 -207 442 -207z" />
    <glyph glyph-name="oe" unicode="&#x153;" horiz-adv-x="1888" 
d="M1798 285q10 -7 -4 -33q-68 -128 -177 -200t-228 -72q-101 0 -201.5 59.5t-165.5 161.5q-150 -221 -436 -221q-219 0 -363 141q-145 142 -145 368q0 232 151 383q155 152 377 152q133 0 241.5 -55.5t176.5 -155.5q144 211 438 211q148 0 240 -94t104 -254q3 -41 -39 -41
h-657q0 -5 -2 -26t-2 -29q4 -62 4 -68v-35q17 -187 112.5 -289t245.5 -102q80 0 165.5 46.5t138.5 129.5q14 26 26 23zM623 8q169 0 260.5 114t91.5 318q0 231 -103 396q-102 163 -292 163q-164 0 -265 -125q-100 -121 -100 -327q0 -221 109 -381q112 -158 299 -158z
M1399 995q-113 0 -190 -90.5t-97 -249.5l469 19q102 3 76 108q-25 96 -94 154.5t-164 58.5z" />
    <glyph glyph-name="Racute" unicode="&#x154;" horiz-adv-x="1273" 
d="M795 1739l-301 -201q-34 -21 -37 -16q-9 9 14 39l168 194q46 49 139 49q44 0 48.5 -21t-31.5 -44zM1266 12q41 0 41 -8q0 -10 -37 -16q-49 -8 -123 -8q-91 0 -148 69q-53 62 -102 166l-129 274q-48 101 -103.5 146t-140.5 57q-19 2 -127 10v-477q0 -112 24 -157.5
t91 -51.5q41 -3 41 -14q0 -12 -41 -12q-29 0 -88 6q-78 4 -90 4q-14 0 -92 -4q-58 -6 -86 -6q-41 0 -41 12q0 11 41 14q67 6 90.5 51.5t23.5 157.5v922q0 112 -23.5 157.5t-90.5 51.5q-41 3 -41 14q0 12 41 12q28 0 86 -6q78 -4 92 -4q37 0 160 10q139 11 170 11
q164 0 278 -105q115 -106 115 -235q0 -161 -98.5 -251t-270.5 -108q153 -43 223 -190l103 -223q63 -140 121.5 -204.5t130.5 -64.5zM397 1337v-610q185 -18 273 -4q250 38 250 326q0 139 -91 221t-266 82q-67 0 -166 -15z" />
    <glyph glyph-name="racute" unicode="&#x155;" horiz-adv-x="800" 
d="M561 1309l-250 -179q-35 -21 -37 -16q-9 9 15 39l145 174q46 49 111 49q44 0 48 -22t-32 -45zM637 1024q58 0 90.5 -25.5t32.5 -64.5q0 -34 -27.5 -59t-60.5 -25q-29 0 -84 22q-57 23 -90 23q-88 0 -152 -104q-10 -17 -20 -48v-518q0 -114 30.5 -158.5t124.5 -50.5
q41 -3 41 -14q0 -12 -41 -12q-55 0 -125 6l-94 4q-20 0 -86 -4q-49 -6 -57 -6q-41 0 -41 12q0 10 41 16q44 7 62 54.5t18 152.5v582q0 55 -19 65q-17 11 -110 -4q-28 -6 -31 2q-7 10 22 23q92 36 183 100l45 31q37 0 37 -195v-22q66 84 151 149q89 68 160 68z" />
    <glyph glyph-name="uni0156" unicode="&#x156;" horiz-adv-x="1273" 
d="M1266 12q41 0 41 -8q0 -10 -37 -16q-49 -8 -123 -8q-91 0 -148 69q-53 62 -102 166l-129 274q-48 101 -103.5 146t-140.5 57q-19 2 -127 10v-477q0 -112 24 -157.5t91 -51.5q41 -3 41 -14q0 -12 -41 -12q-29 0 -88 6q-78 4 -90 4q-14 0 -92 -4q-58 -6 -86 -6
q-41 0 -41 12q0 11 41 14q67 6 90.5 51.5t23.5 157.5v922q0 112 -23.5 157.5t-90.5 51.5q-41 3 -41 14q0 12 41 12q28 0 86 -6q78 -4 92 -4q37 0 160 10q139 11 170 11q164 0 278 -105q115 -106 115 -235q0 -161 -98.5 -251t-270.5 -108q153 -43 223 -190l103 -223
q63 -140 121.5 -204.5t130.5 -64.5zM397 1337v-610q185 -18 273 -4q250 38 250 326q0 139 -91 221t-266 82q-67 0 -166 -15zM702 -152q47 0 84 -37.5t37 -97.5t-38.5 -125.5t-92.5 -111.5q-20 -18 -30 -8q-9 13 10 32q80 80 80 138q0 36 -47 45q-36 7 -61.5 29.5t-25.5 58.5
q0 35 23.5 56t60.5 21z" />
    <glyph glyph-name="uni0157" unicode="&#x157;" horiz-adv-x="800" 
d="M637 1024q58 0 90.5 -25.5t32.5 -64.5q0 -34 -27.5 -59t-60.5 -25q-29 0 -84 22q-57 23 -90 23q-88 0 -152 -104q-10 -17 -20 -48v-518q0 -114 30.5 -158.5t124.5 -50.5q41 -3 41 -14q0 -12 -41 -12q-55 0 -125 6l-94 4q-20 0 -86 -4q-49 -6 -57 -6q-41 0 -41 12
q0 10 41 16q44 7 62 54.5t18 152.5v582q0 55 -19 65q-17 11 -110 -4q-28 -6 -31 2q-7 10 22 23q92 36 183 100l45 31q37 0 37 -195v-22q66 84 151 149q89 68 160 68zM240 -147q47 0 83.5 -38t36.5 -98t-38.5 -125.5t-92.5 -111.5q-20 -18 -30 -8q-9 13 10 32q80 80 80 138
q0 36 -47 45q-36 7 -61 29.5t-25 58.5q0 35 23.5 56.5t60.5 21.5z" />
    <glyph glyph-name="Rcaron" unicode="&#x158;" horiz-adv-x="1273" 
d="M340 1698q-38 33 -29 45q8 17 54 -17q132 -114 174 -114q27 0 174 114q43 34 53 17q9 -12 -29 -45q-75 -63 -151 -182q-20 -29 -47.5 -29t-46.5 29q-65 102 -152 182zM1266 12q41 0 41 -8q0 -10 -37 -16q-49 -8 -123 -8q-91 0 -148 69q-53 62 -102 166l-129 274
q-48 101 -103.5 146t-140.5 57q-19 2 -127 10v-477q0 -112 24 -157.5t91 -51.5q41 -3 41 -14q0 -12 -41 -12q-29 0 -88 6q-78 4 -90 4q-14 0 -92 -4q-58 -6 -86 -6q-41 0 -41 12q0 11 41 14q67 6 90.5 51.5t23.5 157.5v922q0 112 -23.5 157.5t-90.5 51.5q-41 3 -41 14
q0 12 41 12q28 0 86 -6q78 -4 92 -4q37 0 160 10q139 11 170 11q164 0 278 -105q115 -106 115 -235q0 -161 -98.5 -251t-270.5 -108q153 -43 223 -190l103 -223q63 -140 121.5 -204.5t130.5 -64.5zM397 1337v-610q185 -18 273 -4q250 38 250 326q0 139 -91 221t-266 82
q-67 0 -166 -15z" />
    <glyph glyph-name="rcaron" unicode="&#x159;" horiz-adv-x="800" 
d="M346 1126q-57 111 -135 195q-34 34 -25 47q11 18 52 -20q125 -125 155 -125q6 0 14.5 4t21.5 13.5t23.5 18t27 23.5t25 23t25 24t19.5 19q40 34 51 20q9 -13 -25 -47q-72 -72 -135 -195q-17 -30 -47 -30t-47 30zM637 1024q58 0 90.5 -25.5t32.5 -64.5q0 -34 -27.5 -59
t-60.5 -25q-29 0 -84 22q-57 23 -90 23q-88 0 -152 -104q-10 -17 -20 -48v-518q0 -114 30.5 -158.5t124.5 -50.5q41 -3 41 -14q0 -12 -41 -12q-55 0 -125 6l-94 4q-20 0 -86 -4q-49 -6 -57 -6q-41 0 -41 12q0 10 41 16q44 7 62 54.5t18 152.5v582q0 55 -19 65
q-17 11 -110 -4q-28 -6 -31 2q-7 10 22 23q92 36 183 100l45 31q37 0 37 -195v-22q66 84 151 149q89 68 160 68z" />
    <glyph glyph-name="Sacute" unicode="&#x15a;" horiz-adv-x="962" 
d="M328 1522q-9 9 14 39l168 194q46 49 139 49q44 0 48.5 -21t-31.5 -44l-301 -201q-35 -21 -37 -16zM428 -20q-153 -6 -278 67q-37 23 -46 62q-22 93 -22 186q0 41 12 41q14 0 17 -29q18 -141 96 -213q101 -90 235 -90q147 0 224 80q79 82 79 188q0 119 -88 207
q-56 56 -79 72l-105 74q-77 52 -115 80q-47 40 -90 83q-98 104 -98 252q0 149 115 252q116 101 288 101q92 0 213 -41q40 -12 37 -39q-9 -88 -2 -152q6 -38 -6 -41q-6 -2 -13 8.5t-11 28.5q-24 90 -56 127q-72 84 -190 84q-115 0 -190.5 -76.5t-75.5 -193.5q0 -86 55 -170
q21 -30 67 -70q15 -13 74 -59l86 -58q63 -42 111 -77q30 -20 90 -80q98 -93 98 -234q0 -184 -123 -276q-127 -91 -309 -94z" />
    <glyph glyph-name="sacute" unicode="&#x15b;" horiz-adv-x="843" 
d="M274 1114q-9 9 15 39l145 174q46 49 111 49q44 0 48 -22t-32 -45l-250 -179q-35 -21 -37 -16zM412 -20q-157 0 -262 63q-38 23 -46 61q-12 50 -12 207q0 41 12 41q14 0 17 -28q15 -140 102 -224q96 -90 238 -90q81 0 137.5 50t56.5 133q0 60 -20 94q-4 6 -10 18
t-9.5 17.5t-11.5 14.5t-20 17q-9 7 -18.5 14.5t-14 11t-14.5 9.5t-27 14l-41 19q-20 10 -47 20l-43 21q-88 38 -150 76q-57 39 -83.5 89t-32.5 134q-3 118 90 190t227 72q146 0 234 -49q28 -16 28 -43q-3 -90 0 -154q0 -30 -6 -30q-7 0 -16 28q-65 219 -289 219
q-84 0 -135 -47t-51 -121q0 -87 55 -138.5t188 -110.5q158 -70 205 -105q98 -76 98 -201q0 -137 -90 -214.5t-239 -77.5z" />
    <glyph glyph-name="Scedilla" unicode="&#x15e;" horiz-adv-x="962" 
d="M860 350q0 -167 -105.5 -260.5t-283.5 -107.5l-86 -91q58 -25 83 -64.5t16.5 -78.5t-34 -74t-67.5 -56t-84 -19q-67 0 -100 26q-27 21 -10 45t47 6q56 -41 112 -41q29 0 50.5 20t21.5 58q0 56 -66 97q-8 4 -22 9.5t-24 8.5t-11 4q-9 9 18 39l103 109q-155 0 -268 67
q-37 23 -46 62q-22 93 -22 186q0 41 12 41q14 0 17 -29q18 -141 96 -213q101 -90 235 -90q147 0 224 80q79 82 79 188q0 119 -88 207q-56 56 -79 72l-105 74q-77 52 -115 80q-47 40 -90 83q-98 104 -98 252q0 149 115 252q116 101 288 101q92 0 213 -41q40 -12 37 -39
q-9 -88 -2 -152q6 -38 -6 -41q-6 -2 -13 8.5t-11 28.5q-24 90 -56 127q-72 84 -190 84q-115 0 -190.5 -76.5t-75.5 -193.5q0 -86 55 -170q21 -30 67 -70q15 -13 74 -59l86 -58q63 -42 111 -77q30 -20 90 -80q98 -93 98 -234z" />
    <glyph glyph-name="scedilla" unicode="&#x15f;" horiz-adv-x="843" 
d="M741 272q0 -131 -82.5 -207.5t-220.5 -84.5l-86 -89q58 -25 83 -64.5t16.5 -78.5t-34 -74t-67.5 -56t-84 -19q-67 0 -100 26q-27 21 -10 45t47 6q56 -41 112 -41q29 0 50.5 20t21.5 58q0 56 -65 97q-8 4 -22 9.5t-24.5 8.5t-11.5 4q-8 8 19 39l104 109q-141 6 -237 63
q-38 23 -46 61q-12 50 -12 207q0 41 12 41q14 0 17 -28q15 -140 102 -224q96 -90 238 -90q81 0 137.5 50t56.5 133q0 60 -20 94q-4 6 -10 18t-9.5 17.5t-11.5 14.5t-20 17q-9 7 -18.5 14.5t-14 11t-14.5 9.5t-27 14l-41 19q-20 10 -47 20l-43 21q-88 38 -150 76
q-57 39 -83.5 89t-32.5 134q-3 118 90 190t227 72q146 0 234 -49q28 -16 28 -43q-3 -90 0 -154q0 -30 -6 -30q-7 0 -16 28q-65 219 -289 219q-84 0 -135 -47t-51 -121q0 -87 55 -138.5t188 -110.5q158 -70 205 -105q98 -76 98 -201z" />
    <glyph glyph-name="Scaron" unicode="&#x160;" horiz-adv-x="962" 
d="M362 1516q-67 104 -151 182q-38 33 -29 45q8 17 54 -17q132 -114 174 -114q27 0 174 114q43 34 53 17q9 -12 -29 -45q-75 -63 -151 -182q-20 -29 -48 -29t-47 29zM428 -20q-153 -6 -278 67q-37 23 -46 62q-22 93 -22 186q0 41 12 41q14 0 17 -29q18 -141 96 -213
q101 -90 235 -90q147 0 224 80q79 82 79 188q0 119 -88 207q-56 56 -79 72l-105 74q-77 52 -115 80q-47 40 -90 83q-98 104 -98 252q0 149 115 252q116 101 288 101q92 0 213 -41q40 -12 37 -39q-9 -88 -2 -152q6 -38 -6 -41q-6 -2 -13 8.5t-11 28.5q-24 90 -56 127
q-72 84 -190 84q-115 0 -190.5 -76.5t-75.5 -193.5q0 -86 55 -170q21 -30 67 -70q15 -13 74 -59l86 -58q63 -42 111 -77q30 -20 90 -80q98 -93 98 -234q0 -184 -123 -276q-127 -91 -309 -94z" />
    <glyph glyph-name="scaron" unicode="&#x161;" horiz-adv-x="843" 
d="M346 1126q-57 111 -135 195q-34 34 -25 47q11 18 52 -20q125 -125 155 -125q6 0 14.5 4t21.5 13.5t23.5 18t27 23.5t25 23t25 24t19.5 19q40 34 51 20q9 -13 -25 -47q-72 -72 -135 -195q-17 -30 -47 -30t-47 30zM412 -20q-157 0 -262 63q-38 23 -46 61q-12 50 -12 207
q0 41 12 41q14 0 17 -28q15 -140 102 -224q96 -90 238 -90q81 0 137.5 50t56.5 133q0 60 -20 94q-4 6 -10 18t-9.5 17.5t-11.5 14.5t-20 17q-9 7 -18.5 14.5t-14 11t-14.5 9.5t-27 14l-41 19q-20 10 -47 20l-43 21q-88 38 -150 76q-57 39 -83.5 89t-32.5 134q-3 118 90 190
t227 72q146 0 234 -49q28 -16 28 -43q-3 -90 0 -154q0 -30 -6 -30q-7 0 -16 28q-65 219 -289 219q-84 0 -135 -47t-51 -121q0 -87 55 -138.5t188 -110.5q158 -70 205 -105q98 -76 98 -201q0 -137 -90 -214.5t-239 -77.5z" />
    <glyph glyph-name="uni0162" unicode="&#x162;" horiz-adv-x="1257" 
d="M1192 1413q2 11 10 14.5t14.5 -3t4.5 -19.5q-14 -82 -23 -254q0 -19 -4.5 -30t-9.5 -11q-17 3 -17 43q0 117 -34 154q-32 38 -146 41h-301v-1123q0 -112 24 -157.5t91 -51.5q41 -3 41 -14q0 -12 -41 -12q-29 0 -82 6q-70 4 -74 4l-84 -88q58 -25 83 -64.5t16.5 -78.5
t-34 -74t-67.5 -56.5t-84 -19.5q-65 0 -100 27q-17 13 -15 31t16.5 24t35.5 -4q56 -41 112 -41q29 0 50.5 20t21.5 58q0 55 -66 96q-8 4 -22 9.5t-24 9t-11 4.5q-8 8 19 38l102 109q-14 0 -72 -5t-78 -5q-41 0 -41 12q0 11 41 14q67 6 91 51.5t24 157.5v1123h-280
q-112 -3 -156 -41q-43 -37 -78 -152q-6 -20 -12.5 -29.5t-14.5 -7.5q-13 3 -4 43q30 126 33 244q0 22 16 22q10 0 13 -14q4 -24 36.5 -32t94 -8t72.5 -1h708q11 1 72.5 1t95 8t37.5 32z" />
    <glyph glyph-name="uni0163" unicode="&#x163;" horiz-adv-x="780" 
d="M756 162q11 -11 -11 -33q-107 -123 -217 -143l-88 -90q58 -25 83 -64.5t16.5 -78.5t-34 -74t-67.5 -56.5t-84 -19.5q-67 0 -100 26q-27 21 -10 45.5t47 6.5q56 -41 112 -41q29 0 50.5 19.5t21.5 57.5q0 56 -65 97q-8 4 -22 9.5t-24.5 8.5t-11.5 4q-8 8 19 39l100 105h-8
q-135 -1 -193.5 79t-58.5 254v531q0 76 -18 94q-15 18 -89 18q-15 0 -21 6t0 12.5t21 6.5q90 0 142.5 44t52.5 132q0 35 18 35q17 0 17 -35v-166l336 13q16 0 20 -4t4 -23q-3 -43 -30 -43l-330 12v-612q0 -150 44 -211.5t144 -59.5q111 3 201 87q21 21 33 12z" />
    <glyph glyph-name="Tcaron" unicode="&#x164;" horiz-adv-x="1257" 
d="M420 1681q-38 33 -29 45q9 17 53 -16q133 -115 174 -115q27 0 175 115q42 34 53 16q9 -12 -29 -45q-75 -63 -151 -182q-20 -29 -48 -29t-47 29q-67 104 -151 182zM1192 1413q2 11 10 14.5t14.5 -3t4.5 -19.5q-14 -82 -23 -254q0 -19 -4.5 -30t-9.5 -11q-17 3 -17 43
q0 117 -34 154q-32 38 -146 41h-301v-1123q0 -112 24 -157.5t91 -51.5q41 -3 41 -14q0 -12 -41 -12q-31 0 -90 6q-78 4 -88 4q-15 0 -93 -4q-58 -6 -86 -6q-41 0 -41 12q0 11 41 14q67 6 91 51.5t24 157.5v1123h-280q-112 -3 -156 -41q-43 -37 -78 -152q-6 -20 -12.5 -29.5
t-14.5 -7.5q-13 3 -4 43q30 126 33 244q0 22 16 22q10 0 13 -14q4 -24 36.5 -32t94 -8t72.5 -1h708q11 1 72.5 1t95 8t37.5 32z" />
    <glyph glyph-name="tcaron" unicode="&#x165;" horiz-adv-x="780" 
d="M649 1073q0 107 -12 242q-2 31 6 46t45 50q32 31 46.5 26t10.5 -46q-14 -139 -63 -320q-9 -37 -20 -37q-13 0 -13 39zM756 162q11 -11 -11 -33q-125 -146 -282 -149q-135 -1 -193.5 79t-58.5 254v531q0 76 -18 94q-15 18 -89 18q-15 0 -21 6t0 12.5t21 6.5q90 0 142.5 44
t52.5 132q0 35 18 35q17 0 17 -35v-166l336 13q16 0 20 -4t4 -23q-3 -43 -30 -43l-330 12v-612q0 -150 44 -211.5t144 -59.5q111 3 201 87q21 21 33 12z" />
    <glyph glyph-name="Tbar" unicode="&#x166;" horiz-adv-x="1257" 
d="M1192 1413q2 11 10 14.5t14.5 -3t4.5 -19.5q-14 -82 -23 -254q0 -19 -4.5 -30t-9.5 -11q-17 3 -17 43q0 117 -34 154q-32 38 -146 41h-301v-646h137q38 0 35 -12q-6 -16 -31 -16h-141v-449q0 -112 24 -157.5t91 -51.5q41 -3 41 -14q0 -12 -41 -12q-31 0 -90 6
q-78 4 -88 4q-15 0 -93 -4q-58 -6 -86 -6q-41 0 -41 12q0 11 41 14q67 6 91 51.5t24 157.5v449h-137q-18 0 -26.5 4t-6.5 12q3 12 31 12h139v646h-280q-112 -3 -156 -41q-43 -37 -78 -152q-6 -20 -12.5 -29.5t-14.5 -7.5q-13 3 -4 43q30 126 33 244q0 22 16 22q10 0 13 -14
q4 -24 36.5 -32t94 -8t72.5 -1h708q11 1 72.5 1t95 8t37.5 32z" />
    <glyph glyph-name="tbar" unicode="&#x167;" horiz-adv-x="780" 
d="M756 162q11 -11 -11 -33q-125 -146 -282 -149q-135 -1 -193.5 79t-58.5 254v275h-119q-11 0 -16 3.5t-4 10.5q3 14 22 14h117v228q0 76 -18 94q-15 18 -89 18q-15 0 -21 6t0 12.5t21 6.5q90 0 142.5 44t52.5 132q0 35 18 35q17 0 17 -35v-166l336 13q16 0 20 -4t4 -23
q-3 -43 -30 -43l-330 12v-330h217q11 0 16 -3.5t4 -10.5q-3 -14 -22 -14h-215v-254q0 -150 44 -211.5t144 -59.5q111 3 201 87q21 21 33 12z" />
    <glyph glyph-name="Umacron" unicode="&#x16a;" horiz-adv-x="1509" 
d="M991 1552h-454q-25 0 -36.5 6t-6.5 17q9 22 43 22h456q24 0 35.5 -6t7.5 -16q-10 -23 -45 -23zM1395 1382q41 0 41 -12q0 -11 -41 -14q-84 -7 -110 -50t-28 -159q-6 -558 -24 -705q-27 -211 -123 -321q-126 -141 -330 -141q-509 0 -524 497q-6 225 -6 670
q0 112 -24 157.5t-91 51.5q-41 3 -41 14q0 12 41 12q27 0 86 -6q78 -4 92 -4q12 0 90 4q58 6 89 6q40 0 40 -12q0 -11 -40 -14q-67 -6 -91 -51.5t-24 -157.5q0 -427 6 -639q6 -223 106 -339t318 -116q114 0 185 30.5t126 109.5q71 100 86 301q14 191 8 653
q-2 112 -26.5 157.5t-91.5 51.5q-41 3 -41 14q0 12 41 12q10 0 64.5 -5t78.5 -5q13 0 72 5t86 5z" />
    <glyph glyph-name="umacron" unicode="&#x16b;" horiz-adv-x="1261" 
d="M791 1184h-455q-25 0 -36 6t-7 16q10 23 43 23h457q23 0 35 -6.5t8 -16.5q-9 -22 -45 -22zM1159 129q29 6 29 -4q-3 -12 -25 -21q-96 -35 -211 -116q-8 -8 -20 -8q-15 0 -21 22q-20 70 -20 180v13q-62 -97 -158.5 -156t-208.5 -59q-150 0 -221.5 86t-71.5 239v502
q0 56 -18 65q-17 11 -111 -4q-27 -6 -30 2q-7 14 18 23q140 53 229 115q29 16 35 16q9 0 6 -41q-5 -56 -8 -180v-244q2 -92 2 -207q-3 -319 236 -319q88 0 172.5 58t128.5 149v567q0 55 -19 65q-17 11 -110 -4q-28 -6 -31 2q-7 13 19 23q140 53 229 115q29 16 35 16
q9 0 6 -41q-8 -96 -8 -365q0 -258 6 -436q2 -45 24.5 -54.5t116.5 1.5z" />
    <glyph glyph-name="Uring" unicode="&#x16e;" horiz-adv-x="1509" 
d="M770 1372q-84 0 -137 48.5t-53 123.5q0 70 61 125q63 57 141 57q82 0 135 -48.5t52 -121.5q3 -69 -60 -129q-61 -55 -139 -55zM772 1700q-60 0 -95.5 -40t-33.5 -106q0 -61 42.5 -108t96.5 -47q55 0 89 39.5t36 105.5q3 58 -43 107q-43 49 -92 49zM1395 1382q41 0 41 -12
q0 -11 -41 -14q-84 -7 -110 -50t-28 -159q-6 -558 -24 -705q-27 -211 -123 -321q-126 -141 -330 -141q-509 0 -524 497q-6 225 -6 670q0 112 -24 157.5t-91 51.5q-41 3 -41 14q0 12 41 12q27 0 86 -6q78 -4 92 -4q12 0 90 4q58 6 89 6q40 0 40 -12q0 -11 -40 -14
q-67 -6 -91 -51.5t-24 -157.5q0 -427 6 -639q6 -223 106 -339t318 -116q114 0 185 30.5t126 109.5q71 100 86 301q14 191 8 653q-2 112 -26.5 157.5t-91.5 51.5q-41 3 -41 14q0 12 41 12q10 0 64.5 -5t78.5 -5q13 0 72 5t86 5z" />
    <glyph glyph-name="uring" unicode="&#x16f;" horiz-adv-x="1261" 
d="M569 1081q-84 0 -137 48.5t-53 123.5q0 70 61 125q64 58 142 58q82 0 134.5 -48.5t51.5 -121.5q3 -70 -59 -129q-62 -56 -140 -56zM571 1409q-60 0 -95 -39.5t-34 -105.5q0 -61 43 -108.5t97 -47.5q55 0 89 39.5t36 105.5q3 58 -43 107q-43 49 -93 49zM1159 129
q29 6 29 -4q-3 -12 -25 -21q-96 -35 -211 -116q-8 -8 -20 -8q-15 0 -21 22q-20 70 -20 180v13q-62 -97 -158.5 -156t-208.5 -59q-150 0 -221.5 86t-71.5 239v502q0 56 -18 65q-17 11 -111 -4q-27 -6 -30 2q-7 14 18 23q140 53 229 115q29 16 35 16q9 0 6 -41q-5 -56 -8 -180
v-244q2 -92 2 -207q-3 -319 236 -319q88 0 172.5 58t128.5 149v567q0 55 -19 65q-17 11 -110 -4q-28 -6 -31 2q-7 13 19 23q140 53 229 115q29 16 35 16q9 0 6 -41q-8 -96 -8 -365q0 -258 6 -436q2 -45 24.5 -54.5t116.5 1.5z" />
    <glyph glyph-name="Uhungarumlaut" unicode="&#x170;" horiz-adv-x="1509" 
d="M756 1712l-160 -180q-22 -22 -31 -12q-2 2 13 32l90 166q23 45 86 45q47 0 2 -51zM1028 1712l-186 -180q-22 -22 -31 -12q-6 6 12 32l111 166q18 27 35.5 36t56.5 9q53 0 2 -51zM1395 1382q41 0 41 -12q0 -11 -41 -14q-84 -7 -110 -50t-28 -159q-6 -558 -24 -705
q-27 -211 -123 -321q-126 -141 -330 -141q-509 0 -524 497q-6 225 -6 670q0 112 -24 157.5t-91 51.5q-41 3 -41 14q0 12 41 12q27 0 86 -6q78 -4 92 -4q12 0 90 4q58 6 89 6q40 0 40 -12q0 -11 -40 -14q-67 -6 -91 -51.5t-24 -157.5q0 -427 6 -639q6 -223 106 -339t318 -116
q114 0 185 30.5t126 109.5q71 100 86 301q14 191 8 653q-2 112 -26.5 157.5t-91.5 51.5q-41 3 -41 14q0 12 41 12q10 0 64.5 -5t78.5 -5q13 0 72 5t86 5z" />
    <glyph glyph-name="uhungarumlaut" unicode="&#x171;" horiz-adv-x="1261" 
d="M575 1343l-159 -180q-22 -21 -31 -12q-3 3 12 33l90 166q23 45 86 45q48 0 2 -52zM569 1151q-5 5 13 33l110 166q18 27 35.5 36t56.5 9q15 0 21.5 -4.5t4.5 -12t-8 -16.5t-16 -19l-186 -180q-22 -21 -31 -12zM1159 129q29 6 29 -4q-3 -12 -25 -21q-96 -35 -211 -116
q-8 -8 -20 -8q-15 0 -21 22q-20 70 -20 180v13q-62 -97 -158.5 -156t-208.5 -59q-150 0 -221.5 86t-71.5 239v502q0 56 -18 65q-17 11 -111 -4q-27 -6 -30 2q-7 14 18 23q140 53 229 115q29 16 35 16q9 0 6 -41q-5 -56 -8 -180v-244q2 -92 2 -207q-3 -319 236 -319
q88 0 172.5 58t128.5 149v567q0 55 -19 65q-17 11 -110 -4q-28 -6 -31 2q-7 13 19 23q140 53 229 115q29 16 35 16q9 0 6 -41q-8 -96 -8 -365q0 -258 6 -436q2 -45 24.5 -54.5t116.5 1.5z" />
    <glyph glyph-name="Uogonek" unicode="&#x172;" horiz-adv-x="1509" 
d="M1395 1382q41 0 41 -12q0 -11 -41 -14q-84 -7 -110 -50t-28 -159q-6 -558 -24 -705q-27 -211 -123 -321q-62 -68 -156 -111q-178 -144 -178 -239q0 -37 25 -58.5t59 -21.5q46 0 88 28q19 16 19 0q0 -9 -19 -34q-56 -68 -141 -68q-46 0 -77.5 30.5t-31.5 84.5
q0 106 195 260q-49 -12 -113 -12q-509 0 -524 497q-6 225 -6 670q0 112 -24 157.5t-91 51.5q-41 3 -41 14q0 12 41 12q27 0 86 -6q78 -4 92 -4q12 0 90 4q58 6 89 6q40 0 40 -12q0 -11 -40 -14q-67 -6 -91 -51.5t-24 -157.5q0 -427 6 -639q6 -223 106 -339t318 -116
q114 0 185 30.5t126 109.5q71 100 86 301q14 191 8 653q-2 112 -26.5 157.5t-91.5 51.5q-41 3 -41 14q0 12 41 12q10 0 64.5 -5t78.5 -5q13 0 72 5t86 5z" />
    <glyph glyph-name="uogonek" unicode="&#x173;" horiz-adv-x="1261" 
d="M1159 129q29 6 29 -4q-3 -12 -25 -21q-96 -35 -211 -116q-8 -8 -20 -8q-6 0 -10 4q-101 -94 -101 -172q0 -37 25 -58.5t59 -21.5q46 0 88 28q19 16 19 0q0 -9 -19 -34q-56 -68 -141 -68q-46 0 -77.5 30.5t-31.5 84.5q0 102 166 237q-18 74 -18 172v13
q-62 -97 -158.5 -156t-208.5 -59q-150 0 -221.5 86t-71.5 239v502q0 56 -18 65q-17 11 -111 -4q-27 -6 -30 2q-7 14 18 23q140 53 229 115q29 16 35 16q9 0 6 -41q-5 -56 -8 -180v-244q2 -92 2 -207q-3 -319 236 -319q88 0 172.5 58t128.5 149v567q0 55 -19 65
q-17 11 -110 -4q-28 -6 -31 2q-7 13 19 23q140 53 229 115q29 16 35 16q9 0 6 -41q-8 -96 -8 -365q0 -258 6 -436q2 -45 24.5 -54.5t116.5 1.5z" />
    <glyph glyph-name="Wcircumflex" unicode="&#x174;" horiz-adv-x="2105" 
d="M819 1489q-44 -33 -53 -16q-9 12 29 45q84 78 151 182q19 29 46.5 29t47.5 -29q75 -117 152 -182q38 -33 29 -45q-11 -18 -54 16q-148 115 -174 115q-41 0 -174 -115zM2044 1382q41 0 41 -12q0 -11 -39 -14q-63 -4 -110.5 -56t-88.5 -161l-446 -1159h-27l-330 948
l-360 -948h-27l-409 1175q-36 101 -72 143q-33 38 -113 54q-38 6 -38 14q0 12 41 12q8 0 21 -0.5t37.5 -1.5t43.5 -2q51 -2 102 -2q10 0 92 4q65 6 95 6q41 0 41 -12q0 -11 -41 -14q-141 -9 -76 -197l346 -997l297 825l-59 168q-36 101 -72 143q-33 38 -113 54q-39 6 -39 14
q0 12 41 12q5 0 103 -4q49 -2 102 -2q10 0 92 4q64 6 95 6q40 0 40 -12q0 -11 -40 -14q-141 -9 -76 -197l346 -997l356 995q39 100 23 146.5t-97 52.5q-40 3 -40 14q0 12 40 12q19 0 82.5 -5t83.5 -5q16 0 75 5t77 5z" />
    <glyph glyph-name="wcircumflex" unicode="&#x175;" horiz-adv-x="1748" 
d="M737 1161q-40 -37 -51 -20q-9 13 25 47q79 86 135 194q17 30 47 30t47 -30q62 -121 135 -194q34 -34 25 -47q-11 -14 -51 20q-3 3 -19.5 19t-25 24t-25 23t-27 23.5t-23.5 18t-21.5 13.5t-14.5 4q-31 0 -156 -125zM1436 1004h280q19 0 27 -6t0 -12.5t-27 -6.5
q-61 -4 -91.5 -27.5t-55.5 -81.5l-355 -866q-20 -47 -40 0l-304 762l-311 -762q-21 -48 -41 0l-338 848q-26 64 -54.5 91.5t-82.5 33.5q-19 1 -27 7.5t0 13t27 6.5h363q30 0 30 -13q0 -8 -30 -14q-78 -17 -97.5 -41.5t4.5 -73.5l279 -710l256 671l-12 29q-26 64 -55 91.5
t-83 33.5q-19 1 -27 7.5t0 13t27 6.5h363q31 0 31 -13q0 -8 -31 -14q-78 -17 -97 -41.5t5 -73.5l278 -710l269 704q18 63 1.5 87t-81.5 36q-31 6 -31 12q0 13 31 13z" />
    <glyph glyph-name="Ycircumflex" unicode="&#x176;" horiz-adv-x="1392" 
d="M563 1489q-44 -33 -53 -16q-9 12 29 45q84 78 151 182q19 29 46.5 29t47.5 -29q75 -117 152 -182q38 -33 29 -45q-11 -18 -54 16q-148 115 -174 115q-41 0 -174 -115zM1309 1382q41 0 41 -12q0 -11 -39 -14q-55 -4 -101.5 -42.5t-95.5 -113.5l-362 -559v-418
q0 -112 23.5 -157.5t90.5 -51.5q41 -3 41 -14q0 -12 -41 -12q-32 0 -90 6q-78 4 -88 4q-14 0 -92 -4q-58 -6 -86 -6q-41 0 -41 12q0 11 41 14q67 6 91 51.5t24 157.5v400l-346 557q-103 157 -197 172q-39 6 -39 14q0 12 41 12q8 0 21 -0.5t37.5 -1.5t43.5 -2q51 -2 103 -2
q16 0 102 4q64 6 94 6q41 0 41 -12q0 -11 -41 -14q-69 -5 -85.5 -49t30.5 -129l309 -504l-8 -12l336 544q44 69 26 106.5t-102 43.5q-41 3 -41 14q0 12 41 12q19 0 83 -5t83 -5q16 0 75 5t77 5z" />
    <glyph glyph-name="ycircumflex" unicode="&#x177;" horiz-adv-x="1107" 
d="M432 1161q-40 -37 -51 -20q-9 13 25 47q79 86 135 194q17 30 47 30t47 -30q62 -121 135 -194q34 -34 25 -47q-12 -14 -52 20q-5 5 -20 19t-24.5 23.5t-25 23.5t-26.5 23t-23 18.5t-21 13.5t-15 4q-31 0 -156 -125zM782 1004h281q19 0 27 -6t0 -12.5t-27 -6.5
q-61 -4 -92 -27.5t-56 -81.5l-354 -866q-133 -298 -229 -407q-95 -109 -217 -109q-62 0 -100 28.5t-38 71.5q0 38 23.5 62t60.5 24q38 0 78 -63q40 -64 82 -64q100 0 309 455l-348 850q-28 65 -56 92t-81 33q-19 1 -27 7.5t0 13t27 6.5h363q30 0 30 -13q0 -8 -30 -14
q-78 -17 -97.5 -41.5t4.5 -73.5l279 -710l268 704q18 63 1.5 87t-81.5 36q-30 6 -30 12q0 13 30 13z" />
    <glyph glyph-name="Ydieresis" unicode="&#x178;" horiz-adv-x="1392" 
d="M489 1630q0 37 22.5 62t55.5 30q35 2 56.5 -20t21.5 -60q0 -54 -39 -80t-78 -7t-39 75zM817 1630q0 37 22.5 62t55.5 30q35 2 56.5 -20t21.5 -60q0 -54 -39 -80t-78 -7t-39 75zM1309 1382q41 0 41 -12q0 -11 -39 -14q-55 -4 -101.5 -42.5t-95.5 -113.5l-362 -559v-418
q0 -112 23.5 -157.5t90.5 -51.5q41 -3 41 -14q0 -12 -41 -12q-32 0 -90 6q-78 4 -88 4q-14 0 -92 -4q-58 -6 -86 -6q-41 0 -41 12q0 11 41 14q67 6 91 51.5t24 157.5v400l-346 557q-103 157 -197 172q-39 6 -39 14q0 12 41 12q8 0 21 -0.5t37.5 -1.5t43.5 -2q51 -2 103 -2
q16 0 102 4q64 6 94 6q41 0 41 -12q0 -11 -41 -14q-69 -5 -85.5 -49t30.5 -129l309 -504l-8 -12l336 544q44 69 26 106.5t-102 43.5q-41 3 -41 14q0 12 41 12q19 0 83 -5t83 -5q16 0 75 5t77 5z" />
    <glyph glyph-name="Zacute" unicode="&#x179;" horiz-adv-x="1232" 
d="M879 1718l-301 -200q-35 -21 -37 -17q-9 9 14 39l168 195q46 49 139 49q44 0 48.5 -21.5t-31.5 -44.5zM1141 315q12 -3 6 -43q-27 -165 -33 -235q-3 -47 -43 -47q-5 0 -32.5 0.5t-83 1.5t-115.5 2q-258 6 -566 6q-60 0 -145 -10q-12 -1 -16 6t2 18l872 1334l-512 -15
q-122 -5 -186 -41t-107 -133q-11 -22 -17 -29t-13 -6q-12 6 0 45q53 157 59 238q2 11 5.5 16t10.5 4q10 0 13 -14q3 -30 67 -39l58 -4h63q29 2 47 2h529q54 0 129 10q12 1 16 -6t-2 -18l-873 -1333l392 2q92 0 174 4q224 9 276 248q4 20 10.5 29t14.5 7z" />
    <glyph glyph-name="zacute" unicode="&#x17a;" horiz-adv-x="1040" 
d="M698 1309l-249 -179q-35 -21 -37 -16q-9 9 14 39l145 174q46 49 111 49q44 0 48 -22t-32 -45zM948 254q13 -3 4 -43q-24 -101 -30 -174q-3 -47 -43 -47q-23 0 -191 4l-475 4q-72 0 -121 -8q-10 -1 -12 4t4 16l727 969l-410 -14q-96 -3 -151 -39q-51 -33 -94 -138
q-7 -18 -15 -26t-14 -6q-12 3 0 43q43 128 43 237q0 23 16 23q10 0 13 -15q4 -24 36.5 -32t93 -7.5t72.5 -0.5h426q14 0 59.5 2t57.5 2q23 0 8 -21l-716 -962l452 18q182 6 234 174q6 20 12.5 29t13.5 8z" />
    <glyph glyph-name="Zdotaccent" unicode="&#x17b;" horiz-adv-x="1232" 
d="M655 1548q-39 0 -60.5 26.5t-14.5 72.5t36.5 72t69.5 26q38 0 59.5 -27.5t14.5 -70.5q-7 -46 -37 -72.5t-68 -26.5zM1141 315q12 -3 6 -43q-27 -165 -33 -235q-3 -47 -43 -47q-5 0 -32.5 0.5t-83 1.5t-115.5 2q-258 6 -566 6q-60 0 -145 -10q-12 -1 -16 6t2 18l872 1334
l-512 -15q-122 -5 -186 -41t-107 -133q-11 -22 -17 -29t-13 -6q-12 6 0 45q53 157 59 238q2 11 5.5 16t10.5 4q10 0 13 -14q3 -30 67 -39l58 -4h63q29 2 47 2h529q54 0 129 10q12 1 16 -6t-2 -18l-873 -1333l392 2q92 0 174 4q224 9 276 248q4 20 10.5 29t14.5 7z" />
    <glyph glyph-name="zdotaccent" unicode="&#x17c;" horiz-adv-x="1040" 
d="M537 1180q-40 0 -61.5 26t-14.5 72t36.5 72t69.5 26q38 0 59.5 -27.5t14.5 -70.5q-7 -46 -36.5 -72t-67.5 -26zM948 254q13 -3 4 -43q-24 -101 -30 -174q-3 -47 -43 -47q-23 0 -191 4l-475 4q-72 0 -121 -8q-10 -1 -12 4t4 16l727 969l-410 -14q-96 -3 -151 -39
q-51 -33 -94 -138q-7 -18 -15 -26t-14 -6q-12 3 0 43q43 128 43 237q0 23 16 23q10 0 13 -15q4 -24 36.5 -32t93 -7.5t72.5 -0.5h426q14 0 59.5 2t57.5 2q23 0 8 -21l-716 -962l452 18q182 6 234 174q6 20 12.5 29t13.5 8z" />
    <glyph glyph-name="Zcaron" unicode="&#x17d;" horiz-adv-x="1232" 
d="M424 1677q-38 33 -29 45q9 18 54 -16q133 -115 174 -115q26 0 174 115q42 34 53 16q9 -12 -29 -45q-75 -63 -151 -182q-20 -29 -48 -29t-47 29q-67 104 -151 182zM1141 315q12 -3 6 -43q-27 -165 -33 -235q-3 -47 -43 -47q-5 0 -32.5 0.5t-83 1.5t-115.5 2q-258 6 -566 6
q-60 0 -145 -10q-12 -1 -16 6t2 18l872 1334l-512 -15q-122 -5 -186 -41t-107 -133q-11 -22 -17 -29t-13 -6q-12 6 0 45q53 157 59 238q2 11 5.5 16t10.5 4q10 0 13 -14q3 -30 67 -39l58 -4h63q29 2 47 2h529q54 0 129 10q12 1 16 -6t-2 -18l-873 -1333l392 2q92 0 174 4
q224 9 276 248q4 20 10.5 29t14.5 7z" />
    <glyph glyph-name="zcaron" unicode="&#x17e;" horiz-adv-x="1040" 
d="M483 1126q-57 111 -135 195q-34 34 -24 47q10 18 51 -20q125 -125 155 -125q6 0 14.5 4t21.5 13.5t23.5 18t27 23.5t25 23t25 24t19.5 19q40 34 51 20q10 -13 -24 -47q-72 -72 -135 -195q-17 -30 -47.5 -30t-47.5 30zM948 254q13 -3 4 -43q-24 -101 -30 -174
q-3 -47 -43 -47q-23 0 -191 4l-475 4q-72 0 -121 -8q-10 -1 -12 4t4 16l727 969l-410 -14q-96 -3 -151 -39q-51 -33 -94 -138q-7 -18 -15 -26t-14 -6q-12 3 0 43q43 128 43 237q0 23 16 23q10 0 13 -15q4 -24 36.5 -32t93 -7.5t72.5 -0.5h426q14 0 59.5 2t57.5 2q23 0 8 -21
l-716 -962l452 18q182 6 234 174q6 20 12.5 29t13.5 8z" />
    <glyph glyph-name="uni0218" unicode="&#x218;" horiz-adv-x="962" 
d="M428 -20q-153 -6 -278 67q-37 23 -46 62q-22 93 -22 186q0 41 12 41q14 0 17 -29q18 -141 96 -213q101 -90 235 -90q147 0 224 80q79 82 79 188q0 119 -88 207q-56 56 -79 72l-105 74q-77 52 -115 80q-47 40 -90 83q-98 104 -98 252q0 149 115 252q116 101 288 101
q92 0 213 -41q40 -12 37 -39q-9 -88 -2 -152q6 -38 -6 -41q-6 -2 -13 8.5t-11 28.5q-24 90 -56 127q-72 84 -190 84q-115 0 -190.5 -76.5t-75.5 -193.5q0 -86 55 -170q21 -30 67 -70q15 -13 74 -59l86 -58q63 -42 111 -77q30 -20 90 -80q98 -93 98 -234q0 -184 -123 -276
q-127 -91 -309 -94zM442 -532q-10 10 11 32q79 79 79 138q0 36 -47 45q-36 7 -61 29.5t-25 58.5q0 35 23.5 56t60.5 21q47 0 84 -37.5t37 -97.5t-38.5 -125.5t-92.5 -111.5q-21 -18 -31 -8z" />
    <glyph glyph-name="uni0219" unicode="&#x219;" horiz-adv-x="843" 
d="M412 -20q-157 0 -262 63q-38 23 -46 61q-12 50 -12 207q0 41 12 41q14 0 17 -28q15 -140 102 -224q96 -90 238 -90q81 0 137.5 50t56.5 133q0 60 -20 94q-4 6 -10 18t-9.5 17.5t-11.5 14.5t-20 17q-9 7 -18.5 14.5t-14 11t-14.5 9.5t-27 14l-41 19q-20 10 -47 20l-43 21
q-88 38 -150 76q-57 39 -83.5 89t-32.5 134q-3 118 90 190t227 72q146 0 234 -49q28 -16 28 -43q-3 -90 0 -154q0 -30 -6 -30q-7 0 -16 28q-65 219 -289 219q-84 0 -135 -47t-51 -121q0 -87 55 -138.5t188 -110.5q158 -70 205 -105q98 -76 98 -201q0 -137 -90 -214.5
t-239 -77.5zM352 -532q-11 11 10 32q80 80 80 138q0 36 -47 45q-36 7 -61 29.5t-25 58.5q0 35 23.5 56t60.5 21q47 0 84 -37.5t37 -97.5t-38.5 -125.5t-92.5 -111.5q-21 -18 -31 -8z" />
    <glyph glyph-name="uni021A" unicode="&#x21a;" horiz-adv-x="1257" 
d="M1192 1413q2 11 10 14.5t14.5 -3t4.5 -19.5q-14 -82 -23 -254q0 -19 -4.5 -30t-9.5 -11q-17 3 -17 43q0 117 -34 154q-32 38 -146 41h-301v-1123q0 -112 24 -157.5t91 -51.5q41 -3 41 -14q0 -12 -41 -12q-31 0 -90 6q-78 4 -88 4q-15 0 -93 -4q-58 -6 -86 -6
q-41 0 -41 12q0 11 41 14q67 6 91 51.5t24 157.5v1123h-280q-112 -3 -156 -41q-43 -37 -78 -152q-6 -20 -12.5 -29.5t-14.5 -7.5q-13 3 -4 43q30 126 33 244q0 22 16 22q10 0 13 -14q4 -24 36.5 -32t94 -8t72.5 -1h708q11 1 72.5 1t95 8t37.5 32zM563 -131q47 0 84 -37.5
t37 -97.5t-38.5 -126t-92.5 -112q-21 -18 -31 -8q-10 13 10 33q80 80 80 137q0 36 -47 45q-36 7 -61 29.5t-25 58.5q0 35 23.5 56.5t60.5 21.5z" />
    <glyph glyph-name="uni021B" unicode="&#x21b;" horiz-adv-x="780" 
d="M756 162q11 -11 -11 -33q-125 -146 -282 -149q-135 -1 -193.5 79t-58.5 254v531q0 76 -18 94q-15 18 -89 18q-15 0 -21 6t0 12.5t21 6.5q90 0 142.5 44t52.5 132q0 35 18 35q17 0 17 -35v-166l336 13q16 0 20 -4t4 -23q-3 -43 -30 -43l-330 12v-612q0 -150 44 -211.5
t144 -59.5q111 3 201 87q21 21 33 12zM496 -147q47 0 83.5 -38t36.5 -98t-38.5 -125.5t-92.5 -111.5q-20 -18 -30 -8q-11 11 10 32q80 80 80 138q0 36 -47 45q-36 7 -61 29.5t-25 58.5q0 35 23.5 56.5t60.5 21.5z" />
    <glyph glyph-name="circumflex" unicode="&#x2c6;" horiz-adv-x="1005" 
d="M465 1382q17 30 47 30t47 -30q62 -121 135 -194q34 -34 25 -47q-11 -14 -51 20q-3 3 -19.5 19t-25 24t-25 23t-27 23.5t-23.5 18t-21.5 13.5t-14.5 4q-31 0 -156 -125q-40 -37 -51 -20q-9 13 25 47q79 86 135 194z" />
    <glyph glyph-name="caron" unicode="&#x2c7;" horiz-adv-x="1005" 
d="M465 1126q-57 111 -135 195q-34 34 -25 47q11 18 51 -20q125 -125 156 -125q6 0 14.5 4t21.5 13.5t23.5 18t27 23.5t25 23t25 24t19.5 19q40 34 51 20q9 -13 -25 -47q-72 -72 -135 -195q-17 -30 -47 -30t-47 30z" />
    <glyph glyph-name="breve" unicode="&#x2d8;" horiz-adv-x="1005" 
d="M315 1329q-6 43 9 43q6 0 18 -37q34 -106 162 -106t162 106q12 37 18 37q14 0 8 -43q-13 -77 -63 -127.5t-125 -50.5t-125.5 50.5t-63.5 127.5z" />
    <glyph glyph-name="dotaccent" unicode="&#x2d9;" horiz-adv-x="1005" 
d="M485 1180q-40 0 -61 26t-14 72t36.5 72t69.5 26q38 0 59.5 -27.5t14.5 -70.5q-7 -46 -37 -72t-68 -26z" />
    <glyph glyph-name="ring" unicode="&#x2da;" horiz-adv-x="1007" 
d="M514 1118q-84 0 -137 48.5t-53 123.5q0 70 61 125q64 58 141 58q82 0 135 -48.5t52 -121.5q3 -69 -60 -129q-62 -56 -139 -56zM526 1145q55 0 89 39.5t36 105.5q3 58 -43 107q-43 49 -92 49q-60 0 -95.5 -40t-33.5 -106q0 -61 42.5 -108t96.5 -47z" />
    <glyph glyph-name="ogonek" unicode="&#x2db;" horiz-adv-x="1007" 
d="M498 -403q-46 0 -77.5 30t-31.5 84q0 119 234 289h34l-92 -80q-38 -36 -68 -83.5t-30 -86.5q0 -37 25 -58.5t59 -21.5q45 0 88 29q18 15 18 0q0 -11 -18 -35q-58 -67 -141 -67z" />
    <glyph glyph-name="tilde" unicode="&#x2dc;" horiz-adv-x="1007" 
d="M256 1169q-13 13 18 54q75 106 125 106q15 0 80 -9.5t124 -18.5t61 -9q51 -6 92 60q12 21 22.5 31t14.5 6q9 -9 -13 -52q-70 -125 -135 -125q-19 0 -102 11l-37 6q-98 20 -137 20h-5q-13 0 -19.5 -1.5t-17.5 -11.5t-28 -32q-35 -44 -43 -35z" />
    <glyph glyph-name="hungarumlaut" unicode="&#x2dd;" horiz-adv-x="1005" 
d="M356 1151q-2 2 13 33l90 166q23 45 86 45q48 0 2 -52l-160 -180q-21 -21 -31 -12zM541 1151q-6 6 12 33l111 166q18 27 35.5 36t56.5 9q15 0 21.5 -4.5t4.5 -12t-8 -16.5t-16 -19l-187 -180q-21 -21 -30 -12z" />
    <glyph glyph-name="gravecomb" unicode="&#x300;" 
d="M-362 1174q-2 -5 -37 16l-197 149q-22 12 -15 30.5t42 25.5q31 7 48 -1.5t46 -47.5l98 -134q21 -30 15 -38z" />
    <glyph glyph-name="acutecomb" unicode="&#x301;" 
d="M-580 1114q-9 9 15 39l145 174q46 49 111 49q44 0 48 -22t-32 -45l-250 -179q-35 -21 -37 -16z" />
    <glyph glyph-name="uni0302" unicode="&#x302;" 
d="M-541 1382q17 30 47.5 30t47.5 -30q62 -121 135 -194q34 -34 24 -47q-11 -14 -51 20q-3 3 -19.5 19t-25 24t-25 23t-27 23.5t-23.5 18t-21.5 13.5t-14.5 4q-30 0 -155 -125q-41 -37 -51 -20q-10 13 24 47q79 86 135 194z" />
    <glyph glyph-name="tildecomb" unicode="&#x303;" 
d="M-752 1169q-12 12 19 54q75 106 125 106q15 0 79.5 -9.5t123.5 -18.5t61 -9q51 -6 92 60q12 21 22.5 31t14.5 6q10 -10 -12 -52q-70 -125 -135 -125q-20 0 -103 11l-37 6q-98 20 -137 20h-5q-13 0 -19.5 -1.5t-17.5 -11.5t-28 -32q-34 -44 -43 -35z" />
    <glyph glyph-name="uni0304" unicode="&#x304;" 
d="M-176 1184h-455q-25 0 -36 6t-7 16q10 23 43 23h457q23 0 35 -6.5t8 -16.5q-9 -22 -45 -22z" />
    <glyph glyph-name="uni0306" unicode="&#x306;" 
d="M-690 1329q-6 43 8 43q6 0 18 -37q34 -106 162 -106t162 106q12 37 18 37q15 0 9 -43q-13 -77 -63.5 -127.5t-125.5 -50.5t-125 50.5t-63 127.5z" />
    <glyph glyph-name="uni0307" unicode="&#x307;" 
d="M-520 1180q-40 0 -61.5 26t-14.5 72t37 72t70 26q38 0 59 -27.5t14 -70.5q-7 -46 -36.5 -72t-67.5 -26z" />
    <glyph glyph-name="uni0308" unicode="&#x308;" 
d="M-729 1262q0 37 22.5 62t55.5 30q35 2 56.5 -20t21.5 -60q0 -54 -39 -80t-78 -7t-39 75zM-401 1262q0 37 22 62t55 30q35 2 56.5 -20t21.5 -60q0 -54 -38.5 -80t-77.5 -7t-39 75z" />
    <glyph glyph-name="uni030A" unicode="&#x30a;" 
d="M-494 1081q-84 0 -137 48.5t-53 123.5q0 71 63 125q61 58 140 58q82 0 134.5 -48.5t51.5 -121.5q3 -70 -59 -129q-62 -56 -140 -56zM-481 1108q55 0 89 39.5t36 105.5q3 57 -41 107q-46 49 -95 49q-60 0 -95 -39.5t-34 -105.5q0 -61 43 -108.5t97 -47.5z" />
    <glyph glyph-name="uni030B" unicode="&#x30b;" 
d="M-649 1151q-3 3 12 33l90 166q23 45 86 45q48 0 2 -52l-159 -180q-22 -21 -31 -12zM-465 1151q-6 6 12 33l111 166q18 27 35.5 36t56.5 9q15 0 21.5 -4.5t4.5 -12t-8 -16.5t-16 -19l-186 -180q-22 -21 -31 -12z" />
    <glyph glyph-name="uni030C" unicode="&#x30c;" 
d="M-541 1126q-57 111 -135 195q-34 34 -24 47q10 18 51 -20q125 -125 155 -125q6 0 14.5 4t21.5 13.5t23.5 18t27 23.5t25 23t25 24t19.5 19q40 34 51 20q10 -13 -24 -47q-72 -72 -135 -195q-17 -30 -47.5 -30t-47.5 30z" />
    <glyph glyph-name="uni0312" unicode="&#x312;" 
d="M-219 1174q-86 0 -86 102q3 151 84 270q9 12 18 6q11 -3 2 -18q-64 -94 -67 -184q0 -31 14 -23q17 10 39 10q77 0 74 -84q0 -37 -22 -58t-56 -21z" />
    <glyph glyph-name="uni0326" unicode="&#x326;" 
d="M-451 -532q-11 10 11 32q80 80 80 138q0 36 -48 45q-36 7 -61 29.5t-25 58.5q0 35 23.5 56t60.5 21q47 0 84 -37.5t37 -97.5t-38.5 -125.5t-92.5 -111.5q-21 -18 -31 -8z" />
    <glyph glyph-name="uni0327" unicode="&#x327;" 
d="M-606 -401q-68 0 -101 26q-27 21 -10 45t47 6q56 -41 113 -41q29 0 50.5 20t21.5 58q0 56 -66 97q-8 4 -22 9.5t-24 8.5t-11 4q-9 9 18 39l123 129h51l-104 -109q58 -25 83 -64.5t16.5 -78.5t-34 -74t-67.5 -56t-84 -19z" />
    <glyph glyph-name="uni0328" unicode="&#x328;" 
d="M-510 -403q-46 0 -77 30t-31 84q0 120 233 289h35l-92 -80q-39 -37 -69 -84t-30 -86q0 -37 25 -58.5t59 -21.5q45 0 88 29q19 16 19 0q0 -10 -19 -35q-58 -67 -141 -67z" />
    <glyph glyph-name="uni0335" unicode="&#x335;" 
d="M-117 1161h-456q-11 0 -16.5 4t-4.5 11q3 14 23 14h456q11 0 16.5 -3.5t4.5 -10.5q-3 -15 -23 -15z" />
    <glyph glyph-name="uni0337" unicode="&#x337;" 
d="M-78 813l-450 -162q-8 -3 -13 2t-4.5 12.5t8.5 10.5l451 162q8 3 13 -2t4 -12.5t-9 -10.5z" />
    <glyph glyph-name="uni0338" unicode="&#x338;" 
d="M-1264 0q-12 0 2 25l1033 1335q9 12 26 12q12 0 -2 -24l-1032 -1336q-9 -12 -27 -12z" />
    <glyph glyph-name="Wgrave" unicode="&#x1e80;" horiz-adv-x="2105" 
d="M1151 1518l-283 176q-88 52 29 90q63 19 109 -39l168 -205q23 -30 14 -39q-2 -4 -37 17zM2044 1382q41 0 41 -12q0 -11 -39 -14q-63 -4 -110.5 -56t-88.5 -161l-446 -1159h-27l-330 948l-360 -948h-27l-409 1175q-36 101 -72 143q-33 38 -113 54q-38 6 -38 14q0 12 41 12
q8 0 21 -0.5t37.5 -1.5t43.5 -2q51 -2 102 -2q10 0 92 4q65 6 95 6q41 0 41 -12q0 -11 -41 -14q-141 -9 -76 -197l346 -997l297 825l-59 168q-36 101 -72 143q-33 38 -113 54q-39 6 -39 14q0 12 41 12q5 0 103 -4q49 -2 102 -2q10 0 92 4q64 6 95 6q40 0 40 -12
q0 -11 -40 -14q-141 -9 -76 -197l346 -997l356 995q39 100 23 146.5t-97 52.5q-40 3 -40 14q0 12 40 12q19 0 82.5 -5t83.5 -5q16 0 75 5t77 5z" />
    <glyph glyph-name="wgrave" unicode="&#x1e81;" horiz-adv-x="1748" 
d="M1014 1190l-197 149q-22 12 -15 30.5t42 25.5q31 7 48 -1.5t46 -47.5l98 -134q21 -30 15 -38q-3 -5 -37 16zM1436 1004h280q19 0 27 -6t0 -12.5t-27 -6.5q-61 -4 -91.5 -27.5t-55.5 -81.5l-355 -866q-20 -47 -40 0l-304 762l-311 -762q-21 -48 -41 0l-338 848
q-26 64 -54.5 91.5t-82.5 33.5q-19 1 -27 7.5t0 13t27 6.5h363q30 0 30 -13q0 -8 -30 -14q-78 -17 -97.5 -41.5t4.5 -73.5l279 -710l256 671l-12 29q-26 64 -55 91.5t-83 33.5q-19 1 -27 7.5t0 13t27 6.5h363q31 0 31 -13q0 -8 -31 -14q-78 -17 -97 -41.5t5 -73.5l278 -710
l269 704q18 63 1.5 87t-81.5 36q-31 6 -31 12q0 13 31 13z" />
    <glyph glyph-name="Wacute" unicode="&#x1e82;" horiz-adv-x="2105" 
d="M1219 1718l-301 -200q-35 -21 -37 -17q-9 9 14 39l168 195q46 49 139 49q44 0 48.5 -21.5t-31.5 -44.5zM2044 1382q41 0 41 -12q0 -11 -39 -14q-63 -4 -110.5 -56t-88.5 -161l-446 -1159h-27l-330 948l-360 -948h-27l-409 1175q-36 101 -72 143q-33 38 -113 54
q-38 6 -38 14q0 12 41 12q8 0 21 -0.5t37.5 -1.5t43.5 -2q51 -2 102 -2q10 0 92 4q65 6 95 6q41 0 41 -12q0 -11 -41 -14q-141 -9 -76 -197l346 -997l297 825l-59 168q-36 101 -72 143q-33 38 -113 54q-39 6 -39 14q0 12 41 12q5 0 103 -4q49 -2 102 -2q10 0 92 4q64 6 95 6
q40 0 40 -12q0 -11 -40 -14q-141 -9 -76 -197l346 -997l356 995q39 100 23 146.5t-97 52.5q-40 3 -40 14q0 12 40 12q19 0 82.5 -5t83.5 -5q16 0 75 5t77 5z" />
    <glyph glyph-name="wacute" unicode="&#x1e83;" horiz-adv-x="1748" 
d="M1061 1309l-250 -179q-35 -21 -37 -16q-9 9 14 39l146 174q46 49 110 49q44 0 48.5 -22t-31.5 -45zM1436 1004h280q19 0 27 -6t0 -12.5t-27 -6.5q-61 -4 -91.5 -27.5t-55.5 -81.5l-355 -866q-20 -47 -40 0l-304 762l-311 -762q-21 -48 -41 0l-338 848q-26 64 -54.5 91.5
t-82.5 33.5q-19 1 -27 7.5t0 13t27 6.5h363q30 0 30 -13q0 -8 -30 -14q-78 -17 -97.5 -41.5t4.5 -73.5l279 -710l256 671l-12 29q-26 64 -55 91.5t-83 33.5q-19 1 -27 7.5t0 13t27 6.5h363q31 0 31 -13q0 -8 -31 -14q-78 -17 -97 -41.5t5 -73.5l278 -710l269 704
q18 63 1.5 87t-81.5 36q-31 6 -31 12q0 13 31 13z" />
    <glyph glyph-name="Wdieresis" unicode="&#x1e84;" horiz-adv-x="2105" 
d="M745 1630q0 37 22.5 62t55.5 30q35 2 56.5 -20t21.5 -60q0 -54 -39 -80t-78 -7t-39 75zM1073 1630q0 37 22.5 62t55.5 30q35 2 56.5 -20t21.5 -60q0 -54 -39 -80t-78 -7t-39 75zM2044 1382q41 0 41 -12q0 -11 -39 -14q-63 -4 -110.5 -56t-88.5 -161l-446 -1159h-27
l-330 948l-360 -948h-27l-409 1175q-36 101 -72 143q-33 38 -113 54q-38 6 -38 14q0 12 41 12q8 0 21 -0.5t37.5 -1.5t43.5 -2q51 -2 102 -2q10 0 92 4q65 6 95 6q41 0 41 -12q0 -11 -41 -14q-141 -9 -76 -197l346 -997l297 825l-59 168q-36 101 -72 143q-33 38 -113 54
q-39 6 -39 14q0 12 41 12q5 0 103 -4q49 -2 102 -2q10 0 92 4q64 6 95 6q40 0 40 -12q0 -11 -40 -14q-141 -9 -76 -197l346 -997l356 995q39 100 23 146.5t-97 52.5q-40 3 -40 14q0 12 40 12q19 0 82.5 -5t83.5 -5q16 0 75 5t77 5z" />
    <glyph glyph-name="wdieresis" unicode="&#x1e85;" horiz-adv-x="1748" 
d="M649 1262q0 37 22.5 62t55.5 30q35 2 56.5 -20t21.5 -60q0 -54 -39 -80t-78 -7t-39 75zM977 1262q0 37 22.5 62t55.5 30q35 2 56.5 -20t21.5 -60q0 -54 -39 -80t-78 -7t-39 75zM1436 1004h280q19 0 27 -6t0 -12.5t-27 -6.5q-61 -4 -91.5 -27.5t-55.5 -81.5l-355 -866
q-20 -47 -40 0l-304 762l-311 -762q-21 -48 -41 0l-338 848q-26 64 -54.5 91.5t-82.5 33.5q-19 1 -27 7.5t0 13t27 6.5h363q30 0 30 -13q0 -8 -30 -14q-78 -17 -97.5 -41.5t4.5 -73.5l279 -710l256 671l-12 29q-26 64 -55 91.5t-83 33.5q-19 1 -27 7.5t0 13t27 6.5h363
q31 0 31 -13q0 -8 -31 -14q-78 -17 -97 -41.5t5 -73.5l278 -710l269 704q18 63 1.5 87t-81.5 36q-31 6 -31 12q0 13 31 13z" />
    <glyph glyph-name="Ygrave" unicode="&#x1ef2;" horiz-adv-x="1392" 
d="M895 1518l-283 176q-88 52 29 90q63 19 109 -39l168 -205q23 -30 14 -39q-2 -4 -37 17zM1309 1382q41 0 41 -12q0 -11 -39 -14q-55 -4 -101.5 -42.5t-95.5 -113.5l-362 -559v-418q0 -112 23.5 -157.5t90.5 -51.5q41 -3 41 -14q0 -12 -41 -12q-32 0 -90 6q-78 4 -88 4
q-14 0 -92 -4q-58 -6 -86 -6q-41 0 -41 12q0 11 41 14q67 6 91 51.5t24 157.5v400l-346 557q-103 157 -197 172q-39 6 -39 14q0 12 41 12q8 0 21 -0.5t37.5 -1.5t43.5 -2q51 -2 103 -2q16 0 102 4q64 6 94 6q41 0 41 -12q0 -11 -41 -14q-69 -5 -85.5 -49t30.5 -129l309 -504
l-8 -12l336 544q44 69 26 106.5t-102 43.5q-41 3 -41 14q0 12 41 12q19 0 83 -5t83 -5q16 0 75 5t77 5z" />
    <glyph glyph-name="ygrave" unicode="&#x1ef3;" horiz-adv-x="1107" 
d="M709 1190l-197 149q-22 12 -15 30.5t42 25.5q31 7 48 -1.5t46 -47.5l98 -134q20 -29 14 -38q-2 -5 -36 16zM782 1004h281q19 0 27 -6t0 -12.5t-27 -6.5q-61 -4 -92 -27.5t-56 -81.5l-354 -866q-133 -298 -229 -407q-95 -109 -217 -109q-62 0 -100 28.5t-38 71.5
q0 38 23.5 62t60.5 24q38 0 78 -63q40 -64 82 -64q100 0 309 455l-348 850q-28 65 -56 92t-81 33q-19 1 -27 7.5t0 13t27 6.5h363q30 0 30 -13q0 -8 -30 -14q-78 -17 -97.5 -41.5t4.5 -73.5l279 -710l268 704q18 63 1.5 87t-81.5 36q-30 6 -30 12q0 13 30 13z" />
    <glyph glyph-name="endash" unicode="&#x2013;" horiz-adv-x="1024" 
d="M924 537h-809q-20 0 -28 4.5t-3 13.5q6 16 33 16h809q20 0 27 -3t3 -13q-6 -18 -32 -18z" />
    <glyph glyph-name="emdash" unicode="&#x2014;" horiz-adv-x="1527" 
d="M1415 537h-1300q-20 0 -28 4.5t-3 13.5q6 16 33 16h1300q21 0 28 -3t3 -13q-6 -18 -33 -18z" />
    <glyph glyph-name="quoteleft" unicode="&#x2018;" horiz-adv-x="446" 
d="M322 1411q6 -10 -21 -37q-131 -137 -131 -225q0 -42 53 -51q40 -7 68 -32.5t28 -66.5q0 -38 -26.5 -63t-67.5 -25q-53 0 -98 46t-45 112q0 159 199 328q32 25 41 14z" />
    <glyph glyph-name="quoteright" unicode="&#x2019;" horiz-adv-x="446" 
d="M115 909q-7 10 20 37q131 137 131 225q0 43 -53 52q-41 7 -68.5 32t-27.5 66q0 38 26.5 63t67.5 25q53 0 98 -45t45 -113q0 -159 -198 -327q-33 -26 -41 -15z" />
    <glyph glyph-name="quotesinglbase" unicode="&#x201a;" horiz-adv-x="446" 
d="M115 -346q-7 10 20 37q131 137 131 225q0 42 -53 51q-40 7 -68 32.5t-28 66.5q0 38 26.5 63t67.5 25q53 0 98 -46t45 -112q0 -160 -198 -328q-32 -25 -41 -14z" />
    <glyph glyph-name="quotedblleft" unicode="&#x201c;" horiz-adv-x="819" 
d="M322 1411q6 -10 -21 -37q-131 -137 -131 -225q0 -42 53 -51q40 -7 68 -32.5t28 -66.5q0 -38 -26.5 -63t-67.5 -25q-53 0 -98 46t-45 112q0 159 199 328q32 25 41 14zM649 1411q7 -10 -20 -37q-131 -137 -131 -225q0 -42 53 -51q40 -7 68 -32.5t28 -66.5q0 -38 -26.5 -63
t-67.5 -25q-53 0 -98 46t-45 112q0 160 198 328q32 25 41 14z" />
    <glyph glyph-name="quotedblright" unicode="&#x201d;" horiz-adv-x="819" 
d="M115 909q-7 10 20 37q131 137 131 225q0 43 -53 52q-41 7 -68.5 32t-27.5 66q0 38 26.5 63t67.5 25q53 0 98 -45t45 -113q0 -159 -198 -327q-33 -26 -41 -15zM442 909q-6 10 21 37q131 137 131 225q0 43 -53 52q-41 7 -69 32t-28 66q0 38 27 63t68 25q53 0 98 -45
t45 -113q0 -158 -199 -327q-33 -26 -41 -15z" />
    <glyph glyph-name="quotedblbase" unicode="&#x201e;" horiz-adv-x="819" 
d="M115 -346q-7 10 20 37q131 137 131 225q0 42 -53 51q-40 7 -68 32.5t-28 66.5q0 38 26.5 63t67.5 25q53 0 98 -46t45 -112q0 -160 -198 -328q-32 -25 -41 -14zM434 -346q-6 10 21 37q131 137 131 225q0 42 -54 51q-40 7 -68 32.5t-28 66.5q0 38 26.5 63t67.5 25
q53 0 98.5 -46t45.5 -112q0 -159 -199 -328q-32 -25 -41 -14z" />
    <glyph glyph-name="dagger" unicode="&#x2020;" horiz-adv-x="1267" 
d="M602 -354l19 1192q0 18 -21 18l-340 -16q-35 -3 -35 30q0 34 35 31l340 -16q21 0 21 18l-19 434q0 35 31 35t31 -35l-19 -434q0 -18 21 -18l340 16q34 3 34 -31q0 -33 -34 -30l-340 16q-21 0 -21 -18l19 -1192q0 -35 -31 -35t-31 35z" />
    <glyph glyph-name="daggerdbl" unicode="&#x2021;" horiz-adv-x="1267" 
d="M602 -354l19 454l-361 -18q-35 -3 -35 31q0 33 35 30l358 -18q-16 350 -16 367q0 16 16 366l-358 -18q-35 -3 -35 30q0 34 35 31l361 -18l-19 454q0 35 31 35t31 -35l-19 -454l361 18q34 3 34 -31q0 -33 -34 -30l-359 18q4 -87 8.5 -180t6.5 -133.5t2 -52.5
q0 -10 -2 -50.5t-6.5 -133t-8.5 -183.5l359 18q34 3 34 -30q0 -34 -34 -31l-361 18l19 -454q0 -35 -31 -35t-31 35z" />
    <glyph glyph-name="bullet" unicode="&#x2022;" horiz-adv-x="1011" 
d="M506 528q-92 8 -150.5 77.5t-58.5 176.5q0 103 58.5 159t150.5 48q92 -6 150.5 -72t58.5 -169q0 -107 -58.5 -166.5t-150.5 -53.5z" />
    <glyph glyph-name="ellipsis" unicode="&#x2026;" horiz-adv-x="1200" 
d="M133 68q0 57 43 85t86 8t43 -79t-43 -88t-86 -8.5t-43 82.5zM514 68q0 57 43 85t86 8t43 -79t-43 -88t-86 -8.5t-43 82.5zM903 68q0 57 43 85t86 8t43 -79t-43 -88t-86 -8.5t-43 82.5z" />
    <glyph glyph-name="perthousand" unicode="&#x2030;" horiz-adv-x="2054" 
d="M1006 1376q16 -6 6 -35l-508 -1310q-7 -18 -18 -22.5t-15.5 5.5t0.5 29l469 1212q-81 -75 -205 -75q-99 0 -190 45q76 -98 76 -248q0 -237 -136 -320q-39 -26 -94 -26q-111 0 -170 102q-57 102 -57 221q0 242 141 324q39 22 92 22q77 0 146 -38q103 -50 192 -50
q150 0 240 146q15 24 31 18zM475 700q43 85 43 248q0 143 -39 234q-38 96 -94 96q-28 0 -55 -27q-64 -70 -64 -256q0 -156 37 -250t100 -94q45 0 72 49zM1073 649q56 -1 101.5 -33.5t72 -81.5t39 -103.5t10.5 -104.5q0 -232 -135 -320q-39 -26 -94 -26q-111 0 -170 102
q-57 102 -57 221q0 241 141 324q39 22 92 22zM1667 649q56 -1 101.5 -33.5t72 -81.5t39 -103.5t10.5 -104.5q0 -232 -135 -320q-39 -26 -94 -26q-111 0 -170 102q-57 102 -57 221q0 241 141 324q39 22 92 22zM1151 49q43 85 43 248q0 142 -39 233q-38 97 -94 97
q-28 0 -55 -27q-64 -70 -64 -256q0 -156 37 -250t100 -94q45 0 72 49zM1745 49q43 85 43 248q0 142 -39 233q-38 97 -94 97q-29 0 -56 -27q-63 -69 -63 -256q0 -156 37 -250t100 -94q45 0 72 49z" />
    <glyph glyph-name="guilsinglleft" unicode="&#x2039;" horiz-adv-x="483" 
d="M383 182q-22 -13 -43 21q-109 168 -262 321q-8 8 -2 17q162 167 264 321q21 35 33 27q10 -10 -4 -41q-78 -173 -189 -316q134 -178 203 -350z" />
    <glyph glyph-name="guilsinglright" unicode="&#x203a;" horiz-adv-x="483" 
d="M100 182q69 172 203 350q-109 140 -188 316q-14 31 -4 41q11 7 32 -27q100 -151 265 -321q6 -9 -2 -17q-155 -155 -263 -321q-21 -34 -43 -21z" />
    <glyph glyph-name="fraction" unicode="&#x2044;" horiz-adv-x="485" 
d="M-131 -197q-13 5 2 43l629 1543q7 18 14.5 27t13.5 7q13 -6 -2 -43l-628 -1542q-15 -38 -29 -35z" />
    <glyph glyph-name="Euro" unicode="&#x20ac;" horiz-adv-x="856" 
d="M793 154q4 -2 -5 -23q-81 -158 -245 -158q-159 0 -254 164q-92 168 -113 383h-125q-34 0 -31 15q3 10 33 10l121 4q-2 14 -2 65v50h-80q-19 0 -26 3t-5 11q3 10 33 10l80 2q15 440 246 572q58 34 147 34q73 0 156 -45q27 -12 27 -41q0 -3 -1 -25t-1 -32q0 -52 2 -66
q3 -24 -5 -28q-5 -2 -10 5.5t-6 20.5q-12 76 -68.5 128.5t-130.5 52.5q-62 0 -106 -56q-113 -155 -113 -516l357 11q21 0 24 -3.5t-4 -23.5q-10 -19 -33 -19l-344 3q0 -15 4 -109l312 8q21 0 24 -3t-4 -23q-9 -19 -33 -19l-295 2q21 -224 90.5 -352.5t184.5 -128.5
q46 0 83 22t95 80q18 18 21 15z" />
    <glyph glyph-name="trademark" unicode="&#x2122;" horiz-adv-x="1921" 
d="M543 1397q3 -71 16 -113q3 -22 -6 -22q-13 -3 -16 18q-17 54 -36.5 70.5t-70.5 17.5h-98v-487q0 -77 20.5 -101t79.5 -24v-17h-266v17q59 0 78.5 23.5t19.5 101.5v487h-88q-49 -1 -68 -17.5t-36 -70.5q-9 -21 -17 -18q-9 0 -6 22q14 46 17 113q0 11 10 13q9 -1 10 -9
q4 -14 35 -17h366q31 3 35 17q0 13 13 6q8 -3 8 -10zM1362 752q22 -3 22 -11q0 -6 -22 -6q-4 0 -21 1t-22 1q-8 2 -41 2q-5 0 -22 -1t-21 -1q-38 -4 -60 3q-12 5 8 10q6 1 13 2q29 1 39 21.5t10 72.5v418v14v14l-4 -8l-6 -14l-227 -541h-21l-239 549l-5 16v-20l-6 -428
q-1 -50 9 -69.5t40 -24.5q23 -3 23 -11q0 -6 -23 -6q-22 0 -28 2q-2 0 -17 1t-20 1q-23 0 -29 -2q-3 0 -20 -1t-25 -1q-22 0 -22 6q0 8 22 11q35 1 47 20.5t17 73.5l12 448q-1 40 -12 56.5t-37 21.5q-15 0 -21 4t0 8.5t21 4.5q27 0 39 -3q4 0 22 -1t23 -1q14 -3 22 -16
l244 -547l223 545q9 18 25 18h6q5 0 22 1t21 1q15 3 41 3q15 0 21 -4.5t0 -8.5t-21 -4q-29 -4 -39 -24t-10 -72v-430q0 -52 10 -72.5t39 -21.5z" />
    <glyph glyph-name="approxequal" unicode="&#x2248;" horiz-adv-x="1024" 
d="M756 721q-80 0 -258 90q-153 78 -213 78q-59 0 -101.5 -29t-85.5 -92q-12 -16 -24 -17t-14 10t8 27q96 134 217 134q71 0 229 -82q170 -86 242 -86q94 0 182 131q19 25 33 16q18 -9 -2 -35q-103 -145 -213 -145zM756 446q-78 0 -258 91q-151 77 -213 77
q-59 0 -101.5 -28.5t-85.5 -91.5q-12 -16 -24 -17t-14 10t8 27q95 133 217 133q71 0 229 -82q170 -86 242 -86q94 0 182 131q19 25 33 17q18 -9 -2 -35q-103 -146 -213 -146z" />
    <glyph glyph-name="approxequal" unicode="&#x22f2;" horiz-adv-x="1024" 
d="M756 721q-80 0 -258 90q-153 78 -213 78q-59 0 -101.5 -29t-85.5 -92q-12 -16 -24 -17t-14 10t8 27q96 134 217 134q71 0 229 -82q170 -86 242 -86q94 0 182 131q19 25 33 16q18 -9 -2 -35q-103 -145 -213 -145zM756 446q-78 0 -258 91q-151 77 -213 77
q-59 0 -101.5 -28.5t-85.5 -91.5q-12 -16 -24 -17t-14 10t8 27q95 133 217 133q71 0 229 -82q170 -86 242 -86q94 0 182 131q19 25 33 17q18 -9 -2 -35q-103 -146 -213 -146z" />
    <glyph glyph-name="notequal" unicode="&#x2260;" horiz-adv-x="1024" 
d="M481 578h445q20 0 27 -3.5t3 -13.5q-6 -18 -32 -18h-459l-117 -252q-12 -28 -29 -21q-15 6 -2 35l111 238h-313q-20 0 -28 4.5t-3 13.5q7 17 33 17h327l123 264h-452q-20 0 -28 4.5t-3 13.5q7 17 33 17h467l94 202q14 27 28.5 21t2.5 -35l-88 -188h305q20 0 27 -3.5
t3 -13.5q-6 -18 -32 -18h-320z" />
    <glyph glyph-name="NULL" 
 />
    <glyph glyph-name="CR" horiz-adv-x="681" 
 />
    <glyph glyph-name="O.ss01" horiz-adv-x="1339" 
d="M666 246q-265 0 -416 160q-148 165 -148 428q0 245 158 403t406 158q272 0 421 -158q150 -156 150 -424q0 -255 -160 -412q-155 -155 -411 -155zM684 276q52 -3 107 9q127 21 212.5 134t92.5 281q3 87 -2 150q-15 219 -140 362q-124 142 -299 154q-38 3 -96 -4
q-132 -23 -217 -134.5t-98 -283.5q-3 -59 6 -158q24 -220 141 -358q122 -140 293 -152zM1077 -2h-809q-20 0 -27.5 4.5t-2.5 13.5q7 17 32 17h809q20 0 27.5 -3.5t3.5 -13.5q-6 -18 -33 -18z" />
    <glyph glyph-name="i.loclTRK" horiz-adv-x="575" 
d="M287 1180q-40 0 -61.5 26t-14.5 72t36.5 72t69.5 26q38 0 59.5 -27.5t14.5 -70.5q-7 -46 -36.5 -72t-67.5 -26zM473 16q41 -3 41 -14q0 -12 -41 -12q-32 0 -90 6q-78 4 -88 4q-14 0 -92 -4q-59 -6 -86 -6q-41 0 -41 12q0 11 41 14q67 6 90.5 51.5t23.5 157.5v582
q0 57 -19 67.5t-110 -6.5q-27 -6 -30 2q-7 14 18 23q156 64 229 115q29 16 31 16q8 0 8 -41v-758q0 -112 24 -157.5t91 -51.5z" />
    <glyph glyph-name="T_h" horiz-adv-x="2170" 
d="M2064 16q41 -3 41 -14q0 -12 -41 -12q-16 0 -71 6q-70 4 -84 4q-27 0 -87.5 -5t-68.5 -5q-41 0 -41 12q0 11 41 14q53 4 73.5 48t20.5 141v428q0 338 -235 338q-102 0 -191 -68q-85 -67 -106 -168v-510q0 -112 24 -157.5t91 -51.5q40 -3 40 -14q0 -12 -40 -12
q-30 0 -89 6q-78 4 -90 4q-14 0 -92 -4q-59 -6 -86 -6q-41 0 -41 12q0 11 41 14q67 6 91 51.5t24 157.5v928q0 116 -35 154q-32 38 -145 41h-322v-1123q0 -112 24 -157.5t91 -51.5q41 -3 41 -14q0 -12 -41 -12q-31 0 -90 6q-78 4 -88 4q-15 0 -93 -4q-58 -6 -86 -6
q-41 0 -41 12q0 11 41 14q67 6 91 51.5t24 157.5v1123h-280q-112 -3 -156 -41q-43 -37 -78 -152q-6 -20 -12.5 -29.5t-14.5 -7.5q-13 3 -4 43q30 126 33 244q0 22 16 22q10 0 13 -14q4 -24 36.5 -32t94 -8t72.5 -1h729q110 0 163 27l43 22q18 14 62 58q19 16 31 16
q8 0 8 -41v-627q62 90 157 143.5t205 53.5q150 0 221.5 -86.5t71.5 -239.5v-493q0 -97 20.5 -141t73.5 -48z" />
    <glyph glyph-name="caroncomb.alt" 
d="M-444 625q-13 0 -13 39q0 106 -12 241q-2 31 6 46t45 50q32 31 47 26t11 -46q-13 -131 -64 -319q-9 -37 -20 -37z" />
    <glyph glyph-name="uni030A.alt" 
d="M-483 1028q-84 0 -137.5 48.5t-53.5 123.5q0 70 64 125q60 57 139 57q82 0 134.5 -48.5t51.5 -121.5q3 -70 -59 -129q-61 -55 -139 -55zM-471 1055q55 0 89 39.5t36 105.5q3 57 -41 107q-46 49 -94 49q-60 0 -95.5 -40t-33.5 -106q0 -61 42.5 -108t96.5 -47z" />
    <glyph glyph-name="uni0338.alt" 
d="M-1161 133q-12 0 2 25l833 1079q9 12 27 12q12 0 -2 -24l-834 -1080q-9 -12 -26 -12z" />
    <glyph glyph-name="caron.alt" horiz-adv-x="1005" 
d="M334 625q-12 0 -12 39q0 95 -13 241q-2 31 6 46t45 50q32 31 47 26t11 -46q-13 -131 -64 -319q-9 -37 -20 -37z" />
    <glyph glyph-name="gravecomb.case" 
d="M-324 1133q-2 -5 -36 16l-283 176q-88 52 29 90q62 18 108 -39l168 -205q23 -29 14 -38z" />
    <glyph glyph-name="acutecomb.case" 
d="M-602 1133q-9 9 14 38l168 195q46 49 139 49q44 0 48.5 -21t-31.5 -44l-301 -201q-35 -21 -37 -16z" />
    <glyph glyph-name="uni030B.case" 
d="M-670 1151q-2 2 13 33l90 166q23 45 86 45q48 0 2 -52l-160 -180q-21 -21 -31 -12zM-424 1151q-6 6 12 33l111 166q18 27 35.5 36t56.5 9q15 0 21.5 -4.5t4.5 -12t-8 -16.5t-16 -19l-186 -180q-21 -21 -31 -12z" />
    <glyph glyph-name="uni0302.case" 
d="M-537 1331q19 29 47 29t48 -29q76 -119 151 -182q38 -33 29 -45q-11 -18 -53 16q-148 115 -174 115q-42 0 -175 -115q-44 -33 -53 -16q-9 12 29 45q84 78 151 182z" />
    <glyph glyph-name="uni030C.case" 
d="M-567 1126q-67 104 -152 183q-38 33 -29 45q8 17 54 -17q132 -114 174 -114q27 0 174 114q43 34 53 17q9 -12 -29 -45q-74 -62 -151 -183q-20 -29 -47.5 -29t-46.5 29z" />
    <glyph glyph-name="uni0306.case" 
d="M-711 1329q-6 43 9 43q6 0 18 -37q34 -100 182 -100q149 0 183 100q12 37 18 37q14 0 8 -43q-13 -79 -67.5 -128.5t-141.5 -49.5t-141.5 49.5t-67.5 128.5z" />
    <glyph glyph-name="uni030A.case" 
d="M-494 1004q-84 0 -137 48.5t-53 123.5q0 70 63 124q61 58 140 58q82 0 134.5 -48.5t51.5 -121.5q3 -70 -59 -129q-61 -55 -140 -55zM-481 1030q55 0 89 40t36 106q3 56 -41 106q-46 49 -95 49q-60 0 -95 -39.5t-34 -105.5q0 -61 43 -108.5t97 -47.5z" />
    <glyph glyph-name="tildecomb.case" 
d="M-772 1169q-13 13 18 54q75 106 125 106q15 1 90.5 -8.5t144.5 -18.5l70 -10q52 -6 93 60q12 21 22 31t14 6q10 -10 -12 -52q-70 -125 -135 -125q-37 0 -164 19q-123 18 -153 18h-5q-13 0 -19.5 -1.5t-17.5 -11.5t-28 -32q-34 -44 -43 -35z" />
    <glyph glyph-name="uni0335.case" 
d="M-209 721h-405q-18 0 -26.5 4t-6.5 12q3 13 31 13h403q38 0 35 -13q-6 -16 -31 -16z" />
    <glyph glyph-name="uni0336.case" 
d="M-213 983h-1235q-9 0 -15 2.5t-8 6t1 7.5q10 17 28 17h1233q9 0 16 -2.5t9.5 -6.5t-0.5 -8q-10 -16 -29 -16z" />
    <glyph glyph-name="uni0337.case" 
d="M-526 829l-512 -184q-35 -15 -35 2q0 12 24 21l512 184q35 15 35 0q0 -14 -24 -23z" />
    <glyph glyph-name="_part.stem02" horiz-adv-x="606" 
d="M475 16q41 -3 41 -14q0 -12 -41 -12q-21 0 -89 5t-89 5q-14 0 -92 -4q-59 -6 -86 -6q-41 0 -41 12q0 11 41 14q67 6 90.5 51.5t23.5 157.5v582q0 56 -18 65q-17 11 -111 -4q-27 -6 -30 2q-7 10 22 23q99 41 183 100l45 31q36 0 36 -195v-604q0 -112 24 -157.5t91 -51.5z
" />
    </font>
</defs>
</svg>
