<?xml version="1.0" standalone="no"?>
<!DOCTYPE svg PUBLIC "-//W3C//DTD SVG 1.1//EN" "http://www.w3.org/Graphics/SVG/1.1/DTD/svg11.dtd" >
<svg xmlns="http://www.w3.org/2000/svg" xmlns:xlink="http://www.w3.org/1999/xlink" version="1.1">
<metadata>
Created by FontForge 20170731 at Sun Jun 12 15:31:49 2022
 By Aleksey,,,
Copyright (c) 2018 by Elena Genova. All rights reserved. |DCNT
</metadata>
<defs>
<font id="AbovetheBeyondSerif-Italic" horiz-adv-x="0" >
  <font-face 
    font-family="Above the Beyond Serif"
    font-weight="400"
    font-style="italic"
    font-stretch="semi-expanded"
    units-per-em="2048"
    panose-1="0 0 5 0 0 0 0 0 0 0"
    ascent="1516"
    descent="-532"
    x-height="1022"
    cap-height="1382"
    bbox="-1410.8 -564.571 2593 1882"
    underline-thickness="102"
    underline-position="-307"
    slope="-18"
    unicode-range="U+0020-FB02"
  />
<missing-glyph horiz-adv-x="1003" 
d="M186 1495h637v-2007h-637v2007zM668 1294v66h-330v-66h129v-73h-131v-68h332v68h-131v73h131zM537 961v141h-201v-209h332v68h-131zM401 1034h66v-73h-66v73zM668 772v68h-332v-68h131v-74h-131v-65h201v139h131zM668 518v201h-66v-133h-266v-68h332zM668 246v227h-201
v-113h70v48h65v-95h-201v160h-65v-227h332zM668 -100v227h-332v-227h332zM401 59h201v-94h-201v94zM668 -213v66h-332v-66h139l-139 -94v-66h332v66h-205l141 94h64z" />
    <glyph glyph-name="fl" unicode="fl" horiz-adv-x="1081" 
d="M1141 1475l-391 -1282q-27 -98 0 -101h10q68 9 143 133q16 22 27 17q9 -6 -6 -31q-62 -109 -134.5 -171.5t-138.5 -62.5q-47 0 -61.5 27t-3.5 88q14 68 43 144l325 1067l7 24q-27 58 -82.5 95.5t-116.5 37.5q-108 0 -170 -117q-40 -73 -127 -356l-4 -16l244 12
q36 3 12 -31q-34 -40 -62 -37l-206 11l-150 -529q-135 -453 -197 -594q-117 -264 -284 -319q-56 -16 -113 -16q-65 0 -106 29t-41 69q0 36 24.5 56t57.5 20q25 0 38.5 -14.5t26.5 -51.5q13 -41 30 -59.5t46 -18.5q91 0 156 160q58 141 219 694l37 127q19 65 96 342
q20 77 -1.5 100t-109.5 23q-17 0 0 17q9 12 25 12q67 0 99 19t50 65q42 122 74 184q37 75 84 133q53 65 124.5 93t176.5 28q98 0 172 -39q72 20 125 47q27 15 35 15q6 -5 6.5 -9.5t-4.5 -20.5q-1 -2 -1 -3t-1 -3t-1.5 -3.5t-0.5 -3.5z" />
    <glyph glyph-name="f_f" unicode="ff" horiz-adv-x="1030" 
d="M1362 1516q68 0 107 -33.5t28 -81.5q-22 -60 -80 -60q-22 0 -32 13t-23 53q-13 41 -30 59.5t-46 18.5q-66 0 -127 -64q-103 -109 -201 -450l244 12q36 3 12 -31q-34 -40 -61 -37l-207 11l-149 -529q-135 -453 -197 -594q-117 -264 -285 -319q-56 -16 -112 -16
q-65 0 -106.5 29t-41.5 69q0 36 24.5 56t57.5 20q25 0 39.5 -14.5t26.5 -51.5q13 -41 30 -59.5t46 -18.5q90 0 157 166q69 161 217 688l37 127q19 65 96 342q20 74 -0.5 95.5t-109.5 21.5l-223 2q-123 -446 -154 -543q-135 -453 -197 -594q-117 -264 -284 -319
q-56 -16 -113 -16q-65 0 -106 29t-41 69q0 36 24.5 56t57.5 20q25 0 38.5 -14.5t26.5 -51.5q13 -41 30 -59.5t46 -18.5q90 0 160 166q69 168 215 688l37 127q19 65 96 342q20 77 -1.5 100t-109.5 23q-17 0 0 17q9 12 25 12q66 0 98.5 19.5t50.5 64.5q34 96 64 153.5
t78 110.5q101 113 301 113q128 0 229 -76q59 62 113 94q104 64 225 64zM461 967h250q67 0 99 24t58 94q42 106 84 175q-30 61 -87.5 100t-119.5 39q-55 0 -93 -23t-68 -78q-29 -53 -48.5 -104.5t-54.5 -161.5q-14 -51 -20 -65z" />
    <glyph glyph-name="f_f_i" unicode="ffi" horiz-adv-x="1525" 
d="M1286 1485q-66 0 -127 -64q-101 -104 -196 -440l350 16q26 0 56.5 1.5t47.5 3.5l17 2q25 0 34.5 -7.5t8.5 -29.5q-2 -32 -35 -121l-236 -653q-16 -53 -16 -78q0 -23 20 -23q28 0 70.5 36.5t79.5 96.5q16 29 26 19q9 -9 -6 -33q-63 -111 -134.5 -172.5t-137.5 -61.5
q-70 0 -70 70q0 56 47 189l205 542q19 44 23 70.5t-4 50.5q-11 47 -144 47h-213l-155 -549q-135 -453 -197 -594q-117 -264 -285 -319q-56 -16 -112 -16q-65 0 -106.5 29t-41.5 69q0 36 24.5 56t57.5 20q25 0 39.5 -14.5t26.5 -51.5q13 -41 30 -59.5t46 -18.5q90 0 157 166
q69 161 217 688l37 127q19 65 96 342q12 45 13 69t-13.5 37t-36.5 16t-69 3l-225 4q-110 -402 -156 -553q-135 -453 -197 -594q-117 -264 -284 -319q-56 -16 -113 -16q-65 0 -106 29t-41 69q0 36 24.5 56t57.5 20q25 0 38.5 -14.5t26.5 -51.5q13 -41 30 -59.5t46 -18.5
q90 0 160 166q69 168 215 688q115 400 133 477q20 77 -1.5 100t-109.5 23q-17 0 0 17q9 12 25 12q66 0 98.5 19.5t50.5 64.5q33 93 64 150.5t80 111.5q95 107 299 107q122 0 229 -76q59 62 113 94q104 64 225 64q68 0 107 -33.5t28 -81.5q-22 -60 -80 -60q-22 0 -32 13
t-23 53q-13 41 -30 59.5t-46 18.5zM465 977l225 4q84 1 117.5 21.5t58.5 82.5q45 112 86 175q-31 63 -86.5 101t-120.5 38q-83 0 -137 -64q-27 -31 -47 -80q-32 -70 -82 -231l-7 -21t-7 -26z" />
    <glyph glyph-name="f_f_l" unicode="ffl" horiz-adv-x="1579" 
d="M1638 1475l-391 -1282q-27 -98 0 -101h10q69 10 144 133q16 22 26 17q9 -6 -6 -31q-62 -109 -134 -171.5t-138 -62.5q-47 0 -62 27t-4 88q14 68 43 144l326 1067l6 24q-27 58 -82 95.5t-116 37.5q-110 0 -166 -102q-58 -106 -136 -387l242 12q36 3 12 -31
q-34 -40 -61 -37l-205 11l-149 -529q-135 -453 -197 -594q-117 -264 -285 -319q-56 -16 -112 -16q-65 0 -106.5 29t-41.5 69q0 36 24.5 56t57.5 20q25 0 39.5 -14.5t26.5 -51.5q13 -41 30 -59.5t46 -18.5q90 0 157 166q69 161 217 688l37 127q19 65 96 342q20 74 -0.5 95.5
t-109.5 21.5l-223 2q-123 -446 -154 -543q-135 -453 -197 -594q-117 -264 -284 -319q-56 -16 -113 -16q-65 0 -106 29t-41 69q0 36 24.5 56t57.5 20q25 0 38.5 -14.5t26.5 -51.5q13 -41 30 -59.5t46 -18.5q90 0 160 166q69 168 215 688l37 127q19 65 96 342q20 77 -1.5 100
t-109.5 23q-17 0 0 17q9 12 25 12q66 0 98.5 19.5t50.5 64.5q34 96 64 153.5t78 110.5q101 113 301 113q111 0 215 -66q103 127 299 127q98 0 172 -39q72 20 125 47q27 15 34 15q6 -5 6.5 -9.5t-4.5 -20.5q-1 -2 -1 -3t-1 -3t-1.5 -3.5t-0.5 -3.5zM461 967h250q67 0 99 24
t58 94q64 160 76 181q-27 58 -82 95.5t-117 37.5q-55 0 -93 -23t-68 -78q-29 -53 -48.5 -104.5t-54.5 -161.5q-14 -51 -20 -65z" />
    <glyph glyph-name="f_i" unicode="fi" horiz-adv-x="1013" 
d="M864 1516q68 0 107 -33.5t28 -81.5q-22 -60 -79 -60q-22 0 -32.5 13.5t-23.5 52.5q-13 41 -30 59.5t-46 18.5q-65 0 -126 -64q-103 -109 -197 -440q149 9 336 16q26 0 56.5 1.5t47.5 3.5l17 2q25 0 34.5 -7.5t8.5 -29.5q-2 -32 -35 -121l-236 -653q-16 -53 -16 -78
q0 -23 20 -23q28 0 70.5 36.5t79.5 96.5q16 29 26 19q9 -9 -6 -33q-63 -111 -134.5 -172.5t-137.5 -61.5q-70 0 -70 70q0 56 47 189l205 542q19 44 23 70.5t-4 50.5q-11 47 -144 47h-198l-156 -549q-135 -453 -197 -594q-117 -264 -284 -319q-56 -16 -113 -16q-65 0 -106 29
t-41 69q0 36 24.5 56t57.5 20q25 0 38.5 -14.5t26.5 -51.5q13 -41 30 -59.5t46 -18.5q91 0 156 160q58 141 219 694l37 127q19 65 96 342q20 77 -1.5 100t-109.5 23q-17 0 0 17q9 12 25 12q68 0 101.5 19.5t47.5 64.5q33 101 105 217q70 113 182 178q104 64 225 64z" />
    <glyph glyph-name=".notdef" horiz-adv-x="1003" 
d="M186 1495h637v-2007h-637v2007zM668 1294v66h-330v-66h129v-73h-131v-68h332v68h-131v73h131zM537 961v141h-201v-209h332v68h-131zM401 1034h66v-73h-66v73zM668 772v68h-332v-68h131v-74h-131v-65h201v139h131zM668 518v201h-66v-133h-266v-68h332zM668 246v227h-201
v-113h70v48h65v-95h-201v160h-65v-227h332zM668 -100v227h-332v-227h332zM401 59h201v-94h-201v94zM668 -213v66h-332v-66h139l-139 -94v-66h332v66h-205l141 94h64z" />
    <glyph glyph-name=".null" 
 />
    <glyph glyph-name="nonmarkingreturn" horiz-adv-x="682" 
 />
    <glyph glyph-name="space" unicode=" " horiz-adv-x="532" 
 />
    <glyph glyph-name="exclam" unicode="!" horiz-adv-x="421" 
d="M154 256q-6 1 -5 10.5t7 32.5q76 239 133 477q31 124 55 239t35 172.5t16 72.5q44 133 125 133q83 0 39 -133q-14 -42 -63 -148q-76 -173 -142 -336q-91 -224 -174 -477q-15 -43 -26 -43zM102 -8q-71 0 -71 76q0 45 29.5 77.5t62.5 32.5q35 0 54.5 -23.5t19.5 -62.5
q0 -37 -31 -68.5t-64 -31.5z" />
    <glyph glyph-name="quotedbl" unicode="&#x22;" horiz-adv-x="485" 
d="M293 987q-13 0 -4 41l63 227q15 63 84 111t66 10q0 -12 -13 -35l-167 -319q-18 -35 -29 -35zM510 987q-13 0 -4 41l63 227q15 63 84 111t66 10q0 -14 -12 -35l-168 -319q-18 -35 -29 -35z" />
    <glyph glyph-name="numbersign" unicode="#" horiz-adv-x="1198" 
d="M946 918h223q13 0 21 -4.5t6 -12.5q-3 -16 -35 -16h-227l-133 -377h225q14 0 21 -4.5t6 -11.5q-7 -17 -35 -17h-227l-158 -446q-5 -13 -13 -22t-16 -7q-18 4 -8 33l156 442h-371l-158 -446q-5 -14 -13 -22t-15 -7q-19 4 -9 33l156 442h-213q-13 0 -21 4.5t-6 12.5
q3 16 35 16h217l133 377h-215q-29 0 -26 16q7 17 35 17h219l149 423q4 13 12.5 22t14.5 7q21 -3 8 -33l-147 -419h372l150 423q4 13 12 22t14 7q22 -3 9 -33zM391 508h373l133 377h-373z" />
    <glyph glyph-name="dollar" unicode="$" horiz-adv-x="790" 
d="M885 1202q31 -11 16 -55q-28 -67 -59 -184q-6 -37 -15 -37q-16 0 -10 39q21 132 -12 188q-23 39 -51 64l-205 -611q100 -184 100 -297q0 -83 -40 -152.5t-87 -101.5q-84 -59 -180 -71l-29 -86q-9 -27 -20 -27q-14 0 -2 31l26 78q-56 -3 -88 2q-5 0 -51 4l-28 -88
q-9 -27 -21 -27q-14 0 -2 31l29 90q-76 14 -181 76q-23 14 -20 57q9 73 57 223q12 35 19 35q17 0 8 -31q-44 -157 2 -233q36 -58 127 -94l211 639q-105 208 -105 317q0 157 132 246q87 58 184 67l31 95q5 14 11.5 21.5t12.5 6.5q10 -3 0 -33l-29 -88h7q66 -3 122 -24l39 117
q4 13 11.5 21.5t13.5 6.5q10 -3 0 -33l-41 -122q27 -11 117 -60zM535 635l196 596q-50 33 -127 33l-155 -467q43 -88 86 -162zM389 1012q0 -80 45 -185l146 435q-86 -11 -138.5 -77t-52.5 -173zM272 6q6 0 56 4l149 455q-29 68 -82 168l-205 -615q44 -12 82 -12zM532 262
q0 72 -40 170l-140 -416q83 26 131.5 88t48.5 158z" />
    <glyph glyph-name="percent" unicode="%" horiz-adv-x="1234" 
d="M197 10q-10 2 -8 13t16 32l858 1198q-107 -73 -227 -73q-99 0 -179 45q43 -108 -6 -252q-86 -248 -235 -318q-52 -24 -103 -24q-59 0 -95 32.5t-46 83t-5.5 105.5t21.5 106q83 255 244 322q47 20 98 20q76 0 134 -40q98 -48 176 -48q140 0 280 140q26 26 43 22
q10 -2 8 -13t-16 -32l-919 -1290q-25 -32 -39 -29zM326 651q45 0 90 51q65 74 125 250q45 136 38.5 231t-61.5 95q-28 0 -65 -29q-89 -67 -150 -258q-51 -154 -44.5 -247t67.5 -93zM778 -20q-59 0 -95 32.5t-46 83t-5.5 105.5t21.5 106q83 257 244 322q47 20 98 20
q56 -1 91 -34t45 -82.5t5.5 -104.5t-22.5 -106q-77 -243 -235 -318q-53 -24 -101 -24zM791 0q42 0 90 51q72 93 125 250q45 137 38 231.5t-63 94.5q-26 0 -66 -29q-87 -69 -149 -258q-51 -154 -44.5 -247t69.5 -93z" />
    <glyph glyph-name="ampersand" unicode="&#x26;" horiz-adv-x="1792" 
d="M635 -25q-171 0 -299 84q-128 85 -185.5 226.5t-31.5 306.5q38 235 194 391q160 160 377 160q126 0 203 -92q96 83 144.5 163t35.5 125q-18 64 -65 123q-24 30 -21 66q1 32 24 53t54 21q56 0 84 -51t16 -130q-21 -138 -149 -286q-121 -145 -580 -463l-190 -131
q6 -127 78 -250q117 -191 385 -191q226 0 409 160q182 160 256 471l-47 27q-184 106 -280 106q-38 0 -58 -14q-37 -21 -43 -62q-9 -59 39 -124q37 -49 25 -74q-11 -24 -37 -35t-58 -4q-43 7 -55.5 61.5t12.5 120.5q28 78 105 139q97 72 199 72q106 0 282 -102
q171 -97 242 -97q49 0 82 33q29 29 35 72q9 48 -64 115q-42 39 -39 67q5 25 28.5 42t55.5 16q44 -2 68 -52.5t12 -117.5q-15 -91 -76 -158q-107 -107 -209 -107q-67 0 -194 62q-95 -355 -301 -549q-205 -193 -463 -193zM240 567l217 152q221 156 303 219q-33 70 -97.5 109.5
t-140.5 23.5q-149 -27 -221 -170q-70 -140 -61 -334z" />
    <glyph glyph-name="quotesingle" unicode="'" horiz-adv-x="262" 
d="M285 987q-13 0 -4 41l63 227q15 63 84 111t66 10q0 -12 -13 -35l-168 -319q-18 -35 -28 -35z" />
    <glyph glyph-name="parenleft" unicode="(" horiz-adv-x="575" 
d="M225 -403q-10 -6 -30 20q-147 167 -177.5 407t60.5 508q80 249 261 479.5t433 399.5q40 21 43 12q7 -11 -29 -39q-433 -353 -596 -860q-175 -532 23 -889q21 -29 12 -38z" />
    <glyph glyph-name="parenright" unicode=")" horiz-adv-x="575" 
d="M-229 -399q-7 11 28 39q431 355 609 892q164 503 -35 857q-22 29 -13 38t31 -20q148 -168 178 -403q34 -235 -49 -480q-88 -272 -269.5 -507t-436.5 -404q-40 -21 -43 -12z" />
    <glyph glyph-name="asterisk" unicode="*" horiz-adv-x="612" 
d="M399 782q-33 9 -18 43l98 240l-250 -72q-33 -9 -39 23q-9 34 27 37l258 34l-188 181q-27 27 0 45q24 24 45 -4l160 -205l61 252q8 31 41 22q30 -9 18 -43l-98 -239l250 71q32 14 41 -22q9 -34 -29 -37l-258 -35l189 -180q23 -23 2 -45q-27 -21 -47 4l-160 205l-62 -250
q-6 -34 -41 -25z" />
    <glyph glyph-name="plus" unicode="+" horiz-adv-x="1024" 
d="M539 696h407q21 0 28 -3t3 -13q-6 -18 -33 -18h-405v-420q0 -27 -19 -33q-10 -4 -13 3t-3 28v422h-369q-20 0 -28 4.5t-3 13.5q6 16 33 16h367v353q0 26 16 32q9 5 14 -2.5t5 -27.5v-355z" />
    <glyph glyph-name="comma" unicode="," horiz-adv-x="333" 
d="M-133 -293q-41 0 -12 19l8 4q84 44 141 106t57 121q4 12 -6.5 21.5t-34 19t-24.5 10.5q-43 21 -43 68q0 33 26.5 55.5t67.5 22.5q49 0 77 -33.5t28 -83.5q0 -75 -38.5 -143t-95.5 -107q-47 -35 -91.5 -57.5t-59.5 -22.5z" />
    <glyph glyph-name="hyphen" unicode="-" horiz-adv-x="743" 
d="M666 537h-543q-20 0 -28 4.5t-3 13.5q6 16 33 16h543q20 0 27 -3t3 -13q-6 -18 -32 -18z" />
    <glyph glyph-name="hyphen" unicode="&#x2010;" horiz-adv-x="743" 
d="M666 537h-543q-20 0 -28 4.5t-3 13.5q6 16 33 16h543q20 0 27 -3t3 -13q-6 -18 -32 -18z" />
    <glyph glyph-name="period" unicode="." horiz-adv-x="319" 
d="M41 -18q-72 0 -72 75q0 45 29.5 78t62.5 33q35 0 54.5 -23.5t19.5 -62.5q0 -37 -30.5 -68.5t-63.5 -31.5z" />
    <glyph glyph-name="slash" unicode="/" horiz-adv-x="647" 
d="M-158 -360q-10 7 2 34l967 1772q16 28 31 22q10 -10 -4 -34l-965 -1772q-19 -28 -31 -22z" />
    <glyph glyph-name="zero" unicode="0" horiz-adv-x="968" 
d="M313 -27q-94 0 -148.5 63t-65.5 161.5t2.5 207.5t48.5 213q173 523 454 646q71 32 141 32q75 0 123.5 -42.5t67.5 -110.5t20 -154.5t-14 -171t-41 -164.5q-81 -244 -192.5 -403t-229.5 -225q-91 -52 -166 -52zM336 0q85 0 170 104q128 162 239 500q55 170 76.5 318.5
t-1.5 247t-97 98.5q-61 0 -127 -60q-165 -154 -283 -518q-86 -263 -98 -467q-6 -105 24.5 -164t96.5 -59z" />
    <glyph glyph-name="one" unicode="1" horiz-adv-x="761" 
d="M694 1253l-334 -1028l-4 -12q-25 -81 -30 -115q-5 -35 15 -54.5t67 -25.5q17 -1 24 -7.5t2 -14.5q-3 -6 -28 -6q-36 0 -95 6q-78 4 -84 4q-21 0 -90.5 -5t-95.5 -5q-15 0 -24 4.5t-4.5 11t24.5 12.5q84 13 123.5 56.5t72.5 150.5l232 713q30 99 4 111q-29 13 -154 -27
q-37 -9 -43 -4t6.5 16t28.5 17q198 98 352 225q23 20 35 20t0 -43z" />
    <glyph glyph-name="two" unicode="2" horiz-adv-x="905" 
d="M172 186q-31 -25 -30 -42t36 -17l311 2q111 3 164 33q56 37 101 119q10 20 18 28t14 6q16 -3 -6 -45q-96 -207 -106 -231q-21 -43 -56 -43q-55 0 -98 2t-98 2h-453q-22 2 -31 5t-8 9q3 8 29 31q165 142 262 229q61 53 230 218q253 253 317 448q17 51 20 95t-9.5 81
t-50.5 58.5t-99 21.5q-173 0 -316 -143q-23 -23 -37 -23q-13 3 21 43q189 223 424 223q143 0 190 -90q47 -89 13 -192q-57 -175 -273 -398q-256 -262 -479 -430z" />
    <glyph glyph-name="three" unicode="3" horiz-adv-x="915" 
d="M33 -131q-47 0 -84 27t-37 69q0 30 19 51t49 21q49 0 88 -57q35 -50 84 -50q69 0 176 58q104 57 194 157q95 109 115 236q8 72 2 145q-5 73 -70 107t-182 10q-45 -9 -45 2q0 17 27 23q18 3 30 12q123 57 215 149q95 95 129 193q26 78 -9 128t-128 50q-145 0 -282 -125
q-25 -22 -37 -22q-14 0 6 26q3 7 12 17q200 200 385 200q125 0 174 -69t17 -168q-52 -169 -332 -328q36 4 45 4q126 0 180 -82t8 -225q-44 -137 -168 -258q-130 -127 -252 -195q-187 -106 -329 -106z" />
    <glyph glyph-name="four" unicode="4" horiz-adv-x="972" 
d="M313 -10q-15 0 -24 4.5t-4.5 11t24.5 12.5q82 13 121 56.5t76 152.5l55 168h-475q-22 0 -33 11q-13 13 21 40l952 945q28 26 39 22q12 -3 -23 -41l-811 -815q-16 -17 -21 -30.5t3.5 -21t28.5 -7.5h352l115 354q9 21 67 45q77 27 80 16l-135 -415h170q18 0 -35 -60
q-46 -43 -55 -43h-113l-55 -172q-42 -96 -34.5 -145.5t81.5 -59.5q17 -1 24.5 -7.5t2.5 -14.5q-3 -6 -29 -6q-36 0 -94 6q-78 4 -84 4q-20 0 -90 -5t-97 -5z" />
    <glyph glyph-name="five" unicode="5" horiz-adv-x="925" 
d="M-25 -137q-41 -8 -41 8q3 12 41 18q129 21 254 70q123 45 248 152q123 102 170 243q56 166 -35.5 278t-312.5 144q-46 6 -20 51l241 375q20 30 51 35q52 8 191 35l156 31q39 8 57 20.5t43 42.5q35 38 43 35q12 -6 -14 -45q-70 -105 -101 -139.5t-65 -38.5l-392 -70
l-114 -178q-35 -51 16 -60q146 -27 262 -98q71 -45 101 -90q90 -126 34 -279q-35 -112 -135 -214t-231 -171q-257 -130 -447 -155z" />
    <glyph glyph-name="six" unicode="6" horiz-adv-x="1042" 
d="M309 -20q-120 0 -187 61.5t-67 181.5q0 86 35 193q58 179 197 350t303 295q319 238 602 352q40 15 45 2q1 -3 -4.5 -6.5t-21.5 -11.5q-3 -2 -5 -2.5t-5.5 -2.5t-6.5 -3q-300 -136 -571 -383q-137 -124 -242 -285t-160 -332q-31 -102 -31 -172q0 -99 49 -155t132 -56
q114 0 195.5 89t105.5 229q8 44 8 98q0 190 -139 190q-38 0 -99 -22q-48 -20 -44.5 -7t36.5 27l10 4q79 31 162 31q104 0 163.5 -55t59.5 -148q0 -50 -18 -108q-56 -174 -188 -264t-314 -90z" />
    <glyph glyph-name="seven" unicode="7" horiz-adv-x="993" 
d="M195 -43q-15 -47 -72 -41q-46 3 -49 37q0 6 4 18q88 200 274 451q202 275 398 483l251 266l-446 -2q-115 0 -162 -18q-42 -17 -119 -117q-29 -39 -38 -30q-5 1 -6 6.5t3 15.5t13 23q81 118 153 280q9 21 23 17q9 -3 6 -19q-9 -28 35 -37q32 -5 368 -2q191 3 263 8
q32 3 39 -4q10 -10 -19 -39q-86 -86 -115 -118l-137 -150q-85 -95 -135 -145q-349 -373 -532 -883z" />
    <glyph glyph-name="eight" unicode="8" horiz-adv-x="921" 
d="M739 1300q150 0 213 -81q65 -84 25 -197q-30 -92 -119 -166q-76 -65 -256 -180q5 -7 34 -41.5t38.5 -47.5t26.5 -40.5t28 -52.5q47 -106 14 -211q-41 -126 -168 -222q-127 -92 -278 -92q-146 0 -209 84q-59 86 -22 199q37 118 153 209q79 61 96 71l117 72q6 3 27 17
q-34 40 -49 57.5t-38 49t-38 60.5q-41 114 -12 203q48 143 165 223q121 86 252 86zM854 1026q18 59 14.5 102t-16.5 70.5t-37.5 44t-49 23t-50.5 6.5q-88 0 -161 -57t-103 -152q-30 -86 12 -193q43 -79 121 -170q211 147 270 326zM618 215q36 85 9 168q-7 26 -39 78
q-7 12 -14 22t-14.5 20.5t-12.5 17t-15 18t-14.5 16.5t-18.5 20.5t-20 22.5q-122 -84 -188.5 -169.5t-102.5 -197.5q-30 -93 14 -161t140 -68q98 0 168 59t108 154z" />
    <glyph glyph-name="nine" unicode="9" horiz-adv-x="1083" 
d="M834 1298q120 0 186.5 -61.5t66.5 -181.5q0 -90 -34 -193q-58 -179 -197 -350q-141 -173 -305 -295q-315 -237 -600 -352q-40 -15 -45 -2q-1 3 4.5 6.5t21.5 11.5q11 5 17 8q300 136 569 381q138 126 243.5 286.5t160.5 332.5q30 99 30 172q0 99 -48.5 155t-131.5 56
q-114 0 -195.5 -89t-105.5 -229q-8 -44 -8 -98q0 -190 139 -190q37 0 98 22q48 20 44.5 7t-36.5 -27l-10 -4q-79 -31 -161 -31q-104 0 -164 55t-60 148q0 46 19 108q56 174 188 264t314 90z" />
    <glyph glyph-name="colon" unicode=":" horiz-adv-x="382" 
d="M322 823q-72 0 -72 76q0 45 29.5 78t62.5 33q35 0 54.5 -23.5t19.5 -62.5q0 -37 -30.5 -69t-63.5 -32zM55 -18q-71 0 -71 75q0 45 29.5 78t62.5 33q35 0 54.5 -23.5t19.5 -62.5q0 -37 -31 -68.5t-64 -31.5z" />
    <glyph glyph-name="semicolon" unicode=";" horiz-adv-x="438" 
d="M324 823q-72 0 -72 76q0 45 29.5 78t62.5 33q35 0 54.5 -23.5t19.5 -62.5q0 -37 -30.5 -69t-63.5 -32zM-57 -293q-41 0 -13 19l9 4q84 44 141 106t57 121q4 12 -6.5 21.5t-34 19t-24.5 10.5q-43 21 -43 68q0 33 26.5 55.5t67.5 22.5q49 0 76.5 -33.5t27.5 -83.5
q0 -75 -38 -143t-95 -107q-47 -35 -91.5 -57.5t-59.5 -22.5z" />
    <glyph glyph-name="equal" unicode="=" horiz-adv-x="1024" 
d="M944 842h-809q-20 0 -28 4.5t-3 13.5q7 17 33 17h809q20 0 27.5 -3.5t3.5 -13.5q-6 -18 -33 -18zM944 543h-809q-20 0 -28 4.5t-3 13.5q7 17 33 17h809q20 0 27.5 -3.5t3.5 -13.5q-6 -18 -33 -18z" />
    <glyph glyph-name="question" unicode="?" horiz-adv-x="753" 
d="M344 279q-145 56 -145 215q0 154 198 299q14 10 61 43t66 46.5t59.5 45t59 50.5t47 51t41 58t23 59t10.5 66q0 98 -76 144q-58 37 -106 37q-53 0 -78.5 -25t-50.5 -92q-12 -35 -20 -46t-21 -11q-26 0 -47.5 21.5t-22.5 51.5q-6 61 44 102.5t130 41.5q95 0 186 -58
q67 -41 110.5 -105t43.5 -134q0 -83 -53 -164.5t-139 -147.5q-20 -16 -67 -50.5t-71.5 -54.5t-64 -52.5t-61.5 -57.5t-45 -56t-33.5 -62t-10.5 -62q0 -90 56 -131q44 -33 18 -33q-8 0 -41 11zM195 -18q-72 0 -72 75q0 45 29.5 78t62.5 33q35 0 54.5 -23.5t19.5 -62.5
q0 -37 -30.5 -68.5t-63.5 -31.5z" />
    <glyph glyph-name="at" unicode="@" horiz-adv-x="1644" 
d="M741 -248q-215 0 -370 88q-140 76 -215.5 208t-75.5 308q0 254 137 473q141 226 361 349q225 129 471 129q258 0 415 -142q158 -143 158 -377q0 -180 -106 -358q-67 -111 -187 -190q-119 -78 -229 -78q-164 0 -164 133q0 86 70 248q-52 -73 -168 -195
q-183 -189 -283 -192q-72 3 -72 75t58 185t125 205q242 333 399 333q66 0 106 -49q40 23 78 68q4 4 8 4q15 0 9 -19q-221 -561 -224 -571q-24 -73 -24 -121q0 -80 94 -80q152 0 291 183t139 383q0 234 -149 368q-150 135 -406 135q-220 0 -397 -104q-189 -110 -303 -313
q-113 -198 -113 -422q0 -160 47 -269q150 -331 613 -331q120 0 215 30q90 29 243 105h2q10 0 13 -12q3 -7 -2 -7q-253 -180 -564 -180zM627 248q64 0 145 69q100 87 203 232q100 141 131 274q-2 20 -23.5 37t-54.5 17q-126 0 -276 -181q-183 -216 -183 -374q0 -33 16 -53.5
t42 -20.5z" />
    <glyph glyph-name="A" unicode="A" horiz-adv-x="1316" 
d="M1386 1378l-393 -1130q-19 -60 -19.5 -101t17 -68.5t38 -41t42.5 -17.5q32 -6 34 -12q1 -3 -1 -6q-3 -8 -37 -8q-4 0 -82 4q-39 2 -102 2q-7 0 -97 -4q-67 -6 -94 -6q-38 0 -36 13q0 1 1 3q4 7 37 10q52 4 82.5 44.5t63.5 142.5l141 403l-377 -14l-356 -379
q-126 -135 -117 -170q7 -24 51 -27q25 0 35 -11q8 -8 -12 -13q-9 -2 -25 -2q-18 0 -74.5 5t-72.5 5q-15 0 -69 -5t-70 -5q-38 0 -35 16q4 7 37 10q114 9 313 220l1010 1046q9 9 34.5 23.5t38.5 25.5q19 17 33 34t20 26.5t12 15.5t13 6q25 0 16 -35zM1196 1217l-557 -590
l354 14z" />
    <glyph glyph-name="B" unicode="B" horiz-adv-x="1116" 
d="M1116 1028q-40 -123 -160 -211q-119 -85 -251 -100q415 -15 307 -348q-71 -219 -242 -299t-440 -80q-34 0 -111 6q-102 4 -108 4q-21 0 -84 -5t-80 -5q-27 0 -36 12q-5 6 10 10q11 3 30 4q62 6 99 52.5t75 158.5l301 926l-2 -4q18 55 25.5 90.5t5.5 62.5t-18 40t-46 14
q-38 6 -35 18q5 8 37 8q14 0 81 -5t97 -5q26 0 121 10q105 11 121 11q220 0 292.5 -87t10.5 -278zM981 1036q102 322 -203 322q-88 0 -155 -12l-205 -625h108q186 0 292.5 72.5t162.5 242.5zM879 381q54 163 -16 239t-269 76h-184l-156 -479q-29 -113 -3 -150t126 -42
q152 -9 235 32q190 78 267 324z" />
    <glyph glyph-name="C" unicode="C" horiz-adv-x="1212" 
d="M600 -20q-213 0 -335 133t-122 360q0 162 63 324.5t175 294.5q114 134 282.5 214t358.5 80q153 0 289 -77q24 -15 24 -37q0 -1 -0.5 -4l-1.5 -9l-2 -12q-17 -96 -53 -196q-2 -8 -5 -13.5t-6 -7.5t-5 0q-8 4 -5 21q21 133 -24 204q-65 105 -240 105q-188 0 -360 -146
q-166 -141 -262 -356q-92 -210 -92 -412q0 -203 91.5 -321.5t254.5 -118.5q152 0 303 127q69 57 129 168q6 12 11.5 20.5t10 11.5t6.5 1q5 0 5 -6q0 -4 -11 -37q-49 -121 -59 -156q-9 -35 -47 -53q-108 -56 -189 -80q-80 -22 -184 -22z" />
    <glyph glyph-name="D" unicode="D" horiz-adv-x="1337" 
d="M842 1393q322 0 435.5 -181t8.5 -505q-86 -256 -246 -433q-272 -294 -651 -294q-36 0 -141 10t-137 10q-21 0 -84 -5t-80 -5q-27 0 -36 12q-5 6 10 10q11 3 30 4q62 6 99 52.5t75 158.5l301 926l-2 -4q18 55 25.5 90.5t5.5 62.5t-18 40t-46 14q-38 6 -35 18q5 8 37 8
q13 0 81 -5t99 -5q38 0 136 10q108 11 133 11zM1141 680q35 107 48 203.5t-1 183.5t-56.5 150.5t-124.5 101t-198 37.5q-86 0 -184 -10l-379 -1160q-31 -101 10.5 -139.5t151.5 -38.5q315 0 534 287q130 172 199 385z" />
    <glyph glyph-name="E" unicode="E" horiz-adv-x="1062" 
d="M-59 -10q-42 0 -40 13q0 1 1 3q4 7 41 10q70 6 109 52t77 159l301 922q25 71 29.5 114t-13 66.5t-61.5 26.5q-26 0 -38 11q-9 8 12 12q11 3 28 3q29 0 90 -6q82 -4 105 -4q6 0 338 6q61 1 117 2t83.5 1.5t32.5 0.5q24 0 30 -12t-1 -37q-22 -121 -25 -174q-3 -37 -14 -41
q-7 -1 -11 7.5t-6 29.5q-7 96 -53.5 135.5t-157.5 50.5q-126 11 -251 2q-29 -1 -41 -14t-29 -63l-172 -533h213q209 0 268 146q14 36 25 36q17 0 2 -45q-6 -19 -30.5 -79t-29.5 -78q-4 -9 -22 -80l-25 -88q-12 -37 -20 -37q-13 0 -4 45q17 75 -24 111t-148 36h-217
l-134 -415q-21 -77 -23 -127t17.5 -80t57 -41.5t100.5 -11.5q56 0 117 6q239 24 360 250q10 19 18.5 27.5t14.5 6.5q16 -3 -6 -45q-20 -41 -58.5 -128t-50.5 -109q-12 -26 -23 -34.5t-32 -8.5q-6 0 -33 0.5t-82 1.5t-114 2q-313 6 -404 6q-20 0 -106 -4q-61 -6 -88 -6z" />
    <glyph glyph-name="F" unicode="F" horiz-adv-x="999" 
d="M-66 -10q-41 0 -39 13q0 1 1 3q4 7 41 10q70 6 109 52t77 159l301 922q25 71 29.5 114t-13 66.5t-61.5 26.5q-26 0 -38 11q-9 8 12 12q11 3 28 3q20 0 87 -5t89 -5q53 0 176 3t164 3q58 1 119 2t92.5 1.5t42.5 0.5q29 0 35.5 -10t-4.5 -41q-18 -62 -27 -172
q-3 -37 -14 -41q-7 -1 -11 7.5t-6 29.5q-7 96 -53.5 135.5t-157.5 50.5q-123 11 -256 2q-29 -1 -40.5 -14t-28.5 -63l-180 -557h196q211 0 270 145q15 37 23 37q17 0 2 -45q-12 -32 -33 -78q-16 -40 -30 -82l-21 -76q-5 -27 -22 -90q-12 -37 -21 -37q-13 0 -4 45
q18 75 -23.5 111.5t-148.5 36.5h-199l-147 -453q-39 -103 -30 -153t73 -54q33 0 41 -12q4 -6 -10 -10q-11 -3 -33 -4q-29 0 -88 6q-78 4 -86 4q-15 0 -97 -4q-58 -6 -86 -6z" />
    <glyph glyph-name="G" unicode="G" horiz-adv-x="1361" 
d="M627 -20q-232 0 -358 129.5t-126 357.5q0 227 105 432q111 213 311 348q207 139 463 139q156 0 295 -77q24 -15 24 -37q0 -1 -0.5 -4l-1.5 -9l-2 -12q-17 -96 -53 -196q-2 -8 -5 -13.5t-6 -7.5t-5 0q-7 4 -4 21q21 131 -25 204q-65 105 -246 105q-188 0 -360 -146
q-166 -141 -262 -356q-92 -213 -92 -418q0 -204 94.5 -320t269.5 -116q188 0 258 70q45 45 131 325q33 100 16 150.5t-90 62.5q-38 7 -37 15q0 2 1 4q3 13 43 10l182 -8q16 -2 74 2q13 1 28.5 2t24 1.5t12.5 0.5q42 0 39 -16q-7 -7 -39 -15q-49 -12 -78.5 -58.5
t-60.5 -156.5q-69 -241 -66 -264q0 -10 2 -14q3 -10 10 -18.5t11 -13.5t2 -7q-3 -12 -57 -27q-244 -69 -422 -69z" />
    <glyph glyph-name="H" unicode="H" horiz-adv-x="1341" 
d="M1526 1382q11 0 18 -4t6 -10q-3 -11 -30 -14q-45 -6 -71 -20.5t-46 -45.5q-22 -35 -57 -143l-302 -922q-40 -128 -34 -157q9 -41 69 -50q17 -1 23.5 -7.5t1.5 -14.5q-3 -6 -25 -6q-31 0 -96 6q-82 4 -86 4q-18 0 -80 -5t-88 -5q-12 0 -19.5 4.5t-4 11t21.5 12.5
q73 13 110.5 57t73.5 152l148 453h-660l-149 -455q-41 -130 -35 -157q9 -41 70 -50q17 -1 23 -7.5t1 -14.5q-3 -6 -24 -6q-33 0 -97 6q-82 4 -86 4q-18 0 -80 -5t-88 -5q-12 0 -19.5 4.5t-4 11t21.5 12.5q73 13 111 57.5t74 151.5l299 922q34 96 27.5 144.5t-70.5 62.5
q-25 6 -19 20q3 8 29 8t85 -5t75 -5q22 0 100 4q62 6 88 6q11 0 18.5 -4t6.5 -10q-3 -11 -31 -14q-45 -6 -71 -20.5t-46 -45.5q-22 -35 -57 -143l-141 -432h659l141 434q34 96 27.5 144.5t-70.5 62.5q-24 6 -18 20q3 8 29 8t84.5 -5t74.5 -5q23 0 101 4q61 6 88 6z" />
    <glyph glyph-name="I" unicode="I" horiz-adv-x="546" 
d="M731 1382q11 0 18.5 -4t6.5 -10q-3 -11 -31 -14q-45 -6 -71 -20.5t-46 -45.5q-22 -35 -57 -143l-301 -922q-41 -130 -35 -157q9 -41 70 -50q17 -1 23 -7.5t1 -14.5q-3 -6 -24 -6q-33 0 -97 6q-82 4 -86 4q-18 0 -80 -5t-88 -5q-12 0 -19.5 4.5t-4 11t21.5 12.5
q73 13 111 57.5t74 151.5l299 922q34 96 27.5 144.5t-70.5 62.5q-25 6 -19 20q3 8 29 8t85 -5t75 -5q22 0 100 4q62 6 88 6z" />
    <glyph glyph-name="J" unicode="J" horiz-adv-x="751" 
d="M967 1382q11 0 18 -4t6 -10q-3 -11 -30 -14q-45 -6 -71 -20.5t-46 -45.5q-20 -34 -30.5 -58.5t-29.5 -84.5l-325 -1006q-64 -193 -137 -291q-66 -96 -168 -159q-64 -39 -138 -68q-79 -31 -112 -31q-61 0 -90.5 26.5t-16.5 70.5q7 24 32.5 44.5t45.5 20.5q38 0 64 -51
q25 -42 69.5 -44.5t81.5 28.5q107 61 227 438l334 1024q35 96 27.5 144.5t-72.5 62.5q-19 6 -16 20q3 8 28 8q36 0 95 -6q78 -4 86 -4t82 4q59 6 86 6z" />
    <glyph glyph-name="K" unicode="K" horiz-adv-x="1255" 
d="M1413 1366q-4 -7 -37 -10q-38 -3 -69 -17q-6 -2 -70 -34q-11 -5 -76 -52l-43 -30l-43 -33l-555 -414l350 -608q82 -143 168 -152q19 -1 27 -5.5t6 -12.5q-3 -11 -37 -8q-127 10 -211 10q-16 0 -86 -4q-53 -6 -59 -6q-20 0 -29 4t-6 12q0 3 37 12q65 18 75 51.5t-28 82.5
l-315 542l-11 -8l-151 -463q-41 -130 -35 -157q9 -41 70 -50q17 -1 23 -7.5t1 -14.5q-3 -6 -24 -6q-33 0 -97 6q-82 4 -86 4q-18 0 -80 -5t-88 -5q-12 0 -19.5 4.5t-4 11t21.5 12.5q73 13 111 57.5t74 151.5l299 922q34 96 27.5 144.5t-70.5 62.5q-25 6 -19 20q3 8 29 8
t85 -5t75 -5q22 0 100 4q62 6 88 6q11 0 18.5 -4t6.5 -10q-3 -11 -31 -14q-45 -6 -71 -20.5t-46 -45.5q-22 -35 -57 -143l-137 -422l618 481q157 121 84 148l-16 4q-35 6 -36 13q-1 2 1 5q3 11 39 8l104 -10q36 -4 90 2q52 8 80 8q38 0 36 -13q0 -1 -1 -3z" />
    <glyph glyph-name="L" unicode="L" horiz-adv-x="1019" 
d="M-61 -10q-42 0 -40 13q0 1 1 3q4 7 41 10q70 6 109 52t77 159l301 922q25 71 29.5 114t-13 66.5t-61.5 26.5q-26 0 -38 11q-9 8 12 12q11 3 28 3q20 0 86 -5t88 -5q10 0 92 4q61 6 90 6q42 0 40 -13l-1 -3q-2 -7 -41 -10q-70 -6 -109 -52t-77 -159l-279 -860
q-43 -154 -14.5 -207t146.5 -53q20 0 137 6q233 12 360 250q10 19 18.5 27.5t14.5 6.5q16 -3 -6 -45q-20 -41 -58.5 -128t-50.5 -109q-12 -27 -22 -35t-33 -8q-6 0 -33 0.5t-82 1.5t-114 2q-337 6 -387 6h-31q-25 0 -93.5 -5t-86.5 -5z" />
    <glyph glyph-name="M" unicode="M" horiz-adv-x="1683" 
d="M586 -20q-14 0 -17 34l-77 1137q-2 32 -5 33q-5 0 -22 -43l-354 -918q-40 -103 -34 -153.5t66 -53.5q25 0 35 -11q8 -8 -12 -13q-9 -2 -25 -2q-11 0 -57.5 5t-65.5 5q-12 0 -67 -5t-78 -5q-38 0 -35 16q4 7 37 10q45 5 73 17.5t52 42.5q22 30 34 55.5t40 95.5l379 957
q65 160 -43 172q-38 3 -35 18q5 8 37 8q17 0 77.5 -5t81.5 -5q29 -3 29 -33l88 -1192l828 1194q22 31 51 31h10q21 0 84 5t78 5q38 0 36 -13q0 -1 -1 -3q-4 -7 -37 -10q-131 -12 -174 -211l-197 -922q-32 -96 -20.5 -145.5t77.5 -59.5q13 -1 20 -7.5t5 -14.5q-3 -6 -27 -6
q-21 0 -82 5t-77 5q-18 0 -80 -5t-88 -5q-9 0 -16 2.5t-9.5 6t0.5 7.5q3 6 21 12q75 13 105.5 56t55.5 153l189 895l6 31q1 4 2 10q4 19 3 19l-11 -13q-6 -9 -10 -14l-19 -27l-795 -1124q-18 -24 -30 -24z" />
    <glyph glyph-name="N" unicode="N" horiz-adv-x="1329" 
d="M922 -20q-13 0 -19 16l-379 1229q-7 22 -10 23q-2 0 -6 -9l-10 -27l-322 -989q-37 -102 -32 -151.5t65 -55.5q26 -2 34 -14q4 -7 -10 -10q-10 -2 -28 -2q-11 0 -57.5 5t-67.5 5q-12 0 -67 -5t-79 -5q-18 0 -27 4t-7 12q4 7 37 10q82 9 118 54q41 47 80 157l316 922
q17 57 24 90t5.5 61t-17 40.5t-45.5 15.5q-25 0 -35 11q-8 8 12 13l25 2q17 0 78 -5t82 -5h8q25 0 35 -29l346 -1114q9 -34 20 -2l6 15l281 907q34 103 27.5 152t-64.5 55q-25 0 -35 11q-8 8 12 13q9 2 25 2q11 0 58.5 -5t68.5 -5q12 0 67 5t78 5q27 0 36 -12q5 -6 -10 -10
q-11 -3 -30 -4q-80 -9 -118 -53q-36 -44 -76 -158l-377 -1149q-6 -16 -16 -16z" />
    <glyph glyph-name="O" unicode="O" horiz-adv-x="1366" 
d="M588 -20q-192 0 -312 153t-120 363q0 346 217 606q107 128 252 205q141 75 284 75q186 0 299 -143q117 -144 117 -336q0 -204 -69.5 -392.5t-192.5 -311.5q-105 -105 -235 -162t-240 -57zM594 4q181 0 381 256q95 121 160 318q67 198 67 372q0 114 -26 197
q-58 211 -263 211q-243 0 -444 -287q-88 -130 -139 -311q-54 -190 -54 -344q0 -204 84 -308t234 -104z" />
    <glyph glyph-name="P" unicode="P" horiz-adv-x="1058" 
d="M-59 -10q-14 0 -21 4.5t-3 11t20 12.5q75 13 111 56.5t73 152.5l313 959q19 68 19 102q0 62 -64 68q-25 0 -35 11q-8 8 12 13l25 2q14 0 80 -5t96 -5q39 0 152 10q128 11 131 11q149 0 238.5 -78.5t89.5 -206.5q0 -197 -156 -344q-155 -146 -377 -146q-45 0 -72 9
q-32 8 -32 16q0 10 12 10q1 0 3.5 -0.5l7.5 -1.5t11 -2q35 -6 66 -6q176 0 293 150q119 149 119 315q0 244 -305 244q-40 0 -132 -15l-362 -1114q-37 -110 -37 -141q0 -55 72 -64q14 -2 21 -8.5t3 -13.5q-3 -6 -26 -6q-31 0 -92 6q-82 4 -86 4q-19 0 -81 -5t-87 -5z" />
    <glyph glyph-name="Q" unicode="Q" horiz-adv-x="1366" 
d="M1696 -346q16 12 15 0q-2 -17 -23 -37q-54 -46 -133 -73t-148 -27q-228 0 -625 194q-108 52 -200 74q-113 27 -156 29q-35 2 -145 2h-27q-81 0 -160 -33q-63 -26 -63 0q0 16 37 31q123 46 501 166q-182 9 -299 159q-114 153 -114 357q0 346 217 606q107 128 252 205
q141 75 284 75q186 0 299 -143q117 -144 117 -336q0 -204 -69.5 -392.5t-192.5 -311.5q-141 -141 -315 -193q-100 -36 -263 -82q-170 -50 -200 -61q200 31 340 -2q148 -34 383 -129q346 -144 485 -144q57 0 117 20.5t86 45.5zM276 416q0 -204 84 -308t234 -104
q181 0 381 256q95 121 160 318q67 198 67 372q0 114 -26 197q-58 211 -263 211q-243 0 -444 -287q-88 -130 -139 -311q-54 -190 -54 -344z" />
    <glyph glyph-name="R" unicode="R" horiz-adv-x="1183" 
d="M-53 -10q-14 0 -22 4.5t-4 11t22 12.5q73 13 112 58.5t72 150.5l301 924l-2 -2q25 71 31 114t-9 66.5t-55 26.5q-26 2 -34 14q-4 7 10 10l28 2q12 0 81 -5t102 -5q35 0 137 10q115 11 143 11q137 0 210 -68t73 -180q0 -190 -133 -311q-131 -119 -330 -140q48 -15 72 -59
q7 -7 14.5 -28.5t9.5 -33.5l19 -71q83 -323 112 -398q34 -75 101 -81q21 0 29 -3t7 -10q-3 -6 -34 -12q-36 -8 -113 -8q-84 0 -111 71q-1 4 -9.5 23.5t-19 47.5t-24.5 73.5t-32 120t-37 166.5q-20 112 -43 153q-21 38 -78 47q-10 1 -58.5 5.5t-62.5 4.5l-158 -479
q-43 -123 -33 -160q9 -36 70 -45q16 -2 21.5 -7t1.5 -15q-3 -6 -25 -6q-31 0 -96 6q-86 4 -90 4q-19 0 -80.5 -5t-85.5 -5zM670 723q147 21 248 137q100 112 100 281q0 93 -65 152t-169 59q-64 0 -155 -15l-203 -610q159 -16 244 -4z" />
    <glyph glyph-name="S" unicode="S" horiz-adv-x="882" 
d="M256 -20q-123 3 -274 94q-29 16 -23 61q10 90 61 242q12 37 21 37q17 0 8 -33q-47 -174 2 -252q34 -57 106 -90t144 -33q115 0 203 70q90 72 90 207q0 38 -12 88q-7 30 -35 94q-14 40 -47 98l-29 51l-25 50l-71 141q-28 56 -50 129.5t-22 126.5q0 172 143 266
q115 77 234 74q71 -3 127 -25l49 -20q29 -12 109 -56q31 -15 16 -61l-39 -106l-27 -93q-9 -39 -14 -39q-16 0 -10 41q21 147 -14 205q-70 119 -218 119q-102 0 -171.5 -75t-69.5 -197q0 -56 24 -129q27 -73 45 -111q18 -30 76 -133q3 -6 8.5 -15t6.5 -12q131 -232 131 -360
q0 -68 -31 -135q-46 -95 -107 -140q-136 -97 -315 -79z" />
    <glyph glyph-name="T" unicode="T" horiz-adv-x="1095" 
d="M1327 1415q11 25 21 8q3 -8 0 -22q-41 -133 -50 -242q-3 -37 -14 -41q-9 -3 -12 15q-3 9 0 24q11 111 -19.5 150.5t-128.5 40.5h-241l-365 -1125q-41 -127 -35 -157q9 -39 70 -48q17 -1 23.5 -7.5t1.5 -14.5q-3 -6 -25 -6q-20 0 -86 5t-90 5t-89.5 -5t-86.5 -5
q-14 0 -22 4.5t-4 11t22 12.5q73 13 110.5 57t73.5 152l364 1121h-219q-104 -3 -153 -41t-121 -154q-12 -20 -19.5 -28t-13.5 -7q-14 3 8 45q70 135 109 246q9 21 20 16q9 -3 6 -14q-3 -36 78 -39h56h34h598q9 1 65 1t89.5 8.5t44.5 33.5z" />
    <glyph glyph-name="U" unicode="U" horiz-adv-x="1325" 
d="M1509 1382q38 0 35 -16q-4 -7 -37 -10q-83 -9 -121 -53q-32 -40 -75 -160q-5 -21 -31 -92q-153 -460 -233 -643q-75 -177 -199 -289q-160 -139 -342 -139q-465 0 -318 501q37 125 211 668q18 53 24.5 85t3.5 58.5t-20 40.5t-51 21q-24 6 -18 20q3 8 29 8q23 0 88.5 -5
t91.5 -5q8 0 82 4q59 6 86 6q11 0 18 -4t6 -10q-3 -11 -30 -14q-45 -6 -71 -20.5t-46 -45.5q-22 -35 -57 -143q-150 -464 -203 -641q-24 -82 -34.5 -145.5t-4.5 -122.5t33.5 -97.5t83 -61.5t139.5 -24q102 0 176 31t152 111q98 103 176 301q80 205 221 655
q34 100 27.5 149.5t-64.5 55.5q-29 0 -36 12q-4 7 10 11q10 2 28 3q11 0 57.5 -5t67.5 -5q12 0 67 5t78 5z" />
    <glyph glyph-name="V" unicode="V" horiz-adv-x="1288" 
d="M303 -20q-3 0 -6.5 4.5t-5.5 14t0 21.5l188 1147q16 112 -10 140q-24 30 -102 45q-32 6 -34 12q-1 3 1 6q3 8 37 8q7 0 19 -0.5t35 -1.5t40 -2q47 -2 98 -2q8 0 86 4q58 6 86 6q38 0 35 -16q-4 -7 -37 -10q-60 -5 -90 -47.5t-43 -145.5l-147 -952l772 948q150 185 2 197
q-29 0 -36 12q-4 7 10 11q10 2 28 3q18 0 73.5 -5t71.5 -5t70 5t69 5q38 0 36 -13q0 -1 -1 -3q-4 -7 -35 -10q-38 -3 -81 -37q-43 -32 -70 -62q-4 -5 -100 -120l-852 -1018l-80 -113q-20 -26 -27 -26z" />
    <glyph glyph-name="W" unicode="W" horiz-adv-x="1861" 
d="M2087 1382q38 0 36 -13q0 -1 -1 -3q-4 -7 -35 -10q-54 -6 -106 -52t-146 -167l-791 -1018l-79 -113q-20 -26 -27 -26q-3 0 -6.5 4.5t-5.5 14t0 21.5l133 910l-629 -811l-80 -113q-20 -26 -26 -26q-3 0 -7 4.5t-6 14t0 21.5l168 1147q16 112 -10 140q-24 30 -102 45
q-32 6 -34 12q-1 3 1 6q3 8 37 8q7 0 19 -0.5t35 -1.5t40 -2q47 -2 98 -2q8 0 86 4q58 6 86 6q38 0 35 -16q-4 -7 -37 -10q-60 -5 -90 -47.5t-43 -145.5l-127 -942l598 787l23 159q15 111 -11 140q-24 30 -102 45q-32 6 -34 12q-1 3 1 6q3 8 37 8l94 -4q47 -2 99 -2
q8 0 86 4q58 6 86 6q18 0 27 -4t7 -12q-4 -7 -36 -10q-60 -5 -90.5 -48t-43.5 -145l-129 -944l713 940q138 185 2 197q-29 0 -36 12q-4 7 10 11q10 2 28 3q18 0 74 -5t72 -5t70 5t69 5z" />
    <glyph glyph-name="X" unicode="X" horiz-adv-x="1290" 
d="M1389 1382q18 0 27 -4t7 -12q-4 -7 -34 -10q-99 -9 -230 -158l-403 -438l153 -584q34 -138 125 -156q32 -6 34 -12q1 -3 -1 -6q-3 -8 -37 -8l-102 4q-49 2 -99 2q-10 0 -88 -4q-59 -6 -84 -6q-27 0 -35 12q-5 6 9 10q11 3 31 4q67 6 99 48.5t13 117.5l-127 488l-440 -506
q-41 -47 -53.5 -78t4 -48.5t65.5 -21.5q26 -2 34 -14q4 -7 -10 -10q-10 -2 -28 -2t-73.5 5t-71.5 5t-70 -5t-70 -5q-38 0 -35 13q0 1 1 3q4 7 34 10q99 9 230 158l475 520l-131 502q-34 138 -125 156q-32 6 -34 12q-1 3 1 6q3 8 37 8q2 0 100 -4q51 -2 101 -2q8 0 86 4
q58 6 84 6q38 0 36 -13q0 -1 -1 -3q-4 -7 -37 -10q-69 -5 -101 -48t-12 -118l107 -406l366 424q41 47 53.5 78t-4 48.5t-65.5 21.5q-26 2 -34 14q-4 7 10 10l28 2q18 0 73 -5t72 -5q15 0 70 5t70 5z" />
    <glyph glyph-name="Y" unicode="Y" horiz-adv-x="1300" 
d="M1489 1382q38 0 36 -13q0 -1 -1 -3q-4 -7 -35 -10q-95 -9 -229 -158l-502 -551l-137 -426q-44 -128 -35 -158q12 -38 69 -47q14 -2 21.5 -8.5t3.5 -13.5q-3 -6 -27 -6q-29 0 -88 6q-78 4 -82 4q-25 0 -90 -5t-88 -5q-14 0 -21 4.5t-3 11t20 12.5q76 13 113.5 57t70.5 152
l138 420l-127 537q-41 155 -119 170q-27 2 -34 12q-4 8 17 12l21 2q6 0 92 -4q45 -2 90 -2q16 0 94 4q61 6 86 6q38 0 36 -13q0 -1 -1 -3q-4 -7 -37 -10q-65 -5 -97.5 -54.5t-14.5 -125.5l123 -500l465 532q40 47 52.5 78t-4 48.5t-63.5 21.5q-29 0 -36 12q-4 7 10 11
q10 2 28 3q18 0 74 -5t72 -5t70 5t69 5z" />
    <glyph glyph-name="Z" unicode="Z" horiz-adv-x="1097" 
d="M1317 1382q12 1 14 -7t-6 -19l-1214 -1331h354q3 0 194 6q108 3 158 47q56 49 137 203q10 18 18 27t13 7q16 -3 -6 -45q-77 -157 -107 -237q-15 -43 -49 -43q-20 0 -172 4q-337 6 -579 6q-20 0 -133 -10q-12 -1 -15.5 7t4.5 19l1217 1332l-500 -11q-101 -3 -156 -37
q-53 -33 -131 -143q-26 -39 -34 -31q-7 2 -4.5 13.5t14.5 31.5l37 56q62 100 96 184q8 19 20 16q8 -3 5 -18q-9 -27 34 -37q14 -2 39 -2q14 0 49.5 1t38.5 1h512q50 0 152 10z" />
    <glyph glyph-name="bracketleft" unicode="[" horiz-adv-x="466" 
d="M109 -401h-232q-23 0 -14 22l561 1725q11 38 51 38h193q42 0 39 -16q-6 -9 -43 -12l-68 -6q-82 -6 -109 -88q-156 -427 -266 -773q-126 -381 -235 -772q-21 -70 51 -79l80 -11q24 -2 35 -13q8 -9 -12 -13q-11 -2 -31 -2z" />
    <glyph glyph-name="backslash" unicode="\" horiz-adv-x="915" 
d="M610 -360q-14 -6 -20 22l-254 1772q-3 29 10 34q8 3 14 -3t7 -19l256 -1772q3 -28 -13 -34z" />
    <glyph glyph-name="bracketright" unicode="]" horiz-adv-x="464" 
d="M12 -401h-231q-29 0 -37 11q-7 9 21 14l20 3l88 11q80 9 111 88q141 387 264 772q85 255 237 772q18 74 -53 80l-63 6q-38 3 -35 20q5 8 43 8h192q41 0 29 -43l-559 -1724q-6 -18 -27 -18z" />
    <glyph glyph-name="asciicircum" unicode="^" horiz-adv-x="1024" 
d="M117 813l379 561q14 22 28 0l379 -561q4 -11 -4 -16q-9 -6 -16 4l-365 538q-8 11 -16 0l-365 -538q-4 -7 -10.5 -6.5t-9.5 6t0 12.5z" />
    <glyph glyph-name="underscore" unicode="_" horiz-adv-x="964" 
d="M842 -207h-932q-20 0 -28 5t-3 14q6 16 33 16h932q20 0 27 -3t3 -13q-6 -19 -32 -19z" />
    <glyph glyph-name="grave" unicode="`" horiz-adv-x="819" 
d="M664 1167q-7 -1 -13 7t-12 28l-59 154q-19 47 -17 65t27 41q56 47 59 -8l21 -246q0 -38 -6 -41z" />
    <glyph glyph-name="a" unicode="a" horiz-adv-x="987" 
d="M76 -20q-45 0 -74 32.5t-29 91.5q0 113 90 279q88 163 213 303q125 143 254 240q129 100 209 100q30 0 69.5 -21.5t63.5 -48.5q56 40 101 91q5 5 11.5 4.5t9 -6t-0.5 -17.5q-254 -632 -317 -833q-34 -100 0 -103l10 2q54 9 143 133q17 23 28 20q14 -4 -7 -34
q-149 -233 -272 -233q-90 0 -66 114q20 96 158 408q-117 -168 -297 -342q-186 -180 -297 -180zM168 88q83 0 223 131q301 281 414 645q-10 41 -49 72t-76 31q-57 0 -121 -52q-143 -118 -295 -358q-153 -246 -153 -399q0 -70 57 -70z" />
    <glyph glyph-name="b" unicode="b" horiz-adv-x="958" 
d="M819 1016q64 0 98.5 -45t34.5 -119q0 -124 -71 -289q-67 -155 -162 -280q-113 -146 -242 -228t-237 -82q-112 0 -150 74.5t4 204.5l316 1026q8 25 10 37.5t-0.5 22.5t-17.5 11t-37.5 -1t-63.5 -9q-31 -6 -31 2q0 14 25 23q147 50 264 115q29 16 35 16q9 -2 -2 -43
l-307 -946q126 228 272 368q148 142 262 142zM319 33q119 0 240 139q123 142 193 324q71 189 71 333q0 103 -67 103q-130 0 -301 -219q-172 -220 -254 -463q-25 -104 5.5 -160.5t112.5 -56.5z" />
    <glyph glyph-name="c" unicode="c" horiz-adv-x="745" 
d="M231 -20q-90 0 -141 64t-51 175q0 148 65 299q63 146 156 266q81 104 215 181q98 55 191 55q64 0 105.5 -33t41.5 -74q0 -31 -19.5 -52t-43.5 -21q-39 0 -74 59q-41 66 -105 66q-45 0 -88 -27q-123 -76 -217 -291q-96 -221 -96 -387q0 -201 129 -201q121 0 240 162
q22 31 32 21q4 -4 4 -11q0 -12 -8 -20q-173 -231 -336 -231z" />
    <glyph glyph-name="d" unicode="d" horiz-adv-x="1044" 
d="M135 -20q-59 0 -97 38t-38 119q0 97 66 250q69 160 165 293q98 136 242 242q138 102 270 102q66 0 113 -41l86 295q15 56 0 65q-14 11 -111 -4q-30 -6 -30 2q0 14 24 23q147 50 269 115q29 16 34 16q9 -2 -2 -43l-401 -1257q-34 -100 0 -103l10 2q49 9 144 133
q19 25 28 19q9 -3 -8 -33q-62 -109 -134 -171t-138 -62q-47 0 -62 26.5t-4 87.5q14 68 43 144l92 237q-173 -236 -322 -365.5t-239 -129.5zM182 41q100 0 269 184q132 147 223 307q89 160 104 273q15 59 6 125q-9 65 -69 65q-107 0 -250 -168q-140 -165 -244 -374
q-100 -201 -100 -320q0 -92 61 -92z" />
    <glyph glyph-name="e" unicode="e" horiz-adv-x="716" 
d="M238 -20q-88 0 -139.5 69t-51.5 187q0 169 80 352q83 186 213 307q131 125 266 125q152 0 152 -107q0 -115 -150 -229q-156 -120 -366 -123q-2 -10 -19 -67l-18 -68q-25 -122 -25 -193q0 -180 129 -180q127 0 246 162q21 27 27 21q4 -4 4 -11t-8 -20q-150 -225 -340 -225
zM254 586q116 12 252 127q135 114 135 221q0 55 -57 55q-80 0 -172 -115q-94 -121 -158 -288z" />
    <glyph glyph-name="f" unicode="f" horiz-adv-x="534" 
d="M864 1516q69 0 107.5 -32.5t27.5 -82.5q-12 -60 -69 -60q-45 0 -66 66q-13 41 -30 59.5t-46 18.5q-65 0 -126 -64q-105 -111 -201 -450l244 12q36 3 12 -31q-34 -40 -62 -37l-206 11l-150 -529q-135 -453 -197 -594q-117 -264 -284 -319q-56 -16 -113 -16q-65 0 -106 29
t-41 69q0 36 24.5 56t57.5 20q25 0 38.5 -14.5t26.5 -51.5q13 -41 30 -59.5t46 -18.5q90 0 160 166q69 168 215 688l37 127q19 65 96 342q20 77 -1.5 100t-109.5 23q-17 0 0 17q9 12 25 12q68 0 101.5 19.5t47.5 64.5q33 101 105 217q70 113 182 178q104 64 225 64z" />
    <glyph glyph-name="g" unicode="g" horiz-adv-x="880" 
d="M1010 1024q17 -37 -10 -68.5t-76 -31.5q-84 0 -174 37q67 -99 -21 -310q-77 -181 -192.5 -281t-260.5 -100q-40 0 -81 15q-58 -40 -22.5 -120.5t132.5 -133.5q138 -81 184 -117q100 -77 115 -156q12 -70 -57 -139q-66 -69 -168.5 -110t-212.5 -41q-203 0 -309 71t-97 154
q6 64 76.5 126.5t220.5 133.5l107 45q-94 73 -94 147q0 93 106 150q-74 44 -80 151q-3 113 49 226q73 162 193 254q122 98 254 98q70 0 117 -27q45 -13 107.5 0.5t107.5 40.5q64 40 86 -14zM604 662q39 85 54.5 160.5t0 125t-64.5 49.5q-70 0 -164 -94t-156 -233
q-37 -84 -54 -169t-4.5 -144.5t58.5 -59.5q75 0 168 106q100 114 162 259zM502 -309q0 48 -43 94q-38 43 -146 113q-94 58 -129 84q-18 -6 -45 -19t-47.5 -23.5t-23.5 -11.5q-198 -92 -207 -200q-8 -85 102 -145t301 -60q103 0 170.5 47.5t67.5 120.5z" />
    <glyph glyph-name="h" unicode="h" horiz-adv-x="1091" 
d="M928 213q-89 -123 -151.5 -178t-121.5 -55q-40 0 -56.5 25t-8.5 69q9 52 49 159l174 488q79 225 -10 225q-118 0 -311 -272q-188 -265 -361 -645q-17 -45 -33 -45q-36 0 -63 49q-17 33 0 84l377 1161q8 25 10 37.5t-0.5 22.5t-17.5 11t-37.5 -1t-63.5 -9q-31 -6 -31 2
q0 14 25 23q145 49 268 115q29 16 35 16q9 -2 -2 -43l-358 -1092q144 212 174 254q95 127 157 203q172 207 301 207q59 0 86 -23.5t23 -76.5q-1 -52 -12.5 -96.5t-42.5 -131.5l-166 -481q-40 -118 -8 -121h12q48 6 143 133q17 23 28 20q14 -4 -7 -34z" />
    <glyph glyph-name="i" unicode="i" horiz-adv-x="548" 
d="M510 1198q-40 0 -61.5 26t-14.5 72t37 72.5t70 26.5q38 0 59 -28t14 -71q-7 -46 -36.5 -72t-67.5 -26zM129 -23q-70 0 -70 70q0 71 47 189l236 579q41 96 -10 96q-49 0 -154 -135q-19 -25 -29 -18t9 33q89 125 148.5 179t117.5 54q72 0 72 -82q0 -50 -41 -158
q-8 -22 -27 -67t-25 -60l-77 -198q-55 -143 -99 -266q-16 -53 -16 -78q0 -23 20 -23q28 0 70.5 36.5t79.5 96.5q19 29 29 19q7 -5 -9 -33q-141 -234 -272 -234z" />
    <glyph glyph-name="j" unicode="j" horiz-adv-x="542" 
d="M569 1186q-40 0 -61 26t-14 72t36.5 72t69.5 26q38 0 59.5 -27.5t14.5 -70.5q-7 -46 -37 -72t-68 -26zM-289 -532q-76 0 -119 27.5t-43 70.5q0 36 24.5 56t57.5 20q25 0 39.5 -14.5t26.5 -51.5q13 -40 29.5 -58t46.5 -18q89 0 184 154q96 161 170 395l250 760
q20 59 20 78q0 26 -24 26q-53 0 -160 -122q-17 -17 -31 -17q-2 0 -2 4q0 13 13 29q99 124 152 169.5t108 45.5q122 0 63 -176l-262 -799q-95 -290 -225.5 -434.5t-317.5 -144.5z" />
    <glyph glyph-name="k" unicode="k" horiz-adv-x="925" 
d="M840 197q22 31 29 20q6 -9 -7 -31q-129 -206 -229 -206q-49 0 -82 37.5t-68 134.5l-96 256q-27 71 -59 71q-45 0 -115 -196l-27 -82l-8 -29l-45 -135q-18 -53 -35 -53q-36 0 -63 49q-17 33 0 84l377 1161q8 25 10 37.5t-0.5 22.5t-17.5 11t-37.5 -1t-63.5 -9
q-31 -6 -31 2q0 14 25 23q145 49 268 115q29 16 35 16q9 -2 -2 -43l-254 -774q114 166 239 256t230 90q56 0 84.5 -33t28.5 -76q0 -200 -443 -409l99 -275q31 -82 55 -116.5t55 -34.5q66 0 148 117zM309 526l-8 -22q172 0 346 127q174 125 174 235q0 78 -90 78
q-110 0 -233 -117q-123 -120 -189 -301z" />
    <glyph glyph-name="l" unicode="l" horiz-adv-x="546" 
d="M598 1452l-383 -1257q-30 -98 0 -101h10q69 10 144 133q16 22 26 17q9 -6 -6 -31q-140 -233 -272 -233q-72 0 -72 63q0 44 49 195l318 1040q15 57 2 65q-14 11 -111 -4q-31 -6 -31 2q0 14 25 23q145 49 268 115q29 16 35 16q9 -2 -2 -43z" />
    <glyph glyph-name="m" unicode="m" horiz-adv-x="1710" 
d="M1561 203q-89 -123 -151.5 -178.5t-121.5 -55.5q-40 0 -56.5 25t-8.5 69q8 35 49 160l160 498q71 225 -11 225q-116 0 -309 -272q-190 -264 -362 -643l-2 -6q-2 -6 -7 -11v-2q-25 -32 -88 -32q-24 0 -24 26q0 9 30 98l222 617q83 225 -11 225q-116 0 -309 -272
q-190 -264 -362 -643q0 -4 -2 -6q-2 -6 -7 -11v-2q-25 -32 -88 -32q-24 0 -24 26q0 7 31 98l239 691q35 96 -12 96q-49 0 -154 -135q-7 -9 -14 -14.5t-11 -5t-6 4t1 11.5t10 18q90 125 149.5 179.5t116.5 54.5q72 0 72 -82q0 -1 -4 -37q-11 -57 -170 -496q218 331 359.5 483
t254.5 152q173 0 53 -328l-106 -293q95 145 166 240q92 123 149 191q161 190 289 190q100 0 100 -100q0 -86 -47 -228l-151 -491q-37 -118 -9 -121q3 -3 13 0q48 6 143 133q17 23 28 20q14 -4 -7 -34z" />
    <glyph glyph-name="n" unicode="n" horiz-adv-x="1116" 
d="M969 213q-89 -123 -151.5 -178t-121.5 -55q-40 0 -56.5 25t-8.5 69q9 52 49 159l174 488q80 225 -10 225q-117 0 -307 -266q-186 -262 -357 -631q0 -3 -4 -12t-4 -12q-15 -45 -94 -45q-25 0 -25 26q0 7 31 98l240 691q35 96 -13 96t-153 -135q-18 -23 -28 -19q-11 7 7 33
q90 125 149.5 179.5t116.5 54.5q72 0 72 -82q0 -1 -4 -37q-7 -46 -168 -490q111 166 191 274t157 193t140.5 123.5t121.5 38.5q59 0 86 -23.5t23 -76.5q-1 -52 -12.5 -96.5t-42.5 -131.5l-166 -481q-40 -118 -8 -121h12q48 6 143 133q17 23 28 20q14 -4 -7 -34z" />
    <glyph glyph-name="o" unicode="o" horiz-adv-x="899" 
d="M281 -20q-108 0 -174 73.5t-66 192.5q0 170 82 350q83 183 217 305q135 123 274 123q114 0 181 -73t67 -201q0 -159 -84 -344q-83 -180 -219 -304q-137 -122 -278 -122zM725 811q0 188 -111 188q-99 0 -208 -145q-103 -141 -168 -330q-62 -189 -62 -321q0 -199 105 -199
q101 0 211 146q102 137 170 333q63 183 63 328z" />
    <glyph glyph-name="p" unicode="p" horiz-adv-x="937" 
d="M705 1024q98 0 152 -55.5t54 -155.5q0 -173 -96 -373q-94 -195 -246 -329q-149 -131 -290 -131q-54 0 -103 43l-104 -326q-42 -96 -32.5 -142.5t87.5 -52.5q13 0 20 -5t5 -11q-3 -9 -31 -12q-31 -7 -92 -4q-65 3 -86 0q-11 -1 -82.5 -13t-104.5 -12q-26 0 -26 10
q0 13 26 19q77 20 114.5 66.5t74.5 156.5l362 1139l-141 -105q-25 -15 -33 -10q-7 7 21 31q86 75 168 131l45 141l55 53q90 86 100 119q3 6 13 6q15 0 12 -12l-70 -217q114 51 228 51zM319 29q84 0 193 118q110 118 190 299q82 177 82 326q0 199 -153 199q-78 0 -168 -43
l-232 -729q-10 -83 14.5 -126.5t73.5 -43.5z" />
    <glyph glyph-name="q" unicode="q" horiz-adv-x="1009" 
d="M971 999l-391 -1302q-42 -96 -32.5 -142.5t87.5 -52.5q13 0 19.5 -5t4.5 -11q-3 -9 -30 -12q-31 -7 -92 -4q-65 3 -86 0q-11 -1 -82.5 -13t-104.5 -12q-26 0 -26 10q0 13 26 19q80 20 119 69q34 43 70 154l243 778q-173 -236 -322 -365.5t-239 -129.5q-59 0 -97 38
t-38 119q0 97 66 250q69 160 165 293q103 142 238 242q138 102 266 102q79 0 94 -104l37 28l78 80q25 25 31 25q9 -7 -4 -54zM451 225q132 147 223 307q89 160 104 273q15 59 6 125q-9 65 -69 65q-107 0 -250 -168q-140 -165 -244 -374q-100 -201 -100 -320q0 -94 53 -94
q109 0 277 186z" />
    <glyph glyph-name="r" unicode="r" horiz-adv-x="821" 
d="M131 -20q-25 0 -25 26q0 18 41 139q37 104 105 312q57 173 98 338q14 45 11.5 66.5t-10 26t-23.5 1.5q-51 -9 -144 -133q-19 -25 -28 -19q-1 1 -1.5 6t1 13t6.5 14q99 136 150 185t108 49q47 0 63.5 -28.5t5.5 -90.5q-13 -77 -53 -199l-43 -119l-43 -118q81 175 205 358
q144 208 281 217q55 1 88.5 -24.5t33.5 -65.5q0 -34 -27.5 -59t-60.5 -25q-30 0 -79 22q-48 23 -62 23q-44 0 -82 -31t-98 -119q-142 -211 -324 -720q-15 -45 -94 -45z" />
    <glyph glyph-name="s" unicode="s" horiz-adv-x="649" 
d="M135 -20q-80 0 -130 40t-44 101q1 30 23 52t47 22q13 0 21 -11t20 -47q25 -67 50.5 -92t78.5 -25q48 0 92 29q73 54 82 148q6 63 -22.5 146t-73.5 155q-42 73 -61.5 153.5t-0.5 143.5q28 89 127 163q91 66 191 66q69 0 114 -33t39 -78q-4 -31 -25 -51t-47 -20
q-30 0 -59 51q-27 41 -47.5 56.5t-56.5 15.5q-57 0 -94.5 -29t-49.5 -84q-12 -42 4.5 -103t47 -123.5t62 -124.5t50.5 -123.5t10 -103.5q-7 -68 -56 -134t-122 -111q-79 -49 -170 -49z" />
    <glyph glyph-name="t" unicode="t" horiz-adv-x="612" 
d="M467 975l276 12q14 2 17 -2.5t-2 -23.5q-15 -43 -45 -43l-260 12l-220 -654q-26 -79 -26 -126q0 -74 57 -74q83 0 221 135q25 28 35 18q2 -2 2 -4q0 -8 -16 -30q-170 -215 -313 -215q-107 0 -107 126q0 98 57 269l154 452q18 53 18 78q0 23 -19 30t-71 5h-2q-16 0 -16 10
q0 15 26 15q81 0 152 50t113 142q16 29 26 29q6 0 6 -8q0 -1 -4 -21z" />
    <glyph glyph-name="u" unicode="u" horiz-adv-x="1112" 
d="M197 -20q-114 0 -111 100q5 54 16.5 101t40.5 126l172 492q44 121 7 121h-11q-47 -6 -143 -134q-18 -24 -29.5 -18.5t8.5 33.5q89 123 151.5 178t121.5 55q40 0 56.5 -25t8.5 -69q-9 -54 -49 -160l-180 -497q-83 -226 10 -226q84 0 234 185q147 180 272 399
q124 212 166 338q15 45 94 45q25 0 25 -27q0 -10 -31 -98l-244 -711q-35 -96 13 -96t153 135q23 33 33 27q8 -8 -12 -41q-89 -124 -149 -178.5t-118 -54.5q-71 0 -71 81q0 1 4 37q9 67 172 510q-223 -333 -360.5 -480.5t-249.5 -147.5z" />
    <glyph glyph-name="v" unicode="v" horiz-adv-x="868" 
d="M182 -25q-40 0 -65.5 36.5t-24.5 97.5q0 62 43 190q112 296 189 481q21 53 25 81.5t-4 35t-26 4.5q-48 -6 -143 -133q-18 -24 -29 -19t9 33q89 123 151 178.5t121 55.5q84 0 66 -115q-9 -46 -50 -139q-9 -25 -71 -182q-131 -330 -144 -383q-16 -57 -3.5 -89t48.5 -32
q93 0 213 117q121 121 201 280q83 165 86 287q3 37 -26 86q-27 46 -27 88q0 36 24.5 62t57.5 26q74 0 71 -131q-3 -155 -96 -342q-96 -190 -209 -324q-159 -173 -270 -219q-67 -31 -117 -31z" />
    <glyph glyph-name="w" unicode="w" horiz-adv-x="1361" 
d="M1307 1022q59 0 59 -131q0 -153 -96 -350q-93 -191 -209 -316q-150 -163 -270 -219q-67 -31 -117 -31q-82 0 -82 134q0 65 16 163q-5 -5 -20 -24t-19 -23q-159 -173 -270 -219q-67 -31 -117 -31q-40 0 -65.5 36.5t-24.5 97.5q0 62 43 190q112 296 189 481q21 53 25 81.5
t-4 35t-26 4.5q-48 -6 -143 -133q-18 -24 -29 -19t9 33q89 123 151 178.5t121 55.5q84 0 66 -115q-9 -46 -50 -139q-9 -25 -71 -182q-131 -330 -144 -383q-18 -57 -6 -89t51 -32q77 0 169 73.5t180 196.5q34 152 94 305q61 152 108 223q60 84 115 84q29 0 29 -30
q0 -110 -232 -508q-35 -140 -35 -236q0 -46 19.5 -78t54.5 -32q90 0 209 116q120 120 205 283q85 162 88 287q3 35 -27 86q-26 45 -26 88q0 36 24.5 62t57.5 26z" />
    <glyph glyph-name="x" unicode="x" horiz-adv-x="1011" 
d="M958 1024q44 0 77.5 -27.5t33.5 -62.5q0 -30 -21.5 -49t-48.5 -19q-35 0 -65 27q-32 29 -51 29q-42 0 -101 -68q-36 -41 -200 -262q-5 -8 -15.5 -21.5t-15.5 -21.5l6 -35q45 -282 66 -344q24 -79 61 -82h4q40 3 109 90l37 47q20 23 26 21q10 -3 -6 -33
q-134 -233 -238 -233q-35 0 -60.5 33t-45.5 108q-22 80 -33 131l-28 168q-34 -53 -76 -111l-125 -176q-48 -66 -98 -113q-43 -40 -87 -40t-77 26.5t-33 63.5q0 30 22 48.5t48 18.5q34 0 65 -28q30 -27 51 -27q19 0 36 11t42 42q43 55 51 68q5 7 31.5 42.5t46.5 65.5
q58 85 98 140q-7 34 -8 45l-20 120q-8 71 -19 119q-6 36 -13 66.5t-16.5 57.5t-22 40t-26.5 8q-7 0 -14 -2t-14.5 -6.5t-14 -9t-15.5 -13.5t-14.5 -15.5l-16.5 -19.5t-17 -21t-19 -24.5t-20 -25.5q-19 -23 -27 -20q-9 3 7 32q135 234 254 234q55 0 84 -111q16 -61 24 -114
l10 -66q3 -17 10.5 -71t10.5 -72l137 188q44 58 102 129t96.5 98t75.5 27z" />
    <glyph glyph-name="y" unicode="y" horiz-adv-x="942" 
d="M-117 -532q-44 0 -70 20t-26 55q0 81 107 78q255 -9 366 123q161 193 164 674q3 212 -39 358q-41 141 -123 135q-90 -6 -149 -145q-9 -24 -25 -21q-11 3 4 46q39 104 96 168.5t113 64.5q123 0 184 -156q62 -157 62 -403q0 -252 -25 -402q275 384 299 601q16 158 -4 247
q-8 36 -8 56q0 26 22 42.5t54 14.5q74 -3 65 -123q-9 -99 -76 -274q-71 -183 -167 -338q-224 -365 -443 -594q-217 -227 -381 -227z" />
    <glyph glyph-name="z" unicode="z" horiz-adv-x="954" 
d="M567 -25q-26 0 -243 41q-212 43 -261 43q-70 0 -137 -55q-20 -14 -20 -2q-3 21 59 80l854 795q-38 -23 -102 -23q-69 0 -209 31q-124 28 -158 28q-92 0 -174 -147q-19 -29 -24 -29q-15 0 4 43l63 121q12 20 49 70q30 36 58.5 44.5t83.5 6.5q39 -2 194 -33
q156 -32 221 -35q79 0 156 74l4 2q10 0 14 -9t-4 -15l-923 -867q34 17 98 17q19 0 49 -6q9 -2 83.5 -16.5t109.5 -20.5l77 -15l121 -20q53 -6 82.5 1.5t50.5 35.5q25 39 25 65q0 45 -80 80q-44 14 -41 53q3 36 53 45q42 7 71.5 -21.5t31.5 -72.5q0 -94 -58 -182
q-72 -116 -178 -107z" />
    <glyph glyph-name="braceleft" unicode="{" horiz-adv-x="512" 
d="M164 -369q-140 44 -185.5 119.5t-7.5 194.5q18 54 99 196q82 139 102 207q24 72 0.5 106.5t-102.5 45.5q-19 2 -28 9t-5 17q4 11 41 17q87 10 136.5 48.5t74.5 113.5q18 59 28 202q8 125 33 201q38 117 128 189t255 116q38 11 43 0q1 -2 0 -4q3 -10 -41 -23
q-91 -24 -149 -67q-52 -40 -73.5 -75t-43.5 -105q-27 -86 -45 -209q-22 -147 -35 -185q-55 -158 -256 -223q163 -64 111 -231q-20 -54 -84 -182q-72 -144 -92 -211q-23 -70 -23 -111q0 -85 123 -129q20 -6 29 -13.5t6 -13.5q-6 -14 -39 0z" />
    <glyph glyph-name="bar" unicode="|" horiz-adv-x="1024" 
d="M504 -401q-8 -2 -13.5 10.5t-5.5 32.5v1734q0 38 19 41q8 2 13 -10.5t5 -32.5v-1734q0 -38 -18 -41z" />
    <glyph glyph-name="braceright" unicode="}" horiz-adv-x="491" 
d="M-233 -369q-38 -11 -43 0q-1 2 0 4q0 11 43 23q137 37 194 109q38 51 70 139q22 69 43 207q18 121 39 186q53 159 256 223q-163 64 -107 232q13 47 82 182q72 144 92 211q29 92 21 135q-12 35 -38 60t-83 44q-20 6 -29 13.5t-6 13.5q9 13 41 0q136 -44 180.5 -119
t7.5 -194q-22 -65 -100 -197q-81 -143 -100 -207q-24 -72 -0.5 -107t102.5 -46q38 -9 35 -25q-6 -12 -43 -18q-87 -10 -136 -47.5t-75 -112.5q-22 -71 -31 -203q-9 -136 -30 -200q-37 -116 -128 -189t-257 -117z" />
    <glyph glyph-name="asciitilde" unicode="~" horiz-adv-x="1366" 
d="M940 557q-80 0 -258 90q-153 78 -213 78q-59 0 -100.5 -29t-85.5 -92q-7 -9 -15 -13.5t-13.5 -3t-9 6t-2 13.5t8.5 18q95 133 217 133q71 0 229 -82q170 -86 242 -86q94 0 182 131q19 25 33 16q18 -9 -2 -35q-103 -145 -213 -145z" />
    <glyph glyph-name="exclamdown" unicode="&#xa1;" horiz-adv-x="421" 
d="M319 1012q72 0 72 -76q0 -45 -29.5 -78t-62.5 -33q-35 0 -54.5 23.5t-19.5 62.5q0 37 30.5 69t63.5 32zM268 748q6 -1 5 -10.5t-7 -32.5q-83 -263 -135 -478q-29 -123 -52.5 -239t-34.5 -172t-17 -72q-44 -133 -125 -133q-83 0 -39 133q13 39 63 147q76 173 142 336
q89 220 174 478q15 43 26 43z" />
    <glyph glyph-name="cent" unicode="&#xa2;" horiz-adv-x="720" 
d="M682 1118q55 0 91 -27.5t36 -64.5q0 -28 -16.5 -45.5t-38.5 -17.5q-38 0 -64 51q-29 57 -88 57l-260 -778q6 -2 25 -2q97 0 206 139q18 28 27 19q4 -4 4 -11t-6 -16q-146 -192 -279 -201l-61 -182q-5 -15 -9.5 -22.5t-10.5 -6.5q-15 3 -5 33l60 178q-70 6 -111 61.5
t-41 145.5q0 121 53.5 250.5t137.5 236.5q72 87 186 156q39 20 70 31l61 184q5 14 11 22t12 7q13 -3 0 -33l-58 -172q27 8 68 8zM254 463q0 -127 65 -162l256 768q-23 -7 -51 -22q-105 -67 -186 -250q-84 -191 -84 -334z" />
    <glyph glyph-name="sterling" unicode="&#xa3;" horiz-adv-x="1019" 
d="M899 1296q51 0 87 -10.5t52.5 -25.5t23 -34.5t5.5 -35.5t-6 -31q-18 -57 -80 -57q-56 0 -74 72q-21 81 -88 81q-25 0 -67 -22q-56 -29 -107 -125l-43 -86l-45 -102l-37 -91q-69 -154 -117 -235l306 8q22 0 25.5 -4.5t-11.5 -24.5q-16 -16 -37 -16l-301 2
q-115 -202 -213 -317q31 8 64 8q76 0 142 -32.5t105 -78.5q94 -110 160 -110q37 0 70 20q44 26 66 69.5t12 84.5q-8 24 2 63q18 62 81 62q32 0 43 -24.5t-2 -61.5q-23 -67 -77.5 -126.5t-122.5 -95.5q-82 -43 -154 -43q-42 0 -96 23q-32 15 -57 31.5t-40 29t-61 52.5
q-23 23 -55 43q-40 32 -113 41q-66 -95 -135 -150q-72 -57 -113 -57q-54 0 -36 53q12 37 77 96q67 64 152 97q62 85 184 323l-145 2q-25 0 -29 12q-2 6 10 10q10 3 27 3l152 4l100 219q77 178 160 285q76 96 174 149t182 53z" />
    <glyph glyph-name="yen" unicode="&#xa5;" horiz-adv-x="1103" 
d="M207 -12q-30 0 -38 12q-4 6 11 10q10 3 29 4q66 6 103 49t73 150l70 213h-195q-20 0 -27 5t0 15q9 15 37 15h195l37 110l-2 19h-187q-19 0 -26 5t0 15q9 15 37 15h170l-78 493q-21 142 -131 160q-35 6 -36 13q-1 2 1 5q4 7 37 7q9 0 41.5 -2t54.5 -3q47 -2 94 -2
q15 0 101 4q75 7 90 7q20 0 29.5 -4.5t7.5 -12.5q-3 -5 -39 -8q-63 -5 -94 -49.5t-19 -120.5l72 -487h4l393 518q58 72 55.5 102.5t-76.5 36.5q-20 1 -29 5.5t-7 10.5q3 9 39 9q20 0 77.5 -5.5t73.5 -5.5q8 0 74 4q61 7 74 7q20 0 29 -4.5t7 -12.5q-5 -5 -36 -8
q-129 -12 -236 -149l-408 -508h187q20 0 26.5 -4.5t-0.5 -14.5q-13 -16 -36 -16h-207l-43 -129h207q20 0 26.5 -4.5t-0.5 -14.5q-13 -16 -37 -16h-207l-69 -217q-34 -99 -28 -144t69 -51q25 0 36 -11q10 -9 -12 -13q-10 -2 -26 -2q-21 0 -84 5t-80 5q-14 0 -92 -4
q-56 -6 -82 -6z" />
    <glyph glyph-name="section" unicode="&#xa7;" horiz-adv-x="673" 
d="M63 -4q-57 0 -90.5 21.5t-21.5 56.5q15 51 69 51q6 0 12 -1t10 -1.5t9 -3t7 -4t6.5 -5t6 -4.5t6 -6t5.5 -6l6 -10q26 -35 69.5 -35t94.5 37q69 41 90 115q12 41 -12 90q-14 33 -101 166q-120 182 -65 348q38 118 196 270q45 98 138 158q100 63 190 63q53 0 89 -26t24 -60
q-17 -43 -61.5 -43t-75.5 41q-26 39 -68 39q-36 0 -86 -33q-57 -35 -78 -106q-16 -59 4 -107q8 -21 27 -57q15 -27 16 -29q41 -69 43 -71q86 -145 101 -223q9 -68 -9 -127q-34 -93 -92 -168l-55 -66l-39 -45q-88 -111 -160 -152q-113 -67 -205 -67zM428 254q73 83 94 152
q18 54 20 91t-14 87q-16 49 -32 80q-12 27 -56 104q-66 113 -80 160q-16 56 -8 112q-83 -100 -110 -182q-23 -80 -13 -153q20 -81 88 -187q123 -190 111 -264z" />
    <glyph glyph-name="dieresis" unicode="&#xa8;" horiz-adv-x="935" 
d="M532 1184q-31 0 -48 18.5t-17 48.5q0 41 28 72t56 31q31 0 49 -21.5t18 -58.5q0 -35 -27.5 -62.5t-58.5 -27.5zM860 1184q-31 0 -48 18.5t-17 48.5q0 41 28 72t56 31q31 0 49 -21.5t18 -58.5q0 -35 -27.5 -62.5t-58.5 -27.5z" />
    <glyph glyph-name="copyright" unicode="&#xa9;" horiz-adv-x="1652" 
d="M879 -51q-308 0 -527 213q-216 216 -213 520q0 304 217 518q217 217 523 217q307 0 522 -215q217 -214 217 -520t-217 -520q-216 -213 -522 -213zM881 -27q288 0 495 207t207 500q0 294 -207 504q-206 209 -497 209q-293 0 -500 -207q-204 -204 -207 -502
q0 -294 207 -504q210 -207 502 -207zM879 244q-230 0 -338 182q-66 111 -66 258q0 178 100 299q118 145 334 145q131 0 250 -55q32 -17 23 -78v-28q0 -46 2 -58q3 -30 -8 -30q-6 -2 -12 6t-7 20q-16 86 -55 125q-75 72 -219 72q-63 0 -121 -21q-184 -70 -184 -364
q0 -199 127 -320q86 -80 210 -80q174 0 283 136q16 25 27 18q9 -6 -6 -33q-108 -194 -340 -194z" />
    <glyph glyph-name="ordfeminine" unicode="&#xaa;" horiz-adv-x="1153" 
d="M252 606q-33 0 -55.5 25.5t-22.5 68.5q0 114 111 283q113 172 247 289q139 121 218 121q24 0 53 -15.5t47 -36.5q31 20 76 68q6 9 12 0q6 -3 2 -14q-178 -440 -238 -627q-24 -76 0 -76q7 0 9 2q37 5 106 99q16 16 23 14q6 -3 -6 -25q-114 -176 -205 -176q-67 0 -49 88
q17 78 118 305q-77 -112 -223 -258q-138 -135 -223 -135zM322 688q60 0 167 98q224 207 310 486q-7 31 -36 54.5t-58 23.5q-43 0 -91 -39q-102 -83 -221 -271q-114 -184 -114 -299q0 -53 43 -53zM856 496h-543q-20 0 -27.5 4.5t-2.5 13.5q6 16 32 16h543q21 0 28 -3t3 -13
q-6 -18 -33 -18z" />
    <glyph glyph-name="guillemotleft" unicode="&#xab;" horiz-adv-x="761" 
d="M256 205q-62 180 -158 321q-10 10 0 17q128 80 369 321q26 26 39 23q10 -10 -14 -41q-118 -158 -293 -316q67 -155 88 -321q2 -21 -3.5 -29t-13.5 -1t-14 26zM502 205q-62 180 -158 321q-10 10 0 17q128 80 369 321q26 26 39 23q10 -10 -15 -41q-118 -158 -293 -316
q67 -155 88 -321q2 -21 -3 -29t-13 -1t-14 26z" />
    <glyph glyph-name="registered" unicode="&#xae;" horiz-adv-x="1024" 
d="M676 1423q149 3 254 -102q106 -100 106 -252q0 -146 -106 -252t-256 -106q-147 0 -254 104q-105 108 -105 254q0 147 107 248q106 103 254 106zM676 729q138 3 235 100q99 99 99 238q0 141 -99 240q-98 98 -237 98q-138 0 -236 -98q-96 -101 -96 -238q0 -141 98 -242
q101 -101 236 -98zM864 901q17 0 17 -4q0 -6 -17 -6q-6 -2 -35 -2q-27 0 -43.5 16.5t-31.5 52.5l-35 76q-17 37 -36 47.5t-62 12.5v-136q0 -56 28 -59q17 0 17 -6q0 -8 -43 -2h-25q-23 0 -29 -2h-22q-17 0 -17 4q0 6 17 6q28 3 28 59v267q0 56 -28 59q-18 2 -16 6q3 7 26 6
q8 0 12 -2q3 0 14.5 -1t14.5 -1q5 0 22 1t21 1q46 4 51 4q50 0 84.5 -30.5t34.5 -69.5q0 -92 -100 -104q42 -14 57 -56l27 -61q34 -73 69 -76zM694 1104q70 9 70 92q0 86 -100 86q-19 0 -43 -4v-172q36 -5 73 -2z" />
    <glyph glyph-name="overscore" unicode="&#xaf;" horiz-adv-x="1052" 
d="M938 1184h-557q-25 0 -36 6t-7 16q10 23 43 23h559q23 0 35 -6.5t8 -16.5q-9 -22 -45 -22z" />
    <glyph glyph-name="overscore" unicode="&#x2c9;" horiz-adv-x="1052" 
d="M938 1184h-557q-25 0 -36 6t-7 16q10 23 43 23h559q23 0 35 -6.5t8 -16.5q-9 -22 -45 -22z" />
    <glyph glyph-name="degree" unicode="&#xb0;" horiz-adv-x="1024" 
d="M653 729q-112 0 -190 78q-76 79 -76 194q0 110 80 193q79 82 190 82t189 -78t78 -192q0 -113 -82 -195q-79 -82 -189 -82zM657 752q99 2 165.5 72.5t66.5 174.5q0 101 -72 179t-166 75q-98 -1 -162.5 -71t-66.5 -176q-3 -105 67 -181t168 -73z" />
    <glyph glyph-name="uni00B2" unicode="&#xb2;" horiz-adv-x="598" 
d="M639 811q20 -3 0 -33l-18 -39q-28 -54 -46 -98q-9 -27 -36 -27q-90 0 -117 2h-266q-13 0 -20.5 4t-6.5 11l2 4l16 16q137 119 209 185q83 76 156 163q89 103 113 179q23 69 2 108t-82 39q-99 0 -183 -84q-17 -17 -22 -12q-5 1 -6 5.5t2 11.5t10 14q124 133 256 133
q85 0 120 -51t11 -123q-35 -103 -162 -236q-45 -45 -98 -92q-82 -73 -121 -105l-73 -59q-35 -27 2 -27h180q64 0 93.5 17.5t59.5 70.5q16 26 25 23z" />
    <glyph glyph-name="uni00B3" unicode="&#xb3;" horiz-adv-x="624" 
d="M700 1253q-35 -104 -188 -194h10q78 0 109.5 -51t5.5 -136q-47 -138 -252 -270q-114 -63 -197 -63q-41 0 -60.5 17t-12.5 46q5 14 22.5 27.5t30.5 13.5q23 0 43 -33q17 -26 47 -26q50 0 102 34q119 58 172 222q35 72 0 125q-30 53 -133 32q-30 -3 -30 4q0 2 1 4.5t3 4.5
l4 4t6 4l6 3l7 3.5l7 3.5q72 30 128 85.5t75 113.5q14 45 -7 72.5t-71 27.5q-89 0 -166 -74q-18 -20 -26 -12q-12 3 10 31q115 121 234 121q77 0 108.5 -41t11.5 -99z" />
    <glyph glyph-name="acute" unicode="&#xb4;" horiz-adv-x="831" 
d="M801 1411l-223 -281q-30 -40 -33 -16q0 12 10 39l119 277q21 49 110 49q82 0 17 -68z" />
    <glyph glyph-name="paragraph" unicode="&#xb6;" horiz-adv-x="960" 
d="M76 -410q-64 0 -97 26.5t-20 70.5q7 24 35 44.5t49 20.5q38 0 74 -51q33 -45 82 -45q35 0 88 29q112 63 223 438l39 129q-68 0 -150.5 26t-140.5 74q-135 108 -135 328q0 229 190 379q192 151 508 151q115 0 170 2t84 2h25q10 0 17.5 -5t6.5 -11q-5 -8 -32 -8l-150 -4
l-301 -1049q-58 -197 -123 -297q-62 -96 -162 -151q-178 -99 -280 -99zM526 283h29l266 899h-55q-86 0 -121 -90q-95 -242 -199 -666q-37 -143 80 -143z" />
    <glyph glyph-name="middot" unicode="&#xb7;" horiz-adv-x="348" 
d="M197 461q-42 0 -64 25.5t-22 66.5q0 54 35.5 93.5t74.5 39.5q42 0 66 -27.5t24 -76.5q0 -46 -36 -83.5t-78 -37.5z" />
    <glyph glyph-name="middot" unicode="&#x2219;" horiz-adv-x="348" 
d="M197 461q-42 0 -64 25.5t-22 66.5q0 54 35.5 93.5t74.5 39.5q42 0 66 -27.5t24 -76.5q0 -46 -36 -83.5t-78 -37.5z" />
    <glyph glyph-name="cedilla" unicode="&#xb8;" horiz-adv-x="839" 
d="M211 -387q-67 0 -102 27q-27 21 -10.5 45t46.5 6q56 -41 113 -41q21 0 35 11.5t14 29.5q0 24 -47 104q-18 27 -18 58q0 38 53 81q5 4 15.5 12t13.5 11q7 4 28.5 20t24.5 17h24q-56 -42 -72 -62t-16 -45q0 -13 37 -86q21 -40 21 -69q0 -50 -68 -94q-45 -25 -92 -25z" />
    <glyph glyph-name="uni00B9" unicode="&#xb9;" horiz-adv-x="581" 
d="M428 635q17 -1 24 -5t5 -12q-3 -8 -29 -8q-7 0 -53 4q-5 0 -25 1t-24 1q-20 0 -66 -4q-8 0 -28 -1t-23 -1q-16 0 -22.5 4.5t-4.5 12.5q5 5 27 8q38 1 60 27.5t46 93.5l138 420q10 31 12.5 43.5t-7.5 18t-27.5 1t-61.5 -17.5q-31 -9 -31 0q-4 11 24 26q107 53 213 133
q16 13 27 13t2 -31l-196 -610q-23 -66 -18 -90.5t38 -26.5z" />
    <glyph glyph-name="ordmasculine" unicode="&#xba;" horiz-adv-x="1150" 
d="M354 606q-82 0 -131 55t-49 146q0 199 135 393q138 193 295 193q87 0 137 -55.5t50 -151.5q5 -117 -60 -255.5t-171 -234t-206 -90.5zM688 1233q0 141 -84 141q-76 0 -155 -108q-80 -112 -125 -250q-48 -142 -48 -242q0 -147 78 -147t158 108q81 114 127 252
q49 140 49 246zM864 496h-542q-20 0 -28 4.5t-3 13.5q6 16 33 16h542q21 0 28 -3t3 -13q-6 -18 -33 -18z" />
    <glyph glyph-name="guillemotright" unicode="&#xbb;" horiz-adv-x="772" 
d="M31 190q-19 -17 -26 -12.5t5 27.5q89 145 289 330q-72 173 -98 315q-6 38 4 41q13 3 24 -31q47 -154 174 -321q5 -8 -4 -17q-60 -43 -127 -104q-44 -40 -135 -127q-68 -68 -106 -101zM276 190q-19 -17 -25.5 -12.5t5.5 27.5q89 145 289 330q-74 177 -99 315q-6 37 5 41
q13 3 24 -31q47 -154 174 -321q5 -8 -4 -17q-60 -43 -127 -104q-44 -40 -135 -127q-61 -61 -107 -101z" />
    <glyph glyph-name="questiondown" unicode="&#xbf;" horiz-adv-x="751" 
d="M594 1024q72 0 72 -76q0 -45 -30 -77.5t-63 -32.5q-35 0 -54 23.5t-19 62.5q0 37 30.5 68.5t63.5 31.5zM444 727q146 -56 146 -215q0 -157 -201 -299q-11 -8 -60 -42.5t-65.5 -46.5t-58.5 -45t-59.5 -51.5t-46.5 -51.5t-41.5 -58.5t-22.5 -58.5t-10 -66q0 -97 75 -143
q58 -37 107 -37q53 0 78.5 25t50.5 92q12 35 20 46t21 11q25 0 46.5 -22t22.5 -52q6 -61 -44 -102t-130 -41q-97 0 -186 57q-67 40 -110.5 105t-43.5 135q0 83 53.5 163.5t139.5 147.5q20 15 67 50.5t71.5 54.5t64 52t61 58t44.5 56t33.5 62t10.5 62q0 92 -55 132
q-36 30 -19 32q11 0 41 -10z" />
    <glyph glyph-name="Agrave" unicode="&#xc0;" horiz-adv-x="1316" 
d="M1413 1778l131 -207q21 -35 12 -41q-10 -10 -40 20l-123 111q-36 32 -42.5 49.5t5.5 46.5q27 71 57 21zM1370 1413q25 0 16 -35l-393 -1130q-19 -60 -19.5 -101t17 -68.5t38 -41t42.5 -17.5q32 -6 34 -12q1 -3 -1 -6q-3 -8 -37 -8q-4 0 -82 4q-39 2 -102 2q-7 0 -97 -4
q-67 -6 -94 -6q-38 0 -36 13q0 1 1 3q4 7 37 10q52 4 82.5 44.5t63.5 142.5l141 403l-377 -14l-356 -379q-126 -135 -117 -170q7 -24 51 -27q25 0 35 -11q8 -8 -12 -13q-9 -2 -25 -2q-18 0 -74.5 5t-72.5 5q-15 0 -69 -5t-70 -5q-38 0 -35 16q4 7 37 10q114 9 313 220
l1010 1046q9 9 34.5 23.5t38.5 25.5q19 17 33 34t20 26.5t12 15.5t13 6zM639 627l354 14l203 576z" />
    <glyph glyph-name="Aacute" unicode="&#xc1;" horiz-adv-x="1316" 
d="M1630 1753q46 0 55 -18t-26 -37l-305 -158q-37 -18 -43 -8q-7 10 20 31l201 153q3 1 17.5 13.5t17.5 13.5q40 10 63 10zM1370 1413q25 0 16 -35l-393 -1130q-19 -60 -19.5 -101t17 -68.5t38 -41t42.5 -17.5q32 -6 34 -12q1 -3 -1 -6q-3 -8 -37 -8q-4 0 -82 4
q-39 2 -102 2q-7 0 -97 -4q-67 -6 -94 -6q-38 0 -36 13q0 1 1 3q4 7 37 10q52 4 82.5 44.5t63.5 142.5l141 403l-377 -14l-356 -379q-126 -135 -117 -170q7 -24 51 -27q25 0 35 -11q8 -8 -12 -13q-9 -2 -25 -2q-18 0 -74.5 5t-72.5 5q-15 0 -69 -5t-70 -5q-38 0 -35 16
q4 7 37 10q114 9 313 220l1010 1046q9 9 34.5 23.5t38.5 25.5q19 17 33 34t20 26.5t12 15.5t13 6zM639 627l354 14l203 576z" />
    <glyph glyph-name="Acircumflex" unicode="&#xc2;" horiz-adv-x="1316" 
d="M1610 1556q23 -40 18 -45q-12 -12 -45 21q-6 5 -41.5 39t-62 56t-33.5 18q-11 0 -55 -23q-49 -25 -91 -53q-13 -8 -28.5 -17.5t-24.5 -15t-14 -8.5q-48 -26 -57 -12q-10 10 38 45q104 75 211 182q29 27 56 26t37 -30q21 -66 92 -183zM1370 1413q25 0 16 -35l-393 -1130
q-19 -60 -19.5 -101t17 -68.5t38 -41t42.5 -17.5q32 -6 34 -12q1 -3 -1 -6q-3 -8 -37 -8q-4 0 -82 4q-39 2 -102 2q-7 0 -97 -4q-67 -6 -94 -6q-38 0 -36 13q0 1 1 3q4 7 37 10q52 4 82.5 44.5t63.5 142.5l141 403l-377 -14l-356 -379q-126 -135 -117 -170q7 -24 51 -27
q25 0 35 -11q8 -8 -12 -13q-9 -2 -25 -2q-18 0 -74.5 5t-72.5 5q-15 0 -69 -5t-70 -5q-38 0 -35 16q4 7 37 10q114 9 313 220l1010 1046q9 9 34.5 23.5t38.5 25.5q19 17 33 34t20 26.5t12 15.5t13 6zM639 627l354 14l203 576z" />
    <glyph glyph-name="Atilde" unicode="&#xc3;" horiz-adv-x="1316" 
d="M1694 1798q10 -10 -21 -51q-88 -125 -155 -125q-42 0 -162 18q-127 19 -150 19h-5q-13 0 -19.5 -1.5t-19.5 -11.5t-32 -32q-40 -43 -49 -35q-8 11 27 53q94 107 141 107q15 0 89 -9.5t142 -18.5t70 -9q48 -6 101 59q34 46 43 37zM1370 1413q25 0 16 -35l-393 -1130
q-19 -60 -19.5 -101t17 -68.5t38 -41t42.5 -17.5q32 -6 34 -12q1 -3 -1 -6q-3 -8 -37 -8q-4 0 -82 4q-39 2 -102 2q-7 0 -97 -4q-67 -6 -94 -6q-38 0 -36 13q0 1 1 3q4 7 37 10q52 4 82.5 44.5t63.5 142.5l141 403l-377 -14l-356 -379q-126 -135 -117 -170q7 -24 51 -27
q25 0 35 -11q8 -8 -12 -13q-9 -2 -25 -2q-18 0 -74.5 5t-72.5 5q-15 0 -69 -5t-70 -5q-38 0 -35 16q4 7 37 10q114 9 313 220l1010 1046q9 9 34.5 23.5t38.5 25.5q19 17 33 34t20 26.5t12 15.5t13 6zM639 627l354 14l203 576z" />
    <glyph glyph-name="Adieresis" unicode="&#xc4;" horiz-adv-x="1316" 
d="M1260 1593q-31 0 -48.5 19t-17.5 49q0 40 28 71t56 31q31 0 49.5 -21.5t18.5 -58.5q0 -35 -27.5 -62.5t-58.5 -27.5zM1606 1763q31 0 49 -21.5t18 -58.5q0 -35 -27.5 -62.5t-58.5 -27.5t-48 19t-17 49q0 40 28 71t56 31zM1370 1413q25 0 16 -35l-393 -1130
q-19 -60 -19.5 -101t17 -68.5t38 -41t42.5 -17.5q32 -6 34 -12q1 -3 -1 -6q-3 -8 -37 -8q-4 0 -82 4q-39 2 -102 2q-7 0 -97 -4q-67 -6 -94 -6q-38 0 -36 13q0 1 1 3q4 7 37 10q52 4 82.5 44.5t63.5 142.5l141 403l-377 -14l-356 -379q-126 -135 -117 -170q7 -24 51 -27
q25 0 35 -11q8 -8 -12 -13q-9 -2 -25 -2q-18 0 -74.5 5t-72.5 5q-15 0 -69 -5t-70 -5q-38 0 -35 16q4 7 37 10q114 9 313 220l1010 1046q9 9 34.5 23.5t38.5 25.5q19 17 33 34t20 26.5t12 15.5t13 6zM639 627l354 14l203 576z" />
    <glyph glyph-name="Aring" unicode="&#xc5;" horiz-adv-x="1316" 
d="M1473 1747q82 0 125 -49.5t26 -124.5q-15 -70 -88 -125q-70 -55 -147 -55q0 -9 -3 -15l-393 -1130q-19 -60 -19.5 -101t17 -68.5t38 -41t42.5 -17.5q32 -6 34 -12q1 -3 -1 -6q-3 -8 -37 -8q-4 0 -82 4q-39 2 -102 2q-7 0 -97 -4q-67 -6 -94 -6q-38 0 -36 13q0 1 1 3
q4 7 37 10q52 4 82.5 44.5t63.5 142.5l141 403l-377 -14l-356 -379q-126 -135 -117 -170q7 -24 51 -27q25 0 35 -11q8 -8 -12 -13q-9 -2 -25 -2q-18 0 -74.5 5t-72.5 5q-15 0 -69 -5t-70 -5q-38 0 -35 16q4 7 37 10q114 9 313 220l1010 1046q9 9 34.5 23.5t38.5 25.5
q34 29 56 66q-66 10 -97.5 57t-17.5 115q15 71 88 123q73 55 152 55zM1575 1577q14 66 -13.5 105.5t-88.5 39.5t-117.5 -47.5t-73.5 -111.5q-14 -67 14 -106.5t93 -39.5q63 0 118.5 48.5t67.5 111.5zM639 627l354 14l203 576z" />
    <glyph glyph-name="AE" unicode="&#xc6;" horiz-adv-x="1839" 
d="M-102 -10q-42 0 -40 13q0 1 1 3q4 7 39 10q127 12 311 220l960 1085l-4 -2q22 28 0 31q-24 2 -73 6q-26 0 -38 11q-9 8 12 12q11 3 28 3q20 0 87 -5t89 -5h2h143l164 4q59 2 143 2l-4 -18l6 18q168 4 191 4q18 0 26 -13.5t3 -33.5q-18 -83 -27 -174q-3 -40 -19 -43
q-7 -1 -10.5 7.5t-3.5 29.5q3 116 -29 148q-32 35 -143 38q-72 0 -156 2q-30 1 -75 2t-76.5 2t-54.5 1l-211 -643h223q172 0 227 137q15 37 23 37q17 0 2 -45q-2 -5 -11.5 -29t-17.5 -43q-17 -37 -29 -74q-5 -17 -19 -75t-19 -74q-12 -37 -21 -37q-16 0 -4 45
q19 62 -17.5 95.5t-119.5 33.5h-226l-126 -391q-51 -154 -23.5 -207t156.5 -53q111 0 219 6q117 6 172 49q57 43 143 199q23 39 37 36q9 -3 -6 -43q-97 -195 -111 -235q-21 -47 -57 -47q-23 0 -191 4q-431 6 -485 6h-33q-14 0 -92 -4q-59 -6 -88 -6q-40 3 -37 12q4 11 45 14
q64 6 101.5 46t70.5 133l156 477h-338l-391 -459q-54 -64 -71.5 -106.5t1.5 -64.5t74 -26q33 0 41 -12q4 -6 -10 -10q-11 -3 -33 -4q-21 0 -83 5t-79 5q-4 0 -98 -4q-70 -6 -96 -6zM1188 1309l-520 -609h321z" />
    <glyph glyph-name="Ccedilla" unicode="&#xc7;" horiz-adv-x="1212" 
d="M1311 1309q24 -15 24 -37q0 -1 -0.5 -4l-1.5 -9l-2 -12q-17 -96 -53 -196q-2 -8 -5 -13.5t-6 -7.5t-5 0q-8 4 -5 21q21 133 -24 204q-65 105 -240 105q-188 0 -360 -146q-166 -141 -262 -356q-92 -210 -92 -412q0 -203 91.5 -321.5t254.5 -118.5q152 0 303 127
q69 57 129 168q6 12 11.5 20.5t10 11.5t6.5 1q5 0 5 -6q0 -4 -11 -37q-49 -121 -59 -156q-9 -35 -47 -53q-107 -55 -187 -80q-80 -22 -182 -22q-55 -40 -70.5 -59.5t-15.5 -45.5q0 -13 37 -86q20 -39 20 -70q0 -51 -67 -94q-43 -24 -92 -24q-70 0 -103 26q-27 21 -10 45
t47 6q55 -40 113 -40q21 0 35 11t14 29q0 25 -47 105q-19 29 -19 57q0 50 134 140q-203 7 -320 141t-117 352q0 162 63 324.5t175 294.5q114 134 282.5 214t358.5 80q153 0 289 -77z" />
    <glyph glyph-name="Egrave" unicode="&#xc8;" horiz-adv-x="1062" 
d="M1008 1489q-10 -11 -41 20l-123 111q-36 32 -42.5 49.5t5.5 46.5q27 70 57 21l131 -207q22 -35 13 -41zM-59 -10q-42 0 -40 13q0 1 1 3q4 7 41 10q70 6 109 52t77 159l301 922q25 71 29.5 114t-13 66.5t-61.5 26.5q-26 0 -38 11q-9 8 12 12q11 3 28 3q29 0 90 -6
q82 -4 105 -4q6 0 338 6q61 1 117 2t83.5 1.5t32.5 0.5q24 0 30 -12t-1 -37q-22 -121 -25 -174q-3 -37 -14 -41q-7 -1 -11 7.5t-6 29.5q-7 96 -53.5 135.5t-157.5 50.5q-126 11 -251 2q-29 -1 -41 -14t-29 -63l-172 -533h213q209 0 268 146q14 36 25 36q17 0 2 -45
q-6 -19 -30.5 -79t-29.5 -78q-4 -9 -22 -80l-25 -88q-12 -37 -20 -37q-13 0 -4 45q17 75 -24 111t-148 36h-217l-134 -415q-21 -77 -23 -127t17.5 -80t57 -41.5t100.5 -11.5q56 0 117 6q239 24 360 250q10 19 18.5 27.5t14.5 6.5q16 -3 -6 -45q-20 -41 -58.5 -128
t-50.5 -109q-12 -26 -23 -34.5t-32 -8.5q-6 0 -33 0.5t-82 1.5t-114 2q-313 6 -404 6q-20 0 -106 -4q-61 -6 -88 -6z" />
    <glyph glyph-name="Eacute" unicode="&#xc9;" horiz-adv-x="1062" 
d="M1110 1657l-305 -158q-37 -18 -43 -8q-7 10 20 31l201 153q3 1 17.5 13.5t17.5 13.5q40 10 63 10q46 0 55 -18t-26 -37zM-59 -10q-42 0 -40 13q0 1 1 3q4 7 41 10q70 6 109 52t77 159l301 922q25 71 29.5 114t-13 66.5t-61.5 26.5q-26 0 -38 11q-9 8 12 12q11 3 28 3
q29 0 90 -6q82 -4 105 -4q6 0 338 6q61 1 117 2t83.5 1.5t32.5 0.5q24 0 30 -12t-1 -37q-22 -121 -25 -174q-3 -37 -14 -41q-7 -1 -11 7.5t-6 29.5q-7 96 -53.5 135.5t-157.5 50.5q-126 11 -251 2q-29 -1 -41 -14t-29 -63l-172 -533h213q209 0 268 146q14 36 25 36
q17 0 2 -45q-6 -19 -30.5 -79t-29.5 -78q-4 -9 -22 -80l-25 -88q-12 -37 -20 -37q-13 0 -4 45q17 75 -24 111t-148 36h-217l-134 -415q-21 -77 -23 -127t17.5 -80t57 -41.5t100.5 -11.5q56 0 117 6q239 24 360 250q10 19 18.5 27.5t14.5 6.5q16 -3 -6 -45
q-20 -41 -58.5 -128t-50.5 -109q-12 -26 -23 -34.5t-32 -8.5q-6 0 -33 0.5t-82 1.5t-114 2q-313 6 -404 6q-20 0 -106 -4q-61 -6 -88 -6z" />
    <glyph glyph-name="Ecircumflex" unicode="&#xca;" horiz-adv-x="1062" 
d="M1079 1470q-12 -12 -45 21q-6 5 -41.5 39t-62 56t-33.5 18q-11 0 -55 -23t-90 -53q-66 -40 -68 -41q-48 -26 -57 -12q-9 9 39 45q104 75 211 182q29 27 55.5 26t36.5 -30q21 -64 92 -182q24 -40 18 -46zM-59 -10q-42 0 -40 13q0 1 1 3q4 7 41 10q70 6 109 52t77 159
l301 922q25 71 29.5 114t-13 66.5t-61.5 26.5q-26 0 -38 11q-9 8 12 12q11 3 28 3q29 0 90 -6q82 -4 105 -4q6 0 338 6q61 1 117 2t83.5 1.5t32.5 0.5q24 0 30 -12t-1 -37q-22 -121 -25 -174q-3 -37 -14 -41q-7 -1 -11 7.5t-6 29.5q-7 96 -53.5 135.5t-157.5 50.5
q-126 11 -251 2q-29 -1 -41 -14t-29 -63l-172 -533h213q209 0 268 146q14 36 25 36q17 0 2 -45q-6 -19 -30.5 -79t-29.5 -78q-4 -9 -22 -80l-25 -88q-12 -37 -20 -37q-13 0 -4 45q17 75 -24 111t-148 36h-217l-134 -415q-21 -77 -23 -127t17.5 -80t57 -41.5t100.5 -11.5
q56 0 117 6q239 24 360 250q10 19 18.5 27.5t14.5 6.5q16 -3 -6 -45q-20 -41 -58.5 -128t-50.5 -109q-12 -26 -23 -34.5t-32 -8.5q-6 0 -33 0.5t-82 1.5t-114 2q-313 6 -404 6q-20 0 -106 -4q-61 -6 -88 -6z" />
    <glyph glyph-name="Edieresis" unicode="&#xcb;" horiz-adv-x="1062" 
d="M711 1552q-31 0 -48.5 19t-17.5 49q0 40 28 71t56 31q31 0 49.5 -21.5t18.5 -58.5q0 -35 -27.5 -62.5t-58.5 -27.5zM1038 1552q-31 0 -48 19t-17 49q0 40 28 71t56 31q31 0 49 -21.5t18 -58.5q0 -35 -27.5 -62.5t-58.5 -27.5zM-59 -10q-42 0 -40 13q0 1 1 3q4 7 41 10
q70 6 109 52t77 159l301 922q25 71 29.5 114t-13 66.5t-61.5 26.5q-26 0 -38 11q-9 8 12 12q11 3 28 3q29 0 90 -6q82 -4 105 -4q6 0 338 6q61 1 117 2t83.5 1.5t32.5 0.5q24 0 30 -12t-1 -37q-22 -121 -25 -174q-3 -37 -14 -41q-7 -1 -11 7.5t-6 29.5q-7 96 -53.5 135.5
t-157.5 50.5q-126 11 -251 2q-29 -1 -41 -14t-29 -63l-172 -533h213q209 0 268 146q14 36 25 36q17 0 2 -45q-6 -19 -30.5 -79t-29.5 -78q-4 -9 -22 -80l-25 -88q-12 -37 -20 -37q-13 0 -4 45q17 75 -24 111t-148 36h-217l-134 -415q-21 -77 -23 -127t17.5 -80t57 -41.5
t100.5 -11.5q56 0 117 6q239 24 360 250q10 19 18.5 27.5t14.5 6.5q16 -3 -6 -45q-20 -41 -58.5 -128t-50.5 -109q-12 -26 -23 -34.5t-32 -8.5q-6 0 -33 0.5t-82 1.5t-114 2q-313 6 -404 6q-20 0 -106 -4q-61 -6 -88 -6z" />
    <glyph glyph-name="Igrave" unicode="&#xcc;" horiz-adv-x="546" 
d="M623 1737l131 -207q21 -35 12 -41q-10 -11 -41 20l-123 111q-36 32 -42.5 49.5t5.5 46.5q27 72 58 21zM731 1382q11 0 18.5 -4t6.5 -10q-3 -11 -31 -14q-45 -6 -71 -20.5t-46 -45.5q-22 -35 -57 -143l-301 -922q-41 -130 -35 -157q9 -41 70 -50q17 -1 23 -7.5t1 -14.5
q-3 -6 -24 -6q-33 0 -97 6q-82 4 -86 4q-18 0 -80 -5t-88 -5q-12 0 -19.5 4.5t-4 11t21.5 12.5q73 13 111 57.5t74 151.5l299 922q34 96 27.5 144.5t-70.5 62.5q-25 6 -19 20q3 8 29 8t85 -5t75 -5q22 0 100 4q62 6 88 6z" />
    <glyph glyph-name="Iacute" unicode="&#xcd;" horiz-adv-x="546" 
d="M840 1712q46 0 54.5 -18t-26.5 -37l-305 -158q-37 -18 -43 -8t21 31l200 153q3 1 17.5 13.5t17.5 13.5q40 10 64 10zM731 1382q11 0 18.5 -4t6.5 -10q-3 -11 -31 -14q-45 -6 -71 -20.5t-46 -45.5q-22 -35 -57 -143l-301 -922q-41 -130 -35 -157q9 -41 70 -50
q17 -1 23 -7.5t1 -14.5q-3 -6 -24 -6q-33 0 -97 6q-82 4 -86 4q-18 0 -80 -5t-88 -5q-12 0 -19.5 4.5t-4 11t21.5 12.5q73 13 111 57.5t74 151.5l299 922q34 96 27.5 144.5t-70.5 62.5q-25 6 -19 20q3 8 29 8t85 -5t75 -5q22 0 100 4q62 6 88 6z" />
    <glyph glyph-name="Icircumflex" unicode="&#xce;" horiz-adv-x="546" 
d="M819 1516q24 -41 19 -46q-12 -12 -45 21q-5 4 -41 38.5t-63 56.5t-34 18q-11 0 -55 -23t-90 -53q-66 -40 -68 -41q-48 -26 -57 -12q-9 9 39 45q104 75 211 182q29 27 55.5 26t36.5 -30q21 -64 92 -182zM731 1382q11 0 18.5 -4t6.5 -10q-3 -11 -31 -14q-45 -6 -71 -20.5
t-46 -45.5q-22 -35 -57 -143l-301 -922q-41 -130 -35 -157q9 -41 70 -50q17 -1 23 -7.5t1 -14.5q-3 -6 -24 -6q-33 0 -97 6q-82 4 -86 4q-18 0 -80 -5t-88 -5q-12 0 -19.5 4.5t-4 11t21.5 12.5q73 13 111 57.5t74 151.5l299 922q34 96 27.5 144.5t-70.5 62.5q-25 6 -19 20
q3 8 29 8t85 -5t75 -5q22 0 100 4q62 6 88 6z" />
    <glyph glyph-name="Idieresis" unicode="&#xcf;" horiz-adv-x="546" 
d="M469 1552q-31 0 -48.5 19t-17.5 49q0 40 28 71t56 31q31 0 49.5 -21.5t18.5 -58.5q0 -35 -27.5 -62.5t-58.5 -27.5zM815 1722q31 0 49.5 -21.5t18.5 -58.5q0 -35 -27.5 -62.5t-58.5 -27.5t-48.5 19t-17.5 49q0 40 28 71t56 31zM731 1382q11 0 18.5 -4t6.5 -10
q-3 -11 -31 -14q-45 -6 -71 -20.5t-46 -45.5q-22 -35 -57 -143l-301 -922q-41 -130 -35 -157q9 -41 70 -50q17 -1 23 -7.5t1 -14.5q-3 -6 -24 -6q-33 0 -97 6q-82 4 -86 4q-18 0 -80 -5t-88 -5q-12 0 -19.5 4.5t-4 11t21.5 12.5q73 13 111 57.5t74 151.5l299 922
q34 96 27.5 144.5t-70.5 62.5q-25 6 -19 20q3 8 29 8t85 -5t75 -5q22 0 100 4q62 6 88 6z" />
    <glyph glyph-name="Eth" unicode="&#xd0;" horiz-adv-x="1337" 
d="M842 1393q322 0 435.5 -181t8.5 -505q-86 -256 -246 -433q-272 -294 -651 -294q-36 0 -141 10t-137 10q-21 0 -84 -5t-80 -5q-27 0 -36 12q-5 6 10 10q11 3 30 4q62 6 99 52.5t75 158.5l145 447h-131q-17 0 -23 4t-1 12q6 12 30 12h136l145 451l-2 -4q18 55 25.5 90.5
t5.5 62.5t-18 40t-46 14q-38 6 -35 18q5 8 37 8q13 0 81 -5t99 -5q38 0 136 10q108 11 133 11zM1141 680q35 107 48 203.5t-1 183.5t-56.5 150.5t-124.5 101t-198 37.5q-86 0 -184 -10l-211 -644h147q16 0 20.5 -2.5t2.5 -9.5q-6 -16 -31 -16h-147l-160 -488
q-31 -101 10.5 -139.5t151.5 -38.5q315 0 534 287q130 172 199 385z" />
    <glyph glyph-name="Ntilde" unicode="&#xd1;" horiz-adv-x="1329" 
d="M686 1538q-8 11 27 53q94 107 141 107q15 0 89 -9t142 -18.5t70 -9.5q47 -6 100 59q34 46 43 37q10 -10 -20 -51q-88 -125 -156 -125q-41 0 -161 18q-127 19 -150 19h-5q-13 0 -19.5 -1.5t-19.5 -11.5t-32 -32q-41 -43 -49 -35zM922 -20q-13 0 -19 16l-379 1229
q-7 22 -10 23q-2 0 -6 -9l-10 -27l-322 -989q-37 -102 -32 -151.5t65 -55.5q26 -2 34 -14q4 -7 -10 -10q-10 -2 -28 -2q-11 0 -57.5 5t-67.5 5q-12 0 -67 -5t-79 -5q-18 0 -27 4t-7 12q4 7 37 10q82 9 118 54q41 47 80 157l316 922q17 57 24 90t5.5 61t-17 40.5t-45.5 15.5
q-25 0 -35 11q-8 8 12 13l25 2q17 0 78 -5t82 -5h8q25 0 35 -29l346 -1114q9 -34 20 -2l6 15l281 907q34 103 27.5 152t-64.5 55q-25 0 -35 11q-8 8 12 13q9 2 25 2q11 0 58.5 -5t68.5 -5q12 0 67 5t78 5q27 0 36 -12q5 -6 -10 -10q-11 -3 -30 -4q-80 -9 -118 -53
q-36 -44 -76 -158l-377 -1149q-6 -16 -16 -16z" />
    <glyph glyph-name="Ograve" unicode="&#xd2;" horiz-adv-x="1366" 
d="M1200 1489q-10 -11 -41 20l-123 111q-36 32 -42.5 49.5t5.5 46.5q27 72 58 21l131 -207q21 -35 12 -41zM588 -20q-192 0 -312 153t-120 363q0 346 217 606q107 128 252 205q141 75 284 75q186 0 299 -143q117 -144 117 -336q0 -204 -69.5 -392.5t-192.5 -311.5
q-105 -105 -235 -162t-240 -57zM594 4q181 0 381 256q95 121 160 318q67 198 67 372q0 114 -26 197q-58 211 -263 211q-243 0 -444 -287q-88 -130 -139 -311q-54 -190 -54 -344q0 -204 84 -308t234 -104z" />
    <glyph glyph-name="Oacute" unicode="&#xd3;" horiz-adv-x="1366" 
d="M1303 1657l-306 -158q-37 -18 -43 -8t21 31l201 153q3 1 17 13.5t17 13.5q40 10 64 10q46 0 55 -18t-26 -37zM588 -20q-192 0 -312 153t-120 363q0 346 217 606q107 128 252 205q141 75 284 75q186 0 299 -143q117 -144 117 -336q0 -204 -69.5 -392.5t-192.5 -311.5
q-105 -105 -235 -162t-240 -57zM594 4q181 0 381 256q95 121 160 318q67 198 67 372q0 114 -26 197q-58 211 -263 211q-243 0 -444 -287q-88 -130 -139 -311q-54 -190 -54 -344q0 -204 84 -308t234 -104z" />
    <glyph glyph-name="Ocircumflex" unicode="&#xd4;" horiz-adv-x="1366" 
d="M1272 1470q-12 -12 -45 21q-6 5 -41.5 39t-62 56t-33.5 18q-12 0 -56 -23t-90 -53q-13 -8 -28.5 -17.5t-24.5 -15t-14 -8.5q-49 -27 -58 -12q-9 9 39 45q104 75 211 182q29 27 55.5 26t36.5 -30q21 -64 92 -182q24 -41 19 -46zM588 -20q-192 0 -312 153t-120 363
q0 346 217 606q107 128 252 205q141 75 284 75q186 0 299 -143q117 -144 117 -336q0 -204 -69.5 -392.5t-192.5 -311.5q-105 -105 -235 -162t-240 -57zM594 4q181 0 381 256q95 121 160 318q67 198 67 372q0 114 -26 197q-58 211 -263 211q-243 0 -444 -287
q-88 -130 -139 -311q-54 -190 -54 -344q0 -204 84 -308t234 -104z" />
    <glyph glyph-name="Otilde" unicode="&#xd5;" horiz-adv-x="1366" 
d="M725 1538q-8 11 27 53q94 107 141 107q15 0 89 -9t142 -18.5t70 -9.5q47 -6 100 59q34 46 43 37q10 -10 -20 -51q-88 -125 -156 -125q-42 0 -162 18q-127 19 -149 19h-5q-13 0 -19.5 -1.5t-19.5 -11.5t-32 -32q-40 -43 -49 -35zM588 -20q-192 0 -312 153t-120 363
q0 346 217 606q107 128 252 205q141 75 284 75q186 0 299 -143q117 -144 117 -336q0 -204 -69.5 -392.5t-192.5 -311.5q-105 -105 -235 -162t-240 -57zM594 4q181 0 381 256q95 121 160 318q67 198 67 372q0 114 -26 197q-58 211 -263 211q-243 0 -444 -287
q-88 -130 -139 -311q-54 -190 -54 -344q0 -204 84 -308t234 -104z" />
    <glyph glyph-name="Odieresis" unicode="&#xd6;" horiz-adv-x="1366" 
d="M903 1552q-31 0 -48 19t-17 49q0 40 28 71t56 31q31 0 49 -21.5t18 -58.5q0 -35 -27.5 -62.5t-58.5 -27.5zM1231 1552q-31 0 -48.5 19t-17.5 49q0 40 28 71t56 31q31 0 49.5 -21.5t18.5 -58.5q0 -35 -27.5 -62.5t-58.5 -27.5zM588 -20q-192 0 -312 153t-120 363
q0 346 217 606q107 128 252 205q141 75 284 75q186 0 299 -143q117 -144 117 -336q0 -204 -69.5 -392.5t-192.5 -311.5q-105 -105 -235 -162t-240 -57zM594 4q181 0 381 256q95 121 160 318q67 198 67 372q0 114 -26 197q-58 211 -263 211q-243 0 -444 -287
q-88 -130 -139 -311q-54 -190 -54 -344q0 -204 84 -308t234 -104z" />
    <glyph glyph-name="multiply" unicode="&#xd7;" horiz-adv-x="1024" 
d="M1010 1001q21 -6 -15 -32l-442 -332l223 -330q16 -28 4 -31q-20 -6 -32 13l-224 325l-438 -329q-18 -12 -35 -9q-21 6 9 29l8 6l438 330l-223 328q-12 21 -8.5 30.5t16.5 6t22 -16.5l222 -325l438 329q17 15 37 8z" />
    <glyph glyph-name="Oslash" unicode="&#xd8;" horiz-adv-x="1366" 
d="M1286 1348l-80 -105q119 -140 119 -340q0 -204 -69.5 -392.5t-192.5 -311.5q-105 -105 -235 -162t-240 -57q-157 0 -273 110l-61 -78q-9 -12 -27 -12q-12 0 2 25l66 86q-139 151 -139 385q0 346 217 606q107 128 252 205q141 75 284 75q161 0 279 -118l74 96q9 12 26 12
q12 0 -2 -24zM276 416q0 -163 54 -260l821 1061q-71 141 -238 141q-243 0 -444 -287q-88 -130 -139 -311q-54 -190 -54 -344zM975 260q95 121 160 318q67 198 67 372q0 143 -39 238l-819 -1059q82 -125 250 -125q181 0 381 256z" />
    <glyph glyph-name="Ugrave" unicode="&#xd9;" horiz-adv-x="1325" 
d="M1120 1509l-123 111q-36 32 -42.5 49.5t6.5 46.5q27 70 57 21l131 -207q21 -35 12 -41q-11 -11 -41 20zM1509 1382q38 0 35 -16q-4 -7 -37 -10q-83 -9 -121 -53q-32 -40 -75 -160q-5 -21 -31 -92q-153 -460 -233 -643q-75 -177 -199 -289q-160 -139 -342 -139
q-465 0 -318 501q37 125 211 668q18 53 24.5 85t3.5 58.5t-20 40.5t-51 21q-24 6 -18 20q3 8 29 8q23 0 88.5 -5t91.5 -5q8 0 82 4q59 6 86 6q11 0 18 -4t6 -10q-3 -11 -30 -14q-45 -6 -71 -20.5t-46 -45.5q-22 -35 -57 -143q-150 -464 -203 -641q-24 -82 -34.5 -145.5
t-4.5 -122.5t33.5 -97.5t83 -61.5t139.5 -24q102 0 176 31t152 111q98 103 176 301q80 205 221 655q34 100 27.5 149.5t-64.5 55.5q-29 0 -36 12q-4 7 10 11q10 2 28 3q11 0 57.5 -5t67.5 -5q12 0 67 5t78 5z" />
    <glyph glyph-name="Uacute" unicode="&#xda;" horiz-adv-x="1325" 
d="M1264 1657l-306 -158q-37 -18 -43 -8t21 31l201 153q3 1 17 13.5t17 13.5q40 10 64 10q46 0 55 -18t-26 -37zM1509 1382q38 0 35 -16q-4 -7 -37 -10q-83 -9 -121 -53q-32 -40 -75 -160q-5 -21 -31 -92q-153 -460 -233 -643q-75 -177 -199 -289q-160 -139 -342 -139
q-465 0 -318 501q37 125 211 668q18 53 24.5 85t3.5 58.5t-20 40.5t-51 21q-24 6 -18 20q3 8 29 8q23 0 88.5 -5t91.5 -5q8 0 82 4q59 6 86 6q11 0 18 -4t6 -10q-3 -11 -30 -14q-45 -6 -71 -20.5t-46 -45.5q-22 -35 -57 -143q-150 -464 -203 -641q-24 -82 -34.5 -145.5
t-4.5 -122.5t33.5 -97.5t83 -61.5t139.5 -24q102 0 176 31t152 111q98 103 176 301q80 205 221 655q34 100 27.5 149.5t-64.5 55.5q-29 0 -36 12q-4 7 10 11q10 2 28 3q11 0 57.5 -5t67.5 -5q12 0 67 5t78 5z" />
    <glyph glyph-name="Ucircumflex" unicode="&#xdb;" horiz-adv-x="1325" 
d="M838 1487q-49 -27 -58 -12q-9 9 39 45q104 75 211 182q29 27 55.5 26t36.5 -30q21 -64 92 -182q24 -41 19 -46q-12 -12 -45 21q-6 5 -41.5 39t-62 56t-33.5 18q-12 0 -56 -23t-90 -53q-13 -8 -28.5 -17.5t-24.5 -15t-14 -8.5zM1509 1382q38 0 35 -16q-4 -7 -37 -10
q-83 -9 -121 -53q-32 -40 -75 -160q-5 -21 -31 -92q-153 -460 -233 -643q-75 -177 -199 -289q-160 -139 -342 -139q-465 0 -318 501q37 125 211 668q18 53 24.5 85t3.5 58.5t-20 40.5t-51 21q-24 6 -18 20q3 8 29 8q23 0 88.5 -5t91.5 -5q8 0 82 4q59 6 86 6q11 0 18 -4
t6 -10q-3 -11 -30 -14q-45 -6 -71 -20.5t-46 -45.5q-22 -35 -57 -143q-150 -464 -203 -641q-24 -82 -34.5 -145.5t-4.5 -122.5t33.5 -97.5t83 -61.5t139.5 -24q102 0 176 31t152 111q98 103 176 301q80 205 221 655q34 100 27.5 149.5t-64.5 55.5q-29 0 -36 12q-4 7 10 11
q10 2 28 3q11 0 57.5 -5t67.5 -5q12 0 67 5t78 5z" />
    <glyph glyph-name="Udieresis" unicode="&#xdc;" horiz-adv-x="1325" 
d="M864 1552q-31 0 -48 19t-17 49q0 40 28 71t56 31q31 0 49 -21.5t18 -58.5q0 -35 -27.5 -62.5t-58.5 -27.5zM1192 1552q-31 0 -48.5 19t-17.5 49q0 40 28 71t56 31q31 0 49.5 -21.5t18.5 -58.5q0 -35 -27.5 -62.5t-58.5 -27.5zM1509 1382q38 0 35 -16q-4 -7 -37 -10
q-83 -9 -121 -53q-32 -40 -75 -160q-5 -21 -31 -92q-153 -460 -233 -643q-75 -177 -199 -289q-160 -139 -342 -139q-465 0 -318 501q37 125 211 668q18 53 24.5 85t3.5 58.5t-20 40.5t-51 21q-24 6 -18 20q3 8 29 8q23 0 88.5 -5t91.5 -5q8 0 82 4q59 6 86 6q11 0 18 -4
t6 -10q-3 -11 -30 -14q-45 -6 -71 -20.5t-46 -45.5q-22 -35 -57 -143q-150 -464 -203 -641q-24 -82 -34.5 -145.5t-4.5 -122.5t33.5 -97.5t83 -61.5t139.5 -24q102 0 176 31t152 111q98 103 176 301q80 205 221 655q34 100 27.5 149.5t-64.5 55.5q-29 0 -36 12q-4 7 10 11
q10 2 28 3q11 0 57.5 -5t67.5 -5q12 0 67 5t78 5z" />
    <glyph glyph-name="Yacute" unicode="&#xdd;" horiz-adv-x="1300" 
d="M1276 1657l-305 -158q-37 -18 -43 -8q-7 10 20 31l201 153q3 1 17.5 13.5t17.5 13.5q40 10 63 10q46 0 55 -18t-26 -37zM1489 1382q38 0 36 -13q0 -1 -1 -3q-4 -7 -35 -10q-95 -9 -229 -158l-502 -551l-137 -426q-44 -128 -35 -158q12 -38 69 -47q14 -2 21.5 -8.5
t3.5 -13.5q-3 -6 -27 -6q-29 0 -88 6q-78 4 -82 4q-25 0 -90 -5t-88 -5q-14 0 -21 4.5t-3 11t20 12.5q76 13 113.5 57t70.5 152l138 420l-127 537q-41 155 -119 170q-27 2 -34 12q-4 8 17 12l21 2q6 0 92 -4q45 -2 90 -2q16 0 94 4q61 6 86 6q38 0 36 -13q0 -1 -1 -3
q-4 -7 -37 -10q-65 -5 -97.5 -54.5t-14.5 -125.5l123 -500l465 532q40 47 52.5 78t-4 48.5t-63.5 21.5q-29 0 -36 12q-4 7 10 11q10 2 28 3q18 0 74 -5t72 -5t70 5t69 5z" />
    <glyph glyph-name="Thorn" unicode="&#xde;" horiz-adv-x="974" 
d="M629 1081q160 0 257 -81t97 -232q0 -203 -158 -334q-157 -127 -381 -127q-52 0 -79 8q-37 9 -37 19q0 8 12 8q2 0 5.5 -0.5t10 -1.5t11.5 -2q38 -6 73 -6q172 0 293 133q121 136 121 309q0 127 -86.5 201t-224.5 74h-25l-268 -826q-41 -130 -35 -157q9 -41 70 -50
q17 -1 23 -7.5t1 -14.5q-3 -6 -24 -6q-33 0 -97 6q-82 4 -86 4q-18 0 -80 -5t-88 -5q-12 0 -19.5 4.5t-4 11t21.5 12.5q73 13 111 57.5t74 151.5l299 922q34 96 27.5 144.5t-70.5 62.5q-25 6 -19 20q3 8 29 8t85 -5t75 -5q22 0 100 4q62 6 88 6q11 0 18.5 -4t6.5 -10
q-3 -11 -31 -14q-45 -6 -71 -20.5t-46 -45.5q-22 -35 -57 -143l-23 -68q54 4 101 4z" />
    <glyph glyph-name="germandbls" unicode="&#xdf;" horiz-adv-x="1249" 
d="M-295 -532q-65 0 -106 29t-41 69q0 36 24.5 56t57.5 20q25 0 38.5 -14.5t26.5 -51.5q13 -41 30 -59.5t46 -18.5q90 0 160 172q73 178 215 682l69 258q54 197 103 355q46 143 111.5 232.5t164.5 150.5q145 86 283 86q94 0 145 -50.5t51 -121.5q0 -51 -33 -103t-94 -96
q-103 -74 -217 -135q-184 -94 -184 -195q0 -42 42.5 -78t135.5 -80q219 -103 219 -239q0 -141 -133 -250q-130 -106 -299 -106q-115 0 -175 40t-60 95q0 30 22 52.5t49 22.5q64 0 82 -71q27 -109 135 -109q106 0 185 76q82 76 82 168q0 125 -197 211q-188 83 -188 197
q0 101 92 172q25 21 80 59q10 7 96 57q250 145 250 320q0 127 -160 127q-84 0 -154 -43q-56 -37 -100 -115q-47 -83 -61 -133l-43 -143q-10 -34 -23 -81.5t-33 -120t-34 -124.5q-16 -57 -32 -117.5t-23.5 -87.5t-10.5 -35q-135 -453 -197 -594q-117 -264 -284 -319
q-56 -16 -113 -16z" />
    <glyph glyph-name="agrave" unicode="&#xe0;" horiz-adv-x="987" 
d="M901 1167q-7 -1 -12.5 6.5t-11.5 28.5l-60 154q-19 47 -17 65t27 41q57 48 60 -8l20 -246q0 -38 -6 -41zM76 -20q-45 0 -74 32.5t-29 91.5q0 113 90 279q88 163 213 303q125 143 254 240q129 100 209 100q30 0 69.5 -21.5t63.5 -48.5q56 40 101 91q5 5 11.5 4.5t9 -6
t-0.5 -17.5q-254 -632 -317 -833q-34 -100 0 -103l10 2q54 9 143 133q17 23 28 20q14 -4 -7 -34q-149 -233 -272 -233q-90 0 -66 114q20 96 158 408q-117 -168 -297 -342q-186 -180 -297 -180zM168 88q83 0 223 131q301 281 414 645q-10 41 -49 72t-76 31q-57 0 -121 -52
q-143 -118 -295 -358q-153 -246 -153 -399q0 -70 57 -70z" />
    <glyph glyph-name="aacute" unicode="&#xe1;" horiz-adv-x="987" 
d="M977 1411l-223 -281q-30 -40 -33 -16q0 12 10 39l119 277q21 49 111 49q81 0 16 -68zM76 -20q-45 0 -74 32.5t-29 91.5q0 113 90 279q88 163 213 303q125 143 254 240q129 100 209 100q30 0 69.5 -21.5t63.5 -48.5q56 40 101 91q5 5 11.5 4.5t9 -6t-0.5 -17.5
q-254 -632 -317 -833q-34 -100 0 -103l10 2q54 9 143 133q17 23 28 20q14 -4 -7 -34q-149 -233 -272 -233q-90 0 -66 114q20 96 158 408q-117 -168 -297 -342q-186 -180 -297 -180zM168 88q83 0 223 131q301 281 414 645q-10 41 -49 72t-76 31q-57 0 -121 -52
q-143 -118 -295 -358q-153 -246 -153 -399q0 -70 57 -70z" />
    <glyph glyph-name="acircumflex" unicode="&#xe2;" horiz-adv-x="987" 
d="M598 1141q-3 8 39 47q168 159 199 194q27 30 55.5 30t36.5 -30q35 -139 73 -194q24 -35 9 -47q-17 -13 -43 20q-3 3 -33 42.5t-52 63t-30 19.5q-29 0 -197 -125q-51 -36 -57 -20zM76 -20q-45 0 -74 32.5t-29 91.5q0 113 90 279q88 163 213 303q125 143 254 240
q129 100 209 100q30 0 69.5 -21.5t63.5 -48.5q56 40 101 91q5 5 11.5 4.5t9 -6t-0.5 -17.5q-254 -632 -317 -833q-34 -100 0 -103l10 2q54 9 143 133q17 23 28 20q14 -4 -7 -34q-149 -233 -272 -233q-90 0 -66 114q20 96 158 408q-117 -168 -297 -342q-186 -180 -297 -180z
M168 88q83 0 223 131q301 281 414 645q-10 41 -49 72t-76 31q-57 0 -121 -52q-143 -118 -295 -358q-153 -246 -153 -399q0 -70 57 -70z" />
    <glyph glyph-name="atilde" unicode="&#xe3;" horiz-adv-x="987" 
d="M625 1169q-9 12 26 54q93 106 142 106q16 0 79.5 -9.5t121 -18.5t59.5 -9q47 -6 100 60q34 46 43 37q11 -11 -20 -52q-88 -125 -156 -125q-17 0 -100 11l-35 6q-98 20 -135 20h-5q-13 0 -19.5 -1.5t-19.5 -11.5t-32 -32q-42 -45 -49 -35zM76 -20q-45 0 -74 32.5t-29 91.5
q0 113 90 279q88 163 213 303q125 143 254 240q129 100 209 100q30 0 69.5 -21.5t63.5 -48.5q56 40 101 91q5 5 11.5 4.5t9 -6t-0.5 -17.5q-254 -632 -317 -833q-34 -100 0 -103l10 2q54 9 143 133q17 23 28 20q14 -4 -7 -34q-149 -233 -272 -233q-90 0 -66 114
q20 96 158 408q-117 -168 -297 -342q-186 -180 -297 -180zM168 88q83 0 223 131q301 281 414 645q-10 41 -49 72t-76 31q-57 0 -121 -52q-143 -118 -295 -358q-153 -246 -153 -399q0 -70 57 -70z" />
    <glyph glyph-name="adieresis" unicode="&#xe4;" horiz-adv-x="987" 
d="M631 1184q-31 0 -48.5 18.5t-17.5 48.5q0 41 28 72t56 31q31 0 49.5 -21.5t18.5 -58.5q0 -35 -27.5 -62.5t-58.5 -27.5zM958 1184q-31 0 -48 18.5t-17 48.5q0 41 28 72t56 31q31 0 49 -21.5t18 -58.5q0 -35 -27.5 -62.5t-58.5 -27.5zM76 -20q-45 0 -74 32.5t-29 91.5
q0 113 90 279q88 163 213 303q125 143 254 240q129 100 209 100q30 0 69.5 -21.5t63.5 -48.5q56 40 101 91q5 5 11.5 4.5t9 -6t-0.5 -17.5q-254 -632 -317 -833q-34 -100 0 -103l10 2q54 9 143 133q17 23 28 20q14 -4 -7 -34q-149 -233 -272 -233q-90 0 -66 114
q20 96 158 408q-117 -168 -297 -342q-186 -180 -297 -180zM168 88q83 0 223 131q301 281 414 645q-10 41 -49 72t-76 31q-57 0 -121 -52q-143 -118 -295 -358q-153 -246 -153 -399q0 -70 57 -70z" />
    <glyph glyph-name="aring" unicode="&#xe5;" horiz-adv-x="987" 
d="M764 1085q-87 0 -131 49.5t-25 127.5q15 70 88 122q74 56 152 56q82 0 125 -49.5t26 -124.5q-15 -70 -88 -125q-71 -56 -147 -56zM764 1110q63 0 118.5 48.5t67.5 111.5q14 66 -13.5 105.5t-88.5 39.5t-117.5 -48t-73.5 -112q-14 -67 14 -106t93 -39zM76 -20
q-45 0 -74 32.5t-29 91.5q0 113 90 279q88 163 213 303q125 143 254 240q129 100 209 100q30 0 69.5 -21.5t63.5 -48.5q56 40 101 91q5 5 11.5 4.5t9 -6t-0.5 -17.5q-254 -632 -317 -833q-34 -100 0 -103l10 2q54 9 143 133q17 23 28 20q14 -4 -7 -34q-149 -233 -272 -233
q-90 0 -66 114q20 96 158 408q-117 -168 -297 -342q-186 -180 -297 -180zM168 88q83 0 223 131q301 281 414 645q-10 41 -49 72t-76 31q-57 0 -121 -52q-143 -118 -295 -358q-153 -246 -153 -399q0 -70 57 -70z" />
    <glyph glyph-name="ae" unicode="&#xe6;" horiz-adv-x="1259" 
d="M1180 1020q70 0 106.5 -34t36.5 -91q0 -42 -39 -100t-102 -109q-183 -142 -391 -145l-37 -111q-27 -111 -27 -197q0 -180 123 -180q127 0 246 162q21 26 26 21q4 -4 4 -11q0 -12 -8 -20q-173 -232 -336 -232q-88 0 -141 72t-53 191t39 235q-55 -80 -215 -246
q-105 -110 -205.5 -177.5t-157.5 -67.5q-92 0 -92 96q0 90 74 235q77 144 162 264q312 429 512 429q54 0 103.5 -33t74.5 -92q163 141 297 141zM803 565q128 9 274 137q146 131 146 238q0 55 -58 55q-94 0 -196 -123q-101 -119 -166 -307zM328 186q129 110 258 291
q134 183 190 348q-8 31 -43 54.5t-78 23.5q-78 0 -171.5 -62.5t-182.5 -168.5q-221 -268 -233 -467q-4 -47 16 -78t55 -31q79 0 189 90z" />
    <glyph glyph-name="ccedilla" unicode="&#xe7;" horiz-adv-x="745" 
d="M231 -20q-90 0 -141 64t-51 175q0 148 65 299q63 146 156 266q81 104 215 181q98 55 191 55q64 0 105.5 -33t41.5 -74q0 -31 -19.5 -52t-43.5 -21q-39 0 -74 59q-41 66 -105 66q-45 0 -88 -27q-123 -76 -217 -291q-96 -221 -96 -387q0 -201 129 -201q121 0 240 162
q22 31 32 21q4 -4 4 -11q0 -12 -8 -20q-173 -231 -336 -231zM59 -408q-67 0 -102 27q-27 21 -10 45t47 6q56 -41 112 -41q21 0 35.5 11.5t14.5 29.5q0 25 -47 105q-19 29 -19 57q0 39 53 82q5 4 15.5 12t13.5 11q7 4 28.5 19.5t24.5 16.5h25q-56 -42 -72 -61.5t-16 -44.5
q0 -13 37 -86q20 -39 20 -70q0 -51 -67 -94q-45 -25 -93 -25z" />
    <glyph glyph-name="egrave" unicode="&#xe8;" horiz-adv-x="716" 
d="M768 1212q-7 -1 -13 7t-12 28l-59 154q-19 47 -17 65t27 41q57 48 60 -8l20 -246q0 -38 -6 -41zM238 -20q-88 0 -139.5 69t-51.5 187q0 169 80 352q83 186 213 307q131 125 266 125q152 0 152 -107q0 -115 -150 -229q-156 -120 -366 -123q-2 -10 -19 -67l-18 -68
q-25 -122 -25 -193q0 -180 129 -180q127 0 246 162q21 27 27 21q4 -4 4 -11t-8 -20q-150 -225 -340 -225zM254 586q116 12 252 127q135 114 135 221q0 55 -57 55q-80 0 -172 -115q-94 -121 -158 -288z" />
    <glyph glyph-name="eacute" unicode="&#xe9;" horiz-adv-x="716" 
d="M844 1456l-223 -280q-30 -40 -33 -17q0 12 10 39l119 277q21 49 110 49q82 0 17 -68zM238 -20q-88 0 -139.5 69t-51.5 187q0 169 80 352q83 186 213 307q131 125 266 125q152 0 152 -107q0 -115 -150 -229q-156 -120 -366 -123q-2 -10 -19 -67l-18 -68q-25 -122 -25 -193
q0 -180 129 -180q127 0 246 162q21 27 27 21q4 -4 4 -11t-8 -20q-150 -225 -340 -225zM254 586q116 12 252 127q135 114 135 221q0 55 -57 55q-80 0 -172 -115q-94 -121 -158 -288z" />
    <glyph glyph-name="ecircumflex" unicode="&#xea;" horiz-adv-x="716" 
d="M465 1186q-3 8 39 47q163 154 198 194q27 30 56 30t37 -30q35 -139 73 -194q24 -35 9 -47q-17 -13 -43 20q-3 3 -33 42.5t-52 63t-30 19.5q-29 0 -197 -125q-51 -36 -57 -20zM238 -20q-88 0 -139.5 69t-51.5 187q0 169 80 352q83 186 213 307q131 125 266 125
q152 0 152 -107q0 -115 -150 -229q-156 -120 -366 -123q-2 -10 -19 -67l-18 -68q-25 -122 -25 -193q0 -180 129 -180q127 0 246 162q21 27 27 21q4 -4 4 -11t-8 -20q-150 -225 -340 -225zM254 586q116 12 252 127q135 114 135 221q0 55 -57 55q-80 0 -172 -115
q-94 -121 -158 -288z" />
    <glyph glyph-name="edieresis" unicode="&#xeb;" horiz-adv-x="716" 
d="M498 1229q-31 0 -48.5 18.5t-17.5 48.5q0 41 28 72t56 31q31 0 49.5 -21.5t18.5 -58.5q0 -35 -27.5 -62.5t-58.5 -27.5zM825 1229q-31 0 -48 18.5t-17 48.5q0 41 28 72t56 31q31 0 49 -21.5t18 -58.5q0 -35 -27.5 -62.5t-58.5 -27.5zM238 -20q-88 0 -139.5 69t-51.5 187
q0 169 80 352q83 186 213 307q131 125 266 125q152 0 152 -107q0 -115 -150 -229q-156 -120 -366 -123q-2 -10 -19 -67l-18 -68q-25 -122 -25 -193q0 -180 129 -180q127 0 246 162q21 27 27 21q4 -4 4 -11t-8 -20q-150 -225 -340 -225zM254 586q116 12 252 127
q135 114 135 221q0 55 -57 55q-80 0 -172 -115q-94 -121 -158 -288z" />
    <glyph glyph-name="igrave" unicode="&#xec;" horiz-adv-x="548" 
d="M616 1186q-7 -1 -12.5 6.5t-11.5 28.5l-60 153q-18 48 -16 65.5t27 41.5q56 47 59 -8l21 -246q0 -37 -7 -41zM129 -23q-70 0 -70 70q0 71 47 189l236 579q41 96 -10 96q-49 0 -154 -135q-19 -25 -29 -18t9 33q89 125 148.5 179t117.5 54q72 0 72 -82q0 -50 -41 -158
q-8 -22 -27 -67t-25 -60l-77 -198q-55 -143 -99 -266q-16 -53 -16 -78q0 -23 20 -23q28 0 70.5 36.5t79.5 96.5q19 29 29 19q7 -5 -9 -33q-141 -234 -272 -234z" />
    <glyph glyph-name="iacute" unicode="&#xed;" horiz-adv-x="548" 
d="M692 1430l-223 -281q-30 -40 -33 -16q0 11 10 38l119 277q21 49 111 49q80 0 16 -67zM129 -23q-70 0 -70 70q0 71 47 189l236 579q41 96 -10 96q-49 0 -154 -135q-19 -25 -29 -18t9 33q89 125 148.5 179t117.5 54q72 0 72 -82q0 -50 -41 -158q-8 -22 -27 -67t-25 -60
l-77 -198q-55 -143 -99 -266q-16 -53 -16 -78q0 -23 20 -23q28 0 70.5 36.5t79.5 96.5q19 29 29 19q7 -5 -9 -33q-141 -234 -272 -234z" />
    <glyph glyph-name="icircumflex" unicode="&#xee;" horiz-adv-x="548" 
d="M313 1159q-3 8 39 47q164 154 199 195q27 30 55.5 30t36.5 -30q34 -138 74 -195q24 -34 8 -47t-43 21q-3 3 -33 42.5t-52 63t-30 19.5q-28 0 -196 -125q-52 -37 -58 -21zM129 -23q-70 0 -70 70q0 71 47 189l236 579q41 96 -10 96q-49 0 -154 -135q-19 -25 -29 -18t9 33
q89 125 148.5 179t117.5 54q72 0 72 -82q0 -50 -41 -158q-8 -22 -27 -67t-25 -60l-77 -198q-55 -143 -99 -266q-16 -53 -16 -78q0 -23 20 -23q28 0 70.5 36.5t79.5 96.5q19 29 29 19q7 -5 -9 -33q-141 -234 -272 -234z" />
    <glyph glyph-name="idieresis" unicode="&#xef;" horiz-adv-x="548" 
d="M346 1202q-31 0 -48 19t-17 49q0 40 28 71t56 31q31 0 49 -21.5t18 -58.5q0 -35 -27.5 -62.5t-58.5 -27.5zM674 1202q-31 0 -48.5 19t-17.5 49q0 40 28 71t56 31q31 0 49.5 -21.5t18.5 -58.5q0 -35 -27.5 -62.5t-58.5 -27.5zM129 -23q-70 0 -70 70q0 71 47 189l236 579
q41 96 -10 96q-49 0 -154 -135q-19 -25 -29 -18t9 33q89 125 148.5 179t117.5 54q72 0 72 -82q0 -50 -41 -158q-8 -22 -27 -67t-25 -60l-77 -198q-55 -143 -99 -266q-16 -53 -16 -78q0 -23 20 -23q28 0 70.5 36.5t79.5 96.5q19 29 29 19q7 -5 -9 -33q-141 -234 -272 -234z
" />
    <glyph glyph-name="eth" unicode="&#xf0;" horiz-adv-x="927" 
d="M844 1372l-105 -61q236 -210 88 -750q-19 -66 -20 -69q-73 -223 -225 -369q-149 -143 -297 -143q-157 0 -209 149q-51 147 26 389q70 215 222 361q154 145 294 145q98 0 154 -115q6 252 -88 371l-137 -80q-25 -15 -33 -4q-7 11 21 27l133 77q-62 64 -156 99q-24 9 -16 20
q6 10 32 4q116 -35 189 -94l114 66q27 15 33 4q8 -12 -20 -27zM676 516q60 172 51 328q-9 155 -109 155q-89 0 -204 -145q-113 -143 -178 -344q-65 -176 -56 -340q9 -166 105 -166q94 0 207 143q111 140 180 353z" />
    <glyph glyph-name="ntilde" unicode="&#xf1;" horiz-adv-x="1116" 
d="M1104 1389q10 -10 -21 -52q-88 -125 -155 -125q-22 0 -101 11l-36 6q-94 20 -134 20h-5q-18 0 -30 -7t-40 -38q-42 -45 -50 -35q-9 12 27 54q93 106 141 106q16 0 80 -9.5t121.5 -18.5t59.5 -9q47 -6 100 60q34 46 43 37zM967 696l-166 -481q-40 -118 -8 -121h12
q48 6 143 133q17 23 28 20q14 -4 -7 -34q-89 -123 -151.5 -178t-121.5 -55q-40 0 -56.5 25t-8.5 69q9 52 49 159l174 488q80 225 -10 225q-117 0 -307 -266q-186 -262 -357 -631q0 -3 -4 -12t-4 -12q-15 -45 -94 -45q-25 0 -25 26q0 7 31 98l240 691q35 96 -13 96t-153 -135
q-18 -23 -28 -19q-11 7 7 33q90 125 149.5 179.5t116.5 54.5q72 0 72 -82q0 -1 -4 -37q-7 -46 -168 -490q111 166 191 274t157 193t140.5 123.5t121.5 38.5q59 0 86 -23.5t23 -76.5q-1 -52 -12.5 -96.5t-42.5 -131.5z" />
    <glyph glyph-name="ograve" unicode="&#xf2;" horiz-adv-x="899" 
d="M797 1188q-7 -1 -13 7t-12 28l-59 153q-19 47 -17 65.5t27 41.5q56 47 59 -8l21 -246q0 -38 -6 -41zM281 -20q-108 0 -174 73.5t-66 192.5q0 170 82 350q83 183 217 305q135 123 274 123q114 0 181 -73t67 -201q0 -159 -84 -344q-83 -180 -219 -304q-137 -122 -278 -122z
M725 811q0 188 -111 188q-99 0 -208 -145q-103 -141 -168 -330q-62 -189 -62 -321q0 -199 105 -199q101 0 211 146q102 137 170 333q63 183 63 328z" />
    <glyph glyph-name="oacute" unicode="&#xf3;" horiz-adv-x="899" 
d="M872 1432l-223 -281q-30 -40 -33 -16q0 10 11 39l118 276q21 49 111 49q80 0 16 -67zM281 -20q-108 0 -174 73.5t-66 192.5q0 170 82 350q83 183 217 305q135 123 274 123q114 0 181 -73t67 -201q0 -159 -84 -344q-83 -180 -219 -304q-137 -122 -278 -122zM725 811
q0 188 -111 188q-99 0 -208 -145q-103 -141 -168 -330q-62 -189 -62 -321q0 -199 105 -199q101 0 211 146q102 137 170 333q63 183 63 328z" />
    <glyph glyph-name="ocircumflex" unicode="&#xf4;" horiz-adv-x="899" 
d="M494 1161q-3 9 38 47q164 154 199 195q27 30 55.5 30t36.5 -30q34 -138 74 -195q24 -34 8 -47t-43 21q-3 4 -33 43t-51.5 62.5t-29.5 19.5q-29 0 -197 -125q-51 -36 -57 -21zM281 -20q-108 0 -174 73.5t-66 192.5q0 170 82 350q83 183 217 305q135 123 274 123
q114 0 181 -73t67 -201q0 -159 -84 -344q-83 -180 -219 -304q-137 -122 -278 -122zM725 811q0 188 -111 188q-99 0 -208 -145q-103 -141 -168 -330q-62 -189 -62 -321q0 -199 105 -199q101 0 211 146q102 137 170 333q63 183 63 328z" />
    <glyph glyph-name="otilde" unicode="&#xf5;" horiz-adv-x="899" 
d="M520 1190q-8 11 27 53q94 107 141 107q16 0 79.5 -9t121 -18.5t59.5 -9.5q48 -6 101 59q34 46 43 37q10 -10 -21 -51q-88 -125 -156 -125q-28 0 -100 10l-37 6q-99 21 -133 21h-5q-13 0 -19.5 -1.5t-19.5 -11.5t-32 -32q-42 -45 -49 -35zM281 -20q-108 0 -174 73.5
t-66 192.5q0 170 82 350q83 183 217 305q135 123 274 123q114 0 181 -73t67 -201q0 -159 -84 -344q-83 -180 -219 -304q-137 -122 -278 -122zM725 811q0 188 -111 188q-99 0 -208 -145q-103 -141 -168 -330q-62 -189 -62 -321q0 -199 105 -199q101 0 211 146
q102 137 170 333q63 183 63 328z" />
    <glyph glyph-name="odieresis" unicode="&#xf6;" horiz-adv-x="899" 
d="M526 1204q-31 0 -48 19t-17 49q0 40 28 71t56 31q31 0 49 -21.5t18 -58.5q0 -35 -27.5 -62.5t-58.5 -27.5zM854 1204q-31 0 -48.5 19t-17.5 49q0 40 28 71t56 31q31 0 49.5 -21.5t18.5 -58.5q0 -35 -27.5 -62.5t-58.5 -27.5zM281 -20q-108 0 -174 73.5t-66 192.5
q0 170 82 350q83 183 217 305q135 123 274 123q114 0 181 -73t67 -201q0 -159 -84 -344q-83 -180 -219 -304q-137 -122 -278 -122zM725 811q0 188 -111 188q-99 0 -208 -145q-103 -141 -168 -330q-62 -189 -62 -321q0 -199 105 -199q101 0 211 146q102 137 170 333
q63 183 63 328z" />
    <glyph glyph-name="divide" unicode="&#xf7;" horiz-adv-x="1024" 
d="M365 1004q-60 0 -60 61q0 36 25 64t51 28q61 0 61 -72q0 -30 -25 -55.5t-52 -25.5zM944 662h-809q-20 0 -28 4.5t-3 13.5q6 16 33 16h809q21 0 28 -3t3 -13q-6 -18 -33 -18zM365 221q-60 0 -60 62q0 36 25 64t51 28q61 0 61 -72q0 -30 -25 -56t-52 -26z" />
    <glyph glyph-name="oslash" unicode="&#xf8;" horiz-adv-x="899" 
d="M866 1036q12 0 -2 -24l-57 -74q57 -69 57 -188q0 -159 -84 -344q-83 -180 -219 -304q-137 -122 -278 -122q-101 0 -166 65l-86 -113q-9 -12 -27 -12q-12 0 2 25l92 121q-55 70 -55 180q0 170 82 350q83 183 217 305q135 123 274 123q109 0 175 -66l49 66q9 12 26 12z
M178 203v-35l545 704q-15 127 -107 127q-99 0 -208 -145q-103 -141 -168 -330q-62 -189 -62 -321zM727 811v23l-545 -705q21 -125 101 -125q101 0 211 146q102 137 170 333q63 183 63 328z" />
    <glyph glyph-name="ugrave" unicode="&#xf9;" horiz-adv-x="1112" 
d="M870 1167q-7 -1 -12.5 6.5t-11.5 28.5l-60 154q-18 48 -16 65t27 41q56 47 59 -8l21 -246q0 -38 -7 -41zM197 -20q-114 0 -111 100q5 54 16.5 101t40.5 126l172 492q44 121 7 121h-11q-47 -6 -143 -134q-18 -24 -29.5 -18.5t8.5 33.5q89 123 151.5 178t121.5 55
q40 0 56.5 -25t8.5 -69q-9 -54 -49 -160l-180 -497q-83 -226 10 -226q84 0 234 185q147 180 272 399q124 212 166 338q15 45 94 45q25 0 25 -27q0 -10 -31 -98l-244 -711q-35 -96 13 -96t153 135q23 33 33 27q8 -8 -12 -41q-89 -124 -149 -178.5t-118 -54.5q-71 0 -71 81
q0 1 4 37q9 67 172 510q-223 -333 -360.5 -480.5t-249.5 -147.5z" />
    <glyph glyph-name="uacute" unicode="&#xfa;" horiz-adv-x="1112" 
d="M946 1411l-223 -281q-30 -40 -33 -16q0 12 10 39l119 277q21 49 111 49q81 0 16 -68zM197 -20q-114 0 -111 100q5 54 16.5 101t40.5 126l172 492q44 121 7 121h-11q-47 -6 -143 -134q-18 -24 -29.5 -18.5t8.5 33.5q89 123 151.5 178t121.5 55q40 0 56.5 -25t8.5 -69
q-9 -54 -49 -160l-180 -497q-83 -226 10 -226q84 0 234 185q147 180 272 399q124 212 166 338q15 45 94 45q25 0 25 -27q0 -10 -31 -98l-244 -711q-35 -96 13 -96t153 135q23 33 33 27q8 -8 -12 -41q-89 -124 -149 -178.5t-118 -54.5q-71 0 -71 81q0 1 4 37q9 67 172 510
q-223 -333 -360.5 -480.5t-249.5 -147.5z" />
    <glyph glyph-name="ucircumflex" unicode="&#xfb;" horiz-adv-x="1112" 
d="M567 1141q-3 8 39 47q168 159 199 194q27 30 55.5 30t36.5 -30q34 -136 74 -194q24 -34 8 -47q-17 -13 -43 20q-3 3 -33 42.5t-52 63t-30 19.5q-28 0 -196 -125q-51 -37 -58 -20zM197 -20q-114 0 -111 100q5 54 16.5 101t40.5 126l172 492q44 121 7 121h-11
q-47 -6 -143 -134q-18 -24 -29.5 -18.5t8.5 33.5q89 123 151.5 178t121.5 55q40 0 56.5 -25t8.5 -69q-9 -54 -49 -160l-180 -497q-83 -226 10 -226q84 0 234 185q147 180 272 399q124 212 166 338q15 45 94 45q25 0 25 -27q0 -10 -31 -98l-244 -711q-35 -96 13 -96t153 135
q23 33 33 27q8 -8 -12 -41q-89 -124 -149 -178.5t-118 -54.5q-71 0 -71 81q0 1 4 37q9 67 172 510q-223 -333 -360.5 -480.5t-249.5 -147.5z" />
    <glyph glyph-name="udieresis" unicode="&#xfc;" horiz-adv-x="1112" 
d="M600 1184q-31 0 -48 18.5t-17 48.5q0 41 27.5 72t55.5 31q31 0 49.5 -21.5t18.5 -58.5q0 -35 -27.5 -62.5t-58.5 -27.5zM928 1184q-31 0 -48.5 18.5t-17.5 48.5q0 41 28 72t56 31q31 0 49.5 -21.5t18.5 -58.5q0 -35 -27.5 -62.5t-58.5 -27.5zM197 -20q-114 0 -111 100
q5 54 16.5 101t40.5 126l172 492q44 121 7 121h-11q-47 -6 -143 -134q-18 -24 -29.5 -18.5t8.5 33.5q89 123 151.5 178t121.5 55q40 0 56.5 -25t8.5 -69q-9 -54 -49 -160l-180 -497q-83 -226 10 -226q84 0 234 185q147 180 272 399q124 212 166 338q15 45 94 45q25 0 25 -27
q0 -10 -31 -98l-244 -711q-35 -96 13 -96t153 135q23 33 33 27q8 -8 -12 -41q-89 -124 -149 -178.5t-118 -54.5q-71 0 -71 81q0 1 4 37q9 67 172 510q-223 -333 -360.5 -480.5t-249.5 -147.5z" />
    <glyph glyph-name="yacute" unicode="&#xfd;" horiz-adv-x="942" 
d="M799 1411l-224 -281q-29 -39 -32 -16q0 12 10 39l119 277q21 49 110 49q82 0 17 -68zM-117 -532q-44 0 -70 20t-26 55q0 81 107 78q255 -9 366 123q161 193 164 674q3 212 -39 358q-41 141 -123 135q-90 -6 -149 -145q-9 -24 -25 -21q-11 3 4 46q39 104 96 168.5
t113 64.5q123 0 184 -156q62 -157 62 -403q0 -252 -25 -402q275 384 299 601q16 158 -4 247q-8 36 -8 56q0 26 22 42.5t54 14.5q74 -3 65 -123q-9 -99 -76 -274q-71 -183 -167 -338q-224 -365 -443 -594q-217 -227 -381 -227z" />
    <glyph glyph-name="thorn" unicode="&#xfe;" horiz-adv-x="925" 
d="M879 1016q64 0 98.5 -45t34.5 -119q0 -122 -72 -289q-67 -155 -162 -280q-113 -146 -242 -228t-237 -82q-99 0 -143 62l-97 -338q-40 -96 -30 -142.5t86 -52.5q13 0 19.5 -5t4.5 -11q-3 -9 -30 -12q-31 -7 -93 -4q-65 3 -86 0q-11 -1 -82 -13t-104 -12q-27 0 -27 10
q0 13 27 19q77 20 114 66t74 157l422 1327q28 28 62 80l53 174q8 25 10 37.5t-0.5 22.5t-17.5 11t-37.5 -1t-63.5 -9q-30 -6 -30 2q0 14 24 23q147 50 264 115q29 16 35 16q9 -2 -2 -43l-307 -946q126 228 272 368q148 142 263 142zM379 33q118 0 239 139q123 142 193 324
q72 191 72 333q0 103 -68 103q-130 0 -301 -219q-172 -220 -254 -463q-25 -104 6 -160.5t113 -56.5z" />
    <glyph glyph-name="ydieresis" unicode="&#xff;" horiz-adv-x="942" 
d="M453 1184q-31 0 -48.5 18.5t-17.5 48.5q0 41 28 72t56 31q31 0 49.5 -21.5t18.5 -58.5q0 -35 -27.5 -62.5t-58.5 -27.5zM780 1184q-31 0 -48 18.5t-17 48.5q0 41 28 72t56 31q31 0 49 -21.5t18 -58.5q0 -35 -27.5 -62.5t-58.5 -27.5zM-117 -532q-44 0 -70 20t-26 55
q0 81 107 78q255 -9 366 123q161 193 164 674q3 212 -39 358q-41 141 -123 135q-90 -6 -149 -145q-9 -24 -25 -21q-11 3 4 46q39 104 96 168.5t113 64.5q123 0 184 -156q62 -157 62 -403q0 -252 -25 -402q275 384 299 601q16 158 -4 247q-8 36 -8 56q0 26 22 42.5t54 14.5
q74 -3 65 -123q-9 -99 -76 -274q-71 -183 -167 -338q-224 -365 -443 -594q-217 -227 -381 -227z" />
    <glyph glyph-name="Amacron" unicode="&#x100;" horiz-adv-x="1316" 
d="M1135 1638h559q24 0 35.5 -6t7.5 -16q-10 -23 -45 -23h-557q-25 0 -36.5 6t-6.5 17q9 22 43 22zM1370 1413q25 0 16 -35l-393 -1130q-19 -60 -19.5 -101t17 -68.5t38 -41t42.5 -17.5q32 -6 34 -12q1 -3 -1 -6q-3 -8 -37 -8q-4 0 -82 4q-39 2 -102 2q-7 0 -97 -4
q-67 -6 -94 -6q-38 0 -36 13q0 1 1 3q4 7 37 10q52 4 82.5 44.5t63.5 142.5l141 403l-377 -14l-356 -379q-126 -135 -117 -170q7 -24 51 -27q25 0 35 -11q8 -8 -12 -13q-9 -2 -25 -2q-18 0 -74.5 5t-72.5 5q-15 0 -69 -5t-70 -5q-38 0 -35 16q4 7 37 10q114 9 313 220
l1010 1046q9 9 34.5 23.5t38.5 25.5q19 17 33 34t20 26.5t12 15.5t13 6zM639 627l354 14l203 576z" />
    <glyph glyph-name="amacron" unicode="&#x101;" horiz-adv-x="987" 
d="M1063 1184h-557q-24 0 -35.5 6t-7.5 16q10 23 43 23h559q23 0 35 -6.5t8 -16.5q-9 -22 -45 -22zM76 -20q-45 0 -74 32.5t-29 91.5q0 113 90 279q88 163 213 303q125 143 254 240q129 100 209 100q30 0 69.5 -21.5t63.5 -48.5q56 40 101 91q5 5 11.5 4.5t9 -6t-0.5 -17.5
q-254 -632 -317 -833q-34 -100 0 -103l10 2q54 9 143 133q17 23 28 20q14 -4 -7 -34q-149 -233 -272 -233q-90 0 -66 114q20 96 158 408q-117 -168 -297 -342q-186 -180 -297 -180zM168 88q83 0 223 131q301 281 414 645q-10 41 -49 72t-76 31q-57 0 -121 -52
q-143 -118 -295 -358q-153 -246 -153 -399q0 -70 57 -70z" />
    <glyph glyph-name="Abreve" unicode="&#x102;" horiz-adv-x="1316" 
d="M1657 1675q-37 -79 -106 -127.5t-156 -48.5q-89 0 -128 50.5t-26 129.5q6 41 16 41q9 0 9 -39q0 -98 149 -98q152 0 217 103q23 35 29 35q2 0 4 -7q5 -14 -8 -39zM1370 1413q25 0 16 -35l-393 -1130q-19 -60 -19.5 -101t17 -68.5t38 -41t42.5 -17.5q32 -6 34 -12
q1 -3 -1 -6q-3 -8 -37 -8q-4 0 -82 4q-39 2 -102 2q-7 0 -97 -4q-67 -6 -94 -6q-38 0 -36 13q0 1 1 3q4 7 37 10q52 4 82.5 44.5t63.5 142.5l141 403l-377 -14l-356 -379q-126 -135 -117 -170q7 -24 51 -27q25 0 35 -11q8 -8 -12 -13q-9 -2 -25 -2q-18 0 -74.5 5t-72.5 5
q-15 0 -69 -5t-70 -5q-38 0 -35 16q4 7 37 10q114 9 313 220l1010 1046q9 9 34.5 23.5t38.5 25.5q19 17 33 34t20 26.5t12 15.5t13 6zM639 627l354 14l203 576z" />
    <glyph glyph-name="abreve" unicode="&#x103;" horiz-adv-x="987" 
d="M846 1151q-75 0 -110.5 51.5t-22.5 128.5q6 41 16 41q11 0 8 -39q3 -104 127 -104q128 0 199 108q23 35 29 36q2 0 4 -7q4 -13 -9 -39q-37 -76 -102.5 -126t-138.5 -50zM76 -20q-45 0 -74 32.5t-29 91.5q0 113 90 279q88 163 213 303q125 143 254 240q129 100 209 100
q30 0 69.5 -21.5t63.5 -48.5q56 40 101 91q5 5 11.5 4.5t9 -6t-0.5 -17.5q-254 -632 -317 -833q-34 -100 0 -103l10 2q54 9 143 133q17 23 28 20q14 -4 -7 -34q-149 -233 -272 -233q-90 0 -66 114q20 96 158 408q-117 -168 -297 -342q-186 -180 -297 -180zM168 88
q83 0 223 131q301 281 414 645q-10 41 -49 72t-76 31q-57 0 -121 -52q-143 -118 -295 -358q-153 -246 -153 -399q0 -70 57 -70z" />
    <glyph glyph-name="Aogonek" unicode="&#x104;" horiz-adv-x="1316" 
d="M1386 1378l-393 -1130q-19 -60 -19.5 -101t17 -68.5t38 -41t42.5 -17.5q32 -6 34 -12q1 -3 -1 -6q-3 -8 -37 -8q-4 0 -82 4q-39 2 -102 2q-87 -57 -113 -78q-48 -36 -83.5 -84t-35.5 -88q0 -37 25 -58.5t59 -21.5q45 0 88 29q19 16 19 0q0 -10 -19 -35q-58 -67 -141 -67
q-46 0 -77.5 30t-31.5 84q0 131 273 287l-74 -4q-74 -4 -80 -4q-38 0 -36 13q0 1 1 3q4 7 37 10q52 4 82.5 44.5t63.5 142.5l141 403l-377 -14l-356 -379q-126 -135 -117 -170q7 -24 51 -27q25 0 35 -11q8 -8 -12 -13q-9 -2 -25 -2q-18 0 -74.5 5t-72.5 5q-15 0 -69 -5
t-70 -5q-38 0 -35 16q4 7 37 10q114 9 313 220l1010 1046q9 9 34.5 23.5t38.5 25.5q19 17 33 34t20 26.5t12 15.5t13 6q25 0 16 -35zM1196 1217l-557 -590l354 14z" />
    <glyph glyph-name="aogonek" unicode="&#x105;" horiz-adv-x="987" 
d="M993 1028q-254 -632 -317 -833q-34 -100 0 -103l10 2q54 9 143 133q17 23 28 20q14 -4 -7 -34q-141 -218 -258 -233q-178 -120 -178 -213q0 -37 25 -58.5t59 -21.5q46 0 88 28q18 15 18 0q0 -10 -18 -34q-59 -68 -142 -68q-45 0 -76.5 30.5t-31.5 84.5q0 110 217 254
q-62 11 -41 112q20 96 158 408q-117 -168 -297 -342q-186 -180 -297 -180q-45 0 -74 32.5t-29 91.5q0 113 90 279q88 163 213 303q125 143 254 240q129 100 209 100q30 0 69.5 -21.5t63.5 -48.5q56 40 101 91q5 5 11.5 4.5t9 -6t-0.5 -17.5zM391 219q301 281 414 645
q-10 41 -49 72t-76 31q-57 0 -121 -52q-143 -118 -295 -358q-153 -246 -153 -399q0 -70 57 -70q83 0 223 131z" />
    <glyph glyph-name="Cacute" unicode="&#x106;" horiz-adv-x="1212" 
d="M1280 1657l-305 -158q-37 -18 -43 -8q-7 10 20 31l201 153q3 1 17.5 13.5t17.5 13.5q40 10 63 10q46 0 55 -18t-26 -37zM600 -20q-213 0 -335 133t-122 360q0 162 63 324.5t175 294.5q114 134 282.5 214t358.5 80q153 0 289 -77q24 -15 24 -37q0 -1 -0.5 -4l-1.5 -9
l-2 -12q-17 -96 -53 -196q-2 -8 -5 -13.5t-6 -7.5t-5 0q-8 4 -5 21q21 133 -24 204q-65 105 -240 105q-188 0 -360 -146q-166 -141 -262 -356q-92 -210 -92 -412q0 -203 91.5 -321.5t254.5 -118.5q152 0 303 127q69 57 129 168q6 12 11.5 20.5t10 11.5t6.5 1q5 0 5 -6
q0 -4 -11 -37q-49 -121 -59 -156q-9 -35 -47 -53q-108 -56 -189 -80q-80 -22 -184 -22z" />
    <glyph glyph-name="cacute" unicode="&#x107;" horiz-adv-x="745" 
d="M858 1411l-223 -281q-30 -40 -33 -16q0 12 10 39l119 277q21 49 111 49q81 0 16 -68zM231 -20q-90 0 -141 64t-51 175q0 148 65 299q63 146 156 266q81 104 215 181q98 55 191 55q64 0 105.5 -33t41.5 -74q0 -31 -19.5 -52t-43.5 -21q-39 0 -74 59q-41 66 -105 66
q-45 0 -88 -27q-123 -76 -217 -291q-96 -221 -96 -387q0 -201 129 -201q121 0 240 162q22 31 32 21q4 -4 4 -11q0 -12 -8 -20q-173 -231 -336 -231z" />
    <glyph glyph-name="Cdotaccent" unicode="&#x10a;" horiz-adv-x="1212" 
d="M1044 1548q-39 0 -60.5 26.5t-14.5 72.5t36.5 72t69.5 26q38 0 59.5 -27.5t14.5 -70.5q-7 -46 -37 -72.5t-68 -26.5zM600 -20q-213 0 -335 133t-122 360q0 162 63 324.5t175 294.5q114 134 282.5 214t358.5 80q153 0 289 -77q24 -15 24 -37q0 -1 -0.5 -4l-1.5 -9l-2 -12
q-17 -96 -53 -196q-2 -8 -5 -13.5t-6 -7.5t-5 0q-8 4 -5 21q21 133 -24 204q-65 105 -240 105q-188 0 -360 -146q-166 -141 -262 -356q-92 -210 -92 -412q0 -203 91.5 -321.5t254.5 -118.5q152 0 303 127q69 57 129 168q6 12 11.5 20.5t10 11.5t6.5 1q5 0 5 -6q0 -4 -11 -37
q-49 -121 -59 -156q-9 -35 -47 -53q-108 -56 -189 -80q-80 -22 -184 -22z" />
    <glyph glyph-name="cdotaccent" unicode="&#x10b;" horiz-adv-x="745" 
d="M676 1180q-40 0 -61.5 26t-14.5 72t37 72t70 26q38 0 59 -27.5t14 -70.5q-7 -46 -36.5 -72t-67.5 -26zM231 -20q-90 0 -141 64t-51 175q0 148 65 299q63 146 156 266q81 104 215 181q98 55 191 55q64 0 105.5 -33t41.5 -74q0 -31 -19.5 -52t-43.5 -21q-39 0 -74 59
q-41 66 -105 66q-45 0 -88 -27q-123 -76 -217 -291q-96 -221 -96 -387q0 -201 129 -201q121 0 240 162q22 31 32 21q4 -4 4 -11q0 -12 -8 -20q-173 -231 -336 -231z" />
    <glyph glyph-name="Ccaron" unicode="&#x10c;" horiz-adv-x="1212" 
d="M1071 1493q-29 -29 -55 -27.5t-37 31.5q-42 112 -92 182q-22 36 -17 45q9 16 45 -20q6 -6 23 -24t30 -31t30 -28t31 -23t24 -7q11 0 51 21q146 89 160 96q51 26 59 12t-39 -45q-95 -64 -213 -182zM600 -20q-213 0 -335 133t-122 360q0 162 63 324.5t175 294.5
q114 134 282.5 214t358.5 80q153 0 289 -77q24 -15 24 -37q0 -1 -0.5 -4l-1.5 -9l-2 -12q-17 -96 -53 -196q-2 -8 -5 -13.5t-6 -7.5t-5 0q-8 4 -5 21q21 133 -24 204q-65 105 -240 105q-188 0 -360 -146q-166 -141 -262 -356q-92 -210 -92 -412q0 -203 91.5 -321.5
t254.5 -118.5q152 0 303 127q69 57 129 168q6 12 11.5 20.5t10 11.5t6.5 1q5 0 5 -6q0 -4 -11 -37q-49 -121 -59 -156q-9 -35 -47 -53q-108 -56 -189 -80q-80 -22 -184 -22z" />
    <glyph glyph-name="ccaron" unicode="&#x10d;" horiz-adv-x="745" 
d="M678 1133q-26 -30 -55 -28.5t-37 32.5q-26 93 -72 194q-18 41 -12 47q16 16 43 -24q4 -6 18.5 -27.5t24 -34t23 -29t25.5 -24.5t23 -8q15 0 48 20q24 15 84 60l65 47q47 33 57 16q5 -13 -34 -47q-115 -91 -201 -194zM231 -20q-90 0 -141 64t-51 175q0 148 65 299
q63 146 156 266q81 104 215 181q98 55 191 55q64 0 105.5 -33t41.5 -74q0 -31 -19.5 -52t-43.5 -21q-39 0 -74 59q-41 66 -105 66q-45 0 -88 -27q-123 -76 -217 -291q-96 -221 -96 -387q0 -201 129 -201q121 0 240 162q22 31 32 21q4 -4 4 -11q0 -12 -8 -20
q-173 -231 -336 -231z" />
    <glyph glyph-name="Dcaron" unicode="&#x10e;" horiz-adv-x="1337" 
d="M883 1497q-42 112 -92 182q-22 36 -17 45q9 16 45 -20q6 -6 23 -24t30 -31t29.5 -28t30.5 -23t24 -7q12 0 52 21q152 92 159 96q51 26 60 12q6 -16 -39 -45q-95 -64 -213 -182q-29 -29 -55 -27.5t-37 31.5zM842 1393q322 0 435.5 -181t8.5 -505q-86 -256 -246 -433
q-272 -294 -651 -294q-36 0 -141 10t-137 10q-21 0 -84 -5t-80 -5q-27 0 -36 12q-5 6 10 10q11 3 30 4q62 6 99 52.5t75 158.5l301 926l-2 -4q18 55 25.5 90.5t5.5 62.5t-18 40t-46 14q-38 6 -35 18q5 8 37 8q13 0 81 -5t99 -5q38 0 136 10q108 11 133 11zM1141 680
q35 107 48 203.5t-1 183.5t-56.5 150.5t-124.5 101t-198 37.5q-86 0 -184 -10l-379 -1160q-31 -101 10.5 -139.5t151.5 -38.5q315 0 534 287q130 172 199 385z" />
    <glyph glyph-name="dcaron" unicode="&#x10f;" horiz-adv-x="1044" 
d="M135 -20q-59 0 -97 38t-38 119q0 97 66 250q69 160 165 293q98 136 242 242q138 102 270 102q66 0 113 -41l86 295q15 56 0 65q-14 11 -111 -4q-30 -6 -30 2q0 14 24 23q147 50 269 115q29 16 34 16q9 -2 -2 -43l-401 -1257q-34 -100 0 -103l10 2q49 9 144 133
q19 25 28 19q9 -3 -8 -33q-62 -109 -134 -171t-138 -62q-47 0 -62 26.5t-4 87.5q14 68 43 144l92 237q-173 -236 -322 -365.5t-239 -129.5zM1196 1120q-5 0 6 33q0 4 2 6q63 176 80 279q3 23 31 35q47 24 60 19.5t1 -40.5q-41 -139 -143 -283q-7 -10 -15.5 -24.5
t-12.5 -19.5t-9 -5zM182 41q100 0 269 184q132 147 223 307q89 160 104 273q15 59 6 125q-9 65 -69 65q-107 0 -250 -168q-140 -165 -244 -374q-100 -201 -100 -320q0 -92 61 -92z" />
    <glyph glyph-name="Dcroat" unicode="&#x110;" horiz-adv-x="1337" 
d="M842 1393q322 0 435.5 -181t8.5 -505q-86 -256 -246 -433q-272 -294 -651 -294q-36 0 -141 10t-137 10q-21 0 -84 -5t-80 -5q-27 0 -36 12q-5 6 10 10q11 3 30 4q62 6 99 52.5t75 158.5l145 447h-131q-17 0 -23 4t-1 12q6 12 30 12h136l145 451l-2 -4q18 55 25.5 90.5
t5.5 62.5t-18 40t-46 14q-38 6 -35 18q5 8 37 8q13 0 81 -5t99 -5q38 0 136 10q108 11 133 11zM1141 680q35 107 48 203.5t-1 183.5t-56.5 150.5t-124.5 101t-198 37.5q-86 0 -184 -10l-211 -644h147q16 0 20.5 -2.5t2.5 -9.5q-6 -16 -31 -16h-147l-160 -488
q-31 -101 10.5 -139.5t151.5 -38.5q315 0 534 287q130 172 199 385z" />
    <glyph glyph-name="dslash" unicode="&#x111;" horiz-adv-x="1044" 
d="M1049 1208h73q11 0 16.5 -3.5t4.5 -10.5q-3 -14 -23 -14h-80l-315 -985q-34 -100 0 -103l10 2q49 9 144 133q19 25 28 19q9 -3 -8 -33q-62 -109 -134 -171t-138 -62q-47 0 -62 26.5t-4 87.5q14 68 43 144l92 237q-173 -236 -322 -365.5t-239 -129.5q-59 0 -97 38t-38 119
q0 97 66 250q69 160 165 293q98 136 242 242q138 102 270 102q66 0 113 -41l57 197h-249q-11 0 -16.5 3.5t-4.5 10.5q3 14 23 14h256l20 70q15 56 0 65q-14 11 -111 -4q-30 -6 -30 2q0 14 24 23q147 50 269 115q29 16 34 16q9 -2 -2 -43zM778 805q15 59 6 125q-9 65 -69 65
q-107 0 -250 -168q-140 -165 -244 -374q-100 -201 -100 -320q0 -92 61 -92q100 0 269 184q132 147 223 307q89 160 104 273z" />
    <glyph glyph-name="Emacron" unicode="&#x112;" horiz-adv-x="1062" 
d="M1143 1552h-557q-25 0 -36.5 6t-6.5 17q9 22 43 22h559q24 0 35.5 -6t7.5 -16q-10 -23 -45 -23zM-59 -10q-42 0 -40 13q0 1 1 3q4 7 41 10q70 6 109 52t77 159l301 922q25 71 29.5 114t-13 66.5t-61.5 26.5q-26 0 -38 11q-9 8 12 12q11 3 28 3q29 0 90 -6q82 -4 105 -4
q6 0 338 6q61 1 117 2t83.5 1.5t32.5 0.5q24 0 30 -12t-1 -37q-22 -121 -25 -174q-3 -37 -14 -41q-7 -1 -11 7.5t-6 29.5q-7 96 -53.5 135.5t-157.5 50.5q-126 11 -251 2q-29 -1 -41 -14t-29 -63l-172 -533h213q209 0 268 146q14 36 25 36q17 0 2 -45q-6 -19 -30.5 -79
t-29.5 -78q-4 -9 -22 -80l-25 -88q-12 -37 -20 -37q-13 0 -4 45q17 75 -24 111t-148 36h-217l-134 -415q-21 -77 -23 -127t17.5 -80t57 -41.5t100.5 -11.5q56 0 117 6q239 24 360 250q10 19 18.5 27.5t14.5 6.5q16 -3 -6 -45q-20 -41 -58.5 -128t-50.5 -109
q-12 -26 -23 -34.5t-32 -8.5q-6 0 -33 0.5t-82 1.5t-114 2q-313 6 -404 6q-20 0 -106 -4q-61 -6 -88 -6z" />
    <glyph glyph-name="emacron" unicode="&#x113;" horiz-adv-x="716" 
d="M930 1229h-557q-25 0 -36 6t-7 16q10 23 43 23h559q23 0 35 -6.5t8 -16.5q-9 -22 -45 -22zM238 -20q-88 0 -139.5 69t-51.5 187q0 169 80 352q83 186 213 307q131 125 266 125q152 0 152 -107q0 -115 -150 -229q-156 -120 -366 -123q-2 -10 -19 -67l-18 -68
q-25 -122 -25 -193q0 -180 129 -180q127 0 246 162q21 27 27 21q4 -4 4 -11t-8 -20q-150 -225 -340 -225zM254 586q116 12 252 127q135 114 135 221q0 55 -57 55q-80 0 -172 -115q-94 -121 -158 -288z" />
    <glyph glyph-name="Edotaccent" unicode="&#x116;" horiz-adv-x="1062" 
d="M874 1548q-39 0 -60.5 26.5t-14.5 72.5t36.5 72t69.5 26q38 0 59.5 -27.5t14.5 -70.5q-7 -46 -37 -72.5t-68 -26.5zM-59 -10q-42 0 -40 13q0 1 1 3q4 7 41 10q70 6 109 52t77 159l301 922q25 71 29.5 114t-13 66.5t-61.5 26.5q-26 0 -38 11q-9 8 12 12q11 3 28 3
q29 0 90 -6q82 -4 105 -4q6 0 338 6q61 1 117 2t83.5 1.5t32.5 0.5q24 0 30 -12t-1 -37q-22 -121 -25 -174q-3 -37 -14 -41q-7 -1 -11 7.5t-6 29.5q-7 96 -53.5 135.5t-157.5 50.5q-126 11 -251 2q-29 -1 -41 -14t-29 -63l-172 -533h213q209 0 268 146q14 36 25 36
q17 0 2 -45q-6 -19 -30.5 -79t-29.5 -78q-4 -9 -22 -80l-25 -88q-12 -37 -20 -37q-13 0 -4 45q17 75 -24 111t-148 36h-217l-134 -415q-21 -77 -23 -127t17.5 -80t57 -41.5t100.5 -11.5q56 0 117 6q239 24 360 250q10 19 18.5 27.5t14.5 6.5q16 -3 -6 -45
q-20 -41 -58.5 -128t-50.5 -109q-12 -26 -23 -34.5t-32 -8.5q-6 0 -33 0.5t-82 1.5t-114 2q-313 6 -404 6q-20 0 -106 -4q-61 -6 -88 -6z" />
    <glyph glyph-name="edotaccent" unicode="&#x117;" horiz-adv-x="716" 
d="M662 1225q-40 0 -61.5 26t-14.5 72t36.5 72t69.5 26q38 0 59.5 -27.5t14.5 -70.5q-7 -46 -36.5 -72t-67.5 -26zM238 -20q-88 0 -139.5 69t-51.5 187q0 169 80 352q83 186 213 307q131 125 266 125q152 0 152 -107q0 -115 -150 -229q-156 -120 -366 -123q-2 -10 -19 -67
l-18 -68q-25 -122 -25 -193q0 -180 129 -180q127 0 246 162q21 27 27 21q4 -4 4 -11t-8 -20q-150 -225 -340 -225zM254 586q116 12 252 127q135 114 135 221q0 55 -57 55q-80 0 -172 -115q-94 -121 -158 -288z" />
    <glyph glyph-name="Eogonek" unicode="&#x118;" horiz-adv-x="1062" 
d="M1153 1382q24 0 30 -12t-1 -37q-22 -121 -25 -174q-3 -37 -14 -41q-7 -1 -11 7.5t-6 29.5q-7 96 -53.5 135.5t-157.5 50.5q-126 11 -251 2q-29 -1 -41 -14t-29 -63l-172 -533h213q209 0 268 146q14 36 25 36q17 0 2 -45q-6 -19 -30.5 -79t-29.5 -78q-4 -9 -22 -80
l-25 -88q-12 -37 -20 -37q-13 0 -4 45q17 75 -24 111t-148 36h-217l-134 -415q-21 -77 -23 -127t17.5 -80t57 -41.5t100.5 -11.5q56 0 117 6q239 24 360 250q10 19 18.5 27.5t14.5 6.5q16 -3 -6 -45q-20 -41 -58.5 -128t-50.5 -109q-12 -26 -23 -34.5t-32 -8.5q-6 0 -33 0.5
t-82 1.5t-114 2q-184 4 -265 4q-229 -143 -229 -248q0 -37 25 -58.5t59 -21.5q45 0 88 29q19 16 19 0q0 -10 -19 -35q-58 -67 -141 -67q-46 0 -77.5 30t-31.5 84q0 133 273 289h-105q-20 0 -106 -4q-61 -6 -88 -6q-42 0 -40 13q0 1 1 3q4 7 41 10q70 6 109 52t77 159
l301 922q25 71 29.5 114t-13 66.5t-61.5 26.5q-26 0 -38 11q-9 8 12 12q11 3 28 3q29 0 90 -6q82 -4 105 -4q6 0 338 6q61 1 117 2t83.5 1.5t32.5 0.5z" />
    <glyph glyph-name="eogonek" unicode="&#x119;" horiz-adv-x="716" 
d="M606 1020q152 0 152 -107q0 -115 -150 -229q-156 -120 -366 -123q-2 -10 -19 -67l-18 -68q-25 -122 -25 -193q0 -180 129 -180q127 0 246 162q21 27 27 21q4 -4 4 -11t-8 -20q-110 -159 -234 -205q-137 -104 -137 -186q0 -37 25 -58.5t59 -21.5q46 0 88 28q18 15 18 0
q0 -10 -18 -34q-56 -68 -141 -68q-46 0 -77.5 30.5t-31.5 84.5q0 90 152 209q-36 -4 -43 -4q-88 0 -139.5 69t-51.5 187q0 169 80 352q83 186 213 307q131 125 266 125zM254 586q116 12 252 127q135 114 135 221q0 55 -57 55q-80 0 -172 -115q-94 -121 -158 -288z" />
    <glyph glyph-name="Ecaron" unicode="&#x11a;" horiz-adv-x="1062" 
d="M901 1493q-29 -29 -55 -27.5t-37 31.5q-42 112 -92 182q-22 36 -17 45q9 16 45 -20q6 -6 23 -24t30 -31t30 -28t31 -23t24 -7q11 0 51 21q146 89 160 96q51 26 59 12q6 -16 -39 -45q-95 -64 -213 -182zM-59 -10q-42 0 -40 13q0 1 1 3q4 7 41 10q70 6 109 52t77 159
l301 922q25 71 29.5 114t-13 66.5t-61.5 26.5q-26 0 -38 11q-9 8 12 12q11 3 28 3q29 0 90 -6q82 -4 105 -4q6 0 338 6q61 1 117 2t83.5 1.5t32.5 0.5q24 0 30 -12t-1 -37q-22 -121 -25 -174q-3 -37 -14 -41q-7 -1 -11 7.5t-6 29.5q-7 96 -53.5 135.5t-157.5 50.5
q-126 11 -251 2q-29 -1 -41 -14t-29 -63l-172 -533h213q209 0 268 146q14 36 25 36q17 0 2 -45q-6 -19 -30.5 -79t-29.5 -78q-4 -9 -22 -80l-25 -88q-12 -37 -20 -37q-13 0 -4 45q17 75 -24 111t-148 36h-217l-134 -415q-21 -77 -23 -127t17.5 -80t57 -41.5t100.5 -11.5
q56 0 117 6q239 24 360 250q10 19 18.5 27.5t14.5 6.5q16 -3 -6 -45q-20 -41 -58.5 -128t-50.5 -109q-12 -26 -23 -34.5t-32 -8.5q-6 0 -33 0.5t-82 1.5t-114 2q-313 6 -404 6q-20 0 -106 -4q-61 -6 -88 -6z" />
    <glyph glyph-name="ecaron" unicode="&#x11b;" horiz-adv-x="716" 
d="M664 1178q-26 -30 -55.5 -28.5t-37.5 32.5q-27 99 -71 194q-18 42 -13 47q16 16 43 -24q3 -5 18.5 -27.5t24.5 -34.5t23 -28.5t26 -24.5t23 -8q14 0 47 20q24 15 84 60l66 47q47 33 57 16q5 -13 -35 -47q-112 -88 -200 -194zM238 -20q-88 0 -139.5 69t-51.5 187
q0 169 80 352q83 186 213 307q131 125 266 125q152 0 152 -107q0 -115 -150 -229q-156 -120 -366 -123q-2 -10 -19 -67l-18 -68q-25 -122 -25 -193q0 -180 129 -180q127 0 246 162q21 27 27 21q4 -4 4 -11t-8 -20q-150 -225 -340 -225zM254 586q116 12 252 127
q135 114 135 221q0 55 -57 55q-80 0 -172 -115q-94 -121 -158 -288z" />
    <glyph glyph-name="Gbreve" unicode="&#x11e;" horiz-adv-x="1361" 
d="M1122 1458q-88 0 -127 50.5t-26 129.5q6 41 16 41q8 0 8 -39q0 -98 150 -98q152 0 217 103q23 35 29 35q2 0 4 -7q4 -13 -9 -39q-37 -79 -106 -127.5t-156 -48.5zM627 -20q-232 0 -358 129.5t-126 357.5q0 227 105 432q111 213 311 348q207 139 463 139q156 0 295 -77
q24 -15 24 -37q0 -1 -0.5 -4l-1.5 -9l-2 -12q-17 -96 -53 -196q-2 -8 -5 -13.5t-6 -7.5t-5 0q-7 4 -4 21q21 131 -25 204q-65 105 -246 105q-188 0 -360 -146q-166 -141 -262 -356q-92 -213 -92 -418q0 -204 94.5 -320t269.5 -116q188 0 258 70q45 45 131 325
q33 100 16 150.5t-90 62.5q-38 7 -37 15q0 2 1 4q3 13 43 10l182 -8q16 -2 74 2q13 1 28.5 2t24 1.5t12.5 0.5q42 0 39 -16q-7 -7 -39 -15q-49 -12 -78.5 -58.5t-60.5 -156.5q-69 -241 -66 -264q0 -10 2 -14q3 -10 10 -18.5t11 -13.5t2 -7q-3 -12 -57 -27q-244 -69 -422 -69
z" />
    <glyph glyph-name="gbreve" unicode="&#x11f;" horiz-adv-x="880" 
d="M756 1171q-75 0 -110.5 52t-22.5 129q6 41 16 41q11 0 8 -39q3 -105 127 -105q128 0 199 109q23 35 29 35q2 0 4 -7q4 -12 -9 -38q-37 -76 -102.5 -126.5t-138.5 -50.5zM1010 1024q17 -37 -10 -68.5t-76 -31.5q-84 0 -174 37q67 -99 -21 -310q-77 -181 -192.5 -281
t-260.5 -100q-40 0 -81 15q-58 -40 -22.5 -120.5t132.5 -133.5q138 -81 184 -117q100 -77 115 -156q12 -70 -57 -139q-66 -69 -168.5 -110t-212.5 -41q-203 0 -309 71t-97 154q6 64 76.5 126.5t220.5 133.5l107 45q-94 73 -94 147q0 93 106 150q-74 44 -80 151
q-3 113 49 226q73 162 193 254q122 98 254 98q70 0 117 -27q45 -13 107.5 0.5t107.5 40.5q64 40 86 -14zM604 662q39 85 54.5 160.5t0 125t-64.5 49.5q-70 0 -164 -94t-156 -233q-37 -84 -54 -169t-4.5 -144.5t58.5 -59.5q75 0 168 106q100 114 162 259zM502 -309
q0 48 -43 94q-38 43 -146 113q-94 58 -129 84q-18 -6 -45 -19t-47.5 -23.5t-23.5 -11.5q-198 -92 -207 -200q-8 -85 102 -145t301 -60q103 0 170.5 47.5t67.5 120.5z" />
    <glyph glyph-name="Gdotaccent" unicode="&#x120;" horiz-adv-x="1361" 
d="M1151 1548q-40 0 -61.5 26.5t-14.5 72.5t37 72t70 26q38 0 59 -27.5t14 -70.5q-7 -46 -36.5 -72.5t-67.5 -26.5zM627 -20q-232 0 -358 129.5t-126 357.5q0 227 105 432q111 213 311 348q207 139 463 139q156 0 295 -77q24 -15 24 -37q0 -1 -0.5 -4l-1.5 -9l-2 -12
q-17 -96 -53 -196q-2 -8 -5 -13.5t-6 -7.5t-5 0q-7 4 -4 21q21 131 -25 204q-65 105 -246 105q-188 0 -360 -146q-166 -141 -262 -356q-92 -213 -92 -418q0 -204 94.5 -320t269.5 -116q188 0 258 70q45 45 131 325q33 100 16 150.5t-90 62.5q-38 7 -37 15q0 2 1 4
q3 13 43 10l182 -8q16 -2 74 2q13 1 28.5 2t24 1.5t12.5 0.5q42 0 39 -16q-7 -7 -39 -15q-49 -12 -78.5 -58.5t-60.5 -156.5q-69 -241 -66 -264q0 -10 2 -14q3 -10 10 -18.5t11 -13.5t2 -7q-3 -12 -57 -27q-244 -69 -422 -69z" />
    <glyph glyph-name="gdotaccent" unicode="&#x121;" horiz-adv-x="880" 
d="M705 1200q-40 0 -61.5 26t-14.5 72t37 72.5t69 26.5q38 0 59.5 -28t14.5 -71q-7 -46 -36.5 -72t-67.5 -26zM1010 1024q17 -37 -10 -68.5t-76 -31.5q-84 0 -174 37q67 -99 -21 -310q-77 -181 -192.5 -281t-260.5 -100q-40 0 -81 15q-58 -40 -22.5 -120.5t132.5 -133.5
q138 -81 184 -117q100 -77 115 -156q12 -70 -57 -139q-66 -69 -168.5 -110t-212.5 -41q-203 0 -309 71t-97 154q6 64 76.5 126.5t220.5 133.5l107 45q-94 73 -94 147q0 93 106 150q-74 44 -80 151q-3 113 49 226q73 162 193 254q122 98 254 98q70 0 117 -27
q45 -13 107.5 0.5t107.5 40.5q64 40 86 -14zM604 662q39 85 54.5 160.5t0 125t-64.5 49.5q-70 0 -164 -94t-156 -233q-37 -84 -54 -169t-4.5 -144.5t58.5 -59.5q75 0 168 106q100 114 162 259zM502 -309q0 48 -43 94q-38 43 -146 113q-94 58 -129 84q-18 -6 -45 -19
t-47.5 -23.5t-23.5 -11.5q-198 -92 -207 -200q-8 -85 102 -145t301 -60q103 0 170.5 47.5t67.5 120.5z" />
    <glyph glyph-name="uni0122" unicode="&#x122;" horiz-adv-x="1361" 
d="M627 -20q-232 0 -358 129.5t-126 357.5q0 227 105 432q111 213 311 348q207 139 463 139q156 0 295 -77q24 -15 24 -37q0 -1 -0.5 -4l-1.5 -9l-2 -12q-17 -96 -53 -196q-2 -8 -5 -13.5t-6 -7.5t-5 0q-7 4 -4 21q21 131 -25 204q-65 105 -246 105q-188 0 -360 -146
q-166 -141 -262 -356q-92 -213 -92 -418q0 -204 94.5 -320t269.5 -116q188 0 258 70q45 45 131 325q33 100 16 150.5t-90 62.5q-38 7 -37 15q0 2 1 4q3 13 43 10l182 -8q16 -2 74 2q13 1 28.5 2t24 1.5t12.5 0.5q42 0 39 -16q-7 -7 -39 -15q-49 -12 -78.5 -58.5
t-60.5 -156.5q-69 -241 -66 -264q0 -10 2 -14q3 -10 10 -18.5t11 -13.5t2 -7q-3 -12 -57 -27q-244 -69 -422 -69zM-127 -543q-13 10 10 33q80 80 80 137q0 36 -47 45q-36 7 -61 29.5t-25 58.5q0 35 23.5 56.5t60.5 21.5q47 0 84 -37.5t37 -97.5t-38.5 -126t-92.5 -112
q-21 -18 -31 -8z" />
    <glyph glyph-name="uni0123" unicode="&#x123;" horiz-adv-x="880" 
d="M633 1194q-86 0 -86 102q3 152 84 271q9 12 18 6q12 -3 2 -19q-64 -94 -67 -184q0 -14 3.5 -20t10.5 -2q17 10 39 10q77 0 74 -84q0 -37 -22.5 -58.5t-55.5 -21.5zM1010 1024q17 -37 -10 -68.5t-76 -31.5q-84 0 -174 37q67 -99 -21 -310q-77 -181 -192.5 -281
t-260.5 -100q-40 0 -81 15q-58 -40 -22.5 -120.5t132.5 -133.5q138 -81 184 -117q100 -77 115 -156q12 -70 -57 -139q-66 -69 -168.5 -110t-212.5 -41q-203 0 -309 71t-97 154q6 64 76.5 126.5t220.5 133.5l107 45q-94 73 -94 147q0 93 106 150q-74 44 -80 151
q-3 113 49 226q73 162 193 254q122 98 254 98q70 0 117 -27q45 -13 107.5 0.5t107.5 40.5q64 40 86 -14zM604 662q39 85 54.5 160.5t0 125t-64.5 49.5q-70 0 -164 -94t-156 -233q-37 -84 -54 -169t-4.5 -144.5t58.5 -59.5q75 0 168 106q100 114 162 259zM502 -309
q0 48 -43 94q-38 43 -146 113q-94 58 -129 84q-18 -6 -45 -19t-47.5 -23.5t-23.5 -11.5q-198 -92 -207 -200q-8 -85 102 -145t301 -60q103 0 170.5 47.5t67.5 120.5z" />
    <glyph glyph-name="Hbar" unicode="&#x126;" horiz-adv-x="1341" 
d="M1526 1382q11 0 18 -4t6 -10q-3 -11 -30 -14q-45 -6 -71 -20.5t-46 -45.5q-22 -35 -57 -143l-80 -242h114q9 0 16 -2.5t9.5 -6t-0.5 -7.5q-10 -17 -29 -17h-121l-211 -647q-40 -128 -34 -157q9 -41 69 -50q17 -1 23.5 -7.5t1.5 -14.5q-3 -6 -25 -6q-31 0 -96 6
q-82 4 -86 4q-18 0 -80 -5t-88 -5q-12 0 -19.5 4.5t-4 11t21.5 12.5q73 13 110.5 57t73.5 152l148 453h-660l-149 -455q-41 -130 -35 -157q9 -41 70 -50q17 -1 23 -7.5t1 -14.5q-3 -6 -24 -6q-33 0 -97 6q-82 4 -86 4q-18 0 -80 -5t-88 -5q-12 0 -19.5 4.5t-4 11t21.5 12.5
q73 13 111 57.5t74 151.5l209 645h-111q-9 0 -15 2.5t-8 6.5t1 8q10 16 28 16h115l80 244q34 96 27.5 144.5t-70.5 62.5q-25 6 -19 20q3 8 29 8t85 -5t75 -5q22 0 100 4q62 6 88 6q11 0 18.5 -4t6.5 -10q-3 -11 -31 -14q-45 -6 -71 -20.5t-46 -45.5q-22 -35 -57 -143
l-80 -242h659l80 244q34 96 27.5 144.5t-70.5 62.5q-24 6 -18 20q3 8 29 8t84.5 -5t74.5 -5q23 0 101 4q61 6 88 6zM410 713h659l51 157h-659z" />
    <glyph glyph-name="hbar" unicode="&#x127;" horiz-adv-x="1091" 
d="M928 213q-89 -123 -151.5 -178t-121.5 -55q-40 0 -56.5 25t-8.5 69q9 52 49 159l174 488q79 225 -10 225q-118 0 -311 -272q-188 -265 -361 -645q-17 -45 -33 -45q-36 0 -63 49q-17 33 0 84l334 1028h-109q-11 0 -16 3.5t-4 10.5q3 15 22 15h115l35 104q8 25 10 37.5
t-0.5 22.5t-17.5 11t-37.5 -1t-63.5 -9q-31 -6 -31 2q0 14 25 23q145 49 268 115q29 16 35 16q9 -2 -2 -43l-92 -278h213q11 0 16 -4t4 -11q-3 -14 -22 -14h-219l-258 -785q144 212 174 254q95 127 157 203q172 207 301 207q59 0 86 -23.5t23 -76.5q-1 -52 -12.5 -96.5
t-42.5 -131.5l-166 -481q-40 -118 -8 -121h12q48 6 143 133q17 23 28 20q14 -4 -7 -34z" />
    <glyph glyph-name="Imacron" unicode="&#x12a;" horiz-adv-x="546" 
d="M344 1597h559q24 0 35.5 -6t7.5 -16q-10 -23 -45 -23h-557q-25 0 -36.5 6t-6.5 17q9 22 43 22zM731 1382q11 0 18.5 -4t6.5 -10q-3 -11 -31 -14q-45 -6 -71 -20.5t-46 -45.5q-22 -35 -57 -143l-301 -922q-41 -130 -35 -157q9 -41 70 -50q17 -1 23 -7.5t1 -14.5
q-3 -6 -24 -6q-33 0 -97 6q-82 4 -86 4q-18 0 -80 -5t-88 -5q-12 0 -19.5 4.5t-4 11t21.5 12.5q73 13 111 57.5t74 151.5l299 922q34 96 27.5 144.5t-70.5 62.5q-25 6 -19 20q3 8 29 8t85 -5t75 -5q22 0 100 4q62 6 88 6z" />
    <glyph glyph-name="imacron" unicode="&#x12b;" horiz-adv-x="548" 
d="M778 1202h-557q-25 0 -36.5 6t-6.5 17q9 22 43 22h559q24 0 35.5 -6t7.5 -16q-10 -23 -45 -23zM129 -23q-70 0 -70 70q0 71 47 189l236 579q41 96 -10 96q-49 0 -154 -135q-19 -25 -29 -18t9 33q89 125 148.5 179t117.5 54q72 0 72 -82q0 -50 -41 -158q-8 -22 -27 -67
t-25 -60l-77 -198q-55 -143 -99 -266q-16 -53 -16 -78q0 -23 20 -23q28 0 70.5 36.5t79.5 96.5q19 29 29 19q7 -5 -9 -33q-141 -234 -272 -234z" />
    <glyph glyph-name="Iogonek" unicode="&#x12e;" horiz-adv-x="546" 
d="M731 1382q11 0 18.5 -4t6.5 -10q-3 -11 -31 -14q-45 -6 -71 -20.5t-46 -45.5q-22 -35 -57 -143l-301 -922q-41 -130 -35 -157q9 -41 70 -50q17 -1 23 -7.5t1 -14.5q-3 -6 -24 -6q-33 0 -97 6q-82 4 -86 4q-18 0 -80 -5t-88 -5q-12 0 -19.5 4.5t-4 11t21.5 12.5
q73 13 111 57.5t74 151.5l299 922q34 96 27.5 144.5t-70.5 62.5q-25 6 -19 20q3 8 29 8t85 -5t75 -5q22 0 100 4q62 6 88 6zM111 -4h34q-81 -53 -112 -78q-48 -36 -83.5 -84t-35.5 -88q0 -37 25 -58.5t59 -21.5q44 0 88 29q18 15 18 0q0 -11 -18 -35q-56 -68 -141 -68
q-46 0 -77.5 30.5t-31.5 84.5q0 129 275 289z" />
    <glyph glyph-name="iogonek" unicode="&#x12f;" horiz-adv-x="548" 
d="M541 1395q38 0 59 -28t14 -71q-7 -46 -36.5 -72t-67.5 -26q-40 0 -61.5 26t-14.5 72t37 72.5t70 26.5zM496 942q0 -50 -41 -158q-8 -22 -27 -67t-25 -60l-77 -198q-55 -143 -99 -266q-16 -53 -16 -78q0 -23 20 -23q28 0 70.5 36.5t79.5 96.5q19 29 29 19q7 -5 -9 -33
q-75 -127 -161 -191h22q-89 -58 -112 -77q-48 -36 -83.5 -84t-35.5 -88q0 -37 25 -58.5t59 -21.5q46 0 88 28q18 15 18 0q0 -10 -18 -34q-56 -68 -142 -68q-45 0 -76.5 30.5t-31.5 84.5q0 110 213 252q-21 -7 -37 -7q-70 0 -70 70q0 71 47 189l236 579q41 96 -10 96
q-49 0 -154 -135q-19 -25 -29 -18t9 33q89 125 148.5 179t117.5 54q72 0 72 -82z" />
    <glyph glyph-name="Idot" unicode="&#x130;" horiz-adv-x="546" 
d="M633 1548q-40 0 -61.5 26.5t-14.5 72.5t37 72t70 26q38 0 59 -27.5t14 -70.5q-7 -46 -36.5 -72.5t-67.5 -26.5zM731 1382q11 0 18.5 -4t6.5 -10q-3 -11 -31 -14q-45 -6 -71 -20.5t-46 -45.5q-22 -35 -57 -143l-301 -922q-41 -130 -35 -157q9 -41 70 -50q17 -1 23 -7.5
t1 -14.5q-3 -6 -24 -6q-33 0 -97 6q-82 4 -86 4q-18 0 -80 -5t-88 -5q-12 0 -19.5 4.5t-4 11t21.5 12.5q73 13 111 57.5t74 151.5l299 922q34 96 27.5 144.5t-70.5 62.5q-25 6 -19 20q3 8 29 8t85 -5t75 -5q22 0 100 4q62 6 88 6z" />
    <glyph glyph-name="dotlessi" unicode="&#x131;" horiz-adv-x="548" 
d="M129 -23q-70 0 -70 70q0 71 47 189l236 579q41 96 -10 96q-49 0 -154 -135q-19 -25 -29 -18t9 33q89 125 148.5 179t117.5 54q72 0 72 -82q0 -50 -41 -158q-8 -22 -27 -67t-25 -60l-77 -198q-55 -143 -99 -266q-16 -53 -16 -78q0 -23 20 -23q28 0 70.5 36.5t79.5 96.5
q19 29 29 19q7 -5 -9 -33q-141 -234 -272 -234z" />
    <glyph glyph-name="uni0136" unicode="&#x136;" horiz-adv-x="1255" 
d="M1413 1366q-4 -7 -37 -10q-38 -3 -69 -17q-6 -2 -70 -34q-11 -5 -76 -52l-43 -30l-43 -33l-555 -414l350 -608q82 -143 168 -152q19 -1 27 -5.5t6 -12.5q-3 -11 -37 -8q-127 10 -211 10q-16 0 -86 -4q-53 -6 -59 -6q-20 0 -29 4t-6 12q0 3 37 12q65 18 75 51.5t-28 82.5
l-315 542l-11 -8l-151 -463q-41 -130 -35 -157q9 -41 70 -50q17 -1 23 -7.5t1 -14.5q-3 -6 -24 -6q-33 0 -97 6q-82 4 -86 4q-18 0 -80 -5t-88 -5q-12 0 -19.5 4.5t-4 11t21.5 12.5q73 13 111 57.5t74 151.5l299 922q34 96 27.5 144.5t-70.5 62.5q-25 6 -19 20q3 8 29 8
t85 -5t75 -5q22 0 100 4q62 6 88 6q11 0 18.5 -4t6.5 -10q-3 -11 -31 -14q-45 -6 -71 -20.5t-46 -45.5q-22 -35 -57 -143l-137 -422l618 481q157 121 84 148l-16 4q-35 6 -36 13q-1 2 1 5q3 11 39 8l104 -10q36 -4 90 2q52 8 80 8q38 0 36 -13q0 -1 -1 -3zM344 -152
q47 0 84 -37.5t37 -97.5t-38.5 -125.5t-92.5 -111.5q-21 -18 -31 -8q-11 11 10 32q80 80 80 138q0 36 -47 45q-36 7 -61 29.5t-25 58.5q0 35 23.5 56t60.5 21z" />
    <glyph glyph-name="uni0137" unicode="&#x137;" horiz-adv-x="925" 
d="M840 197q22 31 29 20q6 -9 -7 -31q-129 -206 -229 -206q-49 0 -82 37.5t-68 134.5l-96 256q-27 71 -59 71q-45 0 -115 -196l-27 -82l-8 -29l-45 -135q-18 -53 -35 -53q-36 0 -63 49q-17 33 0 84l377 1161q8 25 10 37.5t-0.5 22.5t-17.5 11t-37.5 -1t-63.5 -9
q-31 -6 -31 2q0 14 25 23q145 49 268 115q29 16 35 16q9 -2 -2 -43l-254 -774q114 166 239 256t230 90q56 0 84.5 -33t28.5 -76q0 -200 -443 -409l99 -275q31 -82 55 -116.5t55 -34.5q66 0 148 117zM309 526l-8 -22q172 0 346 127q174 125 174 235q0 78 -90 78
q-110 0 -233 -117q-123 -120 -189 -301zM166 -162q47 0 84 -37.5t37 -97.5t-38.5 -126t-92.5 -112q-13 -12 -23.5 -11.5t-10 10.5t12.5 26q80 80 80 137q0 36 -47 45q-36 7 -61 29.5t-25 58.5q0 35 23.5 56.5t60.5 21.5z" />
    <glyph glyph-name="Lacute" unicode="&#x139;" horiz-adv-x="1019" 
d="M885 1657l-305 -158q-37 -18 -43 -8q-7 10 20 31l201 153q3 1 17.5 13.5t17.5 13.5q40 10 63 10q46 0 55 -18t-26 -37zM-61 -10q-42 0 -40 13q0 1 1 3q4 7 41 10q70 6 109 52t77 159l301 922q25 71 29.5 114t-13 66.5t-61.5 26.5q-26 0 -38 11q-9 8 12 12q11 3 28 3
q20 0 86 -5t88 -5q10 0 92 4q61 6 90 6q42 0 40 -13l-1 -3q-2 -7 -41 -10q-70 -6 -109 -52t-77 -159l-279 -860q-43 -154 -14.5 -207t146.5 -53q20 0 137 6q233 12 360 250q10 19 18.5 27.5t14.5 6.5q16 -3 -6 -45q-20 -41 -58.5 -128t-50.5 -109q-12 -27 -22 -35t-33 -8
q-6 0 -33 0.5t-82 1.5t-114 2q-337 6 -387 6h-31q-25 0 -93.5 -5t-86.5 -5z" />
    <glyph glyph-name="lacute" unicode="&#x13a;" horiz-adv-x="546" 
d="M758 1882q80 0 16 -67l-223 -281q-30 -40 -33 -16q0 11 10 38l119 277q21 49 111 49zM600 1495q9 -2 -2 -43l-383 -1257q-30 -98 0 -101h10q69 10 144 133q16 22 26 17q9 -6 -6 -31q-140 -233 -272 -233q-72 0 -72 63q0 44 49 195l318 1040q15 57 2 65q-14 11 -111 -4
q-31 -6 -31 2q0 14 25 23q145 49 268 115q29 16 35 16z" />
    <glyph glyph-name="uni013B" unicode="&#x13b;" horiz-adv-x="1019" 
d="M-61 -10q-42 0 -40 13q0 1 1 3q4 7 41 10q70 6 109 52t77 159l301 922q25 71 29.5 114t-13 66.5t-61.5 26.5q-26 0 -38 11q-9 8 12 12q11 3 28 3q20 0 86 -5t88 -5q10 0 92 4q61 6 90 6q42 0 40 -13l-1 -3q-2 -7 -41 -10q-70 -6 -109 -52t-77 -159l-279 -860
q-43 -154 -14.5 -207t146.5 -53q20 0 137 6q233 12 360 250q10 19 18.5 27.5t14.5 6.5q16 -3 -6 -45q-20 -41 -58.5 -128t-50.5 -109q-12 -27 -22 -35t-33 -8q-6 0 -33 0.5t-82 1.5t-114 2q-337 6 -387 6h-31q-25 0 -93.5 -5t-86.5 -5zM-160 -508q-12 12 10 33q80 80 80 137
q0 36 -47 45q-36 7 -61 29.5t-25 58.5q0 35 23.5 56.5t60.5 21.5q47 0 84 -37.5t37 -97.5t-38.5 -126t-92.5 -112q-21 -18 -31 -8z" />
    <glyph glyph-name="uni013C" unicode="&#x13c;" horiz-adv-x="546" 
d="M598 1452l-383 -1257q-30 -98 0 -101h10q69 10 144 133q16 22 26 17q9 -6 -6 -31q-140 -233 -272 -233q-72 0 -72 63q0 44 49 195l318 1040q15 57 2 65q-14 11 -111 -4q-31 -6 -31 2q0 14 25 23q145 49 268 115q29 16 35 16q9 -2 -2 -43zM-10 -152q47 0 84 -37.5
t37 -97.5t-38.5 -125.5t-92.5 -111.5q-21 -18 -31 -8q-9 13 10 32q80 80 80 138q0 36 -47 45q-36 7 -61 29.5t-25 58.5q0 35 23.5 56t60.5 21z" />
    <glyph glyph-name="Lcaron" unicode="&#x13d;" horiz-adv-x="1019" 
d="M868 1018q-5 0 6 33q0 3 3 6q61 172 79 278q3 23 31 35q47 24 60.5 20t1.5 -40q-40 -136 -144 -283q-7 -10 -15.5 -24.5t-12.5 -19.5t-9 -5zM-61 -10q-42 0 -40 13q0 1 1 3q4 7 41 10q70 6 109 52t77 159l301 922q25 71 29.5 114t-13 66.5t-61.5 26.5q-26 0 -38 11
q-9 8 12 12q11 3 28 3q20 0 86 -5t88 -5q10 0 92 4q61 6 90 6q42 0 40 -13l-1 -3q-2 -7 -41 -10q-70 -6 -109 -52t-77 -159l-279 -860q-43 -154 -14.5 -207t146.5 -53q20 0 137 6q233 12 360 250q10 19 18.5 27.5t14.5 6.5q16 -3 -6 -45q-20 -41 -58.5 -128t-50.5 -109
q-12 -27 -22 -35t-33 -8q-6 0 -33 0.5t-82 1.5t-114 2q-337 6 -387 6h-31q-25 0 -93.5 -5t-86.5 -5z" />
    <glyph glyph-name="lcaron" unicode="&#x13e;" horiz-adv-x="546" 
d="M395 244q9 -6 -6 -31q-140 -233 -272 -233q-72 0 -72 63q0 44 49 195l318 1040q15 57 2 65q-14 11 -111 -4q-31 -6 -31 2q0 14 25 23q145 49 268 115q29 16 35 16q9 -2 -2 -43l-383 -1257q-30 -98 0 -101h10q69 10 144 133q16 22 26 17zM709 1473q47 24 60 19.5t1 -40.5
q-41 -139 -143 -283q-7 -10 -15.5 -24.5t-12.5 -19.5t-9 -5t6 33q0 4 2 6q63 176 80 279q3 23 31 35z" />
    <glyph glyph-name="Lslash" unicode="&#x141;" horiz-adv-x="1019" 
d="M936 315q16 -3 -6 -45q-20 -41 -58.5 -128t-50.5 -109q-12 -27 -22 -35t-33 -8q-6 0 -33 0.5t-82 1.5t-114 2q-337 6 -387 6h-31q-25 0 -93.5 -5t-86.5 -5q-42 0 -40 13q0 1 1 3q4 7 41 10q70 6 109 52t77 159l156 478l-336 -121q-35 -15 -35 2q0 11 25 20l356 129
l135 414q25 71 29.5 114t-13 66.5t-61.5 26.5q-26 0 -38 11q-9 8 12 12q11 3 28 3q20 0 86 -5t88 -5q10 0 92 4q61 6 90 6q42 0 40 -13l-1 -3q-2 -7 -41 -10q-70 -6 -109 -52t-77 -159l-117 -359l13 5q34 15 34 0q0 -14 -24 -23l-31 -12l-154 -471q-43 -154 -14.5 -207
t146.5 -53q20 0 137 6q233 12 360 250q10 19 18.5 27.5t14.5 6.5z" />
    <glyph glyph-name="lslash" unicode="&#x142;" horiz-adv-x="546" 
d="M600 1495q9 -2 -2 -43l-213 -700l127 45q8 3 13 -2t4 -12.5t-9 -10.5l-145 -51l-160 -526q-30 -98 0 -101h10q69 10 144 133q16 22 26 17q9 -6 -6 -31q-140 -233 -272 -233q-72 0 -72 63q0 44 49 195l131 428l-155 -56q-8 -3 -13 2t-4.5 12.5t8.5 10.5l172 61l179 582
q15 57 2 65q-14 11 -111 -4q-31 -6 -31 2q0 14 25 23q145 49 268 115q29 16 35 16z" />
    <glyph glyph-name="Nacute" unicode="&#x143;" horiz-adv-x="1329" 
d="M1264 1657l-306 -158q-37 -18 -43 -8t21 31l201 153q3 1 17 13.5t17 13.5q40 10 64 10q46 0 55 -18t-26 -37zM922 -20q-13 0 -19 16l-379 1229q-7 22 -10 23q-2 0 -6 -9l-10 -27l-322 -989q-37 -102 -32 -151.5t65 -55.5q26 -2 34 -14q4 -7 -10 -10q-10 -2 -28 -2
q-11 0 -57.5 5t-67.5 5q-12 0 -67 -5t-79 -5q-18 0 -27 4t-7 12q4 7 37 10q82 9 118 54q41 47 80 157l316 922q17 57 24 90t5.5 61t-17 40.5t-45.5 15.5q-25 0 -35 11q-8 8 12 13l25 2q17 0 78 -5t82 -5h8q25 0 35 -29l346 -1114q9 -34 20 -2l6 15l281 907q34 103 27.5 152
t-64.5 55q-25 0 -35 11q-8 8 12 13q9 2 25 2q11 0 58.5 -5t68.5 -5q12 0 67 5t78 5q27 0 36 -12q5 -6 -10 -10q-11 -3 -30 -4q-80 -9 -118 -53q-36 -44 -76 -158l-377 -1149q-6 -16 -16 -16z" />
    <glyph glyph-name="nacute" unicode="&#x144;" horiz-adv-x="1116" 
d="M885 1411l-223 -281q-30 -40 -33 -16q0 12 10 39l119 277q21 49 110 49q82 0 17 -68zM969 213q-89 -123 -151.5 -178t-121.5 -55q-40 0 -56.5 25t-8.5 69q9 52 49 159l174 488q80 225 -10 225q-117 0 -307 -266q-186 -262 -357 -631q0 -3 -4 -12t-4 -12q-15 -45 -94 -45
q-25 0 -25 26q0 7 31 98l240 691q35 96 -13 96t-153 -135q-18 -23 -28 -19q-11 7 7 33q90 125 149.5 179.5t116.5 54.5q72 0 72 -82q0 -1 -4 -37q-7 -46 -168 -490q111 166 191 274t157 193t140.5 123.5t121.5 38.5q59 0 86 -23.5t23 -76.5q-1 -52 -12.5 -96.5t-42.5 -131.5
l-166 -481q-40 -118 -8 -121h12q48 6 143 133q17 23 28 20q14 -4 -7 -34z" />
    <glyph glyph-name="uni0145" unicode="&#x145;" horiz-adv-x="1329" 
d="M922 -20q-13 0 -19 16l-379 1229q-7 22 -10 23q-2 0 -6 -9l-10 -27l-322 -989q-37 -102 -32 -151.5t65 -55.5q26 -2 34 -14q4 -7 -10 -10q-10 -2 -28 -2q-11 0 -57.5 5t-67.5 5q-12 0 -67 -5t-79 -5q-18 0 -27 4t-7 12q4 7 37 10q82 9 118 54q41 47 80 157l316 922
q17 57 24 90t5.5 61t-17 40.5t-45.5 15.5q-25 0 -35 11q-8 8 12 13l25 2q17 0 78 -5t82 -5h8q25 0 35 -29l346 -1114q9 -34 20 -2l6 15l281 907q34 103 27.5 152t-64.5 55q-25 0 -35 11q-8 8 12 13q9 2 25 2q11 0 58.5 -5t68.5 -5q12 0 67 5t78 5q27 0 36 -12q5 -6 -10 -10
q-11 -3 -30 -4q-80 -9 -118 -53q-36 -44 -76 -158l-377 -1149q-6 -16 -16 -16zM334 -532q-9 13 10 32q80 80 80 138q0 36 -47 45q-36 7 -61 29.5t-25 58.5q0 35 23.5 56t60.5 21q47 0 84 -37.5t37 -97.5t-38.5 -125.5t-92.5 -111.5q-21 -18 -31 -8z" />
    <glyph glyph-name="uni0146" unicode="&#x146;" horiz-adv-x="1116" 
d="M969 213q-89 -123 -151.5 -178t-121.5 -55q-40 0 -56.5 25t-8.5 69q9 52 49 159l174 488q80 225 -10 225q-117 0 -307 -266q-186 -262 -357 -631q0 -3 -4 -12t-4 -12q-15 -45 -94 -45q-25 0 -25 26q0 7 31 98l240 691q35 96 -13 96t-153 -135q-18 -23 -28 -19q-11 7 7 33
q90 125 149.5 179.5t116.5 54.5q72 0 72 -82q0 -1 -4 -37q-7 -46 -168 -490q111 166 191 274t157 193t140.5 123.5t121.5 38.5q59 0 86 -23.5t23 -76.5q-1 -52 -12.5 -96.5t-42.5 -131.5l-166 -481q-40 -118 -8 -121h12q48 6 143 133q17 23 28 20q14 -4 -7 -34zM203 -152
q47 0 84 -37.5t37 -97.5t-38.5 -125.5t-92.5 -111.5q-21 -18 -31 -8q-9 13 10 32q80 80 80 138q0 36 -47 45q-36 7 -61 29.5t-25 58.5q0 35 23.5 56t60.5 21z" />
    <glyph glyph-name="Ncaron" unicode="&#x147;" horiz-adv-x="1329" 
d="M1055 1493q-29 -29 -55 -27.5t-37 31.5q-41 109 -93 182q-21 35 -16 45q9 16 45 -20q6 -6 23 -24t30 -31t29.5 -28t30.5 -23t24 -7q10 0 51 21q146 89 160 96q51 26 59.5 12t-38.5 -45q-95 -64 -213 -182zM922 -20q-13 0 -19 16l-379 1229q-7 22 -10 23q-2 0 -6 -9
l-10 -27l-322 -989q-37 -102 -32 -151.5t65 -55.5q26 -2 34 -14q4 -7 -10 -10q-10 -2 -28 -2q-11 0 -57.5 5t-67.5 5q-12 0 -67 -5t-79 -5q-18 0 -27 4t-7 12q4 7 37 10q82 9 118 54q41 47 80 157l316 922q17 57 24 90t5.5 61t-17 40.5t-45.5 15.5q-25 0 -35 11q-8 8 12 13
l25 2q17 0 78 -5t82 -5h8q25 0 35 -29l346 -1114q9 -34 20 -2l6 15l281 907q34 103 27.5 152t-64.5 55q-25 0 -35 11q-8 8 12 13q9 2 25 2q11 0 58.5 -5t68.5 -5q12 0 67 5t78 5q27 0 36 -12q5 -6 -10 -10q-11 -3 -30 -4q-80 -9 -118 -53q-36 -44 -76 -158l-377 -1149
q-6 -16 -16 -16z" />
    <glyph glyph-name="ncaron" unicode="&#x148;" horiz-adv-x="1116" 
d="M612 1137q-27 99 -71 194q-18 42 -13 47q16 16 43 -24q3 -5 18.5 -27.5t24.5 -34.5t23 -28.5t26 -24.5t23 -8q14 0 47 20q24 15 84 60l66 47q47 33 57 16q5 -13 -35 -47q-112 -88 -200 -194q-26 -30 -55.5 -28.5t-37.5 32.5zM969 213q-89 -123 -151.5 -178t-121.5 -55
q-40 0 -56.5 25t-8.5 69q9 52 49 159l174 488q80 225 -10 225q-117 0 -307 -266q-186 -262 -357 -631q0 -3 -4 -12t-4 -12q-15 -45 -94 -45q-25 0 -25 26q0 7 31 98l240 691q35 96 -13 96t-153 -135q-18 -23 -28 -19q-11 7 7 33q90 125 149.5 179.5t116.5 54.5q72 0 72 -82
q0 -1 -4 -37q-7 -46 -168 -490q111 166 191 274t157 193t140.5 123.5t121.5 38.5q59 0 86 -23.5t23 -76.5q-1 -52 -12.5 -96.5t-42.5 -131.5l-166 -481q-40 -118 -8 -121h12q48 6 143 133q17 23 28 20q14 -4 -7 -34z" />
    <glyph glyph-name="Omacron" unicode="&#x14c;" horiz-adv-x="1366" 
d="M1335 1552h-557q-25 0 -36.5 6t-6.5 17q9 22 43 22h559q24 0 35.5 -6t7.5 -16q-10 -23 -45 -23zM588 -20q-192 0 -312 153t-120 363q0 346 217 606q107 128 252 205q141 75 284 75q186 0 299 -143q117 -144 117 -336q0 -204 -69.5 -392.5t-192.5 -311.5
q-105 -105 -235 -162t-240 -57zM594 4q181 0 381 256q95 121 160 318q67 198 67 372q0 114 -26 197q-58 211 -263 211q-243 0 -444 -287q-88 -130 -139 -311q-54 -190 -54 -344q0 -204 84 -308t234 -104z" />
    <glyph glyph-name="omacron" unicode="&#x14d;" horiz-adv-x="899" 
d="M958 1204h-557q-25 0 -36.5 6t-6.5 17q9 22 43 22h560q24 0 35.5 -6t7.5 -16q-10 -23 -46 -23zM281 -20q-108 0 -174 73.5t-66 192.5q0 170 82 350q83 183 217 305q135 123 274 123q114 0 181 -73t67 -201q0 -159 -84 -344q-83 -180 -219 -304q-137 -122 -278 -122z
M725 811q0 188 -111 188q-99 0 -208 -145q-103 -141 -168 -330q-62 -189 -62 -321q0 -199 105 -199q101 0 211 146q102 137 170 333q63 183 63 328z" />
    <glyph glyph-name="Ohungarumlaut" unicode="&#x150;" horiz-adv-x="1366" 
d="M1026 1520q-4 4 12 32l88 156q23 45 93 45q47 0 2 -51l-164 -170q-21 -22 -31 -12zM821 1520q-2 2 13 32l73 140q14 26 31.5 35.5t54.5 9.5q47 0 2 -51l-143 -154q-22 -22 -31 -12zM588 -20q-192 0 -312 153t-120 363q0 346 217 606q107 128 252 205q141 75 284 75
q186 0 299 -143q117 -144 117 -336q0 -204 -69.5 -392.5t-192.5 -311.5q-105 -105 -235 -162t-240 -57zM594 4q181 0 381 256q95 121 160 318q67 198 67 372q0 114 -26 197q-58 211 -263 211q-243 0 -444 -287q-88 -130 -139 -311q-54 -190 -54 -344q0 -204 84 -308
t234 -104z" />
    <glyph glyph-name="ohungarumlaut" unicode="&#x151;" horiz-adv-x="899" 
d="M569 1165q-15 3 -2 33l111 254q27 63 47 18q21 -52 -6 -96l-125 -184q-22 -25 -25 -25zM754 1165q-15 3 -2 33l110 254q27 63 47 18q21 -52 -6 -96l-125 -184q-22 -25 -24 -25zM281 -20q-108 0 -174 73.5t-66 192.5q0 170 82 350q83 183 217 305q135 123 274 123
q114 0 181 -73t67 -201q0 -159 -84 -344q-83 -180 -219 -304q-137 -122 -278 -122zM725 811q0 188 -111 188q-99 0 -208 -145q-103 -141 -168 -330q-62 -189 -62 -321q0 -199 105 -199q101 0 211 146q102 137 170 333q63 183 63 328z" />
    <glyph glyph-name="OE" unicode="&#x152;" horiz-adv-x="1947" 
d="M2036 1382q38 0 26 -51q-9 -42 -30 -172q0 -38 -13 -41q-15 -3 -12 39q3 112 -25 148q-26 33 -124 36q-66 0 -111 2q-225 5 -238 5l-194 -596l-6 -45h211q154 0 209 137q15 37 22 37q6 -1 5 -11.5t-7 -33.5q-15 -45 -29 -80l-26 -68q-5 -16 -19.5 -73t-19.5 -74
q-12 -37 -21 -37q-14 0 -2 45q19 62 -13 95.5t-106 33.5h-210q-33 -165 -113 -309l-27 -84q-43 -154 -16 -207t145 -53q100 0 199 6q106 3 156 47q56 49 137 203q10 18 18 27t13 7q15 -3 -7 -45l-104 -237q-21 -43 -51 -43q-20 0 -172 4q-381 6 -439 6h-57q-23 0 -33 13.5
t-2 33.5l25 76q-192 -143 -387 -143q-192 0 -312 153t-120 363q0 346 217 606q107 128 252 205q141 75 284 75q132 0 233.5 -78t149.5 -210l80 245q9 33 45 33h43h127q270 6 279 6q152 4 170 4zM975 260q52 68 98 166l109 334q20 90 20 190q0 114 -26 197q-58 211 -263 211
q-243 0 -444 -287q-88 -130 -139 -311q-54 -190 -54 -344q0 -204 84 -308t234 -104q181 0 381 256z" />
    <glyph glyph-name="oe" unicode="&#x153;" horiz-adv-x="1304" 
d="M1194 1020q152 0 152 -107q0 -115 -150 -229t-360 -123q-8 -36 -31 -90q-37 -136 -37 -238q0 -180 129 -180q127 0 246 162q21 26 26 21t5 -11q0 -5 -9 -20q-150 -225 -340 -225q-78 0 -128 53.5t-60 150.5q-174 -204 -356 -204q-108 0 -174 73.5t-66 192.5q0 170 82 350
q83 183 217 305q135 123 274 123q98 0 161.5 -54.5t80.5 -152.5q167 203 338 203zM725 811q0 188 -111 188q-99 0 -208 -145q-103 -141 -168 -330q-62 -189 -62 -321q0 -199 105 -199q101 0 211 146q102 137 170 333q63 183 63 328zM842 586q116 12 252 127q135 114 135 221
q0 55 -58 55q-80 0 -172 -115q-92 -118 -157 -288z" />
    <glyph glyph-name="Racute" unicode="&#x154;" horiz-adv-x="1183" 
d="M1065 1677l-305 -157q-37 -18 -43 -9q-7 10 20 31l201 154q3 1 17.5 13t17.5 13q44 11 63 11q46 0 55 -18.5t-26 -37.5zM-53 -10q-14 0 -22 4.5t-4 11t22 12.5q73 13 112 58.5t72 150.5l301 924l-2 -2q25 71 31 114t-9 66.5t-55 26.5q-26 2 -34 14q-4 7 10 10l28 2
q12 0 81 -5t102 -5q35 0 137 10q115 11 143 11q137 0 210 -68t73 -180q0 -190 -133 -311q-131 -119 -330 -140q48 -15 72 -59q7 -7 14.5 -28.5t9.5 -33.5l19 -71q83 -323 112 -398q34 -75 101 -81q21 0 29 -3t7 -10q-3 -6 -34 -12q-36 -8 -113 -8q-84 0 -111 71
q-1 4 -9.5 23.5t-19 47.5t-24.5 73.5t-32 120t-37 166.5q-20 112 -43 153q-21 38 -78 47q-10 1 -58.5 5.5t-62.5 4.5l-158 -479q-43 -123 -33 -160q9 -36 70 -45q16 -2 21.5 -7t1.5 -15q-3 -6 -25 -6q-31 0 -96 6q-86 4 -90 4q-19 0 -80.5 -5t-85.5 -5zM670 723
q147 21 248 137q100 112 100 281q0 93 -65 152t-169 59q-64 0 -155 -15l-203 -610q159 -16 244 -4z" />
    <glyph glyph-name="racute" unicode="&#x155;" horiz-adv-x="821" 
d="M823 1411l-223 -281q-30 -40 -33 -16q0 10 11 39l118 277q21 49 111 49q81 0 16 -68zM131 -20q-25 0 -25 26q0 18 41 139q37 104 105 312q57 173 98 338q14 45 11.5 66.5t-10 26t-23.5 1.5q-51 -9 -144 -133q-19 -25 -28 -19q-1 1 -1.5 6t1 13t6.5 14q99 136 150 185
t108 49q47 0 63.5 -28.5t5.5 -90.5q-13 -77 -53 -199l-43 -119l-43 -118q81 175 205 358q144 208 281 217q55 1 88.5 -24.5t33.5 -65.5q0 -34 -27.5 -59t-60.5 -25q-30 0 -79 22q-48 23 -62 23q-44 0 -82 -31t-98 -119q-142 -211 -324 -720q-15 -45 -94 -45z" />
    <glyph glyph-name="uni0156" unicode="&#x156;" horiz-adv-x="1183" 
d="M-53 -10q-14 0 -22 4.5t-4 11t22 12.5q73 13 112 58.5t72 150.5l301 924l-2 -2q25 71 31 114t-9 66.5t-55 26.5q-26 2 -34 14q-4 7 10 10l28 2q12 0 81 -5t102 -5q35 0 137 10q115 11 143 11q137 0 210 -68t73 -180q0 -190 -133 -311q-131 -119 -330 -140q48 -15 72 -59
q7 -7 14.5 -28.5t9.5 -33.5l19 -71q83 -323 112 -398q34 -75 101 -81q21 0 29 -3t7 -10q-3 -6 -34 -12q-36 -8 -113 -8q-84 0 -111 71q-1 4 -9.5 23.5t-19 47.5t-24.5 73.5t-32 120t-37 166.5q-20 112 -43 153q-21 38 -78 47q-10 1 -58.5 5.5t-62.5 4.5l-158 -479
q-43 -123 -33 -160q9 -36 70 -45q16 -2 21.5 -7t1.5 -15q-3 -6 -25 -6q-31 0 -96 6q-86 4 -90 4q-19 0 -80.5 -5t-85.5 -5zM670 723q147 21 248 137q100 112 100 281q0 93 -65 152t-169 59q-64 0 -155 -15l-203 -610q159 -16 244 -4zM272 -532q-9 12 11 32q79 79 79 138
q0 36 -47 45q-36 7 -61 29.5t-25 58.5q0 35 23.5 56t60.5 21q47 0 84 -37.5t37 -97.5t-38.5 -125.5t-92.5 -111.5q-21 -18 -31 -8z" />
    <glyph glyph-name="uni0157" unicode="&#x157;" horiz-adv-x="821" 
d="M131 -20q-25 0 -25 26q0 18 41 139q37 104 105 312q57 173 98 338q14 45 11.5 66.5t-10 26t-23.5 1.5q-51 -9 -144 -133q-19 -25 -28 -19q-1 1 -1.5 6t1 13t6.5 14q99 136 150 185t108 49q47 0 63.5 -28.5t5.5 -90.5q-13 -77 -53 -199l-43 -119l-43 -118q81 175 205 358
q144 208 281 217q55 1 88.5 -24.5t33.5 -65.5q0 -34 -27.5 -59t-60.5 -25q-30 0 -79 22q-48 23 -62 23q-44 0 -82 -31t-98 -119q-142 -211 -324 -720q-15 -45 -94 -45zM-10 -561q-10 13 10 33q80 80 80 137q0 36 -47 45q-36 7 -61 29.5t-25 58.5q0 35 23.5 56.5t60.5 21.5
q47 0 84 -37.5t37 -97.5t-38.5 -126t-93.5 -112q-20 -18 -30 -8z" />
    <glyph glyph-name="Rcaron" unicode="&#x158;" horiz-adv-x="1183" 
d="M856 1513q-29 -29 -55 -27t-37 32q-42 112 -92 182q-22 36 -17 45q9 15 45 -21q5 -5 23 -24t30.5 -31t29.5 -27t31 -23t24 -7q12 0 51 20q157 96 160 97q51 26 59 12q6 -16 -39 -45q-92 -61 -213 -183zM-53 -10q-14 0 -22 4.5t-4 11t22 12.5q73 13 112 58.5t72 150.5
l301 924l-2 -2q25 71 31 114t-9 66.5t-55 26.5q-26 2 -34 14q-4 7 10 10l28 2q12 0 81 -5t102 -5q35 0 137 10q115 11 143 11q137 0 210 -68t73 -180q0 -190 -133 -311q-131 -119 -330 -140q48 -15 72 -59q7 -7 14.5 -28.5t9.5 -33.5l19 -71q83 -323 112 -398
q34 -75 101 -81q21 0 29 -3t7 -10q-3 -6 -34 -12q-36 -8 -113 -8q-84 0 -111 71q-1 4 -9.5 23.5t-19 47.5t-24.5 73.5t-32 120t-37 166.5q-20 112 -43 153q-21 38 -78 47q-10 1 -58.5 5.5t-62.5 4.5l-158 -479q-43 -123 -33 -160q9 -36 70 -45q16 -2 21.5 -7t1.5 -15
q-3 -6 -25 -6q-31 0 -96 6q-86 4 -90 4q-19 0 -80.5 -5t-85.5 -5zM670 723q147 21 248 137q100 112 100 281q0 93 -65 152t-169 59q-64 0 -155 -15l-203 -610q159 -16 244 -4z" />
    <glyph glyph-name="rcaron" unicode="&#x159;" horiz-adv-x="821" 
d="M643 1133q-26 -30 -55 -28.5t-37 32.5q-26 93 -72 194q-18 41 -12 47q16 16 43 -24q3 -5 18.5 -27.5t24.5 -34.5t23 -28.5t26 -24.5t23 -8q14 0 47 20q24 15 84 60l65 47q48 33 58 16q5 -13 -35 -47q-115 -91 -201 -194zM131 -20q-25 0 -25 26q0 18 41 139
q37 104 105 312q57 173 98 338q14 45 11.5 66.5t-10 26t-23.5 1.5q-51 -9 -144 -133q-19 -25 -28 -19q-1 1 -1.5 6t1 13t6.5 14q99 136 150 185t108 49q47 0 63.5 -28.5t5.5 -90.5q-13 -77 -53 -199l-43 -119l-43 -118q81 175 205 358q144 208 281 217q55 1 88.5 -24.5
t33.5 -65.5q0 -34 -27.5 -59t-60.5 -25q-30 0 -79 22q-48 23 -62 23q-44 0 -82 -31t-98 -119q-142 -211 -324 -720q-15 -45 -94 -45z" />
    <glyph glyph-name="Sacute" unicode="&#x15a;" horiz-adv-x="882" 
d="M1018 1677l-305 -157q-37 -18 -43 -9q-7 10 20 31l201 154q3 1 17.5 13t17.5 13q44 11 63 11q46 0 55 -18.5t-26 -37.5zM256 -20q-123 3 -274 94q-29 16 -23 61q10 90 61 242q12 37 21 37q17 0 8 -33q-47 -174 2 -252q34 -57 106 -90t144 -33q115 0 203 70q90 72 90 207
q0 38 -12 88q-7 30 -35 94q-14 40 -47 98l-29 51l-25 50l-71 141q-28 56 -50 129.5t-22 126.5q0 172 143 266q115 77 234 74q71 -3 127 -25l49 -20q29 -12 109 -56q31 -15 16 -61l-39 -106l-27 -93q-9 -39 -14 -39q-16 0 -10 41q21 147 -14 205q-70 119 -218 119
q-102 0 -171.5 -75t-69.5 -197q0 -56 24 -129q27 -73 45 -111q18 -30 76 -133q3 -6 8.5 -15t6.5 -12q131 -232 131 -360q0 -68 -31 -135q-46 -95 -107 -140q-136 -97 -315 -79z" />
    <glyph glyph-name="sacute" unicode="&#x15b;" horiz-adv-x="649" 
d="M813 1432l-223 -281q-30 -40 -33 -16q0 12 10 39l119 276q21 49 111 49q80 0 16 -67zM135 -20q-80 0 -130 40t-44 101q1 30 23 52t47 22q13 0 21 -11t20 -47q25 -67 50.5 -92t78.5 -25q48 0 92 29q73 54 82 148q6 63 -22.5 146t-73.5 155q-42 73 -61.5 153.5t-0.5 143.5
q28 89 127 163q91 66 191 66q69 0 114 -33t39 -78q-4 -31 -25 -51t-47 -20q-30 0 -59 51q-27 41 -47.5 56.5t-56.5 15.5q-57 0 -94.5 -29t-49.5 -84q-12 -42 4.5 -103t47 -123.5t62 -124.5t50.5 -123.5t10 -103.5q-7 -68 -56 -134t-122 -111q-79 -49 -170 -49z" />
    <glyph glyph-name="Scedilla" unicode="&#x15e;" horiz-adv-x="882" 
d="M965 1300q31 -15 16 -61l-39 -106l-27 -93q-9 -39 -14 -39q-16 0 -10 41q21 147 -14 205q-70 119 -218 119q-102 0 -171.5 -75t-69.5 -197q0 -56 24 -129q27 -73 45 -111q18 -30 76 -133q3 -6 8.5 -15t6.5 -12q131 -232 131 -360q0 -68 -31 -135q-46 -95 -107 -140
q-136 -97 -315 -79h-16q-39 -31 -50.5 -47t-11.5 -39q0 -14 37 -87q21 -41 21 -69q0 -50 -68 -94q-45 -25 -92 -25q-68 0 -103 27q-17 13 -15 31t16.5 24t35.5 -4q56 -41 113 -41q21 0 35 11.5t14 29.5q0 24 -47 104q-19 29 -19 58q0 55 111 125q-102 11 -235 90
q-29 16 -23 61q10 90 61 242q12 37 21 37q17 0 8 -33q-47 -174 2 -252q34 -57 106 -90t144 -33q115 0 203 70q90 72 90 207q0 38 -12 88q-7 30 -35 94q-14 40 -47 98l-29 51l-25 50l-71 141q-28 56 -50 129.5t-22 126.5q0 172 143 266q115 77 234 74q71 -3 127 -25l49 -20
q29 -12 109 -56z" />
    <glyph glyph-name="scedilla" unicode="&#x15f;" horiz-adv-x="649" 
d="M535 1024q69 0 114 -33t39 -78q-4 -31 -25 -51t-47 -20q-30 0 -59 51q-27 41 -47.5 56.5t-56.5 15.5q-57 0 -94.5 -29t-49.5 -84q-12 -42 4.5 -103t47 -123.5t62 -124.5t50.5 -123.5t10 -103.5q-7 -68 -56 -134t-122 -111q-70 -43 -151 -49q-39 -31 -50.5 -47t-11.5 -39
q0 -14 37 -87q21 -41 21 -69q0 -50 -68 -94q-45 -25 -92 -25q-68 0 -103 27q-17 13 -15 31t16.5 24t35.5 -4q56 -41 113 -41q21 0 35 11.5t14 29.5q0 24 -47 104q-19 29 -19 58q0 51 105 121q-77 5 -123.5 43.5t-40.5 97.5q1 30 23 52t47 22q13 0 21 -11t20 -47
q25 -67 50.5 -92t78.5 -25q48 0 92 29q73 54 82 148q6 63 -22.5 146t-73.5 155q-42 73 -61.5 153.5t-0.5 143.5q28 89 127 163q91 66 191 66z" />
    <glyph glyph-name="Scaron" unicode="&#x160;" horiz-adv-x="882" 
d="M809 1513q-29 -29 -55 -27t-37 32q-42 112 -92 182q-22 36 -17 45q9 15 45 -21q5 -5 23 -24t30.5 -31t29.5 -27t31 -23t24 -7q12 0 51 20q18 11 55.5 34.5t64.5 40t39 22.5q51 26 59.5 12t-38.5 -45q-91 -61 -213 -183zM256 -20q-123 3 -274 94q-29 16 -23 61
q10 90 61 242q12 37 21 37q17 0 8 -33q-47 -174 2 -252q34 -57 106 -90t144 -33q115 0 203 70q90 72 90 207q0 38 -12 88q-7 30 -35 94q-14 40 -47 98l-29 51l-25 50l-71 141q-28 56 -50 129.5t-22 126.5q0 172 143 266q115 77 234 74q71 -3 127 -25l49 -20q29 -12 109 -56
q31 -15 16 -61l-39 -106l-27 -93q-9 -39 -14 -39q-16 0 -10 41q21 147 -14 205q-70 119 -218 119q-102 0 -171.5 -75t-69.5 -197q0 -56 24 -129q27 -73 45 -111q18 -30 76 -133q3 -6 8.5 -15t6.5 -12q131 -232 131 -360q0 -68 -31 -135q-46 -95 -107 -140q-136 -97 -315 -79
z" />
    <glyph glyph-name="scaron" unicode="&#x161;" horiz-adv-x="649" 
d="M633 1153q-26 -30 -55 -28.5t-37 32.5q-27 96 -72 195q-18 41 -12 47q16 16 43 -25q4 -6 18.5 -27.5t24 -34t23 -29t25.5 -24.5t23 -8q14 0 48 21q26 16 83 59l66 47q47 33 57 17q5 -13 -34 -47q-113 -89 -201 -195zM135 -20q-80 0 -130 40t-44 101q1 30 23 52t47 22
q13 0 21 -11t20 -47q25 -67 50.5 -92t78.5 -25q48 0 92 29q73 54 82 148q6 63 -22.5 146t-73.5 155q-42 73 -61.5 153.5t-0.5 143.5q28 89 127 163q91 66 191 66q69 0 114 -33t39 -78q-4 -31 -25 -51t-47 -20q-30 0 -59 51q-27 41 -47.5 56.5t-56.5 15.5q-57 0 -94.5 -29
t-49.5 -84q-12 -42 4.5 -103t47 -123.5t62 -124.5t50.5 -123.5t10 -103.5q-7 -68 -56 -134t-122 -111q-79 -49 -170 -49z" />
    <glyph glyph-name="uni0162" unicode="&#x162;" horiz-adv-x="1095" 
d="M1327 1415q11 25 21 8q3 -8 0 -22q-41 -133 -50 -242q-3 -37 -14 -41q-9 -3 -12 15q-3 9 0 24q11 111 -19.5 150.5t-128.5 40.5h-241l-365 -1125q-41 -127 -35 -157q9 -39 70 -48q17 -1 23.5 -7.5t1.5 -14.5q-3 -6 -25 -6q-20 0 -86 5t-90 5h-35q-59 -47 -59 -86
q0 -15 36 -86q21 -40 21 -70q0 -50 -68 -94q-43 -24 -92 -24q-69 0 -102 26q-17 13 -15 31t16.5 24t35.5 -4q56 -41 112 -41q21 0 35 11.5t14 29.5q0 25 -47 105q-18 27 -18 57q0 53 100 119q-63 -8 -110 -8q-14 0 -22 4.5t-4 11t22 12.5q73 13 110.5 57t73.5 152l364 1121
h-219q-104 -3 -153 -41t-121 -154q-12 -20 -19.5 -28t-13.5 -7q-14 3 8 45q70 135 109 246q9 21 20 16q9 -3 6 -14q-3 -36 78 -39h56h34h598q9 1 65 1t89.5 8.5t44.5 33.5z" />
    <glyph glyph-name="uni0163" unicode="&#x163;" horiz-adv-x="612" 
d="M467 975l276 12q14 2 17 -2.5t-2 -23.5q-15 -43 -45 -43l-260 12l-220 -654q-26 -79 -26 -126q0 -74 57 -74q83 0 221 135q25 28 35 18q2 -2 2 -4q0 -8 -16 -30q-170 -215 -313 -215q-47 0 -74 24q-55 -42 -70.5 -61t-15.5 -45q0 -13 37 -86q20 -39 20 -70q0 -51 -67 -94
q-45 -25 -93 -25q-68 0 -102 27q-17 13 -15 31t16.5 24t35.5 -4q56 -41 112 -41q21 0 35.5 11.5t14.5 29.5q0 24 -47 104q-19 29 -19 58q0 39 53 82q6 5 16 12t13 10q7 4 28.5 20t24.5 17h23q-33 29 -33 102q0 98 57 269l154 452q18 53 18 78q0 23 -19 30t-71 5h-2
q-16 0 -16 10q0 15 26 15q81 0 152 50t113 142q16 29 26 29q6 0 6 -8q0 -1 -4 -21z" />
    <glyph glyph-name="Tcaron" unicode="&#x164;" horiz-adv-x="1095" 
d="M850 1501q-42 112 -92 182q-22 36 -17 46q9 15 45 -21q6 -6 23 -24t30 -31t30 -28t31 -23t24 -7q10 0 51 21q146 89 160 96q51 26 59 12q6 -16 -39 -45q-95 -64 -213 -182q-29 -29 -55 -27.5t-37 31.5zM1327 1415q11 25 21 8q3 -8 0 -22q-41 -133 -50 -242
q-3 -37 -14 -41q-9 -3 -12 15q-3 9 0 24q11 111 -19.5 150.5t-128.5 40.5h-241l-365 -1125q-41 -127 -35 -157q9 -39 70 -48q17 -1 23.5 -7.5t1.5 -14.5q-3 -6 -25 -6q-20 0 -86 5t-90 5t-89.5 -5t-86.5 -5q-14 0 -22 4.5t-4 11t22 12.5q73 13 110.5 57t73.5 152l364 1121
h-219q-104 -3 -153 -41t-121 -154q-12 -20 -19.5 -28t-13.5 -7q-14 3 8 45q70 135 109 246q9 21 20 16q9 -3 6 -14q-3 -36 78 -39h56h34h598q9 1 65 1t89.5 8.5t44.5 33.5z" />
    <glyph glyph-name="tcaron" unicode="&#x165;" horiz-adv-x="612" 
d="M733 1380q47 24 60.5 20t1.5 -40q-40 -136 -144 -283q-7 -10 -15.5 -24.5t-12.5 -19.5t-9 -5q-2 1 -1 7.5t8 25.5q0 4 2 6q61 171 79 279q3 22 31 34zM467 975l276 12q14 2 17 -2.5t-2 -23.5q-15 -43 -45 -43l-260 12l-220 -654q-26 -79 -26 -126q0 -74 57 -74
q83 0 221 135q25 28 35 18q2 -2 2 -4q0 -8 -16 -30q-170 -215 -313 -215q-107 0 -107 126q0 98 57 269l154 452q18 53 18 78q0 23 -19 30t-71 5h-2q-16 0 -16 10q0 15 26 15q81 0 152 50t113 142q16 29 26 29q6 0 6 -8q0 -1 -4 -21z" />
    <glyph glyph-name="Tbar" unicode="&#x166;" horiz-adv-x="1095" 
d="M1327 1415q11 25 21 8q3 -8 0 -22q-41 -133 -50 -242q-3 -37 -14 -41q-9 -3 -12 15q-3 9 0 24q11 111 -19.5 150.5t-128.5 40.5h-241l-209 -646h137q16 0 20.5 -2.5t2.5 -9.5q-6 -16 -31 -16h-139l-146 -451q-41 -127 -35 -157q9 -39 70 -48q17 -1 23.5 -7.5t1.5 -14.5
q-3 -6 -25 -6q-20 0 -86 5t-90 5t-89.5 -5t-86.5 -5q-14 0 -22 4.5t-4 11t22 12.5q73 13 110.5 57t73.5 152l145 447h-137q-17 0 -23 4t-1 12q6 12 30 12h142l208 646h-219q-104 -3 -153 -41t-121 -154q-12 -20 -19.5 -28t-13.5 -7q-14 3 8 45q70 135 109 246q9 21 20 16
q9 -3 6 -14q-3 -36 78 -39h56h34h598q9 1 65 1t89.5 8.5t44.5 33.5z" />
    <glyph glyph-name="tbar" unicode="&#x167;" horiz-adv-x="612" 
d="M467 975l276 12q14 2 17 -2.5t-2 -23.5q-15 -43 -45 -43l-260 12l-107 -318h215q11 0 16.5 -3.5t4.5 -10.5q-3 -14 -23 -14h-223l-103 -308q-26 -79 -26 -126q0 -74 57 -74q83 0 221 135q25 28 35 18q2 -2 2 -4q0 -8 -16 -30q-170 -215 -313 -215q-107 0 -107 126
q0 98 57 269l72 209h-113q-11 0 -16 3.5t-4 10.5q3 14 22 14h119l74 215q18 53 18 78q0 23 -19 30t-71 5h-2q-16 0 -16 10q0 15 26 15q81 0 152 50t113 142q16 29 26 29q6 0 6 -8q0 -1 -4 -21z" />
    <glyph glyph-name="Umacron" unicode="&#x16a;" horiz-adv-x="1325" 
d="M1296 1552h-557q-23 0 -35 6.5t-8 16.5q9 22 43 22h559q24 0 35.5 -6t7.5 -16q-10 -23 -45 -23zM1509 1382q38 0 35 -16q-4 -7 -37 -10q-83 -9 -121 -53q-32 -40 -75 -160q-5 -21 -31 -92q-153 -460 -233 -643q-75 -177 -199 -289q-160 -139 -342 -139q-465 0 -318 501
q37 125 211 668q18 53 24.5 85t3.5 58.5t-20 40.5t-51 21q-24 6 -18 20q3 8 29 8q23 0 88.5 -5t91.5 -5q8 0 82 4q59 6 86 6q11 0 18 -4t6 -10q-3 -11 -30 -14q-45 -6 -71 -20.5t-46 -45.5q-22 -35 -57 -143q-150 -464 -203 -641q-24 -82 -34.5 -145.5t-4.5 -122.5
t33.5 -97.5t83 -61.5t139.5 -24q102 0 176 31t152 111q98 103 176 301q80 205 221 655q34 100 27.5 149.5t-64.5 55.5q-29 0 -36 12q-4 7 10 11q10 2 28 3q11 0 57.5 -5t67.5 -5q12 0 67 5t78 5z" />
    <glyph glyph-name="umacron" unicode="&#x16b;" horiz-adv-x="1112" 
d="M1032 1184h-557q-25 0 -36 6t-7 16q10 23 43 23h559q23 0 35 -6.5t8 -16.5q-9 -22 -45 -22zM197 -20q-114 0 -111 100q5 54 16.5 101t40.5 126l172 492q44 121 7 121h-11q-47 -6 -143 -134q-18 -24 -29.5 -18.5t8.5 33.5q89 123 151.5 178t121.5 55q40 0 56.5 -25
t8.5 -69q-9 -54 -49 -160l-180 -497q-83 -226 10 -226q84 0 234 185q147 180 272 399q124 212 166 338q15 45 94 45q25 0 25 -27q0 -10 -31 -98l-244 -711q-35 -96 13 -96t153 135q23 33 33 27q8 -8 -12 -41q-89 -124 -149 -178.5t-118 -54.5q-71 0 -71 81q0 1 4 37
q9 67 172 510q-223 -333 -360.5 -480.5t-249.5 -147.5z" />
    <glyph glyph-name="Uring" unicode="&#x16e;" horiz-adv-x="1325" 
d="M993 1352q-87 0 -130.5 49t-24.5 127q15 71 88 123q73 55 151 55q82 0 125.5 -49.5t26.5 -124.5q-15 -70 -88 -125q-70 -55 -148 -55zM887 1522q-14 -67 13.5 -106.5t92.5 -39.5q63 0 119 48.5t68 111.5q14 66 -14 105.5t-89 39.5t-117 -47.5t-73 -111.5zM1509 1382
q38 0 35 -16q-4 -7 -37 -10q-83 -9 -121 -53q-32 -40 -75 -160q-5 -21 -31 -92q-153 -460 -233 -643q-75 -177 -199 -289q-160 -139 -342 -139q-465 0 -318 501q37 125 211 668q18 53 24.5 85t3.5 58.5t-20 40.5t-51 21q-24 6 -18 20q3 8 29 8q23 0 88.5 -5t91.5 -5
q8 0 82 4q59 6 86 6q11 0 18 -4t6 -10q-3 -11 -30 -14q-45 -6 -71 -20.5t-46 -45.5q-22 -35 -57 -143q-150 -464 -203 -641q-24 -82 -34.5 -145.5t-4.5 -122.5t33.5 -97.5t83 -61.5t139.5 -24q102 0 176 31t152 111q98 103 176 301q80 205 221 655q34 100 27.5 149.5
t-64.5 55.5q-29 0 -36 12q-4 7 10 11q10 2 28 3q11 0 57.5 -5t67.5 -5q12 0 67 5t78 5z" />
    <glyph glyph-name="uring" unicode="&#x16f;" horiz-adv-x="1112" 
d="M733 1085q-86 0 -130 49.5t-25 127.5q15 70 88 122q74 56 151 56q82 0 125.5 -49.5t26.5 -124.5q-15 -70 -88 -125q-71 -56 -148 -56zM733 1110q63 0 119 48.5t68 111.5q14 66 -14 105.5t-89 39.5t-116.5 -48t-73.5 -112q-14 -67 13.5 -106t92.5 -39zM197 -20
q-114 0 -111 100q5 54 16.5 101t40.5 126l172 492q44 121 7 121h-11q-47 -6 -143 -134q-18 -24 -29.5 -18.5t8.5 33.5q89 123 151.5 178t121.5 55q40 0 56.5 -25t8.5 -69q-9 -54 -49 -160l-180 -497q-83 -226 10 -226q84 0 234 185q147 180 272 399q124 212 166 338
q15 45 94 45q25 0 25 -27q0 -10 -31 -98l-244 -711q-35 -96 13 -96t153 135q23 33 33 27q8 -8 -12 -41q-89 -124 -149 -178.5t-118 -54.5q-71 0 -71 81q0 1 4 37q9 67 172 510q-223 -333 -360.5 -480.5t-249.5 -147.5z" />
    <glyph glyph-name="Uhungarumlaut" unicode="&#x170;" horiz-adv-x="1325" 
d="M1182 1702l-164 -170q-22 -22 -31 -12q-4 4 12 32l88 156q23 45 93 45q47 0 2 -51zM956 1686l-143 -154q-21 -22 -31 -12q-2 2 13 32l73 140q14 26 31.5 35.5t54.5 9.5q47 0 2 -51zM1509 1382q38 0 35 -16q-4 -7 -37 -10q-83 -9 -121 -53q-32 -40 -75 -160
q-5 -21 -31 -92q-153 -460 -233 -643q-75 -177 -199 -289q-160 -139 -342 -139q-465 0 -318 501q37 125 211 668q18 53 24.5 85t3.5 58.5t-20 40.5t-51 21q-24 6 -18 20q3 8 29 8q23 0 88.5 -5t91.5 -5q8 0 82 4q59 6 86 6q11 0 18 -4t6 -10q-3 -11 -30 -14
q-45 -6 -71 -20.5t-46 -45.5q-22 -35 -57 -143q-150 -464 -203 -641q-24 -82 -34.5 -145.5t-4.5 -122.5t33.5 -97.5t83 -61.5t139.5 -24q102 0 176 31t152 111q98 103 176 301q80 205 221 655q34 100 27.5 149.5t-64.5 55.5q-29 0 -36 12q-4 7 10 11q10 2 28 3q11 0 57.5 -5
t67.5 -5q12 0 67 5t78 5z" />
    <glyph glyph-name="uhungarumlaut" unicode="&#x171;" horiz-adv-x="1112" 
d="M643 1145q-15 3 -2 33l111 254q27 63 47 18q21 -52 -6 -96l-125 -185q-21 -24 -25 -24zM827 1145q-15 3 -2 33l111 254q27 63 47 18q21 -52 -6 -96l-125 -185q-21 -24 -25 -24zM197 -20q-114 0 -111 100q5 54 16.5 101t40.5 126l172 492q44 121 7 121h-11
q-47 -6 -143 -134q-18 -24 -29.5 -18.5t8.5 33.5q89 123 151.5 178t121.5 55q40 0 56.5 -25t8.5 -69q-9 -54 -49 -160l-180 -497q-83 -226 10 -226q84 0 234 185q147 180 272 399q124 212 166 338q15 45 94 45q25 0 25 -27q0 -10 -31 -98l-244 -711q-35 -96 13 -96t153 135
q23 33 33 27q8 -8 -12 -41q-89 -124 -149 -178.5t-118 -54.5q-71 0 -71 81q0 1 4 37q9 67 172 510q-223 -333 -360.5 -480.5t-249.5 -147.5z" />
    <glyph glyph-name="Uogonek" unicode="&#x172;" horiz-adv-x="1325" 
d="M1509 1382q38 0 35 -16q-4 -7 -37 -10q-83 -9 -121 -53q-32 -40 -75 -160q-5 -21 -31 -92q-153 -460 -233 -643q-75 -177 -199 -289q-91 -79 -193 -115q-206 -138 -206 -233q0 -37 24.5 -58.5t58.5 -21.5q47 0 89 28q18 15 18 0q0 -10 -18 -34q-59 -68 -142 -68
q-45 0 -76.5 30.5t-31.5 84.5q0 112 221 256q-36 -8 -86 -8q-465 0 -318 501q37 125 211 668q18 53 24.5 85t3.5 58.5t-20 40.5t-51 21q-24 6 -18 20q3 8 29 8q23 0 88.5 -5t91.5 -5q8 0 82 4q59 6 86 6q11 0 18 -4t6 -10q-3 -11 -30 -14q-45 -6 -71 -20.5t-46 -45.5
q-22 -35 -57 -143q-150 -464 -203 -641q-24 -82 -34.5 -145.5t-4.5 -122.5t33.5 -97.5t83 -61.5t139.5 -24q102 0 176 31t152 111q98 103 176 301q80 205 221 655q34 100 27.5 149.5t-64.5 55.5q-29 0 -36 12q-4 7 10 11q10 2 28 3q11 0 57.5 -5t67.5 -5q12 0 67 5t78 5z
" />
    <glyph glyph-name="uogonek" unicode="&#x173;" horiz-adv-x="1112" 
d="M1026 899l-244 -711q-35 -96 13 -96t153 135q23 33 33 27q8 -8 -12 -41q-89 -124 -149 -178.5t-118 -54.5q-19 0 -34 6q-181 -120 -181 -215q0 -37 25 -58.5t59 -21.5q46 0 88 28q19 16 19 0q0 -9 -19 -34q-59 -68 -141 -68q-45 0 -76.5 30.5t-31.5 84.5q0 119 239 268
q-18 21 -18 61q0 1 4 37q9 67 172 510q-223 -333 -360.5 -480.5t-249.5 -147.5q-114 0 -111 100q5 54 16.5 101t40.5 126l172 492q44 121 7 121h-11q-47 -6 -143 -134q-18 -24 -29.5 -18.5t8.5 33.5q89 123 151.5 178t121.5 55q40 0 56.5 -25t8.5 -69q-9 -54 -49 -160
l-180 -497q-83 -226 10 -226q84 0 234 185q147 180 272 399q124 212 166 338q15 45 94 45q25 0 25 -27q0 -10 -31 -98z" />
    <glyph glyph-name="Wcircumflex" unicode="&#x174;" horiz-adv-x="1861" 
d="M1221 1487q-49 -27 -58 -12q-9 9 39 45q104 75 211 182q29 27 55.5 26t36.5 -30q21 -64 92 -182q24 -41 19 -46q-12 -12 -45 21q-6 5 -41.5 39t-62 56t-33.5 18q-12 0 -56 -23t-90 -53q-13 -8 -28.5 -17.5t-24.5 -15t-14 -8.5zM2087 1382q38 0 36 -13q0 -1 -1 -3
q-4 -7 -35 -10q-54 -6 -106 -52t-146 -167l-791 -1018l-79 -113q-20 -26 -27 -26q-3 0 -6.5 4.5t-5.5 14t0 21.5l133 910l-629 -811l-80 -113q-20 -26 -26 -26q-3 0 -7 4.5t-6 14t0 21.5l168 1147q16 112 -10 140q-24 30 -102 45q-32 6 -34 12q-1 3 1 6q3 8 37 8
q7 0 19 -0.5t35 -1.5t40 -2q47 -2 98 -2q8 0 86 4q58 6 86 6q38 0 35 -16q-4 -7 -37 -10q-60 -5 -90 -47.5t-43 -145.5l-127 -942l598 787l23 159q15 111 -11 140q-24 30 -102 45q-32 6 -34 12q-1 3 1 6q3 8 37 8l94 -4q47 -2 99 -2q8 0 86 4q58 6 86 6q18 0 27 -4t7 -12
q-4 -7 -36 -10q-60 -5 -90.5 -48t-43.5 -145l-129 -944l713 940q138 185 2 197q-29 0 -36 12q-4 7 10 11q10 2 28 3q18 0 74 -5t72 -5t70 5t69 5z" />
    <glyph glyph-name="wcircumflex" unicode="&#x175;" horiz-adv-x="1361" 
d="M848 1161q-51 -36 -57 -20q-3 9 38 47q168 159 199 194q27 30 55.5 30t36.5 -30q34 -136 74 -194q24 -34 8 -47q-17 -13 -43 20q-3 3 -33 42.5t-52 63t-30 19.5q-28 0 -196 -125zM1307 1022q59 0 59 -131q0 -153 -96 -350q-93 -191 -209 -316q-150 -163 -270 -219
q-67 -31 -117 -31q-82 0 -82 134q0 65 16 163q-5 -5 -20 -24t-19 -23q-159 -173 -270 -219q-67 -31 -117 -31q-40 0 -65.5 36.5t-24.5 97.5q0 62 43 190q112 296 189 481q21 53 25 81.5t-4 35t-26 4.5q-48 -6 -143 -133q-18 -24 -29 -19t9 33q89 123 151 178.5t121 55.5
q84 0 66 -115q-9 -46 -50 -139q-9 -25 -71 -182q-131 -330 -144 -383q-18 -57 -6 -89t51 -32q77 0 169 73.5t180 196.5q34 152 94 305q61 152 108 223q60 84 115 84q29 0 29 -30q0 -110 -232 -508q-35 -140 -35 -236q0 -46 19.5 -78t54.5 -32q90 0 209 116q120 120 205 283
q85 162 88 287q3 35 -27 86q-26 45 -26 88q0 36 24.5 62t57.5 26z" />
    <glyph glyph-name="Ycircumflex" unicode="&#x176;" horiz-adv-x="1300" 
d="M850 1487q-48 -26 -57 -12q-10 10 38 45q104 75 211 182q29 27 56 26t37 -30q21 -64 92 -182q24 -40 18 -46q-12 -12 -45 21q-6 5 -41.5 39t-62 56t-33.5 18q-11 0 -55 -23t-90 -53q-66 -40 -68 -41zM1489 1382q38 0 36 -13q0 -1 -1 -3q-4 -7 -35 -10q-95 -9 -229 -158
l-502 -551l-137 -426q-44 -128 -35 -158q12 -38 69 -47q14 -2 21.5 -8.5t3.5 -13.5q-3 -6 -27 -6q-29 0 -88 6q-78 4 -82 4q-25 0 -90 -5t-88 -5q-14 0 -21 4.5t-3 11t20 12.5q76 13 113.5 57t70.5 152l138 420l-127 537q-41 155 -119 170q-27 2 -34 12q-4 8 17 12l21 2
q6 0 92 -4q45 -2 90 -2q16 0 94 4q61 6 86 6q38 0 36 -13q0 -1 -1 -3q-4 -7 -37 -10q-65 -5 -97.5 -54.5t-14.5 -125.5l123 -500l465 532q40 47 52.5 78t-4 48.5t-63.5 21.5q-29 0 -36 12q-4 7 10 11q10 2 28 3q18 0 74 -5t72 -5t70 5t69 5z" />
    <glyph glyph-name="ycircumflex" unicode="&#x177;" horiz-adv-x="942" 
d="M420 1141q-3 8 39 47q163 154 198 194q27 30 56 30t37 -30q35 -139 73 -194q24 -34 8 -47q-17 -13 -43 20q-3 4 -33 43t-51.5 62.5t-29.5 19.5q-29 0 -197 -125q-51 -36 -57 -20zM-117 -532q-44 0 -70 20t-26 55q0 81 107 78q255 -9 366 123q161 193 164 674
q3 212 -39 358q-41 141 -123 135q-90 -6 -149 -145q-9 -24 -25 -21q-11 3 4 46q39 104 96 168.5t113 64.5q123 0 184 -156q62 -157 62 -403q0 -252 -25 -402q275 384 299 601q16 158 -4 247q-8 36 -8 56q0 26 22 42.5t54 14.5q74 -3 65 -123q-9 -99 -76 -274
q-71 -183 -167 -338q-224 -365 -443 -594q-217 -227 -381 -227z" />
    <glyph glyph-name="Ydieresis" unicode="&#x178;" horiz-adv-x="1300" 
d="M877 1552q-31 0 -48.5 19t-17.5 49q0 40 28 71t56 31q31 0 49.5 -21.5t18.5 -58.5q0 -35 -27.5 -62.5t-58.5 -27.5zM1204 1552q-31 0 -48 19t-17 49q0 40 28 71t56 31q31 0 49 -21.5t18 -58.5q0 -35 -27.5 -62.5t-58.5 -27.5zM1489 1382q38 0 36 -13q0 -1 -1 -3
q-4 -7 -35 -10q-95 -9 -229 -158l-502 -551l-137 -426q-44 -128 -35 -158q12 -38 69 -47q14 -2 21.5 -8.5t3.5 -13.5q-3 -6 -27 -6q-29 0 -88 6q-78 4 -82 4q-25 0 -90 -5t-88 -5q-14 0 -21 4.5t-3 11t20 12.5q76 13 113.5 57t70.5 152l138 420l-127 537q-41 155 -119 170
q-27 2 -34 12q-4 8 17 12l21 2q6 0 92 -4q45 -2 90 -2q16 0 94 4q61 6 86 6q38 0 36 -13q0 -1 -1 -3q-4 -7 -37 -10q-65 -5 -97.5 -54.5t-14.5 -125.5l123 -500l465 532q40 47 52.5 78t-4 48.5t-63.5 21.5q-29 0 -36 12q-4 7 10 11q10 2 28 3q18 0 74 -5t72 -5t70 5t69 5z
" />
    <glyph glyph-name="Zacute" unicode="&#x179;" horiz-adv-x="1097" 
d="M1178 1657l-306 -158q-37 -18 -43 -8t21 31l201 153q3 1 17 13.5t17 13.5q40 10 64 10q46 0 55 -18t-26 -37zM1317 1382q12 1 14 -7t-6 -19l-1214 -1331h354q3 0 194 6q108 3 158 47q56 49 137 203q10 18 18 27t13 7q16 -3 -6 -45q-77 -157 -107 -237q-15 -43 -49 -43
q-20 0 -172 4q-337 6 -579 6q-20 0 -133 -10q-12 -1 -15.5 7t4.5 19l1217 1332l-500 -11q-101 -3 -156 -37q-53 -33 -131 -143q-26 -39 -34 -31q-7 2 -4.5 13.5t14.5 31.5l37 56q62 100 96 184q8 19 20 16q8 -3 5 -18q-9 -27 34 -37q14 -2 39 -2q14 0 49.5 1t38.5 1h512
q50 0 152 10z" />
    <glyph glyph-name="zacute" unicode="&#x17a;" horiz-adv-x="954" 
d="M901 1411l-223 -281q-30 -40 -33 -16q0 12 10 39l119 277q21 49 111 49q81 0 16 -68zM567 -25q-26 0 -243 41q-212 43 -261 43q-70 0 -137 -55q-20 -14 -20 -2q-3 21 59 80l854 795q-38 -23 -102 -23q-69 0 -209 31q-124 28 -158 28q-92 0 -174 -147q-19 -29 -24 -29
q-15 0 4 43l63 121q12 20 49 70q30 36 58.5 44.5t83.5 6.5q39 -2 194 -33q156 -32 221 -35q79 0 156 74l4 2q10 0 14 -9t-4 -15l-923 -867q34 17 98 17q19 0 49 -6q9 -2 83.5 -16.5t109.5 -20.5l77 -15l121 -20q53 -6 82.5 1.5t50.5 35.5q25 39 25 65q0 45 -80 80
q-44 14 -41 53q3 36 53 45q42 7 71.5 -21.5t31.5 -72.5q0 -94 -58 -182q-72 -116 -178 -107z" />
    <glyph glyph-name="Zdotaccent" unicode="&#x17b;" horiz-adv-x="1097" 
d="M942 1548q-40 0 -61.5 26.5t-14.5 72.5t37 72t70 26q38 0 59.5 -27.5t14.5 -70.5q-7 -46 -37 -72.5t-68 -26.5zM1317 1382q12 1 14 -7t-6 -19l-1214 -1331h354q3 0 194 6q108 3 158 47q56 49 137 203q10 18 18 27t13 7q16 -3 -6 -45q-77 -157 -107 -237q-15 -43 -49 -43
q-20 0 -172 4q-337 6 -579 6q-20 0 -133 -10q-12 -1 -15.5 7t4.5 19l1217 1332l-500 -11q-101 -3 -156 -37q-53 -33 -131 -143q-26 -39 -34 -31q-7 2 -4.5 13.5t14.5 31.5l37 56q62 100 96 184q8 19 20 16q8 -3 5 -18q-9 -27 34 -37q14 -2 39 -2q14 0 49.5 1t38.5 1h512
q50 0 152 10z" />
    <glyph glyph-name="zdotaccent" unicode="&#x17c;" horiz-adv-x="954" 
d="M719 1180q-40 0 -61.5 26t-14.5 72t37 72t70 26q38 0 59 -27.5t14 -70.5q-7 -46 -36.5 -72t-67.5 -26zM567 -25q-26 0 -243 41q-212 43 -261 43q-70 0 -137 -55q-20 -14 -20 -2q-3 21 59 80l854 795q-38 -23 -102 -23q-69 0 -209 31q-124 28 -158 28q-92 0 -174 -147
q-19 -29 -24 -29q-15 0 4 43l63 121q12 20 49 70q30 36 58.5 44.5t83.5 6.5q39 -2 194 -33q156 -32 221 -35q79 0 156 74l4 2q10 0 14 -9t-4 -15l-923 -867q34 17 98 17q19 0 49 -6q9 -2 83.5 -16.5t109.5 -20.5l77 -15l121 -20q53 -6 82.5 1.5t50.5 35.5q25 39 25 65
q0 45 -80 80q-44 14 -41 53q3 36 53 45q42 7 71.5 -21.5t31.5 -72.5q0 -94 -58 -182q-72 -116 -178 -107z" />
    <glyph glyph-name="Zcaron" unicode="&#x17d;" horiz-adv-x="1097" 
d="M877 1497q-41 109 -93 182q-21 35 -16 45q9 16 45 -20q6 -6 23 -24t30 -31t29.5 -28t30.5 -23t24 -7q10 0 51 21q146 89 160 96q51 26 60 12q6 -16 -39 -45q-95 -64 -213 -182q-29 -29 -55 -27.5t-37 31.5zM1317 1382q12 1 14 -7t-6 -19l-1214 -1331h354q3 0 194 6
q108 3 158 47q56 49 137 203q10 18 18 27t13 7q16 -3 -6 -45q-77 -157 -107 -237q-15 -43 -49 -43q-20 0 -172 4q-337 6 -579 6q-20 0 -133 -10q-12 -1 -15.5 7t4.5 19l1217 1332l-500 -11q-101 -3 -156 -37q-53 -33 -131 -143q-26 -39 -34 -31q-7 2 -4.5 13.5t14.5 31.5
l37 56q62 100 96 184q8 19 20 16q8 -3 5 -18q-9 -27 34 -37q14 -2 39 -2q14 0 49.5 1t38.5 1h512q50 0 152 10z" />
    <glyph glyph-name="zcaron" unicode="&#x17e;" horiz-adv-x="954" 
d="M721 1133q-26 -30 -55 -28.5t-37 32.5q-26 93 -72 194q-18 41 -12 47q16 16 43 -24q4 -6 18.5 -27.5t24 -34t23 -29t25.5 -24.5t23 -8q15 0 48 20q24 15 84 60l65 47q47 33 57 16q5 -13 -34 -47q-115 -91 -201 -194zM567 -25q-26 0 -243 41q-212 43 -261 43
q-70 0 -137 -55q-20 -14 -20 -2q-3 21 59 80l854 795q-38 -23 -102 -23q-69 0 -209 31q-124 28 -158 28q-92 0 -174 -147q-19 -29 -24 -29q-15 0 4 43l63 121q12 20 49 70q30 36 58.5 44.5t83.5 6.5q39 -2 194 -33q156 -32 221 -35q79 0 156 74l4 2q10 0 14 -9t-4 -15
l-923 -867q34 17 98 17q19 0 49 -6q9 -2 83.5 -16.5t109.5 -20.5l77 -15l121 -20q53 -6 82.5 1.5t50.5 35.5q25 39 25 65q0 45 -80 80q-44 14 -41 53q3 36 53 45q42 7 71.5 -21.5t31.5 -72.5q0 -94 -58 -182q-72 -116 -178 -107z" />
    <glyph glyph-name="uni0218" unicode="&#x218;" horiz-adv-x="882" 
d="M256 -20q-123 3 -274 94q-29 16 -23 61q10 90 61 242q12 37 21 37q17 0 8 -33q-47 -174 2 -252q34 -57 106 -90t144 -33q115 0 203 70q90 72 90 207q0 38 -12 88q-7 30 -35 94q-14 40 -47 98l-29 51l-25 50l-71 141q-28 56 -50 129.5t-22 126.5q0 172 143 266
q115 77 234 74q71 -3 127 -25l49 -20q29 -12 109 -56q31 -15 16 -61l-39 -106l-27 -93q-9 -39 -14 -39q-16 0 -10 41q21 147 -14 205q-70 119 -218 119q-102 0 -171.5 -75t-69.5 -197q0 -56 24 -129q27 -73 45 -111q18 -30 76 -133q3 -6 8.5 -15t6.5 -12q131 -232 131 -360
q0 -68 -31 -135q-46 -95 -107 -140q-136 -97 -315 -79zM94 -532q-11 11 10 32q80 80 80 138q0 36 -47 45q-36 7 -61 29.5t-25 58.5q0 35 23.5 56t60.5 21q47 0 84 -37.5t37 -97.5t-38.5 -125.5t-92.5 -111.5q-21 -18 -31 -8z" />
    <glyph glyph-name="uni0219" unicode="&#x219;" horiz-adv-x="649" 
d="M135 -20q-80 0 -130 40t-44 101q1 30 23 52t47 22q13 0 21 -11t20 -47q25 -67 50.5 -92t78.5 -25q48 0 92 29q73 54 82 148q6 63 -22.5 146t-73.5 155q-42 73 -61.5 153.5t-0.5 143.5q28 89 127 163q91 66 191 66q69 0 114 -33t39 -78q-4 -31 -25 -51t-47 -20
q-30 0 -59 51q-27 41 -47.5 56.5t-56.5 15.5q-57 0 -94.5 -29t-49.5 -84q-12 -42 4.5 -103t47 -123.5t62 -124.5t50.5 -123.5t10 -103.5q-7 -68 -56 -134t-122 -111q-79 -49 -170 -49zM8 -532q-11 11 10 32q80 80 80 138q0 36 -47 45q-36 7 -61 29.5t-25 58.5q0 35 23.5 56
t60.5 21q47 0 84 -37.5t37 -97.5t-38.5 -125.5t-92.5 -111.5q-21 -18 -31 -8z" />
    <glyph glyph-name="uni021A" unicode="&#x21a;" horiz-adv-x="1095" 
d="M1327 1415q11 25 21 8q3 -8 0 -22q-41 -133 -50 -242q-3 -37 -14 -41q-9 -3 -12 15q-3 9 0 24q11 111 -19.5 150.5t-128.5 40.5h-241l-365 -1125q-41 -127 -35 -157q9 -39 70 -48q17 -1 23.5 -7.5t1.5 -14.5q-3 -6 -25 -6q-20 0 -86 5t-90 5t-89.5 -5t-86.5 -5
q-14 0 -22 4.5t-4 11t22 12.5q73 13 110.5 57t73.5 152l364 1121h-219q-104 -3 -153 -41t-121 -154q-12 -20 -19.5 -28t-13.5 -7q-14 3 8 45q70 135 109 246q9 21 20 16q9 -3 6 -14q-3 -36 78 -39h56h34h598q9 1 65 1t89.5 8.5t44.5 33.5zM240 -131q47 0 83.5 -37.5
t36.5 -97.5t-38.5 -126t-92.5 -112q-20 -18 -30 -8q-10 13 10 33q80 80 80 137q0 36 -47 45q-36 7 -61 29.5t-25 58.5q0 35 23.5 56.5t60.5 21.5z" />
    <glyph glyph-name="uni021B" unicode="&#x21b;" horiz-adv-x="612" 
d="M467 975l276 12q14 2 17 -2.5t-2 -23.5q-15 -43 -45 -43l-260 12l-220 -654q-26 -79 -26 -126q0 -74 57 -74q83 0 221 135q25 28 35 18q2 -2 2 -4q0 -8 -16 -30q-170 -215 -313 -215q-107 0 -107 126q0 98 57 269l154 452q18 53 18 78q0 23 -19 30t-71 5h-2q-16 0 -16 10
q0 15 26 15q81 0 152 50t113 142q16 29 26 29q6 0 6 -8q0 -1 -4 -21zM-10 -147q47 0 84 -38t37 -98t-38.5 -125.5t-92.5 -111.5q-21 -18 -31 -8q-9 13 10 32q80 80 80 138q0 36 -47 45q-36 7 -61 29.5t-25 58.5q0 35 23.5 56.5t60.5 21.5z" />
    <glyph glyph-name="circumflex" unicode="&#x2c6;" horiz-adv-x="968" 
d="M465 1141q-3 8 39 47q163 154 198 194q27 30 56 30t37 -30q35 -139 73 -194q24 -35 9 -47q-17 -13 -43 20q-3 3 -33 42.5t-52 63t-30 19.5q-29 0 -197 -125q-51 -36 -57 -20z" />
    <glyph glyph-name="caron" unicode="&#x2c7;" horiz-adv-x="968" 
d="M719 1124q-26 -30 -55 -28.5t-37 32.5q-27 96 -72 195q-18 41 -12 47q16 16 43 -24q4 -6 18.5 -27.5t24 -34t23 -29t25.5 -24.5t23 -8q15 0 48 20q19 12 83 60l66 47q47 33 57 16q5 -13 -34 -47q-113 -89 -201 -195z" />
    <glyph glyph-name="breve" unicode="&#x2d8;" horiz-adv-x="880" 
d="M629 1151q-75 0 -110.5 51.5t-22.5 128.5q6 41 16 41q11 0 8 -39q3 -104 127 -104q129 0 199 108q23 35 29 36q2 0 4 -7q4 -13 -9 -39q-37 -76 -102.5 -126t-138.5 -50z" />
    <glyph glyph-name="dotaccent" unicode="&#x2d9;" horiz-adv-x="866" 
d="M653 1180q-40 0 -61 26t-14 72t36.5 72t69.5 26q38 0 59.5 -27.5t14.5 -70.5q-7 -46 -37 -72t-68 -26z" />
    <glyph glyph-name="ring" unicode="&#x2da;" horiz-adv-x="1007" 
d="M680 1122q-87 0 -131 49t-25 127q15 71 88 123q74 56 152 56q82 0 125 -49.5t26 -124.5q-15 -70 -88 -125q-71 -56 -147 -56zM680 1147q63 0 118.5 48.5t67.5 111.5q14 66 -13.5 105.5t-88.5 39.5t-117.5 -48t-73.5 -112q-14 -67 14 -106t93 -39z" />
    <glyph glyph-name="ogonek" unicode="&#x2db;" horiz-adv-x="815" 
d="M223 -403q-46 0 -77 30t-31 84q0 129 274 289h35q-87 -57 -113 -78q-47 -36 -82.5 -84t-35.5 -88q0 -37 24.5 -58.5t58.5 -21.5q46 0 89 29q18 15 18 0q0 -11 -18 -35q-55 -67 -142 -67z" />
    <glyph glyph-name="tilde" unicode="&#x2dc;" horiz-adv-x="933" 
d="M408 1169q-9 12 26 54q93 106 141 106q16 0 80 -9.5t121.5 -18.5t59.5 -9q47 -6 100 60q34 46 43 37q10 -10 -21 -52q-88 -125 -155 -125q-19 0 -101 11l-34 6q-98 20 -136 20h-5q-18 0 -30 -7t-40 -38q-42 -45 -49 -35z" />
    <glyph glyph-name="hungarumlaut" unicode="&#x2dd;" horiz-adv-x="808" 
d="M502 1145q-15 3 -2 33l110 254q27 63 47 18q21 -52 -6 -96l-125 -185q-21 -24 -24 -24zM686 1145q-15 3 -2 33l111 254q27 63 47 18q21 -52 -6 -96l-125 -185q-21 -24 -25 -24z" />
    <glyph glyph-name="gravecomb" unicode="&#x300;" 
d="M-342 1167q-7 -1 -13 7t-12 28l-59 154q-19 47 -17 65t27 41q57 48 60 -8l20 -246q0 -38 -6 -41z" />
    <glyph glyph-name="acutecomb" unicode="&#x301;" 
d="M-203 1411l-223 -281q-30 -40 -33 -16q0 12 10 39l119 277q21 49 111 49q81 0 16 -68z" />
    <glyph glyph-name="uni0302" unicode="&#x302;" 
d="M-541 1141q-3 8 39 47q168 159 199 194q27 30 55.5 30t36.5 -30q34 -136 74 -194q24 -34 8 -47q-17 -13 -43 20q-3 3 -33 42.5t-52 63t-30 19.5q-28 0 -196 -125q-51 -37 -58 -20z" />
    <glyph glyph-name="tildecomb" unicode="&#x303;" 
d="M-600 1169q-9 12 27 54q93 106 141 106q16 0 79.5 -9.5t121 -18.5t59.5 -9q47 -6 100 60q34 46 43 37q11 -11 -20 -52q-88 -125 -156 -125q-17 0 -100 11l-35 6q-98 20 -135 20h-5q-13 0 -19.5 -1.5t-19.5 -11.5t-32 -32q-42 -45 -49 -35z" />
    <glyph glyph-name="uni0304" unicode="&#x304;" 
d="M156 1184h-557q-25 0 -36 6t-7 16q10 23 43 23h559q23 0 35 -6.5t8 -16.5q-9 -22 -45 -22z" />
    <glyph glyph-name="uni0306" unicode="&#x306;" 
d="M-377 1151q-75 0 -110.5 51.5t-22.5 128.5q6 41 16 41q12 0 9 -39q3 -104 127 -104q128 0 198 108q23 35 29 36q2 0 4 -7q5 -14 -8 -39q-36 -76 -102.5 -126t-139.5 -50z" />
    <glyph glyph-name="uni0307" unicode="&#x307;" 
d="M-352 1180q-40 0 -61.5 26t-14.5 72t36.5 72t69.5 26q38 0 59.5 -27.5t14.5 -70.5q-7 -46 -36.5 -72t-67.5 -26z" />
    <glyph glyph-name="uni0308" unicode="&#x308;" 
d="M-442 1184q-31 0 -48.5 18.5t-17.5 48.5q0 41 28 72t56 31q31 0 49.5 -21.5t18.5 -58.5q0 -35 -27.5 -62.5t-58.5 -27.5zM-115 1184q-31 0 -48 18.5t-17 48.5q0 41 28 72t56 31q31 0 49 -21.5t18 -58.5q0 -35 -27.5 -62.5t-58.5 -27.5z" />
    <glyph glyph-name="uni030A" unicode="&#x30a;" 
d="M-328 1085q-86 0 -130 49.5t-25 127.5q15 70 88 122q74 56 151 56q82 0 125.5 -49.5t26.5 -124.5q-15 -69 -86 -125q-74 -56 -150 -56zM-328 1110q63 0 119 48.5t68 111.5q14 66 -14 105.5t-89 39.5t-116.5 -48t-73.5 -112q-14 -67 13.5 -106t92.5 -39z" />
    <glyph glyph-name="uni030B" unicode="&#x30b;" 
d="M-504 1145q-15 3 -2 33l111 254q27 63 47 18q21 -52 -6 -96l-125 -185q-21 -24 -25 -24zM-319 1145q-16 3 -3 33l111 254q27 63 47 18q21 -52 -6 -96l-125 -185q-21 -24 -24 -24z" />
    <glyph glyph-name="uni030C" unicode="&#x30c;" 
d="M-287 1124q-26 -30 -55 -28.5t-37 32.5q-27 96 -72 195q-18 41 -12 47q16 16 43 -24q3 -5 18.5 -27.5t24.5 -34.5t23 -28.5t26 -24.5t23 -8q14 0 47 20l86 60q58 44 63 47q48 33 58 16q5 -13 -35 -47q-113 -89 -201 -195z" />
    <glyph glyph-name="uni0312" unicode="&#x312;" 
d="M-219 1174q-86 0 -86 102q3 151 84 270q9 12 18 6q11 -3 2 -18q-64 -94 -67 -184q0 -31 14 -23q17 10 39 10q77 0 74 -84q0 -37 -22 -58t-56 -21z" />
    <glyph glyph-name="uni0326" unicode="&#x326;" 
d="M-451 -532q-11 10 11 32q80 80 80 138q0 36 -48 45q-36 7 -61 29.5t-25 58.5q0 35 23.5 56t60.5 21q47 0 84 -37.5t37 -97.5t-38.5 -125.5t-92.5 -111.5q-21 -18 -31 -8z" />
    <glyph glyph-name="uni0327" unicode="&#x327;" 
d="M-797 -387q-67 0 -102 27q-27 21 -10 45t47 6q56 -41 112 -41q21 0 35.5 11.5t14.5 29.5q0 22 -48 104q-18 27 -18 58q0 38 53 81q5 4 15.5 12t13.5 11q7 4 28.5 20t24.5 17h25q-56 -42 -72 -62t-16 -45q0 -13 37 -86q20 -39 20 -69q0 -50 -68 -94q-45 -25 -92 -25z" />
    <glyph glyph-name="uni0328" unicode="&#x328;" 
d="M-784 -403q-46 0 -77.5 30t-31.5 84q0 129 275 289h34q-81 -53 -112 -78q-48 -36 -83.5 -84t-35.5 -88q0 -37 25 -58.5t59 -21.5q45 0 88 29q18 15 18 0q0 -11 -18 -35q-58 -67 -141 -67z" />
    <glyph glyph-name="uni0335" unicode="&#x335;" 
d="M-117 1161h-456q-11 0 -16.5 4t-4.5 11q3 14 23 14h456q11 0 16.5 -3.5t4.5 -10.5q-3 -15 -23 -15z" />
    <glyph glyph-name="uni0337" unicode="&#x337;" 
d="M-78 813l-450 -162q-8 -3 -13 2t-4.5 12.5t8.5 10.5l451 162q8 3 13 -2t4 -12.5t-9 -10.5z" />
    <glyph glyph-name="uni0338" unicode="&#x338;" 
d="M-1264 0q-12 0 2 25l1033 1335q9 12 26 12q12 0 -2 -24l-1032 -1336q-9 -12 -27 -12z" />
    <glyph glyph-name="Wgrave" unicode="&#x1e80;" horiz-adv-x="1861" 
d="M1503 1509l-123 111q-36 32 -42.5 49.5t5.5 46.5q27 72 58 21l131 -207q21 -35 12 -41q-10 -11 -41 20zM2087 1382q38 0 36 -13q0 -1 -1 -3q-4 -7 -35 -10q-54 -6 -106 -52t-146 -167l-791 -1018l-79 -113q-20 -26 -27 -26q-3 0 -6.5 4.5t-5.5 14t0 21.5l133 910
l-629 -811l-80 -113q-20 -26 -26 -26q-3 0 -7 4.5t-6 14t0 21.5l168 1147q16 112 -10 140q-24 30 -102 45q-32 6 -34 12q-1 3 1 6q3 8 37 8q7 0 19 -0.5t35 -1.5t40 -2q47 -2 98 -2q8 0 86 4q58 6 86 6q38 0 35 -16q-4 -7 -37 -10q-60 -5 -90 -47.5t-43 -145.5l-127 -942
l598 787l23 159q15 111 -11 140q-24 30 -102 45q-32 6 -34 12q-1 3 1 6q3 8 37 8l94 -4q47 -2 99 -2q8 0 86 4q58 6 86 6q18 0 27 -4t7 -12q-4 -7 -36 -10q-60 -5 -90.5 -48t-43.5 -145l-129 -944l713 940q138 185 2 197q-29 0 -36 12q-4 7 10 11q10 2 28 3q18 0 74 -5
t72 -5t70 5t69 5z" />
    <glyph glyph-name="wgrave" unicode="&#x1e81;" horiz-adv-x="1361" 
d="M1069 1202l-59 154q-19 47 -17 65t27 41q56 47 59 -8l21 -246q0 -38 -6 -41q-7 -1 -13 7t-12 28zM1307 1022q59 0 59 -131q0 -153 -96 -350q-93 -191 -209 -316q-150 -163 -270 -219q-67 -31 -117 -31q-82 0 -82 134q0 65 16 163q-5 -5 -20 -24t-19 -23
q-159 -173 -270 -219q-67 -31 -117 -31q-40 0 -65.5 36.5t-24.5 97.5q0 62 43 190q112 296 189 481q21 53 25 81.5t-4 35t-26 4.5q-48 -6 -143 -133q-18 -24 -29 -19t9 33q89 123 151 178.5t121 55.5q84 0 66 -115q-9 -46 -50 -139q-9 -25 -71 -182q-131 -330 -144 -383
q-18 -57 -6 -89t51 -32q77 0 169 73.5t180 196.5q34 152 94 305q61 152 108 223q60 84 115 84q29 0 29 -30q0 -110 -232 -508q-35 -140 -35 -236q0 -46 19.5 -78t54.5 -32q90 0 209 116q120 120 205 283q85 162 88 287q3 35 -27 86q-26 45 -26 88q0 36 24.5 62t57.5 26z" />
    <glyph glyph-name="Wacute" unicode="&#x1e82;" horiz-adv-x="1861" 
d="M1647 1657l-306 -158q-37 -18 -43 -8t21 31l201 153q3 1 17 13.5t17 13.5q40 10 64 10q46 0 55 -18t-26 -37zM2087 1382q38 0 36 -13q0 -1 -1 -3q-4 -7 -35 -10q-54 -6 -106 -52t-146 -167l-791 -1018l-79 -113q-20 -26 -27 -26q-3 0 -6.5 4.5t-5.5 14t0 21.5l133 910
l-629 -811l-80 -113q-20 -26 -26 -26q-3 0 -7 4.5t-6 14t0 21.5l168 1147q16 112 -10 140q-24 30 -102 45q-32 6 -34 12q-1 3 1 6q3 8 37 8q7 0 19 -0.5t35 -1.5t40 -2q47 -2 98 -2q8 0 86 4q58 6 86 6q38 0 35 -16q-4 -7 -37 -10q-60 -5 -90 -47.5t-43 -145.5l-127 -942
l598 787l23 159q15 111 -11 140q-24 30 -102 45q-32 6 -34 12q-1 3 1 6q3 8 37 8l94 -4q47 -2 99 -2q8 0 86 4q58 6 86 6q18 0 27 -4t7 -12q-4 -7 -36 -10q-60 -5 -90.5 -48t-43.5 -145l-129 -944l713 940q138 185 2 197q-29 0 -36 12q-4 7 10 11q10 2 28 3q18 0 74 -5
t72 -5t70 5t69 5z" />
    <glyph glyph-name="wacute" unicode="&#x1e83;" horiz-adv-x="1361" 
d="M1169 1411l-223 -281q-30 -40 -33 -16q0 10 11 39l118 277q21 49 111 49q81 0 16 -68zM1307 1022q59 0 59 -131q0 -153 -96 -350q-93 -191 -209 -316q-150 -163 -270 -219q-67 -31 -117 -31q-82 0 -82 134q0 65 16 163q-5 -5 -20 -24t-19 -23q-159 -173 -270 -219
q-67 -31 -117 -31q-40 0 -65.5 36.5t-24.5 97.5q0 62 43 190q112 296 189 481q21 53 25 81.5t-4 35t-26 4.5q-48 -6 -143 -133q-18 -24 -29 -19t9 33q89 123 151 178.5t121 55.5q84 0 66 -115q-9 -46 -50 -139q-9 -25 -71 -182q-131 -330 -144 -383q-18 -57 -6 -89t51 -32
q77 0 169 73.5t180 196.5q34 152 94 305q61 152 108 223q60 84 115 84q29 0 29 -30q0 -110 -232 -508q-35 -140 -35 -236q0 -46 19.5 -78t54.5 -32q90 0 209 116q120 120 205 283q85 162 88 287q3 35 -27 86q-26 45 -26 88q0 36 24.5 62t57.5 26z" />
    <glyph glyph-name="Wdieresis" unicode="&#x1e84;" horiz-adv-x="1861" 
d="M1247 1552q-31 0 -48 19t-17 49q0 40 28 71t56 31q31 0 49 -21.5t18 -58.5q0 -35 -27.5 -62.5t-58.5 -27.5zM1575 1552q-31 0 -48.5 19t-17.5 49q0 40 28 71t56 31q31 0 49.5 -21.5t18.5 -58.5q0 -35 -27.5 -62.5t-58.5 -27.5zM2087 1382q38 0 36 -13q0 -1 -1 -3
q-4 -7 -35 -10q-54 -6 -106 -52t-146 -167l-791 -1018l-79 -113q-20 -26 -27 -26q-3 0 -6.5 4.5t-5.5 14t0 21.5l133 910l-629 -811l-80 -113q-20 -26 -26 -26q-3 0 -7 4.5t-6 14t0 21.5l168 1147q16 112 -10 140q-24 30 -102 45q-32 6 -34 12q-1 3 1 6q3 8 37 8
q7 0 19 -0.5t35 -1.5t40 -2q47 -2 98 -2q8 0 86 4q58 6 86 6q38 0 35 -16q-4 -7 -37 -10q-60 -5 -90 -47.5t-43 -145.5l-127 -942l598 787l23 159q15 111 -11 140q-24 30 -102 45q-32 6 -34 12q-1 3 1 6q3 8 37 8l94 -4q47 -2 99 -2q8 0 86 4q58 6 86 6q18 0 27 -4t7 -12
q-4 -7 -36 -10q-60 -5 -90.5 -48t-43.5 -145l-129 -944l713 940q138 185 2 197q-29 0 -36 12q-4 7 10 11q10 2 28 3q18 0 74 -5t72 -5t70 5t69 5z" />
    <glyph glyph-name="wdieresis" unicode="&#x1e85;" horiz-adv-x="1361" 
d="M823 1184q-31 0 -48 18.5t-17 48.5q0 41 28 72t56 31q31 0 49 -21.5t18 -58.5q0 -35 -27.5 -62.5t-58.5 -27.5zM1151 1184q-31 0 -48.5 18.5t-17.5 48.5q0 41 28 72t56 31q31 0 49.5 -21.5t18.5 -58.5q0 -35 -27.5 -62.5t-58.5 -27.5zM1307 1022q59 0 59 -131
q0 -153 -96 -350q-93 -191 -209 -316q-150 -163 -270 -219q-67 -31 -117 -31q-82 0 -82 134q0 65 16 163q-5 -5 -20 -24t-19 -23q-159 -173 -270 -219q-67 -31 -117 -31q-40 0 -65.5 36.5t-24.5 97.5q0 62 43 190q112 296 189 481q21 53 25 81.5t-4 35t-26 4.5
q-48 -6 -143 -133q-18 -24 -29 -19t9 33q89 123 151 178.5t121 55.5q84 0 66 -115q-9 -46 -50 -139q-9 -25 -71 -182q-131 -330 -144 -383q-18 -57 -6 -89t51 -32q77 0 169 73.5t180 196.5q34 152 94 305q61 152 108 223q60 84 115 84q29 0 29 -30q0 -110 -232 -508
q-35 -140 -35 -236q0 -46 19.5 -78t54.5 -32q90 0 209 116q120 120 205 283q85 162 88 287q3 35 -27 86q-26 45 -26 88q0 36 24.5 62t57.5 26z" />
    <glyph glyph-name="Ygrave" unicode="&#x1ef2;" horiz-adv-x="1300" 
d="M1133 1509l-123 111q-36 32 -42.5 49.5t5.5 46.5q27 70 57 21l131 -207q22 -35 13 -41q-10 -11 -41 20zM1489 1382q38 0 36 -13q0 -1 -1 -3q-4 -7 -35 -10q-95 -9 -229 -158l-502 -551l-137 -426q-44 -128 -35 -158q12 -38 69 -47q14 -2 21.5 -8.5t3.5 -13.5
q-3 -6 -27 -6q-29 0 -88 6q-78 4 -82 4q-25 0 -90 -5t-88 -5q-14 0 -21 4.5t-3 11t20 12.5q76 13 113.5 57t70.5 152l138 420l-127 537q-41 155 -119 170q-27 2 -34 12q-4 8 17 12l21 2q6 0 92 -4q45 -2 90 -2q16 0 94 4q61 6 86 6q38 0 36 -13q0 -1 -1 -3q-4 -7 -37 -10
q-65 -5 -97.5 -54.5t-14.5 -125.5l123 -500l465 532q40 47 52.5 78t-4 48.5t-63.5 21.5q-29 0 -36 12q-4 7 10 11q10 2 28 3q18 0 74 -5t72 -5t70 5t69 5z" />
    <glyph glyph-name="ygrave" unicode="&#x1ef3;" horiz-adv-x="942" 
d="M723 1167q-7 -1 -13 7t-12 28l-59 154q-19 47 -17 65t27 41q57 48 60 -8l20 -246q0 -38 -6 -41zM-117 -532q-44 0 -70 20t-26 55q0 81 107 78q255 -9 366 123q161 193 164 674q3 212 -39 358q-41 141 -123 135q-90 -6 -149 -145q-9 -24 -25 -21q-11 3 4 46
q39 104 96 168.5t113 64.5q123 0 184 -156q62 -157 62 -403q0 -252 -25 -402q275 384 299 601q16 158 -4 247q-8 36 -8 56q0 26 22 42.5t54 14.5q74 -3 65 -123q-9 -99 -76 -274q-71 -183 -167 -338q-224 -365 -443 -594q-217 -227 -381 -227z" />
    <glyph glyph-name="endash" unicode="&#x2013;" horiz-adv-x="1024" 
d="M944 537h-809q-20 0 -28 4.5t-3 13.5q6 16 33 16h809q21 0 28 -3t3 -13q-6 -18 -33 -18z" />
    <glyph glyph-name="emdash" unicode="&#x2014;" horiz-adv-x="1515" 
d="M1436 537h-1301q-20 0 -28 4.5t-3 13.5q6 16 33 16h1301q20 0 27 -3t3 -13q-6 -18 -32 -18z" />
    <glyph glyph-name="quoteleft" unicode="&#x2018;" horiz-adv-x="360" 
d="M537 1409q26 8 27 -5q1 -9 -15 -15q-89 -35 -143 -89t-54 -106q0 -42 24 -63t75 -29q26 -6 26 -31q2 -25 -21.5 -46t-62.5 -21q-53 0 -85 36t-32 86q0 110 80 181q85 73 181 102z" />
    <glyph glyph-name="quoteright" unicode="&#x2019;" horiz-adv-x="362" 
d="M244 1006q-27 -8 -28 5q-1 9 15 15q89 35 143 89t54 106q0 42 -23.5 63t-74.5 29q-27 6 -27 30q-2 25 21.5 46.5t62.5 21.5q53 0 85 -36.5t32 -86.5q0 -112 -82 -182q-79 -70 -178 -100z" />
    <glyph glyph-name="quotesinglbase" unicode="&#x201a;" horiz-adv-x="356" 
d="M-119 -252q-25 -8 -27 5q-2 10 15 16q90 35 143.5 88.5t53.5 105.5q0 42 -24 63t-75 29q-26 6 -26 31q-2 25 21.5 46.5t62.5 21.5q53 0 84.5 -36.5t31.5 -86.5q0 -111 -82 -181q-82 -73 -178 -102z" />
    <glyph glyph-name="quotedblleft" unicode="&#x201c;" horiz-adv-x="632" 
d="M537 1409q26 8 27 -5q1 -9 -15 -15q-89 -35 -143 -89t-54 -106q0 -42 24 -63t75 -29q26 -6 26 -31q2 -25 -21.5 -46t-62.5 -21q-53 0 -85 36t-32 86q0 110 80 181q85 73 181 102zM803 1409q26 8 27 -5q1 -9 -15 -15q-89 -35 -143 -89t-54 -106q0 -42 24 -63t75 -29
q26 -6 26 -31q2 -25 -21.5 -46t-62.5 -21q-53 0 -84.5 36t-31.5 86q0 110 80 181q86 74 180 102z" />
    <glyph glyph-name="quotedblright" unicode="&#x201d;" horiz-adv-x="614" 
d="M242 1006q-27 -8 -28 5q-1 9 15 15q89 35 143 89t54 106q0 42 -23.5 63t-74.5 29q-27 6 -27 30q-2 25 21.5 46.5t62.5 21.5q53 0 85 -36.5t32 -86.5q0 -112 -82 -182q-79 -70 -178 -100zM496 1006q-27 -8 -28 5q-1 9 15 15q89 35 143 89t54 106q0 42 -23.5 63t-74.5 29
q-27 6 -27 30q-2 25 21.5 46.5t62.5 21.5q53 0 85 -36.5t32 -86.5q0 -112 -82 -182q-79 -70 -178 -100z" />
    <glyph glyph-name="quotedblbase" unicode="&#x201e;" horiz-adv-x="616" 
d="M-119 -252q-25 -8 -27 5q-2 10 15 16q90 35 143.5 88.5t53.5 105.5q0 42 -24 63t-75 29q-26 6 -26 31q-2 25 21.5 46.5t62.5 21.5q53 0 84.5 -36.5t31.5 -86.5q0 -111 -82 -181q-82 -73 -178 -102zM139 -252q-25 -8 -27 5q-2 10 15 16q90 35 143.5 88.5t53.5 105.5
q0 42 -24 63t-75 29q-26 6 -26 31q-2 25 21.5 46.5t62.5 21.5q53 0 84.5 -36.5t31.5 -86.5q0 -111 -82 -181q-82 -73 -178 -102z" />
    <glyph glyph-name="dagger" unicode="&#x2020;" horiz-adv-x="948" 
d="M172 -389q-31 0 -22 37l405 1192q6 16 -12 16l-346 -16q-17 -2 -24 7.5t-1 26.5q9 30 41 27l336 -16q23 0 29 20l122 434q9 33 37 33q32 0 23 -37l-160 -434q-6 -16 14 -16l344 16q17 1 24.5 -8.5t2.5 -26.5q-9 -29 -43 -26l-334 16q-22 0 -28 -20l-369 -1192
q-9 -33 -39 -33z" />
    <glyph glyph-name="daggerdbl" unicode="&#x2021;" horiz-adv-x="948" 
d="M172 -389q-31 0 -22 37l165 452l-364 -18q-17 -2 -24 8t-1 27q9 29 41 26l355 -16l104 369q13 49 135 364l-364 -20q-17 -2 -24 7.5t-1 26.5q9 30 41 27l356 -18l131 456q9 33 37 33q32 0 23 -37l-166 -452l364 18q17 1 24.5 -8.5t2.5 -26.5q-9 -29 -43 -26l-354 16
q-81 -302 -103 -369l-135 -364l363 20q36 3 26 -34q-9 -30 -43 -27l-356 18l-129 -456q-9 -33 -39 -33z" />
    <glyph glyph-name="bullet" unicode="&#x2022;" horiz-adv-x="673" 
d="M348 365q-87 0 -129.5 50.5t-42.5 133.5q0 116 74 190q76 76 149 76q82 0 130.5 -55.5t48.5 -151.5q0 -93 -74 -170q-73 -73 -156 -73z" />
    <glyph glyph-name="ellipsis" unicode="&#x2026;" horiz-adv-x="1142" 
d="M35 -18q-72 0 -72 75q0 45 29.5 78t62.5 33q35 0 54.5 -23.5t19.5 -62.5q0 -37 -30.5 -68.5t-63.5 -31.5zM416 -18q-72 0 -72 75q0 45 29.5 78t62.5 33q35 0 54.5 -23.5t19.5 -62.5q0 -37 -30.5 -68.5t-63.5 -31.5zM805 -18q-72 0 -72 75q0 45 29.5 78t62.5 33
q35 0 54.5 -23.5t19.5 -62.5q0 -37 -30.5 -68.5t-63.5 -31.5z" />
    <glyph glyph-name="perthousand" unicode="&#x2030;" horiz-adv-x="1828" 
d="M197 10q-10 2 -8 13t16 32l858 1198q-107 -73 -227 -73q-99 0 -179 45q43 -108 -6 -252q-86 -248 -235 -318q-52 -24 -103 -24q-59 0 -95 32.5t-46 83t-5.5 105.5t21.5 106q83 255 244 322q47 20 98 20q76 0 134 -40q98 -48 176 -48q140 0 280 140q26 26 43 22
q10 -2 8 -13t-16 -32l-919 -1290q-25 -32 -39 -29zM326 651q45 0 90 51q65 74 125 250q45 136 38.5 231t-61.5 95q-28 0 -65 -29q-89 -67 -150 -258q-51 -154 -44.5 -247t67.5 -93zM778 -20q-59 0 -95 32.5t-46 83t-5.5 105.5t21.5 106q83 257 244 322q47 20 98 20
q56 -1 91 -34t45 -82.5t5.5 -104.5t-22.5 -106q-77 -243 -235 -318q-53 -24 -101 -24zM1372 -20q-59 0 -95 32.5t-46 83t-5.5 105.5t21.5 106q83 257 244 322q47 20 98 20q56 -1 91 -34t45 -82.5t5.5 -104.5t-22.5 -106q-77 -243 -235 -318q-53 -24 -101 -24zM791 0
q42 0 90 51q72 93 125 250q45 137 38 231.5t-63 94.5q-26 0 -66 -29q-87 -69 -149 -258q-51 -154 -44.5 -247t69.5 -93zM1384 0q43 0 91 51q70 90 124 250q45 137 38.5 231.5t-62.5 94.5q-26 0 -66 -29q-87 -69 -149 -258q-51 -154 -45 -247t69 -93z" />
    <glyph glyph-name="guilsinglleft" unicode="&#x2039;" horiz-adv-x="516" 
d="M256 205q-62 180 -158 321q-10 10 0 17q128 80 369 321q26 26 39 23q10 -10 -14 -41q-118 -158 -293 -316q67 -155 88 -321q2 -21 -3.5 -29t-13.5 -1t-14 26z" />
    <glyph glyph-name="guilsinglright" unicode="&#x203a;" horiz-adv-x="526" 
d="M78 190q-19 -17 -26 -12.5t5 27.5q89 145 289 330q-72 173 -98 315q-6 38 4 41q13 3 24 -31q46 -152 175 -321q5 -7 -5 -17q-60 -43 -127 -104q-44 -40 -135 -127q-68 -68 -106 -101z" />
    <glyph glyph-name="fraction" unicode="&#x2044;" horiz-adv-x="485" 
d="M-635 -195q-14 7 12 43l1131 1543q26 39 35 30q4 -1 4.5 -6.5t-3.5 -15t-12 -21.5l-1130 -1542q-30 -41 -37 -31z" />
    <glyph glyph-name="Euro" unicode="&#x20ac;" horiz-adv-x="817" 
d="M944 1249q26 -9 17 -43q0 -10 -41 -123q-6 -26 -11 -26q-11 0 -8 30q8 80 -28.5 129.5t-108.5 49.5q-63 0 -127 -58q-165 -155 -281 -514l357 11q22 0 25.5 -4.5t-11.5 -24.5q-17 -17 -37 -17l-344 3q-7 -16 -33 -109l314 8q22 0 25 -4.5t-13 -24.5q-16 -16 -37 -16
l-297 2q-24 -103 -31.5 -186.5t3 -150t47.5 -104.5t98 -40q30 0 70 16q37 14 61 31l82 57q18 11 22 11q9 -2 -8 -23q-129 -156 -293 -156q-83 0 -135.5 49.5t-69.5 131.5t-13.5 174.5t26.5 191.5h-123q-24 0 -30 12q-4 7 10 11l26 2l123 4q19 66 20 69l15 46h-78
q-23 0 -28 11q-4 7 10 10q9 3 26 3l80 2q166 457 430 574q71 32 158 32q27 0 82 -23t59 -24z" />
    <glyph glyph-name="trademark" unicode="&#x2122;" horiz-adv-x="1921" 
d="M1096 1397q3 -71 16 -113q3 -22 -6 -22q-13 -3 -16 18q-19 55 -38 71.5t-69 16.5h-98v-487q0 -77 20.5 -101t79.5 -24v-17h-266v17q59 0 78.5 23.5t19.5 101.5v487h-88q-49 0 -67.5 -16.5t-36.5 -71.5q-9 -21 -17 -18q-9 0 -6 22q13 42 16 113q0 11 11 13q10 1 10 -9
q4 -14 35 -17h366q31 3 35 17q0 12 12 6q9 -3 9 -10zM1915 752q22 -3 22 -11q0 -6 -22 -6q-5 0 -22 1t-21 1q-8 2 -41 2q-5 0 -22 -1t-21 -1q-38 -4 -60 3q-12 5 8 10q6 1 13 2q29 1 39 21.5t10 72.5v418v14v14l-4 -8l-6 -14l-227 -541h-21l-240 549l-4 16v-20l-6 -428
q0 -51 10 -70.5t39 -23.5q23 -3 23 -11q0 -6 -23 -6q-22 0 -28 2q-3 0 -17 1t-20 1q-23 0 -29 -2q-3 0 -20 -1t-25 -1q-22 0 -22 6q0 8 22 11q35 1 47 20.5t17 73.5l12 448q-1 40 -12 56.5t-37 21.5q-15 0 -21 4t0 8.5t21 4.5q27 0 39 -3q4 0 22 -1t23 -1q14 -3 22 -16
l244 -547l223 545q9 18 25 18h6q5 0 22 1t21 1q15 3 41 3q15 0 21 -4.5t0 -8.5t-21 -4q-29 -4 -39 -24t-10 -72v-430q0 -52 10 -72.5t39 -21.5z" />
    <glyph glyph-name="approxequal" unicode="&#x2248;" horiz-adv-x="1024" 
d="M756 721q-80 0 -258 90q-153 78 -213 78q-59 0 -101.5 -29t-85.5 -92q-12 -16 -24 -17t-14 10t8 27q96 134 217 134q71 0 229 -82q170 -86 242 -86q94 0 182 131q19 25 33 16q18 -9 -2 -35q-103 -145 -213 -145zM756 446q-78 0 -258 91q-151 77 -213 77
q-59 0 -101.5 -28.5t-85.5 -91.5q-12 -16 -24 -17t-14 10t8 27q95 133 217 133q71 0 229 -82q170 -86 242 -86q94 0 182 131q19 25 33 17q18 -9 -2 -35q-103 -146 -213 -146z" />
    <glyph glyph-name="approxequal" unicode="&#x22f2;" horiz-adv-x="1024" 
d="M756 721q-80 0 -258 90q-153 78 -213 78q-59 0 -101.5 -29t-85.5 -92q-12 -16 -24 -17t-14 10t8 27q96 134 217 134q71 0 229 -82q170 -86 242 -86q94 0 182 131q19 25 33 16q18 -9 -2 -35q-103 -145 -213 -145zM756 446q-78 0 -258 91q-151 77 -213 77
q-59 0 -101.5 -28.5t-85.5 -91.5q-12 -16 -24 -17t-14 10t8 27q95 133 217 133q71 0 229 -82q170 -86 242 -86q94 0 182 131q19 25 33 17q18 -9 -2 -35q-103 -146 -213 -146z" />
    <glyph glyph-name="notequal" unicode="&#x2260;" horiz-adv-x="1024" 
d="M481 578h465q20 0 27.5 -3.5t3.5 -13.5q-6 -18 -33 -18h-479l-117 -252q-12 -28 -29 -21q-15 6 -2 35l111 238h-293q-20 0 -28 4.5t-3 13.5q7 17 33 17h307l123 264h-432q-20 0 -28 4.5t-3 13.5q7 17 33 17h447l94 202q14 27 28.5 21t2.5 -35l-88 -188h325
q20 0 27.5 -3.5t3.5 -13.5q-6 -18 -33 -18h-340z" />
    <glyph glyph-name="NULL" 
 />
    <glyph glyph-name="CR" horiz-adv-x="681" 
 />
    <glyph glyph-name="O.ss01" horiz-adv-x="1210" 
d="M575 223q-159 0 -268 121q-106 118 -106 305q0 286 180 502q86 102 215 168q126 63 246 63q157 0 258 -110q102 -108 102 -287q0 -167 -57.5 -323t-159.5 -259q-88 -88 -207 -135q-110 -45 -203 -45zM573 254q169 0 326 201q78 100 137 268q60 174 60 311q0 110 -41 199
q-24 57 -75.5 89t-123.5 32q-200 0 -369 -230q-75 -106 -122 -264q-48 -161 -48 -291q0 -315 256 -315zM895 -2h-809q-20 0 -26 4t1 14q14 17 39 17h809q21 0 25 -2.5t0 -14.5q-12 -18 -39 -18z" />
    <glyph glyph-name="i.loclTRK" horiz-adv-x="548" 
d="M510 1198q-40 0 -61.5 26t-14.5 72t37 72.5t70 26.5q38 0 59 -28t14 -71q-7 -46 -36.5 -72t-67.5 -26zM129 -23q-70 0 -70 70q0 71 47 189l236 579q41 96 -10 96q-49 0 -154 -135q-19 -25 -29 -18t9 33q89 125 148.5 179t117.5 54q72 0 72 -82q0 -50 -41 -158
q-8 -22 -27 -67t-25 -60l-77 -198q-55 -143 -99 -266q-16 -53 -16 -78q0 -23 20 -23q28 0 70.5 36.5t79.5 96.5q19 29 29 19q7 -5 -9 -33q-141 -234 -272 -234z" />
    <glyph glyph-name="h.ss01" horiz-adv-x="1038" 
d="M903 1022q109 -3 109 -174q0 -150 -88 -354q-84 -203 -213 -359q-126 -153 -230 -153q-36 0 -60 18.5t-24 48.5q0 31 23 52.5t49 21.5q43 0 78 -35q56 -56 121 62q198 363 213 694q3 100 -50 100q-110 0 -329 -287q-217 -284 -377 -641q-11 -32 -27 -32q-36 0 -63 49
q-17 33 0 84l377 1161q8 25 10 37.5t-0.5 22.5t-17.5 11t-37.5 -1t-63.5 -9q-31 -6 -31 2q0 14 25 23q145 49 268 115q29 16 35 16q9 -2 -2 -43l-362 -1104q138 199 182 258q62 85 170 209q183 210 315 207z" />
    <glyph glyph-name="r.ss01" horiz-adv-x="831" 
d="M178 -29q-41 0 -62.5 16.5t-13.5 41.5q36 104 72 202q113 299 176 564q14 45 11.5 66.5t-10 26t-23.5 1.5q-51 -9 -144 -133q-21 -26 -28 -19q-10 10 6 33q99 136 150 185t108 49q47 0 63.5 -28.5t5.5 -90.5q-22 -130 -122 -387q131 227 153 260q177 259 309 268
q47 1 68 -30t16 -76q-6 -66 -34 -105.5t-70 -28.5q-28 7 -40 25t-11.5 38t2.5 39.5t-3 32.5t-22 13q-65 0 -192 -189q-139 -210 -320 -737q-15 -37 -45 -37z" />
    <glyph glyph-name="F_l" horiz-adv-x="1335" 
d="M1386 1454l-382 -1259q-30 -98 0 -101h10q68 9 143 133q16 22 27 17q9 -6 -6 -31q-62 -109 -134.5 -171t-138.5 -62q-47 0 -61.5 26.5t-3.5 87.5q14 68 43 144l280 919q32 103 0.5 143t-149.5 41q-103 2 -199.5 3.5t-139.5 2.5t-50 1l-205 -629h188q152 0 207 137
q15 37 23 37q12 0 0 -45q-2 -5 -29 -74q-17 -40 -29 -76l-18 -71l-21 -74q-12 -37 -20 -37q-12 0 0 45q19 62 -13 95.5t-106 33.5h-192l-152 -467q-41 -129 -33 -157q9 -39 70 -48q30 -3 22 -22q-3 -6 -24 -6t-84 5t-78 5q-29 0 -97.5 -5t-88.5 -5q-14 0 -22 4.5t-4 11
t22 12.5q73 13 112 58.5t72 150.5l313 961q26 82 16 123t-63 45q-38 6 -35 18q5 8 37 8q13 0 81 -5t99 -5h2q23 0 447 6q124 0 195 27q76 29 137 76q22 16 35 16q8 -2 -3 -43z" />
    <glyph glyph-name="T_h" horiz-adv-x="1916" 
d="M1753 213q-89 -123 -151 -178t-121 -55q-40 0 -57 25t-9 69q9 52 49 159l174 488q80 225 -10 225q-115 0 -305 -266q-192 -269 -360 -635l-2 -8q-18 -53 -35 -53q-37 0 -64 49q-17 33 0 84l340 1040q17 51 21 84.5t-0.5 54.5t-25 32t-45.5 15t-69 5h-241l-365 -1125
q-41 -127 -35 -157q9 -39 70 -48q17 -1 23.5 -7.5t1.5 -14.5q-3 -6 -25 -6q-20 0 -86 5t-90 5t-89.5 -5t-86.5 -5q-14 0 -22 4.5t-4 11t22 12.5q73 13 110.5 57t73.5 152l365 1121h-179q-104 -3 -153 -41t-121 -154q-12 -20 -19.5 -28t-13.5 -7q-14 3 8 45q70 135 109 246
q9 21 20 16q9 -3 6 -14q-3 -36 78 -39h56h34h557q111 0 170 17q56 15 136 86q20 20 34 20q6 -5 6.5 -9.5t-4.5 -20.5q-1 -2 -1 -3t-1 -3t-1.5 -3.5t-0.5 -3.5l-356 -1085q119 177 172 251q84 112 156 201q173 205 301 205q59 0 85.5 -23.5t22.5 -76.5q-1 -52 -12.5 -96.5
t-42.5 -131.5l-166 -481q-40 -118 -8 -121q3 -3 12 0q49 6 144 133q18 24 29 19t-9 -33z" />
    </font>
</defs>
</svg>
