<?xml version="1.0" standalone="no"?>
<!DOCTYPE svg PUBLIC "-//W3C//DTD SVG 1.1//EN" "http://www.w3.org/Graphics/SVG/1.1/DTD/svg11.dtd" >
<svg xmlns="http://www.w3.org/2000/svg" xmlns:xlink="http://www.w3.org/1999/xlink" version="1.1">
<metadata>
Created by FontForge 20170731 at Tue Jun 22 18:05:42 2021
 By Aleksey,,,
Copyright (c) 2020 by Andrea Tartarelli. All rights reserved.
</metadata>
<defs>
<font id="CalvinoGrandeTrial-Extralight" horiz-adv-x="0" >
  <font-face 
    font-family="Calvino Grande Trial Extralight"
    font-weight="200"
    font-stretch="normal"
    units-per-em="1000"
    panose-1="0 0 3 0 0 0 0 0 0 0"
    ascent="800"
    descent="-200"
    x-height="457"
    cap-height="700"
    bbox="-545 -239 1282 1063"
    underline-thickness="47"
    underline-position="-116"
    unicode-range="U+0020-F8FF"
  />
<missing-glyph horiz-adv-x="600" 
 />
    <glyph glyph-name="f_f" unicode="ff" horiz-adv-x="617" 
d="M657 732l-3 -49h-2q-44 6 -66 6q-71 0 -106.5 -44t-35.5 -129q0 -20 3.5 -37t4.5 -22h155l2 -2v-16h-157v-338q0 -37 3 -52.5t10 -21t25 -8.5l110 -8v-11h-277v11l59 7q12 2 16.5 7t7 21.5t2.5 54.5v338h-262v-338q0 -36 3 -52.5t9.5 -22t20.5 -7.5l87 -8v-11h-249v11
l59 7q12 2 16.5 7t7 21.5t2.5 54.5v338h-71v16l71 4q4 129 54.5 204t142.5 75q32 0 52 -6l-3 -49h-1q-44 6 -67 6q-71 0 -107 -44t-36 -129q0 -19 4 -36t5 -23h227l35 2q4 129 54.5 204t142.5 75q30 0 52 -6z" />
    <glyph glyph-name="f_f_i" unicode="ffi" horiz-adv-x="857" 
d="M832 11v-11h-214v11l59 7q11 2 16 6.5t7.5 19t2.5 47.5l1 281q0 32 -2 45t-8 17t-20 4h-222v-337q0 -36 2.5 -52t9 -21.5t21.5 -8.5l86 -8v-11h-249v11l59 7q12 2 16.5 7t7 21.5t2.5 54.5v337h-70v1h-191v-338q0 -36 3 -52.5t9.5 -22t20.5 -7.5l87 -8v-11h-249v11l59 7
q12 2 16.5 7t7 21.5t2.5 54.5v338h-71v16l71 4q4 129 54.5 204t142.5 75q32 0 52 -6l-3 -49h-1q-44 6 -67 6q-71 0 -107 -44t-36 -129q0 -19 4 -36t5 -23h226l35 2q4 130 58.5 204t162.5 74q37 0 77 -13l-2 -50l-2 -1q-55 15 -93 15q-87 0 -126 -43.5t-39 -128.5
q0 -25 9 -59h203q45 0 89 7l4 -1v-111l-1 -261q0 -33 2.5 -47.5t7.5 -19t16 -6.5z" />
    <glyph glyph-name="f_f_l" unicode="ffl" horiz-adv-x="855" 
d="M835 11v-11h-214v11l59 7q11 2 16 6.5t7.5 19t2.5 47.5v508q1 49 -2 72q-63 19 -113 19q-72 0 -109.5 -45t-37.5 -129q0 -21 3.5 -38t4.5 -21h155l2 -2v-16h-157v-338q0 -36 2.5 -52t9 -21.5t20.5 -7.5l81 -9v-11h-242v11l59 7q12 2 16.5 7t7 21.5t2.5 54.5v338h-262
v-338q0 -36 3 -52.5t9.5 -22t20.5 -7.5l87 -8v-11h-249v11l59 7q12 2 16.5 7t7 21.5t2.5 54.5v338h-71v16l71 4q4 129 54.5 204t142.5 75q32 0 52 -6l-3 -49h-1q-44 6 -67 6q-71 0 -107 -44t-36 -129q0 -19 4 -36t5 -23h227l35 2q4 129 54.5 203.5t142.5 74.5q48 0 104 -18
l37 13h5v-115v-526q0 -33 2 -47.5t7 -19t16 -6.5z" />
    <glyph glyph-name="f_i" unicode="fi" horiz-adv-x="551" 
d="M76 18q12 2 16.5 7t7 21.5t2.5 54.5v337h-71v17l71 4q4 130 58.5 204t162.5 74q35 0 77 -13l-3 -50l-1 -1q-55 15 -94 15q-86 0 -125.5 -43.5t-39.5 -128.5q0 -25 9 -59h203q46 0 90 7l4 -1q-1 -32 -1 -111v-261q0 -33 2 -47.5t7 -19t16 -6.5l59 -7v-11h-214v11l59 7
q11 2 16 6.5t7.5 19t2.5 47.5l1 281q0 32 -2 45t-7.5 17t-19.5 4h-223v-337q0 -37 2.5 -52.5t9 -21t22.5 -8.5l88 -8v-11h-251v11z" />
    <glyph glyph-name="f_l" unicode="fl" horiz-adv-x="549" 
d="M76 18q12 2 16.5 7t7 21.5t2.5 54.5v338h-71v16l71 4q4 129 54.5 203.5t142.5 74.5q46 0 104 -18l37 13h5v-115v-526q0 -33 2 -47.5t7 -19t16 -6.5l59 -7v-11h-214v11l59 7q11 2 16 6.5t7.5 19t2.5 47.5v508q0 58 -2 72q-63 19 -113 19q-72 0 -110 -45t-38 -129
q0 -20 4 -37t5 -22h155l2 -2v-16h-157v-338q0 -36 2.5 -52t9 -21.5t20.5 -7.5l81 -9v-11h-242v11z" />
    <glyph glyph-name=".notdef" horiz-adv-x="600" 
 />
    <glyph glyph-name=".null" 
 />
    <glyph glyph-name="nonmarkingreturn" horiz-adv-x="333" 
 />
    <glyph glyph-name="space" unicode=" " horiz-adv-x="235" 
 />
    <glyph glyph-name="exclam" unicode="!" horiz-adv-x="240" 
d="M105 389q-7 184 -11 309l47 8l4 -5q-13 -316 -17 -519h-16zM90.5 -2q-12.5 11 -12.5 27q0 14 12.5 25t29.5 11q16 0 28.5 -11t12.5 -25q0 -16 -12 -27t-29 -11t-29.5 11z" />
    <glyph glyph-name="quotedbl" unicode="&#x22;" horiz-adv-x="323" 
d="M91 453h-13l-6 247h50zM219 453h-13l-6 247h50z" />
    <glyph glyph-name="numbersign" unicode="#" horiz-adv-x="418" 
d="M412 454h-89l-32 -167h91v-22h-95l-40 -209l-23 4l39 205h-136l-40 -209l-22 4l39 205h-98v22h102l32 167h-104v22h108l38 198l22 -4l-37 -194h136l38 198l23 -4l-37 -194h85v-22zM267 287l32 167h-136l-32 -167h136z" />
    <glyph glyph-name="dollar" unicode="$" horiz-adv-x="503" 
d="M364.5 338.5q42.5 -25.5 67 -62.5t24.5 -93q0 -57 -27.5 -102t-80 -70.5t-124.5 -25.5h-1l-5 -79q-17 0 -25 2l6 78q-48 3 -91.5 17t-69.5 32l23 158l8 -1q4 -95 36.5 -136.5t95.5 -47.5l8 111q6 78 16 232q-64 26 -100.5 53.5t-52.5 62t-16 82.5q0 75 53 120t140 47
l6 91q9 0 25 -2l-7 -89q56 -2 103.5 -17.5t75.5 -36.5l-44 -150l-8 1q2 15 2 42q0 75 -32.5 105.5t-97.5 33.5q-7 -93 -22 -301q72 -29 114.5 -54.5zM128.5 468.5q26.5 -34.5 100.5 -66.5q7 103 19 292q-65 -2 -105.5 -38t-40.5 -99q0 -54 26.5 -88.5zM360.5 49
q48.5 42 48.5 120q0 60 -36.5 98t-126.5 76l-22 -336h5q83 0 131.5 42z" />
    <glyph glyph-name="percent" unicode="%" horiz-adv-x="760" 
d="M77 415q-40 50 -40 132q0 81 40.5 132t107.5 51t107 -50.5t40 -132.5q0 -81 -40.5 -131.5t-106.5 -50.5q-68 0 -108 50zM264 426q29 44 29 121q0 75 -29 120.5t-79 45.5t-79 -44t-29 -122q0 -76 29 -120.5t79 -44.5t79 44zM370 358l179 342h54l-225 -362l-176 -338h-55z
M468 43q-40 50 -40 132q0 81 40.5 132t106.5 51q67 0 107.5 -50.5t40.5 -132.5q0 -81 -40.5 -131.5t-107.5 -50.5t-107 50zM654 54q29 44 29 121q0 76 -29 121t-79 45t-79 -44t-29 -122q0 -75 29.5 -120t78.5 -45q50 0 79 44z" />
    <glyph glyph-name="ampersand" unicode="&#x26;" horiz-adv-x="689" 
d="M544 47.5q33 -21.5 59.5 -28t60.5 -7.5v-9q-33 -12 -61 -12q-41 0 -81 18t-91 66q-98 -88 -209 -88q-81 0 -130 43.5t-49 120.5q0 135 159 212q-48 91 -48 175q0 48 19.5 88.5t56 64t85.5 23.5q62 0 95.5 -33t33.5 -83q0 -70 -49.5 -124t-142.5 -99q36 -64 96 -134
q61 -72 101 -112q38 45 60.5 93.5t22.5 79.5q0 14 -10 20.5t-40.5 10t-104.5 8.5l1 13h216v-9q-13 -53 -46.5 -116.5t-80.5 -116.5q44 -43 77 -64.5zM229.5 653.5q-28.5 -35.5 -28.5 -103.5q0 -77 43 -161q83 53 118.5 101t35.5 103q0 46 -23 71t-65 25q-52 0 -80.5 -35.5z
M414 91q-51 51 -103 115q-68 83 -102 144q-111 -67 -111 -184q0 -69 38.5 -109.5t109.5 -40.5q88 0 168 75z" />
    <glyph glyph-name="quotesingle" unicode="'" horiz-adv-x="195" 
d="M91 453h-13l-6 247h50z" />
    <glyph glyph-name="parenleft" unicode="(" horiz-adv-x="311" 
d="M143.5 525q-46.5 -110 -46.5 -232q0 -123 46.5 -233t130.5 -201l-10 -10q-101 92 -156.5 207.5t-55.5 236.5t55.5 236t156.5 207l10 -11q-84 -90 -130.5 -200z" />
    <glyph glyph-name="parenright" unicode=")" horiz-adv-x="311" 
d="M47 736q101 -92 156.5 -207t55.5 -236t-55.5 -236.5t-156.5 -207.5l-10 10q84 91 130.5 201t46.5 233q0 122 -46.5 232t-130.5 200z" />
    <glyph glyph-name="asterisk" unicode="*" horiz-adv-x="347" 
d="M76 467l81 89l-120 30l12 36l114 -47l-9 125h39l-11 -125l116 46l12 -34l-121 -31l82 -89l-30 -22l-67 101l-67 -102z" />
    <glyph glyph-name="plus" unicode="+" horiz-adv-x="332" 
d="M295 239v-19h-120v-119h-19v119h-119v19h119v120h19v-120h120z" />
    <glyph glyph-name="comma" unicode="," horiz-adv-x="202" 
d="M79.5 46q10.5 13 27.5 13q18 0 28 -13t10 -37q0 -99 -101 -149l-7 11q37 22 53 48.5t16 52.5q0 37 -36 38q-1 23 9.5 36z" />
    <glyph glyph-name="hyphen" unicode="-" horiz-adv-x="332" 
d="M295 268v-19h-258v19h258z" />
    <glyph glyph-name="period" unicode="." horiz-adv-x="199" 
d="M69.5 -2q-12.5 11 -12.5 27q0 15 13 26t30 11t29 -11t12 -26q0 -16 -12 -27t-29 -11q-18 0 -30.5 11z" />
    <glyph glyph-name="slash" unicode="/" horiz-adv-x="380" 
d="M354 754l20 -7l-348 -848l-20 7z" />
    <glyph glyph-name="zero" unicode="0" horiz-adv-x="1305" 
d="M1282 462v-193h-1254v193h486q3 37 22.5 67t50.5 47.5t68 17.5t68.5 -17.5t51 -47.5t21.5 -67h486zM740 547q-38 33 -85 33q-24 0 -46 -8.5t-39 -24.5h170zM753 371q29 36 29 81q0 48 -32 85l-166 -166h169zM556 533q-29 -35 -29 -81q0 -24 9 -46t24 -39l167 166h-171z
M872 303q28 0 47 18.5t19 45.5t-19 45t-47 18t-46.5 -18t-18.5 -45t18.5 -45.5t46.5 -18.5v0zM216 306h41l-21 46q14 13 14 32t-13.5 31t-32.5 12h-50v-121h39v35h8zM872 395q12 0 19.5 -8t7.5 -20q0 -13 -7.5 -21t-19.5 -8q-11 0 -19 8.5t-8 20.5t8 20t19 8v0zM203 394
q3 0 5.5 -3t2.5 -7t-2.5 -7.5t-5.5 -3.5h-10v21h10zM570 357q37 -32 85 -32q24 0 46 8.5t39 23.5h-170zM511 176q12 -7 26 -7q11 0 18.5 6t7.5 17q0 8 -6 13t-17 9q-9 3 -12.5 5.5t-3.5 7.5t4 8t10 3q5 0 10.5 -2t9.5 -5v13q-10 5 -20 5q-11 0 -18.5 -5.5t-7.5 -16.5
q0 -9 5.5 -13.5t16.5 -9.5q9 -2 13 -4.5t4 -7.5q0 -6 -4 -9t-10 -3q-13 0 -26 9v-13zM600 209q0 -17 11.5 -28.5t28.5 -11.5t28.5 11.5t11.5 28.5t-11.5 28.5t-28.5 11.5t-28.5 -11.5t-11.5 -28.5v0zM87 200q0 -13 9 -22t22 -9q14 0 23 9t9 22v47h-12v-47q0 -8 -5.5 -14
t-14.5 -6q-8 0 -13.5 5.5t-5.5 14.5v47h-12v-47zM491 170h14l-15 31q6 3 9 9t3 12q0 11 -7 18t-18 7h-29v-77h12v28h18zM667 209q0 -12 -7.5 -20.5t-19.5 -8.5t-20 8.5t-8 20.5t8 20t20 8t19.5 -8t7.5 -20v0zM490 222q0 -6 -3.5 -10t-9.5 -4h-17v28h17q6 0 9.5 -4t3.5 -10v0
zM490 95q0 -24 17 -41t42 -17q26 0 42.5 16.5t16.5 41.5q0 24 -16.5 40.5t-42.5 16.5q-25 0 -42 -16.5t-17 -40.5v0zM817 47q16 -10 38 -10q20 0 32 10t12 27q0 27 -36 35q-2 1 -6.5 2t-6 2.5t-1.5 3.5q0 4 11 4q7 0 16.5 -3t15.5 -8v34q-17 8 -32 8q-20 0 -32.5 -9
t-12.5 -25q0 -14 7.5 -21.5t24.5 -13.5q4 -1 8.5 -2t6.5 -2.5t2 -4.5q0 -6 -9 -6q-13 0 -38 16v-37zM945 95q0 -24 17 -41t41 -17q12 0 26 7l1 35q-10 -10 -25 -10q-10 0 -17.5 7.5t-7.5 18.5t7.5 18t17.5 7q11 0 22 -7v33q-10 6 -23 6q-25 0 -42 -16.5t-17 -40.5v0z
M1033 95q0 -24 17.5 -41t42.5 -17t42 17t17 41t-17 40.5t-42 16.5t-42.5 -16.5t-17.5 -40.5v0zM573 95q0 -11 -6.5 -18.5t-17.5 -7.5q-10 0 -17 7.5t-7 18.5t7 18t17 7q11 0 17.5 -7t6.5 -18v0zM1117 95q0 -11 -7 -18.5t-17 -7.5t-17.5 7.5t-7.5 18.5t7.5 18t17.5 7t17 -7
t7 -18v0zM904 54q0 -7 5 -12t13 -5t12.5 5t4.5 12t-4.5 11.5t-12.5 4.5t-13 -4.5t-5 -11.5v0zM119 392h28v35h-96v-35h29v-86h39v86zM263 306h38v121h-38v-121zM388 325l5 -19h42l-41 121h-45l-41 -121h41l5 19h34zM442 306h82v33h-43v88h-39v-121zM1022 306h40v121h-39v-64
l-37 64h-40v-121h39l-1 59zM1074 306h82v33h-43v88h-39v-121zM1217 306v48l41 73h-45l-16 -36l-15 36h-46l42 -73v-48h39zM362 357l8 29h1l8 -29h-17zM759 168v79h-12v-54l-49 55h-6v-78h12v52l49 -54h6zM77 247h-50v-77h12v29h33v11h-33v26h38v11zM177 247h-12v-77h47v11
h-35v66zM235 247h-12v-77h48v11h-36v66zM343 170l32 77h-14l-22 -57l-22 57h-14l32 -77h8zM435 247h-50v-77h50v11h-38v23h33v10h-33v22h38v11zM587 247h-12v-77h12v77zM1246 183l25 24l-25 24l-8 -7l13 -11h-458v-12h458l-13 -11zM28 118h36l-41 -78h95v31h-38l41 78h-93
v-31zM207 149h-79v-109h80v30h-45v10h38v30h-38v9h44v30zM212 118h26v-78h35v78h26v31h-87v-31zM328 57h31l4 -17h38l-37 109h-40l-37 -109h36zM486 149h-79v-109h35v34h37v29h-37v16h44v30zM720 40v109h-35v-58l-33 58h-36v-109h35l-1 53l34 -53h36zM726 118h26v-78h35v78
h25v31h-86v-31zM1194 149h-35v-109h35v43l14 -27h25l14 27v-43h34v109h-35l-26 -50zM344 112l7 -26h-15l7 26h1z" />
    <glyph glyph-name="one" unicode="1" horiz-adv-x="1305" 
d="M1282 462v-193h-1254v193h486q3 37 22.5 67t50.5 47.5t68 17.5t68.5 -17.5t51 -47.5t21.5 -67h486zM740 547q-38 33 -85 33q-24 0 -46 -8.5t-39 -24.5h170zM753 371q29 36 29 81q0 48 -32 85l-166 -166h169zM556 533q-29 -35 -29 -81q0 -24 9 -46t24 -39l167 166h-171z
M872 303q28 0 47 18.5t19 45.5t-19 45t-47 18t-46.5 -18t-18.5 -45t18.5 -45.5t46.5 -18.5v0zM216 306h41l-21 46q14 13 14 32t-13.5 31t-32.5 12h-50v-121h39v35h8zM872 395q12 0 19.5 -8t7.5 -20q0 -13 -7.5 -21t-19.5 -8q-11 0 -19 8.5t-8 20.5t8 20t19 8v0zM203 394
q3 0 5.5 -3t2.5 -7t-2.5 -7.5t-5.5 -3.5h-10v21h10zM570 357q37 -32 85 -32q24 0 46 8.5t39 23.5h-170zM511 176q12 -7 26 -7q11 0 18.5 6t7.5 17q0 8 -6 13t-17 9q-9 3 -12.5 5.5t-3.5 7.5t4 8t10 3q5 0 10.5 -2t9.5 -5v13q-10 5 -20 5q-11 0 -18.5 -5.5t-7.5 -16.5
q0 -9 5.5 -13.5t16.5 -9.5q9 -2 13 -4.5t4 -7.5q0 -6 -4 -9t-10 -3q-13 0 -26 9v-13zM600 209q0 -17 11.5 -28.5t28.5 -11.5t28.5 11.5t11.5 28.5t-11.5 28.5t-28.5 11.5t-28.5 -11.5t-11.5 -28.5v0zM87 200q0 -13 9 -22t22 -9q14 0 23 9t9 22v47h-12v-47q0 -8 -5.5 -14
t-14.5 -6q-8 0 -13.5 5.5t-5.5 14.5v47h-12v-47zM491 170h14l-15 31q6 3 9 9t3 12q0 11 -7 18t-18 7h-29v-77h12v28h18zM667 209q0 -12 -7.5 -20.5t-19.5 -8.5t-20 8.5t-8 20.5t8 20t20 8t19.5 -8t7.5 -20v0zM490 222q0 -6 -3.5 -10t-9.5 -4h-17v28h17q6 0 9.5 -4t3.5 -10v0
zM490 95q0 -24 17 -41t42 -17q26 0 42.5 16.5t16.5 41.5q0 24 -16.5 40.5t-42.5 16.5q-25 0 -42 -16.5t-17 -40.5v0zM817 47q16 -10 38 -10q20 0 32 10t12 27q0 27 -36 35q-2 1 -6.5 2t-6 2.5t-1.5 3.5q0 4 11 4q7 0 16.5 -3t15.5 -8v34q-17 8 -32 8q-20 0 -32.5 -9
t-12.5 -25q0 -14 7.5 -21.5t24.5 -13.5q4 -1 8.5 -2t6.5 -2.5t2 -4.5q0 -6 -9 -6q-13 0 -38 16v-37zM945 95q0 -24 17 -41t41 -17q12 0 26 7l1 35q-10 -10 -25 -10q-10 0 -17.5 7.5t-7.5 18.5t7.5 18t17.5 7q11 0 22 -7v33q-10 6 -23 6q-25 0 -42 -16.5t-17 -40.5v0z
M1033 95q0 -24 17.5 -41t42.5 -17t42 17t17 41t-17 40.5t-42 16.5t-42.5 -16.5t-17.5 -40.5v0zM573 95q0 -11 -6.5 -18.5t-17.5 -7.5q-10 0 -17 7.5t-7 18.5t7 18t17 7q11 0 17.5 -7t6.5 -18v0zM1117 95q0 -11 -7 -18.5t-17 -7.5t-17.5 7.5t-7.5 18.5t7.5 18t17.5 7t17 -7
t7 -18v0zM904 54q0 -7 5 -12t13 -5t12.5 5t4.5 12t-4.5 11.5t-12.5 4.5t-13 -4.5t-5 -11.5v0zM119 392h28v35h-96v-35h29v-86h39v86zM263 306h38v121h-38v-121zM388 325l5 -19h42l-41 121h-45l-41 -121h41l5 19h34zM442 306h82v33h-43v88h-39v-121zM1022 306h40v121h-39v-64
l-37 64h-40v-121h39l-1 59zM1074 306h82v33h-43v88h-39v-121zM1217 306v48l41 73h-45l-16 -36l-15 36h-46l42 -73v-48h39zM362 357l8 29h1l8 -29h-17zM759 168v79h-12v-54l-49 55h-6v-78h12v52l49 -54h6zM77 247h-50v-77h12v29h33v11h-33v26h38v11zM177 247h-12v-77h47v11
h-35v66zM235 247h-12v-77h48v11h-36v66zM343 170l32 77h-14l-22 -57l-22 57h-14l32 -77h8zM435 247h-50v-77h50v11h-38v23h33v10h-33v22h38v11zM587 247h-12v-77h12v77zM1246 183l25 24l-25 24l-8 -7l13 -11h-458v-12h458l-13 -11zM28 118h36l-41 -78h95v31h-38l41 78h-93
v-31zM207 149h-79v-109h80v30h-45v10h38v30h-38v9h44v30zM212 118h26v-78h35v78h26v31h-87v-31zM328 57h31l4 -17h38l-37 109h-40l-37 -109h36zM486 149h-79v-109h35v34h37v29h-37v16h44v30zM720 40v109h-35v-58l-33 58h-36v-109h35l-1 53l34 -53h36zM726 118h26v-78h35v78
h25v31h-86v-31zM1194 149h-35v-109h35v43l14 -27h25l14 27v-43h34v109h-35l-26 -50zM344 112l7 -26h-15l7 26h1z" />
    <glyph glyph-name="two" unicode="2" horiz-adv-x="1305" 
d="M1282 462v-193h-1254v193h486q3 37 22.5 67t50.5 47.5t68 17.5t68.5 -17.5t51 -47.5t21.5 -67h486zM740 547q-38 33 -85 33q-24 0 -46 -8.5t-39 -24.5h170zM753 371q29 36 29 81q0 48 -32 85l-166 -166h169zM556 533q-29 -35 -29 -81q0 -24 9 -46t24 -39l167 166h-171z
M872 303q28 0 47 18.5t19 45.5t-19 45t-47 18t-46.5 -18t-18.5 -45t18.5 -45.5t46.5 -18.5v0zM216 306h41l-21 46q14 13 14 32t-13.5 31t-32.5 12h-50v-121h39v35h8zM872 395q12 0 19.5 -8t7.5 -20q0 -13 -7.5 -21t-19.5 -8q-11 0 -19 8.5t-8 20.5t8 20t19 8v0zM203 394
q3 0 5.5 -3t2.5 -7t-2.5 -7.5t-5.5 -3.5h-10v21h10zM570 357q37 -32 85 -32q24 0 46 8.5t39 23.5h-170zM511 176q12 -7 26 -7q11 0 18.5 6t7.5 17q0 8 -6 13t-17 9q-9 3 -12.5 5.5t-3.5 7.5t4 8t10 3q5 0 10.5 -2t9.5 -5v13q-10 5 -20 5q-11 0 -18.5 -5.5t-7.5 -16.5
q0 -9 5.5 -13.5t16.5 -9.5q9 -2 13 -4.5t4 -7.5q0 -6 -4 -9t-10 -3q-13 0 -26 9v-13zM600 209q0 -17 11.5 -28.5t28.5 -11.5t28.5 11.5t11.5 28.5t-11.5 28.5t-28.5 11.5t-28.5 -11.5t-11.5 -28.5v0zM87 200q0 -13 9 -22t22 -9q14 0 23 9t9 22v47h-12v-47q0 -8 -5.5 -14
t-14.5 -6q-8 0 -13.5 5.5t-5.5 14.5v47h-12v-47zM491 170h14l-15 31q6 3 9 9t3 12q0 11 -7 18t-18 7h-29v-77h12v28h18zM667 209q0 -12 -7.5 -20.5t-19.5 -8.5t-20 8.5t-8 20.5t8 20t20 8t19.5 -8t7.5 -20v0zM490 222q0 -6 -3.5 -10t-9.5 -4h-17v28h17q6 0 9.5 -4t3.5 -10v0
zM490 95q0 -24 17 -41t42 -17q26 0 42.5 16.5t16.5 41.5q0 24 -16.5 40.5t-42.5 16.5q-25 0 -42 -16.5t-17 -40.5v0zM817 47q16 -10 38 -10q20 0 32 10t12 27q0 27 -36 35q-2 1 -6.5 2t-6 2.5t-1.5 3.5q0 4 11 4q7 0 16.5 -3t15.5 -8v34q-17 8 -32 8q-20 0 -32.5 -9
t-12.5 -25q0 -14 7.5 -21.5t24.5 -13.5q4 -1 8.5 -2t6.5 -2.5t2 -4.5q0 -6 -9 -6q-13 0 -38 16v-37zM945 95q0 -24 17 -41t41 -17q12 0 26 7l1 35q-10 -10 -25 -10q-10 0 -17.5 7.5t-7.5 18.5t7.5 18t17.5 7q11 0 22 -7v33q-10 6 -23 6q-25 0 -42 -16.5t-17 -40.5v0z
M1033 95q0 -24 17.5 -41t42.5 -17t42 17t17 41t-17 40.5t-42 16.5t-42.5 -16.5t-17.5 -40.5v0zM573 95q0 -11 -6.5 -18.5t-17.5 -7.5q-10 0 -17 7.5t-7 18.5t7 18t17 7q11 0 17.5 -7t6.5 -18v0zM1117 95q0 -11 -7 -18.5t-17 -7.5t-17.5 7.5t-7.5 18.5t7.5 18t17.5 7t17 -7
t7 -18v0zM904 54q0 -7 5 -12t13 -5t12.5 5t4.5 12t-4.5 11.5t-12.5 4.5t-13 -4.5t-5 -11.5v0zM119 392h28v35h-96v-35h29v-86h39v86zM263 306h38v121h-38v-121zM388 325l5 -19h42l-41 121h-45l-41 -121h41l5 19h34zM442 306h82v33h-43v88h-39v-121zM1022 306h40v121h-39v-64
l-37 64h-40v-121h39l-1 59zM1074 306h82v33h-43v88h-39v-121zM1217 306v48l41 73h-45l-16 -36l-15 36h-46l42 -73v-48h39zM362 357l8 29h1l8 -29h-17zM759 168v79h-12v-54l-49 55h-6v-78h12v52l49 -54h6zM77 247h-50v-77h12v29h33v11h-33v26h38v11zM177 247h-12v-77h47v11
h-35v66zM235 247h-12v-77h48v11h-36v66zM343 170l32 77h-14l-22 -57l-22 57h-14l32 -77h8zM435 247h-50v-77h50v11h-38v23h33v10h-33v22h38v11zM587 247h-12v-77h12v77zM1246 183l25 24l-25 24l-8 -7l13 -11h-458v-12h458l-13 -11zM28 118h36l-41 -78h95v31h-38l41 78h-93
v-31zM207 149h-79v-109h80v30h-45v10h38v30h-38v9h44v30zM212 118h26v-78h35v78h26v31h-87v-31zM328 57h31l4 -17h38l-37 109h-40l-37 -109h36zM486 149h-79v-109h35v34h37v29h-37v16h44v30zM720 40v109h-35v-58l-33 58h-36v-109h35l-1 53l34 -53h36zM726 118h26v-78h35v78
h25v31h-86v-31zM1194 149h-35v-109h35v43l14 -27h25l14 27v-43h34v109h-35l-26 -50zM344 112l7 -26h-15l7 26h1z" />
    <glyph glyph-name="three" unicode="3" horiz-adv-x="1305" 
d="M1282 462v-193h-1254v193h486q3 37 22.5 67t50.5 47.5t68 17.5t68.5 -17.5t51 -47.5t21.5 -67h486zM740 547q-38 33 -85 33q-24 0 -46 -8.5t-39 -24.5h170zM753 371q29 36 29 81q0 48 -32 85l-166 -166h169zM556 533q-29 -35 -29 -81q0 -24 9 -46t24 -39l167 166h-171z
M872 303q28 0 47 18.5t19 45.5t-19 45t-47 18t-46.5 -18t-18.5 -45t18.5 -45.5t46.5 -18.5v0zM216 306h41l-21 46q14 13 14 32t-13.5 31t-32.5 12h-50v-121h39v35h8zM872 395q12 0 19.5 -8t7.5 -20q0 -13 -7.5 -21t-19.5 -8q-11 0 -19 8.5t-8 20.5t8 20t19 8v0zM203 394
q3 0 5.5 -3t2.5 -7t-2.5 -7.5t-5.5 -3.5h-10v21h10zM570 357q37 -32 85 -32q24 0 46 8.5t39 23.5h-170zM511 176q12 -7 26 -7q11 0 18.5 6t7.5 17q0 8 -6 13t-17 9q-9 3 -12.5 5.5t-3.5 7.5t4 8t10 3q5 0 10.5 -2t9.5 -5v13q-10 5 -20 5q-11 0 -18.5 -5.5t-7.5 -16.5
q0 -9 5.5 -13.5t16.5 -9.5q9 -2 13 -4.5t4 -7.5q0 -6 -4 -9t-10 -3q-13 0 -26 9v-13zM600 209q0 -17 11.5 -28.5t28.5 -11.5t28.5 11.5t11.5 28.5t-11.5 28.5t-28.5 11.5t-28.5 -11.5t-11.5 -28.5v0zM87 200q0 -13 9 -22t22 -9q14 0 23 9t9 22v47h-12v-47q0 -8 -5.5 -14
t-14.5 -6q-8 0 -13.5 5.5t-5.5 14.5v47h-12v-47zM491 170h14l-15 31q6 3 9 9t3 12q0 11 -7 18t-18 7h-29v-77h12v28h18zM667 209q0 -12 -7.5 -20.5t-19.5 -8.5t-20 8.5t-8 20.5t8 20t20 8t19.5 -8t7.5 -20v0zM490 222q0 -6 -3.5 -10t-9.5 -4h-17v28h17q6 0 9.5 -4t3.5 -10v0
zM490 95q0 -24 17 -41t42 -17q26 0 42.5 16.5t16.5 41.5q0 24 -16.5 40.5t-42.5 16.5q-25 0 -42 -16.5t-17 -40.5v0zM817 47q16 -10 38 -10q20 0 32 10t12 27q0 27 -36 35q-2 1 -6.5 2t-6 2.5t-1.5 3.5q0 4 11 4q7 0 16.5 -3t15.5 -8v34q-17 8 -32 8q-20 0 -32.5 -9
t-12.5 -25q0 -14 7.5 -21.5t24.5 -13.5q4 -1 8.5 -2t6.5 -2.5t2 -4.5q0 -6 -9 -6q-13 0 -38 16v-37zM945 95q0 -24 17 -41t41 -17q12 0 26 7l1 35q-10 -10 -25 -10q-10 0 -17.5 7.5t-7.5 18.5t7.5 18t17.5 7q11 0 22 -7v33q-10 6 -23 6q-25 0 -42 -16.5t-17 -40.5v0z
M1033 95q0 -24 17.5 -41t42.5 -17t42 17t17 41t-17 40.5t-42 16.5t-42.5 -16.5t-17.5 -40.5v0zM573 95q0 -11 -6.5 -18.5t-17.5 -7.5q-10 0 -17 7.5t-7 18.5t7 18t17 7q11 0 17.5 -7t6.5 -18v0zM1117 95q0 -11 -7 -18.5t-17 -7.5t-17.5 7.5t-7.5 18.5t7.5 18t17.5 7t17 -7
t7 -18v0zM904 54q0 -7 5 -12t13 -5t12.5 5t4.5 12t-4.5 11.5t-12.5 4.5t-13 -4.5t-5 -11.5v0zM119 392h28v35h-96v-35h29v-86h39v86zM263 306h38v121h-38v-121zM388 325l5 -19h42l-41 121h-45l-41 -121h41l5 19h34zM442 306h82v33h-43v88h-39v-121zM1022 306h40v121h-39v-64
l-37 64h-40v-121h39l-1 59zM1074 306h82v33h-43v88h-39v-121zM1217 306v48l41 73h-45l-16 -36l-15 36h-46l42 -73v-48h39zM362 357l8 29h1l8 -29h-17zM759 168v79h-12v-54l-49 55h-6v-78h12v52l49 -54h6zM77 247h-50v-77h12v29h33v11h-33v26h38v11zM177 247h-12v-77h47v11
h-35v66zM235 247h-12v-77h48v11h-36v66zM343 170l32 77h-14l-22 -57l-22 57h-14l32 -77h8zM435 247h-50v-77h50v11h-38v23h33v10h-33v22h38v11zM587 247h-12v-77h12v77zM1246 183l25 24l-25 24l-8 -7l13 -11h-458v-12h458l-13 -11zM28 118h36l-41 -78h95v31h-38l41 78h-93
v-31zM207 149h-79v-109h80v30h-45v10h38v30h-38v9h44v30zM212 118h26v-78h35v78h26v31h-87v-31zM328 57h31l4 -17h38l-37 109h-40l-37 -109h36zM486 149h-79v-109h35v34h37v29h-37v16h44v30zM720 40v109h-35v-58l-33 58h-36v-109h35l-1 53l34 -53h36zM726 118h26v-78h35v78
h25v31h-86v-31zM1194 149h-35v-109h35v43l14 -27h25l14 27v-43h34v109h-35l-26 -50zM344 112l7 -26h-15l7 26h1z" />
    <glyph glyph-name="four" unicode="4" horiz-adv-x="1305" 
d="M1282 462v-193h-1254v193h486q3 37 22.5 67t50.5 47.5t68 17.5t68.5 -17.5t51 -47.5t21.5 -67h486zM740 547q-38 33 -85 33q-24 0 -46 -8.5t-39 -24.5h170zM753 371q29 36 29 81q0 48 -32 85l-166 -166h169zM556 533q-29 -35 -29 -81q0 -24 9 -46t24 -39l167 166h-171z
M872 303q28 0 47 18.5t19 45.5t-19 45t-47 18t-46.5 -18t-18.5 -45t18.5 -45.5t46.5 -18.5v0zM216 306h41l-21 46q14 13 14 32t-13.5 31t-32.5 12h-50v-121h39v35h8zM872 395q12 0 19.5 -8t7.5 -20q0 -13 -7.5 -21t-19.5 -8q-11 0 -19 8.5t-8 20.5t8 20t19 8v0zM203 394
q3 0 5.5 -3t2.5 -7t-2.5 -7.5t-5.5 -3.5h-10v21h10zM570 357q37 -32 85 -32q24 0 46 8.5t39 23.5h-170zM511 176q12 -7 26 -7q11 0 18.5 6t7.5 17q0 8 -6 13t-17 9q-9 3 -12.5 5.5t-3.5 7.5t4 8t10 3q5 0 10.5 -2t9.5 -5v13q-10 5 -20 5q-11 0 -18.5 -5.5t-7.5 -16.5
q0 -9 5.5 -13.5t16.5 -9.5q9 -2 13 -4.5t4 -7.5q0 -6 -4 -9t-10 -3q-13 0 -26 9v-13zM600 209q0 -17 11.5 -28.5t28.5 -11.5t28.5 11.5t11.5 28.5t-11.5 28.5t-28.5 11.5t-28.5 -11.5t-11.5 -28.5v0zM87 200q0 -13 9 -22t22 -9q14 0 23 9t9 22v47h-12v-47q0 -8 -5.5 -14
t-14.5 -6q-8 0 -13.5 5.5t-5.5 14.5v47h-12v-47zM491 170h14l-15 31q6 3 9 9t3 12q0 11 -7 18t-18 7h-29v-77h12v28h18zM667 209q0 -12 -7.5 -20.5t-19.5 -8.5t-20 8.5t-8 20.5t8 20t20 8t19.5 -8t7.5 -20v0zM490 222q0 -6 -3.5 -10t-9.5 -4h-17v28h17q6 0 9.5 -4t3.5 -10v0
zM490 95q0 -24 17 -41t42 -17q26 0 42.5 16.5t16.5 41.5q0 24 -16.5 40.5t-42.5 16.5q-25 0 -42 -16.5t-17 -40.5v0zM817 47q16 -10 38 -10q20 0 32 10t12 27q0 27 -36 35q-2 1 -6.5 2t-6 2.5t-1.5 3.5q0 4 11 4q7 0 16.5 -3t15.5 -8v34q-17 8 -32 8q-20 0 -32.5 -9
t-12.5 -25q0 -14 7.5 -21.5t24.5 -13.5q4 -1 8.5 -2t6.5 -2.5t2 -4.5q0 -6 -9 -6q-13 0 -38 16v-37zM945 95q0 -24 17 -41t41 -17q12 0 26 7l1 35q-10 -10 -25 -10q-10 0 -17.5 7.5t-7.5 18.5t7.5 18t17.5 7q11 0 22 -7v33q-10 6 -23 6q-25 0 -42 -16.5t-17 -40.5v0z
M1033 95q0 -24 17.5 -41t42.5 -17t42 17t17 41t-17 40.5t-42 16.5t-42.5 -16.5t-17.5 -40.5v0zM573 95q0 -11 -6.5 -18.5t-17.5 -7.5q-10 0 -17 7.5t-7 18.5t7 18t17 7q11 0 17.5 -7t6.5 -18v0zM1117 95q0 -11 -7 -18.5t-17 -7.5t-17.5 7.5t-7.5 18.5t7.5 18t17.5 7t17 -7
t7 -18v0zM904 54q0 -7 5 -12t13 -5t12.5 5t4.5 12t-4.5 11.5t-12.5 4.5t-13 -4.5t-5 -11.5v0zM119 392h28v35h-96v-35h29v-86h39v86zM263 306h38v121h-38v-121zM388 325l5 -19h42l-41 121h-45l-41 -121h41l5 19h34zM442 306h82v33h-43v88h-39v-121zM1022 306h40v121h-39v-64
l-37 64h-40v-121h39l-1 59zM1074 306h82v33h-43v88h-39v-121zM1217 306v48l41 73h-45l-16 -36l-15 36h-46l42 -73v-48h39zM362 357l8 29h1l8 -29h-17zM759 168v79h-12v-54l-49 55h-6v-78h12v52l49 -54h6zM77 247h-50v-77h12v29h33v11h-33v26h38v11zM177 247h-12v-77h47v11
h-35v66zM235 247h-12v-77h48v11h-36v66zM343 170l32 77h-14l-22 -57l-22 57h-14l32 -77h8zM435 247h-50v-77h50v11h-38v23h33v10h-33v22h38v11zM587 247h-12v-77h12v77zM1246 183l25 24l-25 24l-8 -7l13 -11h-458v-12h458l-13 -11zM28 118h36l-41 -78h95v31h-38l41 78h-93
v-31zM207 149h-79v-109h80v30h-45v10h38v30h-38v9h44v30zM212 118h26v-78h35v78h26v31h-87v-31zM328 57h31l4 -17h38l-37 109h-40l-37 -109h36zM486 149h-79v-109h35v34h37v29h-37v16h44v30zM720 40v109h-35v-58l-33 58h-36v-109h35l-1 53l34 -53h36zM726 118h26v-78h35v78
h25v31h-86v-31zM1194 149h-35v-109h35v43l14 -27h25l14 27v-43h34v109h-35l-26 -50zM344 112l7 -26h-15l7 26h1z" />
    <glyph glyph-name="five" unicode="5" horiz-adv-x="1305" 
d="M1282 462v-193h-1254v193h486q3 37 22.5 67t50.5 47.5t68 17.5t68.5 -17.5t51 -47.5t21.5 -67h486zM740 547q-38 33 -85 33q-24 0 -46 -8.5t-39 -24.5h170zM753 371q29 36 29 81q0 48 -32 85l-166 -166h169zM556 533q-29 -35 -29 -81q0 -24 9 -46t24 -39l167 166h-171z
M872 303q28 0 47 18.5t19 45.5t-19 45t-47 18t-46.5 -18t-18.5 -45t18.5 -45.5t46.5 -18.5v0zM216 306h41l-21 46q14 13 14 32t-13.5 31t-32.5 12h-50v-121h39v35h8zM872 395q12 0 19.5 -8t7.5 -20q0 -13 -7.5 -21t-19.5 -8q-11 0 -19 8.5t-8 20.5t8 20t19 8v0zM203 394
q3 0 5.5 -3t2.5 -7t-2.5 -7.5t-5.5 -3.5h-10v21h10zM570 357q37 -32 85 -32q24 0 46 8.5t39 23.5h-170zM511 176q12 -7 26 -7q11 0 18.5 6t7.5 17q0 8 -6 13t-17 9q-9 3 -12.5 5.5t-3.5 7.5t4 8t10 3q5 0 10.5 -2t9.5 -5v13q-10 5 -20 5q-11 0 -18.5 -5.5t-7.5 -16.5
q0 -9 5.5 -13.5t16.5 -9.5q9 -2 13 -4.5t4 -7.5q0 -6 -4 -9t-10 -3q-13 0 -26 9v-13zM600 209q0 -17 11.5 -28.5t28.5 -11.5t28.5 11.5t11.5 28.5t-11.5 28.5t-28.5 11.5t-28.5 -11.5t-11.5 -28.5v0zM87 200q0 -13 9 -22t22 -9q14 0 23 9t9 22v47h-12v-47q0 -8 -5.5 -14
t-14.5 -6q-8 0 -13.5 5.5t-5.5 14.5v47h-12v-47zM491 170h14l-15 31q6 3 9 9t3 12q0 11 -7 18t-18 7h-29v-77h12v28h18zM667 209q0 -12 -7.5 -20.5t-19.5 -8.5t-20 8.5t-8 20.5t8 20t20 8t19.5 -8t7.5 -20v0zM490 222q0 -6 -3.5 -10t-9.5 -4h-17v28h17q6 0 9.5 -4t3.5 -10v0
zM490 95q0 -24 17 -41t42 -17q26 0 42.5 16.5t16.5 41.5q0 24 -16.5 40.5t-42.5 16.5q-25 0 -42 -16.5t-17 -40.5v0zM817 47q16 -10 38 -10q20 0 32 10t12 27q0 27 -36 35q-2 1 -6.5 2t-6 2.5t-1.5 3.5q0 4 11 4q7 0 16.5 -3t15.5 -8v34q-17 8 -32 8q-20 0 -32.5 -9
t-12.5 -25q0 -14 7.5 -21.5t24.5 -13.5q4 -1 8.5 -2t6.5 -2.5t2 -4.5q0 -6 -9 -6q-13 0 -38 16v-37zM945 95q0 -24 17 -41t41 -17q12 0 26 7l1 35q-10 -10 -25 -10q-10 0 -17.5 7.5t-7.5 18.5t7.5 18t17.5 7q11 0 22 -7v33q-10 6 -23 6q-25 0 -42 -16.5t-17 -40.5v0z
M1033 95q0 -24 17.5 -41t42.5 -17t42 17t17 41t-17 40.5t-42 16.5t-42.5 -16.5t-17.5 -40.5v0zM573 95q0 -11 -6.5 -18.5t-17.5 -7.5q-10 0 -17 7.5t-7 18.5t7 18t17 7q11 0 17.5 -7t6.5 -18v0zM1117 95q0 -11 -7 -18.5t-17 -7.5t-17.5 7.5t-7.5 18.5t7.5 18t17.5 7t17 -7
t7 -18v0zM904 54q0 -7 5 -12t13 -5t12.5 5t4.5 12t-4.5 11.5t-12.5 4.5t-13 -4.5t-5 -11.5v0zM119 392h28v35h-96v-35h29v-86h39v86zM263 306h38v121h-38v-121zM388 325l5 -19h42l-41 121h-45l-41 -121h41l5 19h34zM442 306h82v33h-43v88h-39v-121zM1022 306h40v121h-39v-64
l-37 64h-40v-121h39l-1 59zM1074 306h82v33h-43v88h-39v-121zM1217 306v48l41 73h-45l-16 -36l-15 36h-46l42 -73v-48h39zM362 357l8 29h1l8 -29h-17zM759 168v79h-12v-54l-49 55h-6v-78h12v52l49 -54h6zM77 247h-50v-77h12v29h33v11h-33v26h38v11zM177 247h-12v-77h47v11
h-35v66zM235 247h-12v-77h48v11h-36v66zM343 170l32 77h-14l-22 -57l-22 57h-14l32 -77h8zM435 247h-50v-77h50v11h-38v23h33v10h-33v22h38v11zM587 247h-12v-77h12v77zM1246 183l25 24l-25 24l-8 -7l13 -11h-458v-12h458l-13 -11zM28 118h36l-41 -78h95v31h-38l41 78h-93
v-31zM207 149h-79v-109h80v30h-45v10h38v30h-38v9h44v30zM212 118h26v-78h35v78h26v31h-87v-31zM328 57h31l4 -17h38l-37 109h-40l-37 -109h36zM486 149h-79v-109h35v34h37v29h-37v16h44v30zM720 40v109h-35v-58l-33 58h-36v-109h35l-1 53l34 -53h36zM726 118h26v-78h35v78
h25v31h-86v-31zM1194 149h-35v-109h35v43l14 -27h25l14 27v-43h34v109h-35l-26 -50zM344 112l7 -26h-15l7 26h1z" />
    <glyph glyph-name="six" unicode="6" horiz-adv-x="1305" 
d="M1282 462v-193h-1254v193h486q3 37 22.5 67t50.5 47.5t68 17.5t68.5 -17.5t51 -47.5t21.5 -67h486zM740 547q-38 33 -85 33q-24 0 -46 -8.5t-39 -24.5h170zM753 371q29 36 29 81q0 48 -32 85l-166 -166h169zM556 533q-29 -35 -29 -81q0 -24 9 -46t24 -39l167 166h-171z
M872 303q28 0 47 18.5t19 45.5t-19 45t-47 18t-46.5 -18t-18.5 -45t18.5 -45.5t46.5 -18.5v0zM216 306h41l-21 46q14 13 14 32t-13.5 31t-32.5 12h-50v-121h39v35h8zM872 395q12 0 19.5 -8t7.5 -20q0 -13 -7.5 -21t-19.5 -8q-11 0 -19 8.5t-8 20.5t8 20t19 8v0zM203 394
q3 0 5.5 -3t2.5 -7t-2.5 -7.5t-5.5 -3.5h-10v21h10zM570 357q37 -32 85 -32q24 0 46 8.5t39 23.5h-170zM511 176q12 -7 26 -7q11 0 18.5 6t7.5 17q0 8 -6 13t-17 9q-9 3 -12.5 5.5t-3.5 7.5t4 8t10 3q5 0 10.5 -2t9.5 -5v13q-10 5 -20 5q-11 0 -18.5 -5.5t-7.5 -16.5
q0 -9 5.5 -13.5t16.5 -9.5q9 -2 13 -4.5t4 -7.5q0 -6 -4 -9t-10 -3q-13 0 -26 9v-13zM600 209q0 -17 11.5 -28.5t28.5 -11.5t28.5 11.5t11.5 28.5t-11.5 28.5t-28.5 11.5t-28.5 -11.5t-11.5 -28.5v0zM87 200q0 -13 9 -22t22 -9q14 0 23 9t9 22v47h-12v-47q0 -8 -5.5 -14
t-14.5 -6q-8 0 -13.5 5.5t-5.5 14.5v47h-12v-47zM491 170h14l-15 31q6 3 9 9t3 12q0 11 -7 18t-18 7h-29v-77h12v28h18zM667 209q0 -12 -7.5 -20.5t-19.5 -8.5t-20 8.5t-8 20.5t8 20t20 8t19.5 -8t7.5 -20v0zM490 222q0 -6 -3.5 -10t-9.5 -4h-17v28h17q6 0 9.5 -4t3.5 -10v0
zM490 95q0 -24 17 -41t42 -17q26 0 42.5 16.5t16.5 41.5q0 24 -16.5 40.5t-42.5 16.5q-25 0 -42 -16.5t-17 -40.5v0zM817 47q16 -10 38 -10q20 0 32 10t12 27q0 27 -36 35q-2 1 -6.5 2t-6 2.5t-1.5 3.5q0 4 11 4q7 0 16.5 -3t15.5 -8v34q-17 8 -32 8q-20 0 -32.5 -9
t-12.5 -25q0 -14 7.5 -21.5t24.5 -13.5q4 -1 8.5 -2t6.5 -2.5t2 -4.5q0 -6 -9 -6q-13 0 -38 16v-37zM945 95q0 -24 17 -41t41 -17q12 0 26 7l1 35q-10 -10 -25 -10q-10 0 -17.5 7.5t-7.5 18.5t7.5 18t17.5 7q11 0 22 -7v33q-10 6 -23 6q-25 0 -42 -16.5t-17 -40.5v0z
M1033 95q0 -24 17.5 -41t42.5 -17t42 17t17 41t-17 40.5t-42 16.5t-42.5 -16.5t-17.5 -40.5v0zM573 95q0 -11 -6.5 -18.5t-17.5 -7.5q-10 0 -17 7.5t-7 18.5t7 18t17 7q11 0 17.5 -7t6.5 -18v0zM1117 95q0 -11 -7 -18.5t-17 -7.5t-17.5 7.5t-7.5 18.5t7.5 18t17.5 7t17 -7
t7 -18v0zM904 54q0 -7 5 -12t13 -5t12.5 5t4.5 12t-4.5 11.5t-12.5 4.5t-13 -4.5t-5 -11.5v0zM119 392h28v35h-96v-35h29v-86h39v86zM263 306h38v121h-38v-121zM388 325l5 -19h42l-41 121h-45l-41 -121h41l5 19h34zM442 306h82v33h-43v88h-39v-121zM1022 306h40v121h-39v-64
l-37 64h-40v-121h39l-1 59zM1074 306h82v33h-43v88h-39v-121zM1217 306v48l41 73h-45l-16 -36l-15 36h-46l42 -73v-48h39zM362 357l8 29h1l8 -29h-17zM759 168v79h-12v-54l-49 55h-6v-78h12v52l49 -54h6zM77 247h-50v-77h12v29h33v11h-33v26h38v11zM177 247h-12v-77h47v11
h-35v66zM235 247h-12v-77h48v11h-36v66zM343 170l32 77h-14l-22 -57l-22 57h-14l32 -77h8zM435 247h-50v-77h50v11h-38v23h33v10h-33v22h38v11zM587 247h-12v-77h12v77zM1246 183l25 24l-25 24l-8 -7l13 -11h-458v-12h458l-13 -11zM28 118h36l-41 -78h95v31h-38l41 78h-93
v-31zM207 149h-79v-109h80v30h-45v10h38v30h-38v9h44v30zM212 118h26v-78h35v78h26v31h-87v-31zM328 57h31l4 -17h38l-37 109h-40l-37 -109h36zM486 149h-79v-109h35v34h37v29h-37v16h44v30zM720 40v109h-35v-58l-33 58h-36v-109h35l-1 53l34 -53h36zM726 118h26v-78h35v78
h25v31h-86v-31zM1194 149h-35v-109h35v43l14 -27h25l14 27v-43h34v109h-35l-26 -50zM344 112l7 -26h-15l7 26h1z" />
    <glyph glyph-name="seven" unicode="7" horiz-adv-x="1305" 
d="M1282 462v-193h-1254v193h486q3 37 22.5 67t50.5 47.5t68 17.5t68.5 -17.5t51 -47.5t21.5 -67h486zM740 547q-38 33 -85 33q-24 0 -46 -8.5t-39 -24.5h170zM753 371q29 36 29 81q0 48 -32 85l-166 -166h169zM556 533q-29 -35 -29 -81q0 -24 9 -46t24 -39l167 166h-171z
M872 303q28 0 47 18.5t19 45.5t-19 45t-47 18t-46.5 -18t-18.5 -45t18.5 -45.5t46.5 -18.5v0zM216 306h41l-21 46q14 13 14 32t-13.5 31t-32.5 12h-50v-121h39v35h8zM872 395q12 0 19.5 -8t7.5 -20q0 -13 -7.5 -21t-19.5 -8q-11 0 -19 8.5t-8 20.5t8 20t19 8v0zM203 394
q3 0 5.5 -3t2.5 -7t-2.5 -7.5t-5.5 -3.5h-10v21h10zM570 357q37 -32 85 -32q24 0 46 8.5t39 23.5h-170zM511 176q12 -7 26 -7q11 0 18.5 6t7.5 17q0 8 -6 13t-17 9q-9 3 -12.5 5.5t-3.5 7.5t4 8t10 3q5 0 10.5 -2t9.5 -5v13q-10 5 -20 5q-11 0 -18.5 -5.5t-7.5 -16.5
q0 -9 5.5 -13.5t16.5 -9.5q9 -2 13 -4.5t4 -7.5q0 -6 -4 -9t-10 -3q-13 0 -26 9v-13zM600 209q0 -17 11.5 -28.5t28.5 -11.5t28.5 11.5t11.5 28.5t-11.5 28.5t-28.5 11.5t-28.5 -11.5t-11.5 -28.5v0zM87 200q0 -13 9 -22t22 -9q14 0 23 9t9 22v47h-12v-47q0 -8 -5.5 -14
t-14.5 -6q-8 0 -13.5 5.5t-5.5 14.5v47h-12v-47zM491 170h14l-15 31q6 3 9 9t3 12q0 11 -7 18t-18 7h-29v-77h12v28h18zM667 209q0 -12 -7.5 -20.5t-19.5 -8.5t-20 8.5t-8 20.5t8 20t20 8t19.5 -8t7.5 -20v0zM490 222q0 -6 -3.5 -10t-9.5 -4h-17v28h17q6 0 9.5 -4t3.5 -10v0
zM490 95q0 -24 17 -41t42 -17q26 0 42.5 16.5t16.5 41.5q0 24 -16.5 40.5t-42.5 16.5q-25 0 -42 -16.5t-17 -40.5v0zM817 47q16 -10 38 -10q20 0 32 10t12 27q0 27 -36 35q-2 1 -6.5 2t-6 2.5t-1.5 3.5q0 4 11 4q7 0 16.5 -3t15.5 -8v34q-17 8 -32 8q-20 0 -32.5 -9
t-12.5 -25q0 -14 7.5 -21.5t24.5 -13.5q4 -1 8.5 -2t6.5 -2.5t2 -4.5q0 -6 -9 -6q-13 0 -38 16v-37zM945 95q0 -24 17 -41t41 -17q12 0 26 7l1 35q-10 -10 -25 -10q-10 0 -17.5 7.5t-7.5 18.5t7.5 18t17.5 7q11 0 22 -7v33q-10 6 -23 6q-25 0 -42 -16.5t-17 -40.5v0z
M1033 95q0 -24 17.5 -41t42.5 -17t42 17t17 41t-17 40.5t-42 16.5t-42.5 -16.5t-17.5 -40.5v0zM573 95q0 -11 -6.5 -18.5t-17.5 -7.5q-10 0 -17 7.5t-7 18.5t7 18t17 7q11 0 17.5 -7t6.5 -18v0zM1117 95q0 -11 -7 -18.5t-17 -7.5t-17.5 7.5t-7.5 18.5t7.5 18t17.5 7t17 -7
t7 -18v0zM904 54q0 -7 5 -12t13 -5t12.5 5t4.5 12t-4.5 11.5t-12.5 4.5t-13 -4.5t-5 -11.5v0zM119 392h28v35h-96v-35h29v-86h39v86zM263 306h38v121h-38v-121zM388 325l5 -19h42l-41 121h-45l-41 -121h41l5 19h34zM442 306h82v33h-43v88h-39v-121zM1022 306h40v121h-39v-64
l-37 64h-40v-121h39l-1 59zM1074 306h82v33h-43v88h-39v-121zM1217 306v48l41 73h-45l-16 -36l-15 36h-46l42 -73v-48h39zM362 357l8 29h1l8 -29h-17zM759 168v79h-12v-54l-49 55h-6v-78h12v52l49 -54h6zM77 247h-50v-77h12v29h33v11h-33v26h38v11zM177 247h-12v-77h47v11
h-35v66zM235 247h-12v-77h48v11h-36v66zM343 170l32 77h-14l-22 -57l-22 57h-14l32 -77h8zM435 247h-50v-77h50v11h-38v23h33v10h-33v22h38v11zM587 247h-12v-77h12v77zM1246 183l25 24l-25 24l-8 -7l13 -11h-458v-12h458l-13 -11zM28 118h36l-41 -78h95v31h-38l41 78h-93
v-31zM207 149h-79v-109h80v30h-45v10h38v30h-38v9h44v30zM212 118h26v-78h35v78h26v31h-87v-31zM328 57h31l4 -17h38l-37 109h-40l-37 -109h36zM486 149h-79v-109h35v34h37v29h-37v16h44v30zM720 40v109h-35v-58l-33 58h-36v-109h35l-1 53l34 -53h36zM726 118h26v-78h35v78
h25v31h-86v-31zM1194 149h-35v-109h35v43l14 -27h25l14 27v-43h34v109h-35l-26 -50zM344 112l7 -26h-15l7 26h1z" />
    <glyph glyph-name="eight" unicode="8" horiz-adv-x="1305" 
d="M1282 462v-193h-1254v193h486q3 37 22.5 67t50.5 47.5t68 17.5t68.5 -17.5t51 -47.5t21.5 -67h486zM740 547q-38 33 -85 33q-24 0 -46 -8.5t-39 -24.5h170zM753 371q29 36 29 81q0 48 -32 85l-166 -166h169zM556 533q-29 -35 -29 -81q0 -24 9 -46t24 -39l167 166h-171z
M872 303q28 0 47 18.5t19 45.5t-19 45t-47 18t-46.5 -18t-18.5 -45t18.5 -45.5t46.5 -18.5v0zM216 306h41l-21 46q14 13 14 32t-13.5 31t-32.5 12h-50v-121h39v35h8zM872 395q12 0 19.5 -8t7.5 -20q0 -13 -7.5 -21t-19.5 -8q-11 0 -19 8.5t-8 20.5t8 20t19 8v0zM203 394
q3 0 5.5 -3t2.5 -7t-2.5 -7.5t-5.5 -3.5h-10v21h10zM570 357q37 -32 85 -32q24 0 46 8.5t39 23.5h-170zM511 176q12 -7 26 -7q11 0 18.5 6t7.5 17q0 8 -6 13t-17 9q-9 3 -12.5 5.5t-3.5 7.5t4 8t10 3q5 0 10.5 -2t9.5 -5v13q-10 5 -20 5q-11 0 -18.5 -5.5t-7.5 -16.5
q0 -9 5.5 -13.5t16.5 -9.5q9 -2 13 -4.5t4 -7.5q0 -6 -4 -9t-10 -3q-13 0 -26 9v-13zM600 209q0 -17 11.5 -28.5t28.5 -11.5t28.5 11.5t11.5 28.5t-11.5 28.5t-28.5 11.5t-28.5 -11.5t-11.5 -28.5v0zM87 200q0 -13 9 -22t22 -9q14 0 23 9t9 22v47h-12v-47q0 -8 -5.5 -14
t-14.5 -6q-8 0 -13.5 5.5t-5.5 14.5v47h-12v-47zM491 170h14l-15 31q6 3 9 9t3 12q0 11 -7 18t-18 7h-29v-77h12v28h18zM667 209q0 -12 -7.5 -20.5t-19.5 -8.5t-20 8.5t-8 20.5t8 20t20 8t19.5 -8t7.5 -20v0zM490 222q0 -6 -3.5 -10t-9.5 -4h-17v28h17q6 0 9.5 -4t3.5 -10v0
zM490 95q0 -24 17 -41t42 -17q26 0 42.5 16.5t16.5 41.5q0 24 -16.5 40.5t-42.5 16.5q-25 0 -42 -16.5t-17 -40.5v0zM817 47q16 -10 38 -10q20 0 32 10t12 27q0 27 -36 35q-2 1 -6.5 2t-6 2.5t-1.5 3.5q0 4 11 4q7 0 16.5 -3t15.5 -8v34q-17 8 -32 8q-20 0 -32.5 -9
t-12.5 -25q0 -14 7.5 -21.5t24.5 -13.5q4 -1 8.5 -2t6.5 -2.5t2 -4.5q0 -6 -9 -6q-13 0 -38 16v-37zM945 95q0 -24 17 -41t41 -17q12 0 26 7l1 35q-10 -10 -25 -10q-10 0 -17.5 7.5t-7.5 18.5t7.5 18t17.5 7q11 0 22 -7v33q-10 6 -23 6q-25 0 -42 -16.5t-17 -40.5v0z
M1033 95q0 -24 17.5 -41t42.5 -17t42 17t17 41t-17 40.5t-42 16.5t-42.5 -16.5t-17.5 -40.5v0zM573 95q0 -11 -6.5 -18.5t-17.5 -7.5q-10 0 -17 7.5t-7 18.5t7 18t17 7q11 0 17.5 -7t6.5 -18v0zM1117 95q0 -11 -7 -18.5t-17 -7.5t-17.5 7.5t-7.5 18.5t7.5 18t17.5 7t17 -7
t7 -18v0zM904 54q0 -7 5 -12t13 -5t12.5 5t4.5 12t-4.5 11.5t-12.5 4.5t-13 -4.5t-5 -11.5v0zM119 392h28v35h-96v-35h29v-86h39v86zM263 306h38v121h-38v-121zM388 325l5 -19h42l-41 121h-45l-41 -121h41l5 19h34zM442 306h82v33h-43v88h-39v-121zM1022 306h40v121h-39v-64
l-37 64h-40v-121h39l-1 59zM1074 306h82v33h-43v88h-39v-121zM1217 306v48l41 73h-45l-16 -36l-15 36h-46l42 -73v-48h39zM362 357l8 29h1l8 -29h-17zM759 168v79h-12v-54l-49 55h-6v-78h12v52l49 -54h6zM77 247h-50v-77h12v29h33v11h-33v26h38v11zM177 247h-12v-77h47v11
h-35v66zM235 247h-12v-77h48v11h-36v66zM343 170l32 77h-14l-22 -57l-22 57h-14l32 -77h8zM435 247h-50v-77h50v11h-38v23h33v10h-33v22h38v11zM587 247h-12v-77h12v77zM1246 183l25 24l-25 24l-8 -7l13 -11h-458v-12h458l-13 -11zM28 118h36l-41 -78h95v31h-38l41 78h-93
v-31zM207 149h-79v-109h80v30h-45v10h38v30h-38v9h44v30zM212 118h26v-78h35v78h26v31h-87v-31zM328 57h31l4 -17h38l-37 109h-40l-37 -109h36zM486 149h-79v-109h35v34h37v29h-37v16h44v30zM720 40v109h-35v-58l-33 58h-36v-109h35l-1 53l34 -53h36zM726 118h26v-78h35v78
h25v31h-86v-31zM1194 149h-35v-109h35v43l14 -27h25l14 27v-43h34v109h-35l-26 -50zM344 112l7 -26h-15l7 26h1z" />
    <glyph glyph-name="nine" unicode="9" horiz-adv-x="1305" 
d="M1282 462v-193h-1254v193h486q3 37 22.5 67t50.5 47.5t68 17.5t68.5 -17.5t51 -47.5t21.5 -67h486zM740 547q-38 33 -85 33q-24 0 -46 -8.5t-39 -24.5h170zM753 371q29 36 29 81q0 48 -32 85l-166 -166h169zM556 533q-29 -35 -29 -81q0 -24 9 -46t24 -39l167 166h-171z
M872 303q28 0 47 18.5t19 45.5t-19 45t-47 18t-46.5 -18t-18.5 -45t18.5 -45.5t46.5 -18.5v0zM216 306h41l-21 46q14 13 14 32t-13.5 31t-32.5 12h-50v-121h39v35h8zM872 395q12 0 19.5 -8t7.5 -20q0 -13 -7.5 -21t-19.5 -8q-11 0 -19 8.5t-8 20.5t8 20t19 8v0zM203 394
q3 0 5.5 -3t2.5 -7t-2.5 -7.5t-5.5 -3.5h-10v21h10zM570 357q37 -32 85 -32q24 0 46 8.5t39 23.5h-170zM511 176q12 -7 26 -7q11 0 18.5 6t7.5 17q0 8 -6 13t-17 9q-9 3 -12.5 5.5t-3.5 7.5t4 8t10 3q5 0 10.5 -2t9.5 -5v13q-10 5 -20 5q-11 0 -18.5 -5.5t-7.5 -16.5
q0 -9 5.5 -13.5t16.5 -9.5q9 -2 13 -4.5t4 -7.5q0 -6 -4 -9t-10 -3q-13 0 -26 9v-13zM600 209q0 -17 11.5 -28.5t28.5 -11.5t28.5 11.5t11.5 28.5t-11.5 28.5t-28.5 11.5t-28.5 -11.5t-11.5 -28.5v0zM87 200q0 -13 9 -22t22 -9q14 0 23 9t9 22v47h-12v-47q0 -8 -5.5 -14
t-14.5 -6q-8 0 -13.5 5.5t-5.5 14.5v47h-12v-47zM491 170h14l-15 31q6 3 9 9t3 12q0 11 -7 18t-18 7h-29v-77h12v28h18zM667 209q0 -12 -7.5 -20.5t-19.5 -8.5t-20 8.5t-8 20.5t8 20t20 8t19.5 -8t7.5 -20v0zM490 222q0 -6 -3.5 -10t-9.5 -4h-17v28h17q6 0 9.5 -4t3.5 -10v0
zM490 95q0 -24 17 -41t42 -17q26 0 42.5 16.5t16.5 41.5q0 24 -16.5 40.5t-42.5 16.5q-25 0 -42 -16.5t-17 -40.5v0zM817 47q16 -10 38 -10q20 0 32 10t12 27q0 27 -36 35q-2 1 -6.5 2t-6 2.5t-1.5 3.5q0 4 11 4q7 0 16.5 -3t15.5 -8v34q-17 8 -32 8q-20 0 -32.5 -9
t-12.5 -25q0 -14 7.5 -21.5t24.5 -13.5q4 -1 8.5 -2t6.5 -2.5t2 -4.5q0 -6 -9 -6q-13 0 -38 16v-37zM945 95q0 -24 17 -41t41 -17q12 0 26 7l1 35q-10 -10 -25 -10q-10 0 -17.5 7.5t-7.5 18.5t7.5 18t17.5 7q11 0 22 -7v33q-10 6 -23 6q-25 0 -42 -16.5t-17 -40.5v0z
M1033 95q0 -24 17.5 -41t42.5 -17t42 17t17 41t-17 40.5t-42 16.5t-42.5 -16.5t-17.5 -40.5v0zM573 95q0 -11 -6.5 -18.5t-17.5 -7.5q-10 0 -17 7.5t-7 18.5t7 18t17 7q11 0 17.5 -7t6.5 -18v0zM1117 95q0 -11 -7 -18.5t-17 -7.5t-17.5 7.5t-7.5 18.5t7.5 18t17.5 7t17 -7
t7 -18v0zM904 54q0 -7 5 -12t13 -5t12.5 5t4.5 12t-4.5 11.5t-12.5 4.5t-13 -4.5t-5 -11.5v0zM119 392h28v35h-96v-35h29v-86h39v86zM263 306h38v121h-38v-121zM388 325l5 -19h42l-41 121h-45l-41 -121h41l5 19h34zM442 306h82v33h-43v88h-39v-121zM1022 306h40v121h-39v-64
l-37 64h-40v-121h39l-1 59zM1074 306h82v33h-43v88h-39v-121zM1217 306v48l41 73h-45l-16 -36l-15 36h-46l42 -73v-48h39zM362 357l8 29h1l8 -29h-17zM759 168v79h-12v-54l-49 55h-6v-78h12v52l49 -54h6zM77 247h-50v-77h12v29h33v11h-33v26h38v11zM177 247h-12v-77h47v11
h-35v66zM235 247h-12v-77h48v11h-36v66zM343 170l32 77h-14l-22 -57l-22 57h-14l32 -77h8zM435 247h-50v-77h50v11h-38v23h33v10h-33v22h38v11zM587 247h-12v-77h12v77zM1246 183l25 24l-25 24l-8 -7l13 -11h-458v-12h458l-13 -11zM28 118h36l-41 -78h95v31h-38l41 78h-93
v-31zM207 149h-79v-109h80v30h-45v10h38v30h-38v9h44v30zM212 118h26v-78h35v78h26v31h-87v-31zM328 57h31l4 -17h38l-37 109h-40l-37 -109h36zM486 149h-79v-109h35v34h37v29h-37v16h44v30zM720 40v109h-35v-58l-33 58h-36v-109h35l-1 53l34 -53h36zM726 118h26v-78h35v78
h25v31h-86v-31zM1194 149h-35v-109h35v43l14 -27h25l14 27v-43h34v109h-35l-26 -50zM344 112l7 -26h-15l7 26h1z" />
    <glyph glyph-name="colon" unicode=":" horiz-adv-x="199" 
d="M69.5 -2q-12.5 11 -12.5 27q0 15 13 26t30 11t29 -11t12 -26q0 -16 -12 -27t-29 -11q-18 0 -30.5 11zM69.5 408q-12.5 11 -12.5 27q0 15 13 26t30 11t29 -11t12 -26q0 -16 -12 -27t-29 -11q-18 0 -30.5 11z" />
    <glyph glyph-name="semicolon" unicode=";" horiz-adv-x="231" 
d="M99.5 46q10.5 13 27.5 13q18 0 28 -13t10 -37q0 -99 -101 -149l-7 11q37 22 53 48.5t16 52.5q0 37 -36 38q-1 23 9.5 36zM101.5 406q-12.5 11 -12.5 27q0 15 13 26t30 11t29 -11t12 -26q0 -16 -12 -27t-29 -11q-18 0 -30.5 11z" />
    <glyph glyph-name="less" unicode="&#x3c;" horiz-adv-x="330" 
d="M37 252v14l246 161l10 -14l-236 -154l236 -154l-10 -14z" />
    <glyph glyph-name="equal" unicode="=" horiz-adv-x="332" 
d="M295 325v-19h-258v19h258zM295 211v-19h-258v19h258z" />
    <glyph glyph-name="greater" unicode="&#x3e;" horiz-adv-x="330" 
d="M47 91l-10 14l236 154l-236 154l10 14l246 -161v-14z" />
    <glyph glyph-name="question" unicode="?" horiz-adv-x="373" 
d="M128 228.5q-10 30.5 -10 50.5q0 35 20 61.5t78 50.5q59 24 79.5 44t20.5 53q0 50 -67 98.5t-185 82.5l11 43q108 -30 184 -89.5t76 -135.5q0 -45 -22.5 -77.5t-80.5 -59.5q-43 -21 -62.5 -40t-19.5 -50q0 -37 15 -90l-11 -2q-16 30 -26 60.5zM132.5 -2q-12.5 11 -12.5 27
q0 14 12.5 25t29.5 11q16 0 28.5 -11t12.5 -25q0 -16 -12 -27t-29 -11t-29.5 11z" />
    <glyph glyph-name="at" unicode="@" horiz-adv-x="837" 
d="M210 -142q-82 41 -127.5 118.5t-45.5 184.5q0 136 54.5 245.5t153 172.5t226.5 63q99 0 173.5 -37t115 -105t40.5 -156q0 -100 -38 -177t-108.5 -120.5t-164.5 -43.5q-12 0 -19.5 3.5t-6.5 9.5l63 272h-2q-55 -130 -120.5 -211t-117.5 -81q-26 0 -41 20t-15 57
q0 57 29 152.5t78 167.5t107 72q46 0 123 -45l35 67h13l-106 -460q73 2 128.5 44.5t85.5 114t30 158.5q0 82 -34 144.5t-97.5 97.5t-150.5 35q-116 0 -204 -61t-135 -166t-47 -233q0 -97 39.5 -170.5t111 -113t163.5 -39.5q52 0 94 9.5t91 27.5l6 -23q-90 -35 -192 -35
q-106 0 -188 41zM379.5 81.5q42.5 47.5 87 127t79.5 171.5q-67 64 -109 64q-41 0 -77.5 -66t-59 -154t-22.5 -141q0 -49 31 -49q28 0 70.5 47.5z" />
    <glyph glyph-name="A" unicode="A" horiz-adv-x="654" 
d="M589 39.5q7 -11.5 19.5 -17.5t39.5 -12v-10h-254v10l114 9q13 1 18.5 4.5t5.5 12.5t-6 25l-77 210q-160 2 -266 2l-54 -150q-24 -63 -24 -81q0 -11 6 -16t21 -7l113 -9v-10h-239v10q32 7 46 16.5t28 35.5t39 91l186 511l-16 42v6h57q5 -35 36 -123l191 -514
q9 -24 16 -35.5zM264 291q124 0 178 1l-127 347l-126 -348h75z" />
    <glyph glyph-name="B" unicode="B" horiz-adv-x="611" 
d="M568 197q0 -92 -63 -144.5t-189 -52.5h-293v10l82 9q13 2 18.5 9.5t8 34.5t2.5 90v394q0 63 -2.5 90t-8 34.5t-18.5 9.5l-82 9v10h275q106 0 160.5 -37.5t54.5 -116.5q0 -53 -35 -102t-79 -70q169 -33 169 -177zM182 466v-80l110 -2q43 0 90 -7q34 25 57.5 68t23.5 89
q0 147 -185 147h-89q-7 -21 -7 -215zM466.5 64q51.5 45 51.5 126t-55 128t-179 48l-102 1v-133q0 -99 2.5 -142t10.5 -58t26 -15h92q102 0 153.5 45z" />
    <glyph glyph-name="C" unicode="C" horiz-adv-x="640" 
d="M183 29.5q-69 44.5 -107.5 125.5t-38.5 188t41 192t116.5 133t174.5 48q64 0 114 -16.5t81 -40.5l-49 -164h-7q3 29 3 51q0 83 -37.5 114.5t-114.5 31.5q-84 0 -145 -42t-93 -116.5t-32 -168.5q0 -103 33.5 -179.5t94 -117.5t138.5 -41q108 0 169 69t69 178h11
q-1 -80 -29.5 -145.5t-87 -104.5t-146.5 -39q-89 0 -158 44.5z" />
    <glyph glyph-name="D" unicode="D" horiz-adv-x="690" 
d="M23 10l82 9q13 2 18.5 9.5t8 34.5t2.5 90v394q0 63 -2.5 90t-8 34.5t-18.5 9.5l-82 9v10h268q111 0 192.5 -42t125.5 -120t44 -184q0 -108 -44 -188t-127 -123t-195 -43h-264v10zM516 102.5q81 83.5 81 237.5q0 100 -36 177t-107.5 120.5t-174.5 43.5q-60 0 -90 -3
q-7 -21 -7 -212v-239q0 -99 3 -140.5t12 -54.5t31 -13h60q147 0 228 83.5z" />
    <glyph glyph-name="E" unicode="E" horiz-adv-x="608" 
d="M576 265l-20 -268h-1q-24 3 -81 3h-451v10l82 9q13 2 18.5 9.5t8 34.5t2.5 90v394q0 63 -2.5 90t-8 34.5t-18.5 9.5l-82 9v10h404q53 0 87 6l-1 -251h-10q-11 110 -19.5 154t-20.5 56t-40 14l-235 4q-6 -22 -6 -216v-92l248 6v-29l-248 7v-134q0 -99 3.5 -141t12 -54.5
t29.5 -11.5l243 2q25 2 38 17t25.5 65t31.5 163h11z" />
    <glyph glyph-name="F" unicode="F" horiz-adv-x="557" 
d="M514 706l-1 -251h-10q-13 114 -21 156t-21 54t-45 14l-228 4q-6 -24 -6 -216v-100l237 6v-29l-237 7v-189q0 -67 3.5 -95.5t11.5 -36.5t26 -10l115 -9v-11h-315v10l82 9q13 2 18.5 9.5t8 34.5t2.5 90v394q0 63 -2.5 90t-8 34.5t-18.5 9.5l-82 9v10h394q61 0 97 6z" />
    <glyph glyph-name="G" unicode="G" horiz-adv-x="675" 
d="M650 325v-10q-31 -4 -43.5 -11t-16.5 -23t-4 -53v-260h-9l-30 74q-25 -22 -75.5 -39.5t-123.5 -17.5q-95 0 -165 44t-108 126t-38 193q0 107 42.5 191t119.5 130.5t175 46.5q62 0 111 -16t81 -40l-49 -165h-8q3 29 3 53q0 83 -37 113.5t-113 30.5q-82 0 -143.5 -43
t-94.5 -119t-33 -171q0 -107 32.5 -186t93 -122t143.5 -43q70 0 113.5 17t65.5 35v167q0 35 -3 49.5t-10.5 19.5t-27.5 8l-170 11v10h322z" />
    <glyph glyph-name="H" unicode="H" horiz-adv-x="763" 
d="M639.5 670.5q-5.5 -7.5 -8 -34t-2.5 -89.5v-394q0 -63 2.5 -89.5t8 -34t18.5 -9.5l82 -10v-10h-271v10l82 10q13 2 18.5 9.5t8 34t2.5 89.5v205q-99 1 -199 1.5t-199 0.5l1 -207q0 -63 2.5 -89.5t8 -34t18.5 -9.5l82 -10v-10h-270v10l81 10q13 2 18.5 9.5t8 34t2.5 89.5
v394q0 63 -2.5 89.5t-8 34t-19.5 9.5l-81 10v10h270v-10l-81 -10q-14 -2 -19.5 -9.5t-8 -34t-2.5 -89.5v-169q267 0 398 2v167q0 63 -2.5 89.5t-8 34t-18.5 9.5l-82 10v10h271v-10l-82 -10q-13 -2 -18.5 -9.5z" />
    <glyph glyph-name="I" unicode="I" horiz-adv-x="317" 
d="M131.5 636.5q-2.5 26.5 -8 34t-19.5 9.5l-81 10v10h270v-10l-81 -10q-14 -2 -19.5 -9.5t-8 -34t-2.5 -89.5l1 -394q0 -63 2.5 -89.5t8 -34t18.5 -9.5l82 -10v-10h-270v10l81 10q13 2 18.5 9.5t8 34t2.5 89.5v394q0 63 -2.5 89.5z" />
    <glyph glyph-name="J" unicode="J" horiz-adv-x="345" 
d="M165 637q-3 27 -10.5 34.5t-25.5 9.5l-109 9v10h308v-10l-82 -9q-13 -2 -18.5 -9.5t-8 -34.5t-2.5 -90v-372q0 -81 -14 -139t-56.5 -106t-124.5 -82l-5 14q68 31 100.5 72t41.5 90t9 128v395q0 63 -3 90z" />
    <glyph glyph-name="K" unicode="K" horiz-adv-x="649" 
d="M185.5 63.5q2.5 -26.5 8 -34t18.5 -9.5l82 -10v-10h-270v10l81 10q13 2 18.5 9.5t8 34t2.5 89.5v394q0 63 -2.5 89.5t-8 34t-19.5 9.5l-81 10v10h270v-10l-81 -10q-14 -2 -19.5 -9.5t-8 -34t-2.5 -89.5l1 -394q0 -63 2.5 -89.5zM594.5 26.5q16.5 -9.5 48.5 -12.5v-9
q-19 -5 -30 -7t-26 -2q-22 0 -37.5 9.5t-34.5 31.5l-296 323v8l245 257q21 22 21 37q0 18 -31 21l-81 7v10h239v-10q-38 -6 -56.5 -15t-47.5 -38l-248 -250l296 -325q22 -26 38.5 -35.5z" />
    <glyph glyph-name="L" unicode="L" horiz-adv-x="585" 
d="M23 10l82 9q13 2 18.5 9.5t8 34.5t2.5 90v394q0 63 -2.5 90t-8 34.5t-18.5 9.5l-82 9v10h310v-11l-111 -8q-18 -2 -25.5 -10t-11 -36t-3.5 -93v-315q0 -87 3 -129.5t12.5 -61.5t29.5 -18l229 2q23 2 35.5 15.5t26 64.5t32.5 168l9 -1l-18 -270h-1q-21 3 -61 3h-456v10z
" />
    <glyph glyph-name="M" unicode="M" horiz-adv-x="892" 
d="M880 11v-11h-305v11l104 6q18 3 26 7t12 17t4 41q0 26 -3 69l-26 476l-259 -629l-14 -1l-242 628l-40 -473q-4 -41 -4 -73q0 -26 4.5 -38.5t13.5 -17t28 -6.5l112 -6v-11h-279v10l53 5q17 4 25.5 13.5t14.5 37.5t12 92l36 390q5 51 5 88q0 28 -5.5 35t-20.5 10l-98 9v10
h165l243 -634l228 568q14 35 19 66h179v-10l-98 -9q-12 -2 -17.5 -5.5t-8.5 -16t-3 -38.5t3 -74l22 -396q3 -61 7.5 -88t11 -34.5t19.5 -10.5z" />
    <glyph glyph-name="N" unicode="N" horiz-adv-x="747" 
d="M730 700v-11l-77 -6q-14 -2 -20.5 -9.5t-9.5 -34.5t-3 -90v-554l-16 -2l-456 648l5 -490q2 -59 6 -84.5t15.5 -36t38.5 -13.5l107 -6v-11h-297v11l76 6q15 2 21 9.5t9 34.5t3 90v380q0 69 -2 98t-7.5 39t-19.5 13l-80 8v11h144l436 -622l-5 471q-1 60 -5 85.5t-15.5 35.5
t-38.5 13l-108 6v11h299z" />
    <glyph glyph-name="O" unicode="O" horiz-adv-x="705" 
d="M181.5 29q-69.5 44 -107 124.5t-37.5 186.5q0 110 41 195.5t114.5 133t168.5 47.5q94 0 163.5 -44t106.5 -124t37 -185q0 -111 -40.5 -197t-114.5 -133.5t-169 -47.5q-93 0 -162.5 44zM493 50q57 41 88.5 115.5t31.5 173.5q0 106 -33.5 186t-94 123.5t-139.5 43.5
q-76 0 -133.5 -41t-89 -115.5t-31.5 -172.5q0 -107 33.5 -187t94 -123.5t140.5 -43.5q76 0 133 41z" />
    <glyph glyph-name="P" unicode="P" horiz-adv-x="552" 
d="M23 10l82 9q13 2 18.5 9.5t8 34.5t2.5 90v394q0 63 -2.5 90t-8 34.5t-18.5 9.5l-82 9v10h242q272 0 272 -187q0 -92 -72.5 -151.5t-235.5 -72.5l-2 12q132 20 194 67t62 137q0 92 -61.5 134t-177.5 42h-53q-4 -9 -6.5 -52t-2.5 -163v-313q0 -63 4 -90t12 -34.5t28 -9.5
l123 -9v-10h-326v10z" />
    <glyph glyph-name="Q" unicode="Q" horiz-adv-x="694" 
d="M471 -161q-27 7 -72 22q-62 20 -105 30.5t-93 10.5q-53 0 -95 -6l-1 25q92 15 154.5 28.5t116.5 35.5v3l-25 -1q-103 0 -173.5 45.5t-105.5 125t-35 182.5q0 111 40.5 196t112.5 132.5t166 47.5q92 0 160 -44t104.5 -123.5t36.5 -185.5q0 -142 -60 -233t-163 -139
t-248 -72v-1l33 2q42 0 84.5 -6t107.5 -18q87 -17 119 -17q29 0 51 18.5t54 78.5l9 -5q-25 -61 -41.5 -90t-34 -39t-45.5 -10q-25 0 -52 7zM482.5 49q55.5 39 87.5 113t32 177q0 106 -32.5 186t-91.5 123.5t-137 43.5q-75 0 -131.5 -41t-87 -115.5t-30.5 -173.5
q0 -108 33 -187.5t93 -122t139 -42.5q70 0 125.5 39z" />
    <glyph glyph-name="R" unicode="R" horiz-adv-x="628" 
d="M567 22q16 -9 55 -13v-7q-30 -11 -62 -11q-24 0 -41.5 11.5t-36.5 38.5q-109 144 -178 276q-26 -2 -42 -2l-76 1v20h82q105 0 162 44t57 123q0 90 -62.5 134t-180.5 44h-55q-7 -21 -7 -215v-313q0 -63 2.5 -90t8 -34.5t18.5 -9.5l81 -9v-10h-269v10l82 9q13 2 18.5 9.5
t8 34.5t2.5 90v394q0 63 -2.5 90t-8 34.5t-18.5 9.5l-82 9v10h248q130 0 199.5 -48.5t69.5 -139.5q0 -71 -48 -122t-142 -68q88 -153 177 -262q24 -29 40 -38z" />
    <glyph glyph-name="S" unicode="S" horiz-adv-x="503" 
d="M119 -0.5q-51 14.5 -81 35.5l23 158l8 -1q3 -72 22.5 -112.5t53 -56.5t84.5 -16q83 0 131.5 42t48.5 120q0 43 -18 73.5t-57 56t-108 52.5q-65 26 -101.5 53.5t-52.5 62t-16 82.5q0 77 55.5 122t145.5 45q61 0 113.5 -15.5t81.5 -38.5l-44 -150l-8 1q2 15 2 42
q0 79 -36.5 109t-108.5 30q-69 0 -112 -36t-43 -101q0 -38 12 -65t43 -50.5t88 -46.5q74 -30 117.5 -55.5t68.5 -63t25 -93.5q0 -57 -27.5 -102t-80 -70.5t-124.5 -25.5q-54 0 -105 14.5z" />
    <glyph glyph-name="T" unicode="T" horiz-adv-x="613" 
d="M582 706l-1 -272h-12q-12 124 -20.5 171.5t-20.5 60.5t-42 15l-154 2q-3 -81 -3 -227v-303q0 -63 3 -90t10.5 -34.5t24.5 -9.5l106 -9v-10h-336v10l106 9q17 2 24.5 9.5t10.5 34.5t3 90v303q0 175 -4 227l-153 -2q-27 -2 -38 -13.5t-20 -59.5t-25 -174h-12l6 272h1
q34 -6 80 -6h378q49 0 87 6h1z" />
    <glyph glyph-name="U" unicode="U" horiz-adv-x="719" 
d="M128 250v297q0 63 -2.5 89.5t-8 34t-19.5 9.5l-81 10v10h270v-10l-81 -10q-14 -2 -19.5 -9.5t-8 -34t-2.5 -89.5v-298q0 -239 213 -239q202 0 202 250q0 200 -4 284t-16 110t-40 29l-113 6v11h284v-11l-59 -5q-18 -4 -24.5 -27.5t-8 -99.5t-1.5 -300q0 -273 -239 -273
q-242 0 -242 266z" />
    <glyph glyph-name="V" unicode="V" horiz-adv-x="675" 
d="M669 700v-10q-41 -8 -57 -21.5t-32 -54.5l-241 -622h-13l-241 635q-9 24 -15.5 34.5t-20.5 16.5t-43 12v10h274v-11l-119 -8q-18 -1 -26 -5t-8 -14q0 -6 5 -21l217 -577l197 522q17 46 17 65q0 14 -8.5 21t-26.5 9l-119 8v11h260z" />
    <glyph glyph-name="W" unicode="W" horiz-adv-x="984" 
d="M978 700v-10q-30 -7 -44 -14t-21.5 -20t-17.5 -42l-212 -622h-12l-183 526l-172 -526h-13l-222 636q-8 24 -14.5 34t-19.5 16t-41 12v10h258v-11l-108 -8q-18 -2 -25.5 -6t-7.5 -14q0 -8 4 -19l198 -571l143 459q3 9 3 18q0 17 -19 70q-10 29 -17.5 41.5t-20 18.5
t-40.5 12v10h245v-11l-96 -8q-17 -2 -24.5 -5.5t-7.5 -14.5q0 -9 4 -20l197 -571l172 517q13 40 13 62q0 16 -8.5 23t-26.5 9l-109 8v11h245z" />
    <glyph glyph-name="X" unicode="X" horiz-adv-x="651" 
d="M592.5 26.5q13.5 -8.5 52.5 -16.5v-10h-237v11l83 8q23 2 23 16q0 9 -9 22l-190 275l-176 -247q-20 -29 -20 -45q0 -19 33 -23l89 -6v-11h-234v10q29 5 45.5 13t27.5 19.5t30 37.5l194 267l-203 294q-16 24 -30 32.5t-54 16.5v10h249v-10l-95 -9q-23 -2 -23 -16
q0 -8 9 -22l180 -260l164 233q19 29 19 43q0 20 -33 24l-89 7v10h235v-10q-42 -7 -60 -20t-44 -50l-181 -252l213 -308q18 -25 31.5 -33.5z" />
    <glyph glyph-name="Y" unicode="Y" horiz-adv-x="612" 
d="M606 700v-10q-31 -5 -46.5 -12t-26.5 -21t-29 -47l-173 -306v-151q0 -63 3 -90t10.5 -34.5t24.5 -9.5l106 -9v-10h-337v10l107 9q17 2 24 9.5t10.5 35t3.5 89.5v150l-193 333q-12 21 -20.5 30t-22 14t-41.5 10v10h266v-11l-114 -7q-24 -3 -24 -18q0 -8 8 -24l181 -316
l160 293q14 28 14 41q0 11 -8.5 16t-26.5 7l-108 8v11h252z" />
    <glyph glyph-name="Z" unicode="Z" horiz-adv-x="587" 
d="M542 255l-18 -258h-2q-16 3 -69 3h-420v12q31 44 122 186l20 31l163 253q94 145 128 204l-295 -7q-27 -2 -39.5 -14.5t-21.5 -54.5t-21 -146h-10v242h1q32 -6 93 -6h353v-12q-18 -26 -52 -81l-85 -134l-163 -253l-81 -126q-44 -68 -51 -80l336 7q28 2 42.5 15.5t28 61.5
t30.5 157h11z" />
    <glyph glyph-name="bracketleft" unicode="[" horiz-adv-x="233" 
d="M196 -133h-173v847h173v-17h-130v-813h130v-17z" />
    <glyph glyph-name="backslash" unicode="\" horiz-adv-x="380" 
d="M374 -94l-20 -7l-348 848l20 7z" />
    <glyph glyph-name="bracketright" unicode="]" horiz-adv-x="233" 
d="M37 -116h130v813h-130v17h173v-847h-173v17z" />
    <glyph glyph-name="asciicircum" unicode="^" horiz-adv-x="287" 
d="M137 700h13l100 -187h-20l-87 163l-86 -163h-20z" />
    <glyph glyph-name="underscore" unicode="_" horiz-adv-x="358" 
d="M363 -66v-17h-368v17h368z" />
    <glyph glyph-name="grave" unicode="`" horiz-adv-x="203" 
d="M90 711l76 -156l-11 -3l-118 151v6z" />
    <glyph glyph-name="a" unicode="a" horiz-adv-x="464" 
d="M72 16.5q-29 31.5 -29 77.5q0 60 49 93.5t159 56.5l53 11l1 72q0 119 -96 119q-57 0 -85.5 -38t-24.5 -115h-50q9 85 56.5 132t120.5 47q60 0 91.5 -34.5t31.5 -98.5v-36l-2 -192q0 -87 42 -87q30 0 42 28.5t14 98.5h10q2 -84 -16 -123.5t-63 -39.5q-33 0 -51.5 26
t-18.5 81h-4q-64 -110 -153 -110q-48 0 -77 31.5zM246.5 52q33.5 28 58.5 71v116l-46 -14q-93 -24 -133 -49t-40 -70q0 -37 21.5 -59.5t57.5 -22.5q48 0 81.5 28z" />
    <glyph glyph-name="b" unicode="b" horiz-adv-x="485" 
d="M402 412.5q45 -59.5 45 -164.5q0 -77 -26.5 -136.5t-72.5 -92.5t-103 -33q-38 0 -75 13.5t-66 38.5l-24 -65h-12q9 133 9 320v321q0 32 -2 44.5t-7.5 16.5t-19.5 5l-46 1v10l115 35l5 -1v-111v-174l-2 -45h5q36 35 77 56t81 21q74 0 119 -59.5zM326 32q34 25 54.5 74.5
t20.5 120.5q0 104 -39 157.5t-102 53.5q-64 0 -139 -63l-1 -270q8 -39 44.5 -68.5t86.5 -29.5q41 0 75 25z" />
    <glyph glyph-name="c" unicode="c" horiz-adv-x="442" 
d="M133 12.5q-44 27.5 -70 80t-26 125.5q0 80 30 137.5t79.5 87t106.5 29.5q78 0 137 -39l-38 -117l-7 1q4 73 -20.5 103.5t-77.5 30.5q-46 0 -83 -25.5t-58.5 -74.5t-21.5 -118q0 -95 43 -153.5t118 -58.5q68 0 109 47.5t47 131.5h10q-3 -101 -49.5 -158t-130.5 -57
q-54 0 -98 27.5z" />
    <glyph glyph-name="d" unicode="d" horiz-adv-x="511" 
d="M82 45.5q-45 60.5 -45 164.5q0 78 26.5 137t72.5 91.5t103 32.5q36 0 70 -13t55 -28v187q0 32 -2 45t-7.5 16.5t-20.5 4.5l-46 1v11l115 35l5 -1v-112v-503q0 -34 2 -49.5t7.5 -20.5t18.5 -6l51 -2v-10l-112 -33l-10 1v68h-4q-38 -35 -78.5 -56t-79.5 -21
q-76 0 -121 60.5zM363 83l1 270q-2 24 -20 46.5t-47.5 36t-64.5 13.5q-40 0 -73.5 -24.5t-54.5 -73.5t-21 -120q0 -109 40.5 -160.5t100.5 -51.5q67 0 139 64z" />
    <glyph glyph-name="e" unicode="e" horiz-adv-x="444" 
d="M411 200q-3 -100 -49.5 -157.5t-129.5 -57.5q-53 0 -97.5 26.5t-71 79t-26.5 127.5q0 79 28 136.5t74 87.5t97 30q76 0 122.5 -50.5t46.5 -147.5l-7 -8l-312 4q-2 -22 -2 -35q0 -97 44 -155.5t118 -58.5q69 0 108.5 47.5t44.5 131.5h12zM137 407q-40 -44 -50 -121l268 3
q1 4 1 18q0 30 -10.5 62.5t-38 57t-74.5 24.5q-56 0 -96 -44z" />
    <glyph glyph-name="f" unicode="f" horiz-adv-x="311" 
d="M149 48.5q3 -15.5 10 -21t25 -8.5l110 -8v-11h-277v11l59 7q12 2 16.5 7t7 21.5t2.5 54.5v338h-71v16l71 4q4 128 54.5 202.5t142.5 74.5q30 0 52 -6l-3 -49l-2 -1q-39 7 -66 7q-71 0 -107 -44t-36 -127q0 -23 9 -59h155l2 -2v-16h-157v-338q0 -37 3 -52.5z" />
    <glyph glyph-name="g" unicode="g" horiz-adv-x="463" 
d="M449 458q-84 -8 -125 -11q32 -20 49 -51.5t17 -69.5q0 -48 -22 -86t-60.5 -59.5t-86.5 -21.5q-36 0 -63 10q-24 -32 -32.5 -48.5t-8.5 -29.5q0 -12 9.5 -17.5t30.5 -7t65 -1.5q72 0 116 -6.5t70.5 -27.5t26.5 -63t-34.5 -78t-94.5 -58t-134 -22q-69 0 -111 23.5t-42 63.5
q0 30 20 58.5t75 75.5q-19 5 -27.5 13.5t-8.5 22.5q0 16 15 40t53 67q-40 17 -62.5 53.5t-22.5 84.5q0 45 22 81.5t60.5 57.5t87.5 21q127 0 218 -4v-10zM315.5 215.5q31.5 36.5 31.5 97.5t-35.5 100t-92.5 39q-51 0 -82.5 -35t-31.5 -92q0 -66 35 -106t91 -40
q53 0 84.5 36.5zM352 8.5q-43 15.5 -133 15.5q-60 0 -91 4q-68 -62 -68 -111q0 -35 35.5 -59t106.5 -24q79 0 136 31t57 84q0 44 -43 59.5z" />
    <glyph glyph-name="h" unicode="h" horiz-adv-x="545" 
d="M441.5 43.5q2.5 -14.5 7.5 -19t16 -6.5l59 -7v-11h-214v11l59 7q11 2 16 6.5t7.5 19t2.5 47.5l1 223q0 61 -22.5 90t-69.5 29q-42 0 -83 -18.5t-72 -46.5v-277q0 -33 2 -47.5t7 -19t16 -6.5l59 -7v-11h-213v11l58 7q12 2 17 6.5t7.5 19t2.5 47.5v526q0 32 -2 45
t-7.5 16.5t-20.5 4.5l-46 1v11l115 35l5 -1v-112v-173l-1 -55h4q91 83 174 83q115 0 115 -146l-2 -235q0 -33 2.5 -47.5z" />
    <glyph glyph-name="i" unicode="i" horiz-adv-x="264" 
d="M106 625q-11 10 -11 29q0 18 11.5 28t29.5 10t29 -10t11 -28q0 -19 -10.5 -29t-29.5 -10t-30 10zM109 396.5q-2 12.5 -7.5 16.5t-19.5 5l-46 1v10l114 35l6 -1q-1 -31 -1 -111v-261q0 -33 2 -47.5t7 -19t16 -6.5l59 -7v-11h-214v11l59 7q11 2 16 6.5t7.5 19t2.5 47.5
l1 261q0 32 -2 44.5z" />
    <glyph glyph-name="j" unicode="j" horiz-adv-x="211" 
d="M92 625q-11 10 -11 29q0 18 11.5 28t29.5 10t29 -10t11 -28q0 -19 -10.5 -29t-29.5 -10t-30 10zM45.5 -132.5q25.5 29.5 39 77t13.5 123.5v284q0 32 -1.5 44.5t-7 16.5t-20.5 5l-46 1v10l115 35l5 -1v-112v-295q0 -104 -42 -164t-123 -90l-3 8q45 28 70.5 57.5z" />
    <glyph glyph-name="k" unicode="k" horiz-adv-x="490" 
d="M150 48q2 -18 6.5 -23.5t14.5 -7.5l53 -7v-10h-204v10l58 7q12 2 16.5 7.5t7 23.5t2.5 60l1 509q1 32 -1 45t-7.5 16.5t-20.5 4.5l-46 1v11l115 35l5 -1v-112l-2 -509q0 -42 2 -60zM431 30q22 -16 53 -19v-8q-24 -6 -43 -6q-29 0 -48.5 10.5t-37.5 31.5l-175 201v15
l168 147q20 18 20 27q0 10 -21 13l-58 5v10h178v-9q-27 -6 -43 -15t-41 -29l-169 -138q29 -34 141 -157l26 -29q28 -34 50 -50z" />
    <glyph glyph-name="l" unicode="l" horiz-adv-x="253" 
d="M103 662q-2 13 -7.5 16.5t-20.5 4.5l-46 1v11l115 35l5 -1v-112v-526q0 -33 2 -47.5t7 -19t16 -6.5l59 -7v-11h-213v11l58 7q12 2 17 6.5t7.5 19t2.5 47.5v526q0 32 -2 45z" />
    <glyph glyph-name="m" unicode="m" horiz-adv-x="819" 
d="M607 472q55 0 81.5 -34t26.5 -104l-1 -243q0 -33 2 -47.5t7 -19t16 -6.5l59 -7v-11h-213v11l58 7q12 2 17 6.5t7.5 19t2.5 47.5v233q0 57 -21.5 83t-66.5 26q-38 0 -77 -19t-71 -49q2 -14 2 -35l-1 -239q0 -33 2 -47.5t7 -19t16 -6.5l59 -7v-11h-214v11l59 7q11 2 16 6.5
t7.5 19t2.5 47.5l1 233q0 53 -20 81t-68 28q-38 0 -76.5 -18.5t-70.5 -46.5l-1 -277q0 -33 2 -47.5t7 -19t16 -6.5l59 -7v-11h-214v11l59 7q11 2 16 6.5t7.5 19t2.5 47.5l1 262q0 32 -1.5 44t-7.5 15.5t-21 4.5l-46 2v10l113 35l7 -2v-74h4q89 84 169 84q43 0 69.5 -23
t33.5 -66h3q94 89 173 89z" />
    <glyph glyph-name="n" unicode="n" horiz-adv-x="552" 
d="M157 43.5q2 -14.5 7 -19t16 -6.5l59 -7v-11h-214v11l59 7q11 2 16 6.5t7.5 19t2.5 47.5l1 261q0 32 -1.5 44t-7 16t-20.5 5l-48 2v10l114 35l7 -2v-73h4q91 83 177 83q111 0 111 -135l-1 -246q0 -33 2.5 -47.5t7.5 -19t16 -6.5l59 -7v-11h-214v11l59 7q11 2 16 6.5
t7.5 19t2.5 47.5l1 233q0 58 -22 83.5t-69 25.5q-42 0 -83 -18.5t-73 -46.5l-1 -277q0 -33 2 -47.5z" />
    <glyph glyph-name="o" unicode="o" horiz-adv-x="483" 
d="M91 49.5q-54 63.5 -54 171.5q0 73 26.5 130t74 89t108.5 32q92 0 146 -64t54 -171q0 -74 -26.5 -131t-74 -88.5t-107.5 -31.5q-93 0 -147 63.5zM356 66.5q40 59.5 40 153.5q0 104 -42 167.5t-115 63.5q-71 0 -111.5 -59.5t-40.5 -154.5q0 -103 42.5 -166.5t115.5 -63.5
q71 0 111 59.5z" />
    <glyph glyph-name="p" unicode="p" horiz-adv-x="491" 
d="M130 -130q3 -16 10 -21.5t24 -8.5l111 -7v-11h-278v11l59 7q12 2 16.5 7t7 21.5t2.5 54.5l1 428q0 30 -1.5 43t-7.5 17.5t-20 5.5l-47 2v9l112 36l8 -1v-68h4q36 35 77.5 56t79.5 21q75 0 120.5 -59.5t45.5 -164.5q0 -77 -26.5 -137t-72.5 -93t-103 -33q-36 0 -69.5 13
t-55.5 33v-108q0 -37 3 -53zM333 32q34 25 54 74.5t20 119.5q0 104 -39 158t-103 54t-138 -64v-268q2 -25 20.5 -48t48 -37t63.5 -14q40 0 74 25z" />
    <glyph glyph-name="q" unicode="q" horiz-adv-x="486" 
d="M493 -167v-11h-278v11l111 7q17 3 24 8.5t10 21.5t3 53v94l1 45h-4q-37 -35 -77.5 -56t-80.5 -21q-74 0 -119.5 60t-45.5 165q0 79 27 138.5t73 91.5t101 32q81 0 143 -53l28 81h9q-10 -134 -10 -260v-317q0 -38 2.5 -54.5t7 -21.5t16.5 -7zM364 353q-2 24 -20 46.5
t-47 36.5t-64 14q-40 0 -74 -24.5t-55 -73.5t-21 -121q0 -103 40 -157.5t101 -54.5q37 0 73.5 18.5t66.5 46.5v269z" />
    <glyph glyph-name="r" unicode="r" horiz-adv-x="357" 
d="M158 48.5q3 -15.5 10 -21t24 -8.5l111 -8v-11h-278v11l59 7q12 2 16.5 7t7 21.5t2.5 54.5l1 252q0 30 -2 42.5t-8 16.5t-20 5l-47 2v9l113 36l8 -1l-1 -84h4q88 93 168 93q11 0 15 -1v-52h-2q-18 2 -29 2q-86 0 -155 -62v-258q0 -37 3 -52.5z" />
    <glyph glyph-name="s" unicode="s" horiz-adv-x="388" 
d="M102 -5.5q-40 10.5 -60 21.5l11 124h5q13 -77 41.5 -105.5t88.5 -28.5q58 0 88.5 25t30.5 66q0 27 -11 46t-38.5 35.5t-80.5 37.5q-68 27 -95.5 57t-27.5 76q0 56 42.5 89.5t107.5 33.5q75 0 134 -38l-32 -110h-6q1 73 -25.5 100t-79.5 27q-45 0 -74.5 -23t-29.5 -64
q0 -35 22.5 -57t80.5 -45q59 -24 90 -42.5t45.5 -42.5t14.5 -60q0 -61 -43.5 -97t-116.5 -36q-42 0 -82 10.5z" />
    <glyph glyph-name="t" unicode="t" horiz-adv-x="331" 
d="M81 106q0 46 2 174q2 102 2 157l-69 2v16l61 3l38 129h13v-130h163l2 -1l-2 -17h-163q-2 -212 -2 -318q0 -56 18.5 -78.5t53.5 -22.5q45 0 67 37t30 113l11 -1q-8 -184 -124 -184q-101 0 -101 121z" />
    <glyph glyph-name="u" unicode="u" horiz-adv-x="525" 
d="M118.5 20q-25.5 35 -24.5 101l1 231q0 32 -2 44.5t-7.5 16.5t-19.5 5l-46 1v10l115 35l5 -1l-1 -111v-218q0 -57 19.5 -83.5t71.5 -26.5q38 0 78 18.5t71 46.5l1 263q0 32 -2 44.5t-7.5 16.5t-20.5 5l-46 1v10l115 35l5 -1v-111l-1 -249q0 -29 2 -41.5t8 -17t20 -5.5
l48 -1v-11l-111 -34l-10 1v74h-3q-41 -38 -84.5 -60.5t-83.5 -22.5q-65 0 -90.5 35z" />
    <glyph glyph-name="v" unicode="v" horiz-adv-x="467" 
d="M462 457v-9q-28 -8 -39 -18.5t-21 -33.5l-169 -408h-11l-165 423q-7 18 -16.5 25.5t-35.5 11.5v9h194v-10l-71 -6q-15 -2 -21 -5.5t-6 -10.5q0 -5 3 -14l138 -361l131 334q7 17 7 29q0 25 -33 30l-70 4v10h185z" />
    <glyph glyph-name="w" unicode="w" horiz-adv-x="698" 
d="M693 457v-10q-26 -8 -36.5 -18t-18.5 -33l-142 -408h-12l-138 394l-147 -394h-12l-135 423q-7 20 -15 26t-32 10v10h180v-11l-63 -5q-14 -2 -19.5 -5.5t-5.5 -10.5q0 -8 2 -13l109 -358l141 406h14l141 -407l106 332q5 18 5 27q0 14 -8 21t-24 10l-67 3v11h177z" />
    <glyph glyph-name="x" unicode="x" horiz-adv-x="466" 
d="M420.5 22q13.5 -8 39.5 -13v-9h-199v11l70 5q18 3 18 13q0 6 -6 15l-122 168l-107 -151q-13 -18 -13 -28q0 -14 23 -18l66 -4v-11h-184v10q30 4 44 12.5t35 34.5l126 168l-133 186q-12 16 -24 23.5t-43 12.5v10h199v-11l-70 -5q-18 -1 -18 -11q0 -5 7 -16l113 -160
l102 142q12 17 12 28q0 15 -24 19l-57 3v11h176v-10q-31 -4 -44.5 -13t-33.5 -34l-122 -158l144 -196q12 -16 25.5 -24z" />
    <glyph glyph-name="y" unicode="y" horiz-adv-x="456" 
d="M451 457v-9q-29 -8 -39 -18t-20 -34l-152 -379q-29 -70 -56.5 -113t-67 -67t-96.5 -25l-8 56l2 1q11 -2 34 -2q53 0 94.5 29t70.5 101l-158 415q-7 18 -16 25t-35 11v9h190v-10l-68 -6q-15 -2 -21 -6t-6 -11q0 -5 3 -13l135 -361l125 334q7 18 7 31t-7.5 19.5t-22.5 8.5
l-67 4v10h179z" />
    <glyph glyph-name="z" unicode="z" horiz-adv-x="428" 
d="M397 179l-23 -179h-337v12l281 430l-184 -4q-24 -2 -35 -10.5t-19 -37t-18 -96.5h-9l1 167q19 -4 63 -4h255v-11l-281 -431l210 5q22 1 32 9.5t20.5 38t34.5 112.5z" />
    <glyph glyph-name="braceleft" unicode="{" horiz-adv-x="252" 
d="M196 712q-91 0 -91 -75q0 -18 5.5 -47t12.5 -58q12 -48 17.5 -78.5t5.5 -58.5q0 -46 -16 -68.5t-56 -33.5q40 -11 56 -33t16 -69q0 -29 -6 -60t-18 -85q-7 -28 -12 -54.5t-5 -41.5q0 -76 88 -76h22v-14q-9 -1 -20 -1q-59 0 -96 23t-37 74q0 25 5.5 50t17.5 72
q11 38 17 65.5t6 52.5q0 32 -6 48.5t-22.5 26t-51.5 16.5v12q35 7 51.5 16.5t22.5 26t6 48.5q0 41 -23 120q-2 7 -9 33.5t-10.5 48t-3.5 38.5q0 51 37 74t96 23q12 0 20 -1v-14h-19z" />
    <glyph glyph-name="bar" unicode="|" horiz-adv-x="64" 
d="M23 -140v870h18v-870h-18z" />
    <glyph glyph-name="braceright" unicode="}" horiz-adv-x="252" 
d="M37 726q8 1 20 1q59 0 96 -23t37 -74q0 -25 -6 -53t-17 -67q-12 -45 -17.5 -70.5t-5.5 -49.5q0 -32 6 -48.5t22.5 -26t51.5 -16.5v-12q-35 -7 -51.5 -16.5t-22.5 -26t-6 -48.5q0 -25 6 -52.5t17 -65.5q12 -47 17.5 -72t5.5 -50q0 -51 -37 -74t-96 -23q-11 0 -20 1v14h22
q88 0 88 76q0 15 -5 41.5t-12 54.5q-12 54 -18 85t-6 60q0 47 16 69t56 33q-40 11 -56 33.5t-16 68.5q0 28 5.5 58.5t17.5 78.5q7 29 12.5 58t5.5 47q0 75 -91 75h-19v14z" />
    <glyph glyph-name="asciitilde" unicode="~" horiz-adv-x="271" 
d="M52 285q13 19 34 19q23 0 53 -22q15 -10 25.5 -15t21.5 -5q27 0 33 51l15 -3q-2 -28 -15 -47t-34 -19q-23 0 -53 22q-15 10 -25.5 15t-21.5 5q-27 0 -34 -51l-14 3q2 28 15 47z" />
    <glyph glyph-name="uni00A0" unicode="&#xa0;" horiz-adv-x="235" 
 />
    <glyph glyph-name="exclamdown" unicode="&#xa1;" horiz-adv-x="240" 
d="M149.5 473q12.5 -11 12.5 -27q0 -14 -13 -25t-30 -11q-16 0 -28.5 11t-12.5 25q0 16 12.5 27t28.5 11q18 0 30.5 -11zM135 82q7 -184 11 -309l-47 -8l-4 5q13 316 17 519h16z" />
    <glyph glyph-name="cent" unicode="&#xa2;" horiz-adv-x="442" 
d="M363 109q-45 -57 -126 -59l-8 -168h-18l8 168q-51 4 -92.5 32t-65.5 79.5t-24 121.5q0 76 28 132.5t74.5 87t100.5 34.5l8 167h18l-8 -167q74 -1 132 -39l-38 -117l-7 1l1 21q0 58 -22.5 83.5t-66.5 28.5l-19 -429h7q68 0 109 47.5t47 131.5h10q-3 -99 -48 -156z
M120 154.5q36 -56.5 100 -66.5l19 427q-44 -2 -79 -28t-55.5 -74.5t-20.5 -114.5q0 -87 36 -143.5z" />
    <glyph glyph-name="sterling" unicode="&#xa3;" horiz-adv-x="538" 
d="M513 139q-20 -57 -35 -86.5t-38.5 -46t-61.5 -16.5q-25 0 -51.5 5.5t-62.5 15.5q-42 11 -68 16.5t-53 5.5q-57 0 -110 -46l-10 9q18 28 36.5 44t46.5 28q48 54 48 139q0 45 -19 111h-103v17h98l-6 19q-16 55 -23.5 90.5t-7.5 70.5q0 60 25 105t70 70t104 25q45 0 83 -14
t76 -44l-24 -154h-15q-4 105 -34.5 145.5t-92.5 40.5q-68 0 -106.5 -42.5t-38.5 -110.5q0 -36 7.5 -73.5t23.5 -95.5q1 -8 8 -32h175v-17h-170q14 -59 14 -96q0 -49 -17.5 -87t-50.5 -61l1 -2q7 1 21 1q27 0 66.5 -6.5t75.5 -13.5q8 -1 40.5 -7.5t50.5 -6.5q42 0 65.5 22
t50.5 84z" />
    <glyph glyph-name="currency" unicode="&#xa4;" horiz-adv-x="401" 
d="M301 271l63 -63l-15 -15l-64 63q-36 -28 -82 -28q-48 0 -84 31l-66 -66l-15 15l66 66q-32 37 -32 85q0 44 29 81l-64 64l16 15l63 -63q39 34 87 34t84 -31l62 61l15 -16l-61 -61q31 -36 31 -84q0 -50 -33 -88zM125.5 280.5q32.5 -32.5 77.5 -32.5q46 0 78.5 32.5
t32.5 78.5q0 45 -32.5 77.5t-78.5 32.5q-45 0 -77.5 -32.5t-32.5 -77.5q0 -46 32.5 -78.5z" />
    <glyph glyph-name="yen" unicode="&#xa5;" horiz-adv-x="612" 
d="M606 700v-10q-31 -5 -46.5 -12t-26.5 -21t-29 -47l-163 -288h120v-17h-129l-1 -1v-85h130v-16h-130v-50q0 -63 3 -90t10.5 -34.5t24.5 -9.5l106 -9v-10h-337v10l107 9q17 2 24 9.5t10.5 35t3.5 89.5v50h-145v16h145v84l-1 2h-144v17h134l-182 314q-12 21 -20.5 30t-22 14
t-41.5 10v10h266v-11l-114 -7q-24 -3 -24 -18q0 -8 8 -24l181 -316l160 293q14 28 14 41q0 11 -8.5 16t-26.5 7l-108 8v11h252z" />
    <glyph glyph-name="brokenbar" unicode="&#xa6;" horiz-adv-x="64" 
d="M23 364v364h18v-364h-18zM23 -140v369h18v-369h-18z" />
    <glyph glyph-name="section" unicode="&#xa7;" horiz-adv-x="505" 
d="M427 69q13 -28 13 -64q0 -46 -24 -82t-68 -56t-102 -20q-53 0 -100.5 14t-76.5 32l12 94l6 1q21 -65 57.5 -91.5t105.5 -26.5q64 0 104 32t40 89q0 50 -31 82.5t-116 59.5q-71 23 -115.5 46t-69 56.5t-24.5 83.5q0 41 21 73.5t54 51.5q-28 22 -40.5 49.5t-12.5 64.5
q0 46 24 82t67.5 56t101.5 20q53 0 101.5 -14t75.5 -32l-12 -94l-6 -1q-21 65 -57 91.5t-106 26.5q-63 0 -103.5 -32t-40.5 -89q0 -50 31 -82.5t116 -59.5q71 -23 115.5 -46t69 -56.5t24.5 -82.5q0 -42 -21 -74t-54 -52q28 -22 41 -50zM370 130q46 36 46 94q0 40 -16.5 67.5
t-56 50t-109.5 45.5q-66 21 -104 46q-47 -37 -47 -94q0 -40 16.5 -67.5t56 -50t110.5 -45.5q66 -21 104 -46z" />
    <glyph glyph-name="dieresis" unicode="&#xa8;" horiz-adv-x="322" 
d="M62 563q-9 8 -9 23t9 23t25 8q15 0 24 -8t9 -23t-9 -23t-24 -8q-16 0 -25 8zM207 563q-9 8 -9 23t9 23t25 8q15 0 24 -8t9 -23t-9 -23t-24 -8q-16 0 -25 8z" />
    <glyph glyph-name="copyright" unicode="&#xa9;" horiz-adv-x="802" 
d="M218.5 35q-83.5 49 -132.5 133t-49 182t49 181t132.5 132t181.5 49t182 -49t133 -132t49 -181t-49 -182t-133 -133t-182 -49t-181.5 49zM572.5 51.5q79.5 46.5 126 126t46.5 172.5t-46.5 172t-126 125t-172.5 46t-172 -46t-125.5 -125t-46.5 -172t46.5 -172.5t125.5 -126
t172 -46.5t172.5 46.5zM300 149.5q-43 25.5 -68 75.5t-25 119q0 75 29 129.5t77 82.5t103 28q77 0 134 -37l-37 -110h-7q4 70 -20 98.5t-75 28.5q-45 0 -81.5 -24t-57.5 -70.5t-21 -111.5q0 -89 42.5 -145t114.5 -56q67 0 106.5 45t45.5 125h10q-2 -95 -47.5 -149
t-126.5 -54q-53 0 -96 25.5z" />
    <glyph glyph-name="ordfeminine" unicode="&#xaa;" horiz-adv-x="292" 
d="M53.5 480.5q-14.5 15.5 -14.5 38.5q0 30 24.5 46.5t79.5 28.5l26 6v39q0 31 -11 43.5t-32 12.5q-49 0 -42 -76l-38 -3q4 46 31 71t64 25q66 0 66 -68l-1 -112q0 -37 18 -37q13 0 18.5 13t6.5 46h6q1 -45 -9.5 -66t-36.5 -21q-39 0 -39 52h-2q-34 -54 -77 -54
q-23 0 -37.5 15.5zM142 505.5q14 9.5 27 26.5v60l-22 -7q-39 -11 -56 -22.5t-17 -30.5q0 -16 10 -26t26 -10q18 0 32 9.5zM246 420v-14h-205v14h205z" />
    <glyph glyph-name="guillemotleft" unicode="&#xab;" horiz-adv-x="407" 
d="M23 233v15l189 178l11 -12l-153 -173l153 -174l-11 -11zM184 233v15l189 178l11 -12l-153 -173l153 -174l-11 -11z" />
    <glyph glyph-name="logicalnot" unicode="&#xac;" horiz-adv-x="267" 
d="M230 299v-96h-19v77h-174v19h193z" />
    <glyph glyph-name="uni00AD" unicode="&#xad;" horiz-adv-x="332" 
d="M295 268v-19h-258v19h258z" />
    <glyph glyph-name="registered" unicode="&#xae;" horiz-adv-x="802" 
d="M582 663q84 -49 133 -132t49 -181t-49 -182t-133 -133t-182 -49t-181.5 49t-132.5 133t-49 182t49 181t132.5 132t181.5 49t182 -49zM572.5 51.5q79.5 46.5 126 126t46.5 172.5t-46.5 172t-126 125t-172.5 46t-172 -46t-125.5 -125t-46.5 -172t46.5 -172.5t125.5 -126
t172 -46.5t172.5 46.5zM577 150q10 -5 37 -9v-9q-22 -6 -38 -6q-18 0 -33 9.5t-29 29.5q-35 48 -59 88.5t-47 87.5q-10 -1 -32 -1h-50v18q10 -2 54 -2q69 0 106 28.5t37 79.5q0 62 -40 90.5t-122 28.5h-33q-5 -15 -5 -141v-195q0 -47 2 -67t6 -25.5t14 -7.5l71 -6v-9h-219v9
l71 6q10 2 14 7.5t6 25.5t2 67v237q0 47 -2 67t-6 25.5t-14 7.5l-71 6v9h185q86 0 132 -33t46 -95q0 -46 -31 -79.5t-91 -45.5q50 -92 113 -172q16 -19 26 -24z" />
    <glyph glyph-name="macron" unicode="&#xaf;" horiz-adv-x="280" 
d="M243 570h-206v21h206v-21z" />
    <glyph glyph-name="degree" unicode="&#xb0;" horiz-adv-x="223" 
d="M165 694q21 -20 21 -53t-21 -53t-54 -20t-53.5 20t-20.5 53t20.5 53t53.5 20t54 -20zM149 602.5q14 14.5 14 38.5t-14 38.5t-37 14.5q-24 0 -38 -14.5t-14 -38.5t14 -38.5t38 -14.5q23 0 37 14.5z" />
    <glyph glyph-name="plusminus" unicode="&#xb1;" horiz-adv-x="332" 
d="M295 220h-120v-80h120v-19h-120v-20h-19v20h-119v19h119v80h-119v19h119v120h19v-120h120v-19z" />
    <glyph glyph-name="acute" unicode="&#xb4;" horiz-adv-x="181" 
d="M166 709v-6l-118 -151l-11 3l76 156z" />
    <glyph glyph-name="paragraph" unicode="&#xb6;" horiz-adv-x="484" 
d="M308 26v287h-76q-105 0 -161 50t-56 147q0 94 56 142t161 48h229v-10l-82 -9q-13 -2 -18.5 -9.5t-8 -34.5t-2.5 -90v-523q0 -103 -59.5 -155.5t-173.5 -52.5v14q191 23 191 196z" />
    <glyph glyph-name="periodcentered" unicode="&#xb7;" horiz-adv-x="158" 
d="M49.5 291q-12.5 11 -12.5 27q0 15 13 26t30 11t29 -11t12 -26q0 -16 -12 -27t-29 -11q-18 0 -30.5 11z" />
    <glyph glyph-name="cedilla" unicode="&#xb8;" horiz-adv-x="201" 
d="M91 -50q34 -5 53.5 -19.5t19.5 -37.5q0 -31 -30.5 -52.5t-95.5 -28.5l-1 11q49 9 70 22t21 34q0 16 -17.5 26t-53.5 13l-3 7l46 75l14 -1z" />
    <glyph glyph-name="ordmasculine" unicode="&#xba;" horiz-adv-x="292" 
d="M66 497q-28 31 -28 86q0 56 31 92t80 36q50 0 77.5 -31.5t27.5 -85.5q0 -56 -31 -92t-79 -36q-50 0 -78 31zM196.5 506q16.5 28 16.5 73q0 54 -18.5 87t-51.5 33q-30 0 -46.5 -27.5t-16.5 -74.5q0 -53 19 -86t51 -33q30 0 46.5 28zM249 420v-14h-205v14h205z" />
    <glyph glyph-name="guillemotright" unicode="&#xbb;" horiz-adv-x="407" 
d="M23 67l153 174l-153 173l11 12l189 -178v-15l-189 -177zM184 67l153 174l-153 173l11 12l189 -178v-15l-189 -177z" />
    <glyph glyph-name="questiondown" unicode="&#xbf;" horiz-adv-x="373" 
d="M240.5 475q12.5 -11 12.5 -27q0 -14 -12.5 -25t-29.5 -11q-16 0 -28.5 11t-12.5 25q0 16 12 27t29 11t29.5 -11zM245 244.5q10 -30.5 10 -50.5q0 -35 -20.5 -61.5t-77.5 -50.5q-59 -24 -79.5 -44t-20.5 -53q0 -50 67 -98.5t185 -82.5l-11 -43q-108 30 -184 89.5
t-76 135.5q0 46 22 78t80 59q43 21 62.5 40t19.5 50q0 42 -15 90l12 2q16 -30 26 -60.5z" />
    <glyph glyph-name="Agrave" unicode="&#xc0;" horiz-adv-x="654" 
d="M589 39.5q7 -11.5 19.5 -17.5t39.5 -12v-10h-254v10l114 9q13 1 18.5 4.5t5.5 12.5t-6 25l-77 210q-160 2 -266 2l-54 -150q-24 -63 -24 -81q0 -11 6 -16t21 -7l113 -9v-10h-239v10q32 7 46 16.5t28 35.5t39 91l186 511l-16 42v6h57q5 -35 36 -123l191 -514
q9 -24 16 -35.5zM264 291q124 0 178 1l-127 347l-126 -348h75zM254 894l145 -106l-5 -7l-174 73l-1 6z" />
    <glyph glyph-name="Aacute" unicode="&#xc1;" horiz-adv-x="654" 
d="M589 39.5q7 -11.5 19.5 -17.5t39.5 -12v-10h-254v10l114 9q13 1 18.5 4.5t5.5 12.5t-6 25l-77 210q-160 2 -266 2l-54 -150q-24 -63 -24 -81q0 -11 6 -16t21 -7l113 -9v-10h-239v10q32 7 46 16.5t28 35.5t39 91l186 511l-16 42v6h57q5 -35 36 -123l191 -514
q9 -24 16 -35.5zM264 291q124 0 178 1l-127 347l-126 -348h75zM419 855l-174 -73l-6 7l146 106l34 -34v-6z" />
    <glyph glyph-name="Acircumflex" unicode="&#xc2;" horiz-adv-x="654" 
d="M589 39.5q7 -11.5 19.5 -17.5t39.5 -12v-10h-254v10l114 9q13 1 18.5 4.5t5.5 12.5t-6 25l-77 210q-160 2 -266 2l-54 -150q-24 -63 -24 -81q0 -11 6 -16t21 -7l113 -9v-10h-239v10q32 7 46 16.5t28 35.5t39 91l186 511l-16 42v6h57q5 -35 36 -123l191 -514
q9 -24 16 -35.5zM264 291q124 0 178 1l-127 347l-126 -348h75zM316 897h17l114 -110l-8 -8q-52 35 -115 73q-76 -48 -114 -73l-8 8z" />
    <glyph glyph-name="Atilde" unicode="&#xc3;" horiz-adv-x="654" 
d="M589 39.5q7 -11.5 19.5 -17.5t39.5 -12v-10h-254v10l114 9q13 1 18.5 4.5t5.5 12.5t-6 25l-77 210q-160 2 -266 2l-54 -150q-24 -63 -24 -81q0 -11 6 -16t21 -7l113 -9v-10h-239v10q32 7 46 16.5t28 35.5t39 91l186 511l-16 42v6h57q5 -35 36 -123l191 -514
q9 -24 16 -35.5zM264 291q124 0 178 1l-127 347l-126 -348h75zM237.5 846.5q13.5 21.5 37.5 21.5q14 0 26 -5t32 -16q11 -6 23.5 -11.5t22.5 -5.5q31 0 39 49l11 -2q-2 -39 -15.5 -60.5t-37.5 -21.5t-58 20q-16 9 -25.5 13t-20.5 4q-31 0 -39 -48l-11 2q2 39 15.5 60.5z" />
    <glyph glyph-name="Adieresis" unicode="&#xc4;" horiz-adv-x="654" 
d="M589 39.5q7 -11.5 19.5 -17.5t39.5 -12v-10h-254v10l114 9q13 1 18.5 4.5t5.5 12.5t-6 25l-77 210q-160 2 -266 2l-54 -150q-24 -63 -24 -81q0 -11 6 -16t21 -7l113 -9v-10h-239v10q32 7 46 16.5t28 35.5t39 91l186 511l-16 42v6h57q5 -35 36 -123l191 -514
q9 -24 16 -35.5zM264 291q124 0 178 1l-127 347l-126 -348h75zM227 802q-9 8 -9 23t9 23t25 8q15 0 24 -8t9 -23t-9 -23t-24 -8q-16 0 -25 8zM372 802q-9 8 -9 23t9 23t25 8q15 0 24 -8t9 -23t-9 -23t-24 -8q-16 0 -25 8z" />
    <glyph glyph-name="Aring" unicode="&#xc5;" horiz-adv-x="654" 
d="M589 39.5q7 -11.5 19.5 -17.5t39.5 -12v-10h-254v10l114 9q13 1 18.5 4.5t5.5 12.5t-6 25l-77 210q-160 2 -266 2l-54 -150q-24 -63 -24 -81q0 -11 6 -16t21 -7l113 -9v-10h-239v10q32 7 46 16.5t28 35.5t39 91l186 511l-16 42v6h57q5 -35 36 -123l191 -514
q9 -24 16 -35.5zM264 291q124 0 178 1l-127 347l-126 -348h75zM372 894q17 -18 17 -46t-17 -45.5t-49 -17.5q-30 0 -47 18t-17 45q0 28 17 46t47 18q32 0 49 -18zM359 814q12 13 12 34t-12 34.5t-35 13.5t-35 -13.5t-12 -34.5t12 -34t35 -13t35 13z" />
    <glyph glyph-name="AE" unicode="&#xc6;" horiz-adv-x="942" 
d="M909 263l-26 -266h-1q-24 3 -81 3h-431v10l81 9q13 2 18.5 9.5t8 34.5t2.5 90v120q-39 1 -125 1q-80 0 -110 -1l-92 -150q-22 -37 -31.5 -56.5t-9.5 -29.5q0 -9 6 -12.5t19 -5.5l111 -8v-11h-242v9l26 4q19 5 41.5 29t60.5 86l335 544q-6 8 -18 9l-81 9v10h383q53 0 87 6
l-1 -251h-10q-10 109 -18.5 153.5t-21 56.5t-40.5 14l-215 4q-6 -22 -6 -216v-92l229 6v-29l-229 7v-134q0 -99 3.5 -141.5t12.5 -55t29 -10.5l224 2q24 2 38 17.5t29 65.5t36 161zM480 291v256q0 79 -4 104l-220 -360h224z" />
    <glyph glyph-name="Ccedilla" unicode="&#xc7;" horiz-adv-x="640" 
d="M574.5 128.5q-28.5 -65.5 -87 -104.5t-146.5 -39l-15 -33q33 -5 53 -19t20 -37q0 -31 -30.5 -52.5t-95.5 -29.5l-1 11q49 9 70 22t21 34q0 33 -71 39l-3 7q21 35 36 58q-85 4 -150.5 49.5t-101.5 125t-36 183.5q0 107 41 192t116.5 133t174.5 48q64 0 114 -16.5t81 -40.5
l-49 -164h-7q3 29 3 51q0 83 -37.5 114.5t-114.5 31.5q-84 0 -145 -42t-93 -116.5t-32 -168.5q0 -103 33.5 -179.5t94 -117.5t138.5 -41q108 0 169 69t69 178h11q-1 -80 -29.5 -145.5z" />
    <glyph glyph-name="Egrave" unicode="&#xc8;" horiz-adv-x="608" 
d="M576 265l-20 -268h-1q-24 3 -81 3h-451v10l82 9q13 2 18.5 9.5t8 34.5t2.5 90v394q0 63 -2.5 90t-8 34.5t-18.5 9.5l-82 9v10h404q53 0 87 6l-1 -251h-10q-11 110 -19.5 154t-20.5 56t-40 14l-235 4q-6 -22 -6 -216v-92l248 6v-29l-248 7v-134q0 -99 3.5 -141t12 -54.5
t29.5 -11.5l243 2q25 2 38 17t25.5 65t31.5 163h11zM250 894l145 -106l-5 -7l-174 73l-1 6z" />
    <glyph glyph-name="Eacute" unicode="&#xc9;" horiz-adv-x="608" 
d="M576 265l-20 -268h-1q-24 3 -81 3h-451v10l82 9q13 2 18.5 9.5t8 34.5t2.5 90v394q0 63 -2.5 90t-8 34.5t-18.5 9.5l-82 9v10h404q53 0 87 6l-1 -251h-10q-11 110 -19.5 154t-20.5 56t-40 14l-235 4q-6 -22 -6 -216v-92l248 6v-29l-248 7v-134q0 -99 3.5 -141t12 -54.5
t29.5 -11.5l243 2q25 2 38 17t25.5 65t31.5 163h11zM416 855l-174 -73l-6 7l146 106l34 -34v-6z" />
    <glyph glyph-name="Ecircumflex" unicode="&#xca;" horiz-adv-x="608" 
d="M576 265l-20 -268h-1q-24 3 -81 3h-451v10l82 9q13 2 18.5 9.5t8 34.5t2.5 90v394q0 63 -2.5 90t-8 34.5t-18.5 9.5l-82 9v10h404q53 0 87 6l-1 -251h-10q-11 110 -19.5 154t-20.5 56t-40 14l-235 4q-6 -22 -6 -216v-92l248 6v-29l-248 7v-134q0 -99 3.5 -141t12 -54.5
t29.5 -11.5l243 2q25 2 38 17t25.5 65t31.5 163h11zM313 897h17l114 -110l-8 -8q-52 35 -115 73q-76 -48 -114 -73l-8 8z" />
    <glyph glyph-name="Edieresis" unicode="&#xcb;" horiz-adv-x="608" 
d="M576 265l-20 -268h-1q-24 3 -81 3h-451v10l82 9q13 2 18.5 9.5t8 34.5t2.5 90v394q0 63 -2.5 90t-8 34.5t-18.5 9.5l-82 9v10h404q53 0 87 6l-1 -251h-10q-11 110 -19.5 154t-20.5 56t-40 14l-235 4q-6 -22 -6 -216v-92l248 6v-29l-248 7v-134q0 -99 3.5 -141t12 -54.5
t29.5 -11.5l243 2q25 2 38 17t25.5 65t31.5 163h11zM223 802q-9 8 -9 23t9 23t25 8q15 0 24 -8t9 -23t-9 -23t-24 -8q-16 0 -25 8zM368 802q-9 8 -9 23t9 23t25 8q15 0 24 -8t9 -23t-9 -23t-24 -8q-16 0 -25 8z" />
    <glyph glyph-name="Igrave" unicode="&#xcc;" horiz-adv-x="317" 
d="M131.5 636.5q-2.5 26.5 -8 34t-19.5 9.5l-81 10v10h270v-10l-81 -10q-14 -2 -19.5 -9.5t-8 -34t-2.5 -89.5l1 -394q0 -63 2.5 -89.5t8 -34t18.5 -9.5l82 -10v-10h-270v10l81 10q13 2 18.5 9.5t8 34t2.5 89.5v394q0 63 -2.5 89.5zM87 894l145 -106l-5 -7l-174 73l-1 6z
" />
    <glyph glyph-name="Iacute" unicode="&#xcd;" horiz-adv-x="317" 
d="M131.5 636.5q-2.5 26.5 -8 34t-19.5 9.5l-81 10v10h270v-10l-81 -10q-14 -2 -19.5 -9.5t-8 -34t-2.5 -89.5l1 -394q0 -63 2.5 -89.5t8 -34t18.5 -9.5l82 -10v-10h-270v10l81 10q13 2 18.5 9.5t8 34t2.5 89.5v394q0 63 -2.5 89.5zM253 855l-174 -73l-6 7l146 106l34 -34
v-6z" />
    <glyph glyph-name="Icircumflex" unicode="&#xce;" horiz-adv-x="317" 
d="M131.5 636.5q-2.5 26.5 -8 34t-19.5 9.5l-81 10v10h270v-10l-81 -10q-14 -2 -19.5 -9.5t-8 -34t-2.5 -89.5l1 -394q0 -63 2.5 -89.5t8 -34t18.5 -9.5l82 -10v-10h-270v10l81 10q13 2 18.5 9.5t8 34t2.5 89.5v394q0 63 -2.5 89.5zM150 897h17l114 -110l-8 -8
q-52 35 -115 73q-76 -48 -114 -73l-8 8z" />
    <glyph glyph-name="Idieresis" unicode="&#xcf;" horiz-adv-x="317" 
d="M131.5 636.5q-2.5 26.5 -8 34t-19.5 9.5l-81 10v10h270v-10l-81 -10q-14 -2 -19.5 -9.5t-8 -34t-2.5 -89.5l1 -394q0 -63 2.5 -89.5t8 -34t18.5 -9.5l82 -10v-10h-270v10l81 10q13 2 18.5 9.5t8 34t2.5 89.5v394q0 63 -2.5 89.5zM60 802q-9 8 -9 23t9 23t25 8q15 0 24 -8
t9 -23t-9 -23t-24 -8q-16 0 -25 8zM205 802q-9 8 -9 23t9 23t25 8q15 0 24 -8t9 -23t-9 -23t-24 -8q-16 0 -25 8z" />
    <glyph glyph-name="Eth" unicode="&#xd0;" horiz-adv-x="690" 
d="M483.5 658q81.5 -42 125.5 -120t44 -184q0 -108 -44 -188t-127 -123t-195 -43h-264v10l82 9q13 2 18.5 9.5t8 34.5t2.5 90v188h-108v18h108v188q0 63 -2.5 90t-8 34.5t-18.5 9.5l-82 9v10h268q111 0 192.5 -42zM516 102.5q81 83.5 81 237.5q0 100 -36 177t-107.5 120.5
t-174.5 43.5q-60 0 -90 -3q-7 -21 -7 -212v-107h120v-18h-120v-114q0 -99 3 -140.5t12 -54.5t31 -13h60q147 0 228 83.5z" />
    <glyph glyph-name="Ntilde" unicode="&#xd1;" horiz-adv-x="747" 
d="M730 700v-11l-77 -6q-14 -2 -20.5 -9.5t-9.5 -34.5t-3 -90v-554l-16 -2l-456 648l5 -490q2 -59 6 -84.5t15.5 -36t38.5 -13.5l107 -6v-11h-297v11l76 6q15 2 21 9.5t9 34.5t3 90v380q0 69 -2 98t-7.5 39t-19.5 13l-80 8v11h144l436 -622l-5 471q-1 60 -5 85.5t-15.5 35.5
t-38.5 13l-108 6v11h299zM288.5 846.5q13.5 21.5 37.5 21.5q14 0 26 -5t32 -16q11 -6 23.5 -11.5t22.5 -5.5q31 0 39 49l11 -2q-2 -39 -15.5 -60.5t-37.5 -21.5t-58 20q-16 9 -25.5 13t-20.5 4q-31 0 -39 -48l-11 2q2 39 15.5 60.5z" />
    <glyph glyph-name="Ograve" unicode="&#xd2;" horiz-adv-x="705" 
d="M181.5 29q-69.5 44 -107 124.5t-37.5 186.5q0 110 41 195.5t114.5 133t168.5 47.5q94 0 163.5 -44t106.5 -124t37 -185q0 -111 -40.5 -197t-114.5 -133.5t-169 -47.5q-93 0 -162.5 44zM493 50q57 41 88.5 115.5t31.5 173.5q0 106 -33.5 186t-94 123.5t-139.5 43.5
q-76 0 -133.5 -41t-89 -115.5t-31.5 -172.5q0 -107 33.5 -187t94 -123.5t140.5 -43.5q76 0 133 41zM281 894l145 -106l-5 -7l-174 73l-1 6z" />
    <glyph glyph-name="Oacute" unicode="&#xd3;" horiz-adv-x="705" 
d="M181.5 29q-69.5 44 -107 124.5t-37.5 186.5q0 110 41 195.5t114.5 133t168.5 47.5q94 0 163.5 -44t106.5 -124t37 -185q0 -111 -40.5 -197t-114.5 -133.5t-169 -47.5q-93 0 -162.5 44zM493 50q57 41 88.5 115.5t31.5 173.5q0 106 -33.5 186t-94 123.5t-139.5 43.5
q-76 0 -133.5 -41t-89 -115.5t-31.5 -172.5q0 -107 33.5 -187t94 -123.5t140.5 -43.5q76 0 133 41zM447 855l-174 -73l-6 7l146 106l34 -34v-6z" />
    <glyph glyph-name="Ocircumflex" unicode="&#xd4;" horiz-adv-x="705" 
d="M181.5 29q-69.5 44 -107 124.5t-37.5 186.5q0 110 41 195.5t114.5 133t168.5 47.5q94 0 163.5 -44t106.5 -124t37 -185q0 -111 -40.5 -197t-114.5 -133.5t-169 -47.5q-93 0 -162.5 44zM493 50q57 41 88.5 115.5t31.5 173.5q0 106 -33.5 186t-94 123.5t-139.5 43.5
q-76 0 -133.5 -41t-89 -115.5t-31.5 -172.5q0 -107 33.5 -187t94 -123.5t140.5 -43.5q76 0 133 41zM344 897h17l114 -110l-8 -8q-52 35 -115 73q-76 -48 -114 -73l-8 8z" />
    <glyph glyph-name="Otilde" unicode="&#xd5;" horiz-adv-x="705" 
d="M181.5 29q-69.5 44 -107 124.5t-37.5 186.5q0 110 41 195.5t114.5 133t168.5 47.5q94 0 163.5 -44t106.5 -124t37 -185q0 -111 -40.5 -197t-114.5 -133.5t-169 -47.5q-93 0 -162.5 44zM493 50q57 41 88.5 115.5t31.5 173.5q0 106 -33.5 186t-94 123.5t-139.5 43.5
q-76 0 -133.5 -41t-89 -115.5t-31.5 -172.5q0 -107 33.5 -187t94 -123.5t140.5 -43.5q76 0 133 41zM264.5 846.5q13.5 21.5 37.5 21.5q14 0 26 -5t32 -16q11 -6 23.5 -11.5t22.5 -5.5q31 0 39 49l11 -2q-2 -39 -15.5 -60.5t-37.5 -21.5t-58 20q-16 9 -25.5 13t-20.5 4
q-31 0 -39 -48l-11 2q2 39 15.5 60.5z" />
    <glyph glyph-name="Odieresis" unicode="&#xd6;" horiz-adv-x="705" 
d="M181.5 29q-69.5 44 -107 124.5t-37.5 186.5q0 110 41 195.5t114.5 133t168.5 47.5q94 0 163.5 -44t106.5 -124t37 -185q0 -111 -40.5 -197t-114.5 -133.5t-169 -47.5q-93 0 -162.5 44zM493 50q57 41 88.5 115.5t31.5 173.5q0 106 -33.5 186t-94 123.5t-139.5 43.5
q-76 0 -133.5 -41t-89 -115.5t-31.5 -172.5q0 -107 33.5 -187t94 -123.5t140.5 -43.5q76 0 133 41zM254 802q-9 8 -9 23t9 23t25 8q15 0 24 -8t9 -23t-9 -23t-24 -8q-16 0 -25 8zM399 802q-9 8 -9 23t9 23t25 8q15 0 24 -8t9 -23t-9 -23t-24 -8q-16 0 -25 8z" />
    <glyph glyph-name="multiply" unicode="&#xd7;" horiz-adv-x="270" 
d="M233 304l-84 -84l84 -85l-14 -14l-84 85l-84 -84l-14 13l84 84l-84 84l14 14l84 -84l85 84z" />
    <glyph glyph-name="Oslash" unicode="&#xd8;" horiz-adv-x="705" 
d="M638.5 529.5q29.5 -73.5 29.5 -166.5q0 -111 -40.5 -197t-114.5 -133.5t-169 -47.5q-104 0 -178 54l-51 -80l-15 11l51 81q-55 47 -84.5 121t-29.5 168q0 110 41 195.5t114.5 133t168.5 47.5q106 0 179 -55l53 84l15 -11l-54 -84q55 -47 84.5 -120.5zM114 207.5
q22 -69.5 63 -116.5l339 532q-71 69 -170 69q-76 0 -133.5 -41t-89 -115.5t-31.5 -172.5q0 -86 22 -155.5zM493 50q57 41 88.5 115.5t31.5 173.5q0 85 -22 154t-62 116l-339 -532q70 -68 170 -68q76 0 133 41z" />
    <glyph glyph-name="Ugrave" unicode="&#xd9;" horiz-adv-x="719" 
d="M128 250v297q0 63 -2.5 89.5t-8 34t-19.5 9.5l-81 10v10h270v-10l-81 -10q-14 -2 -19.5 -9.5t-8 -34t-2.5 -89.5v-298q0 -239 213 -239q202 0 202 250q0 200 -4 284t-16 110t-40 29l-113 6v11h284v-11l-59 -5q-18 -4 -24.5 -27.5t-8 -99.5t-1.5 -300q0 -273 -239 -273
q-242 0 -242 266zM295 894l145 -106l-5 -7l-174 73l-1 6z" />
    <glyph glyph-name="Uacute" unicode="&#xda;" horiz-adv-x="719" 
d="M128 250v297q0 63 -2.5 89.5t-8 34t-19.5 9.5l-81 10v10h270v-10l-81 -10q-14 -2 -19.5 -9.5t-8 -34t-2.5 -89.5v-298q0 -239 213 -239q202 0 202 250q0 200 -4 284t-16 110t-40 29l-113 6v11h284v-11l-59 -5q-18 -4 -24.5 -27.5t-8 -99.5t-1.5 -300q0 -273 -239 -273
q-242 0 -242 266zM460 855l-174 -73l-6 7l146 106l34 -34v-6z" />
    <glyph glyph-name="Ucircumflex" unicode="&#xdb;" horiz-adv-x="719" 
d="M128 250v297q0 63 -2.5 89.5t-8 34t-19.5 9.5l-81 10v10h270v-10l-81 -10q-14 -2 -19.5 -9.5t-8 -34t-2.5 -89.5v-298q0 -239 213 -239q202 0 202 250q0 200 -4 284t-16 110t-40 29l-113 6v11h284v-11l-59 -5q-18 -4 -24.5 -27.5t-8 -99.5t-1.5 -300q0 -273 -239 -273
q-242 0 -242 266zM358 897h17l114 -110l-8 -8q-52 35 -115 73q-76 -48 -114 -73l-8 8z" />
    <glyph glyph-name="Udieresis" unicode="&#xdc;" horiz-adv-x="719" 
d="M128 250v297q0 63 -2.5 89.5t-8 34t-19.5 9.5l-81 10v10h270v-10l-81 -10q-14 -2 -19.5 -9.5t-8 -34t-2.5 -89.5v-298q0 -239 213 -239q202 0 202 250q0 200 -4 284t-16 110t-40 29l-113 6v11h284v-11l-59 -5q-18 -4 -24.5 -27.5t-8 -99.5t-1.5 -300q0 -273 -239 -273
q-242 0 -242 266zM268 802q-9 8 -9 23t9 23t25 8q15 0 24 -8t9 -23t-9 -23t-24 -8q-16 0 -25 8zM413 802q-9 8 -9 23t9 23t25 8q15 0 24 -8t9 -23t-9 -23t-24 -8q-16 0 -25 8z" />
    <glyph glyph-name="Yacute" unicode="&#xdd;" horiz-adv-x="612" 
d="M606 700v-10q-31 -5 -46.5 -12t-26.5 -21t-29 -47l-173 -306v-151q0 -63 3 -90t10.5 -34.5t24.5 -9.5l106 -9v-10h-337v10l107 9q17 2 24 9.5t10.5 35t3.5 89.5v150l-193 333q-12 21 -20.5 30t-22 14t-41.5 10v10h266v-11l-114 -7q-24 -3 -24 -18q0 -8 8 -24l181 -316
l160 293q14 28 14 41q0 11 -8.5 16t-26.5 7l-108 8v11h252zM406 855l-174 -73l-6 7l146 106l34 -34v-6z" />
    <glyph glyph-name="Thorn" unicode="&#xde;" horiz-adv-x="554" 
d="M262 152h-79q0 -62 2.5 -88.5t8 -34t18.5 -9.5l82 -10v-10h-270v10l81 10q13 2 18.5 9.5t8 34t2.5 89.5v394q0 63 -2.5 89.5t-8 34t-19.5 9.5l-81 10v10h270v-10l-81 -10q-13 -2 -18.5 -9t-8 -30t-3.5 -77h83q139 0 206.5 -48.5t67.5 -153.5q0 -210 -277 -210zM259 169
q110 0 168.5 42.5t58.5 149.5q0 101 -56.5 143.5t-168.5 42.5h-79l1 -378h76z" />
    <glyph glyph-name="germandbls" unicode="&#xdf;" horiz-adv-x="577" 
d="M318 -5.5q-34 10.5 -56 21.5l11 154h9q5 -68 16.5 -102.5t33.5 -48t64 -13.5q44 0 72 28t28 69q0 27 -9.5 45.5t-33 36t-68.5 42.5q-63 34 -87 63t-24 71q0 31 13.5 57t39.5 60q26 35 39 60t13 56q0 43 -27 64.5t-74 21.5q-68 0 -100 -51t-32 -178v-343q0 -42 1.5 -60
t5.5 -23.5t13 -7.5l47 -7v-10h-196v10l59 7q11 2 16 7.5t7 23.5t2 60v322l-84 8v11l85 10q4 241 177 241q65 0 105 -29.5t40 -76.5q0 -34 -16.5 -60t-48.5 -59q-29 -31 -43 -52t-14 -47q0 -29 22 -51t78 -52q52 -28 78.5 -47.5t39.5 -43t13 -59.5q0 -62 -39.5 -100.5
t-102.5 -38.5q-39 0 -73 10.5z" />
    <glyph glyph-name="agrave" unicode="&#xe0;" horiz-adv-x="464" 
d="M72 16.5q-29 31.5 -29 77.5q0 60 49 93.5t159 56.5l53 11l1 72q0 119 -96 119q-57 0 -85.5 -38t-24.5 -115h-50q9 85 56.5 132t120.5 47q60 0 91.5 -34.5t31.5 -98.5v-36l-2 -192q0 -87 42 -87q30 0 42 28.5t14 98.5h10q2 -84 -16 -123.5t-63 -39.5q-33 0 -51.5 26
t-18.5 81h-4q-64 -110 -153 -110q-48 0 -77 31.5zM246.5 52q33.5 28 58.5 71v116l-46 -14q-93 -24 -133 -49t-40 -70q0 -37 21.5 -59.5t57.5 -22.5q48 0 81.5 28zM180 692l76 -156l-11 -3l-118 151v6z" />
    <glyph glyph-name="aacute" unicode="&#xe1;" horiz-adv-x="464" 
d="M72 16.5q-29 31.5 -29 77.5q0 60 49 93.5t159 56.5l53 11l1 72q0 119 -96 119q-57 0 -85.5 -38t-24.5 -115h-50q9 85 56.5 132t120.5 47q60 0 91.5 -34.5t31.5 -98.5v-36l-2 -192q0 -87 42 -87q30 0 42 28.5t14 98.5h10q2 -84 -16 -123.5t-63 -39.5q-33 0 -51.5 26
t-18.5 81h-4q-64 -110 -153 -110q-48 0 -77 31.5zM246.5 52q33.5 28 58.5 71v116l-46 -14q-93 -24 -133 -49t-40 -70q0 -37 21.5 -59.5t57.5 -22.5q48 0 81.5 28zM298 684l-118 -151l-11 3l76 156l53 -2v-6z" />
    <glyph glyph-name="acircumflex" unicode="&#xe2;" horiz-adv-x="464" 
d="M72 16.5q-29 31.5 -29 77.5q0 60 49 93.5t159 56.5l53 11l1 72q0 119 -96 119q-57 0 -85.5 -38t-24.5 -115h-50q9 85 56.5 132t120.5 47q60 0 91.5 -34.5t31.5 -98.5v-36l-2 -192q0 -87 42 -87q30 0 42 28.5t14 98.5h10q2 -84 -16 -123.5t-63 -39.5q-33 0 -51.5 26
t-18.5 81h-4q-64 -110 -153 -110q-48 0 -77 31.5zM246.5 52q33.5 28 58.5 71v116l-46 -14q-93 -24 -133 -49t-40 -70q0 -37 21.5 -59.5t57.5 -22.5q48 0 81.5 28zM208 681h16q57 -65 115 -142l-9 -8q-64 62 -114 104q-44 -37 -115 -104l-9 8q72 93 116 142z" />
    <glyph glyph-name="atilde" unicode="&#xe3;" horiz-adv-x="464" 
d="M72 16.5q-29 31.5 -29 77.5q0 60 49 93.5t159 56.5l53 11l1 72q0 119 -96 119q-57 0 -85.5 -38t-24.5 -115h-50q9 85 56.5 132t120.5 47q60 0 91.5 -34.5t31.5 -98.5v-36l-2 -192q0 -87 42 -87q30 0 42 28.5t14 98.5h10q2 -84 -16 -123.5t-63 -39.5q-33 0 -51.5 26
t-18.5 81h-4q-64 -110 -153 -110q-48 0 -77 31.5zM246.5 52q33.5 28 58.5 71v116l-46 -14q-93 -24 -133 -49t-40 -70q0 -37 21.5 -59.5t57.5 -22.5q48 0 81.5 28zM127.5 604.5q13.5 21.5 37.5 21.5q14 0 26 -5t32 -16q11 -6 23.5 -11.5t22.5 -5.5q31 0 39 49l11 -2
q-2 -39 -15.5 -60.5t-37.5 -21.5t-58 20q-16 9 -25.5 13t-20.5 4q-31 0 -39 -48l-11 2q2 39 15.5 60.5z" />
    <glyph glyph-name="adieresis" unicode="&#xe4;" horiz-adv-x="464" 
d="M72 16.5q-29 31.5 -29 77.5q0 60 49 93.5t159 56.5l53 11l1 72q0 119 -96 119q-57 0 -85.5 -38t-24.5 -115h-50q9 85 56.5 132t120.5 47q60 0 91.5 -34.5t31.5 -98.5v-36l-2 -192q0 -87 42 -87q30 0 42 28.5t14 98.5h10q2 -84 -16 -123.5t-63 -39.5q-33 0 -51.5 26
t-18.5 81h-4q-64 -110 -153 -110q-48 0 -77 31.5zM246.5 52q33.5 28 58.5 71v116l-46 -14q-93 -24 -133 -49t-40 -70q0 -37 21.5 -59.5t57.5 -22.5q48 0 81.5 28zM117 560q-9 8 -9 23t9 23t25 8q15 0 24 -8t9 -23t-9 -23t-24 -8q-16 0 -25 8zM262 560q-9 8 -9 23t9 23t25 8
q15 0 24 -8t9 -23t-9 -23t-24 -8q-16 0 -25 8z" />
    <glyph glyph-name="aring" unicode="&#xe5;" horiz-adv-x="464" 
d="M72 16.5q-29 31.5 -29 77.5q0 60 49 93.5t159 56.5l53 11l1 72q0 119 -96 119q-57 0 -85.5 -38t-24.5 -115h-50q9 85 56.5 132t120.5 47q60 0 91.5 -34.5t31.5 -98.5v-36l-2 -192q0 -87 42 -87q30 0 42 28.5t14 98.5h10q2 -84 -16 -123.5t-63 -39.5q-33 0 -51.5 26
t-18.5 81h-4q-64 -110 -153 -110q-48 0 -77 31.5zM246.5 52q33.5 28 58.5 71v116l-46 -14q-93 -24 -133 -49t-40 -70q0 -37 21.5 -59.5t57.5 -22.5q48 0 81.5 28zM270 663q21 -20 21 -53t-21 -53t-54 -20t-53.5 20t-20.5 53t20.5 53t53.5 20t54 -20zM254 571.5
q14 14.5 14 38.5t-14 38.5t-37 14.5q-24 0 -38 -14.5t-14 -38.5t14 -38.5t38 -14.5q23 0 37 14.5z" />
    <glyph glyph-name="ae" unicode="&#xe6;" horiz-adv-x="711" 
d="M678 200q-2 -100 -48.5 -157.5t-129.5 -57.5q-56 0 -102.5 30t-70.5 87q-35 -51 -80.5 -84t-97.5 -33q-48 0 -77 31.5t-29 78.5q0 54 48.5 85t159.5 56l54 12l1 79q0 63 -24.5 90.5t-72.5 27.5q-52 0 -80 -37t-24 -109l-49 1q9 80 56 126t113 46q104 0 122 -93
q28 45 69.5 69t87.5 24q76 0 122.5 -50.5t46.5 -147.5l-7 -8l-312 4q-2 -22 -2 -35q0 -97 44 -155.5t118 -58.5q69 0 108.5 47.5t44.5 131.5h11zM405 407q-40 -44 -50 -121l268 3q1 4 1 18q0 30 -10.5 62.5t-38 57t-74.5 24.5q-56 0 -96 -44zM320 118q-15 44 -15 100v14
l-46 -13q-94 -24 -133.5 -48t-39.5 -67q0 -36 22 -58t58 -22q82 0 154 94z" />
    <glyph glyph-name="ccedilla" unicode="&#xe7;" horiz-adv-x="442" 
d="M222 -15l-15 -32q33 -5 53 -19t20 -37q0 -31 -30.5 -52.5t-95.5 -29.5l-1 11q49 9 70 22t21 34q0 33 -71 39l-3 7l36 59q-74 9 -121.5 70t-47.5 161q0 80 30 137.5t79.5 87t106.5 29.5q78 0 137 -39l-38 -117l-7 1q4 73 -20.5 103.5t-77.5 30.5q-46 0 -83 -25.5
t-58.5 -74.5t-21.5 -118q0 -95 43 -153.5t118 -58.5q68 0 109 47.5t47 131.5h10q-3 -101 -49.5 -158t-130.5 -57h-9z" />
    <glyph glyph-name="egrave" unicode="&#xe8;" horiz-adv-x="444" 
d="M411 200q-3 -100 -49.5 -157.5t-129.5 -57.5q-53 0 -97.5 26.5t-71 79t-26.5 127.5q0 79 28 136.5t74 87.5t97 30q76 0 122.5 -50.5t46.5 -147.5l-7 -8l-312 4q-2 -22 -2 -35q0 -97 44 -155.5t118 -58.5q69 0 108.5 47.5t44.5 131.5h12zM137 407q-40 -44 -50 -121l268 3
q1 4 1 18q0 30 -10.5 62.5t-38 57t-74.5 24.5q-56 0 -96 -44zM212 692l76 -156l-11 -3l-118 151v6z" />
    <glyph glyph-name="eacute" unicode="&#xe9;" horiz-adv-x="444" 
d="M411 200q-3 -100 -49.5 -157.5t-129.5 -57.5q-53 0 -97.5 26.5t-71 79t-26.5 127.5q0 79 28 136.5t74 87.5t97 30q76 0 122.5 -50.5t46.5 -147.5l-7 -8l-312 4q-2 -22 -2 -35q0 -97 44 -155.5t118 -58.5q69 0 108.5 47.5t44.5 131.5h12zM137 407q-40 -44 -50 -121l268 3
q1 4 1 18q0 30 -10.5 62.5t-38 57t-74.5 24.5q-56 0 -96 -44zM330 684l-118 -151l-11 3l76 156l53 -2v-6z" />
    <glyph glyph-name="ecircumflex" unicode="&#xea;" horiz-adv-x="444" 
d="M411 200q-3 -100 -49.5 -157.5t-129.5 -57.5q-53 0 -97.5 26.5t-71 79t-26.5 127.5q0 79 28 136.5t74 87.5t97 30q76 0 122.5 -50.5t46.5 -147.5l-7 -8l-312 4q-2 -22 -2 -35q0 -97 44 -155.5t118 -58.5q69 0 108.5 47.5t44.5 131.5h12zM137 407q-40 -44 -50 -121l268 3
q1 4 1 18q0 30 -10.5 62.5t-38 57t-74.5 24.5q-56 0 -96 -44zM241 681h16q57 -65 115 -142l-9 -8q-64 62 -114 104q-44 -37 -115 -104l-9 8q72 93 116 142z" />
    <glyph glyph-name="edieresis" unicode="&#xeb;" horiz-adv-x="444" 
d="M411 200q-3 -100 -49.5 -157.5t-129.5 -57.5q-53 0 -97.5 26.5t-71 79t-26.5 127.5q0 79 28 136.5t74 87.5t97 30q76 0 122.5 -50.5t46.5 -147.5l-7 -8l-312 4q-2 -22 -2 -35q0 -97 44 -155.5t118 -58.5q69 0 108.5 47.5t44.5 131.5h12zM137 407q-40 -44 -50 -121l268 3
q1 4 1 18q0 30 -10.5 62.5t-38 57t-74.5 24.5q-56 0 -96 -44zM150 560q-9 8 -9 23t9 23t25 8q15 0 24 -8t9 -23t-9 -23t-24 -8q-16 0 -25 8zM295 560q-9 8 -9 23t9 23t25 8q15 0 24 -8t9 -23t-9 -23t-24 -8q-16 0 -25 8z" />
    <glyph glyph-name="igrave" unicode="&#xec;" horiz-adv-x="264" 
d="M109 396.5q-2 12.5 -7.5 16.5t-19.5 5l-46 1v10l114 35l6 -1q-1 -31 -1 -111v-261q0 -33 2 -47.5t7 -19t16 -6.5l59 -7v-11h-214v11l59 7q11 2 16 6.5t7.5 19t2.5 47.5l1 261q0 32 -2 44.5zM101 692l76 -156l-11 -3l-118 151v6z" />
    <glyph glyph-name="iacute" unicode="&#xed;" horiz-adv-x="264" 
d="M109 396.5q-2 12.5 -7.5 16.5t-19.5 5l-46 1v10l114 35l6 -1q-1 -31 -1 -111v-261q0 -33 2 -47.5t7 -19t16 -6.5l59 -7v-11h-214v11l59 7q11 2 16 6.5t7.5 19t2.5 47.5l1 261q0 32 -2 44.5zM219 684l-118 -151l-11 3l76 156l53 -2v-6z" />
    <glyph glyph-name="icircumflex" unicode="&#xee;" horiz-adv-x="264" 
d="M109 396.5q-2 12.5 -7.5 16.5t-19.5 5l-46 1v10l114 35l6 -1q-1 -31 -1 -111v-261q0 -33 2 -47.5t7 -19t16 -6.5l59 -7v-11h-214v11l59 7q11 2 16 6.5t7.5 19t2.5 47.5l1 261q0 32 -2 44.5zM129 681h16q57 -65 115 -142l-9 -8q-64 62 -114 104q-44 -37 -115 -104l-9 8
q72 93 116 142z" />
    <glyph glyph-name="idieresis" unicode="&#xef;" horiz-adv-x="264" 
d="M109 396.5q-2 12.5 -7.5 16.5t-19.5 5l-46 1v10l114 35l6 -1q-1 -31 -1 -111v-261q0 -33 2 -47.5t7 -19t16 -6.5l59 -7v-11h-214v11l59 7q11 2 16 6.5t7.5 19t2.5 47.5l1 261q0 32 -2 44.5zM38 560q-9 8 -9 23t9 23t25 8q15 0 24 -8t9 -23t-9 -23t-24 -8q-16 0 -25 8z
M183 560q-9 8 -9 23t9 23t25 8q15 0 24 -8t9 -23t-9 -23t-24 -8q-16 0 -25 8z" />
    <glyph glyph-name="eth" unicode="&#xf0;" horiz-adv-x="484" 
d="M385.5 475.5q60.5 -109.5 60.5 -232.5q0 -122 -53 -190t-157 -68q-59 0 -103.5 28.5t-68 79.5t-23.5 116q0 59 21 107.5t61.5 77t95.5 28.5q88 0 162 -67l2 1q-49 171 -179 282l-63 -71l-14 11l63 71q-63 51 -138 83l4 11q82 -24 152 -73l56 63l13 -12l-54 -61
q102 -75 162.5 -184.5zM356.5 66q37.5 59 37.5 178q0 45 -6 87q-26 24 -64 42.5t-80 18.5q-75 0 -115.5 -53.5t-40.5 -140.5q0 -88 42 -139.5t111 -51.5q78 0 115.5 59z" />
    <glyph glyph-name="ntilde" unicode="&#xf1;" horiz-adv-x="552" 
d="M157 43.5q2 -14.5 7 -19t16 -6.5l59 -7v-11h-214v11l59 7q11 2 16 6.5t7.5 19t2.5 47.5l1 261q0 32 -1.5 44t-7 16t-20.5 5l-48 2v10l114 35l7 -2v-73h4q91 83 177 83q111 0 111 -135l-1 -246q0 -33 2.5 -47.5t7.5 -19t16 -6.5l59 -7v-11h-214v11l59 7q11 2 16 6.5
t7.5 19t2.5 47.5l1 233q0 58 -22 83.5t-69 25.5q-42 0 -83 -18.5t-73 -46.5l-1 -277q0 -33 2 -47.5zM198.5 604.5q13.5 21.5 37.5 21.5q14 0 26 -5t32 -16q11 -6 23.5 -11.5t22.5 -5.5q31 0 39 49l11 -2q-2 -39 -15.5 -60.5t-37.5 -21.5t-58 20q-16 9 -25.5 13t-20.5 4
q-31 0 -39 -48l-11 2q2 39 15.5 60.5z" />
    <glyph glyph-name="ograve" unicode="&#xf2;" horiz-adv-x="483" 
d="M91 49.5q-54 63.5 -54 171.5q0 73 26.5 130t74 89t108.5 32q92 0 146 -64t54 -171q0 -74 -26.5 -131t-74 -88.5t-107.5 -31.5q-93 0 -147 63.5zM356 66.5q40 59.5 40 153.5q0 104 -42 167.5t-115 63.5q-71 0 -111.5 -59.5t-40.5 -154.5q0 -103 42.5 -166.5t115.5 -63.5
q71 0 111 59.5zM212 692l76 -156l-11 -3l-118 151v6z" />
    <glyph glyph-name="oacute" unicode="&#xf3;" horiz-adv-x="483" 
d="M91 49.5q-54 63.5 -54 171.5q0 73 26.5 130t74 89t108.5 32q92 0 146 -64t54 -171q0 -74 -26.5 -131t-74 -88.5t-107.5 -31.5q-93 0 -147 63.5zM356 66.5q40 59.5 40 153.5q0 104 -42 167.5t-115 63.5q-71 0 -111.5 -59.5t-40.5 -154.5q0 -103 42.5 -166.5t115.5 -63.5
q71 0 111 59.5zM329 684l-118 -151l-11 3l76 156l53 -2v-6z" />
    <glyph glyph-name="ocircumflex" unicode="&#xf4;" horiz-adv-x="483" 
d="M91 49.5q-54 63.5 -54 171.5q0 73 26.5 130t74 89t108.5 32q92 0 146 -64t54 -171q0 -74 -26.5 -131t-74 -88.5t-107.5 -31.5q-93 0 -147 63.5zM356 66.5q40 59.5 40 153.5q0 104 -42 167.5t-115 63.5q-71 0 -111.5 -59.5t-40.5 -154.5q0 -103 42.5 -166.5t115.5 -63.5
q71 0 111 59.5zM240 681h16q57 -65 115 -142l-9 -8q-64 62 -114 104q-44 -37 -115 -104l-9 8q72 93 116 142z" />
    <glyph glyph-name="otilde" unicode="&#xf5;" horiz-adv-x="483" 
d="M91 49.5q-54 63.5 -54 171.5q0 73 26.5 130t74 89t108.5 32q92 0 146 -64t54 -171q0 -74 -26.5 -131t-74 -88.5t-107.5 -31.5q-93 0 -147 63.5zM356 66.5q40 59.5 40 153.5q0 104 -42 167.5t-115 63.5q-71 0 -111.5 -59.5t-40.5 -154.5q0 -103 42.5 -166.5t115.5 -63.5
q71 0 111 59.5zM159.5 604.5q13.5 21.5 37.5 21.5q14 0 26 -5t32 -16q11 -6 23.5 -11.5t22.5 -5.5q31 0 39 49l11 -2q-2 -39 -15.5 -60.5t-37.5 -21.5t-58 20q-16 9 -25.5 13t-20.5 4q-31 0 -39 -48l-11 2q2 39 15.5 60.5z" />
    <glyph glyph-name="odieresis" unicode="&#xf6;" horiz-adv-x="483" 
d="M91 49.5q-54 63.5 -54 171.5q0 73 26.5 130t74 89t108.5 32q92 0 146 -64t54 -171q0 -74 -26.5 -131t-74 -88.5t-107.5 -31.5q-93 0 -147 63.5zM356 66.5q40 59.5 40 153.5q0 104 -42 167.5t-115 63.5q-71 0 -111.5 -59.5t-40.5 -154.5q0 -103 42.5 -166.5t115.5 -63.5
q71 0 111 59.5zM149 560q-9 8 -9 23t9 23t25 8q15 0 24 -8t9 -23t-9 -23t-24 -8q-16 0 -25 8zM294 560q-9 8 -9 23t9 23t25 8q15 0 24 -8t9 -23t-9 -23t-24 -8q-16 0 -25 8z" />
    <glyph glyph-name="divide" unicode="&#xf7;" horiz-adv-x="332" 
d="M295 271v-19h-258v19h258zM126.5 351q-12.5 11 -12.5 27q0 15 13 26t30 11t29 -11t12 -26q0 -16 -12 -27t-29 -11q-18 0 -30.5 11zM126.5 123q-12.5 11 -12.5 27q0 15 13 26t30 11t29 -11t12 -26q0 -16 -12 -27t-29 -11q-18 0 -30.5 11z" />
    <glyph glyph-name="oslash" unicode="&#xf8;" horiz-adv-x="483" 
d="M393 407q53 -64 53 -170q0 -74 -26.5 -131t-74 -88.5t-107.5 -31.5q-83 0 -136 53l-65 -82l-13 12l65 83q-52 65 -52 169q0 73 26.5 130t74 89t108.5 32q81 0 135 -52l64 81l13 -12zM119 89l236 298q-21 31 -50.5 47.5t-65.5 16.5q-71 0 -111.5 -59.5t-40.5 -154.5
q0 -89 32 -148zM364 370l-236 -298q21 -31 50.5 -48t66.5 -17q71 0 111 59.5t40 153.5q0 91 -32 150z" />
    <glyph glyph-name="ugrave" unicode="&#xf9;" horiz-adv-x="525" 
d="M118.5 20q-25.5 35 -24.5 101l1 231q0 32 -2 44.5t-7.5 16.5t-19.5 5l-46 1v10l115 35l5 -1l-1 -111v-218q0 -57 19.5 -83.5t71.5 -26.5q38 0 78 18.5t71 46.5l1 263q0 32 -2 44.5t-7.5 16.5t-20.5 5l-46 1v10l115 35l5 -1v-111l-1 -249q0 -29 2 -41.5t8 -17t20 -5.5
l48 -1v-11l-111 -34l-10 1v74h-3q-41 -38 -84.5 -60.5t-83.5 -22.5q-65 0 -90.5 35zM223 692l76 -156l-11 -3l-118 151v6z" />
    <glyph glyph-name="uacute" unicode="&#xfa;" horiz-adv-x="525" 
d="M118.5 20q-25.5 35 -24.5 101l1 231q0 32 -2 44.5t-7.5 16.5t-19.5 5l-46 1v10l115 35l5 -1l-1 -111v-218q0 -57 19.5 -83.5t71.5 -26.5q38 0 78 18.5t71 46.5l1 263q0 32 -2 44.5t-7.5 16.5t-20.5 5l-46 1v10l115 35l5 -1v-111l-1 -249q0 -29 2 -41.5t8 -17t20 -5.5
l48 -1v-11l-111 -34l-10 1v74h-3q-41 -38 -84.5 -60.5t-83.5 -22.5q-65 0 -90.5 35zM341 684l-118 -151l-11 3l76 156l53 -2v-6z" />
    <glyph glyph-name="ucircumflex" unicode="&#xfb;" horiz-adv-x="525" 
d="M118.5 20q-25.5 35 -24.5 101l1 231q0 32 -2 44.5t-7.5 16.5t-19.5 5l-46 1v10l115 35l5 -1l-1 -111v-218q0 -57 19.5 -83.5t71.5 -26.5q38 0 78 18.5t71 46.5l1 263q0 32 -2 44.5t-7.5 16.5t-20.5 5l-46 1v10l115 35l5 -1v-111l-1 -249q0 -29 2 -41.5t8 -17t20 -5.5
l48 -1v-11l-111 -34l-10 1v74h-3q-41 -38 -84.5 -60.5t-83.5 -22.5q-65 0 -90.5 35zM252 681h16q57 -65 115 -142l-9 -8q-64 62 -114 104q-44 -37 -115 -104l-9 8q72 93 116 142z" />
    <glyph glyph-name="udieresis" unicode="&#xfc;" horiz-adv-x="525" 
d="M118.5 20q-25.5 35 -24.5 101l1 231q0 32 -2 44.5t-7.5 16.5t-19.5 5l-46 1v10l115 35l5 -1l-1 -111v-218q0 -57 19.5 -83.5t71.5 -26.5q38 0 78 18.5t71 46.5l1 263q0 32 -2 44.5t-7.5 16.5t-20.5 5l-46 1v10l115 35l5 -1v-111l-1 -249q0 -29 2 -41.5t8 -17t20 -5.5
l48 -1v-11l-111 -34l-10 1v74h-3q-41 -38 -84.5 -60.5t-83.5 -22.5q-65 0 -90.5 35zM160 560q-9 8 -9 23t9 23t25 8q15 0 24 -8t9 -23t-9 -23t-24 -8q-16 0 -25 8zM305 560q-9 8 -9 23t9 23t25 8q15 0 24 -8t9 -23t-9 -23t-24 -8q-16 0 -25 8z" />
    <glyph glyph-name="yacute" unicode="&#xfd;" horiz-adv-x="456" 
d="M451 457v-9q-29 -8 -39 -18t-20 -34l-152 -379q-29 -70 -56.5 -113t-67 -67t-96.5 -25l-8 56l2 1q11 -2 34 -2q53 0 94.5 29t70.5 101l-158 415q-7 18 -16 25t-35 11v9h190v-10l-68 -6q-15 -2 -21 -6t-6 -11q0 -5 3 -13l135 -361l125 334q7 18 7 31t-7.5 19.5t-22.5 8.5
l-67 4v10h179zM321 684l-118 -151l-11 3l76 156l53 -2v-6z" />
    <glyph glyph-name="thorn" unicode="&#xfe;" horiz-adv-x="513" 
d="M152 -130q3 -16 10 -21.5t24 -8.5l111 -7v-11h-277v11l58 7q12 2 17 7t7.5 21.5t2.5 54.5v694q0 32 -2 45t-7.5 16.5t-20.5 4.5l-46 1v11l115 35l5 -1v-112v-222h4q36 35 77.5 56t80.5 21q74 0 119.5 -59.5t45.5 -164.5q0 -77 -26.5 -137t-72.5 -93t-103 -33
q-36 0 -69.5 13t-55.5 33v-108q0 -37 3 -53zM354.5 32q33.5 25 54 74.5t20.5 119.5q0 104 -39 158t-104 54q-63 0 -137 -64v-268q7 -40 44 -69.5t87 -29.5q41 0 74.5 25z" />
    <glyph glyph-name="ydieresis" unicode="&#xff;" horiz-adv-x="456" 
d="M451 457v-9q-29 -8 -39 -18t-20 -34l-152 -379q-29 -70 -56.5 -113t-67 -67t-96.5 -25l-8 56l2 1q11 -2 34 -2q53 0 94.5 29t70.5 101l-158 415q-7 18 -16 25t-35 11v9h190v-10l-68 -6q-15 -2 -21 -6t-6 -11q0 -5 3 -13l135 -361l125 334q7 18 7 31t-7.5 19.5t-22.5 8.5
l-67 4v10h179zM140 560q-9 8 -9 23t9 23t25 8q15 0 24 -8t9 -23t-9 -23t-24 -8q-16 0 -25 8zM285 560q-9 8 -9 23t9 23t25 8q15 0 24 -8t9 -23t-9 -23t-24 -8q-16 0 -25 8z" />
    <glyph glyph-name="Amacron" unicode="&#x100;" horiz-adv-x="654" 
d="M589 39.5q7 -11.5 19.5 -17.5t39.5 -12v-10h-254v10l114 9q13 1 18.5 4.5t5.5 12.5t-6 25l-77 210q-160 2 -266 2l-54 -150q-24 -63 -24 -81q0 -11 6 -16t21 -7l113 -9v-10h-239v10q32 7 46 16.5t28 35.5t39 91l186 511l-16 42v6h57q5 -35 36 -123l191 -514
q9 -24 16 -35.5zM264 291q124 0 178 1l-127 347l-126 -348h75zM211 799v21h227l-1 -21h-226z" />
    <glyph glyph-name="amacron" unicode="&#x101;" horiz-adv-x="464" 
d="M72 16.5q-29 31.5 -29 77.5q0 60 49 93.5t159 56.5l53 11l1 72q0 119 -96 119q-57 0 -85.5 -38t-24.5 -115h-50q9 85 56.5 132t120.5 47q60 0 91.5 -34.5t31.5 -98.5v-36l-2 -192q0 -87 42 -87q30 0 42 28.5t14 98.5h10q2 -84 -16 -123.5t-63 -39.5q-33 0 -51.5 26
t-18.5 81h-4q-64 -110 -153 -110q-48 0 -77 31.5zM246.5 52q33.5 28 58.5 71v116l-46 -14q-93 -24 -133 -49t-40 -70q0 -37 21.5 -59.5t57.5 -22.5q48 0 81.5 28zM318 553h-206v21h206v-21z" />
    <glyph glyph-name="Abreve" unicode="&#x102;" horiz-adv-x="654" 
d="M589 39.5q7 -11.5 19.5 -17.5t39.5 -12v-10h-254v10l114 9q13 1 18.5 4.5t5.5 12.5t-6 25l-77 210q-160 2 -266 2l-54 -150q-24 -63 -24 -81q0 -11 6 -16t21 -7l113 -9v-10h-239v10q32 7 46 16.5t28 35.5t39 91l186 511l-16 42v6h57q5 -35 36 -123l191 -514
q9 -24 16 -35.5zM264 291q124 0 178 1l-127 347l-126 -348h75zM247.5 812.5q-28.5 28.5 -24.5 75.5l13 3q1 -31 24 -49.5t64 -18.5q42 0 65 18.5t23 49.5l13 -3q4 -47 -24 -75.5t-77 -28.5q-48 0 -76.5 28.5z" />
    <glyph glyph-name="abreve" unicode="&#x103;" horiz-adv-x="464" 
d="M72 16.5q-29 31.5 -29 77.5q0 60 49 93.5t159 56.5l53 11l1 72q0 119 -96 119q-57 0 -85.5 -38t-24.5 -115h-50q9 85 56.5 132t120.5 47q60 0 91.5 -34.5t31.5 -98.5v-36l-2 -192q0 -87 42 -87q30 0 42 28.5t14 98.5h10q2 -84 -16 -123.5t-63 -39.5q-33 0 -51.5 26
t-18.5 81h-4q-64 -110 -153 -110q-48 0 -77 31.5zM246.5 52q33.5 28 58.5 71v116l-46 -14q-93 -24 -133 -49t-40 -70q0 -37 21.5 -59.5t57.5 -22.5q48 0 81.5 28zM149.5 571.5q-27.5 32.5 -26.5 97.5l12 4q3 -49 26 -72t65 -23q44 0 66.5 23t25.5 72l12 -4q2 -65 -26 -97.5
t-78 -32.5q-49 0 -76.5 32.5z" />
    <glyph glyph-name="Aogonek" unicode="&#x104;" horiz-adv-x="654" 
d="M672 -135q-34 -39 -88 -39q-35 0 -58 18.5t-23 49.5q0 34 32.5 61.5t83.5 44.5h-225v10l114 9q13 1 18.5 4.5t5.5 12.5t-6 25l-77 210q-160 2 -266 2l-54 -150q-24 -63 -24 -81q0 -11 6 -16t21 -7l113 -9v-10h-239v10q32 7 46 16.5t28 35.5t39 91l186 511l-16 42v6h57
q5 -35 36 -123l191 -514q9 -24 16 -35.5t19.5 -17.5t39.5 -12v-10h-1q-100 -41 -100 -100q0 -24 14.5 -36.5t38.5 -12.5q21 0 36 6t31 17zM264 291q124 0 178 1l-127 347l-126 -348h75z" />
    <glyph glyph-name="aogonek" unicode="&#x105;" horiz-adv-x="464" 
d="M402 -145q15 6 31 17l5 -9q-34 -39 -88 -39q-35 0 -58 18.5t-23 49.5q0 29 25.5 54.5t67.5 42.5q-56 12 -56 106h-4q-64 -110 -153 -110q-48 0 -77 31.5t-29 77.5q0 60 49 93.5t159 56.5l53 11l1 72q0 119 -96 119q-57 0 -85.5 -38t-24.5 -115h-50q9 85 56.5 132
t120.5 47q60 0 91.5 -34.5t31.5 -98.5v-36l-2 -192q0 -87 42 -87q30 0 42 28.5t14 98.5h10q2 -75 -12 -114t-48 -47q-82 -38 -82 -92q0 -24 14.5 -36.5t38.5 -12.5q21 0 36 6zM305 239l-46 -14q-93 -24 -133 -49t-40 -70q0 -37 21.5 -59.5t57.5 -22.5q48 0 81.5 28t58.5 71
v116z" />
    <glyph glyph-name="Cacute" unicode="&#x106;" horiz-adv-x="640" 
d="M183 29.5q-69 44.5 -107.5 125.5t-38.5 188t41 192t116.5 133t174.5 48q64 0 114 -16.5t81 -40.5l-49 -164h-7q3 29 3 51q0 83 -37.5 114.5t-114.5 31.5q-84 0 -145 -42t-93 -116.5t-32 -168.5q0 -103 33.5 -179.5t94 -117.5t138.5 -41q108 0 169 69t69 178h11
q-1 -80 -29.5 -145.5t-87 -104.5t-146.5 -39q-89 0 -158 44.5zM457 855l-174 -73l-6 7l146 106l34 -34v-6z" />
    <glyph glyph-name="cacute" unicode="&#x107;" horiz-adv-x="442" 
d="M133 12.5q-44 27.5 -70 80t-26 125.5q0 80 30 137.5t79.5 87t106.5 29.5q78 0 137 -39l-38 -117l-7 1q4 73 -20.5 103.5t-77.5 30.5q-46 0 -83 -25.5t-58.5 -74.5t-21.5 -118q0 -95 43 -153.5t118 -58.5q68 0 109 47.5t47 131.5h10q-3 -101 -49.5 -158t-130.5 -57
q-54 0 -98 27.5zM335 684l-118 -151l-11 3l76 156l53 -2v-6z" />
    <glyph glyph-name="Ccircumflex" unicode="&#x108;" horiz-adv-x="640" 
d="M183 29.5q-69 44.5 -107.5 125.5t-38.5 188t41 192t116.5 133t174.5 48q64 0 114 -16.5t81 -40.5l-49 -164h-7q3 29 3 51q0 83 -37.5 114.5t-114.5 31.5q-84 0 -145 -42t-93 -116.5t-32 -168.5q0 -103 33.5 -179.5t94 -117.5t138.5 -41q108 0 169 69t69 178h11
q-1 -80 -29.5 -145.5t-87 -104.5t-146.5 -39q-89 0 -158 44.5zM354 897h17l114 -110l-8 -8q-52 35 -115 73q-76 -48 -114 -73l-8 8z" />
    <glyph glyph-name="ccircumflex" unicode="&#x109;" horiz-adv-x="442" 
d="M133 12.5q-44 27.5 -70 80t-26 125.5q0 80 30 137.5t79.5 87t106.5 29.5q78 0 137 -39l-38 -117l-7 1q4 73 -20.5 103.5t-77.5 30.5q-46 0 -83 -25.5t-58.5 -74.5t-21.5 -118q0 -95 43 -153.5t118 -58.5q68 0 109 47.5t47 131.5h10q-3 -101 -49.5 -158t-130.5 -57
q-54 0 -98 27.5zM246 681h16q57 -65 115 -142l-9 -8q-64 62 -114 104q-44 -37 -115 -104l-9 8q72 93 116 142z" />
    <glyph glyph-name="Cdotaccent" unicode="&#x10a;" horiz-adv-x="640" 
d="M183 29.5q-69 44.5 -107.5 125.5t-38.5 188t41 192t116.5 133t174.5 48q64 0 114 -16.5t81 -40.5l-49 -164h-7q3 29 3 51q0 83 -37.5 114.5t-114.5 31.5q-84 0 -145 -42t-93 -116.5t-32 -168.5q0 -103 33.5 -179.5t94 -117.5t138.5 -41q108 0 169 69t69 178h11
q-1 -80 -29.5 -145.5t-87 -104.5t-146.5 -39q-89 0 -158 44.5zM331.5 806.5q-11.5 10.5 -11.5 29.5t11.5 29t30.5 10t30 -10t11 -29t-11 -29.5t-30 -10.5t-30.5 10.5z" />
    <glyph glyph-name="cdotaccent" unicode="&#x10b;" horiz-adv-x="442" 
d="M133 12.5q-44 27.5 -70 80t-26 125.5q0 80 30 137.5t79.5 87t106.5 29.5q78 0 137 -39l-38 -117l-7 1q4 73 -20.5 103.5t-77.5 30.5q-46 0 -83 -25.5t-58.5 -74.5t-21.5 -118q0 -95 43 -153.5t118 -58.5q68 0 109 47.5t47 131.5h10q-3 -101 -49.5 -158t-130.5 -57
q-54 0 -98 27.5zM222.5 563.5q-11.5 10.5 -11.5 29.5t11.5 29t30.5 10t30 -10t11 -29t-11 -29.5t-30 -10.5t-30.5 10.5z" />
    <glyph glyph-name="Ccaron" unicode="&#x10c;" horiz-adv-x="640" 
d="M183 29.5q-69 44.5 -107.5 125.5t-38.5 188t41 192t116.5 133t174.5 48q64 0 114 -16.5t81 -40.5l-49 -164h-7q3 29 3 51q0 83 -37.5 114.5t-114.5 31.5q-84 0 -145 -42t-93 -116.5t-32 -168.5q0 -103 33.5 -179.5t94 -117.5t138.5 -41q108 0 169 69t69 178h11
q-1 -80 -29.5 -145.5t-87 -104.5t-146.5 -39q-89 0 -158 44.5zM362 826l115 74l8 -9l-114 -110h-17l-114 110l8 9z" />
    <glyph glyph-name="ccaron" unicode="&#x10d;" horiz-adv-x="442" 
d="M133 12.5q-44 27.5 -70 80t-26 125.5q0 80 30 137.5t79.5 87t106.5 29.5q78 0 137 -39l-38 -117l-7 1q4 73 -20.5 103.5t-77.5 30.5q-46 0 -83 -25.5t-58.5 -74.5t-21.5 -118q0 -95 43 -153.5t118 -58.5q68 0 109 47.5t47 131.5h10q-3 -101 -49.5 -158t-130.5 -57
q-54 0 -98 27.5zM254 578q43 36 114 105l9 -9q-69 -90 -115 -141h-16q-31 33 -60.5 71t-36.5 46t-19 24l9 9q79 -75 115 -105z" />
    <glyph glyph-name="Dcaron" unicode="&#x10e;" horiz-adv-x="690" 
d="M23 10l82 9q13 2 18.5 9.5t8 34.5t2.5 90v394q0 63 -2.5 90t-8 34.5t-18.5 9.5l-82 9v10h268q111 0 192.5 -42t125.5 -120t44 -184q0 -108 -44 -188t-127 -123t-195 -43h-264v10zM516 102.5q81 83.5 81 237.5q0 100 -36 177t-107.5 120.5t-174.5 43.5q-60 0 -90 -3
q-7 -21 -7 -212v-239q0 -99 3 -140.5t12 -54.5t31 -13h60q147 0 228 83.5zM301 826l115 74l8 -9l-114 -110h-17l-114 110l8 9z" />
    <glyph glyph-name="dcaron" unicode="&#x10f;" horiz-adv-x="576" 
d="M82 45.5q-45 60.5 -45 164.5q0 78 26.5 137t72.5 91.5t103 32.5q36 0 70 -13t55 -28v187q0 32 -2 45t-7.5 16.5t-20.5 4.5l-46 1v11l115 35l5 -1v-112v-503q0 -34 2 -49.5t7.5 -20.5t18.5 -6l51 -2v-10l-112 -33l-10 1v68h-4q-38 -35 -78.5 -56t-79.5 -21
q-76 0 -121 60.5zM363 83l1 270q-2 24 -20 46.5t-47.5 36t-64.5 13.5q-40 0 -73.5 -24.5t-54.5 -73.5t-21 -120q0 -109 40.5 -160.5t100.5 -51.5q67 0 139 64zM539 476h-13l-6 247h50z" />
    <glyph glyph-name="Dcroat" unicode="&#x110;" horiz-adv-x="690" 
d="M483.5 658q81.5 -42 125.5 -120t44 -184q0 -108 -44 -188t-127 -123t-195 -43h-264v10l82 9q13 2 18.5 9.5t8 34.5t2.5 90v188h-108v18h108v188q0 63 -2.5 90t-8 34.5t-18.5 9.5l-82 9v10h268q111 0 192.5 -42zM516 102.5q81 83.5 81 237.5q0 100 -36 177t-107.5 120.5
t-174.5 43.5q-60 0 -90 -3q-7 -21 -7 -212v-107h120v-18h-120v-114q0 -99 3 -140.5t12 -54.5t31 -13h60q147 0 228 83.5z" />
    <glyph glyph-name="dcroat" unicode="&#x111;" horiz-adv-x="511" 
d="M487 36v-10l-112 -33l-10 1v68h-4q-38 -35 -78.5 -56t-79.5 -21q-76 0 -121 60.5t-45 164.5q0 78 26.5 137t72.5 91.5t103 32.5q36 0 70 -13t55 -28v145h-150v18h150v24q0 32 -2 45t-7.5 16.5t-20.5 4.5l-46 1v11l115 35l5 -1v-112v-24h76v-18h-76v-461q0 -34 2 -49.5
t7.5 -20.5t18.5 -6zM364 353q-2 24 -20 46.5t-47.5 36t-64.5 13.5q-40 0 -73.5 -24.5t-54.5 -73.5t-21 -120q0 -109 40.5 -160.5t100.5 -51.5q67 0 139 64z" />
    <glyph glyph-name="Emacron" unicode="&#x112;" horiz-adv-x="608" 
d="M576 265l-20 -268h-1q-24 3 -81 3h-451v10l82 9q13 2 18.5 9.5t8 34.5t2.5 90v394q0 63 -2.5 90t-8 34.5t-18.5 9.5l-82 9v10h404q53 0 87 6l-1 -251h-10q-11 110 -19.5 154t-20.5 56t-40 14l-235 4q-6 -22 -6 -216v-92l248 6v-29l-248 7v-134q0 -99 3.5 -141t12 -54.5
t29.5 -11.5l243 2q25 2 38 17t25.5 65t31.5 163h11zM208 799v21h227l-1 -21h-226z" />
    <glyph glyph-name="emacron" unicode="&#x113;" horiz-adv-x="444" 
d="M411 200q-3 -100 -49.5 -157.5t-129.5 -57.5q-53 0 -97.5 26.5t-71 79t-26.5 127.5q0 79 28 136.5t74 87.5t97 30q76 0 122.5 -50.5t46.5 -147.5l-7 -8l-312 4q-2 -22 -2 -35q0 -97 44 -155.5t118 -58.5q69 0 108.5 47.5t44.5 131.5h12zM137 407q-40 -44 -50 -121l268 3
q1 4 1 18q0 30 -10.5 62.5t-38 57t-74.5 24.5q-56 0 -96 -44zM351 553h-206v21h206v-21z" />
    <glyph glyph-name="Ebreve" unicode="&#x114;" horiz-adv-x="608" 
d="M576 265l-20 -268h-1q-24 3 -81 3h-451v10l82 9q13 2 18.5 9.5t8 34.5t2.5 90v394q0 63 -2.5 90t-8 34.5t-18.5 9.5l-82 9v10h404q53 0 87 6l-1 -251h-10q-11 110 -19.5 154t-20.5 56t-40 14l-235 4q-6 -22 -6 -216v-92l248 6v-29l-248 7v-134q0 -99 3.5 -141t12 -54.5
t29.5 -11.5l243 2q25 2 38 17t25.5 65t31.5 163h11zM244.5 812.5q-28.5 28.5 -24.5 75.5l13 3q1 -31 24 -49.5t64 -18.5q42 0 65 18.5t23 49.5l13 -3q4 -47 -24 -75.5t-77 -28.5q-48 0 -76.5 28.5z" />
    <glyph glyph-name="ebreve" unicode="&#x115;" horiz-adv-x="444" 
d="M411 200q-3 -100 -49.5 -157.5t-129.5 -57.5q-53 0 -97.5 26.5t-71 79t-26.5 127.5q0 79 28 136.5t74 87.5t97 30q76 0 122.5 -50.5t46.5 -147.5l-7 -8l-312 4q-2 -22 -2 -35q0 -97 44 -155.5t118 -58.5q69 0 108.5 47.5t44.5 131.5h12zM137 407q-40 -44 -50 -121l268 3
q1 4 1 18q0 30 -10.5 62.5t-38 57t-74.5 24.5q-56 0 -96 -44zM171.5 571.5q-27.5 32.5 -26.5 97.5l12 4q3 -49 26 -72t65 -23q44 0 66.5 23t25.5 72l12 -4q2 -65 -26 -97.5t-78 -32.5q-49 0 -76.5 32.5z" />
    <glyph glyph-name="Edotaccent" unicode="&#x116;" horiz-adv-x="608" 
d="M576 265l-20 -268h-1q-24 3 -81 3h-451v10l82 9q13 2 18.5 9.5t8 34.5t2.5 90v394q0 63 -2.5 90t-8 34.5t-18.5 9.5l-82 9v10h404q53 0 87 6l-1 -251h-10q-11 110 -19.5 154t-20.5 56t-40 14l-235 4q-6 -22 -6 -216v-92l248 6v-29l-248 7v-134q0 -99 3.5 -141t12 -54.5
t29.5 -11.5l243 2q25 2 38 17t25.5 65t31.5 163h11zM290.5 806.5q-11.5 10.5 -11.5 29.5t11.5 29t30.5 10t30 -10t11 -29t-11 -29.5t-30 -10.5t-30.5 10.5z" />
    <glyph glyph-name="edotaccent" unicode="&#x117;" horiz-adv-x="444" 
d="M411 200q-3 -100 -49.5 -157.5t-129.5 -57.5q-53 0 -97.5 26.5t-71 79t-26.5 127.5q0 79 28 136.5t74 87.5t97 30q76 0 122.5 -50.5t46.5 -147.5l-7 -8l-312 4q-2 -22 -2 -35q0 -97 44 -155.5t118 -58.5q69 0 108.5 47.5t44.5 131.5h12zM137 407q-40 -44 -50 -121l268 3
q1 4 1 18q0 30 -10.5 62.5t-38 57t-74.5 24.5q-56 0 -96 -44zM217.5 563.5q-11.5 10.5 -11.5 29.5t11.5 29t30.5 10t30 -10t11 -29t-11 -29.5t-30 -10.5t-30.5 10.5z" />
    <glyph glyph-name="Eogonek" unicode="&#x118;" horiz-adv-x="608" 
d="M581 -138q-34 -39 -88 -39q-35 0 -58 18.5t-23 49.5q0 35 34 63t88 45q-19 1 -60 1h-451v10l82 9q13 2 18.5 9.5t8 34.5t2.5 90v394q0 63 -2.5 90t-8 34.5t-18.5 9.5l-82 9v10h404q53 0 87 6l-1 -251h-10q-11 110 -19.5 154t-20.5 56t-40 14l-235 4q-6 -22 -6 -216v-92
l248 6v-29l-248 7v-134q0 -99 3.5 -141t12 -54.5t29.5 -11.5l243 2q25 2 38 17t25.5 65t31.5 163h11l-20 -268q-100 -41 -100 -100q0 -24 14.5 -36.5t38.5 -12.5q21 0 36 6t31 17z" />
    <glyph glyph-name="eogonek" unicode="&#x119;" horiz-adv-x="444" 
d="M330 -140q15 6 31 17l5 -9q-34 -39 -88 -39q-35 0 -58 18.5t-23 49.5q0 29 23 53t63 41q-24 -6 -51 -6q-53 0 -97.5 26.5t-71 79t-26.5 127.5q0 79 28 136.5t74 87.5t97 30q76 0 122.5 -50.5t46.5 -147.5l-7 -8l-312 4q-2 -22 -2 -35q0 -97 44 -155.5t118 -58.5
q69 0 108.5 47.5t44.5 131.5h12q-2 -72 -27 -123t-71 -74q8 3 24 7l4 -7q-100 -41 -100 -100q0 -24 14.5 -36.5t38.5 -12.5q21 0 36 6zM137 407q-40 -44 -50 -121l268 3q1 4 1 18q0 30 -10.5 62.5t-38 57t-74.5 24.5q-56 0 -96 -44z" />
    <glyph glyph-name="Ecaron" unicode="&#x11a;" horiz-adv-x="608" 
d="M576 265l-20 -268h-1q-24 3 -81 3h-451v10l82 9q13 2 18.5 9.5t8 34.5t2.5 90v394q0 63 -2.5 90t-8 34.5t-18.5 9.5l-82 9v10h404q53 0 87 6l-1 -251h-10q-11 110 -19.5 154t-20.5 56t-40 14l-235 4q-6 -22 -6 -216v-92l248 6v-29l-248 7v-134q0 -99 3.5 -141t12 -54.5
t29.5 -11.5l243 2q25 2 38 17t25.5 65t31.5 163h11zM321 826l115 74l8 -9l-114 -110h-17l-114 110l8 9z" />
    <glyph glyph-name="ecaron" unicode="&#x11b;" horiz-adv-x="444" 
d="M411 200q-3 -100 -49.5 -157.5t-129.5 -57.5q-53 0 -97.5 26.5t-71 79t-26.5 127.5q0 79 28 136.5t74 87.5t97 30q76 0 122.5 -50.5t46.5 -147.5l-7 -8l-312 4q-2 -22 -2 -35q0 -97 44 -155.5t118 -58.5q69 0 108.5 47.5t44.5 131.5h12zM137 407q-40 -44 -50 -121l268 3
q1 4 1 18q0 30 -10.5 62.5t-38 57t-74.5 24.5q-56 0 -96 -44zM249 578q43 36 114 105l9 -9q-69 -90 -115 -141h-16q-31 33 -60.5 71t-36.5 46t-19 24l9 9q79 -75 115 -105z" />
    <glyph glyph-name="Gcircumflex" unicode="&#x11c;" horiz-adv-x="675" 
d="M650 325v-10q-31 -4 -43.5 -11t-16.5 -23t-4 -53v-260h-9l-30 74q-25 -22 -75.5 -39.5t-123.5 -17.5q-95 0 -165 44t-108 126t-38 193q0 107 42.5 191t119.5 130.5t175 46.5q62 0 111 -16t81 -40l-49 -165h-8q3 29 3 53q0 83 -37 113.5t-113 30.5q-82 0 -143.5 -43
t-94.5 -119t-33 -171q0 -107 32.5 -186t93 -122t143.5 -43q70 0 113.5 17t65.5 35v167q0 35 -3 49.5t-10.5 19.5t-27.5 8l-170 11v10h322zM355 897h17l114 -110l-8 -8q-52 35 -115 73q-76 -48 -114 -73l-8 8z" />
    <glyph glyph-name="gcircumflex" unicode="&#x11d;" horiz-adv-x="463" 
d="M449 458q-84 -8 -125 -11q32 -20 49 -51.5t17 -69.5q0 -48 -22 -86t-60.5 -59.5t-86.5 -21.5q-36 0 -63 10q-24 -32 -32.5 -48.5t-8.5 -29.5q0 -12 9.5 -17.5t30.5 -7t65 -1.5q72 0 116 -6.5t70.5 -27.5t26.5 -63t-34.5 -78t-94.5 -58t-134 -22q-69 0 -111 23.5t-42 63.5
q0 30 20 58.5t75 75.5q-19 5 -27.5 13.5t-8.5 22.5q0 16 15 40t53 67q-40 17 -62.5 53.5t-22.5 84.5q0 45 22 81.5t60.5 57.5t87.5 21q127 0 218 -4v-10zM315.5 215.5q31.5 36.5 31.5 97.5t-35.5 100t-92.5 39q-51 0 -82.5 -35t-31.5 -92q0 -66 35 -106t91 -40
q53 0 84.5 36.5zM352 8.5q-43 15.5 -133 15.5q-60 0 -91 4q-68 -62 -68 -111q0 -35 35.5 -59t106.5 -24q79 0 136 31t57 84q0 44 -43 59.5zM215 681h16q57 -65 115 -142l-9 -8q-64 62 -114 104q-44 -37 -115 -104l-9 8q72 93 116 142z" />
    <glyph glyph-name="Gbreve" unicode="&#x11e;" horiz-adv-x="675" 
d="M650 325v-10q-31 -4 -43.5 -11t-16.5 -23t-4 -53v-260h-9l-30 74q-25 -22 -75.5 -39.5t-123.5 -17.5q-95 0 -165 44t-108 126t-38 193q0 107 42.5 191t119.5 130.5t175 46.5q62 0 111 -16t81 -40l-49 -165h-8q3 29 3 53q0 83 -37 113.5t-113 30.5q-82 0 -143.5 -43
t-94.5 -119t-33 -171q0 -107 32.5 -186t93 -122t143.5 -43q70 0 113.5 17t65.5 35v167q0 35 -3 49.5t-10.5 19.5t-27.5 8l-170 11v10h322zM286.5 812.5q-28.5 28.5 -24.5 75.5l13 3q1 -31 24 -49.5t64 -18.5q42 0 65 18.5t23 49.5l13 -3q4 -47 -24 -75.5t-77 -28.5
q-48 0 -76.5 28.5z" />
    <glyph glyph-name="gbreve" unicode="&#x11f;" horiz-adv-x="442" 
d="M449 458q-84 -8 -125 -11q32 -20 49 -51.5t17 -69.5q0 -48 -22 -86t-60.5 -59.5t-86.5 -21.5q-36 0 -63 10q-24 -32 -32.5 -48.5t-8.5 -29.5q0 -12 9.5 -17.5t30.5 -7t65 -1.5q72 0 116 -6.5t70.5 -27.5t26.5 -63t-34.5 -78t-94.5 -58t-134 -22q-69 0 -111 23.5t-42 63.5
q0 30 20 58.5t75 75.5q-19 5 -27.5 13.5t-8.5 22.5q0 16 15 40t53 67q-40 17 -62.5 53.5t-22.5 84.5q0 45 22 81.5t60.5 57.5t87.5 21q127 0 218 -4v-10zM315.5 215.5q31.5 36.5 31.5 97.5t-35.5 100t-92.5 39q-51 0 -82.5 -35t-31.5 -92q0 -66 35 -106t91 -40
q53 0 84.5 36.5zM352 8.5q-43 15.5 -133 15.5q-60 0 -91 4q-68 -62 -68 -111q0 -35 35.5 -59t106.5 -24q79 0 136 31t57 84q0 44 -43 59.5zM135.5 571.5q-27.5 32.5 -26.5 97.5l12 4q3 -49 26 -72t65 -23q44 0 66.5 23t25.5 72l12 -4q2 -65 -26 -97.5t-78 -32.5
q-49 0 -76.5 32.5z" />
    <glyph glyph-name="Gdotaccent" unicode="&#x120;" horiz-adv-x="675" 
d="M650 325v-10q-31 -4 -43.5 -11t-16.5 -23t-4 -53v-260h-9l-30 74q-25 -22 -75.5 -39.5t-123.5 -17.5q-95 0 -165 44t-108 126t-38 193q0 107 42.5 191t119.5 130.5t175 46.5q62 0 111 -16t81 -40l-49 -165h-8q3 29 3 53q0 83 -37 113.5t-113 30.5q-82 0 -143.5 -43
t-94.5 -119t-33 -171q0 -107 32.5 -186t93 -122t143.5 -43q70 0 113.5 17t65.5 35v167q0 35 -3 49.5t-10.5 19.5t-27.5 8l-170 11v10h322zM332.5 806.5q-11.5 10.5 -11.5 29.5t11.5 29t30.5 10t30 -10t11 -29t-11 -29.5t-30 -10.5t-30.5 10.5z" />
    <glyph glyph-name="gdotaccent" unicode="&#x121;" horiz-adv-x="463" 
d="M449 458q-84 -8 -125 -11q32 -20 49 -51.5t17 -69.5q0 -48 -22 -86t-60.5 -59.5t-86.5 -21.5q-36 0 -63 10q-24 -32 -32.5 -48.5t-8.5 -29.5q0 -12 9.5 -17.5t30.5 -7t65 -1.5q72 0 116 -6.5t70.5 -27.5t26.5 -63t-34.5 -78t-94.5 -58t-134 -22q-69 0 -111 23.5t-42 63.5
q0 30 20 58.5t75 75.5q-19 5 -27.5 13.5t-8.5 22.5q0 16 15 40t53 67q-40 17 -62.5 53.5t-22.5 84.5q0 45 22 81.5t60.5 57.5t87.5 21q127 0 218 -4v-10zM315.5 215.5q31.5 36.5 31.5 97.5t-35.5 100t-92.5 39q-51 0 -82.5 -35t-31.5 -92q0 -66 35 -106t91 -40
q53 0 84.5 36.5zM352 8.5q-43 15.5 -133 15.5q-60 0 -91 4q-68 -62 -68 -111q0 -35 35.5 -59t106.5 -24q79 0 136 31t57 84q0 44 -43 59.5zM191.5 563.5q-11.5 10.5 -11.5 29.5t11.5 29t30.5 10t30 -10t11 -29t-11 -29.5t-30 -10.5t-30.5 10.5z" />
    <glyph glyph-name="uni0122" unicode="&#x122;" horiz-adv-x="675" 
d="M650 325v-10q-31 -4 -43.5 -11t-16.5 -23t-4 -53v-260h-9l-30 74q-25 -22 -75.5 -39.5t-123.5 -17.5q-95 0 -165 44t-108 126t-38 193q0 107 42.5 191t119.5 130.5t175 46.5q62 0 111 -16t81 -40l-49 -165h-8q3 29 3 53q0 83 -37 113.5t-113 30.5q-82 0 -143.5 -43
t-94.5 -119t-33 -171q0 -107 32.5 -186t93 -122t143.5 -43q70 0 113.5 17t65.5 35v167q0 35 -3 49.5t-10.5 19.5t-27.5 8l-170 11v10h322zM356.5 -42.5q8.5 10.5 22.5 10.5q15 0 22.5 -10.5t7.5 -28.5q0 -78 -81 -116l-5 8q29 17 42 38t13 41q0 28 -29 29q-1 18 7.5 28.5z
" />
    <glyph glyph-name="uni0123" unicode="&#x123;" horiz-adv-x="463" 
d="M449 458q-84 -8 -125 -11q32 -20 49 -51.5t17 -69.5q0 -48 -22 -86t-60.5 -59.5t-86.5 -21.5q-36 0 -63 10q-24 -32 -32.5 -48.5t-8.5 -29.5q0 -12 9.5 -17.5t30.5 -7t65 -1.5q72 0 116 -6.5t70.5 -27.5t26.5 -63t-34.5 -78t-94.5 -58t-134 -22q-69 0 -111 23.5t-42 63.5
q0 30 20 58.5t75 75.5q-19 5 -27.5 13.5t-8.5 22.5q0 16 15 40t53 67q-40 17 -62.5 53.5t-22.5 84.5q0 45 22 81.5t60.5 57.5t87.5 21q127 0 218 -4v-10zM315.5 215.5q31.5 36.5 31.5 97.5t-35.5 100t-92.5 39q-51 0 -82.5 -35t-31.5 -92q0 -66 35 -106t91 -40
q53 0 84.5 36.5zM352 8.5q-43 15.5 -133 15.5q-60 0 -91 4q-68 -62 -68 -111q0 -35 35.5 -59t106.5 -24q79 0 136 31t57 84q0 44 -43 59.5zM239.5 571.5q-8.5 -9.5 -22.5 -9.5q-16 0 -24 10t-8 27q0 71 84 108l6 -9q-31 -15 -44.5 -34.5t-13.5 -38.5q0 -26 31 -27
q0 -17 -8.5 -26.5z" />
    <glyph glyph-name="Hcircumflex" unicode="&#x124;" horiz-adv-x="763" 
d="M639.5 670.5q-5.5 -7.5 -8 -34t-2.5 -89.5v-394q0 -63 2.5 -89.5t8 -34t18.5 -9.5l82 -10v-10h-271v10l82 10q13 2 18.5 9.5t8 34t2.5 89.5v205q-99 1 -199 1.5t-199 0.5l1 -207q0 -63 2.5 -89.5t8 -34t18.5 -9.5l82 -10v-10h-270v10l81 10q13 2 18.5 9.5t8 34t2.5 89.5
v394q0 63 -2.5 89.5t-8 34t-19.5 9.5l-81 10v10h270v-10l-81 -10q-14 -2 -19.5 -9.5t-8 -34t-2.5 -89.5v-169q267 0 398 2v167q0 63 -2.5 89.5t-8 34t-18.5 9.5l-82 10v10h271v-10l-82 -10q-13 -2 -18.5 -9.5zM381 897h17l114 -110l-8 -8q-52 35 -115 73q-76 -48 -114 -73
l-8 8z" />
    <glyph glyph-name="hcircumflex" unicode="&#x125;" horiz-adv-x="545" 
d="M441.5 43.5q2.5 -14.5 7.5 -19t16 -6.5l59 -7v-11h-214v11l59 7q11 2 16 6.5t7.5 19t2.5 47.5l1 223q0 61 -22.5 90t-69.5 29q-42 0 -83 -18.5t-72 -46.5v-277q0 -33 2 -47.5t7 -19t16 -6.5l59 -7v-11h-213v11l58 7q12 2 17 6.5t7.5 19t2.5 47.5v526q0 32 -2 45
t-7.5 16.5t-20.5 4.5l-46 1v11l115 35l5 -1v-112v-173l-1 -55h4q91 83 174 83q115 0 115 -146l-2 -235q0 -33 2.5 -47.5zM93 897h17l114 -110l-8 -8q-52 35 -115 73q-76 -48 -114 -73l-8 8z" />
    <glyph glyph-name="Hbar" unicode="&#x126;" horiz-adv-x="763" 
d="M639.5 670.5q-5.5 -7.5 -8 -34t-2.5 -89.5v-394q0 -63 2.5 -89.5t8 -34t18.5 -9.5l82 -10v-10h-271v10l82 10q13 2 18.5 9.5t8 34t2.5 89.5v205q-99 1 -199 1.5t-199 0.5l1 -207q0 -63 2.5 -89.5t8 -34t18.5 -9.5l82 -10v-10h-270v10l81 10q13 2 18.5 9.5t8 34t2.5 89.5
v394q0 63 -2.5 89.5t-8 34t-19.5 9.5l-81 10v10h270v-10l-81 -10q-14 -2 -19.5 -9.5t-8 -33.5t-2.5 -87h398q0 61 -2.5 87t-8 33.5t-18.5 9.5l-82 10v10h271v-10l-82 -10q-13 -2 -18.5 -9.5zM580 380v152h-398v-154q267 0 398 2z" />
    <glyph glyph-name="hbar" unicode="&#x127;" horiz-adv-x="545" 
d="M524 11v-11h-214v11l59 7q11 2 16 6.5t7.5 19t2.5 47.5l1 223q0 61 -22.5 90t-69.5 29q-42 0 -83 -18.5t-72 -46.5v-277q0 -33 2 -47.5t7 -19t16 -6.5l59 -7v-11h-213v11l58 7q12 2 17 6.5t7.5 19t2.5 47.5v477h-103v18h103v31q0 32 -2 45t-7.5 16.5t-20.5 4.5l-46 1v11
l115 35l5 -1v-112v-31h123v-18h-123v-124l-1 -55h4q91 83 174 83q115 0 115 -146l-2 -235q0 -33 2.5 -47.5t7.5 -19t16 -6.5z" />
    <glyph glyph-name="Itilde" unicode="&#x128;" horiz-adv-x="317" 
d="M131.5 636.5q-2.5 26.5 -8 34t-19.5 9.5l-81 10v10h270v-10l-81 -10q-14 -2 -19.5 -9.5t-8 -34t-2.5 -89.5l1 -394q0 -63 2.5 -89.5t8 -34t18.5 -9.5l82 -10v-10h-270v10l81 10q13 2 18.5 9.5t8 34t2.5 89.5v394q0 63 -2.5 89.5zM71.5 846.5q13.5 21.5 37.5 21.5
q14 0 26 -5t32 -16q11 -6 23.5 -11.5t22.5 -5.5q31 0 39 49l11 -2q-2 -39 -15.5 -60.5t-37.5 -21.5t-58 20q-16 9 -25.5 13t-20.5 4q-31 0 -39 -48l-11 2q2 39 15.5 60.5z" />
    <glyph glyph-name="itilde" unicode="&#x129;" horiz-adv-x="264" 
d="M109 396.5q-2 12.5 -7.5 16.5t-19.5 5l-46 1v10l114 35l6 -1q-1 -31 -1 -111v-261q0 -33 2 -47.5t7 -19t16 -6.5l59 -7v-11h-214v11l59 7q11 2 16 6.5t7.5 19t2.5 47.5l1 261q0 32 -2 44.5zM48.5 604.5q13.5 21.5 37.5 21.5q14 0 26 -5t32 -16q11 -6 23.5 -11.5
t22.5 -5.5q31 0 39 49l11 -2q-2 -39 -15.5 -60.5t-37.5 -21.5t-58 20q-16 9 -25.5 13t-20.5 4q-31 0 -39 -48l-11 2q2 39 15.5 60.5z" />
    <glyph glyph-name="Imacron" unicode="&#x12a;" horiz-adv-x="317" 
d="M131.5 636.5q-2.5 26.5 -8 34t-19.5 9.5l-81 10v10h270v-10l-81 -10q-14 -2 -19.5 -9.5t-8 -34t-2.5 -89.5l1 -394q0 -63 2.5 -89.5t8 -34t18.5 -9.5l82 -10v-10h-270v10l81 10q13 2 18.5 9.5t8 34t2.5 89.5v394q0 63 -2.5 89.5zM45 799v21h227l-1 -21h-226z" />
    <glyph glyph-name="imacron" unicode="&#x12b;" horiz-adv-x="264" 
d="M109 396.5q-2 12.5 -7.5 16.5t-19.5 5l-46 1v10l114 35l6 -1q-1 -31 -1 -111v-261q0 -33 2 -47.5t7 -19t16 -6.5l59 -7v-11h-214v11l59 7q11 2 16 6.5t7.5 19t2.5 47.5l1 261q0 32 -2 44.5zM240 553h-206v21h206v-21z" />
    <glyph glyph-name="Ibreve" unicode="&#x12c;" horiz-adv-x="317" 
d="M131.5 636.5q-2.5 26.5 -8 34t-19.5 9.5l-81 10v10h270v-10l-81 -10q-14 -2 -19.5 -9.5t-8 -34t-2.5 -89.5l1 -394q0 -63 2.5 -89.5t8 -34t18.5 -9.5l82 -10v-10h-270v10l81 10q13 2 18.5 9.5t8 34t2.5 89.5v394q0 63 -2.5 89.5zM81.5 812.5q-28.5 28.5 -24.5 75.5l13 3
q1 -31 24 -49.5t64 -18.5q42 0 65 18.5t23 49.5l13 -3q4 -47 -24 -75.5t-77 -28.5q-48 0 -76.5 28.5z" />
    <glyph glyph-name="ibreve" unicode="&#x12d;" horiz-adv-x="264" 
d="M109 396.5q-2 12.5 -7.5 16.5t-19.5 5l-46 1v10l114 35l6 -1q-1 -31 -1 -111v-261q0 -33 2 -47.5t7 -19t16 -6.5l59 -7v-11h-214v11l59 7q11 2 16 6.5t7.5 19t2.5 47.5l1 261q0 32 -2 44.5zM60.5 571.5q-27.5 32.5 -26.5 97.5l12 4q3 -49 26 -72t65 -23q44 0 66.5 23
t25.5 72l12 -4q2 -65 -26 -97.5t-78 -32.5q-49 0 -76.5 32.5z" />
    <glyph glyph-name="Iogonek" unicode="&#x12e;" horiz-adv-x="317" 
d="M82 -100q0 -24 14.5 -36.5t38.5 -12.5q21 0 36 6t31 17l5 -9q-34 -39 -88 -39q-35 0 -58 18.5t-23 49.5q0 34 32.5 61.5t83.5 44.5h-130v10l81 10q13 2 18.5 9.5t8 34t2.5 89.5v394q0 63 -2.5 89.5t-8 34t-19.5 9.5l-81 10v10h270v-10l-81 -10q-14 -2 -19.5 -9.5t-8 -34
t-2.5 -89.5l1 -394q0 -63 2.5 -89.5t8 -34t18.5 -9.5l82 -10v-10h-112q-100 -41 -100 -100z" />
    <glyph glyph-name="iogonek" unicode="&#x12f;" horiz-adv-x="264" 
d="M106 625q-11 10 -11 29q0 18 11.5 28t29.5 10t29 -10t11 -28q0 -19 -10.5 -29t-29.5 -10t-30 10zM98 -41.5q-27 -24.5 -27 -56.5q0 -24 14.5 -36.5t38.5 -12.5q21 0 36 6t31 17l5 -9q-34 -39 -88 -39q-35 0 -58 18.5t-23 49.5q0 33 30.5 60t79.5 44h-112v11l59 7
q11 2 16 6.5t7.5 19t2.5 47.5l1 261q0 32 -2 44.5t-7.5 16.5t-19.5 5l-46 1v10l114 35l6 -1q-1 -31 -1 -111v-261q0 -33 2 -47.5t7 -19t16 -6.5l59 -7v-11h-73q-41 -17 -68 -41.5z" />
    <glyph glyph-name="Idotaccent" unicode="&#x130;" horiz-adv-x="317" 
d="M131.5 636.5q-2.5 26.5 -8 34t-19.5 9.5l-81 10v10h270v-10l-81 -10q-14 -2 -19.5 -9.5t-8 -34t-2.5 -89.5l1 -394q0 -63 2.5 -89.5t8 -34t18.5 -9.5l82 -10v-10h-270v10l81 10q13 2 18.5 9.5t8 34t2.5 89.5v394q0 63 -2.5 89.5zM127.5 806.5q-11.5 10.5 -11.5 29.5
t11.5 29t30.5 10t30 -10t11 -29t-11 -29.5t-30 -10.5t-30.5 10.5z" />
    <glyph glyph-name="dotlessi" unicode="&#x131;" horiz-adv-x="264" 
d="M109 396.5q-2 12.5 -7.5 16.5t-19.5 5l-46 1v10l114 35l6 -1q-1 -31 -1 -111v-261q0 -33 2 -47.5t7 -19t16 -6.5l59 -7v-11h-214v11l59 7q11 2 16 6.5t7.5 19t2.5 47.5l1 261q0 32 -2 44.5z" />
    <glyph glyph-name="IJ" unicode="&#x132;" horiz-adv-x="661" 
d="M131.5 636.5q-2.5 26.5 -8 34t-19.5 9.5l-81 10v10h270v-10l-81 -10q-14 -2 -19.5 -9.5t-8 -34t-2.5 -89.5l1 -394q0 -63 2.5 -89.5t8 -34t18.5 -9.5l82 -10v-10h-270v10l81 10q13 2 18.5 9.5t8 34t2.5 89.5v394q0 63 -2.5 89.5zM482 637q-3 27 -10.5 34.5t-25.5 9.5
l-109 9v10h308v-10l-82 -9q-13 -2 -18.5 -9.5t-8 -34.5t-2.5 -90v-372q0 -81 -14 -139t-56.5 -106t-124.5 -82l-5 14q68 31 100.5 72t41.5 90t9 128v395q0 63 -3 90z" />
    <glyph glyph-name="ij" unicode="&#x133;" horiz-adv-x="483" 
d="M106 625q-11 10 -11 29q0 18 11.5 28t29.5 10t29 -10t11 -28q0 -19 -10.5 -29t-29.5 -10t-30 10zM109 396.5q-2 12.5 -7.5 16.5t-19.5 5l-46 1v10l114 35l6 -1q-1 -31 -1 -111v-261q0 -33 2 -47.5t7 -19t16 -6.5l59 -7v-11h-214v11l59 7q11 2 16 6.5t7.5 19t2.5 47.5
l1 261q0 32 -2 44.5zM364 625q-11 10 -11 29q0 18 11.5 28t29.5 10t29 -10t11 -28q0 -19 -10.5 -29t-29.5 -10t-30 10zM317.5 -132.5q25.5 29.5 39 77t13.5 123.5v284q0 32 -1.5 44.5t-7 16.5t-20.5 5l-46 1v10l115 35l5 -1v-112v-295q0 -104 -42 -164t-123 -90l-3 8
q45 28 70.5 57.5z" />
    <glyph glyph-name="Jcircumflex" unicode="&#x134;" horiz-adv-x="345" 
d="M165 637q-3 27 -10.5 34.5t-25.5 9.5l-109 9v10h308v-10l-82 -9q-13 -2 -18.5 -9.5t-8 -34.5t-2.5 -90v-372q0 -81 -14 -139t-56.5 -106t-124.5 -82l-5 14q68 31 100.5 72t41.5 90t9 128v395q0 63 -3 90zM180 897h17l114 -110l-8 -8q-52 35 -115 73q-76 -48 -114 -73
l-8 8z" />
    <glyph glyph-name="jcircumflex" unicode="&#x135;" horiz-adv-x="211" 
d="M45.5 -132.5q25.5 29.5 39 77t13.5 123.5v284q0 32 -1.5 44.5t-7 16.5t-20.5 5l-46 1v10l115 35l5 -1v-112v-295q0 -104 -42 -164t-123 -90l-3 8q45 28 70.5 57.5zM115 681h16q57 -65 115 -142l-9 -8q-64 62 -114 104q-44 -37 -115 -104l-9 8q72 93 116 142z" />
    <glyph glyph-name="uni0136" unicode="&#x136;" horiz-adv-x="649" 
d="M185.5 63.5q2.5 -26.5 8 -34t18.5 -9.5l82 -10v-10h-270v10l81 10q13 2 18.5 9.5t8 34t2.5 89.5v394q0 63 -2.5 89.5t-8 34t-19.5 9.5l-81 10v10h270v-10l-81 -10q-14 -2 -19.5 -9.5t-8 -34t-2.5 -89.5l1 -394q0 -63 2.5 -89.5zM594.5 26.5q16.5 -9.5 48.5 -12.5v-9
q-19 -5 -30 -7t-26 -2q-22 0 -37.5 9.5t-34.5 31.5l-296 323v8l245 257q21 22 21 37q0 18 -31 21l-81 7v10h239v-10q-38 -6 -56.5 -15t-47.5 -38l-248 -250l296 -325q22 -26 38.5 -35.5zM282.5 -42.5q8.5 10.5 22.5 10.5q15 0 22.5 -10.5t7.5 -28.5q0 -78 -81 -116l-5 8
q29 17 42 38t13 41q0 28 -29 29q-1 18 7.5 28.5z" />
    <glyph glyph-name="uni0137" unicode="&#x137;" horiz-adv-x="490" 
d="M150 48q2 -18 6.5 -23.5t14.5 -7.5l53 -7v-10h-204v10l58 7q12 2 16.5 7.5t7 23.5t2.5 60l1 509q1 32 -1 45t-7.5 16.5t-20.5 4.5l-46 1v11l115 35l5 -1v-112l-2 -509q0 -42 2 -60zM431 30q22 -16 53 -19v-8q-24 -6 -43 -6q-29 0 -48.5 10.5t-37.5 31.5l-175 201v15
l168 147q20 18 20 27q0 10 -21 13l-58 5v10h178v-9q-27 -6 -43 -15t-41 -29l-169 -138q29 -34 141 -157l26 -29q28 -34 50 -50zM190.5 -42.5q8.5 10.5 22.5 10.5q15 0 22.5 -10.5t7.5 -28.5q0 -78 -81 -116l-5 8q29 17 42 38t13 41q0 28 -29 29q-1 18 7.5 28.5z" />
    <glyph glyph-name="kgreenlandic" unicode="&#x138;" horiz-adv-x="496" 
d="M156 48q2 -18 6.5 -23.5t14.5 -7.5l53 -7v-10h-205v10l59 7q12 2 16.5 7.5t7 23.5t2.5 60l1 244q1 32 -1 44.5t-7.5 16.5t-20.5 5l-46 1v10l115 35l6 -1q-1 -31 -1 -111l-2 -244q0 -42 2 -60zM437.5 30q21.5 -15 53.5 -17v-13q-31 -3 -44 -3q-29 0 -49 10.5t-37 31.5
l-176 201v15l170 147q19 17 19 27t-21 13l-58 3v12h179v-11q-28 -5 -44.5 -13.5t-39.5 -28.5l-170 -138l104 -117l62 -69q30 -35 51.5 -50z" />
    <glyph glyph-name="Lacute" unicode="&#x139;" horiz-adv-x="585" 
d="M23 10l82 9q13 2 18.5 9.5t8 34.5t2.5 90v394q0 63 -2.5 90t-8 34.5t-18.5 9.5l-82 9v10h310v-11l-111 -8q-18 -2 -25.5 -10t-11 -36t-3.5 -93v-315q0 -87 3 -129.5t12.5 -61.5t29.5 -18l229 2q23 2 35.5 15.5t26 64.5t32.5 168l9 -1l-18 -270h-1q-21 3 -61 3h-456v10z
M262 855l-174 -73l-6 7l146 106l34 -34v-6z" />
    <glyph glyph-name="lacute" unicode="&#x13a;" horiz-adv-x="253" 
d="M103 662q-2 13 -7.5 16.5t-20.5 4.5l-46 1v11l115 35l5 -1v-112v-526q0 -33 2 -47.5t7 -19t16 -6.5l59 -7v-11h-213v11l58 7q12 2 17 6.5t7.5 19t2.5 47.5v526q0 32 -2 45zM234 895l-174 -73l-6 7l146 106l34 -34v-6z" />
    <glyph glyph-name="uni013B" unicode="&#x13b;" horiz-adv-x="585" 
d="M23 10l82 9q13 2 18.5 9.5t8 34.5t2.5 90v394q0 63 -2.5 90t-8 34.5t-18.5 9.5l-82 9v10h310v-11l-111 -8q-18 -2 -25.5 -10t-11 -36t-3.5 -93v-315q0 -87 3 -129.5t12.5 -61.5t29.5 -18l229 2q23 2 35.5 15.5t26 64.5t32.5 168l9 -1l-18 -270h-1q-21 3 -61 3h-456v10z
M267.5 -42.5q8.5 10.5 22.5 10.5q15 0 22.5 -10.5t7.5 -28.5q0 -78 -81 -116l-5 8q29 17 42 38t13 41q0 28 -29 29q-1 18 7.5 28.5z" />
    <glyph glyph-name="uni013C" unicode="&#x13c;" horiz-adv-x="253" 
d="M103 662q-2 13 -7.5 16.5t-20.5 4.5l-46 1v11l115 35l5 -1v-112v-526q0 -33 2 -47.5t7 -19t16 -6.5l59 -7v-11h-213v11l58 7q12 2 17 6.5t7.5 19t2.5 47.5v526q0 32 -2 45zM104.5 -42.5q8.5 10.5 22.5 10.5q15 0 22.5 -10.5t7.5 -28.5q0 -78 -81 -116l-5 8q29 17 42 38
t13 41q0 28 -29 29q-1 18 7.5 28.5z" />
    <glyph glyph-name="Lcaron" unicode="&#x13d;" horiz-adv-x="585" 
d="M23 10l82 9q13 2 18.5 9.5t8 34.5t2.5 90v394q0 63 -2.5 90t-8 34.5t-18.5 9.5l-82 9v10h310v-11l-111 -8q-18 -2 -25.5 -10t-11 -36t-3.5 -93v-315q0 -87 3 -129.5t12.5 -61.5t29.5 -18l229 2q23 2 35.5 15.5t26 64.5t32.5 168l9 -1l-18 -270h-1q-21 3 -61 3h-456v10z
M511 453h-13l-6 247h50z" />
    <glyph glyph-name="lcaron" unicode="&#x13e;" horiz-adv-x="314" 
d="M103 662q-2 13 -7.5 16.5t-20.5 4.5l-46 1v11l115 35l5 -1v-112v-526q0 -33 2 -47.5t7 -19t16 -6.5l59 -7v-11h-213v11l58 7q12 2 17 6.5t7.5 19t2.5 47.5v526q0 32 -2 45zM277 475h-13l-6 247h50z" />
    <glyph glyph-name="Ldot" unicode="&#x13f;" horiz-adv-x="601" 
d="M23 10l82 9q13 2 18.5 9.5t8 34.5t2.5 90v394q0 63 -2.5 90t-8 34.5t-18.5 9.5l-82 9v10h310v-11l-111 -8q-18 -2 -25.5 -10t-11 -36t-3.5 -93v-315q0 -87 3 -129.5t12.5 -61.5t29.5 -18l229 2q23 2 35.5 15.5t26 64.5t32.5 168l9 -1l-18 -270h-1q-21 3 -61 3h-456v10z
M349.5 313q-12.5 11 -12.5 27q0 15 13 26t30 11t29 -11t12 -26q0 -16 -12 -27t-29 -11q-18 0 -30.5 11z" />
    <glyph glyph-name="ldot" unicode="&#x140;" horiz-adv-x="289" 
d="M103 662q-2 13 -7.5 16.5t-20.5 4.5l-46 1v11l115 35l5 -1v-112v-526q0 -33 2 -47.5t7 -19t16 -6.5l59 -7v-11h-213v11l58 7q12 2 17 6.5t7.5 19t2.5 47.5v526q0 32 -2 45zM225 339.5q-11 9.5 -11 22.5t11 22t25 9t24.5 -9t10.5 -22t-10.5 -22.5t-24.5 -9.5t-25 9.5z" />
    <glyph glyph-name="Lslash" unicode="&#x141;" horiz-adv-x="585" 
d="M559 267l-18 -270h-1q-21 3 -61 3h-456v10l82 9q13 2 18.5 9.5t8 34.5t2.5 90v171l-84 -49l-9 16l93 53v203q0 63 -2.5 90t-8 34.5t-18.5 9.5l-82 9v10h310v-11l-111 -8q-18 -2 -25.5 -10t-11 -36t-3.5 -93v-170l95 54l8 -15l-103 -60v-124q0 -87 3 -129.5t12.5 -61.5
t29.5 -18l229 2q23 2 35.5 15.5t26 64.5t32.5 168z" />
    <glyph glyph-name="lslash" unicode="&#x142;" horiz-adv-x="253" 
d="M151 43.5q2 -14.5 7 -19t16 -6.5l59 -7v-11h-213v11l58 7q12 2 17 6.5t7.5 19t2.5 47.5v248l-90 -52l-9 16l99 57v257q0 32 -2 45t-7.5 16.5t-20.5 4.5l-46 1v11l115 35l5 -1v-112v-231l91 52l9 -16l-100 -58v-273q0 -33 2 -47.5z" />
    <glyph glyph-name="Nacute" unicode="&#x143;" horiz-adv-x="747" 
d="M730 700v-11l-77 -6q-14 -2 -20.5 -9.5t-9.5 -34.5t-3 -90v-554l-16 -2l-456 648l5 -490q2 -59 6 -84.5t15.5 -36t38.5 -13.5l107 -6v-11h-297v11l76 6q15 2 21 9.5t9 34.5t3 90v380q0 69 -2 98t-7.5 39t-19.5 13l-80 8v11h144l436 -622l-5 471q-1 60 -5 85.5t-15.5 35.5
t-38.5 13l-108 6v11h299zM470 855l-174 -73l-6 7l146 106l34 -34v-6z" />
    <glyph glyph-name="nacute" unicode="&#x144;" horiz-adv-x="552" 
d="M157 43.5q2 -14.5 7 -19t16 -6.5l59 -7v-11h-214v11l59 7q11 2 16 6.5t7.5 19t2.5 47.5l1 261q0 32 -1.5 44t-7 16t-20.5 5l-48 2v10l114 35l7 -2v-73h4q91 83 177 83q111 0 111 -135l-1 -246q0 -33 2.5 -47.5t7.5 -19t16 -6.5l59 -7v-11h-214v11l59 7q11 2 16 6.5
t7.5 19t2.5 47.5l1 233q0 58 -22 83.5t-69 25.5q-42 0 -83 -18.5t-73 -46.5l-1 -277q0 -33 2 -47.5zM368 684l-118 -151l-11 3l76 156l53 -2v-6z" />
    <glyph glyph-name="uni0145" unicode="&#x145;" horiz-adv-x="747" 
d="M730 700v-11l-77 -6q-14 -2 -20.5 -9.5t-9.5 -34.5t-3 -90v-554l-16 -2l-456 648l5 -490q2 -59 6 -84.5t15.5 -36t38.5 -13.5l107 -6v-11h-297v11l76 6q15 2 21 9.5t9 34.5t3 90v380q0 69 -2 98t-7.5 39t-19.5 13l-80 8v11h144l436 -622l-5 471q-1 60 -5 85.5t-15.5 35.5
t-38.5 13l-108 6v11h299zM364.5 -42.5q8.5 10.5 22.5 10.5q15 0 22.5 -10.5t7.5 -28.5q0 -78 -81 -116l-5 8q29 17 42 38t13 41q0 28 -29 29q-1 18 7.5 28.5z" />
    <glyph glyph-name="uni0146" unicode="&#x146;" horiz-adv-x="552" 
d="M157 43.5q2 -14.5 7 -19t16 -6.5l59 -7v-11h-214v11l59 7q11 2 16 6.5t7.5 19t2.5 47.5l1 261q0 32 -1.5 44t-7 16t-20.5 5l-48 2v10l114 35l7 -2v-73h4q91 83 177 83q111 0 111 -135l-1 -246q0 -33 2.5 -47.5t7.5 -19t16 -6.5l59 -7v-11h-214v11l59 7q11 2 16 6.5
t7.5 19t2.5 47.5l1 233q0 58 -22 83.5t-69 25.5q-42 0 -83 -18.5t-73 -46.5l-1 -277q0 -33 2 -47.5zM255.5 -42.5q8.5 10.5 22.5 10.5q15 0 22.5 -10.5t7.5 -28.5q0 -78 -81 -116l-5 8q29 17 42 38t13 41q0 28 -29 29q-1 18 7.5 28.5z" />
    <glyph glyph-name="Ncaron" unicode="&#x147;" horiz-adv-x="747" 
d="M730 700v-11l-77 -6q-14 -2 -20.5 -9.5t-9.5 -34.5t-3 -90v-554l-16 -2l-456 648l5 -490q2 -59 6 -84.5t15.5 -36t38.5 -13.5l107 -6v-11h-297v11l76 6q15 2 21 9.5t9 34.5t3 90v380q0 69 -2 98t-7.5 39t-19.5 13l-80 8v11h144l436 -622l-5 471q-1 60 -5 85.5t-15.5 35.5
t-38.5 13l-108 6v11h299zM375 826l115 74l8 -9l-114 -110h-17l-114 110l8 9z" />
    <glyph glyph-name="ncaron" unicode="&#x148;" horiz-adv-x="552" 
d="M157 43.5q2 -14.5 7 -19t16 -6.5l59 -7v-11h-214v11l59 7q11 2 16 6.5t7.5 19t2.5 47.5l1 261q0 32 -1.5 44t-7 16t-20.5 5l-48 2v10l114 35l7 -2v-73h4q91 83 177 83q111 0 111 -135l-1 -246q0 -33 2.5 -47.5t7.5 -19t16 -6.5l59 -7v-11h-214v11l59 7q11 2 16 6.5
t7.5 19t2.5 47.5l1 233q0 58 -22 83.5t-69 25.5q-42 0 -83 -18.5t-73 -46.5l-1 -277q0 -33 2 -47.5zM286 578q43 36 114 105l9 -9q-69 -90 -115 -141h-16q-31 33 -60.5 71t-36.5 46t-19 24l9 9q79 -75 115 -105z" />
    <glyph glyph-name="Omacron" unicode="&#x14c;" horiz-adv-x="705" 
d="M181.5 29q-69.5 44 -107 124.5t-37.5 186.5q0 110 41 195.5t114.5 133t168.5 47.5q94 0 163.5 -44t106.5 -124t37 -185q0 -111 -40.5 -197t-114.5 -133.5t-169 -47.5q-93 0 -162.5 44zM493 50q57 41 88.5 115.5t31.5 173.5q0 106 -33.5 186t-94 123.5t-139.5 43.5
q-76 0 -133.5 -41t-89 -115.5t-31.5 -172.5q0 -107 33.5 -187t94 -123.5t140.5 -43.5q76 0 133 41zM239 799v21h227l-1 -21h-226z" />
    <glyph glyph-name="omacron" unicode="&#x14d;" horiz-adv-x="483" 
d="M91 49.5q-54 63.5 -54 171.5q0 73 26.5 130t74 89t108.5 32q92 0 146 -64t54 -171q0 -74 -26.5 -131t-74 -88.5t-107.5 -31.5q-93 0 -147 63.5zM356 66.5q40 59.5 40 153.5q0 104 -42 167.5t-115 63.5q-71 0 -111.5 -59.5t-40.5 -154.5q0 -103 42.5 -166.5t115.5 -63.5
q71 0 111 59.5zM350 553h-206v21h206v-21z" />
    <glyph glyph-name="Obreve" unicode="&#x14e;" horiz-adv-x="705" 
d="M181.5 29q-69.5 44 -107 124.5t-37.5 186.5q0 110 41 195.5t114.5 133t168.5 47.5q94 0 163.5 -44t106.5 -124t37 -185q0 -111 -40.5 -197t-114.5 -133.5t-169 -47.5q-93 0 -162.5 44zM493 50q57 41 88.5 115.5t31.5 173.5q0 106 -33.5 186t-94 123.5t-139.5 43.5
q-76 0 -133.5 -41t-89 -115.5t-31.5 -172.5q0 -107 33.5 -187t94 -123.5t140.5 -43.5q76 0 133 41zM275.5 812.5q-28.5 28.5 -24.5 75.5l13 3q1 -31 24 -49.5t64 -18.5q42 0 65 18.5t23 49.5l13 -3q4 -47 -24 -75.5t-77 -28.5q-48 0 -76.5 28.5z" />
    <glyph glyph-name="obreve" unicode="&#x14f;" horiz-adv-x="483" 
d="M91 49.5q-54 63.5 -54 171.5q0 73 26.5 130t74 89t108.5 32q92 0 146 -64t54 -171q0 -74 -26.5 -131t-74 -88.5t-107.5 -31.5q-93 0 -147 63.5zM356 66.5q40 59.5 40 153.5q0 104 -42 167.5t-115 63.5q-71 0 -111.5 -59.5t-40.5 -154.5q0 -103 42.5 -166.5t115.5 -63.5
q71 0 111 59.5zM171.5 571.5q-27.5 32.5 -26.5 97.5l12 4q3 -49 26 -72t65 -23q44 0 66.5 23t25.5 72l12 -4q2 -65 -26 -97.5t-78 -32.5q-49 0 -76.5 32.5z" />
    <glyph glyph-name="Ohungarumlaut" unicode="&#x150;" horiz-adv-x="705" 
d="M181.5 29q-69.5 44 -107 124.5t-37.5 186.5q0 110 41 195.5t114.5 133t168.5 47.5q94 0 163.5 -44t106.5 -124t37 -185q0 -111 -40.5 -197t-114.5 -133.5t-169 -47.5q-93 0 -162.5 44zM493 50q57 41 88.5 115.5t31.5 173.5q0 106 -33.5 186t-94 123.5t-139.5 43.5
q-76 0 -133.5 -41t-89 -115.5t-31.5 -172.5q0 -107 33.5 -187t94 -123.5t140.5 -43.5q76 0 133 41zM383 933l-99 -153l-10 2l59 154l50 3v-6zM502 933l-99 -153l-10 2l58 154l51 3v-6z" />
    <glyph glyph-name="ohungarumlaut" unicode="&#x151;" horiz-adv-x="483" 
d="M91 49.5q-54 63.5 -54 171.5q0 73 26.5 130t74 89t108.5 32q92 0 146 -64t54 -171q0 -74 -26.5 -131t-74 -88.5t-107.5 -31.5q-93 0 -147 63.5zM356 66.5q40 59.5 40 153.5q0 104 -42 167.5t-115 63.5q-71 0 -111.5 -59.5t-40.5 -154.5q0 -103 42.5 -166.5t115.5 -63.5
q71 0 111 59.5zM276 680l-99 -153l-10 2l59 154l50 3v-6zM395 680l-99 -153l-10 2l58 154l51 3v-6z" />
    <glyph glyph-name="OE" unicode="&#x152;" horiz-adv-x="1016" 
d="M984 263l-27 -266q-25 3 -82 3h-340v59q-38 -36 -88 -55t-108 -19q-92 0 -160.5 44t-105 124t-36.5 187q0 110 40.5 195.5t113 133t165.5 47.5q105 0 179 -63v47h292q53 0 87 6h1l-2 -251h-10q-10 109 -18.5 153.5t-21 56.5t-40.5 14l-233 4q-6 -22 -6 -216v-92l248 6
v-29l-248 7v-134q0 -99 3.5 -141t12 -54.5t28.5 -11.5l244 2q24 2 37.5 17t28 65.5t36.5 161.5zM456 32.5q46 23.5 79 67.5v489q-35 50 -84.5 76.5t-109.5 26.5q-75 0 -131 -41t-87 -115.5t-31 -172.5q0 -107 32.5 -187t92 -123.5t137.5 -43.5q56 0 102 23.5z" />
    <glyph glyph-name="oe" unicode="&#x153;" horiz-adv-x="808" 
d="M775 200q-3 -100 -49.5 -157.5t-129.5 -57.5q-58 0 -105.5 31.5t-70.5 91.5q-26 -57 -73.5 -89.5t-108.5 -32.5q-93 0 -147 63.5t-54 171.5q0 73 26.5 130t74 89t108.5 32q65 0 111.5 -32.5t69.5 -90.5q26 59 73 91t100 32q76 0 122.5 -50.5t46.5 -147.5l-7 -8l-312 4
q-2 -22 -2 -35q0 -97 44 -155.5t118 -58.5q69 0 108.5 47.5t44.5 131.5h12zM356 66.5q40 59.5 40 153.5q0 104 -42 167.5t-115 63.5q-71 0 -111.5 -59.5t-40.5 -154.5q0 -103 42.5 -166.5t115.5 -63.5q71 0 111 59.5zM501 407q-40 -44 -50 -121l269 3q1 4 1 16
q0 29 -10.5 62.5t-38.5 58.5t-75 25q-56 0 -96 -44z" />
    <glyph glyph-name="Racute" unicode="&#x154;" horiz-adv-x="628" 
d="M567 22q16 -9 55 -13v-7q-30 -11 -62 -11q-24 0 -41.5 11.5t-36.5 38.5q-109 144 -178 276q-26 -2 -42 -2l-76 1v20h82q105 0 162 44t57 123q0 90 -62.5 134t-180.5 44h-55q-7 -21 -7 -215v-313q0 -63 2.5 -90t8 -34.5t18.5 -9.5l81 -9v-10h-269v10l82 9q13 2 18.5 9.5
t8 34.5t2.5 90v394q0 63 -2.5 90t-8 34.5t-18.5 9.5l-82 9v10h248q130 0 199.5 -48.5t69.5 -139.5q0 -71 -48 -122t-142 -68q88 -153 177 -262q24 -29 40 -38zM367 855l-174 -73l-6 7l146 106l34 -34v-6z" />
    <glyph glyph-name="racute" unicode="&#x155;" horiz-adv-x="357" 
d="M158 48.5q3 -15.5 10 -21t24 -8.5l111 -8v-11h-278v11l59 7q12 2 16.5 7t7 21.5t2.5 54.5l1 252q0 30 -2 42.5t-8 16.5t-20 5l-47 2v9l113 36l8 -1l-1 -84h4q88 93 168 93q11 0 15 -1v-52h-2q-18 2 -29 2q-86 0 -155 -62v-258q0 -37 3 -52.5zM283 684l-118 -151l-11 3
l76 156l53 -2v-6z" />
    <glyph glyph-name="uni0156" unicode="&#x156;" horiz-adv-x="628" 
d="M567 22q16 -9 55 -13v-7q-30 -11 -62 -11q-24 0 -41.5 11.5t-36.5 38.5q-109 144 -178 276q-26 -2 -42 -2l-76 1v20h82q105 0 162 44t57 123q0 90 -62.5 134t-180.5 44h-55q-7 -21 -7 -215v-313q0 -63 2.5 -90t8 -34.5t18.5 -9.5l81 -9v-10h-269v10l82 9q13 2 18.5 9.5
t8 34.5t2.5 90v394q0 63 -2.5 90t-8 34.5t-18.5 9.5l-82 9v10h248q130 0 199.5 -48.5t69.5 -139.5q0 -71 -48 -122t-142 -68q88 -153 177 -262q24 -29 40 -38zM323.5 -42.5q8.5 10.5 22.5 10.5q15 0 22.5 -10.5t7.5 -28.5q0 -78 -81 -116l-5 8q29 17 42 38t13 41
q0 28 -29 29q-1 18 7.5 28.5z" />
    <glyph glyph-name="uni0157" unicode="&#x157;" horiz-adv-x="357" 
d="M158 48.5q3 -15.5 10 -21t24 -8.5l111 -8v-11h-278v11l59 7q12 2 16.5 7t7 21.5t2.5 54.5l1 252q0 30 -2 42.5t-8 16.5t-20 5l-47 2v9l113 36l8 -1l-1 -84h4q88 93 168 93q11 0 15 -1v-52h-2q-18 2 -29 2q-86 0 -155 -62v-258q0 -37 3 -52.5zM171.5 -42.5
q8.5 10.5 22.5 10.5q15 0 22.5 -10.5t7.5 -28.5q0 -78 -81 -116l-5 8q29 17 42 38t13 41q0 28 -29 29q-1 18 7.5 28.5z" />
    <glyph glyph-name="Rcaron" unicode="&#x158;" horiz-adv-x="628" 
d="M567 22q16 -9 55 -13v-7q-30 -11 -62 -11q-24 0 -41.5 11.5t-36.5 38.5q-109 144 -178 276q-26 -2 -42 -2l-76 1v20h82q105 0 162 44t57 123q0 90 -62.5 134t-180.5 44h-55q-7 -21 -7 -215v-313q0 -63 2.5 -90t8 -34.5t18.5 -9.5l81 -9v-10h-269v10l82 9q13 2 18.5 9.5
t8 34.5t2.5 90v394q0 63 -2.5 90t-8 34.5t-18.5 9.5l-82 9v10h248q130 0 199.5 -48.5t69.5 -139.5q0 -71 -48 -122t-142 -68q88 -153 177 -262q24 -29 40 -38zM272 826l115 74l8 -9l-114 -110h-17l-114 110l8 9z" />
    <glyph glyph-name="rcaron" unicode="&#x159;" horiz-adv-x="357" 
d="M158 48.5q3 -15.5 10 -21t24 -8.5l111 -8v-11h-278v11l59 7q12 2 16.5 7t7 21.5t2.5 54.5l1 252q0 30 -2 42.5t-8 16.5t-20 5l-47 2v9l113 36l8 -1l-1 -84h4q88 93 168 93q11 0 15 -1v-52h-2q-18 2 -29 2q-86 0 -155 -62v-258q0 -37 3 -52.5zM202 578q43 36 114 105l9 -9
q-69 -90 -115 -141h-16q-31 33 -60.5 71t-36.5 46t-19 24l9 9q79 -75 115 -105z" />
    <glyph glyph-name="Sacute" unicode="&#x15a;" horiz-adv-x="503" 
d="M119 -0.5q-51 14.5 -81 35.5l23 158l8 -1q3 -72 22.5 -112.5t53 -56.5t84.5 -16q83 0 131.5 42t48.5 120q0 43 -18 73.5t-57 56t-108 52.5q-65 26 -101.5 53.5t-52.5 62t-16 82.5q0 77 55.5 122t145.5 45q61 0 113.5 -15.5t81.5 -38.5l-44 -150l-8 1q2 15 2 42
q0 79 -36.5 109t-108.5 30q-69 0 -112 -36t-43 -101q0 -38 12 -65t43 -50.5t88 -46.5q74 -30 117.5 -55.5t68.5 -63t25 -93.5q0 -57 -27.5 -102t-80 -70.5t-124.5 -25.5q-54 0 -105 14.5zM344 855l-174 -73l-6 7l146 106l34 -34v-6z" />
    <glyph glyph-name="sacute" unicode="&#x15b;" horiz-adv-x="388" 
d="M102 -5.5q-40 10.5 -60 21.5l11 124h5q13 -77 41.5 -105.5t88.5 -28.5q58 0 88.5 25t30.5 66q0 27 -11 46t-38.5 35.5t-80.5 37.5q-68 27 -95.5 57t-27.5 76q0 56 42.5 89.5t107.5 33.5q75 0 134 -38l-32 -110h-6q1 73 -25.5 100t-79.5 27q-45 0 -74.5 -23t-29.5 -64
q0 -35 22.5 -57t80.5 -45q59 -24 90 -42.5t45.5 -42.5t14.5 -60q0 -61 -43.5 -97t-116.5 -36q-42 0 -82 10.5zM284 684l-118 -151l-11 3l76 156l53 -2v-6z" />
    <glyph glyph-name="Scircumflex" unicode="&#x15c;" horiz-adv-x="503" 
d="M119 -0.5q-51 14.5 -81 35.5l23 158l8 -1q3 -72 22.5 -112.5t53 -56.5t84.5 -16q83 0 131.5 42t48.5 120q0 43 -18 73.5t-57 56t-108 52.5q-65 26 -101.5 53.5t-52.5 62t-16 82.5q0 77 55.5 122t145.5 45q61 0 113.5 -15.5t81.5 -38.5l-44 -150l-8 1q2 15 2 42
q0 79 -36.5 109t-108.5 30q-69 0 -112 -36t-43 -101q0 -38 12 -65t43 -50.5t88 -46.5q74 -30 117.5 -55.5t68.5 -63t25 -93.5q0 -57 -27.5 -102t-80 -70.5t-124.5 -25.5q-54 0 -105 14.5zM241 897h17l114 -110l-8 -8q-52 35 -115 73q-76 -48 -114 -73l-8 8z" />
    <glyph glyph-name="scircumflex" unicode="&#x15d;" horiz-adv-x="388" 
d="M102 -5.5q-40 10.5 -60 21.5l11 124h5q13 -77 41.5 -105.5t88.5 -28.5q58 0 88.5 25t30.5 66q0 27 -11 46t-38.5 35.5t-80.5 37.5q-68 27 -95.5 57t-27.5 76q0 56 42.5 89.5t107.5 33.5q75 0 134 -38l-32 -110h-6q1 73 -25.5 100t-79.5 27q-45 0 -74.5 -23t-29.5 -64
q0 -35 22.5 -57t80.5 -45q59 -24 90 -42.5t45.5 -42.5t14.5 -60q0 -61 -43.5 -97t-116.5 -36q-42 0 -82 10.5zM195 681h16q57 -65 115 -142l-9 -8q-64 62 -114 104q-44 -37 -115 -104l-9 8q72 93 116 142z" />
    <glyph glyph-name="Scedilla" unicode="&#x15e;" horiz-adv-x="503" 
d="M398.5 44q-57.5 -55 -158.5 -59l-15 -31q33 -5 53 -19t20 -37q0 -31 -30.5 -52.5t-95.5 -29.5l-1 11q49 9 70 22t21 34q0 33 -71 39l-3 7q3 6 34 56q-53 0 -103.5 14.5t-80.5 35.5l23 158l8 -1q3 -72 22.5 -112.5t53 -56.5t84.5 -16q83 0 131.5 42t48.5 120
q0 43 -18 73.5t-57 56t-108 52.5q-65 26 -101.5 53.5t-52.5 62t-16 82.5q0 77 55.5 122t145.5 45q61 0 113.5 -15.5t81.5 -38.5l-44 -150l-8 1q2 15 2 42q0 79 -36.5 109t-108.5 30q-69 0 -112 -36t-43 -101q0 -38 12 -65t43 -50.5t88 -46.5q74 -30 117.5 -55.5t68.5 -63
t25 -93.5q0 -84 -57.5 -139z" />
    <glyph glyph-name="scedilla" unicode="&#x15f;" horiz-adv-x="388" 
d="M301.5 20.5q-42.5 -35.5 -113.5 -36.5l-15 -31q33 -5 53 -19t20 -37q0 -31 -30.5 -52.5t-95.5 -29.5l-1 11q49 9 70 22t21 34q0 33 -71 39l-3 7l16 26l18 30q-38 2 -73.5 12t-54.5 20l11 124h5q13 -77 41.5 -105.5t88.5 -28.5q58 0 88.5 25t30.5 66q0 27 -11 46
t-38.5 35.5t-80.5 37.5q-68 27 -95.5 57t-27.5 76q0 56 42.5 89.5t107.5 33.5q75 0 134 -38l-32 -110h-6q1 73 -25.5 100t-79.5 27q-45 0 -74.5 -23t-29.5 -64q0 -35 22.5 -57t80.5 -45q59 -24 90 -42.5t45.5 -42.5t14.5 -60q0 -61 -42.5 -96.5z" />
    <glyph glyph-name="Scaron" unicode="&#x160;" horiz-adv-x="503" 
d="M119 -0.5q-51 14.5 -81 35.5l23 158l8 -1q3 -72 22.5 -112.5t53 -56.5t84.5 -16q83 0 131.5 42t48.5 120q0 43 -18 73.5t-57 56t-108 52.5q-65 26 -101.5 53.5t-52.5 62t-16 82.5q0 77 55.5 122t145.5 45q61 0 113.5 -15.5t81.5 -38.5l-44 -150l-8 1q2 15 2 42
q0 79 -36.5 109t-108.5 30q-69 0 -112 -36t-43 -101q0 -38 12 -65t43 -50.5t88 -46.5q74 -30 117.5 -55.5t68.5 -63t25 -93.5q0 -57 -27.5 -102t-80 -70.5t-124.5 -25.5q-54 0 -105 14.5zM249 826l115 74l8 -9l-114 -110h-17l-114 110l8 9z" />
    <glyph glyph-name="scaron" unicode="&#x161;" horiz-adv-x="388" 
d="M102 -5.5q-40 10.5 -60 21.5l11 124h5q13 -77 41.5 -105.5t88.5 -28.5q58 0 88.5 25t30.5 66q0 27 -11 46t-38.5 35.5t-80.5 37.5q-68 27 -95.5 57t-27.5 76q0 56 42.5 89.5t107.5 33.5q75 0 134 -38l-32 -110h-6q1 73 -25.5 100t-79.5 27q-45 0 -74.5 -23t-29.5 -64
q0 -35 22.5 -57t80.5 -45q59 -24 90 -42.5t45.5 -42.5t14.5 -60q0 -61 -43.5 -97t-116.5 -36q-42 0 -82 10.5zM203 578q43 36 114 105l9 -9q-69 -90 -115 -141h-16q-31 33 -60.5 71t-36.5 46t-19 24l9 9q79 -75 115 -105z" />
    <glyph glyph-name="uni0162" unicode="&#x162;" horiz-adv-x="613" 
d="M582 706l-1 -272h-12q-12 124 -20.5 171.5t-20.5 60.5t-42 15l-154 2q-3 -81 -3 -227v-303q0 -63 3 -90t10.5 -34.5t24.5 -9.5l106 -9v-10h-160l-21 -44q33 -5 53 -19t20 -37q0 -31 -30.5 -52.5t-95.5 -29.5l-1 11q49 9 70 22t21 34q0 33 -71 39l-3 7l42 69h-160v10
l106 9q17 2 24.5 9.5t10.5 34.5t3 90v303q0 175 -4 227l-153 -2q-27 -2 -38 -13.5t-20 -59.5t-25 -174h-12l6 272h1q34 -6 80 -6h378q49 0 87 6h1z" />
    <glyph glyph-name="uni0163" unicode="&#x163;" horiz-adv-x="331" 
d="M272.5 34q-29.5 -48 -86.5 -49l-15 -32q33 -5 53 -19t20 -37q0 -31 -30.5 -52.5t-95.5 -29.5l-1 11q49 9 70 22t21 34q0 33 -71 39l-3 7l35 58q-41 3 -64.5 32t-23.5 88q0 46 2 174q2 102 2 157l-69 2v16l61 3l38 129h13v-130h163l2 -1l-2 -17h-163q-2 -212 -2 -318
q0 -56 18.5 -78.5t53.5 -22.5q45 0 67 37t30 113l11 -1q-4 -87 -33.5 -135z" />
    <glyph glyph-name="Tcaron" unicode="&#x164;" horiz-adv-x="613" 
d="M582 706l-1 -272h-12q-12 124 -20.5 171.5t-20.5 60.5t-42 15l-154 2q-3 -81 -3 -227v-303q0 -63 3 -90t10.5 -34.5t24.5 -9.5l106 -9v-10h-336v10l106 9q17 2 24.5 9.5t10.5 34.5t3 90v303q0 175 -4 227l-153 -2q-27 -2 -38 -13.5t-20 -59.5t-25 -174h-12l6 272h1
q34 -6 80 -6h378q49 0 87 6h1zM305 826l115 74l8 -9l-114 -110h-17l-114 110l8 9z" />
    <glyph glyph-name="tcaron" unicode="&#x165;" horiz-adv-x="331" 
d="M270 541h-13l-6 198h50zM81 106q0 46 2 174q2 102 2 157l-69 2v16l61 3l38 129h13v-130h163l2 -1l-2 -17h-163q-2 -212 -2 -318q0 -56 18.5 -78.5t53.5 -22.5q45 0 67 37t30 113l11 -1q-8 -184 -124 -184q-101 0 -101 121z" />
    <glyph glyph-name="Tbar" unicode="&#x166;" horiz-adv-x="613" 
d="M582 706l-1 -272h-12q-12 124 -20.5 171.5t-20.5 60.5t-42 15l-154 2q-3 -81 -3 -227v-108h115v-18h-115v-177q0 -63 3 -90t10.5 -34.5t24.5 -9.5l106 -9v-10h-336v10l106 9q17 2 24.5 9.5t10.5 34.5t3 90v177h-113v18h113v108q0 175 -4 227l-153 -2q-27 -2 -38 -13.5
t-20 -59.5t-25 -174h-12l6 272h1q34 -6 80 -6h378q49 0 87 6h1z" />
    <glyph glyph-name="tbar" unicode="&#x167;" horiz-adv-x="331" 
d="M306 169q-8 -184 -124 -184q-101 0 -101 121q0 46 2 174h-102v18h102q2 90 2 139l-69 2v16l61 3l38 129h13v-130h163l2 -1l-2 -17h-163l-1 -141h124v-18h-124q-1 -55 -1 -159q0 -56 18.5 -78.5t53.5 -22.5q45 0 67 37t30 113z" />
    <glyph glyph-name="Utilde" unicode="&#x168;" horiz-adv-x="719" 
d="M128 250v297q0 63 -2.5 89.5t-8 34t-19.5 9.5l-81 10v10h270v-10l-81 -10q-14 -2 -19.5 -9.5t-8 -34t-2.5 -89.5v-298q0 -239 213 -239q202 0 202 250q0 200 -4 284t-16 110t-40 29l-113 6v11h284v-11l-59 -5q-18 -4 -24.5 -27.5t-8 -99.5t-1.5 -300q0 -273 -239 -273
q-242 0 -242 266zM278.5 846.5q13.5 21.5 37.5 21.5q14 0 26 -5t32 -16q11 -6 23.5 -11.5t22.5 -5.5q31 0 39 49l11 -2q-2 -39 -15.5 -60.5t-37.5 -21.5t-58 20q-16 9 -25.5 13t-20.5 4q-31 0 -39 -48l-11 2q2 39 15.5 60.5z" />
    <glyph glyph-name="utilde" unicode="&#x169;" horiz-adv-x="525" 
d="M118.5 20q-25.5 35 -24.5 101l1 231q0 32 -2 44.5t-7.5 16.5t-19.5 5l-46 1v10l115 35l5 -1l-1 -111v-218q0 -57 19.5 -83.5t71.5 -26.5q38 0 78 18.5t71 46.5l1 263q0 32 -2 44.5t-7.5 16.5t-20.5 5l-46 1v10l115 35l5 -1v-111l-1 -249q0 -29 2 -41.5t8 -17t20 -5.5
l48 -1v-11l-111 -34l-10 1v74h-3q-41 -38 -84.5 -60.5t-83.5 -22.5q-65 0 -90.5 35zM171.5 604.5q13.5 21.5 37.5 21.5q14 0 26 -5t32 -16q11 -6 23.5 -11.5t22.5 -5.5q31 0 39 49l11 -2q-2 -39 -15.5 -60.5t-37.5 -21.5t-58 20q-16 9 -25.5 13t-20.5 4q-31 0 -39 -48l-11 2
q2 39 15.5 60.5z" />
    <glyph glyph-name="Umacron" unicode="&#x16a;" horiz-adv-x="719" 
d="M128 250v297q0 63 -2.5 89.5t-8 34t-19.5 9.5l-81 10v10h270v-10l-81 -10q-14 -2 -19.5 -9.5t-8 -34t-2.5 -89.5v-298q0 -239 213 -239q202 0 202 250q0 200 -4 284t-16 110t-40 29l-113 6v11h284v-11l-59 -5q-18 -4 -24.5 -27.5t-8 -99.5t-1.5 -300q0 -273 -239 -273
q-242 0 -242 266zM253 799v21h227l-1 -21h-226z" />
    <glyph glyph-name="umacron" unicode="&#x16b;" horiz-adv-x="525" 
d="M118.5 20q-25.5 35 -24.5 101l1 231q0 32 -2 44.5t-7.5 16.5t-19.5 5l-46 1v10l115 35l5 -1l-1 -111v-218q0 -57 19.5 -83.5t71.5 -26.5q38 0 78 18.5t71 46.5l1 263q0 32 -2 44.5t-7.5 16.5t-20.5 5l-46 1v10l115 35l5 -1v-111l-1 -249q0 -29 2 -41.5t8 -17t20 -5.5
l48 -1v-11l-111 -34l-10 1v74h-3q-41 -38 -84.5 -60.5t-83.5 -22.5q-65 0 -90.5 35zM362 553h-206v21h206v-21z" />
    <glyph glyph-name="Ubreve" unicode="&#x16c;" horiz-adv-x="719" 
d="M128 250v297q0 63 -2.5 89.5t-8 34t-19.5 9.5l-81 10v10h270v-10l-81 -10q-14 -2 -19.5 -9.5t-8 -34t-2.5 -89.5v-298q0 -239 213 -239q202 0 202 250q0 200 -4 284t-16 110t-40 29l-113 6v11h284v-11l-59 -5q-18 -4 -24.5 -27.5t-8 -99.5t-1.5 -300q0 -273 -239 -273
q-242 0 -242 266zM289.5 812.5q-28.5 28.5 -24.5 75.5l13 3q1 -31 24 -49.5t64 -18.5q42 0 65 18.5t23 49.5l13 -3q4 -47 -24 -75.5t-77 -28.5q-48 0 -76.5 28.5z" />
    <glyph glyph-name="ubreve" unicode="&#x16d;" horiz-adv-x="525" 
d="M118.5 20q-25.5 35 -24.5 101l1 231q0 32 -2 44.5t-7.5 16.5t-19.5 5l-46 1v10l115 35l5 -1l-1 -111v-218q0 -57 19.5 -83.5t71.5 -26.5q38 0 78 18.5t71 46.5l1 263q0 32 -2 44.5t-7.5 16.5t-20.5 5l-46 1v10l115 35l5 -1v-111l-1 -249q0 -29 2 -41.5t8 -17t20 -5.5
l48 -1v-11l-111 -34l-10 1v74h-3q-41 -38 -84.5 -60.5t-83.5 -22.5q-65 0 -90.5 35zM182.5 571.5q-27.5 32.5 -26.5 97.5l12 4q3 -49 26 -72t65 -23q44 0 66.5 23t25.5 72l12 -4q2 -65 -26 -97.5t-78 -32.5q-49 0 -76.5 32.5z" />
    <glyph glyph-name="Uring" unicode="&#x16e;" horiz-adv-x="719" 
d="M128 250v297q0 63 -2.5 89.5t-8 34t-19.5 9.5l-81 10v10h270v-10l-81 -10q-14 -2 -19.5 -9.5t-8 -34t-2.5 -89.5v-298q0 -239 213 -239q202 0 202 250q0 200 -4 284t-16 110t-40 29l-113 6v11h284v-11l-59 -5q-18 -4 -24.5 -27.5t-8 -99.5t-1.5 -300q0 -273 -239 -273
q-242 0 -242 266zM414 894q17 -18 17 -46t-17 -45.5t-49 -17.5q-30 0 -47 18t-17 45q0 28 17 46t47 18q32 0 49 -18zM401 814q12 13 12 34t-12 34.5t-35 13.5t-35 -13.5t-12 -34.5t12 -34t35 -13t35 13z" />
    <glyph glyph-name="uring" unicode="&#x16f;" horiz-adv-x="525" 
d="M118.5 20q-25.5 35 -24.5 101l1 231q0 32 -2 44.5t-7.5 16.5t-19.5 5l-46 1v10l115 35l5 -1l-1 -111v-218q0 -57 19.5 -83.5t71.5 -26.5q38 0 78 18.5t71 46.5l1 263q0 32 -2 44.5t-7.5 16.5t-20.5 5l-46 1v10l115 35l5 -1v-111l-1 -249q0 -29 2 -41.5t8 -17t20 -5.5
l48 -1v-11l-111 -34l-10 1v74h-3q-41 -38 -84.5 -60.5t-83.5 -22.5q-65 0 -90.5 35zM313 663q21 -20 21 -53t-21 -53t-54 -20t-53.5 20t-20.5 53t20.5 53t53.5 20t54 -20zM297 571.5q14 14.5 14 38.5t-14 38.5t-37 14.5q-24 0 -38 -14.5t-14 -38.5t14 -38.5t38 -14.5
q23 0 37 14.5z" />
    <glyph glyph-name="Uhungarumlaut" unicode="&#x170;" horiz-adv-x="719" 
d="M128 250v297q0 63 -2.5 89.5t-8 34t-19.5 9.5l-81 10v10h270v-10l-81 -10q-14 -2 -19.5 -9.5t-8 -34t-2.5 -89.5v-298q0 -239 213 -239q202 0 202 250q0 200 -4 284t-16 110t-40 29l-113 6v11h284v-11l-59 -5q-18 -4 -24.5 -27.5t-8 -99.5t-1.5 -300q0 -273 -239 -273
q-242 0 -242 266zM397 933l-99 -153l-10 2l59 154l50 3v-6zM516 933l-99 -153l-10 2l58 154l51 3v-6z" />
    <glyph glyph-name="uhungarumlaut" unicode="&#x171;" horiz-adv-x="525" 
d="M118.5 20q-25.5 35 -24.5 101l1 231q0 32 -2 44.5t-7.5 16.5t-19.5 5l-46 1v10l115 35l5 -1l-1 -111v-218q0 -57 19.5 -83.5t71.5 -26.5q38 0 78 18.5t71 46.5l1 263q0 32 -2 44.5t-7.5 16.5t-20.5 5l-46 1v10l115 35l5 -1v-111l-1 -249q0 -29 2 -41.5t8 -17t20 -5.5
l48 -1v-11l-111 -34l-10 1v74h-3q-41 -38 -84.5 -60.5t-83.5 -22.5q-65 0 -90.5 35zM288 680l-99 -153l-10 2l59 154l50 3v-6zM407 680l-99 -153l-10 2l58 154l51 3v-6z" />
    <glyph glyph-name="Uogonek" unicode="&#x172;" horiz-adv-x="719" 
d="M702 700v-11l-59 -5q-18 -4 -24.5 -27.5t-8 -99.5t-1.5 -300q0 -186 -111 -245v-1q-100 -41 -100 -100q0 -24 14.5 -36.5t38.5 -12.5q21 0 36 6t31 17l5 -9q-34 -39 -88 -39q-35 0 -58 18.5t-23 49.5q0 46 61 82q-22 -3 -45 -3q-242 0 -242 266v297q0 63 -2.5 89.5t-8 34
t-19.5 9.5l-81 10v10h270v-10l-81 -10q-14 -2 -19.5 -9.5t-8 -34t-2.5 -89.5v-298q0 -239 213 -239q202 0 202 250q0 200 -4 284t-16 110t-40 29l-113 6v11h284z" />
    <glyph glyph-name="uogonek" unicode="&#x173;" horiz-adv-x="525" 
d="M296 -104q0 -24 14.5 -36.5t38.5 -12.5q21 0 36 6t31 17l5 -9q-34 -39 -88 -39q-35 0 -58 18.5t-23 49.5q0 36 36 65t92 45v68h-3q-41 -38 -84.5 -60.5t-83.5 -22.5q-65 0 -90.5 35t-24.5 101l1 231q0 32 -2 44.5t-7.5 16.5t-19.5 5l-46 1v10l115 35l5 -1l-1 -111v-218
q0 -57 19.5 -83.5t71.5 -26.5q38 0 78 18.5t71 46.5l1 263q0 32 -2 44.5t-7.5 16.5t-20.5 5l-46 1v10l115 35l5 -1v-111l-1 -249q0 -29 2 -41.5t8 -17t20 -5.5l48 -1v-11l-111 -34h-1q-93 -40 -93 -97z" />
    <glyph glyph-name="Wcircumflex" unicode="&#x174;" horiz-adv-x="984" 
d="M978 700v-10q-30 -7 -44 -14t-21.5 -20t-17.5 -42l-212 -622h-12l-183 526l-172 -526h-13l-222 636q-8 24 -14.5 34t-19.5 16t-41 12v10h258v-11l-108 -8q-18 -2 -25.5 -6t-7.5 -14q0 -8 4 -19l198 -571l143 459q3 9 3 18q0 17 -19 70q-10 29 -17.5 41.5t-20 18.5
t-40.5 12v10h245v-11l-96 -8q-17 -2 -24.5 -5.5t-7.5 -14.5q0 -9 4 -20l197 -571l172 517q13 40 13 62q0 16 -8.5 23t-26.5 9l-109 8v11h245zM475 897h17l114 -110l-8 -8q-52 35 -115 73q-76 -48 -114 -73l-8 8z" />
    <glyph glyph-name="wcircumflex" unicode="&#x175;" horiz-adv-x="698" 
d="M693 457v-10q-26 -8 -36.5 -18t-18.5 -33l-142 -408h-12l-138 394l-147 -394h-12l-135 423q-7 20 -15 26t-32 10v10h180v-11l-63 -5q-14 -2 -19.5 -5.5t-5.5 -10.5q0 -8 2 -13l109 -358l141 406h14l141 -407l106 332q5 18 5 27q0 14 -8 21t-24 10l-67 3v11h177zM343 681
h16q57 -65 115 -142l-9 -8q-64 62 -114 104q-44 -37 -115 -104l-9 8q72 93 116 142z" />
    <glyph glyph-name="Ycircumflex" unicode="&#x176;" horiz-adv-x="612" 
d="M606 700v-10q-31 -5 -46.5 -12t-26.5 -21t-29 -47l-173 -306v-151q0 -63 3 -90t10.5 -34.5t24.5 -9.5l106 -9v-10h-337v10l107 9q17 2 24 9.5t10.5 35t3.5 89.5v150l-193 333q-12 21 -20.5 30t-22 14t-41.5 10v10h266v-11l-114 -7q-24 -3 -24 -18q0 -8 8 -24l181 -316
l160 293q14 28 14 41q0 11 -8.5 16t-26.5 7l-108 8v11h252zM304 897h17l114 -110l-8 -8q-52 35 -115 73q-76 -48 -114 -73l-8 8z" />
    <glyph glyph-name="ycircumflex" unicode="&#x177;" horiz-adv-x="456" 
d="M451 457v-9q-29 -8 -39 -18t-20 -34l-152 -379q-29 -70 -56.5 -113t-67 -67t-96.5 -25l-8 56l2 1q11 -2 34 -2q53 0 94.5 29t70.5 101l-158 415q-7 18 -16 25t-35 11v9h190v-10l-68 -6q-15 -2 -21 -6t-6 -11q0 -5 3 -13l135 -361l125 334q7 18 7 31t-7.5 19.5t-22.5 8.5
l-67 4v10h179zM231 681h16q57 -65 115 -142l-9 -8q-64 62 -114 104q-44 -37 -115 -104l-9 8q72 93 116 142z" />
    <glyph glyph-name="Ydieresis" unicode="&#x178;" horiz-adv-x="612" 
d="M606 700v-10q-31 -5 -46.5 -12t-26.5 -21t-29 -47l-173 -306v-151q0 -63 3 -90t10.5 -34.5t24.5 -9.5l106 -9v-10h-337v10l107 9q17 2 24 9.5t10.5 35t3.5 89.5v150l-193 333q-12 21 -20.5 30t-22 14t-41.5 10v10h266v-11l-114 -7q-24 -3 -24 -18q0 -8 8 -24l181 -316
l160 293q14 28 14 41q0 11 -8.5 16t-26.5 7l-108 8v11h252zM214 802q-9 8 -9 23t9 23t25 8q15 0 24 -8t9 -23t-9 -23t-24 -8q-16 0 -25 8zM359 802q-9 8 -9 23t9 23t25 8q15 0 24 -8t9 -23t-9 -23t-24 -8q-16 0 -25 8z" />
    <glyph glyph-name="Zacute" unicode="&#x179;" horiz-adv-x="587" 
d="M542 255l-18 -258h-2q-16 3 -69 3h-420v12q31 44 122 186l20 31l163 253q94 145 128 204l-295 -7q-27 -2 -39.5 -14.5t-21.5 -54.5t-21 -146h-10v242h1q32 -6 93 -6h353v-12q-18 -26 -52 -81l-85 -134l-163 -253l-81 -126q-44 -68 -51 -80l336 7q28 2 42.5 15.5t28 61.5
t30.5 157h11zM394 855l-174 -73l-6 7l146 106l34 -34v-6z" />
    <glyph glyph-name="zacute" unicode="&#x17a;" horiz-adv-x="428" 
d="M397 179l-23 -179h-337v12l281 430l-184 -4q-24 -2 -35 -10.5t-19 -37t-18 -96.5h-9l1 167q19 -4 63 -4h255v-11l-281 -431l210 5q22 1 32 9.5t20.5 38t34.5 112.5zM293 684l-118 -151l-11 3l76 156l53 -2v-6z" />
    <glyph glyph-name="Zdotaccent" unicode="&#x17b;" horiz-adv-x="587" 
d="M542 255l-18 -258h-2q-16 3 -69 3h-420v12q31 44 122 186l20 31l163 253q94 145 128 204l-295 -7q-27 -2 -39.5 -14.5t-21.5 -54.5t-21 -146h-10v242h1q32 -6 93 -6h353v-12q-18 -26 -52 -81l-85 -134l-163 -253l-81 -126q-44 -68 -51 -80l336 7q28 2 42.5 15.5t28 61.5
t30.5 157h11zM269.5 806.5q-11.5 10.5 -11.5 29.5t11.5 29t30.5 10t30 -10t11 -29t-11 -29.5t-30 -10.5t-30.5 10.5z" />
    <glyph glyph-name="zdotaccent" unicode="&#x17c;" horiz-adv-x="428" 
d="M397 179l-23 -179h-337v12l281 430l-184 -4q-24 -2 -35 -10.5t-19 -37t-18 -96.5h-9l1 167q19 -4 63 -4h255v-11l-281 -431l210 5q22 1 32 9.5t20.5 38t34.5 112.5zM180.5 563.5q-11.5 10.5 -11.5 29.5t11.5 29t30.5 10t30 -10t11 -29t-11 -29.5t-30 -10.5t-30.5 10.5z
" />
    <glyph glyph-name="Zcaron" unicode="&#x17d;" horiz-adv-x="587" 
d="M542 255l-18 -258h-2q-16 3 -69 3h-420v12q31 44 122 186l20 31l163 253q94 145 128 204l-295 -7q-27 -2 -39.5 -14.5t-21.5 -54.5t-21 -146h-10v242h1q32 -6 93 -6h353v-12q-18 -26 -52 -81l-85 -134l-163 -253l-81 -126q-44 -68 -51 -80l336 7q28 2 42.5 15.5t28 61.5
t30.5 157h11zM300 826l115 74l8 -9l-114 -110h-17l-114 110l8 9z" />
    <glyph glyph-name="zcaron" unicode="&#x17e;" horiz-adv-x="428" 
d="M397 179l-23 -179h-337v12l281 430l-184 -4q-24 -2 -35 -10.5t-19 -37t-18 -96.5h-9l1 167q19 -4 63 -4h255v-11l-281 -431l210 5q22 1 32 9.5t20.5 38t34.5 112.5zM212 578q43 36 114 105l9 -9q-69 -90 -115 -141h-16q-31 33 -60.5 71t-36.5 46t-19 24l9 9
q79 -75 115 -105z" />
    <glyph glyph-name="florin" unicode="&#x192;" horiz-adv-x="561" 
d="M6 -130l11 46l1 1q35 -8 75 -8q41 0 67 32t36 88q4 27 5 57q5 73 11 111l42 242h-70l3 16l71 4l6 34q13 70 46.5 127t83.5 90.5t108 33.5q29 0 53 -7l-11 -47h-1q-38 7 -72 7q-70 0 -113 -45t-58 -132q-3 -15 -3 -30q0 -18 5 -33h156l1 -2l-3 -16h-157l-65 -370
q-16 -90 -64.5 -148t-112.5 -58q-29 0 -51 7z" />
    <glyph glyph-name="uni01CD" unicode="&#x1cd;" horiz-adv-x="654" 
d="M589 39.5q7 -11.5 19.5 -17.5t39.5 -12v-10h-254v10l114 9q13 1 18.5 4.5t5.5 12.5t-6 25l-77 210q-160 2 -266 2l-54 -150q-24 -63 -24 -81q0 -11 6 -16t21 -7l113 -9v-10h-239v10q32 7 46 16.5t28 35.5t39 91l186 511l-16 42v6h57q5 -35 36 -123l191 -514
q9 -24 16 -35.5zM264 291q124 0 178 1l-127 347l-126 -348h75zM324 826l115 74l8 -9l-114 -110h-17l-114 110l8 9z" />
    <glyph glyph-name="uni01CE" unicode="&#x1ce;" horiz-adv-x="464" 
d="M72 16.5q-29 31.5 -29 77.5q0 60 49 93.5t159 56.5l53 11l1 72q0 119 -96 119q-57 0 -85.5 -38t-24.5 -115h-50q9 85 56.5 132t120.5 47q60 0 91.5 -34.5t31.5 -98.5v-36l-2 -192q0 -87 42 -87q30 0 42 28.5t14 98.5h10q2 -84 -16 -123.5t-63 -39.5q-33 0 -51.5 26
t-18.5 81h-4q-64 -110 -153 -110q-48 0 -77 31.5zM246.5 52q33.5 28 58.5 71v116l-46 -14q-93 -24 -133 -49t-40 -70q0 -37 21.5 -59.5t57.5 -22.5q48 0 81.5 28zM216 578q43 36 114 105l9 -9q-69 -90 -115 -141h-16q-31 33 -60.5 71t-36.5 46t-19 24l9 9q79 -75 115 -105z
" />
    <glyph glyph-name="uni01CF" unicode="&#x1cf;" horiz-adv-x="317" 
d="M131.5 636.5q-2.5 26.5 -8 34t-19.5 9.5l-81 10v10h270v-10l-81 -10q-14 -2 -19.5 -9.5t-8 -34t-2.5 -89.5l1 -394q0 -63 2.5 -89.5t8 -34t18.5 -9.5l82 -10v-10h-270v10l81 10q13 2 18.5 9.5t8 34t2.5 89.5v394q0 63 -2.5 89.5zM158 826l115 74l8 -9l-114 -110h-17
l-114 110l8 9z" />
    <glyph glyph-name="uni01D0" unicode="&#x1d0;" horiz-adv-x="264" 
d="M109 396.5q-2 12.5 -7.5 16.5t-19.5 5l-46 1v10l114 35l6 -1q-1 -31 -1 -111v-261q0 -33 2 -47.5t7 -19t16 -6.5l59 -7v-11h-214v11l59 7q11 2 16 6.5t7.5 19t2.5 47.5l1 261q0 32 -2 44.5zM137 578q43 36 114 105l9 -9q-69 -90 -115 -141h-16q-31 33 -60.5 71t-36.5 46
t-19 24l9 9q79 -75 115 -105z" />
    <glyph glyph-name="uni01D1" unicode="&#x1d1;" horiz-adv-x="705" 
d="M181.5 29q-69.5 44 -107 124.5t-37.5 186.5q0 110 41 195.5t114.5 133t168.5 47.5q94 0 163.5 -44t106.5 -124t37 -185q0 -111 -40.5 -197t-114.5 -133.5t-169 -47.5q-93 0 -162.5 44zM493 50q57 41 88.5 115.5t31.5 173.5q0 106 -33.5 186t-94 123.5t-139.5 43.5
q-76 0 -133.5 -41t-89 -115.5t-31.5 -172.5q0 -107 33.5 -187t94 -123.5t140.5 -43.5q76 0 133 41zM352 826l115 74l8 -9l-114 -110h-17l-114 110l8 9z" />
    <glyph glyph-name="uni01D2" unicode="&#x1d2;" horiz-adv-x="483" 
d="M91 49.5q-54 63.5 -54 171.5q0 73 26.5 130t74 89t108.5 32q92 0 146 -64t54 -171q0 -74 -26.5 -131t-74 -88.5t-107.5 -31.5q-93 0 -147 63.5zM356 66.5q40 59.5 40 153.5q0 104 -42 167.5t-115 63.5q-71 0 -111.5 -59.5t-40.5 -154.5q0 -103 42.5 -166.5t115.5 -63.5
q71 0 111 59.5zM248 578q43 36 114 105l9 -9q-69 -90 -115 -141h-16q-31 33 -60.5 71t-36.5 46t-19 24l9 9q79 -75 115 -105z" />
    <glyph glyph-name="uni01D3" unicode="&#x1d3;" horiz-adv-x="719" 
d="M128 250v297q0 63 -2.5 89.5t-8 34t-19.5 9.5l-81 10v10h270v-10l-81 -10q-14 -2 -19.5 -9.5t-8 -34t-2.5 -89.5v-298q0 -239 213 -239q202 0 202 250q0 200 -4 284t-16 110t-40 29l-113 6v11h284v-11l-59 -5q-18 -4 -24.5 -27.5t-8 -99.5t-1.5 -300q0 -273 -239 -273
q-242 0 -242 266zM366 826l115 74l8 -9l-114 -110h-17l-114 110l8 9z" />
    <glyph glyph-name="uni01D4" unicode="&#x1d4;" horiz-adv-x="525" 
d="M118.5 20q-25.5 35 -24.5 101l1 231q0 32 -2 44.5t-7.5 16.5t-19.5 5l-46 1v10l115 35l5 -1l-1 -111v-218q0 -57 19.5 -83.5t71.5 -26.5q38 0 78 18.5t71 46.5l1 263q0 32 -2 44.5t-7.5 16.5t-20.5 5l-46 1v10l115 35l5 -1v-111l-1 -249q0 -29 2 -41.5t8 -17t20 -5.5
l48 -1v-11l-111 -34l-10 1v74h-3q-41 -38 -84.5 -60.5t-83.5 -22.5q-65 0 -90.5 35zM260 578q43 36 114 105l9 -9q-69 -90 -115 -141h-16q-31 33 -60.5 71t-36.5 46t-19 24l9 9q79 -75 115 -105z" />
    <glyph glyph-name="Gcaron" unicode="&#x1e6;" horiz-adv-x="675" 
d="M650 325v-10q-31 -4 -43.5 -11t-16.5 -23t-4 -53v-260h-9l-30 74q-25 -22 -75.5 -39.5t-123.5 -17.5q-95 0 -165 44t-108 126t-38 193q0 107 42.5 191t119.5 130.5t175 46.5q62 0 111 -16t81 -40l-49 -165h-8q3 29 3 53q0 83 -37 113.5t-113 30.5q-82 0 -143.5 -43
t-94.5 -119t-33 -171q0 -107 32.5 -186t93 -122t143.5 -43q70 0 113.5 17t65.5 35v167q0 35 -3 49.5t-10.5 19.5t-27.5 8l-170 11v10h322zM363 826l115 74l8 -9l-114 -110h-17l-114 110l8 9z" />
    <glyph glyph-name="gcaron" unicode="&#x1e7;" horiz-adv-x="463" 
d="M449 458q-84 -8 -125 -11q32 -20 49 -51.5t17 -69.5q0 -48 -22 -86t-60.5 -59.5t-86.5 -21.5q-36 0 -63 10q-24 -32 -32.5 -48.5t-8.5 -29.5q0 -12 9.5 -17.5t30.5 -7t65 -1.5q72 0 116 -6.5t70.5 -27.5t26.5 -63t-34.5 -78t-94.5 -58t-134 -22q-69 0 -111 23.5t-42 63.5
q0 30 20 58.5t75 75.5q-19 5 -27.5 13.5t-8.5 22.5q0 16 15 40t53 67q-40 17 -62.5 53.5t-22.5 84.5q0 45 22 81.5t60.5 57.5t87.5 21q127 0 218 -4v-10zM315.5 215.5q31.5 36.5 31.5 97.5t-35.5 100t-92.5 39q-51 0 -82.5 -35t-31.5 -92q0 -66 35 -106t91 -40
q53 0 84.5 36.5zM352 8.5q-43 15.5 -133 15.5q-60 0 -91 4q-68 -62 -68 -111q0 -35 35.5 -59t106.5 -24q79 0 136 31t57 84q0 44 -43 59.5zM223 578q43 36 114 105l9 -9q-69 -90 -115 -141h-16q-31 33 -60.5 71t-36.5 46t-19 24l9 9q79 -75 115 -105z" />
    <glyph glyph-name="uni01EA" unicode="&#x1ea;" horiz-adv-x="705" 
d="M356 -94q0 -24 14.5 -36.5t38.5 -12.5q21 0 36 6t31 17l5 -9q-34 -39 -88 -39q-35 0 -58 18.5t-23 49.5q0 25 19 47.5t51 39.5q-24 -2 -38 -2q-93 0 -162.5 44t-107 124.5t-37.5 186.5q0 110 41 195.5t114.5 133t168.5 47.5q94 0 163.5 -44t106.5 -124t37 -185
q0 -139 -61.5 -235.5t-167.5 -128.5q-83 -40 -83 -93zM125.5 176q33.5 -80 94 -123.5t140.5 -43.5q76 0 133 41t88.5 115.5t31.5 173.5q0 106 -33.5 186t-94 123.5t-139.5 43.5q-76 0 -133.5 -41t-89 -115.5t-31.5 -172.5q0 -107 33.5 -187z" />
    <glyph glyph-name="uni01EB" unicode="&#x1eb;" horiz-adv-x="483" 
d="M213 -99q0 -24 14.5 -36.5t38.5 -12.5q21 0 36 6t31 17l5 -9q-34 -39 -88 -39q-35 0 -58 18.5t-23 49.5q0 27 21 50.5t58 40.5h-10q-93 0 -147 63.5t-54 171.5q0 73 26.5 130t74 89t108.5 32q92 0 146 -64t54 -171q0 -90 -39 -154.5t-105 -86.5q-89 -39 -89 -95z
M129.5 70.5q42.5 -63.5 115.5 -63.5q71 0 111 59.5t40 153.5q0 104 -42 167.5t-115 63.5q-71 0 -111.5 -59.5t-40.5 -154.5q0 -103 42.5 -166.5z" />
    <glyph glyph-name="Aringacute" unicode="&#x1fa;" horiz-adv-x="654" 
d="M415 1017l-166 -70l-6 7l139 101l33 -33v-5zM276 894q17 18 47 18q32 0 49 -18t17 -46t-17 -45.5t-49 -17.5q-30 0 -47 18t-17 45q0 28 17 46zM359 882.5q-12 13.5 -35 13.5t-35 -13.5t-12 -34.5t12 -34t35 -13t35 13t12 34t-12 34.5zM589 39.5q7 -11.5 19.5 -17.5
t39.5 -12v-10h-254v10l114 9q13 1 18.5 4.5t5.5 12.5t-6 25l-77 210q-160 2 -266 2l-54 -150q-24 -63 -24 -81q0 -11 6 -16t21 -7l113 -9v-10h-239v10q32 7 46 16.5t28 35.5t39 91l186 511l-16 42v6h57q5 -35 36 -123l191 -514q9 -24 16 -35.5zM264 291q124 0 178 1
l-127 347l-126 -348h75z" />
    <glyph glyph-name="aringacute" unicode="&#x1fb;" horiz-adv-x="464" 
d="M72 16.5q-29 31.5 -29 77.5q0 60 49 93.5t159 56.5l53 11l1 72q0 119 -96 119q-57 0 -85.5 -38t-24.5 -115h-50q9 85 56.5 132t120.5 47q60 0 91.5 -34.5t31.5 -98.5v-36l-2 -192q0 -87 42 -87q30 0 42 28.5t14 98.5h10q2 -84 -16 -123.5t-63 -39.5q-33 0 -51.5 26
t-18.5 81h-4q-64 -110 -153 -110q-48 0 -77 31.5zM246.5 52q33.5 28 58.5 71v116l-46 -14q-93 -24 -133 -49t-40 -70q0 -37 21.5 -59.5t57.5 -22.5q48 0 81.5 28zM270 663q21 -20 21 -53t-21 -53t-54 -20t-53.5 20t-20.5 53t20.5 53t53.5 20t54 -20zM254 571.5
q14 14.5 14 38.5t-14 38.5t-37 14.5q-24 0 -38 -14.5t-14 -38.5t14 -38.5t38 -14.5q23 0 37 14.5zM300 857l-118 -151l-11 3l76 156l53 -2v-6z" />
    <glyph glyph-name="AEacute" unicode="&#x1fc;" horiz-adv-x="942" 
d="M909 263l-26 -266h-1q-24 3 -81 3h-431v10l81 9q13 2 18.5 9.5t8 34.5t2.5 90v120q-39 1 -125 1q-80 0 -110 -1l-92 -150q-22 -37 -31.5 -56.5t-9.5 -29.5q0 -9 6 -12.5t19 -5.5l111 -8v-11h-242v9l26 4q19 5 41.5 29t60.5 86l335 544q-6 8 -18 9l-81 9v10h383q53 0 87 6
l-1 -251h-10q-10 109 -18.5 153.5t-21 56.5t-40.5 14l-215 4q-6 -22 -6 -216v-92l229 6v-29l-229 7v-134q0 -99 3.5 -141.5t12.5 -55t29 -10.5l224 2q24 2 38 17.5t29 65.5t36 161zM480 291v256q0 79 -4 104l-220 -360h224zM703 855l-174 -73l-6 7l146 106l34 -34v-6z" />
    <glyph glyph-name="aeacute" unicode="&#x1fd;" horiz-adv-x="711" 
d="M678 200q-2 -100 -48.5 -157.5t-129.5 -57.5q-56 0 -102.5 30t-70.5 87q-35 -51 -80.5 -84t-97.5 -33q-48 0 -77 31.5t-29 78.5q0 54 48.5 85t159.5 56l54 12l1 79q0 63 -24.5 90.5t-72.5 27.5q-52 0 -80 -37t-24 -109l-49 1q9 80 56 126t113 46q104 0 122 -93
q28 45 69.5 69t87.5 24q76 0 122.5 -50.5t46.5 -147.5l-7 -8l-312 4q-2 -22 -2 -35q0 -97 44 -155.5t118 -58.5q69 0 108.5 47.5t44.5 131.5h11zM405 407q-40 -44 -50 -121l268 3q1 4 1 18q0 30 -10.5 62.5t-38 57t-74.5 24.5q-56 0 -96 -44zM320 118q-15 44 -15 100v14
l-46 -13q-94 -24 -133.5 -48t-39.5 -67q0 -36 22 -58t58 -22q82 0 154 94zM437 684l-118 -151l-11 3l76 156l53 -2v-6z" />
    <glyph glyph-name="uni0218" unicode="&#x218;" horiz-adv-x="503" 
d="M119 -0.5q-51 14.5 -81 35.5l23 158l8 -1q3 -72 22.5 -112.5t53 -56.5t84.5 -16q83 0 131.5 42t48.5 120q0 43 -18 73.5t-57 56t-108 52.5q-65 26 -101.5 53.5t-52.5 62t-16 82.5q0 77 55.5 122t145.5 45q61 0 113.5 -15.5t81.5 -38.5l-44 -150l-8 1q2 15 2 42
q0 79 -36.5 109t-108.5 30q-69 0 -112 -36t-43 -101q0 -38 12 -65t43 -50.5t88 -46.5q74 -30 117.5 -55.5t68.5 -63t25 -93.5q0 -57 -27.5 -102t-80 -70.5t-124.5 -25.5q-54 0 -105 14.5zM203.5 -44.5q8.5 10.5 22.5 10.5q15 0 22.5 -10.5t7.5 -28.5q0 -78 -81 -116l-5 8
q29 17 42 38t13 41q0 28 -29 29q-1 18 7.5 28.5z" />
    <glyph glyph-name="uni0219" unicode="&#x219;" horiz-adv-x="388" 
d="M102 -5.5q-40 10.5 -60 21.5l11 124h5q13 -77 41.5 -105.5t88.5 -28.5q58 0 88.5 25t30.5 66q0 27 -11 46t-38.5 35.5t-80.5 37.5q-68 27 -95.5 57t-27.5 76q0 56 42.5 89.5t107.5 33.5q75 0 134 -38l-32 -110h-6q1 73 -25.5 100t-79.5 27q-45 0 -74.5 -23t-29.5 -64
q0 -35 22.5 -57t80.5 -45q59 -24 90 -42.5t45.5 -42.5t14.5 -60q0 -61 -43.5 -97t-116.5 -36q-42 0 -82 10.5zM152.5 -45.5q8.5 10.5 22.5 10.5q15 0 22.5 -10.5t7.5 -28.5q0 -78 -81 -116l-5 8q29 17 42 38t13 41q0 28 -29 29q-1 18 7.5 28.5z" />
    <glyph glyph-name="uni021A" unicode="&#x21a;" horiz-adv-x="613" 
d="M582 706l-1 -272h-12q-12 124 -20.5 171.5t-20.5 60.5t-42 15l-154 2q-3 -81 -3 -227v-303q0 -63 3 -90t10.5 -34.5t24.5 -9.5l106 -9v-10h-336v10l106 9q17 2 24.5 9.5t10.5 34.5t3 90v303q0 175 -4 227l-153 -2q-27 -2 -38 -13.5t-20 -59.5t-25 -174h-12l6 272h1
q34 -6 80 -6h378q49 0 87 6h1zM270.5 -42.5q8.5 10.5 22.5 10.5q15 0 22.5 -10.5t7.5 -28.5q0 -78 -81 -116l-5 8q29 17 42 38t13 41q0 28 -29 29q-1 18 7.5 28.5z" />
    <glyph glyph-name="uni021B" unicode="&#x21b;" horiz-adv-x="331" 
d="M81 106q0 46 2 174q2 102 2 157l-69 2v16l61 3l38 129h13v-130h163l2 -1l-2 -17h-163q-2 -212 -2 -318q0 -56 18.5 -78.5t53.5 -22.5q45 0 67 37t30 113l11 -1q-8 -184 -124 -184q-101 0 -101 121zM149.5 -45.5q8.5 10.5 22.5 10.5q15 0 22.5 -10.5t7.5 -28.5
q0 -78 -81 -116l-5 8q29 17 42 38t13 41q0 28 -29 29q-1 18 7.5 28.5z" />
    <glyph glyph-name="uni0232" unicode="&#x232;" horiz-adv-x="612" 
d="M606 700v-10q-31 -5 -46.5 -12t-26.5 -21t-29 -47l-173 -306v-151q0 -63 3 -90t10.5 -34.5t24.5 -9.5l106 -9v-10h-337v10l107 9q17 2 24 9.5t10.5 35t3.5 89.5v150l-193 333q-12 21 -20.5 30t-22 14t-41.5 10v10h266v-11l-114 -7q-24 -3 -24 -18q0 -8 8 -24l181 -316
l160 293q14 28 14 41q0 11 -8.5 16t-26.5 7l-108 8v11h252zM199 799v21h227l-1 -21h-226z" />
    <glyph glyph-name="uni0233" unicode="&#x233;" horiz-adv-x="456" 
d="M451 457v-9q-29 -8 -39 -18t-20 -34l-152 -379q-29 -70 -56.5 -113t-67 -67t-96.5 -25l-8 56l2 1q11 -2 34 -2q53 0 94.5 29t70.5 101l-158 415q-7 18 -16 25t-35 11v9h190v-10l-68 -6q-15 -2 -21 -6t-6 -11q0 -5 3 -13l135 -361l125 334q7 18 7 31t-7.5 19.5t-22.5 8.5
l-67 4v10h179zM342 553h-206v21h206v-21z" />
    <glyph glyph-name="uni0237" unicode="&#x237;" horiz-adv-x="211" 
d="M45.5 -132.5q25.5 29.5 39 77t13.5 123.5v284q0 32 -1.5 44.5t-7 16.5t-20.5 5l-46 1v10l115 35l5 -1v-112v-295q0 -104 -42 -164t-123 -90l-3 8q45 28 70.5 57.5z" />
    <glyph glyph-name="circumflex" unicode="&#x2c6;" horiz-adv-x="321" 
d="M153 700h16q57 -65 115 -142l-9 -8q-64 62 -114 104q-44 -37 -115 -104l-9 8q72 93 116 142z" />
    <glyph glyph-name="caron" unicode="&#x2c7;" horiz-adv-x="321" 
d="M161 611q50 42 114 104l9 -8q-58 -77 -115 -142h-16q-44 49 -116 142l9 8q71 -67 115 -104z" />
    <glyph glyph-name="breve" unicode="&#x2d8;" horiz-adv-x="281" 
d="M63.5 590.5q-27.5 32.5 -26.5 97.5l12 4q3 -49 26 -72t65 -23q44 0 66.5 23t25.5 72l12 -4q2 -65 -26 -97.5t-78 -32.5q-49 0 -76.5 32.5z" />
    <glyph glyph-name="dotaccent" unicode="&#x2d9;" horiz-adv-x="322" 
d="M130.5 563.5q-11.5 10.5 -11.5 29.5t11.5 29t30.5 10t30 -10t11 -29t-11 -29.5t-30 -10.5t-30.5 10.5z" />
    <glyph glyph-name="ring" unicode="&#x2da;" horiz-adv-x="223" 
d="M165 683q21 -20 21 -53t-21 -53t-54 -20t-53.5 20t-20.5 53t20.5 53t53.5 20t54 -20zM149 591.5q14 14.5 14 38.5t-14 38.5t-37 14.5q-24 0 -38 -14.5t-14 -38.5t14 -38.5t38 -14.5q23 0 37 14.5z" />
    <glyph glyph-name="ogonek" unicode="&#x2db;" horiz-adv-x="243" 
d="M60 -153.5q-23 18.5 -23 49.5q0 38 40 68t100 45l4 -7q-100 -41 -100 -100q0 -24 14.5 -36.5t38.5 -12.5q21 0 36 6t31 17l5 -9q-34 -39 -88 -39q-35 0 -58 18.5z" />
    <glyph glyph-name="tilde" unicode="&#x2dc;" horiz-adv-x="281" 
d="M52.5 622.5q13.5 21.5 37.5 21.5q14 0 26 -5t32 -16q11 -6 23.5 -11.5t22.5 -5.5q31 0 39 49l11 -2q-2 -39 -15.5 -60.5t-37.5 -21.5t-58 20q-16 9 -25.5 13t-20.5 4q-31 0 -39 -48l-11 2q2 39 15.5 60.5z" />
    <glyph glyph-name="hungarumlaut" unicode="&#x2dd;" horiz-adv-x="302" 
d="M146 699l-99 -153l-10 2l59 154l50 3v-6zM265 699l-99 -153l-10 2l58 154l51 3v-6z" />
    <glyph glyph-name="gravecomb" unicode="&#x300;" 
d="M-207 692l76 -156l-11 -3l-118 151v6z" />
    <glyph glyph-name="acutecomb" unicode="&#x301;" 
d="M-37 684l-118 -151l-11 3l76 156l53 -2v-6z" />
    <glyph glyph-name="uni0302" unicode="&#x302;" 
d="M-249 681h16q57 -65 115 -142l-9 -8q-64 62 -114 104q-44 -37 -115 -104l-9 8q72 93 116 142z" />
    <glyph glyph-name="tildecomb" unicode="&#x303;" 
d="M-339.5 604.5q13.5 21.5 37.5 21.5q14 0 26 -5t32 -16q11 -6 23.5 -11.5t22.5 -5.5q31 0 39 49l11 -2q-2 -39 -15.5 -60.5t-37.5 -21.5t-58 20q-16 9 -25.5 13t-20.5 4q-31 0 -39 -48l-11 2q2 39 15.5 60.5z" />
    <glyph glyph-name="uni0304" unicode="&#x304;" 
d="M-166 553h-206v21h206v-21z" />
    <glyph glyph-name="uni0306" unicode="&#x306;" 
d="M-284.5 571.5q-27.5 32.5 -26.5 97.5l12 4q3 -49 26 -72t65 -23q44 0 66.5 23t25.5 72l12 -4q2 -65 -26 -97.5t-78 -32.5q-49 0 -76.5 32.5z" />
    <glyph glyph-name="uni0307" unicode="&#x307;" 
d="M-191.5 563.5q-11.5 10.5 -11.5 29.5t11.5 29t30.5 10t30 -10t11 -29t-11 -29.5t-30 -10.5t-30.5 10.5z" />
    <glyph glyph-name="uni0308" unicode="&#x308;" 
d="M-260 560q-9 8 -9 23t9 23t25 8q15 0 24 -8t9 -23t-9 -23t-24 -8q-16 0 -25 8zM-115 560q-9 8 -9 23t9 23t25 8q15 0 24 -8t9 -23t-9 -23t-24 -8q-16 0 -25 8z" />
    <glyph glyph-name="uni030A" unicode="&#x30a;" 
d="M-142 663q21 -20 21 -53t-21 -53t-54 -20t-53.5 20t-20.5 53t20.5 53t53.5 20t54 -20zM-158 571.5q14 14.5 14 38.5t-14 38.5t-37 14.5q-24 0 -38 -14.5t-14 -38.5t14 -38.5t38 -14.5q23 0 37 14.5z" />
    <glyph glyph-name="uni030B" unicode="&#x30b;" 
d="M-281 680l-99 -153l-10 2l59 154l50 3v-6zM-162 680l-99 -153l-10 2l58 154l51 3v-6z" />
    <glyph glyph-name="uni030C" unicode="&#x30c;" 
d="M-241 578q43 36 114 105l9 -9q-69 -90 -115 -141h-16q-31 33 -60.5 71t-36.5 46t-19 24l9 9q79 -75 115 -105z" />
    <glyph glyph-name="uni0312" unicode="&#x312;" 
d="M-72.5 571.5q-8.5 -9.5 -22.5 -9.5q-16 0 -24 10t-8 27q0 71 84 108l6 -9q-31 -15 -44.5 -34.5t-13.5 -38.5q0 -26 31 -27q0 -17 -8.5 -26.5z" />
    <glyph glyph-name="uni0326" unicode="&#x326;" 
d="M-138.5 -42.5q8.5 10.5 22.5 10.5q15 0 22.5 -10.5t7.5 -28.5q0 -78 -81 -116l-5 8q29 17 42 38t13 41q0 28 -29 29q-1 18 7.5 28.5z" />
    <glyph glyph-name="uni0327" unicode="&#x327;" 
d="M-110 -44q34 -5 53.5 -19.5t19.5 -37.5q0 -31 -30.5 -52.5t-95.5 -28.5l-1 11q49 9 70 22t21 34q0 16 -17.5 26t-53.5 13l-3 7l46 75l14 -1z" />
    <glyph glyph-name="uni0328" unicode="&#x328;" 
d="M-183 -153.5q-23 18.5 -23 49.5q0 38 40 68t100 45l4 -7q-100 -41 -100 -100q0 -24 14.5 -36.5t38.5 -12.5q21 0 36 6t31 17l5 -9q-34 -39 -88 -39q-35 0 -58 18.5z" />
    <glyph glyph-name="uni0335" unicode="&#x335;" 
d="M-37 339v-18h-270v18h270z" />
    <glyph glyph-name="uni0336" unicode="&#x336;" 
d="M-37 321h-425v18h425v-18z" />
    <glyph glyph-name="uni0337" unicode="&#x337;" 
d="M-37 375l-234 -135l-9 16l234 135z" />
    <glyph glyph-name="uni0338" unicode="&#x338;" 
d="M-99 531l13 -12l-421 -532l-13 12z" />
    <glyph glyph-name="uni0401" unicode="&#x401;" horiz-adv-x="608" 
d="M576 265l-20 -268h-1q-24 3 -81 3h-451v10l82 9q13 2 18.5 9.5t8 34.5t2.5 90v394q0 63 -2.5 90t-8 34.5t-18.5 9.5l-82 9v10h404q53 0 87 6l-1 -251h-10q-11 110 -19.5 154t-20.5 56t-40 14l-235 4q-6 -22 -6 -216v-92l248 6v-29l-248 7v-134q0 -99 3.5 -141t12 -54.5
t29.5 -11.5l243 2q25 2 38 17t25.5 65t31.5 163h11zM223 802q-9 8 -9 23t9 23t25 8q15 0 24 -8t9 -23t-9 -23t-24 -8q-16 0 -25 8zM368 802q-9 8 -9 23t9 23t25 8q15 0 24 -8t9 -23t-9 -23t-24 -8q-16 0 -25 8z" />
    <glyph glyph-name="uni0410" unicode="&#x410;" horiz-adv-x="654" 
d="M589 39.5q7 -11.5 19.5 -17.5t39.5 -12v-10h-254v10l114 9q13 1 18.5 4.5t5.5 12.5t-6 25l-77 210q-160 2 -266 2l-54 -150q-24 -63 -24 -81q0 -11 6 -16t21 -7l113 -9v-10h-239v10q32 7 46 16.5t28 35.5t39 91l186 511l-16 42v6h57q5 -35 36 -123l191 -514
q9 -24 16 -35.5zM264 291q124 0 178 1l-127 347l-126 -348h75z" />
    <glyph glyph-name="uni0411" unicode="&#x411;" horiz-adv-x="618" 
d="M506.5 350.5q68.5 -47.5 68.5 -144.5t-62 -151.5t-186 -54.5h-304v10l82 9q13 2 18.5 9.5t8 34.5t2.5 90v394q0 63 -2.5 90t-8 34.5t-18.5 9.5l-82 9v10h396q53 0 87 6h1l-2 -230h-9q-11 99 -20 139t-21 51t-40 13l-226 4q-7 -23 -7 -217v-64l117 -2q139 -2 207.5 -49.5z
M478 66q50 49 50 132q0 91 -56 137.5t-180 47.5l-110 2v-152q0 -103 2.5 -146.5t9 -56.5t21.5 -13h115q98 0 148 49z" />
    <glyph glyph-name="uni0412" unicode="&#x412;" horiz-adv-x="611" 
d="M568 197q0 -92 -63 -144.5t-189 -52.5h-293v10l82 9q13 2 18.5 9.5t8 34.5t2.5 90v394q0 63 -2.5 90t-8 34.5t-18.5 9.5l-82 9v10h275q106 0 160.5 -37.5t54.5 -116.5q0 -53 -35 -102t-79 -70q169 -33 169 -177zM182 466v-80l110 -2q43 0 90 -7q34 25 57.5 68t23.5 89
q0 147 -185 147h-89q-7 -21 -7 -215zM466.5 64q51.5 45 51.5 126t-55 128t-179 48l-102 1v-133q0 -99 2.5 -142t10.5 -58t26 -15h92q102 0 153.5 45z" />
    <glyph glyph-name="uni0413" unicode="&#x413;" horiz-adv-x="558" 
d="M23 10l82 9q13 2 18.5 9.5t8 34.5t2.5 90v394q0 63 -2.5 90t-8 34.5t-18.5 9.5l-82 9v10h411q62 0 96 6h1l-2 -251h-9q-13 114 -21.5 156.5t-21.5 54.5t-45 13l-244 4q-6 -24 -6 -216v-305q0 -67 3.5 -95.5t11.5 -36.5t26 -10l115 -9v-11h-315v10z" />
    <glyph glyph-name="uni0414" unicode="&#x414;" horiz-adv-x="736" 
d="M613.5 671.5q-5.5 -7.5 -8 -34.5t-2.5 -90v-486q0 -24 4 -31.5t15 -9.5l80 -6v-15l-2 -167h-12l-22 146q-2 12 -7 17t-14 5h-561q-10 0 -15 -4.5t-7 -17.5l-21 -146h-13l-2 168v19h38q50 0 81.5 47.5t49.5 161t27 315.5q2 33 2 76q0 27 -2.5 40t-7.5 17t-15 6l-81 7v11
h595v-10l-81 -9q-13 -2 -18.5 -9.5zM555 19v663h-308q-8 -220 -21 -353t-36.5 -208t-62.5 -102h428z" />
    <glyph glyph-name="uni0415" unicode="&#x415;" horiz-adv-x="608" 
d="M576 265l-20 -268h-1q-24 3 -81 3h-451v10l82 9q13 2 18.5 9.5t8 34.5t2.5 90v394q0 63 -2.5 90t-8 34.5t-18.5 9.5l-82 9v10h404q53 0 87 6l-1 -251h-10q-11 110 -19.5 154t-20.5 56t-40 14l-235 4q-6 -22 -6 -216v-92l248 6v-29l-248 7v-134q0 -99 3.5 -141t12 -54.5
t29.5 -11.5l243 2q25 2 38 17t25.5 65t31.5 163h11z" />
    <glyph glyph-name="uni0416" unicode="&#x416;" horiz-adv-x="951" 
d="M416 360q-57 0 -90.5 -28.5t-66.5 -85.5l-111 -193q-18 -32 -41 -44t-54 -12q-20 0 -46 8v10q36 1 59 17t48 59l92 158q38 65 77.5 94.5t109.5 31.5l-262 262q-29 29 -47 38.5t-53 14.5v10h225v-10l-48 -7q-26 -2 -39.5 -7.5t-13.5 -16.5q0 -12 19 -34l242 -252v-13z
M502.5 63.5q2.5 -26.5 8 -34t19.5 -9.5l81 -10v-10h-270v10l81 10q14 2 19.5 9.5t8 34t2.5 89.5v394q0 63 -2.5 89.5t-8 34t-19.5 9.5l-81 10v10h270v-10l-81 -10q-14 -2 -19.5 -9.5t-8 -34t-2.5 -89.5v-394q0 -63 2.5 -89.5zM886 31.5q23 -15.5 59 -16.5v-10q-26 -8 -46 -8
q-31 0 -54 12t-41 44l-112 193q-33 57 -66 85.5t-91 28.5v13l242 252q21 23 21 34q0 10 -13 15.5t-42 8.5l-48 7v10h226v-10q-36 -5 -54 -14.5t-46 -38.5l-262 -262q70 -2 109.5 -31.5t77.5 -94.5l92 -158q25 -44 48 -59.5z" />
    <glyph glyph-name="uni0417" unicode="&#x417;" horiz-adv-x="501" 
d="M397 336.5q61 -45.5 61 -133.5q0 -59 -28 -106.5t-80.5 -75t-124.5 -27.5q-57 0 -108.5 14.5t-79.5 33.5l29 141l6 -1q3 -65 20.5 -101t49 -49.5t82.5 -13.5q58 0 99 25.5t61.5 67t20.5 89.5q0 90 -63 133.5t-188 43.5h-9v20h9q68 0 117.5 25.5t74.5 66t25 86.5
q0 52 -37.5 84.5t-100.5 32.5q-71 0 -105 -32.5t-35 -118.5l-7 -1l-32 128q29 18 79.5 33t102.5 15q85 0 135.5 -38t50.5 -98q0 -66 -50 -119t-137 -71q101 -8 162 -53.5z" />
    <glyph glyph-name="uni0418" unicode="&#x418;" horiz-adv-x="757" 
d="M633.5 668q-5.5 -10 -7.5 -39t-2 -98v-362q0 -71 3 -101.5t9 -40t21 -11.5l77 -5v-11h-299v11l108 6q26 3 37.5 14t16 40.5t6.5 97.5l6 473l-455 -642h-131v10l82 9q13 2 18.5 9.5t8 34.5t2.5 90v378q0 71 -3 101.5t-9 39.5t-21 12l-77 6v10h300v-10l-108 -7
q-27 -3 -38 -13.5t-15.5 -39.5t-6.5 -99l-5 -456l441 625h142v-10l-81 -9q-14 -3 -19.5 -13z" />
    <glyph glyph-name="uni0419" unicode="&#x419;" horiz-adv-x="757" 
d="M633.5 668q-5.5 -10 -7.5 -39t-2 -98v-362q0 -71 3 -101.5t9 -40t21 -11.5l77 -5v-11h-299v11l108 6q26 3 37.5 14t16 40.5t6.5 97.5l6 473l-455 -642h-131v10l82 9q13 2 18.5 9.5t8 34.5t2.5 90v378q0 71 -3 101.5t-9 39.5t-21 12l-77 6v10h300v-10l-108 -7
q-27 -3 -38 -13.5t-15.5 -39.5t-6.5 -99l-5 -456l441 625h142v-10l-81 -9q-14 -3 -19.5 -13zM300.5 833.5q-27.5 32.5 -26.5 97.5l12 4q3 -49 26 -72t65 -23q44 0 66.5 23t25.5 72l12 -4q2 -65 -26 -97.5t-78 -32.5q-49 0 -76.5 32.5z" />
    <glyph glyph-name="uni041A" unicode="&#x41a;" horiz-adv-x="648" 
d="M185.5 63.5q2.5 -26.5 8 -34t18.5 -9.5l82 -10v-10h-270v10l81 10q13 2 18.5 9.5t8 34t2.5 89.5v394q0 63 -2.5 89.5t-8 34t-19.5 9.5l-81 10v10h270v-10l-81 -10q-14 -2 -19.5 -9.5t-8 -34t-2.5 -89.5l1 -394q0 -63 2.5 -89.5zM580 31.5q24 -15.5 62 -16.5v-10
q-22 -8 -48 -8q-31 0 -54 12t-43 44l-115 193q-23 38 -43.5 61.5t-49.5 38t-70 14.5v13l250 252q20 22 20 33q0 10 -14 16t-43 9l-48 6v11h233v-11q-38 -5 -55.5 -14t-48.5 -38l-270 -262q50 -1 84 -15.5t58 -40.5t51 -70l94 -158q26 -44 50 -59.5z" />
    <glyph glyph-name="uni041B" unicode="&#x41b;" horiz-adv-x="758" 
d="M634.5 671.5q-5.5 -7.5 -8 -34.5t-2.5 -90v-394q0 -63 2.5 -89.5t8 -34t19.5 -9.5l81 -10v-10h-270v10l81 10q14 2 19.5 9.5t8 34t2.5 89.5v529h-333q-10 -273 -27.5 -417.5t-53 -208.5t-101.5 -64q-15 0 -35 3v60h2q23 -5 38 -5q49 0 78.5 40.5t47.5 146.5t26 306
q3 51 3 78q0 26 -2.5 38.5t-7.5 16t-15 5.5l-82 8v11h621v-10l-82 -9q-13 -2 -18.5 -9.5z" />
    <glyph glyph-name="uni041C" unicode="&#x41c;" horiz-adv-x="892" 
d="M880 11v-11h-305v11l104 6q18 3 26 7t12 17t4 41q0 26 -3 69l-26 476l-259 -629l-14 -1l-242 628l-40 -473q-4 -41 -4 -73q0 -26 4.5 -38.5t13.5 -17t28 -6.5l112 -6v-11h-279v10l53 5q17 4 25.5 13.5t14.5 37.5t12 92l36 390q5 51 5 88q0 28 -5.5 35t-20.5 10l-98 9v10
h165l243 -634l228 568q14 35 19 66h179v-10l-98 -9q-12 -2 -17.5 -5.5t-8.5 -16t-3 -38.5t3 -74l22 -396q3 -61 7.5 -88t11 -34.5t19.5 -10.5z" />
    <glyph glyph-name="uni041D" unicode="&#x41d;" horiz-adv-x="763" 
d="M639.5 670.5q-5.5 -7.5 -8 -34t-2.5 -89.5v-394q0 -63 2.5 -89.5t8 -34t18.5 -9.5l82 -10v-10h-271v10l82 10q13 2 18.5 9.5t8 34t2.5 89.5v205q-99 1 -199 1.5t-199 0.5l1 -207q0 -63 2.5 -89.5t8 -34t18.5 -9.5l82 -10v-10h-270v10l81 10q13 2 18.5 9.5t8 34t2.5 89.5
v394q0 63 -2.5 89.5t-8 34t-19.5 9.5l-81 10v10h270v-10l-81 -10q-14 -2 -19.5 -9.5t-8 -34t-2.5 -89.5v-169q267 0 398 2v167q0 63 -2.5 89.5t-8 34t-18.5 9.5l-82 10v10h271v-10l-82 -10q-13 -2 -18.5 -9.5z" />
    <glyph glyph-name="uni041E" unicode="&#x41e;" horiz-adv-x="705" 
d="M181.5 29q-69.5 44 -107 124.5t-37.5 186.5q0 110 41 195.5t114.5 133t168.5 47.5q94 0 163.5 -44t106.5 -124t37 -185q0 -111 -40.5 -197t-114.5 -133.5t-169 -47.5q-93 0 -162.5 44zM493 50q57 41 88.5 115.5t31.5 173.5q0 106 -33.5 186t-94 123.5t-139.5 43.5
q-76 0 -133.5 -41t-89 -115.5t-31.5 -172.5q0 -107 33.5 -187t94 -123.5t140.5 -43.5q76 0 133 41z" />
    <glyph glyph-name="uni041F" unicode="&#x41f;" horiz-adv-x="749" 
d="M625.5 671.5q-5.5 -7.5 -8 -34.5t-2.5 -90v-394q0 -63 2.5 -89.5t8 -34t18.5 -9.5l82 -10v-10h-271v10l82 10q13 2 18.5 9.5t8 34t2.5 89.5v529h-384v-529q0 -63 2.5 -89.5t8 -34t19.5 -9.5l81 -10v-10h-270v10l81 10q14 2 19.5 9.5t8 34t2.5 89.5v394q0 63 -2.5 90
t-8 34.5t-18.5 9.5l-82 9v10h703v-10l-82 -9q-13 -2 -18.5 -9.5z" />
    <glyph glyph-name="uni0420" unicode="&#x420;" horiz-adv-x="552" 
d="M23 10l82 9q13 2 18.5 9.5t8 34.5t2.5 90v394q0 63 -2.5 90t-8 34.5t-18.5 9.5l-82 9v10h242q272 0 272 -187q0 -92 -72.5 -151.5t-235.5 -72.5l-2 12q132 20 194 67t62 137q0 92 -61.5 134t-177.5 42h-53q-4 -9 -6.5 -52t-2.5 -163v-313q0 -63 4 -90t12 -34.5t28 -9.5
l123 -9v-10h-326v10z" />
    <glyph glyph-name="uni0421" unicode="&#x421;" horiz-adv-x="640" 
d="M183 29.5q-69 44.5 -107.5 125.5t-38.5 188t41 192t116.5 133t174.5 48q64 0 114 -16.5t81 -40.5l-49 -164h-7q3 29 3 51q0 83 -37.5 114.5t-114.5 31.5q-84 0 -145 -42t-93 -116.5t-32 -168.5q0 -103 33.5 -179.5t94 -117.5t138.5 -41q108 0 169 69t69 178h11
q-1 -80 -29.5 -145.5t-87 -104.5t-146.5 -39q-89 0 -158 44.5z" />
    <glyph glyph-name="uni0422" unicode="&#x422;" horiz-adv-x="613" 
d="M582 706l-1 -272h-12q-12 124 -20.5 171.5t-20.5 60.5t-42 15l-154 2q-3 -81 -3 -227v-303q0 -63 3 -90t10.5 -34.5t24.5 -9.5l106 -9v-10h-336v10l106 9q17 2 24.5 9.5t10.5 34.5t3 90v303q0 175 -4 227l-153 -2q-27 -2 -38 -13.5t-20 -59.5t-25 -174h-12l6 272h1
q34 -6 80 -6h378q49 0 87 6h1z" />
    <glyph glyph-name="uni0423" unicode="&#x423;" horiz-adv-x="604" 
d="M598 700v-10q-43 -6 -61.5 -21t-35.5 -51l-176 -368q-44 -92 -76 -145.5t-68.5 -83t-82.5 -29.5q-22 0 -34 2v60h1q16 -4 44 -4q52 0 95 38.5t93 137.5l-207 409q-16 30 -31 40.5t-53 14.5v10h264v-10l-112 -9q-23 -1 -23 -19q0 -10 6 -22l180 -361l155 337q12 29 12 40
q0 22 -35 25l-106 9v10h251z" />
    <glyph glyph-name="uni0424" unicode="&#x424;" horiz-adv-x="765" 
d="M644 168.5q-84 -65.5 -237 -66.5q1 -41 4 -59.5t8 -24t17 -7.5l81 -10v-10h-270v10l82 10q12 2 17 7.5t8 24t4 59.5q-157 1 -239 62.5t-82 186.5q0 116 84 181t237 66q-1 41 -4 59.5t-8 24t-17 7.5l-82 10v10h270v-10l-81 -10q-12 -2 -17 -7.5t-8 -24t-4 -59.5
q157 -1 239 -62t82 -185q0 -117 -84 -182.5zM358 125v19v412v20q-127 -1 -196 -60.5t-69 -164.5q0 -224 265 -226zM603 185.5q69 59.5 69 165.5q0 223 -265 225v-20v-412v-19q127 1 196 60.5z" />
    <glyph glyph-name="uni0425" unicode="&#x425;" horiz-adv-x="651" 
d="M592.5 26.5q13.5 -8.5 52.5 -16.5v-10h-237v11l83 8q23 2 23 16q0 9 -9 22l-190 275l-176 -247q-20 -29 -20 -45q0 -19 33 -23l89 -6v-11h-234v10q29 5 45.5 13t27.5 19.5t30 37.5l194 267l-203 294q-16 24 -30 32.5t-54 16.5v10h249v-10l-95 -9q-23 -2 -23 -16
q0 -8 9 -22l180 -260l164 233q19 29 19 43q0 20 -33 24l-89 7v10h235v-10q-42 -7 -60 -20t-44 -50l-181 -252l213 -308q18 -25 31.5 -33.5z" />
    <glyph glyph-name="uni0426" unicode="&#x426;" horiz-adv-x="737" 
d="M614.5 670.5q-5.5 -7.5 -8 -34t-2.5 -89.5v-486q0 -24 4 -32t15 -10l80 -6v-14l-2 -167h-12l-22 146q-2 12 -7 17t-14 5h-622v10l81 9q13 2 18.5 9.5t8 34.5t2.5 90v394q0 63 -2.5 89.5t-8 34t-19.5 9.5l-81 10v10h270v-10l-81 -10q-14 -2 -19.5 -9.5t-8 -34t-2.5 -89.5
v-529h373v529q0 63 -2.5 89.5t-8 34t-18.5 9.5l-82 10v10h270v-10l-81 -10q-13 -2 -18.5 -9.5z" />
    <glyph glyph-name="uni0427" unicode="&#x427;" horiz-adv-x="735" 
d="M611.5 670.5q-5.5 -7.5 -8 -34t-2.5 -89.5v-394q0 -63 2.5 -90t8 -34.5t18.5 -9.5l82 -9v-10h-292v10l98 9q16 2 22.5 9.5t9.5 34.5t3 90v169q-49 -19 -106 -29.5t-115 -10.5q-105 0 -154.5 52t-49.5 162q0 89 -2.5 126.5t-8.5 47t-19 11.5l-81 8v11h270v-11l-81 -8
q-14 -2 -19.5 -12t-8 -47t-2.5 -124q0 -94 43.5 -137.5t136.5 -43.5q81 0 197 22v208q0 63 -2.5 89.5t-8 34t-19.5 9.5l-81 10v10h270v-10l-81 -10q-14 -2 -19.5 -9.5z" />
    <glyph glyph-name="uni0428" unicode="&#x428;" horiz-adv-x="1088" 
d="M965 670.5q-6 -7.5 -8.5 -34.5t-2.5 -89v-394q0 -62 2.5 -89.5t8 -35t18.5 -9.5l82 -9v-10h-1041v10l81 9q13 2 18.5 9.5t8 34.5t2.5 90v394q0 63 -2.5 89.5t-8 34t-19.5 9.5l-81 10v10h270v-10l-81 -10q-14 -2 -19.5 -9.5t-8 -34t-2.5 -89.5v-529h338v529q0 63 -2.5 90
t-7.5 34.5t-17 9.5l-76 9v10h254v-10l-76 -9q-12 -2 -17 -9.5t-7.5 -34.5t-2.5 -90v-529h338v529q0 63 -2.5 89.5t-8 34t-18.5 9.5l-82 10v10h270v-10l-81 -10q-13 -2 -19 -9.5z" />
    <glyph glyph-name="uni0429" unicode="&#x429;" horiz-adv-x="1068" 
d="M945 670.5q-6 -7.5 -8.5 -34.5t-2.5 -89v-486q0 -24 4.5 -32t15.5 -10l80 -6v-14l-2 -167h-13l-21 146q-2 12 -7 17t-15 5h-952v10l81 9q13 2 18.5 9.5t8 34.5t2.5 90v394q0 63 -2.5 89.5t-8 34t-19.5 9.5l-81 10v10h270v-10l-81 -10q-14 -2 -19.5 -9.5t-8 -34
t-2.5 -89.5v-529h328v529q0 63 -2.5 90t-7.5 34.5t-17 9.5l-76 9v10h254v-10l-76 -9q-12 -2 -17 -9.5t-7.5 -34.5t-2.5 -90v-529h328v529q0 63 -2.5 89.5t-8 34t-18.5 9.5l-82 10v10h270v-10l-81 -10q-13 -2 -19 -9.5z" />
    <glyph glyph-name="uni042A" unicode="&#x42a;" horiz-adv-x="712" 
d="M628 350.5q69 -47.5 69 -144.5t-62 -151.5t-186 -54.5h-293v10l82 9q13 2 18.5 9.5t8 35t2.5 89.5v529l-145 -3q-28 -2 -40 -12.5t-20.5 -46.5t-19.5 -127h-10l-2 213h1q34 -6 87 -6h329v-10l-98 -9q-16 -2 -22.5 -9.5t-9.5 -34.5t-3 -90v-145l107 -2q138 -2 207 -49.5z
M600.5 66q49.5 49 49.5 132q0 90 -56 137t-179 48l-101 2v-152q0 -102 2.5 -146t9 -57t21.5 -13h106q98 0 147.5 49z" />
    <glyph glyph-name="uni042B" unicode="&#x42b;" horiz-adv-x="907" 
d="M506 350.5q69 -47.5 69 -144.5t-62 -151.5t-186 -54.5h-304v10l82 9q13 2 18.5 9.5t8 34.5t2.5 90v394q0 63 -2.5 90t-8 34.5t-18.5 9.5l-82 9v10h292v-10l-98 -9q-16 -2 -22.5 -9.5t-9.5 -34.5t-3 -90v-145l117 -2q138 -2 207 -49.5zM478 66q50 49 50 132
q0 91 -56 137.5t-180 47.5l-110 2v-152q0 -103 2.5 -146.5t9 -56.5t21.5 -13h115q98 0 148 49zM721.5 636.5q-2.5 26.5 -8 34t-19.5 9.5l-81 10v10h270v-10l-81 -10q-14 -2 -19.5 -9.5t-8 -34t-2.5 -89.5l1 -394q0 -63 2.5 -89.5t8 -34t18.5 -9.5l82 -10v-10h-270v10l81 10
q13 2 18.5 9.5t8 34t2.5 89.5v394q0 63 -2.5 89.5z" />
    <glyph glyph-name="uni042C" unicode="&#x42c;" horiz-adv-x="590" 
d="M506 350.5q69 -47.5 69 -144.5t-62 -151.5t-186 -54.5h-304v10l82 9q13 2 18.5 9.5t8 34.5t2.5 90v394q0 63 -2.5 90t-8 34.5t-18.5 9.5l-82 9v10h292v-10l-98 -9q-16 -2 -22.5 -9.5t-9.5 -34.5t-3 -90v-145l117 -2q138 -2 207 -49.5zM478 66q50 49 50 132
q0 91 -56 137.5t-180 47.5l-110 2v-152q0 -103 2.5 -146.5t9 -56.5t21.5 -13h115q98 0 148 49z" />
    <glyph glyph-name="uni042D" unicode="&#x42d;" horiz-adv-x="606" 
d="M422.5 668q71.5 -48 109 -131t37.5 -186q0 -106 -37.5 -189t-108 -130t-167.5 -47q-71 0 -129.5 18t-89.5 41l46 158l6 -1q-1 -106 40.5 -148.5t127.5 -42.5q80 0 139 41.5t90.5 118.5t31.5 181l-304 -6l-1 26l305 -4q-2 97 -34.5 170t-90.5 113.5t-135 40.5
q-86 0 -127 -42.5t-40 -148.5l-6 -1l-46 158q31 23 89 41t126 18q97 0 168.5 -48z" />
    <glyph glyph-name="uni042E" unicode="&#x42e;" horiz-adv-x="1015" 
d="M841.5 672.5q65.5 -43.5 101 -123.5t35.5 -185q0 -110 -40 -196.5t-110 -134.5t-159 -48q-90 0 -155.5 43.5t-100.5 123.5t-35 187v19q-122 2 -196 2l1 -207q0 -63 2.5 -89.5t8 -34t18.5 -9.5l82 -10v-10h-270v10l81 10q13 2 18.5 9.5t8 34t2.5 89.5v394q0 63 -2.5 89.5
t-8 34t-19.5 9.5l-81 10v10h270v-10l-81 -10q-14 -2 -19.5 -9.5t-8 -34t-2.5 -89.5v-169h67q87 0 130 1q7 100 48 176.5t108.5 118.5t152.5 42q88 0 153.5 -43.5zM808.5 50.5q54.5 40.5 85 114.5t30.5 172q0 108 -32.5 188t-89.5 122.5t-130 42.5q-71 0 -125 -40t-84 -114
t-30 -172q0 -109 31.5 -189t88.5 -122.5t133 -42.5q68 0 122.5 40.5z" />
    <glyph glyph-name="uni042F" unicode="&#x42f;" horiz-adv-x="628" 
d="M504.5 671.5q-5.5 -7.5 -8 -34.5t-2.5 -90v-394q0 -63 2.5 -90t8 -34.5t18.5 -9.5l82 -9v-10h-269v10l81 9q13 2 18.5 9.5t8 34.5t2.5 90v313q0 194 -7 215h-55q-118 0 -180.5 -44t-62.5 -134q0 -79 57 -123t162 -44h82v-20l-76 -1q-16 0 -42 2q-69 -132 -178 -276
q-19 -27 -36.5 -38.5t-41.5 -11.5q-32 0 -62 11v7q39 4 55 13t40 38q89 109 177 262q-94 17 -142 68t-48 122q0 91 69.5 139.5t199.5 48.5h248v-10l-82 -9q-13 -2 -18.5 -9.5z" />
    <glyph glyph-name="uni0430" unicode="&#x430;" horiz-adv-x="464" 
d="M72 16.5q-29 31.5 -29 77.5q0 60 49 93.5t159 56.5l53 11l1 72q0 119 -96 119q-57 0 -85.5 -38t-24.5 -115h-50q9 85 56.5 132t120.5 47q60 0 91.5 -34.5t31.5 -98.5v-36l-2 -192q0 -87 42 -87q30 0 42 28.5t14 98.5h10q2 -84 -16 -123.5t-63 -39.5q-33 0 -51.5 26
t-18.5 81h-4q-64 -110 -153 -110q-48 0 -77 31.5zM246.5 52q33.5 28 58.5 71v116l-46 -14q-93 -24 -133 -49t-40 -70q0 -37 21.5 -59.5t57.5 -22.5q48 0 81.5 28z" />
    <glyph glyph-name="uni0431" unicode="&#x431;" horiz-adv-x="484" 
d="M86 55.5q-49 70.5 -49 217.5q0 152 26 235.5t80.5 122t152.5 55.5q84 15 113 60l8 -6q-1 -88 -125 -101q-86 -10 -133.5 -43t-69 -96t-26.5 -173l2 -1q29 79 78 110.5t106 31.5q97 0 147 -61.5t50 -169.5q0 -77 -25 -134t-70.5 -87.5t-106.5 -30.5q-109 0 -158 70.5z
M355.5 63q41.5 56 41.5 159q0 102 -38.5 162.5t-113.5 60.5q-45 0 -80.5 -27t-56 -74t-20.5 -105q0 -114 37.5 -173t117.5 -59q71 0 112.5 56z" />
    <glyph glyph-name="uni0432" unicode="&#x432;" horiz-adv-x="461" 
d="M424 132q0 -61 -45 -96.5t-128 -35.5h-226v10l59 7q12 2 16.5 7.5t7 23.5t2.5 60v242q0 41 -2.5 59.5t-7.5 23.5t-16 7l-59 7v10h216q149 0 149 -105q0 -35 -24 -65t-54 -44q112 -26 112 -111zM155 305v-52h49q55 0 91 -7q20 19 33 44.5t13 54.5q0 43 -27.5 67.5
t-93.5 24.5h-60q-5 -10 -5 -132zM341.5 50q32.5 29 32.5 78q0 45 -41 74.5t-140 30.5h-38v-119q0 -43 3 -61t15 -25t40 -7h31q65 0 97.5 29z" />
    <glyph glyph-name="uni0433" unicode="&#x433;" horiz-adv-x="397" 
d="M25 10l59 7q12 2 16.5 7.5t7 23.5t2.5 60v242q0 41 -2.5 59.5t-7.5 23.5t-16 7l-59 7v10h241q33 0 65.5 3.5t42.5 7.5l6 -150h-9q-13 55 -23 79t-23.5 31.5t-40.5 8.5l-125 2q-4 -20 -4 -131v-194q0 -44 3 -63t10 -25t22 -8l83 -7v-11h-248v10z" />
    <glyph glyph-name="uni0434" unicode="&#x434;" horiz-adv-x="507" 
d="M406 433q-5 -5 -7 -23.5t-2 -59.5v-277q0 -33 6 -43.5t21 -12.5l53 -4v-14l-1 -131h-11l-17 116q-2 8 -5 12t-11 4h-380q-7 0 -11 -4t-6 -14l-17 -114h-10l-2 132v21h21q50 0 75.5 60t32.5 197q4 69 4 110q0 23 -2 34t-5.5 14t-11.5 4l-62 8v9h423v-10l-59 -7
q-11 -2 -16 -7zM352 21v416h-189q-6 -138 -13 -218t-22.5 -129t-42.5 -69h267z" />
    <glyph glyph-name="uni0435" unicode="&#x435;" horiz-adv-x="444" 
d="M411 200q-3 -100 -49.5 -157.5t-129.5 -57.5q-53 0 -97.5 26.5t-71 79t-26.5 127.5q0 79 28 136.5t74 87.5t97 30q76 0 122.5 -50.5t46.5 -147.5l-7 -8l-312 4q-2 -22 -2 -35q0 -97 44 -155.5t118 -58.5q69 0 108.5 47.5t44.5 131.5h12zM137 407q-40 -44 -50 -121l268 3
q1 4 1 18q0 30 -10.5 62.5t-38 57t-74.5 24.5q-56 0 -96 -44z" />
    <glyph glyph-name="uni0436" unicode="&#x436;" horiz-adv-x="691" 
d="M293 232q-37 0 -58.5 -15t-43.5 -52l-75 -128q-12 -21 -31.5 -30t-47.5 -9q-14 0 -31 3v10q21 1 39.5 13.5t31.5 33.5l68 113q27 44 53 59t75 16l-178 156q-27 23 -42 31.5t-42 14.5v9h170v-9l-47 -5q-25 -5 -25 -14q0 -11 21 -31l163 -150v-16zM370 48q2 -18 6.5 -23.5
t14.5 -7.5l53 -7v-10h-205v10l59 7q11 2 16 7.5t7 23.5t2 60v242q0 41 -2 59.5t-7 23.5t-16 7l-59 7v10h205v-10l-53 -7q-10 -2 -14.5 -7t-6.5 -23.5t-2 -59.5v-242q0 -42 2 -60zM645.5 24.5q18.5 -12.5 39.5 -13.5v-10q-15 -3 -31 -3q-28 0 -47 8.5t-32 30.5l-74 128
q-22 37 -43.5 52t-58.5 15v16l162 150q21 21 21 30q0 12 -25 15l-47 5v9h170v-9q-28 -7 -42.5 -15t-40.5 -31l-178 -156q49 -1 74.5 -15.5t52.5 -59.5l69 -113q12 -21 30.5 -33.5z" />
    <glyph glyph-name="uni0437" unicode="&#x437;" horiz-adv-x="381" 
d="M301 214.5q43 -30.5 43 -91.5t-47 -98.5t-122 -37.5q-40 0 -79 10t-65 25l18 112h6q11 -72 37.5 -99t81.5 -27q57 0 88.5 31t31.5 80q0 118 -157 118h-10v20h10q61 0 95.5 32.5t34.5 80.5q0 37 -24.5 59t-68.5 22q-47 0 -70 -25t-33 -86h-7l-17 95q25 16 60.5 26.5
t67.5 10.5q66 0 103 -27.5t37 -72.5q0 -94 -127 -123q70 -4 113 -34.5z" />
    <glyph glyph-name="uni0438" unicode="&#x438;" horiz-adv-x="572" 
d="M472 433q-5 -5 -7.5 -23.5t-2.5 -59.5v-242q0 -42 2.5 -60t7 -23.5t16.5 -7.5l58 -7v-10h-188v10l59 7q11 2 16 7.5t7 23.5t2 60v298l-309 -406h-108v10l59 7q12 2 16.5 7.5t7 23.5t2.5 60v242q0 41 -2.5 59.5t-7.5 23.5t-16 7l-59 7v10h189v-10l-59 -7q-11 -2 -16 -7
t-7 -23.5t-2 -59.5v-283l297 390h119v-10l-58 -7q-11 -2 -16 -7z" />
    <glyph glyph-name="uni0439" unicode="&#x439;" horiz-adv-x="572" 
d="M472 433q-5 -5 -7.5 -23.5t-2.5 -59.5v-242q0 -42 2.5 -60t7 -23.5t16.5 -7.5l58 -7v-10h-188v10l59 7q11 2 16 7.5t7 23.5t2 60v298l-309 -406h-108v10l59 7q12 2 16.5 7.5t7 23.5t2.5 60v242q0 41 -2.5 59.5t-7.5 23.5t-16 7l-59 7v10h189v-10l-59 -7q-11 -2 -16 -7
t-7 -23.5t-2 -59.5v-283l297 390h119v-10l-58 -7q-11 -2 -16 -7zM210.5 590.5q-27.5 32.5 -26.5 97.5l12 4q3 -49 26 -72t65 -23q44 0 66.5 23t25.5 72l12 -4q2 -65 -26 -97.5t-78 -32.5q-49 0 -76.5 32.5z" />
    <glyph glyph-name="uni043A" unicode="&#x43a;" horiz-adv-x="483" 
d="M157 48q2 -18 6.5 -23.5t14.5 -7.5l53 -7v-10h-206v10l59 7q12 2 16.5 7.5t7 23.5t2.5 60v242q0 41 -2.5 59.5t-7.5 23.5t-16 7l-59 7v10h206v-10l-53 -7q-10 -2 -14.5 -7t-6.5 -23.5t-2 -59.5v-242q0 -42 2 -60zM437 24q19 -12 40 -13v-10q-16 -3 -32 -3q-28 0 -47.5 9
t-32.5 30l-76 128q-23 38 -44 52.5t-59 14.5v16l164 150q22 19 22 30t-26 15l-47 5v9h171v-8q-26 -6 -41 -14.5t-43 -32.5l-180 -156q49 -1 75.5 -15.5t53.5 -59.5l70 -113q13 -22 32 -34z" />
    <glyph glyph-name="uni043B" unicode="&#x43b;" horiz-adv-x="523" 
d="M422 433q-5 -5 -7 -23.5t-2 -59.5v-259q0 -33 2 -47.5t7 -19t16 -6.5l59 -7v-11h-214v11l59 7q11 2 16 6.5t7.5 19t2.5 47.5v346h-210q-7 -181 -17 -268.5t-36 -129.5t-80 -42q-12 0 -19 1v51h2q9 -2 27 -2q29 0 48 20t30.5 70.5t16.5 142.5q4 67 4 108q0 31 -4 40
t-14 11l-63 8v10h444v-10l-59 -7q-11 -2 -16 -7z" />
    <glyph glyph-name="uni043C" unicode="&#x43c;" horiz-adv-x="666" 
d="M641 10v-10h-208v10l37 6q30 5 38 12t8 32q0 19 -1 32l-16 304l-167 -396l-16 -2l-168 398l-27 -309q-1 -10 -1 -25q0 -24 7.5 -33.5t26.5 -12.5l56 -6v-10h-185v10l36 6q20 4 27.5 18t11.5 58l23 258q3 35 3 53q0 23 -5 29t-19 8l-71 7v10h138l167 -393l138 327
q17 39 19 66h147v-10l-71 -7q-15 -2 -20.5 -10t-5.5 -37q0 -7 2 -43l16 -260q2 -31 5 -45.5t9.5 -20.5t18.5 -8z" />
    <glyph glyph-name="uni043D" unicode="&#x43d;" horiz-adv-x="566" 
d="M466 433q-5 -5 -7.5 -23.5t-2.5 -59.5v-242q0 -42 2.5 -60t7 -23.5t16.5 -7.5l59 -7v-10h-214v10l59 7q12 2 16.5 7.5t7 23.5t2.5 60v118q-78 1 -257 1v-119q0 -42 2 -60t7 -23.5t16 -7.5l59 -7v-10h-214v10l59 7q12 2 16.5 7.5t7 23.5t2.5 60v242q0 41 -2.5 59.5
t-7.5 23.5t-16 7l-59 7v10h214v-10l-59 -7q-11 -2 -16 -7t-7 -23.5t-2 -59.5v-103h121t136 1v102q0 41 -2.5 59.5t-7.5 23.5t-16 7l-59 7v10h214v-10l-59 -7q-11 -2 -16 -7z" />
    <glyph glyph-name="uni043E" unicode="&#x43e;" horiz-adv-x="483" 
d="M91 49.5q-54 63.5 -54 171.5q0 73 26.5 130t74 89t108.5 32q92 0 146 -64t54 -171q0 -74 -26.5 -131t-74 -88.5t-107.5 -31.5q-93 0 -147 63.5zM356 66.5q40 59.5 40 153.5q0 104 -42 167.5t-115 63.5q-71 0 -111.5 -59.5t-40.5 -154.5q0 -103 42.5 -166.5t115.5 -63.5
q71 0 111 59.5z" />
    <glyph glyph-name="uni043F" unicode="&#x43f;" horiz-adv-x="566" 
d="M466 433q-5 -5 -7.5 -23.5t-2.5 -59.5v-242q0 -42 2.5 -60t7 -23.5t16.5 -7.5l59 -7v-10h-214v10l59 7q12 2 16.5 7.5t7 23.5t2.5 60v329h-257v-329q0 -42 2 -60t7 -23.5t16 -7.5l59 -7v-10h-214v10l59 7q12 2 16.5 7.5t7 23.5t2.5 60v242q0 41 -2.5 59.5t-7.5 23.5
t-16 7l-59 7v10h516v-10l-59 -7q-11 -2 -16 -7z" />
    <glyph glyph-name="uni0440" unicode="&#x440;" horiz-adv-x="491" 
d="M130 -130q3 -16 10 -21.5t24 -8.5l111 -7v-11h-278v11l59 7q12 2 16.5 7t7 21.5t2.5 54.5l1 428q0 30 -1.5 43t-7.5 17.5t-20 5.5l-47 2v9l112 36l8 -1v-68h4q36 35 77.5 56t79.5 21q75 0 120.5 -59.5t45.5 -164.5q0 -77 -26.5 -137t-72.5 -93t-103 -33q-36 0 -69.5 13
t-55.5 33v-108q0 -37 3 -53zM333 32q34 25 54 74.5t20 119.5q0 104 -39 158t-103 54t-138 -64v-268q2 -25 20.5 -48t48 -37t63.5 -14q40 0 74 25z" />
    <glyph glyph-name="uni0441" unicode="&#x441;" horiz-adv-x="442" 
d="M133 12.5q-44 27.5 -70 80t-26 125.5q0 80 30 137.5t79.5 87t106.5 29.5q78 0 137 -39l-38 -117l-7 1q4 73 -20.5 103.5t-77.5 30.5q-46 0 -83 -25.5t-58.5 -74.5t-21.5 -118q0 -95 43 -153.5t118 -58.5q68 0 109 47.5t47 131.5h10q-3 -101 -49.5 -158t-130.5 -57
q-54 0 -98 27.5z" />
    <glyph glyph-name="uni0442" unicode="&#x442;" horiz-adv-x="425" 
d="M407 318l-9 -1q-15 55 -25.5 79.5t-23.5 32t-38 8.5l-75 2q-2 -40 -2 -141v-190q0 -42 2.5 -60t8 -23.5t18.5 -7.5l67 -7v-10h-236v10l67 7q13 2 18.5 7.5t8 23.5t2.5 60v190q0 93 -2 141l-74 -2q-25 -1 -38.5 -9t-24 -32t-25.5 -79l-8 1l6 150q10 -4 42.5 -7.5
t65.5 -3.5h161q33 0 65.5 3.5t42.5 7.5z" />
    <glyph glyph-name="uni0443" unicode="&#x443;" horiz-adv-x="456" 
d="M451 457v-9q-29 -8 -39 -18t-20 -34l-152 -379q-29 -70 -56.5 -113t-67 -67t-96.5 -25l-8 56l2 1q11 -2 34 -2q53 0 94.5 29t70.5 101l-158 415q-7 18 -16 25t-35 11v9h190v-10l-68 -6q-15 -2 -21 -6t-6 -11q0 -5 3 -13l135 -361l125 334q7 18 7 31t-7.5 19.5t-22.5 8.5
l-67 4v10h179z" />
    <glyph glyph-name="uni0444" unicode="&#x444;" horiz-adv-x="585" 
d="M487.5 52.5q-60.5 -65.5 -173.5 -66.5v-74q0 -32 2.5 -46.5t7.5 -19t16 -6.5l59 -7v-11h-214v11l59 7q11 2 16 6.5t7.5 19t2.5 46.5v74q-112 1 -172.5 66.5t-60.5 176.5t60.5 176.5t172.5 66.5v151q1 32 -1 44.5t-7.5 16.5t-20.5 5l-46 1v10l115 35l5 -1v-111v-151
q112 -1 172.5 -66.5t60.5 -176.5t-60.5 -176.5zM133.5 67.5q46.5 -59.5 136.5 -60.5v443q-90 -1 -136.5 -60.5t-46.5 -160.5q0 -102 46.5 -161.5zM451 389.5q-47 59.5 -136 60.5l-1 -443q90 1 137 60.5t47 161.5q0 101 -47 160.5z" />
    <glyph glyph-name="uni0445" unicode="&#x445;" horiz-adv-x="466" 
d="M420.5 22q13.5 -8 39.5 -13v-9h-199v11l70 5q18 3 18 13q0 6 -6 15l-122 168l-107 -151q-13 -18 -13 -28q0 -14 23 -18l66 -4v-11h-184v10q30 4 44 12.5t35 34.5l126 168l-133 186q-12 16 -24 23.5t-43 12.5v10h199v-11l-70 -5q-18 -1 -18 -11q0 -5 7 -16l113 -160
l102 142q12 17 12 28q0 15 -24 19l-57 3v11h176v-10q-31 -4 -44.5 -13t-33.5 -34l-122 -158l144 -196q12 -16 25.5 -24z" />
    <glyph glyph-name="uni0446" unicode="&#x446;" horiz-adv-x="566" 
d="M466 433q-5 -5 -7.5 -23.5t-2.5 -59.5v-277q0 -33 6 -43.5t22 -12.5l53 -4v-14l-2 -131h-11l-17 116q-2 16 -16 16h-466v10l59 7q12 2 16.5 7.5t7 23.5t2.5 60v242q0 41 -2.5 59.5t-7.5 23.5t-16 7l-59 7v10h214v-10l-59 -7q-11 -2 -16 -7t-7 -23.5t-2 -59.5v-329h257
v329q0 41 -2.5 59.5t-7.5 23.5t-16 7l-59 7v10h214v-10l-59 -7q-11 -2 -16 -7z" />
    <glyph glyph-name="uni0447" unicode="&#x447;" horiz-adv-x="521" 
d="M421 433q-5 -5 -7.5 -23.5t-2.5 -59.5v-242q0 -42 2.5 -60t7 -23.5t16.5 -7.5l59 -7v-10h-214v10l59 7q11 2 16 7.5t7 23.5t2 60v84h-2q-42 -25 -75.5 -37t-75.5 -12q-65 0 -93.5 35t-28.5 101v71q0 41 -2.5 59.5t-7.5 23.5t-16 7l-59 7v10h208v-10l-55 -7q-10 -2 -15 -7
t-7 -23.5t-2 -59.5v-56q0 -58 22 -85t81 -27q55 0 128 27v141q0 42 -2 60t-6.5 23t-15.5 7l-55 7v10h209v-10l-59 -7q-11 -2 -16 -7z" />
    </font>
</defs>
</svg>
